<svg xmlns="http://www.w3.org/2000/svg" xmlns:xlink="http://www.w3.org/1999/xlink" version="1.1" width="721pt" height="523pt" viewBox="0 0 721 523">
<defs>
<clipPath id="clip_0">
<path transform="matrix(1,0,0,-1,0,523)" d="M0 0H721.44V523.44H0Z"/>
</clipPath>
<clipPath id="clip_1">
<path transform="matrix(1,0,0,-1,0,523)" d="M58.02 45.74H645.96V484.69H58.02Z"/>
</clipPath>
</defs>
<g clip-path="url(#clip_0)">
</g>
<g clip-path="url(#clip_1)">
<path transform="matrix(1,0,0,-1,0,523)" stroke-width="1.07" stroke-linecap="butt" stroke-linejoin="round" fill="none" stroke="#fafafa" d="M58.02 115.57H645.96"/>
<path transform="matrix(1,0,0,-1,0,523)" stroke-width="1.07" stroke-linecap="butt" stroke-linejoin="round" fill="none" stroke="#fafafa" d="M58.02 215.33H645.96"/>
<path transform="matrix(1,0,0,-1,0,523)" stroke-width="1.07" stroke-linecap="butt" stroke-linejoin="round" fill="none" stroke="#fafafa" d="M58.02 315.09H645.96"/>
<path transform="matrix(1,0,0,-1,0,523)" stroke-width="1.07" stroke-linecap="butt" stroke-linejoin="round" fill="none" stroke="#fafafa" d="M58.02 414.85H645.96"/>
<path transform="matrix(1,0,0,-1,0,523)" stroke-width=".43" stroke-linecap="butt" stroke-linejoin="round" fill="none" stroke="#e5e5e5" d="M58.02 65.69H645.96"/>
<path transform="matrix(1,0,0,-1,0,523)" stroke-width=".43" stroke-linecap="butt" stroke-linejoin="round" fill="none" stroke="#e5e5e5" d="M58.02 165.45H645.96"/>
<path transform="matrix(1,0,0,-1,0,523)" stroke-width=".43" stroke-linecap="butt" stroke-linejoin="round" fill="none" stroke="#e5e5e5" d="M58.02 265.21H645.96"/>
<path transform="matrix(1,0,0,-1,0,523)" stroke-width=".43" stroke-linecap="butt" stroke-linejoin="round" fill="none" stroke="#e5e5e5" d="M58.02 364.97H645.96"/>
<path transform="matrix(1,0,0,-1,0,523)" stroke-width=".43" stroke-linecap="butt" stroke-linejoin="round" fill="none" stroke="#e5e5e5" d="M58.02 464.73H645.96"/>
<path transform="matrix(1,0,0,-1,0,523)" stroke-width=".43" stroke-linecap="butt" stroke-linejoin="round" fill="none" stroke="#e5e5e5" d="M86.93 45.74V484.69"/>
<path transform="matrix(1,0,0,-1,0,523)" stroke-width=".43" stroke-linecap="butt" stroke-linejoin="round" fill="none" stroke="#e5e5e5" d="M135.12 45.74V484.69"/>
<path transform="matrix(1,0,0,-1,0,523)" stroke-width=".43" stroke-linecap="butt" stroke-linejoin="round" fill="none" stroke="#e5e5e5" d="M183.32 45.74V484.69"/>
<path transform="matrix(1,0,0,-1,0,523)" stroke-width=".43" stroke-linecap="butt" stroke-linejoin="round" fill="none" stroke="#e5e5e5" d="M231.51 45.74V484.69"/>
<path transform="matrix(1,0,0,-1,0,523)" stroke-width=".43" stroke-linecap="butt" stroke-linejoin="round" fill="none" stroke="#e5e5e5" d="M279.7 45.74V484.69"/>
<path transform="matrix(1,0,0,-1,0,523)" stroke-width=".43" stroke-linecap="butt" stroke-linejoin="round" fill="none" stroke="#e5e5e5" d="M327.89 45.74V484.69"/>
<path transform="matrix(1,0,0,-1,0,523)" stroke-width=".43" stroke-linecap="butt" stroke-linejoin="round" fill="none" stroke="#e5e5e5" d="M376.08 45.74V484.69"/>
<path transform="matrix(1,0,0,-1,0,523)" stroke-width=".43" stroke-linecap="butt" stroke-linejoin="round" fill="none" stroke="#e5e5e5" d="M424.28 45.74V484.69"/>
<path transform="matrix(1,0,0,-1,0,523)" stroke-width=".43" stroke-linecap="butt" stroke-linejoin="round" fill="none" stroke="#e5e5e5" d="M472.47 45.74V484.69"/>
<path transform="matrix(1,0,0,-1,0,523)" stroke-width=".43" stroke-linecap="butt" stroke-linejoin="round" fill="none" stroke="#e5e5e5" d="M520.66 45.74V484.69"/>
<path transform="matrix(1,0,0,-1,0,523)" stroke-width=".43" stroke-linecap="butt" stroke-linejoin="round" fill="none" stroke="#e5e5e5" d="M568.85 45.74V484.69"/>
<path transform="matrix(1,0,0,-1,0,523)" stroke-width=".43" stroke-linecap="butt" stroke-linejoin="round" fill="none" stroke="#e5e5e5" d="M617.04 45.74V484.69"/>
<path transform="matrix(1,0,0,-1,0,523)" d="M65.25 65.69H108.619998V70.87H65.25Z" fill="#3c8abe"/>
<path transform="matrix(1,0,0,-1,0,523)" d="M65.25 70.87H108.619998V84.200008H65.25Z" fill="#529cc8"/>
<path transform="matrix(1,0,0,-1,0,523)" d="M65.25 84.2H108.619998V149.35H65.25Z" fill="#72b1d3"/>
<path transform="matrix(1,0,0,-1,0,523)" d="M65.25 149.35H108.619998V222.64002H65.25Z" fill="#92c5de"/>
<path transform="matrix(1,0,0,-1,0,523)" d="M65.25 222.64H108.619998V283.35H65.25Z" fill="#abd1e5"/>
<path transform="matrix(1,0,0,-1,0,523)" d="M65.25 283.35H108.619998V314.44H65.25Z" fill="#c4deec"/>
<path transform="matrix(1,0,0,-1,0,523)" d="M65.25 314.44H108.619998V335.17H65.25Z" fill="#d8e8f1"/>
<path transform="matrix(1,0,0,-1,0,523)" d="M65.25 335.17H108.619998V354.42H65.25Z" fill="#e7eff4"/>
<path transform="matrix(1,0,0,-1,0,523)" d="M65.25 354.42H108.619998V367.75H65.25Z" fill="#f7f7f7"/>
<path transform="matrix(1,0,0,-1,0,523)" d="M65.25 367.75H108.619998V374.41H65.25Z" fill="#f9ebe3"/>
<path transform="matrix(1,0,0,-1,0,523)" d="M65.25 374.41H108.619998V378.85H65.25Z" fill="#fbe0d0"/>
<path transform="matrix(1,0,0,-1,0,523)" d="M65.25 378.85H108.619998V382.55003H65.25Z" fill="#fbd0b9"/>
<path transform="matrix(1,0,0,-1,0,523)" d="M65.25 382.56H108.619998V388.48H65.25Z" fill="#c03438"/>
<path transform="matrix(1,0,0,-1,0,523)" d="M65.25 388.48H108.619998V464.74003H65.25Z" fill="#bebebe"/>
<path transform="matrix(1,0,0,-1,0,523)" d="M113.44 65.69H156.81V74.630008H113.44Z" fill="#3c8abe"/>
<path transform="matrix(1,0,0,-1,0,523)" d="M113.44 74.63H156.81V86.09H113.44Z" fill="#529cc8"/>
<path transform="matrix(1,0,0,-1,0,523)" d="M113.44 86.09H156.81V143.09999H113.44Z" fill="#72b1d3"/>
<path transform="matrix(1,0,0,-1,0,523)" d="M113.44 143.1H156.81V216.59H113.44Z" fill="#92c5de"/>
<path transform="matrix(1,0,0,-1,0,523)" d="M113.44 216.59H156.81V266.05H113.44Z" fill="#abd1e5"/>
<path transform="matrix(1,0,0,-1,0,523)" d="M113.44 266.05H156.81V298.19H113.44Z" fill="#c4deec"/>
<path transform="matrix(1,0,0,-1,0,523)" d="M113.44 298.19H156.81V316.91H113.44Z" fill="#d8e8f1"/>
<path transform="matrix(1,0,0,-1,0,523)" d="M113.44 316.91H156.81V335.35H113.44Z" fill="#e7eff4"/>
<path transform="matrix(1,0,0,-1,0,523)" d="M113.44 335.35H156.81V345.13H113.44Z" fill="#f7f7f7"/>
<path transform="matrix(1,0,0,-1,0,523)" d="M113.44 345.13H156.81V352.67H113.44Z" fill="#f9ebe3"/>
<path transform="matrix(1,0,0,-1,0,523)" d="M113.44 352.68H156.81V357.71H113.44Z" fill="#fbe0d0"/>
<path transform="matrix(1,0,0,-1,0,523)" d="M113.44 357.71H156.81V360.22H113.44Z" fill="#fbd0b9"/>
<path transform="matrix(1,0,0,-1,0,523)" d="M113.44 360.22H156.81V360.5H113.44Z" fill="#e8896c"/>
<path transform="matrix(1,0,0,-1,0,523)" d="M113.44 360.5H156.81V366.65H113.44Z" fill="#c03438"/>
<path transform="matrix(1,0,0,-1,0,523)" d="M113.44 366.65H156.81V464.72999H113.44Z" fill="#bebebe"/>
<path transform="matrix(1,0,0,-1,0,523)" d="M161.63 65.69H205V66.07H161.63Z" fill="#2e77b5"/>
<path transform="matrix(1,0,0,-1,0,523)" d="M161.63 66.07H205V72.84H161.63Z" fill="#3c8abe"/>
<path transform="matrix(1,0,0,-1,0,523)" d="M161.63 72.84H205V96.909999H161.63Z" fill="#529cc8"/>
<path transform="matrix(1,0,0,-1,0,523)" d="M161.63 96.91H205V164.23001H161.63Z" fill="#72b1d3"/>
<path transform="matrix(1,0,0,-1,0,523)" d="M161.63 164.23H205V236.44H161.63Z" fill="#92c5de"/>
<path transform="matrix(1,0,0,-1,0,523)" d="M161.63 236.44H205V280.82H161.63Z" fill="#abd1e5"/>
<path transform="matrix(1,0,0,-1,0,523)" d="M161.63 280.82H205V314.29H161.63Z" fill="#c4deec"/>
<path transform="matrix(1,0,0,-1,0,523)" d="M161.63 314.29H205V332.72H161.63Z" fill="#d8e8f1"/>
<path transform="matrix(1,0,0,-1,0,523)" d="M161.63 332.72H205V346.64H161.63Z" fill="#e7eff4"/>
<path transform="matrix(1,0,0,-1,0,523)" d="M161.63 346.64H205V359.05003H161.63Z" fill="#f7f7f7"/>
<path transform="matrix(1,0,0,-1,0,523)" d="M161.63 359.05H205V368.08H161.63Z" fill="#f9ebe3"/>
<path transform="matrix(1,0,0,-1,0,523)" d="M161.63 368.08H205V376.34999H161.63Z" fill="#fbe0d0"/>
<path transform="matrix(1,0,0,-1,0,523)" d="M161.63 376.35H205V378.98H161.63Z" fill="#fbd0b9"/>
<path transform="matrix(1,0,0,-1,0,523)" d="M161.63 378.98H205V379.36003H161.63Z" fill="#f7ba9d"/>
<path transform="matrix(1,0,0,-1,0,523)" d="M161.63 379.36H205V379.74H161.63Z" fill="#dc6d57"/>
<path transform="matrix(1,0,0,-1,0,523)" d="M161.63 379.73H205V385.75H161.63Z" fill="#c03438"/>
<path transform="matrix(1,0,0,-1,0,523)" d="M161.63 385.75H205V464.73H161.63Z" fill="#bebebe"/>
<path transform="matrix(1,0,0,-1,0,523)" d="M209.82 65.69H253.19V65.87H209.82Z" fill="#2166ac"/>
<path transform="matrix(1,0,0,-1,0,523)" d="M209.82 65.87H253.19V71.19H209.82Z" fill="#3c8abe"/>
<path transform="matrix(1,0,0,-1,0,523)" d="M209.82 71.19H253.19V108.100009H209.82Z" fill="#529cc8"/>
<path transform="matrix(1,0,0,-1,0,523)" d="M209.82 108.1H253.19V172.15H209.82Z" fill="#72b1d3"/>
<path transform="matrix(1,0,0,-1,0,523)" d="M209.82 172.15H253.19V244.01H209.82Z" fill="#92c5de"/>
<path transform="matrix(1,0,0,-1,0,523)" d="M209.82 244.01H253.19V290.85H209.82Z" fill="#abd1e5"/>
<path transform="matrix(1,0,0,-1,0,523)" d="M209.82 290.85H253.19V312.14H209.82Z" fill="#c4deec"/>
<path transform="matrix(1,0,0,-1,0,523)" d="M209.82 312.14H253.19V327.93003H209.82Z" fill="#d8e8f1"/>
<path transform="matrix(1,0,0,-1,0,523)" d="M209.82 327.93H253.19V340.88H209.82Z" fill="#e7eff4"/>
<path transform="matrix(1,0,0,-1,0,523)" d="M209.82 340.89H253.19V348.16H209.82Z" fill="#f7f7f7"/>
<path transform="matrix(1,0,0,-1,0,523)" d="M209.82 348.16H253.19V355.61003H209.82Z" fill="#f9ebe3"/>
<path transform="matrix(1,0,0,-1,0,523)" d="M209.82 355.61H253.19V359.68998H209.82Z" fill="#fbe0d0"/>
<path transform="matrix(1,0,0,-1,0,523)" d="M209.82 359.69H253.19V361.82H209.82Z" fill="#fbd0b9"/>
<path transform="matrix(1,0,0,-1,0,523)" d="M209.82 361.82H253.19V362.71003H209.82Z" fill="#f7ba9d"/>
<path transform="matrix(1,0,0,-1,0,523)" d="M209.82 362.71H253.19V363.06H209.82Z" fill="#e8896c"/>
<path transform="matrix(1,0,0,-1,0,523)" d="M209.82 363.06H253.19V363.24H209.82Z" fill="#ce5146"/>
<path transform="matrix(1,0,0,-1,0,523)" d="M209.82 363.24H253.19V368.38999H209.82Z" fill="#c03438"/>
<path transform="matrix(1,0,0,-1,0,523)" d="M209.82 368.39H253.19V464.74003H209.82Z" fill="#bebebe"/>
<path transform="matrix(1,0,0,-1,0,523)" d="M258.01 65.69H301.38V65.850009H258.01Z" fill="#2e77b5"/>
<path transform="matrix(1,0,0,-1,0,523)" d="M258.01 65.85H301.38V71.729999H258.01Z" fill="#3c8abe"/>
<path transform="matrix(1,0,0,-1,0,523)" d="M258.01 71.73H301.38V94.770008H258.01Z" fill="#529cc8"/>
<path transform="matrix(1,0,0,-1,0,523)" d="M258.01 94.77H301.38V146.41H258.01Z" fill="#72b1d3"/>
<path transform="matrix(1,0,0,-1,0,523)" d="M258.01 146.4H301.38V214.16999H258.01Z" fill="#92c5de"/>
<path transform="matrix(1,0,0,-1,0,523)" d="M258.01 214.17H301.38V259.61H258.01Z" fill="#abd1e5"/>
<path transform="matrix(1,0,0,-1,0,523)" d="M258.01 259.61H301.38V288.21H258.01Z" fill="#c4deec"/>
<path transform="matrix(1,0,0,-1,0,523)" d="M258.01 288.21H301.38V307.75H258.01Z" fill="#d8e8f1"/>
<path transform="matrix(1,0,0,-1,0,523)" d="M258.01 307.75H301.38V325.86H258.01Z" fill="#e7eff4"/>
<path transform="matrix(1,0,0,-1,0,523)" d="M258.01 325.87H301.38V337.38999H258.01Z" fill="#f7f7f7"/>
<path transform="matrix(1,0,0,-1,0,523)" d="M258.01 337.39H301.38V345.18003H258.01Z" fill="#f9ebe3"/>
<path transform="matrix(1,0,0,-1,0,523)" d="M258.01 345.17H301.38V351.76H258.01Z" fill="#fbe0d0"/>
<path transform="matrix(1,0,0,-1,0,523)" d="M258.01 351.76H301.38V354.62H258.01Z" fill="#fbd0b9"/>
<path transform="matrix(1,0,0,-1,0,523)" d="M258.01 354.62H301.38V355.26H258.01Z" fill="#f7ba9d"/>
<path transform="matrix(1,0,0,-1,0,523)" d="M258.01 355.26H301.38V355.82H258.01Z" fill="#f4a582"/>
<path transform="matrix(1,0,0,-1,0,523)" d="M258.01 355.82H301.38V355.9H258.01Z" fill="#ce5146"/>
<path transform="matrix(1,0,0,-1,0,523)" d="M258.01 355.9H301.38V360.66999H258.01Z" fill="#c03438"/>
<path transform="matrix(1,0,0,-1,0,523)" d="M258.01 360.66H301.38V464.73H258.01Z" fill="#bebebe"/>
<path transform="matrix(1,0,0,-1,0,523)" d="M306.21 65.69H349.58V65.86H306.21Z" fill="#2e77b5"/>
<path transform="matrix(1,0,0,-1,0,523)" d="M306.21 65.86H349.58V71.18H306.21Z" fill="#3c8abe"/>
<path transform="matrix(1,0,0,-1,0,523)" d="M306.21 71.18H349.58V95.56H306.21Z" fill="#529cc8"/>
<path transform="matrix(1,0,0,-1,0,523)" d="M306.21 95.57H349.58V150.17H306.21Z" fill="#72b1d3"/>
<path transform="matrix(1,0,0,-1,0,523)" d="M306.21 150.17H349.58V211.98H306.21Z" fill="#92c5de"/>
<path transform="matrix(1,0,0,-1,0,523)" d="M306.21 211.98H349.58V260.57H306.21Z" fill="#abd1e5"/>
<path transform="matrix(1,0,0,-1,0,523)" d="M306.21 260.58H349.58V285.31H306.21Z" fill="#c4deec"/>
<path transform="matrix(1,0,0,-1,0,523)" d="M306.21 285.3H349.58V307.62H306.21Z" fill="#d8e8f1"/>
<path transform="matrix(1,0,0,-1,0,523)" d="M306.21 307.62H349.58V324.62H306.21Z" fill="#e7eff4"/>
<path transform="matrix(1,0,0,-1,0,523)" d="M306.21 324.62H349.58V340.07H306.21Z" fill="#f7f7f7"/>
<path transform="matrix(1,0,0,-1,0,523)" d="M306.21 340.08H349.58V351.06999H306.21Z" fill="#f9ebe3"/>
<path transform="matrix(1,0,0,-1,0,523)" d="M306.21 351.06H349.58V358.27H306.21Z" fill="#fbe0d0"/>
<path transform="matrix(1,0,0,-1,0,523)" d="M306.21 358.28H349.58V361.03H306.21Z" fill="#fbd0b9"/>
<path transform="matrix(1,0,0,-1,0,523)" d="M306.21 361.02H349.58V363.08H306.21Z" fill="#f7ba9d"/>
<path transform="matrix(1,0,0,-1,0,523)" d="M306.21 363.08H349.58V363.25H306.21Z" fill="#f4a582"/>
<path transform="matrix(1,0,0,-1,0,523)" d="M306.21 363.26H349.58V363.95H306.21Z" fill="#e8896c"/>
<path transform="matrix(1,0,0,-1,0,523)" d="M306.21 363.94H349.58V364.11003H306.21Z" fill="#ce5146"/>
<path transform="matrix(1,0,0,-1,0,523)" d="M306.21 364.11H349.58V370.28999H306.21Z" fill="#c03438"/>
<path transform="matrix(1,0,0,-1,0,523)" d="M306.21 370.3H349.58V464.74H306.21Z" fill="#bebebe"/>
<path transform="matrix(1,0,0,-1,0,523)" d="M354.4 65.69H397.77V65.83H354.4Z" fill="#2166ac"/>
<path transform="matrix(1,0,0,-1,0,523)" d="M354.4 65.83H397.77V65.97H354.4Z" fill="#2e77b5"/>
<path transform="matrix(1,0,0,-1,0,523)" d="M354.4 65.97H397.77V71.74H354.4Z" fill="#3c8abe"/>
<path transform="matrix(1,0,0,-1,0,523)" d="M354.4 71.74H397.77V99.47H354.4Z" fill="#529cc8"/>
<path transform="matrix(1,0,0,-1,0,523)" d="M354.4 99.47H397.77V151.41H354.4Z" fill="#72b1d3"/>
<path transform="matrix(1,0,0,-1,0,523)" d="M354.4 151.41H397.77V216.16H354.4Z" fill="#92c5de"/>
<path transform="matrix(1,0,0,-1,0,523)" d="M354.4 216.16H397.77V258.81H354.4Z" fill="#abd1e5"/>
<path transform="matrix(1,0,0,-1,0,523)" d="M354.4 258.81H397.77V283.02H354.4Z" fill="#c4deec"/>
<path transform="matrix(1,0,0,-1,0,523)" d="M354.4 283.02H397.77V299.77H354.4Z" fill="#d8e8f1"/>
<path transform="matrix(1,0,0,-1,0,523)" d="M354.4 299.77H397.77V315.81999H354.4Z" fill="#e7eff4"/>
<path transform="matrix(1,0,0,-1,0,523)" d="M354.4 315.81H397.77V326.51H354.4Z" fill="#f7f7f7"/>
<path transform="matrix(1,0,0,-1,0,523)" d="M354.4 326.51H397.77V334.25H354.4Z" fill="#f9ebe3"/>
<path transform="matrix(1,0,0,-1,0,523)" d="M354.4 334.25H397.77V340.3H354.4Z" fill="#fbe0d0"/>
<path transform="matrix(1,0,0,-1,0,523)" d="M354.4 340.3H397.77V343.12H354.4Z" fill="#fbd0b9"/>
<path transform="matrix(1,0,0,-1,0,523)" d="M354.4 343.12H397.77V344.25H354.4Z" fill="#f7ba9d"/>
<path transform="matrix(1,0,0,-1,0,523)" d="M354.4 344.25H397.77V344.95H354.4Z" fill="#f4a582"/>
<path transform="matrix(1,0,0,-1,0,523)" d="M354.4 344.95H397.77V345.37004H354.4Z" fill="#e8896c"/>
<path transform="matrix(1,0,0,-1,0,523)" d="M354.4 345.37H397.77V345.65H354.4Z" fill="#dc6d57"/>
<path transform="matrix(1,0,0,-1,0,523)" d="M354.4 345.65H397.77V352.27H354.4Z" fill="#c03438"/>
<path transform="matrix(1,0,0,-1,0,523)" d="M354.4 352.27H397.77V464.72999H354.4Z" fill="#bebebe"/>
<path transform="matrix(1,0,0,-1,0,523)" d="M402.59 65.69H445.96V65.71H402.59Z" fill="#2166ac"/>
<path transform="matrix(1,0,0,-1,0,523)" d="M402.59 65.71H445.96V65.83H402.59Z" fill="#2e77b5"/>
<path transform="matrix(1,0,0,-1,0,523)" d="M402.59 65.83H445.96V68.79H402.59Z" fill="#3c8abe"/>
<path transform="matrix(1,0,0,-1,0,523)" d="M402.59 68.79H445.96V82.97H402.59Z" fill="#529cc8"/>
<path transform="matrix(1,0,0,-1,0,523)" d="M402.59 82.97H445.96V121.17H402.59Z" fill="#72b1d3"/>
<path transform="matrix(1,0,0,-1,0,523)" d="M402.59 121.16H445.96V158.71H402.59Z" fill="#92c5de"/>
<path transform="matrix(1,0,0,-1,0,523)" d="M402.59 158.71H445.96V185.43001H402.59Z" fill="#abd1e5"/>
<path transform="matrix(1,0,0,-1,0,523)" d="M402.59 185.44H445.96V203.33H402.59Z" fill="#c4deec"/>
<path transform="matrix(1,0,0,-1,0,523)" d="M402.59 203.33H445.96V217.14H402.59Z" fill="#d8e8f1"/>
<path transform="matrix(1,0,0,-1,0,523)" d="M402.59 217.14H445.96V226.95H402.59Z" fill="#e7eff4"/>
<path transform="matrix(1,0,0,-1,0,523)" d="M402.59 226.95H445.96V233.97H402.59Z" fill="#f7f7f7"/>
<path transform="matrix(1,0,0,-1,0,523)" d="M402.59 233.97H445.96V238.79001H402.59Z" fill="#f9ebe3"/>
<path transform="matrix(1,0,0,-1,0,523)" d="M402.59 238.79H445.96V241.73H402.59Z" fill="#fbe0d0"/>
<path transform="matrix(1,0,0,-1,0,523)" d="M402.59 241.73H445.96V243.17H402.59Z" fill="#fbd0b9"/>
<path transform="matrix(1,0,0,-1,0,523)" d="M402.59 243.18H445.96V243.78H402.59Z" fill="#f7ba9d"/>
<path transform="matrix(1,0,0,-1,0,523)" d="M402.59 243.77H445.96V244.07H402.59Z" fill="#f4a582"/>
<path transform="matrix(1,0,0,-1,0,523)" d="M402.59 244.08H445.96V244.3H402.59Z" fill="#e8896c"/>
<path transform="matrix(1,0,0,-1,0,523)" d="M402.59 244.3H445.96V244.47H402.59Z" fill="#dc6d57"/>
<path transform="matrix(1,0,0,-1,0,523)" d="M402.59 244.46H445.96V244.75H402.59Z" fill="#ce5146"/>
<path transform="matrix(1,0,0,-1,0,523)" d="M402.59 244.76H445.96V248.09999H402.59Z" fill="#c03438"/>
<path transform="matrix(1,0,0,-1,0,523)" d="M402.59 248.09H445.96V464.72999H402.59Z" fill="#bebebe"/>
<path transform="matrix(1,0,0,-1,0,523)" d="M450.78 65.69H494.15V71.450008H450.78Z" fill="#3c8abe"/>
<path transform="matrix(1,0,0,-1,0,523)" d="M450.78 71.45H494.15V106.009998H450.78Z" fill="#529cc8"/>
<path transform="matrix(1,0,0,-1,0,523)" d="M450.78 106.01H494.15V171.47H450.78Z" fill="#72b1d3"/>
<path transform="matrix(1,0,0,-1,0,523)" d="M450.78 171.47H494.15V240.07H450.78Z" fill="#92c5de"/>
<path transform="matrix(1,0,0,-1,0,523)" d="M450.78 240.07H494.15V289.30003H450.78Z" fill="#abd1e5"/>
<path transform="matrix(1,0,0,-1,0,523)" d="M450.78 289.3H494.15V317.05H450.78Z" fill="#c4deec"/>
<path transform="matrix(1,0,0,-1,0,523)" d="M450.78 317.06H494.15V332.77H450.78Z" fill="#d8e8f1"/>
<path transform="matrix(1,0,0,-1,0,523)" d="M450.78 332.77H494.15V343.77H450.78Z" fill="#e7eff4"/>
<path transform="matrix(1,0,0,-1,0,523)" d="M450.78 343.76H494.15V353.19H450.78Z" fill="#f7f7f7"/>
<path transform="matrix(1,0,0,-1,0,523)" d="M450.78 353.19H494.15V363.66H450.78Z" fill="#f9ebe3"/>
<path transform="matrix(1,0,0,-1,0,523)" d="M450.78 363.66H494.15V368.9H450.78Z" fill="#fbe0d0"/>
<path transform="matrix(1,0,0,-1,0,523)" d="M450.78 368.9H494.15V372.57H450.78Z" fill="#fbd0b9"/>
<path transform="matrix(1,0,0,-1,0,523)" d="M450.78 372.57H494.15V374.14H450.78Z" fill="#f7ba9d"/>
<path transform="matrix(1,0,0,-1,0,523)" d="M450.78 374.14H494.15V374.66H450.78Z" fill="#e8896c"/>
<path transform="matrix(1,0,0,-1,0,523)" d="M450.78 374.66H494.15V380.94H450.78Z" fill="#c03438"/>
<path transform="matrix(1,0,0,-1,0,523)" d="M450.78 380.94H494.15V464.73H450.78Z" fill="#bebebe"/>
<path transform="matrix(1,0,0,-1,0,523)" d="M498.97 65.69H542.34V65.73H498.97Z" fill="#2166ac"/>
<path transform="matrix(1,0,0,-1,0,523)" d="M498.97 65.73H542.34V70.32001H498.97Z" fill="#3c8abe"/>
<path transform="matrix(1,0,0,-1,0,523)" d="M498.97 70.32H542.34V90.05H498.97Z" fill="#529cc8"/>
<path transform="matrix(1,0,0,-1,0,523)" d="M498.97 90.04H542.34V152.34H498.97Z" fill="#72b1d3"/>
<path transform="matrix(1,0,0,-1,0,523)" d="M498.97 152.35H542.34V227.42002H498.97Z" fill="#92c5de"/>
<path transform="matrix(1,0,0,-1,0,523)" d="M498.97 227.42H542.34V275.73H498.97Z" fill="#abd1e5"/>
<path transform="matrix(1,0,0,-1,0,523)" d="M498.97 275.73H542.34V303.28H498.97Z" fill="#c4deec"/>
<path transform="matrix(1,0,0,-1,0,523)" d="M498.97 303.28H542.34V320.48H498.97Z" fill="#d8e8f1"/>
<path transform="matrix(1,0,0,-1,0,523)" d="M498.97 320.48H542.34V332.77003H498.97Z" fill="#e7eff4"/>
<path transform="matrix(1,0,0,-1,0,523)" d="M498.97 332.77H542.34V343.05H498.97Z" fill="#f7f7f7"/>
<path transform="matrix(1,0,0,-1,0,523)" d="M498.97 343.05H542.34V350.12998H498.97Z" fill="#f9ebe3"/>
<path transform="matrix(1,0,0,-1,0,523)" d="M498.97 350.13H542.34V354.87H498.97Z" fill="#fbe0d0"/>
<path transform="matrix(1,0,0,-1,0,523)" d="M498.97 354.87H542.34V357.19999H498.97Z" fill="#fbd0b9"/>
<path transform="matrix(1,0,0,-1,0,523)" d="M498.97 357.2H542.34V357.71003H498.97Z" fill="#f7ba9d"/>
<path transform="matrix(1,0,0,-1,0,523)" d="M498.97 357.72H542.34V358.12H498.97Z" fill="#f4a582"/>
<path transform="matrix(1,0,0,-1,0,523)" d="M498.97 358.11H542.34V358.27H498.97Z" fill="#e8896c"/>
<path transform="matrix(1,0,0,-1,0,523)" d="M498.97 358.27H542.34V358.55H498.97Z" fill="#dc6d57"/>
<path transform="matrix(1,0,0,-1,0,523)" d="M498.97 358.55H542.34V358.71H498.97Z" fill="#ce5146"/>
<path transform="matrix(1,0,0,-1,0,523)" d="M498.97 358.71H542.34V365.19H498.97Z" fill="#c03438"/>
<path transform="matrix(1,0,0,-1,0,523)" d="M498.97 365.19H542.34V464.73H498.97Z" fill="#bebebe"/>
<path transform="matrix(1,0,0,-1,0,523)" d="M547.16 65.69H590.52999V73.05H547.16Z" fill="#3c8abe"/>
<path transform="matrix(1,0,0,-1,0,523)" d="M547.16 73.05H590.52999V95.12H547.16Z" fill="#529cc8"/>
<path transform="matrix(1,0,0,-1,0,523)" d="M547.16 95.11H590.52999V155.79001H547.16Z" fill="#72b1d3"/>
<path transform="matrix(1,0,0,-1,0,523)" d="M547.16 155.8H590.52999V238.55H547.16Z" fill="#92c5de"/>
<path transform="matrix(1,0,0,-1,0,523)" d="M547.16 238.55H590.52999V275.33003H547.16Z" fill="#abd1e5"/>
<path transform="matrix(1,0,0,-1,0,523)" d="M547.16 275.33H590.52999V297.4H547.16Z" fill="#c4deec"/>
<path transform="matrix(1,0,0,-1,0,523)" d="M547.16 297.39H590.52999V308.42H547.16Z" fill="#d8e8f1"/>
<path transform="matrix(1,0,0,-1,0,523)" d="M547.16 308.43H590.52999V321.3H547.16Z" fill="#e7eff4"/>
<path transform="matrix(1,0,0,-1,0,523)" d="M547.16 321.3H590.52999V337.84999H547.16Z" fill="#f7f7f7"/>
<path transform="matrix(1,0,0,-1,0,523)" d="M547.16 337.85H590.52999V345.21H547.16Z" fill="#f9ebe3"/>
<path transform="matrix(1,0,0,-1,0,523)" d="M547.16 345.2H590.52999V348.88H547.16Z" fill="#fbe0d0"/>
<path transform="matrix(1,0,0,-1,0,523)" d="M547.16 348.88H590.52999V352.56H547.16Z" fill="#fbd0b9"/>
<path transform="matrix(1,0,0,-1,0,523)" d="M547.16 352.56H590.52999V356.24H547.16Z" fill="#c03438"/>
<path transform="matrix(1,0,0,-1,0,523)" d="M547.16 356.24H590.52999V464.74H547.16Z" fill="#bebebe"/>
<path transform="matrix(1,0,0,-1,0,523)" d="M595.36 65.69H638.73V65.700008H595.36Z" fill="#2166ac"/>
<path transform="matrix(1,0,0,-1,0,523)" d="M595.36 65.7H638.73V65.729999H595.36Z" fill="#2e77b5"/>
<path transform="matrix(1,0,0,-1,0,523)" d="M595.36 65.73H638.73V69.47H595.36Z" fill="#3c8abe"/>
<path transform="matrix(1,0,0,-1,0,523)" d="M595.36 69.46H638.73V88.29H595.36Z" fill="#529cc8"/>
<path transform="matrix(1,0,0,-1,0,523)" d="M595.36 88.29H638.73V160.70001H595.36Z" fill="#72b1d3"/>
<path transform="matrix(1,0,0,-1,0,523)" d="M595.36 160.7H638.73V238.26999H595.36Z" fill="#92c5de"/>
<path transform="matrix(1,0,0,-1,0,523)" d="M595.36 238.27H638.73V286.53H595.36Z" fill="#abd1e5"/>
<path transform="matrix(1,0,0,-1,0,523)" d="M595.36 286.53H638.73V314.37H595.36Z" fill="#c4deec"/>
<path transform="matrix(1,0,0,-1,0,523)" d="M595.36 314.37H638.73V333.32H595.36Z" fill="#d8e8f1"/>
<path transform="matrix(1,0,0,-1,0,523)" d="M595.36 333.32H638.73V346.15H595.36Z" fill="#e7eff4"/>
<path transform="matrix(1,0,0,-1,0,523)" d="M595.36 346.15H638.73V356.1H595.36Z" fill="#f7f7f7"/>
<path transform="matrix(1,0,0,-1,0,523)" d="M595.36 356.1H638.73V363.15H595.36Z" fill="#f9ebe3"/>
<path transform="matrix(1,0,0,-1,0,523)" d="M595.36 363.15H638.73V367.72H595.36Z" fill="#fbe0d0"/>
<path transform="matrix(1,0,0,-1,0,523)" d="M595.36 367.72H638.73V369.49H595.36Z" fill="#fbd0b9"/>
<path transform="matrix(1,0,0,-1,0,523)" d="M595.36 369.49H638.73V370.11H595.36Z" fill="#f7ba9d"/>
<path transform="matrix(1,0,0,-1,0,523)" d="M595.36 370.11H638.73V370.3H595.36Z" fill="#f4a582"/>
<path transform="matrix(1,0,0,-1,0,523)" d="M595.36 370.3H638.73V370.46H595.36Z" fill="#e8896c"/>
<path transform="matrix(1,0,0,-1,0,523)" d="M595.36 370.46H638.73V370.53999H595.36Z" fill="#dc6d57"/>
<path transform="matrix(1,0,0,-1,0,523)" d="M595.36 370.54H638.73V370.65H595.36Z" fill="#ce5146"/>
<path transform="matrix(1,0,0,-1,0,523)" d="M595.36 370.65H638.73V376.63H595.36Z" fill="#c03438"/>
<path transform="matrix(1,0,0,-1,0,523)" d="M595.36 376.62H638.73V464.72999H595.36Z" fill="#bebebe"/>
</g>
<text xml:space="preserve" transform="matrix(1 0 -0 1 0 523)" font-size="10" font-family="Helvetica"><tspan y="-62.1" x="21.77 27.330002 30.110003 35.670003">0.00</tspan></text>
<text xml:space="preserve" transform="matrix(1 0 -0 1 0 523)" font-size="10" font-family="Helvetica"><tspan y="-161.86" x="21.77 27.330002 30.110003 35.670003">0.25</tspan></text>
<text xml:space="preserve" transform="matrix(1 0 -0 1 0 523)" font-size="10" font-family="Helvetica"><tspan y="-261.62" x="21.77 27.330002 30.110003 35.670003">0.50</tspan></text>
<text xml:space="preserve" transform="matrix(1 0 -0 1 0 523)" font-size="10" font-family="Helvetica"><tspan y="-361.38" x="21.77 27.330002 30.110003 35.670003">0.75</tspan></text>
<text xml:space="preserve" transform="matrix(1 0 -0 1 0 523)" font-size="10" font-family="Helvetica"><tspan y="-461.14" x="21.77 27.330002 30.110003 35.670003">1.00</tspan></text>
<text xml:space="preserve" transform="matrix(1 0 -0 1 0 523)" font-size="10" font-family="Helvetica"><tspan y="-21.77" x="80.24 86.409999">AU</tspan></text>
<text xml:space="preserve" transform="matrix(1 0 -0 1 0 523)" font-size="10" font-family="Helvetica"><tspan y="-21.77" x="128.18 135.4">CA</tspan></text>
<text xml:space="preserve" transform="matrix(1 0 -0 1 0 523)" font-size="10" font-family="Helvetica"><tspan y="-21.77" x="176.37 183.59">DE</tspan></text>
<text xml:space="preserve" transform="matrix(1 0 -0 1 0 523)" font-size="10" font-family="Helvetica"><tspan y="-21.77" x="224.84 231.51">ES</tspan></text>
<text xml:space="preserve" transform="matrix(1 0 -0 1 0 523)" font-size="10" font-family="Helvetica"><tspan y="-21.77" x="273.03 279.13999">FR</tspan></text>
<text xml:space="preserve" transform="matrix(1 0 -0 1 0 523)" font-size="10" font-family="Helvetica"><tspan y="-21.77" x="320.67 328.45">GB</tspan></text>
<text xml:space="preserve" transform="matrix(1 0 -0 1 0 523)" font-size="10" font-family="Helvetica"><tspan y="-21.77" x="371.64 374.42">IT</tspan></text>
<text xml:space="preserve" transform="matrix(1 0 -0 1 0 523)" font-size="10" font-family="Helvetica"><tspan y="-21.77" x="414 421.22 428.44">NDF</tspan></text>
<text xml:space="preserve" transform="matrix(1 0 -0 1 0 523)" font-size="10" font-family="Helvetica"><tspan y="-21.77" x="466.08 473.3">NL</tspan></text>
<text xml:space="preserve" transform="matrix(1 0 -0 1 0 523)" font-size="10" font-family="Helvetica"><tspan y="-21.77" x="509.26 514.82 517.60006 523.16006 528.72006">other</tspan></text>
<text xml:space="preserve" transform="matrix(1 0 -0 1 0 523)" font-size="10" font-family="Helvetica"><tspan y="-21.77" x="562.46 569.13">PT</tspan></text>
<text xml:space="preserve" transform="matrix(1 0 -0 1 0 523)" font-size="10" font-family="Helvetica"><tspan y="-21.77" x="610.1 617.31997">US</tspan></text>
<text xml:space="preserve" transform="matrix(1 0 -0 1 0 523)" font-size="12" font-family="Helvetica"><tspan y="-8.37" x="330.8 339.464 346.136 352.80799 359.47999 362.81599 367.17198">Country</tspan></text>
<text xml:space="preserve" transform="matrix(0 -1 1 0 0 523)" font-size="12" font-family="Helvetica"><tspan y="16.98" x="244.84 252.24399 258.916 262.912 268.912 275.58399 282.25599">Percent</tspan></text>
<text xml:space="preserve" transform="matrix(1 0 -0 1 0 523)" font-size="12" font-family="Helvetica"><tspan y="-435.86" x="658.71 665.382 672.054">age</tspan></text>
<path transform="matrix(1,0,0,-1,0,523)" d="M659.42 414.99H675.27999V430.84999H659.42Z" fill="#2166ac"/>
<path transform="matrix(1,0,0,-1,0,523)" d="M659.42 397.71H675.27999V413.56999H659.42Z" fill="#2e77b5"/>
<path transform="matrix(1,0,0,-1,0,523)" d="M659.42 380.43H675.27999V396.28999H659.42Z" fill="#3c8abe"/>
<path transform="matrix(1,0,0,-1,0,523)" d="M659.42 363.15H675.27999V379.00999H659.42Z" fill="#529cc8"/>
<path transform="matrix(1,0,0,-1,0,523)" d="M659.42 345.87H675.27999V361.72999H659.42Z" fill="#72b1d3"/>
<path transform="matrix(1,0,0,-1,0,523)" d="M659.42 328.59H675.27999V344.44999H659.42Z" fill="#92c5de"/>
<path transform="matrix(1,0,0,-1,0,523)" d="M659.42 311.31H675.27999V327.16999H659.42Z" fill="#abd1e5"/>
<path transform="matrix(1,0,0,-1,0,523)" d="M659.42 294.03H675.27999V309.88999H659.42Z" fill="#c4deec"/>
<path transform="matrix(1,0,0,-1,0,523)" d="M659.42 276.75H675.27999V292.61H659.42Z" fill="#d8e8f1"/>
<path transform="matrix(1,0,0,-1,0,523)" d="M659.42 259.47H675.27999V275.33H659.42Z" fill="#e7eff4"/>
<path transform="matrix(1,0,0,-1,0,523)" d="M659.42 242.19H675.27999V258.05H659.42Z" fill="#f7f7f7"/>
<path transform="matrix(1,0,0,-1,0,523)" d="M659.42 224.91H675.27999V240.77H659.42Z" fill="#f9ebe3"/>
<path transform="matrix(1,0,0,-1,0,523)" d="M659.42 207.63H675.27999V223.49H659.42Z" fill="#fbe0d0"/>
<path transform="matrix(1,0,0,-1,0,523)" d="M659.42 190.35H675.27999V206.21H659.42Z" fill="#fbd0b9"/>
<path transform="matrix(1,0,0,-1,0,523)" d="M659.42 173.07H675.27999V188.93001H659.42Z" fill="#f7ba9d"/>
<path transform="matrix(1,0,0,-1,0,523)" d="M659.42 155.79H675.27999V171.65H659.42Z" fill="#f4a582"/>
<path transform="matrix(1,0,0,-1,0,523)" d="M659.42 138.51H675.27999V154.37H659.42Z" fill="#e8896c"/>
<path transform="matrix(1,0,0,-1,0,523)" d="M659.42 121.23H675.27999V137.09H659.42Z" fill="#dc6d57"/>
<path transform="matrix(1,0,0,-1,0,523)" d="M659.42 103.95H675.27999V119.81H659.42Z" fill="#ce5146"/>
<path transform="matrix(1,0,0,-1,0,523)" d="M659.42 86.67H675.27999V102.53H659.42Z" fill="#c03438"/>
<text xml:space="preserve" transform="matrix(1 0 -0 1 0 523)" font-size="10" font-family="Helvetica"><tspan y="-419.33" x="678.15 683.71 689.55007">0&#x2212;4</tspan></text>
<text xml:space="preserve" transform="matrix(1 0 -0 1 0 523)" font-size="10" font-family="Helvetica"><tspan y="-402.05" x="678.15 683.71 689.55007">5&#x2212;9</tspan></text>
<text xml:space="preserve" transform="matrix(1 0 -0 1 0 523)" font-size="10" font-family="Helvetica"><tspan y="-384.77" x="678.15 683.71 689.27 695.11007 700.67007">15&#x2212;19</tspan></text>
<text xml:space="preserve" transform="matrix(1 0 -0 1 0 523)" font-size="10" font-family="Helvetica"><tspan y="-367.49" x="678.15 683.71 689.27 695.11007 700.67007">20&#x2212;24</tspan></text>
<text xml:space="preserve" transform="matrix(1 0 -0 1 0 523)" font-size="10" font-family="Helvetica"><tspan y="-350.21" x="678.15 683.71 689.27 695.11007 700.67007">25&#x2212;29</tspan></text>
<text xml:space="preserve" transform="matrix(1 0 -0 1 0 523)" font-size="10" font-family="Helvetica"><tspan y="-332.93" x="678.15 683.71 689.27 695.11007 700.67007">30&#x2212;34</tspan></text>
<text xml:space="preserve" transform="matrix(1 0 -0 1 0 523)" font-size="10" font-family="Helvetica"><tspan y="-315.65" x="678.15 683.71 689.27 695.11007 700.67007">35&#x2212;39</tspan></text>
<text xml:space="preserve" transform="matrix(1 0 -0 1 0 523)" font-size="10" font-family="Helvetica"><tspan y="-298.37" x="678.15 683.71 689.27 695.11007 700.67007">40&#x2212;44</tspan></text>
<text xml:space="preserve" transform="matrix(1 0 -0 1 0 523)" font-size="10" font-family="Helvetica"><tspan y="-281.09" x="678.15 683.71 689.27 695.11007 700.67007">45&#x2212;49</tspan></text>
<text xml:space="preserve" transform="matrix(1 0 -0 1 0 523)" font-size="10" font-family="Helvetica"><tspan y="-263.81" x="678.15 683.71 689.27 695.11007 700.67007">50&#x2212;54</tspan></text>
<text xml:space="preserve" transform="matrix(1 0 -0 1 0 523)" font-size="10" font-family="Helvetica"><tspan y="-246.53" x="678.15 683.71 689.27 695.11007 700.67007">55&#x2212;59</tspan></text>
<text xml:space="preserve" transform="matrix(1 0 -0 1 0 523)" font-size="10" font-family="Helvetica"><tspan y="-229.25" x="678.15 683.71 689.27 695.11007 700.67007">60&#x2212;64</tspan></text>
<text xml:space="preserve" transform="matrix(1 0 -0 1 0 523)" font-size="10" font-family="Helvetica"><tspan y="-211.97" x="678.15 683.71 689.27 695.11007 700.67007">65&#x2212;69</tspan></text>
<text xml:space="preserve" transform="matrix(1 0 -0 1 0 523)" font-size="10" font-family="Helvetica"><tspan y="-194.69" x="678.15 683.71 689.27 695.11007 700.67007">70&#x2212;74</tspan></text>
<text xml:space="preserve" transform="matrix(1 0 -0 1 0 523)" font-size="10" font-family="Helvetica"><tspan y="-177.41" x="678.15 683.71 689.27 695.11007 700.67007">75&#x2212;79</tspan></text>
<text xml:space="preserve" transform="matrix(1 0 -0 1 0 523)" font-size="10" font-family="Helvetica"><tspan y="-160.13" x="678.15 683.71 689.27 695.11007 700.67007">80&#x2212;84</tspan></text>
<text xml:space="preserve" transform="matrix(1 0 -0 1 0 523)" font-size="10" font-family="Helvetica"><tspan y="-142.85" x="678.15 683.71 689.27 695.11007 700.67007">85&#x2212;89</tspan></text>
<text xml:space="preserve" transform="matrix(1 0 -0 1 0 523)" font-size="10" font-family="Helvetica"><tspan y="-125.57" x="678.15 683.71 689.27 695.11007 700.67007">90&#x2212;94</tspan></text>
<text xml:space="preserve" transform="matrix(1 0 -0 1 0 523)" font-size="10" font-family="Helvetica"><tspan y="-108.29" x="678.15 683.71 689.27 695.11007 700.67007">95&#x2212;99</tspan></text>
<text xml:space="preserve" transform="matrix(1 0 -0 1 0 523)" font-size="10" font-family="Helvetica"><tspan y="-91.01" x="678.15 683.71 689.27 694.83">100+</tspan></text>
<text xml:space="preserve" transform="matrix(1 0 -0 1 0 523)" font-size="14" font-family="Helvetica"><tspan y="-507.41" x="277.6 286.93803 294.72203 302.506 307.168 314.952 318.844 326.628 330.52 334.412 342.19599 349.97999 357.76399 361.65599 369.15998 376.15998 380.05198 387.05198 394.83598 402.61997 410.40397 414.29597 419.37797">Share of age by country</tspan></text>
<text xml:space="preserve" transform="matrix(1 0 -0 1 0 523)" font-size="14" font-family="Helvetica"><tspan y="-491.86" x="297.13 304.914 308.806 312.698 316.59 319.698 324.36 331.36 335.25199 339.14399 346.92799 354.71199 361.71199 365.60398 368.71199 376.49598 384.27998 388.17198 391.27998 399.06398">of first destination</tspan></text>
</svg>
