<svg xmlns="http://www.w3.org/2000/svg" xmlns:xlink="http://www.w3.org/1999/xlink" version="1.1" width="237.57pt" height="260.249pt" viewBox="0 0 237.57 260.249">
<path transform="matrix(1,0,0,-1,99.65,249.888)" stroke-width=".79701" stroke-linecap="butt" stroke-dasharray="2.98883,2.98883" stroke-miterlimit="10" stroke-linejoin="miter" fill="none" stroke="#002b36" d="M0 0 127.56062 63.7803M-9.92111 9.21304 117.63951 72.99336M-19.84224 18.4261 107.71838 82.2064M-29.76335 27.63916 97.79727 91.41948M-39.68448 36.85222 87.87614 100.63252M-49.60559 46.06529 77.95502 109.8456M-59.52673 55.27834 68.03389 119.05865M-69.44786 64.49141 58.11276 128.27172M-79.36897 73.70445 48.19165 137.48477M-89.2866 82.91429 38.27402 146.6946M0 0-89.2901 82.91751M14.17339 7.08669-75.11671 90.0042M28.3468 14.17339-60.9433 97.09091M42.5202 21.2601-46.7699 104.17761M56.69362 28.3468-32.59648 111.26433M70.867 35.43349-18.42308 118.35101M85.04042 42.5202-4.24968 125.43771M99.21382 49.6069 9.9237 132.52443M113.38724 56.69362 24.09712 139.61113M127.55566 63.77783 38.26555 146.69535"/>
<path transform="matrix(1,0,0,-1,99.65,249.888)" d="M8.50456 32.59949-1.41655 41.81256 12.75684 48.89926 22.67795 39.6862ZM12.75684 48.89926" fill="#268bd2"/>
<path transform="matrix(1,0,0,-1,99.65,249.888)" stroke-width=".79701" stroke-linecap="butt" stroke-miterlimit="10" stroke-linejoin="miter" fill="none" stroke="#002b36" d="M8.50456 32.59949-1.41655 41.81256 12.75684 48.89926 22.67795 39.6862ZM12.75684 48.89926"/>
<path transform="matrix(1,0,0,-1,99.65,249.888)" d="M-1.41655 41.81256-11.33768 51.02562 2.83571 58.11232 12.75684 48.89926ZM2.83571 58.11232" fill="#268bd2"/>
<path transform="matrix(1,0,0,-1,99.65,249.888)" stroke-width=".79701" stroke-linecap="butt" stroke-miterlimit="10" stroke-linejoin="miter" fill="none" stroke="#002b36" d="M-1.41655 41.81256-11.33768 51.02562 2.83571 58.11232 12.75684 48.89926ZM2.83571 58.11232"/>
<path transform="matrix(1,0,0,-1,99.65,249.888)" d="M-11.33768 51.02562-21.25879 60.23868-7.08539 67.3254 2.83571 58.11232ZM-7.08539 67.3254" fill="#268bd2"/>
<path transform="matrix(1,0,0,-1,99.65,249.888)" stroke-width=".79701" stroke-linecap="butt" stroke-miterlimit="10" stroke-linejoin="miter" fill="none" stroke="#002b36" d="M-11.33768 51.02562-21.25879 60.23868-7.08539 67.3254 2.83571 58.11232ZM-7.08539 67.3254"/>
<path transform="matrix(1,0,0,-1,99.65,249.888)" d="M-21.25879 60.23868-31.17992 69.45174-17.00652 76.53844-7.08539 67.3254ZM-17.00652 76.53844" fill="#268bd2"/>
<path transform="matrix(1,0,0,-1,99.65,249.888)" stroke-width=".79701" stroke-linecap="butt" stroke-miterlimit="10" stroke-linejoin="miter" fill="none" stroke="#002b36" d="M-21.25879 60.23868-31.17992 69.45174-17.00652 76.53844-7.08539 67.3254ZM-17.00652 76.53844"/>
<path transform="matrix(1,0,0,-1,99.65,249.888)" d="M-31.17992 69.45174-41.10104 78.66481-26.92766 85.75151-17.00652 76.53844ZM-26.92766 85.75151" fill="#268bd2"/>
<path transform="matrix(1,0,0,-1,99.65,249.888)" stroke-width=".79701" stroke-linecap="butt" stroke-miterlimit="10" stroke-linejoin="miter" fill="none" stroke="#002b36" d="M-31.17992 69.45174-41.10104 78.66481-26.92766 85.75151-17.00652 76.53844ZM-26.92766 85.75151"/>
<path transform="matrix(1,0,0,-1,99.65,249.888)" d="M22.67795 39.6862 12.75684 48.89926 26.93025 55.98598 36.85136 46.7729ZM26.93025 55.98598" fill="#268bd2"/>
<path transform="matrix(1,0,0,-1,99.65,249.888)" stroke-width=".79701" stroke-linecap="butt" stroke-miterlimit="10" stroke-linejoin="miter" fill="none" stroke="#002b36" d="M22.67795 39.6862 12.75684 48.89926 26.93025 55.98598 36.85136 46.7729ZM26.93025 55.98598"/>
<path transform="matrix(1,0,0,-1,99.65,249.888)" d="M12.75684 48.89926 2.83571 58.11232 17.00912 65.19902 26.93025 55.98598ZM17.00912 65.19902" fill="#268bd2"/>
<path transform="matrix(1,0,0,-1,99.65,249.888)" stroke-width=".79701" stroke-linecap="butt" stroke-miterlimit="10" stroke-linejoin="miter" fill="none" stroke="#002b36" d="M12.75684 48.89926 2.83571 58.11232 17.00912 65.19902 26.93025 55.98598ZM17.00912 65.19902"/>
<path transform="matrix(1,0,0,-1,99.65,249.888)" d="M2.83571 58.11232-7.08539 67.3254 7.08801 74.4121 17.00912 65.19902ZM7.08801 74.4121" fill="#268bd2"/>
<path transform="matrix(1,0,0,-1,99.65,249.888)" stroke-width=".79701" stroke-linecap="butt" stroke-miterlimit="10" stroke-linejoin="miter" fill="none" stroke="#002b36" d="M2.83571 58.11232-7.08539 67.3254 7.08801 74.4121 17.00912 65.19902ZM7.08801 74.4121"/>
<path transform="matrix(1,0,0,-1,99.65,249.888)" d="M-7.08539 67.3254-17.00652 76.53844-2.83311 83.62515 7.08801 74.4121ZM-2.83311 83.62515" fill="#268bd2"/>
<path transform="matrix(1,0,0,-1,99.65,249.888)" stroke-width=".79701" stroke-linecap="butt" stroke-miterlimit="10" stroke-linejoin="miter" fill="none" stroke="#002b36" d="M-7.08539 67.3254-17.00652 76.53844-2.83311 83.62515 7.08801 74.4121ZM-2.83311 83.62515"/>
<path transform="matrix(1,0,0,-1,99.65,249.888)" d="M-17.00652 76.53844-26.92766 85.75151-12.75424 92.83821-2.83311 83.62515ZM-12.75424 92.83821" fill="#268bd2"/>
<path transform="matrix(1,0,0,-1,99.65,249.888)" stroke-width=".79701" stroke-linecap="butt" stroke-miterlimit="10" stroke-linejoin="miter" fill="none" stroke="#002b36" d="M-17.00652 76.53844-26.92766 85.75151-12.75424 92.83821-2.83311 83.62515ZM-12.75424 92.83821"/>
<path transform="matrix(1,0,0,-1,99.65,249.888)" d="M36.85136 46.7729 26.93025 55.98598 41.10365 63.07266 51.02477 53.8596ZM41.10365 63.07266" fill="#268bd2"/>
<path transform="matrix(1,0,0,-1,99.65,249.888)" stroke-width=".79701" stroke-linecap="butt" stroke-miterlimit="10" stroke-linejoin="miter" fill="none" stroke="#002b36" d="M36.85136 46.7729 26.93025 55.98598 41.10365 63.07266 51.02477 53.8596ZM41.10365 63.07266"/>
<path transform="matrix(1,0,0,-1,99.65,249.888)" d="M26.93025 55.98598 17.00912 65.19902 31.18253 72.28572 41.10365 63.07266ZM31.18253 72.28572" fill="#268bd2"/>
<path transform="matrix(1,0,0,-1,99.65,249.888)" stroke-width=".79701" stroke-linecap="butt" stroke-miterlimit="10" stroke-linejoin="miter" fill="none" stroke="#002b36" d="M26.93025 55.98598 17.00912 65.19902 31.18253 72.28572 41.10365 63.07266ZM31.18253 72.28572"/>
<path transform="matrix(1,0,0,-1,99.65,249.888)" d="M17.00912 65.19902 7.08801 74.4121 21.2614 81.49878 31.18253 72.28572ZM21.2614 81.49878" fill="#268bd2"/>
<path transform="matrix(1,0,0,-1,99.65,249.888)" stroke-width=".79701" stroke-linecap="butt" stroke-miterlimit="10" stroke-linejoin="miter" fill="none" stroke="#002b36" d="M17.00912 65.19902 7.08801 74.4121 21.2614 81.49878 31.18253 72.28572ZM21.2614 81.49878"/>
<path transform="matrix(1,0,0,-1,99.65,249.888)" d="M7.08801 74.4121-2.83311 83.62515 11.34027 90.71184 21.2614 81.49878ZM11.34027 90.71184" fill="#268bd2"/>
<path transform="matrix(1,0,0,-1,99.65,249.888)" stroke-width=".79701" stroke-linecap="butt" stroke-miterlimit="10" stroke-linejoin="miter" fill="none" stroke="#002b36" d="M7.08801 74.4121-2.83311 83.62515 11.34027 90.71184 21.2614 81.49878ZM11.34027 90.71184"/>
<path transform="matrix(1,0,0,-1,99.65,249.888)" d="M-2.83311 83.62515-12.75424 92.83821 1.41914 99.92491 11.34027 90.71184ZM1.41914 99.92491" fill="#268bd2"/>
<path transform="matrix(1,0,0,-1,99.65,249.888)" stroke-width=".79701" stroke-linecap="butt" stroke-miterlimit="10" stroke-linejoin="miter" fill="none" stroke="#002b36" d="M-2.83311 83.62515-12.75424 92.83821 1.41914 99.92491 11.34027 90.71184ZM1.41914 99.92491"/>
<path transform="matrix(1,0,0,-1,99.65,249.888)" d="M51.02477 53.8596 41.10365 63.07266 55.27705 70.15938 65.19818 60.9463ZM55.27705 70.15938" fill="#268bd2"/>
<path transform="matrix(1,0,0,-1,99.65,249.888)" stroke-width=".79701" stroke-linecap="butt" stroke-miterlimit="10" stroke-linejoin="miter" fill="none" stroke="#002b36" d="M51.02477 53.8596 41.10365 63.07266 55.27705 70.15938 65.19818 60.9463ZM55.27705 70.15938"/>
<path transform="matrix(1,0,0,-1,99.65,249.888)" d="M41.10365 63.07266 31.18253 72.28572 45.35593 79.37242 55.27705 70.15938ZM45.35593 79.37242" fill="#268bd2"/>
<path transform="matrix(1,0,0,-1,99.65,249.888)" stroke-width=".79701" stroke-linecap="butt" stroke-miterlimit="10" stroke-linejoin="miter" fill="none" stroke="#002b36" d="M41.10365 63.07266 31.18253 72.28572 45.35593 79.37242 55.27705 70.15938ZM45.35593 79.37242"/>
<path transform="matrix(1,0,0,-1,99.65,249.888)" d="M31.18253 72.28572 21.2614 81.49878 35.43481 88.5855 45.35593 79.37242ZM35.43481 88.5855" fill="#268bd2"/>
<path transform="matrix(1,0,0,-1,99.65,249.888)" stroke-width=".79701" stroke-linecap="butt" stroke-miterlimit="10" stroke-linejoin="miter" fill="none" stroke="#002b36" d="M31.18253 72.28572 21.2614 81.49878 35.43481 88.5855 45.35593 79.37242ZM35.43481 88.5855"/>
<path transform="matrix(1,0,0,-1,99.65,249.888)" d="M21.2614 81.49878 11.34027 90.71184 25.51369 97.79854 35.43481 88.5855ZM25.51369 97.79854" fill="#268bd2"/>
<path transform="matrix(1,0,0,-1,99.65,249.888)" stroke-width=".79701" stroke-linecap="butt" stroke-miterlimit="10" stroke-linejoin="miter" fill="none" stroke="#002b36" d="M21.2614 81.49878 11.34027 90.71184 25.51369 97.79854 35.43481 88.5855ZM25.51369 97.79854"/>
<path transform="matrix(1,0,0,-1,99.65,249.888)" d="M11.34027 90.71184 1.41914 99.92491 15.59256 107.01161 25.51369 97.79854ZM15.59256 107.01161" fill="#268bd2"/>
<path transform="matrix(1,0,0,-1,99.65,249.888)" stroke-width=".79701" stroke-linecap="butt" stroke-miterlimit="10" stroke-linejoin="miter" fill="none" stroke="#002b36" d="M11.34027 90.71184 1.41914 99.92491 15.59256 107.01161 25.51369 97.79854ZM15.59256 107.01161"/>
<path transform="matrix(1,0,0,-1,99.65,249.888)" d="M65.19818 60.9463 55.27705 70.15938 69.45045 77.24608 79.37157 68.033ZM69.45045 77.24608" fill="#268bd2"/>
<path transform="matrix(1,0,0,-1,99.65,249.888)" stroke-width=".79701" stroke-linecap="butt" stroke-miterlimit="10" stroke-linejoin="miter" fill="none" stroke="#002b36" d="M65.19818 60.9463 55.27705 70.15938 69.45045 77.24608 79.37157 68.033ZM69.45045 77.24608"/>
<path transform="matrix(1,0,0,-1,99.65,249.888)" d="M55.27705 70.15938 45.35593 79.37242 59.52933 86.45914 69.45045 77.24608ZM59.52933 86.45914" fill="#268bd2"/>
<path transform="matrix(1,0,0,-1,99.65,249.888)" stroke-width=".79701" stroke-linecap="butt" stroke-miterlimit="10" stroke-linejoin="miter" fill="none" stroke="#002b36" d="M55.27705 70.15938 45.35593 79.37242 59.52933 86.45914 69.45045 77.24608ZM59.52933 86.45914"/>
<path transform="matrix(1,0,0,-1,99.65,249.888)" d="M45.35593 79.37242 35.43481 88.5855 49.60822 95.6722 59.52933 86.45914ZM49.60822 95.6722" fill="#268bd2"/>
<path transform="matrix(1,0,0,-1,99.65,249.888)" stroke-width=".79701" stroke-linecap="butt" stroke-miterlimit="10" stroke-linejoin="miter" fill="none" stroke="#002b36" d="M45.35593 79.37242 35.43481 88.5855 49.60822 95.6722 59.52933 86.45914ZM49.60822 95.6722"/>
<path transform="matrix(1,0,0,-1,99.65,249.888)" d="M35.43481 88.5855 25.51369 97.79854 39.68709 104.88525 49.60822 95.6722ZM39.68709 104.88525" fill="#268bd2"/>
<path transform="matrix(1,0,0,-1,99.65,249.888)" stroke-width=".79701" stroke-linecap="butt" stroke-miterlimit="10" stroke-linejoin="miter" fill="none" stroke="#002b36" d="M35.43481 88.5855 25.51369 97.79854 39.68709 104.88525 49.60822 95.6722ZM39.68709 104.88525"/>
<path transform="matrix(1,0,0,-1,99.65,249.888)" d="M25.51369 97.79854 15.59256 107.01161 29.76595 114.09831 39.68709 104.88525ZM29.76595 114.09831" fill="#268bd2"/>
<path transform="matrix(1,0,0,-1,99.65,249.888)" stroke-width=".79701" stroke-linecap="butt" stroke-miterlimit="10" stroke-linejoin="miter" fill="none" stroke="#002b36" d="M25.51369 97.79854 15.59256 107.01161 29.76595 114.09831 39.68709 104.88525ZM29.76595 114.09831"/>
<g>
<path transform="matrix(1,0,0,-1,99.65,249.888)" d="M-49.60559 46.06529-89.2901 82.91751-32.59648 111.26433 7.08801 74.4121ZM-32.59648 111.26433" fill="#073642" fill-opacity=".4"/>
<path transform="matrix(1,0,0,-1,99.65,249.888)" stroke-width=".3985" stroke-linecap="butt" stroke-miterlimit="10" stroke-linejoin="miter" fill="none" stroke="#000000" stroke-opacity=".4" d="M-49.60559 46.06529-89.2901 82.91751-32.59648 111.26433 7.08801 74.4121ZM-32.59648 111.26433"/>
</g>
<path transform="matrix(1,0,0,-1,99.65,249.888)" stroke-width=".79701" stroke-linecap="butt" stroke-miterlimit="10" stroke-linejoin="miter" fill="none" stroke="#002b36" d="M-49.60559 46.06529 7.08801 74.4121M-59.52673 55.27834-2.83311 83.62515M-69.44786 64.49141-12.75424 92.83821M-79.36897 73.70445-22.67535 102.05127M-89.2866 82.91429-32.59299 111.2611M-49.60559 46.06529-89.2901 82.91751M-35.4322 53.15198-75.11671 90.0042M-21.25879 60.23868-60.9433 97.09091M-7.08539 67.3254-46.7699 104.17761M7.08302 74.4096-32.60147 111.26183"/>
<path transform="matrix(1,0,0,-1,99.65,249.888)" stroke-width=".3985" stroke-linecap="butt" stroke-miterlimit="10" stroke-linejoin="miter" fill="none" stroke="#000000" d="M-49.60632 46.06384-52.09628 187.7994M7.08815 74.41109-37.9229 194.8861M-89.29144 82.91663-62.01743 197.01245M-32.59695 111.26387-47.84402 204.09914"/>
<path transform="matrix(1,0,0,-1,99.65,249.888)" d="M-2.49069 141.7341-62.01743 197.01245 23.023 239.53266 82.54973 184.2543ZM23.023 239.53266" fill="#2aa198"/>
<path transform="matrix(1,0,0,-1,99.65,249.888)" stroke-width=".3985" stroke-linecap="butt" stroke-miterlimit="10" stroke-linejoin="miter" fill="none" stroke="#000000" d="M-2.49069 141.7341-62.01743 197.01245 23.023 239.53266 82.54973 184.2543ZM23.023 239.53266"/>
<path transform="matrix(1,0,0,-1,99.65,249.888)" stroke-width=".79701" stroke-linecap="butt" stroke-miterlimit="10" stroke-linejoin="miter" fill="none" stroke="#002b36" d="M-2.49069 141.7341 82.54973 184.2543M-12.4118 150.94716 72.62862 193.46736M-22.33293 160.1602 62.70749 202.68042M-32.25404 169.37328 52.78636 211.89348M-42.17517 178.58634 42.86523 221.10654M-52.09628 187.7994 32.94412 230.3196M-62.01395 197.00922 23.02647 239.52942M-2.49069 141.7341-62.01743 197.01245M11.6827 148.8208-47.84402 204.09914M25.85611 155.9075-33.67061 211.18585M40.02951 162.9942-19.49721 218.27256M54.20293 170.08092-5.3238 225.35926M68.37631 177.1676 8.84958 232.44596M82.54474 184.25182 23.018 239.53017"/>
<g>
<path transform="matrix(1,0,0,-1,99.65,249.888)" d="M-52.09628 187.7994-62.01743 197.01245-47.84402 204.09914-37.9229 194.8861ZM-47.84402 204.09914" fill="#073642" fill-opacity=".4"/>
<path transform="matrix(1,0,0,-1,99.65,249.888)" stroke-width=".3985" stroke-linecap="butt" stroke-miterlimit="10" stroke-linejoin="miter" fill="none" stroke="#000000" stroke-opacity=".4" d="M-52.09628 187.7994-62.01743 197.01245-47.84402 204.09914-37.9229 194.8861ZM-47.84402 204.09914"/>
</g>
<path transform="matrix(1,0,0,-1,99.65,249.888)" stroke-width=".79701" stroke-linecap="butt" stroke-miterlimit="10" stroke-linejoin="miter" fill="none" stroke="#002b36" d="M-52.09628 187.7994-62.01743 197.01245-47.84402 204.09914-37.9229 194.8861ZM-47.84402 204.09914"/>
</svg>
