<svg xmlns="http://www.w3.org/2000/svg" xmlns:xlink="http://www.w3.org/1999/xlink" version="1.1" width="721pt" height="523pt" viewBox="0 0 721 523">
<defs>
<clipPath id="clip_0">
<path transform="matrix(1,0,0,-1,0,523)" d="M59.04 73.44H691.19998V464.4H59.04Z"/>
</clipPath>
<clipPath id="clip_1">
<path transform="matrix(1,0,0,-1,0,523)" d="M59.04 73.44H691.19998V464.4H59.04Z"/>
</clipPath>
</defs>
<path transform="matrix(1,0,0,-1,0,523)" d="M0 0H721.44V523.44H0Z" fill="#ffffff"/>
<g clip-path="url(#clip_0)">
<path transform="matrix(1,0,0,-1,0,523)" stroke-width=".75" stroke-linecap="round" stroke-linejoin="round" fill="none" stroke="#000000" d="M82.45 87.92 88.31 88.71 94.16 89.64 100.01 90.72 105.87 91.97 111.72 93.42 117.57 95.08 123.43 96.98 129.28 99.15 135.13 101.61 140.99 104.4 146.84 107.54 152.69 111.06 158.55 115 164.4 119.37 170.25 124.21 176.11 129.55 181.96 135.41 187.81 141.81 193.67 148.76 199.52 156.3 205.37 164.41 211.23 173.12 217.08 182.41 222.93 192.27 228.79 202.7 234.64 213.66 240.49 225.12 246.35 237.03 252.2 249.36 258.05 262.04 263.91 275 269.76 288.16 275.61 301.44 281.47 314.76 287.32 328.01 293.17 341.09 299.03 353.91 304.88 366.34 310.73 378.28 316.59 389.62 322.44 400.26 328.29 410.09 334.15 419.02 340 426.95 345.85 433.81 351.71 439.53 357.56 444.04 363.41 447.29 369.27 449.26 375.12 449.92 380.97 449.26 386.83 447.29 392.68 444.04 398.53 439.53 404.39 433.81 410.24 426.95 416.09 419.02 421.95 410.09 427.8 400.26 433.65 389.62 439.51 378.28 445.36 366.34 451.21 353.91 457.07 341.09 462.92 328.01 468.77 314.76 474.63 301.44 480.48 288.16 486.33 275 492.19 262.04 498.04 249.36 503.89 237.03 509.75 225.12 515.6 213.66 521.45 202.7 527.31 192.27 533.16 182.41 539.01 173.12 544.87 164.41 550.72 156.3 556.57 148.76 562.43 141.81 568.28 135.41 574.13 129.55 579.99 124.21 585.84 119.37 591.69 115 597.55 111.06 603.4 107.54 609.25 104.4 615.11 101.61 620.96 99.15 626.81 96.98 632.67 95.08 638.52 93.42 644.37 91.97 650.23 90.72 656.08 89.64 661.93 88.71 667.79 87.92"/>
</g>
<path transform="matrix(1,0,0,-1,0,523)" stroke-width=".75" stroke-linecap="round" stroke-linejoin="round" fill="none" stroke="#000000" d="M82.45 73.44H667.79"/>
<path transform="matrix(1,0,0,-1,0,523)" stroke-width=".75" stroke-linecap="round" stroke-linejoin="round" fill="none" stroke="#000000" d="M82.45 73.44V66.24"/>
<path transform="matrix(1,0,0,-1,0,523)" stroke-width=".75" stroke-linecap="round" stroke-linejoin="round" fill="none" stroke="#000000" d="M180.01 73.44V66.24"/>
<path transform="matrix(1,0,0,-1,0,523)" stroke-width=".75" stroke-linecap="round" stroke-linejoin="round" fill="none" stroke="#000000" d="M277.56 73.44V66.24"/>
<path transform="matrix(1,0,0,-1,0,523)" stroke-width=".75" stroke-linecap="round" stroke-linejoin="round" fill="none" stroke="#000000" d="M375.12 73.44V66.24"/>
<path transform="matrix(1,0,0,-1,0,523)" stroke-width=".75" stroke-linecap="round" stroke-linejoin="round" fill="none" stroke="#000000" d="M472.68 73.44V66.24"/>
<path transform="matrix(1,0,0,-1,0,523)" stroke-width=".75" stroke-linecap="round" stroke-linejoin="round" fill="none" stroke="#000000" d="M570.23 73.44V66.24"/>
<path transform="matrix(1,0,0,-1,0,523)" stroke-width=".75" stroke-linecap="round" stroke-linejoin="round" fill="none" stroke="#000000" d="M667.79 73.44V66.24"/>
<text xml:space="preserve" transform="matrix(1 0 -0 1 0 523)" font-size="12" font-family="Helvetica"><tspan y="-47.52" x="75.61 82.618007">&#x2212;3</tspan></text>
<text xml:space="preserve" transform="matrix(1 0 -0 1 0 523)" font-size="12" font-family="Helvetica"><tspan y="-47.52" x="173.17 180.178">&#x2212;2</tspan></text>
<text xml:space="preserve" transform="matrix(1 0 -0 1 0 523)" font-size="12" font-family="Helvetica"><tspan y="-47.52" x="270.72 277.728">&#x2212;1</tspan></text>
<text xml:space="preserve" transform="matrix(1 0 -0 1 0 523)" font-size="12" font-family="Helvetica"><tspan y="-47.52" x="371.78">0</tspan></text>
<text xml:space="preserve" transform="matrix(1 0 -0 1 0 523)" font-size="12" font-family="Helvetica"><tspan y="-47.52" x="469.34">1</tspan></text>
<text xml:space="preserve" transform="matrix(1 0 -0 1 0 523)" font-size="12" font-family="Helvetica"><tspan y="-47.52" x="566.9">2</tspan></text>
<text xml:space="preserve" transform="matrix(1 0 -0 1 0 523)" font-size="12" font-family="Helvetica"><tspan y="-47.52" x="664.45">3</tspan></text>
<path transform="matrix(1,0,0,-1,0,523)" stroke-width=".75" stroke-linecap="round" stroke-linejoin="round" fill="none" stroke="#000000" d="M59.04 83.85V450.89"/>
<path transform="matrix(1,0,0,-1,0,523)" stroke-width=".75" stroke-linecap="round" stroke-linejoin="round" fill="none" stroke="#000000" d="M59.04 83.85H51.84"/>
<path transform="matrix(1,0,0,-1,0,523)" stroke-width=".75" stroke-linecap="round" stroke-linejoin="round" fill="none" stroke="#000000" d="M59.04 175.61H51.84"/>
<path transform="matrix(1,0,0,-1,0,523)" stroke-width=".75" stroke-linecap="round" stroke-linejoin="round" fill="none" stroke="#000000" d="M59.04 267.37H51.84"/>
<path transform="matrix(1,0,0,-1,0,523)" stroke-width=".75" stroke-linecap="round" stroke-linejoin="round" fill="none" stroke="#000000" d="M59.04 359.13H51.84"/>
<path transform="matrix(1,0,0,-1,0,523)" stroke-width=".75" stroke-linecap="round" stroke-linejoin="round" fill="none" stroke="#000000" d="M59.04 450.89H51.84"/>
<text xml:space="preserve" transform="matrix(0 -1 1 0 0 523)" font-size="12" font-family="Helvetica"><tspan y="41.76" x="75.51 82.18201 85.518009">0.0</tspan></text>
<text xml:space="preserve" transform="matrix(0 -1 1 0 0 523)" font-size="12" font-family="Helvetica"><tspan y="41.76" x="167.27 173.942 177.278">0.1</tspan></text>
<text xml:space="preserve" transform="matrix(0 -1 1 0 0 523)" font-size="12" font-family="Helvetica"><tspan y="41.76" x="259.03 265.702 269.038">0.2</tspan></text>
<text xml:space="preserve" transform="matrix(0 -1 1 0 0 523)" font-size="12" font-family="Helvetica"><tspan y="41.76" x="350.79 357.462 360.798">0.3</tspan></text>
<text xml:space="preserve" transform="matrix(0 -1 1 0 0 523)" font-size="12" font-family="Helvetica"><tspan y="41.76" x="442.55 449.222 452.55799">0.4</tspan></text>
<path transform="matrix(1,0,0,-1,0,523)" stroke-width=".75" stroke-linecap="round" stroke-linejoin="round" fill="none" stroke="#000000" d="M59.04 73.44H691.2V464.4H59.04V73.44"/>
<text xml:space="preserve" transform="matrix(1 0 -0 1 0 523)" font-size="12" font-family="Helvetica"><tspan y="-18.72" x="372.12">x</tspan></text>
<text xml:space="preserve" transform="matrix(0 -1 1 0 0 523)" font-size="12" font-family="Helvetica"><tspan y="12.96" x="227.77 236.434 243.106 247.40201 257.398 264.07 266.734 270.07 278.734 285.406 292.078 298.078 300.742 304.078">Normal Density</tspan></text>
<g clip-path="url(#clip_1)">
<path transform="matrix(1,0,0,-1,0,523)" d="M82.45 83.85V87.92L83.43 88.04 84.4 88.17 85.38 88.3 86.36 88.43 87.33 88.57 88.31 88.71 89.28 88.86 90.26 89.01 91.23 89.16 92.21 89.32 93.18 89.48 94.16 89.64 95.14 89.81 96.11 89.98 97.09 90.16 98.06 90.34 99.04 90.53 100.01 90.72 100.99 90.92 101.96 91.12 102.94 91.32 103.92 91.53 104.89 91.75 105.87 91.97 106.84 92.2 107.82 92.43 108.79 92.67 109.77 92.91 110.74 93.16 111.72 93.42 112.7 93.68 113.67 93.94 114.65 94.22 115.62 94.5 116.6 94.78 117.57 95.08 118.55 95.38 119.52 95.68 120.5 96 121.48 96.32 122.45 96.64 123.43 96.98 124.4 97.32 125.38 97.67 126.35 98.03 127.33 98.39 128.3 98.77 129.28 99.15 130.26 99.54 131.23 99.94 132.21 100.34 133.18 100.76 134.16 101.18 135.13 101.61 136.11 102.06 137.08 102.51 138.06 102.97 139.04 103.44 140.01 103.91 140.99 104.4 141.96 104.9 142.94 105.41 143.91 105.93 144.89 106.45 145.86 106.99 146.84 107.54 147.82 108.1 148.79 108.67 149.77 109.25 150.74 109.85 151.72 110.45 152.69 111.06 153.67 111.69 154.64 112.33 155.62 112.98 156.6 113.64 157.57 114.31 158.55 115 159.52 115.69 160.5 116.4 161.47 117.13 162.45 117.86 163.42 118.61 164.4 119.37 165.38 120.14 166.35 120.93 167.33 121.73 168.3 122.54 169.28 123.37 170.25 124.21 171.23 125.07 172.2 125.94 173.18 126.82 174.16 127.71 175.13 128.62 176.11 129.55 177.08 130.49 178.06 131.44 179.03 132.41 180.01 133.4 180.98 134.39 181.96 135.41 182.94 136.43 183.91 137.48 184.89 138.54 185.86 139.61 186.84 140.7 187.81 141.81 188.79 142.93 189.76 144.06 190.74 145.21 191.72 146.38 192.69 147.56 193.67 148.76 194.64 149.98 195.62 151.21 196.59 152.46 197.57 153.72 198.54 155 199.52 156.3 200.5 157.61 201.47 158.94 202.45 160.28 203.42 161.64 204.4 163.02 205.37 164.41 206.35 165.82 207.32 167.25 208.3 168.69 209.28 170.15 210.25 171.63 211.23 173.12 212.2 174.63 213.18 176.15 214.15 177.69 215.13 179.25 216.1 180.82 217.08 182.41 218.06 184.01 219.03 185.63 220.01 187.27 220.98 188.92 221.96 190.59 222.93 192.27 223.91 193.97 224.88 195.69 225.86 197.42 226.84 199.16 227.81 200.92 228.79 202.7 229.76 204.49 230.74 206.29 231.71 208.11 232.69 209.95 233.66 211.79 234.64 213.66 235.62 215.53 236.59 217.42 237.57 219.33 238.54 221.24 239.52 223.17 240.49 225.12 241.47 227.07 242.44 229.04 243.42 231.02 244.4 233.01 245.37 235.02 246.35 237.03 247.32 239.06 248.3 241.1 249.27 243.15 250.25 245.21 251.22 247.28 252.2 249.36 253.18 251.45 254.15 253.55 255.13 255.66 256.1 257.78 257.08 259.9 258.05 262.04 259.03 264.18 260 266.33 260.98 268.49 261.96 270.65 262.93 272.82 263.91 275 264.88 277.18 265.86 279.36 266.83 281.56 267.81 283.75 268.78 285.95 269.76 288.16 270.74 290.37 271.71 292.58 272.69 294.79 273.66 297.01 274.64 299.23 275.61 301.44 276.59 303.66 277.56 305.88 278.54 308.1 279.52 310.32 280.49 312.54 281.47 314.76 282.44 316.98 282.47 83.85Z" fill="#87ceeb"/>
<path transform="matrix(1,0,0,-1,0,523)" stroke-width=".75" stroke-linecap="round" stroke-linejoin="round" fill="none" stroke="#000000" d="M82.45 83.85V87.92L83.43 88.04 84.4 88.17 85.38 88.3 86.36 88.43 87.33 88.57 88.31 88.71 89.28 88.86 90.26 89.01 91.23 89.16 92.21 89.32 93.18 89.48 94.16 89.64 95.14 89.81 96.11 89.98 97.09 90.16 98.06 90.34 99.04 90.53 100.01 90.72 100.99 90.92 101.96 91.12 102.94 91.32 103.92 91.53 104.89 91.75 105.87 91.97 106.84 92.2 107.82 92.43 108.79 92.67 109.77 92.91 110.74 93.16 111.72 93.42 112.7 93.68 113.67 93.94 114.65 94.22 115.62 94.5 116.6 94.78 117.57 95.08 118.55 95.38 119.52 95.68 120.5 96 121.48 96.32 122.45 96.64 123.43 96.98 124.4 97.32 125.38 97.67 126.35 98.03 127.33 98.39 128.3 98.77 129.28 99.15 130.26 99.54 131.23 99.94 132.21 100.34 133.18 100.76 134.16 101.18 135.13 101.61 136.11 102.06 137.08 102.51 138.06 102.97 139.04 103.44 140.01 103.91 140.99 104.4 141.96 104.9 142.94 105.41 143.91 105.93 144.89 106.45 145.86 106.99 146.84 107.54 147.82 108.1 148.79 108.67 149.77 109.25 150.74 109.85 151.72 110.45 152.69 111.06 153.67 111.69 154.64 112.33 155.62 112.98 156.6 113.64 157.57 114.31 158.55 115 159.52 115.69 160.5 116.4 161.47 117.13 162.45 117.86 163.42 118.61 164.4 119.37 165.38 120.14 166.35 120.93 167.33 121.73 168.3 122.54 169.28 123.37 170.25 124.21 171.23 125.07 172.2 125.94 173.18 126.82 174.16 127.71 175.13 128.62 176.11 129.55 177.08 130.49 178.06 131.44 179.03 132.41 180.01 133.4 180.98 134.39 181.96 135.41 182.94 136.43 183.91 137.48 184.89 138.54 185.86 139.61 186.84 140.7 187.81 141.81 188.79 142.93 189.76 144.06 190.74 145.21 191.72 146.38 192.69 147.56 193.67 148.76 194.64 149.98 195.62 151.21 196.59 152.46 197.57 153.72 198.54 155 199.52 156.3 200.5 157.61 201.47 158.94 202.45 160.28 203.42 161.64 204.4 163.02 205.37 164.41 206.35 165.82 207.32 167.25 208.3 168.69 209.28 170.15 210.25 171.63 211.23 173.12 212.2 174.63 213.18 176.15 214.15 177.69 215.13 179.25 216.1 180.82 217.08 182.41 218.06 184.01 219.03 185.63 220.01 187.27 220.98 188.92 221.96 190.59 222.93 192.27 223.91 193.97 224.88 195.69 225.86 197.42 226.84 199.16 227.81 200.92 228.79 202.7 229.76 204.49 230.74 206.29 231.71 208.11 232.69 209.95 233.66 211.79 234.64 213.66 235.62 215.53 236.59 217.42 237.57 219.33 238.54 221.24 239.52 223.17 240.49 225.12 241.47 227.07 242.44 229.04 243.42 231.02 244.4 233.01 245.37 235.02 246.35 237.03 247.32 239.06 248.3 241.1 249.27 243.15 250.25 245.21 251.22 247.28 252.2 249.36 253.18 251.45 254.15 253.55 255.13 255.66 256.1 257.78 257.08 259.9 258.05 262.04 259.03 264.18 260 266.33 260.98 268.49 261.96 270.65 262.93 272.82 263.91 275 264.88 277.18 265.86 279.36 266.83 281.56 267.81 283.75 268.78 285.95 269.76 288.16 270.74 290.37 271.71 292.58 272.69 294.79 273.66 297.01 274.64 299.23 275.61 301.44 276.59 303.66 277.56 305.88 278.54 308.1 279.52 310.32 280.49 312.54 281.47 314.76 282.44 316.98 282.47 83.85Z"/>
</g>
</svg>
