<svg xmlns="http://www.w3.org/2000/svg" xmlns:xlink="http://www.w3.org/1999/xlink" version="1.1" width="397pt" height="91pt" viewBox="0 0 397 91">
<defs>
<clipPath id="clip_0">
<path transform="matrix(1,0,0,-1,0,91)" d="M0 0H397V91H0Z"/>
</clipPath>
<clipPath id="clip_1">
<path transform="matrix(1,0,0,-1,0,91)" d="M1 59H397V75H1Z"/>
</clipPath>
<clipPath id="clip_2">
<path transform="matrix(1,0,0,-1,0,91)" d="M1 59H397V75H1Z"/>
</clipPath>
<clipPath id="clip_3">
<path transform="matrix(1,0,0,-1,0,91)" d="M1 59H397V75H1Z"/>
</clipPath>
<clipPath id="clip_4">
<path transform="matrix(1,0,0,-1,0,91)" d="M1 59H397V75H1Z"/>
</clipPath>
<clipPath id="clip_5">
<path transform="matrix(1,0,0,-1,0,91)" d="M1 59H397V75H1Z"/>
</clipPath>
<clipPath id="clip_6">
<path transform="matrix(1,0,0,-1,0,91)" d="M1 44H397V60H1Z"/>
</clipPath>
<clipPath id="clip_7">
<path transform="matrix(1,0,0,-1,0,91)" d="M1 44H397V60H1Z"/>
</clipPath>
<clipPath id="clip_8">
<path transform="matrix(1,0,0,-1,0,91)" d="M1 44H397V60H1Z"/>
</clipPath>
<clipPath id="clip_9">
<path transform="matrix(1,0,0,-1,0,91)" d="M1 44H397V60H1Z"/>
</clipPath>
<clipPath id="clip_10">
<path transform="matrix(1,0,0,-1,0,91)" d="M1 44H397V60H1Z"/>
</clipPath>
<clipPath id="clip_11">
<path transform="matrix(1,0,0,-1,0,91)" d="M1 44H397V60H1Z"/>
</clipPath>
<clipPath id="clip_12">
<path transform="matrix(1,0,0,-1,0,91)" d="M1 44H397V60H1Z"/>
</clipPath>
<clipPath id="clip_13">
<path transform="matrix(1,0,0,-1,0,91)" d="M1 44H397V60H1Z"/>
</clipPath>
<clipPath id="clip_14">
<path transform="matrix(1,0,0,-1,0,91)" d="M1 44H397V60H1Z"/>
</clipPath>
<clipPath id="clip_15">
<path transform="matrix(1,0,0,-1,0,91)" d="M1 44H397V60H1Z"/>
</clipPath>
<clipPath id="clip_16">
<path transform="matrix(1,0,0,-1,0,91)" d="M1 44H397V60H1Z"/>
</clipPath>
<clipPath id="clip_17">
<path transform="matrix(1,0,0,-1,0,91)" d="M1 29H397V45H1Z"/>
</clipPath>
<clipPath id="clip_18">
<path transform="matrix(1,0,0,-1,0,91)" d="M1 29H397V45H1Z"/>
</clipPath>
<clipPath id="clip_19">
<path transform="matrix(1,0,0,-1,0,91)" d="M1 29H397V45H1Z"/>
</clipPath>
<clipPath id="clip_20">
<path transform="matrix(1,0,0,-1,0,91)" d="M1 29H397V45H1Z"/>
</clipPath>
<clipPath id="clip_21">
<path transform="matrix(1,0,0,-1,0,91)" d="M1 29H397V45H1Z"/>
</clipPath>
<clipPath id="clip_22">
<path transform="matrix(1,0,0,-1,0,91)" d="M1 29H397V45H1Z"/>
</clipPath>
<clipPath id="clip_23">
<path transform="matrix(1,0,0,-1,0,91)" d="M1 29H397V45H1Z"/>
</clipPath>
<clipPath id="clip_24">
<path transform="matrix(1,0,0,-1,0,91)" d="M1 29H397V45H1Z"/>
</clipPath>
<clipPath id="clip_25">
<path transform="matrix(1,0,0,-1,0,91)" d="M1 29H397V45H1Z"/>
</clipPath>
<clipPath id="clip_26">
<path transform="matrix(1,0,0,-1,0,91)" d="M1 29H397V45H1Z"/>
</clipPath>
<clipPath id="clip_27">
<path transform="matrix(1,0,0,-1,0,91)" d="M1 29H397V45H1Z"/>
</clipPath>
<clipPath id="clip_28">
<path transform="matrix(1,0,0,-1,0,91)" d="M1 14H397V30H1Z"/>
</clipPath>
<clipPath id="clip_29">
<path transform="matrix(1,0,0,-1,0,91)" d="M1 14H397V30H1Z"/>
</clipPath>
<clipPath id="clip_30">
<path transform="matrix(1,0,0,-1,0,91)" d="M1 14H397V30H1Z"/>
</clipPath>
<clipPath id="clip_31">
<path transform="matrix(1,0,0,-1,0,91)" d="M1 14H397V30H1Z"/>
</clipPath>
<clipPath id="clip_32">
<path transform="matrix(1,0,0,-1,0,91)" d="M1 14H397V30H1Z"/>
</clipPath>
<clipPath id="clip_33">
<path transform="matrix(1,0,0,-1,0,91)" d="M1 14H397V30H1Z"/>
</clipPath>
<clipPath id="clip_34">
<path transform="matrix(1,0,0,-1,0,91)" d="M1 14H397V30H1Z"/>
</clipPath>
<clipPath id="clip_35">
<path transform="matrix(1,0,0,-1,0,91)" d="M1 14H397V30H1Z"/>
</clipPath>
<clipPath id="clip_36">
<path transform="matrix(1,0,0,-1,0,91)" d="M1 14H397V30H1Z"/>
</clipPath>
<clipPath id="clip_37">
<path transform="matrix(1,0,0,-1,0,91)" d="M1 14H397V30H1Z"/>
</clipPath>
<clipPath id="clip_38">
<path transform="matrix(1,0,0,-1,0,91)" d="M1 14H397V30H1Z"/>
</clipPath>
<clipPath id="clip_39">
<path transform="matrix(1,0,0,-1,0,91)" d="M1 0H397V15H1Z"/>
</clipPath>
<clipPath id="clip_40">
<path transform="matrix(1,0,0,-1,0,91)" d="M1 0H397V15H1Z"/>
</clipPath>
<clipPath id="clip_41">
<path transform="matrix(1,0,0,-1,0,91)" d="M1 0H397V15H1Z"/>
</clipPath>
<clipPath id="clip_42">
<path transform="matrix(1,0,0,-1,0,91)" d="M1 0H397V15H1Z"/>
</clipPath>
<clipPath id="clip_43">
<path transform="matrix(1,0,0,-1,0,91)" d="M1 0H397V15H1Z"/>
</clipPath>
<clipPath id="clip_44">
<path transform="matrix(1,0,0,-1,0,91)" d="M1 75H131V90H1Z"/>
</clipPath>
<clipPath id="clip_45">
<path transform="matrix(1,0,0,-1,0,91)" d="M186 75H264V90H186Z"/>
</clipPath>
<clipPath id="clip_46">
<path transform="matrix(1,0,0,-1,0,91)" d="M319 75H397V90H319Z"/>
</clipPath>
<clipPath id="clip_47">
<path transform="matrix(1,0,0,-1,0,91)" d="M0 0H397V91H0Z"/>
</clipPath>
</defs>
<g clip-path="url(#clip_0)">
<path stroke-width="1" stroke-linecap="butt" stroke-miterlimit="10" stroke-linejoin="miter" fill="none" stroke="#cecece" d="M0 .5H397"/>
<path transform="matrix(1,0,0,-1,0,91)" d="M0 91H397V90H0Z" fill="#cecece"/>
<path stroke-width="1" stroke-linecap="butt" stroke-miterlimit="10" stroke-linejoin="miter" fill="none" stroke="#cecece" d="M.5 0V91"/>
<path transform="matrix(1,0,0,-1,0,91)" d="M0 91H1V0H0Z" fill="#cecece"/>
<path transform="matrix(1,0,0,-1,0,91)" d="M0 76H27V60H0Z" fill="#ff0000"/>
<path transform="matrix(1,0,0,-1,0,91)" d="M26 76H105V60H26Z" fill="#ffffff"/>
<path transform="matrix(1,0,0,-1,0,91)" d="M104 76H131V60H104Z" fill="#ff0000"/>
<path transform="matrix(1,0,0,-1,0,91)" d="M0 61H27V45H0Z" fill="#ffffff"/>
<path transform="matrix(1,0,0,-1,0,91)" d="M26 61H53V45H26Z" fill="#ff0000"/>
<path transform="matrix(1,0,0,-1,0,91)" d="M52 61H79V45H52Z" fill="#ffffff"/>
<path transform="matrix(1,0,0,-1,0,91)" d="M78 61H105V45H78Z" fill="#ff0000"/>
<path transform="matrix(1,0,0,-1,0,91)" d="M104 61H131V45H104Z" fill="#ffffff"/>
<path transform="matrix(1,0,0,-1,0,91)" d="M185 61H212V45H185Z" fill="#ff0000"/>
<path transform="matrix(1,0,0,-1,0,91)" d="M211 61H264V45H211Z" fill="#ffffff"/>
<path transform="matrix(1,0,0,-1,0,91)" d="M318 61H345V45H318Z" fill="#ff0000"/>
<path transform="matrix(1,0,0,-1,0,91)" d="M344 61H371V45H344Z" fill="#ffffff"/>
<path transform="matrix(1,0,0,-1,0,91)" d="M370 61H397V45H370Z" fill="#ffaaaa"/>
<path transform="matrix(1,0,0,-1,0,91)" d="M0 46H53V30H0Z" fill="#ffffff"/>
<path transform="matrix(1,0,0,-1,0,91)" d="M52 46H79V30H52Z" fill="#ff0000"/>
<path transform="matrix(1,0,0,-1,0,91)" d="M78 46H131V30H78Z" fill="#ffffff"/>
<path transform="matrix(1,0,0,-1,0,91)" d="M185 46H212V30H185Z" fill="#ffffff"/>
<path transform="matrix(1,0,0,-1,0,91)" d="M211 46H238V30H211Z" fill="#ff0000"/>
<path transform="matrix(1,0,0,-1,0,91)" d="M237 46H264V30H237Z" fill="#ffffff"/>
<path transform="matrix(1,0,0,-1,0,91)" d="M318 46H345V30H318Z" fill="#ffffff"/>
<path transform="matrix(1,0,0,-1,0,91)" d="M344 46H371V30H344Z" fill="#ff0000"/>
<path transform="matrix(1,0,0,-1,0,91)" d="M370 46H397V30H370Z" fill="#ffffff"/>
<path transform="matrix(1,0,0,-1,0,91)" d="M0 31H27V15H0Z" fill="#ffffff"/>
<path transform="matrix(1,0,0,-1,0,91)" d="M26 31H53V15H26Z" fill="#ff0000"/>
<path transform="matrix(1,0,0,-1,0,91)" d="M52 31H79V15H52Z" fill="#ffffff"/>
<path transform="matrix(1,0,0,-1,0,91)" d="M78 31H105V15H78Z" fill="#ff0000"/>
<path transform="matrix(1,0,0,-1,0,91)" d="M104 31H131V15H104Z" fill="#ffffff"/>
<path transform="matrix(1,0,0,-1,0,91)" d="M185 31H238V15H185Z" fill="#ffffff"/>
<path transform="matrix(1,0,0,-1,0,91)" d="M237 31H264V15H237Z" fill="#ff0000"/>
<path transform="matrix(1,0,0,-1,0,91)" d="M318 31H345V15H318Z" fill="#ffaaaa"/>
<path transform="matrix(1,0,0,-1,0,91)" d="M344 31H371V15H344Z" fill="#ffffff"/>
<path transform="matrix(1,0,0,-1,0,91)" d="M370 31H397V15H370Z" fill="#ff0000"/>
<path transform="matrix(1,0,0,-1,0,91)" d="M0 16H27V0H0Z" fill="#ff0000"/>
<path transform="matrix(1,0,0,-1,0,91)" d="M26 16H105V0H26Z" fill="#ffffff"/>
<path transform="matrix(1,0,0,-1,0,91)" d="M104 16H131V0H104Z" fill="#ff0000"/>
</g>
<g clip-path="url(#clip_1)">
<text xml:space="preserve" transform="matrix(1 0 -0 1 18 27)" font-size="11" font-family="Calibri"><tspan y="0" x="0">1</tspan></text>
</g>
<g clip-path="url(#clip_2)">
<text xml:space="preserve" transform="matrix(1 0 -0 1 44 27)" font-size="11" font-family="Calibri"><tspan y="0" x="0">0</tspan></text>
</g>
<g clip-path="url(#clip_3)">
<text xml:space="preserve" transform="matrix(1 0 -0 1 70 27)" font-size="11" font-family="Calibri"><tspan y="0" x="0">0</tspan></text>
</g>
<g clip-path="url(#clip_4)">
<text xml:space="preserve" transform="matrix(1 0 -0 1 96 27)" font-size="11" font-family="Calibri"><tspan y="0" x="0">0</tspan></text>
</g>
<g clip-path="url(#clip_5)">
<text xml:space="preserve" transform="matrix(1 0 -0 1 122 27)" font-size="11" font-family="Calibri"><tspan y="0" x="0">1</tspan></text>
</g>
<g clip-path="url(#clip_6)">
<text xml:space="preserve" transform="matrix(1 0 -0 1 18 42)" font-size="11" font-family="Calibri"><tspan y="0" x="0">0</tspan></text>
</g>
<g clip-path="url(#clip_7)">
<text xml:space="preserve" transform="matrix(1 0 -0 1 44 42)" font-size="11" font-family="Calibri"><tspan y="0" x="0">1</tspan></text>
</g>
<g clip-path="url(#clip_8)">
<text xml:space="preserve" transform="matrix(1 0 -0 1 70 42)" font-size="11" font-family="Calibri"><tspan y="0" x="0">0</tspan></text>
</g>
<g clip-path="url(#clip_9)">
<text xml:space="preserve" transform="matrix(1 0 -0 1 96 42)" font-size="11" font-family="Calibri"><tspan y="0" x="0">1</tspan></text>
</g>
<g clip-path="url(#clip_10)">
<text xml:space="preserve" transform="matrix(1 0 -0 1 122 42)" font-size="11" font-family="Calibri"><tspan y="0" x="0">0</tspan></text>
</g>
<g clip-path="url(#clip_11)">
<text xml:space="preserve" transform="matrix(1 0 -0 1 203 42)" font-size="11" font-family="Calibri"><tspan y="0" x="0">1</tspan></text>
</g>
<g clip-path="url(#clip_12)">
<text xml:space="preserve" transform="matrix(1 0 -0 1 229 42)" font-size="11" font-family="Calibri"><tspan y="0" x="0">0</tspan></text>
</g>
<g clip-path="url(#clip_13)">
<text xml:space="preserve" transform="matrix(1 0 -0 1 255 42)" font-size="11" font-family="Calibri"><tspan y="0" x="0">0</tspan></text>
</g>
<g clip-path="url(#clip_14)">
<text xml:space="preserve" transform="matrix(1 0 -0 1 336 42)" font-size="11" font-family="Calibri"><tspan y="0" x="0">3</tspan></text>
</g>
<g clip-path="url(#clip_15)">
<text xml:space="preserve" transform="matrix(1 0 -0 1 362 42)" font-size="11" font-family="Calibri"><tspan y="0" x="0">0</tspan></text>
</g>
<g clip-path="url(#clip_16)">
<text xml:space="preserve" transform="matrix(1 0 -0 1 388 42)" font-size="11" font-family="Calibri"><tspan y="0" x="0">1</tspan></text>
</g>
<g clip-path="url(#clip_17)">
<text xml:space="preserve" transform="matrix(1 0 -0 1 18 57)" font-size="11" font-family="Calibri"><tspan y="0" x="0">0</tspan></text>
</g>
<g clip-path="url(#clip_18)">
<text xml:space="preserve" transform="matrix(1 0 -0 1 44 57)" font-size="11" font-family="Calibri"><tspan y="0" x="0">0</tspan></text>
</g>
<g clip-path="url(#clip_19)">
<text xml:space="preserve" transform="matrix(1 0 -0 1 70 57)" font-size="11" font-family="Calibri"><tspan y="0" x="0">1</tspan></text>
</g>
<g clip-path="url(#clip_20)">
<text xml:space="preserve" transform="matrix(1 0 -0 1 96 57)" font-size="11" font-family="Calibri"><tspan y="0" x="0">0</tspan></text>
</g>
<g clip-path="url(#clip_21)">
<text xml:space="preserve" transform="matrix(1 0 -0 1 122 57)" font-size="11" font-family="Calibri"><tspan y="0" x="0">0</tspan></text>
</g>
<g clip-path="url(#clip_22)">
<text xml:space="preserve" transform="matrix(1 0 -0 1 203 57)" font-size="11" font-family="Calibri"><tspan y="0" x="0">0</tspan></text>
</g>
<g clip-path="url(#clip_23)">
<text xml:space="preserve" transform="matrix(1 0 -0 1 229 57)" font-size="11" font-family="Calibri"><tspan y="0" x="0">1</tspan></text>
</g>
<g clip-path="url(#clip_24)">
<text xml:space="preserve" transform="matrix(1 0 -0 1 255 57)" font-size="11" font-family="Calibri"><tspan y="0" x="0">0</tspan></text>
</g>
<g clip-path="url(#clip_25)">
<text xml:space="preserve" transform="matrix(1 0 -0 1 336 57)" font-size="11" font-family="Calibri"><tspan y="0" x="0">0</tspan></text>
</g>
<g clip-path="url(#clip_26)">
<text xml:space="preserve" transform="matrix(1 0 -0 1 362 57)" font-size="11" font-family="Calibri"><tspan y="0" x="0">3</tspan></text>
</g>
<g clip-path="url(#clip_27)">
<text xml:space="preserve" transform="matrix(1 0 -0 1 388 57)" font-size="11" font-family="Calibri"><tspan y="0" x="0">0</tspan></text>
</g>
<g clip-path="url(#clip_28)">
<text xml:space="preserve" transform="matrix(1 0 -0 1 18 72)" font-size="11" font-family="Calibri"><tspan y="0" x="0">0</tspan></text>
</g>
<g clip-path="url(#clip_29)">
<text xml:space="preserve" transform="matrix(1 0 -0 1 44 72)" font-size="11" font-family="Calibri"><tspan y="0" x="0">1</tspan></text>
</g>
<g clip-path="url(#clip_30)">
<text xml:space="preserve" transform="matrix(1 0 -0 1 70 72)" font-size="11" font-family="Calibri"><tspan y="0" x="0">0</tspan></text>
</g>
<g clip-path="url(#clip_31)">
<text xml:space="preserve" transform="matrix(1 0 -0 1 96 72)" font-size="11" font-family="Calibri"><tspan y="0" x="0">1</tspan></text>
</g>
<g clip-path="url(#clip_32)">
<text xml:space="preserve" transform="matrix(1 0 -0 1 122 72)" font-size="11" font-family="Calibri"><tspan y="0" x="0">0</tspan></text>
</g>
<g clip-path="url(#clip_33)">
<text xml:space="preserve" transform="matrix(1 0 -0 1 203 72)" font-size="11" font-family="Calibri"><tspan y="0" x="0">0</tspan></text>
</g>
<g clip-path="url(#clip_34)">
<text xml:space="preserve" transform="matrix(1 0 -0 1 229 72)" font-size="11" font-family="Calibri"><tspan y="0" x="0">0</tspan></text>
</g>
<g clip-path="url(#clip_35)">
<text xml:space="preserve" transform="matrix(1 0 -0 1 255 72)" font-size="11" font-family="Calibri"><tspan y="0" x="0">1</tspan></text>
</g>
<g clip-path="url(#clip_36)">
<text xml:space="preserve" transform="matrix(1 0 -0 1 336 72)" font-size="11" font-family="Calibri"><tspan y="0" x="0">1</tspan></text>
</g>
<g clip-path="url(#clip_37)">
<text xml:space="preserve" transform="matrix(1 0 -0 1 362 72)" font-size="11" font-family="Calibri"><tspan y="0" x="0">0</tspan></text>
</g>
<g clip-path="url(#clip_38)">
<text xml:space="preserve" transform="matrix(1 0 -0 1 388 72)" font-size="11" font-family="Calibri"><tspan y="0" x="0">3</tspan></text>
</g>
<g clip-path="url(#clip_39)">
<text xml:space="preserve" transform="matrix(1 0 -0 1 18 87)" font-size="11" font-family="Calibri"><tspan y="0" x="0">1</tspan></text>
</g>
<g clip-path="url(#clip_40)">
<text xml:space="preserve" transform="matrix(1 0 -0 1 44 87)" font-size="11" font-family="Calibri"><tspan y="0" x="0">0</tspan></text>
</g>
<g clip-path="url(#clip_41)">
<text xml:space="preserve" transform="matrix(1 0 -0 1 70 87)" font-size="11" font-family="Calibri"><tspan y="0" x="0">0</tspan></text>
</g>
<g clip-path="url(#clip_42)">
<text xml:space="preserve" transform="matrix(1 0 -0 1 96 87)" font-size="11" font-family="Calibri"><tspan y="0" x="0">0</tspan></text>
</g>
<g clip-path="url(#clip_43)">
<text xml:space="preserve" transform="matrix(1 0 -0 1 122 87)" font-size="11" font-family="Calibri"><tspan y="0" x="0">1</tspan></text>
</g>
<g clip-path="url(#clip_44)">
<text xml:space="preserve" transform="matrix(1 0 -0 1 53 12)" font-size="11" font-family="Calibri"><tspan y="0" x="0 2.772 8.551401 14.330802 20.110203">Input</tspan></text>
</g>
<g clip-path="url(#clip_45)">
<text xml:space="preserve" transform="matrix(1 0 -0 1 212 12)" font-size="11" font-family="Calibri"><tspan y="0" x="0 5.0545 7.5790007 10.1035 13.788501 19.2621">Filter</tspan></text>
</g>
<g clip-path="url(#clip_46)">
<text xml:space="preserve" transform="matrix(1 0 -0 1 340 12)" font-size="11" font-family="Calibri"><tspan y="0" x="0 7.2831008 13.062502 16.747502 22.526904 28.306303">Output</tspan></text>
</g>
<g clip-path="url(#clip_47)">
<path stroke-width="1" stroke-linecap="butt" stroke-miterlimit="10" stroke-linejoin="miter" fill="none" stroke="#ffffff" d="M26.5-15V1"/>
<path transform="matrix(1,0,0,-1,0,91)" d="M26 106H27V90H26Z" fill="#ffffff"/>
<path stroke-width="1" stroke-linecap="butt" stroke-miterlimit="10" stroke-linejoin="miter" fill="none" stroke="#ffffff" d="M52.5-15V1"/>
<path transform="matrix(1,0,0,-1,0,91)" d="M52 106H53V90H52Z" fill="#ffffff"/>
<path stroke-width="1" stroke-linecap="butt" stroke-miterlimit="10" stroke-linejoin="miter" fill="none" stroke="#ffffff" d="M78.5-15V1"/>
<path transform="matrix(1,0,0,-1,0,91)" d="M78 106H79V90H78Z" fill="#ffffff"/>
<path stroke-width="1" stroke-linecap="butt" stroke-miterlimit="10" stroke-linejoin="miter" fill="none" stroke="#ffffff" d="M104.5-15V1"/>
<path transform="matrix(1,0,0,-1,0,91)" d="M104 106H105V90H104Z" fill="#ffffff"/>
<path stroke-width="1" stroke-linecap="butt" stroke-miterlimit="10" stroke-linejoin="miter" fill="none" stroke="#ffffff" d="M211.5-15V1"/>
<path transform="matrix(1,0,0,-1,0,91)" d="M211 106H212V90H211Z" fill="#ffffff"/>
<path stroke-width="1" stroke-linecap="butt" stroke-miterlimit="10" stroke-linejoin="miter" fill="none" stroke="#ffffff" d="M237.5-15V1"/>
<path transform="matrix(1,0,0,-1,0,91)" d="M237 106H238V90H237Z" fill="#ffffff"/>
<path stroke-width="1" stroke-linecap="butt" stroke-miterlimit="10" stroke-linejoin="miter" fill="none" stroke="#ffffff" d="M344.5-15V1"/>
<path transform="matrix(1,0,0,-1,0,91)" d="M344 106H345V90H344Z" fill="#ffffff"/>
<path stroke-width="1" stroke-linecap="butt" stroke-miterlimit="10" stroke-linejoin="miter" fill="none" stroke="#ffffff" d="M370.5-15V1"/>
<path transform="matrix(1,0,0,-1,0,91)" d="M370 106H371V90H370Z" fill="#ffffff"/>
<path stroke-width="1" stroke-linecap="butt" stroke-miterlimit="10" stroke-linejoin="miter" fill="none" stroke="#ffffff" d="M.5-15V91"/>
<path transform="matrix(1,0,0,-1,0,91)" d="M0 106H1V0H0Z" fill="#ffffff"/>
<path stroke-width="1" stroke-linecap="butt" stroke-miterlimit="10" stroke-linejoin="miter" fill="none" stroke="#ffffff" d="M26.5 16V91"/>
<path transform="matrix(1,0,0,-1,0,91)" d="M26 75H27V0H26Z" fill="#ffffff"/>
<path stroke-width="1" stroke-linecap="butt" stroke-miterlimit="10" stroke-linejoin="miter" fill="none" stroke="#ffffff" d="M52.5 16V91"/>
<path transform="matrix(1,0,0,-1,0,91)" d="M52 75H53V0H52Z" fill="#ffffff"/>
<path stroke-width="1" stroke-linecap="butt" stroke-miterlimit="10" stroke-linejoin="miter" fill="none" stroke="#ffffff" d="M78.5 16V91"/>
<path transform="matrix(1,0,0,-1,0,91)" d="M78 75H79V0H78Z" fill="#ffffff"/>
<path stroke-width="1" stroke-linecap="butt" stroke-miterlimit="10" stroke-linejoin="miter" fill="none" stroke="#ffffff" d="M104.5 16V91"/>
<path transform="matrix(1,0,0,-1,0,91)" d="M104 75H105V0H104Z" fill="#ffffff"/>
<path stroke-width="1" stroke-linecap="butt" stroke-miterlimit="10" stroke-linejoin="miter" fill="none" stroke="#ffffff" d="M130.5-15V91"/>
<path transform="matrix(1,0,0,-1,0,91)" d="M130 106H131V0H130Z" fill="#ffffff"/>
<path stroke-width="1" stroke-linecap="butt" stroke-miterlimit="10" stroke-linejoin="miter" fill="none" stroke="#ffffff" d="M159.5-15V91"/>
<path transform="matrix(1,0,0,-1,0,91)" d="M159 106H160V0H159Z" fill="#ffffff"/>
<path stroke-width="1" stroke-linecap="butt" stroke-miterlimit="10" stroke-linejoin="miter" fill="none" stroke="#ffffff" d="M185.5-15V91"/>
<path transform="matrix(1,0,0,-1,0,91)" d="M185 106H186V0H185Z" fill="#ffffff"/>
<path stroke-width="1" stroke-linecap="butt" stroke-miterlimit="10" stroke-linejoin="miter" fill="none" stroke="#ffffff" d="M211.5 16V91"/>
<path transform="matrix(1,0,0,-1,0,91)" d="M211 75H212V0H211Z" fill="#ffffff"/>
<path stroke-width="1" stroke-linecap="butt" stroke-miterlimit="10" stroke-linejoin="miter" fill="none" stroke="#ffffff" d="M237.5 16V91"/>
<path transform="matrix(1,0,0,-1,0,91)" d="M237 75H238V0H237Z" fill="#ffffff"/>
<path stroke-width="1" stroke-linecap="butt" stroke-miterlimit="10" stroke-linejoin="miter" fill="none" stroke="#ffffff" d="M263.5-15V91"/>
<path transform="matrix(1,0,0,-1,0,91)" d="M263 106H264V0H263Z" fill="#ffffff"/>
<path stroke-width="1" stroke-linecap="butt" stroke-miterlimit="10" stroke-linejoin="miter" fill="none" stroke="#ffffff" d="M289.5-15V91"/>
<path transform="matrix(1,0,0,-1,0,91)" d="M289 106H290V0H289Z" fill="#ffffff"/>
<path stroke-width="1" stroke-linecap="butt" stroke-miterlimit="10" stroke-linejoin="miter" fill="none" stroke="#ffffff" d="M318.5-15V91"/>
<path transform="matrix(1,0,0,-1,0,91)" d="M318 106H319V0H318Z" fill="#ffffff"/>
<path stroke-width="1" stroke-linecap="butt" stroke-miterlimit="10" stroke-linejoin="miter" fill="none" stroke="#ffffff" d="M344.5 16V91"/>
<path transform="matrix(1,0,0,-1,0,91)" d="M344 75H345V0H344Z" fill="#ffffff"/>
<path stroke-width="1" stroke-linecap="butt" stroke-miterlimit="10" stroke-linejoin="miter" fill="none" stroke="#ffffff" d="M370.5 16V91"/>
<path transform="matrix(1,0,0,-1,0,91)" d="M370 75H371V0H370Z" fill="#ffffff"/>
<path stroke-width="1" stroke-linecap="butt" stroke-miterlimit="10" stroke-linejoin="miter" fill="none" stroke="#cecece" d="M.5 91V92"/>
<path transform="matrix(1,0,0,-1,0,91)" d="M0 0H1V-1H0Z" fill="#cecece"/>
<path stroke-width="1" stroke-linecap="butt" stroke-miterlimit="10" stroke-linejoin="miter" fill="none" stroke="#cecece" d="M26.5 91V92"/>
<path transform="matrix(1,0,0,-1,0,91)" d="M26 0H27V-1H26Z" fill="#cecece"/>
<path stroke-width="1" stroke-linecap="butt" stroke-miterlimit="10" stroke-linejoin="miter" fill="none" stroke="#cecece" d="M52.5 91V92"/>
<path transform="matrix(1,0,0,-1,0,91)" d="M52 0H53V-1H52Z" fill="#cecece"/>
<path stroke-width="1" stroke-linecap="butt" stroke-miterlimit="10" stroke-linejoin="miter" fill="none" stroke="#cecece" d="M78.5 91V92"/>
<path transform="matrix(1,0,0,-1,0,91)" d="M78 0H79V-1H78Z" fill="#cecece"/>
<path stroke-width="1" stroke-linecap="butt" stroke-miterlimit="10" stroke-linejoin="miter" fill="none" stroke="#cecece" d="M104.5 91V92"/>
<path transform="matrix(1,0,0,-1,0,91)" d="M104 0H105V-1H104Z" fill="#cecece"/>
<path stroke-width="1" stroke-linecap="butt" stroke-miterlimit="10" stroke-linejoin="miter" fill="none" stroke="#cecece" d="M130.5 91V92"/>
<path transform="matrix(1,0,0,-1,0,91)" d="M130 0H131V-1H130Z" fill="#cecece"/>
<path stroke-width="1" stroke-linecap="butt" stroke-miterlimit="10" stroke-linejoin="miter" fill="none" stroke="#cecece" d="M159.5 91V92"/>
<path transform="matrix(1,0,0,-1,0,91)" d="M159 0H160V-1H159Z" fill="#cecece"/>
<path stroke-width="1" stroke-linecap="butt" stroke-miterlimit="10" stroke-linejoin="miter" fill="none" stroke="#cecece" d="M185.5 91V92"/>
<path transform="matrix(1,0,0,-1,0,91)" d="M185 0H186V-1H185Z" fill="#cecece"/>
<path stroke-width="1" stroke-linecap="butt" stroke-miterlimit="10" stroke-linejoin="miter" fill="none" stroke="#cecece" d="M211.5 91V92"/>
<path transform="matrix(1,0,0,-1,0,91)" d="M211 0H212V-1H211Z" fill="#cecece"/>
<path stroke-width="1" stroke-linecap="butt" stroke-miterlimit="10" stroke-linejoin="miter" fill="none" stroke="#cecece" d="M237.5 91V92"/>
<path transform="matrix(1,0,0,-1,0,91)" d="M237 0H238V-1H237Z" fill="#cecece"/>
<path stroke-width="1" stroke-linecap="butt" stroke-miterlimit="10" stroke-linejoin="miter" fill="none" stroke="#cecece" d="M263.5 91V92"/>
<path transform="matrix(1,0,0,-1,0,91)" d="M263 0H264V-1H263Z" fill="#cecece"/>
<path stroke-width="1" stroke-linecap="butt" stroke-miterlimit="10" stroke-linejoin="miter" fill="none" stroke="#cecece" d="M289.5 91V92"/>
<path transform="matrix(1,0,0,-1,0,91)" d="M289 0H290V-1H289Z" fill="#cecece"/>
<path stroke-width="1" stroke-linecap="butt" stroke-miterlimit="10" stroke-linejoin="miter" fill="none" stroke="#cecece" d="M318.5 91V92"/>
<path transform="matrix(1,0,0,-1,0,91)" d="M318 0H319V-1H318Z" fill="#cecece"/>
<path stroke-width="1" stroke-linecap="butt" stroke-miterlimit="10" stroke-linejoin="miter" fill="none" stroke="#cecece" d="M344.5 91V92"/>
<path transform="matrix(1,0,0,-1,0,91)" d="M344 0H345V-1H344Z" fill="#cecece"/>
<path stroke-width="1" stroke-linecap="butt" stroke-miterlimit="10" stroke-linejoin="miter" fill="none" stroke="#cecece" d="M370.5 91V92"/>
<path transform="matrix(1,0,0,-1,0,91)" d="M370 0H371V-1H370Z" fill="#cecece"/>
<path stroke-width="1" stroke-linecap="butt" stroke-miterlimit="10" stroke-linejoin="miter" fill="none" stroke="#ffffff" d="M396.5-15V92"/>
<path transform="matrix(1,0,0,-1,0,91)" d="M396 106H397V-1H396Z" fill="#ffffff"/>
<path stroke-width="1" stroke-linecap="butt" stroke-miterlimit="10" stroke-linejoin="miter" fill="none" stroke="#ffffff" d="M1-14.5H398"/>
<path transform="matrix(1,0,0,-1,0,91)" d="M1 106H398V105H1Z" fill="#ffffff"/>
<path stroke-width="1" stroke-linecap="butt" stroke-miterlimit="10" stroke-linejoin="miter" fill="none" stroke="#ffffff" d="M1 .5H398"/>
<path transform="matrix(1,0,0,-1,0,91)" d="M1 91H398V90H1Z" fill="#ffffff"/>
<path stroke-width="1" stroke-linecap="butt" stroke-miterlimit="10" stroke-linejoin="miter" fill="none" stroke="#ffffff" d="M1 15.5H398"/>
<path transform="matrix(1,0,0,-1,0,91)" d="M1 76H398V75H1Z" fill="#ffffff"/>
<path stroke-width="1" stroke-linecap="butt" stroke-miterlimit="10" stroke-linejoin="miter" fill="none" stroke="#ffffff" d="M1 30.5H398"/>
<path transform="matrix(1,0,0,-1,0,91)" d="M1 61H398V60H1Z" fill="#ffffff"/>
<path stroke-width="1" stroke-linecap="butt" stroke-miterlimit="10" stroke-linejoin="miter" fill="none" stroke="#ffffff" d="M1 45.5H398"/>
<path transform="matrix(1,0,0,-1,0,91)" d="M1 46H398V45H1Z" fill="#ffffff"/>
<path stroke-width="1" stroke-linecap="butt" stroke-miterlimit="10" stroke-linejoin="miter" fill="none" stroke="#ffffff" d="M1 60.5H398"/>
<path transform="matrix(1,0,0,-1,0,91)" d="M1 31H398V30H1Z" fill="#ffffff"/>
<path stroke-width="1" stroke-linecap="butt" stroke-miterlimit="10" stroke-linejoin="miter" fill="none" stroke="#ffffff" d="M1 75.5H398"/>
<path transform="matrix(1,0,0,-1,0,91)" d="M1 16H398V15H1Z" fill="#ffffff"/>
<path stroke-width="1" stroke-linecap="butt" stroke-miterlimit="10" stroke-linejoin="miter" fill="none" stroke="#ffffff" d="M1 90.5H398"/>
<path transform="matrix(1,0,0,-1,0,91)" d="M1 1H398V0H1Z" fill="#ffffff"/>
</g>
</svg>
