<svg xmlns="http://www.w3.org/2000/svg" xmlns:xlink="http://www.w3.org/1999/xlink" version="1.1" width="651pt" height="196pt" viewBox="0 0 651 196">
<defs>
<clipPath id="clip_0">
<path transform="matrix(1,0,0,-1,0,196)" d="M0 0H651V196H0Z"/>
</clipPath>
<clipPath id="clip_1">
<path transform="matrix(1,0,0,-1,0,196)" d="M0 196H651V-.0000105215H0Z"/>
</clipPath>
<clipPath id="clip_2">
<path transform="matrix(1,0,0,-1,0,196)" d="M0 0H651V196H0Z"/>
</clipPath>
<clipPath id="clip_3">
<path transform="matrix(1,0,0,-1,0,196)" d="M0 196H651V-.0000105215H0Z"/>
</clipPath>
<clipPath id="clip_4">
<path transform="matrix(1,0,0,-1,0,196)" d="M1 48H196V79H1Z"/>
</clipPath>
<clipPath id="clip_5">
<path transform="matrix(1,0,0,-1,0,196)" d="M0 196H651V-.0000105215H0Z"/>
</clipPath>
<clipPath id="clip_6">
<path transform="matrix(1,0,0,-1,0,196)" d="M1 161H391V195H1Z"/>
</clipPath>
<clipPath id="clip_7">
<path transform="matrix(1,0,0,-1,0,196)" d="M0 196H651V-.0000105215H0Z"/>
</clipPath>
<clipPath id="clip_8">
<path transform="matrix(1,0,0,-1,0,196)" d="M391 161H651V195H391Z"/>
</clipPath>
<clipPath id="clip_9">
<path transform="matrix(1,0,0,-1,0,196)" d="M0 196H651V-.0000105215H0Z"/>
</clipPath>
<clipPath id="clip_10">
<path transform="matrix(1,0,0,-1,0,196)" d="M196 48H651V79H196Z"/>
</clipPath>
<clipPath id="clip_11">
<path transform="matrix(1,0,0,-1,0,196)" d="M0 196H651V-.0000105215H0Z"/>
</clipPath>
<clipPath id="clip_12">
<path transform="matrix(1,0,0,-1,0,196)" d="M0 0H651V196H0Z"/>
</clipPath>
</defs>
<g clip-path="url(#clip_0)">
<path transform="matrix(1,0,0,-1,0,196)" d="M0 196H651V0H0Z" fill="#ffffff" fill-opacity="0"/>
</g>
<g clip-path="url(#clip_1)">
<g clip-path="url(#clip_2)">
<path stroke-width="1" stroke-linecap="butt" stroke-miterlimit="10" stroke-linejoin="miter" fill="none" stroke="#cecece" d="M0 .5H651"/>
<path transform="matrix(1,0,0,-1,0,196)" d="M0 196H651V195H0Z" fill="#cecece"/>
<path stroke-width="1" stroke-linecap="butt" stroke-miterlimit="10" stroke-linejoin="miter" fill="none" stroke="#cecece" d="M.5 0V196"/>
<path transform="matrix(1,0,0,-1,0,196)" d="M0 196H1V0H0Z" fill="#cecece"/>
<path transform="matrix(1,0,0,-1,0,196)" d="M0 196H391V161H0Z" fill="#00b0f0"/>
<path transform="matrix(1,0,0,-1,0,196)" d="M390 196H651V161H390Z" fill="#00b050"/>
<path transform="matrix(1,0,0,-1,0,196)" d="M0 144H196V0H0Z" fill="#7030a0"/>
<path transform="matrix(1,0,0,-1,0,196)" d="M195 144H651V0H195Z" fill="#ffd966"/>
</g>
</g>
<g clip-path="url(#clip_3)">
<g clip-path="url(#clip_4)">
<text xml:space="preserve" transform="matrix(1 0 -0 1 30 141)" font-size="24" font-family="Calibri"><tspan y="0" x="0 11.028001 25.980002 37.6752 43.1016 54.1296 68.01601 81.048007 101.56801 113.28721 126.319217">SHY$FARMERS</tspan></text>
</g>
</g>
<g clip-path="url(#clip_5)">
<g clip-path="url(#clip_6)">
<text xml:space="preserve" transform="matrix(1 0 -0 1 116 28)" font-size="24" font-family="Calibri"><tspan y="0" x="0 11.028001 25.980002 37.6752 43.1016 53.191205 59.239206 72.2928 85.3248 99.211208 112.24321 118.291217 132.17761 147.66962">SHY$LIBRARIANS</tspan></text>
</g>
</g>
<g clip-path="url(#clip_7)">
<g clip-path="url(#clip_8)">
<text fill="#002060" xml:space="preserve" transform="matrix(1 0 -0 1 414 28)" font-size="24" font-family="Calibri"><tspan y="0" x="0 15.492001 31.3824 46.8744 54.2232 65.251209 80.20321 91.898418 97.32482 107.41442 113.46242 126.516017 139.54802 153.43442 166.46642 172.51442 186.40082 201.89282">NON-SHY$LIBRARIANS</tspan></text>
</g>
</g>
<g clip-path="url(#clip_9)">
<g clip-path="url(#clip_10)">
<text xml:space="preserve" transform="matrix(1 0 -0 1 327 141)" font-size="24" font-family="Calibri"><tspan y="0" x="0 15.492001 31.3824 46.8744 54.2232 65.251209 80.20321 91.898418 97.32482 108.35282 122.23923 135.27123 155.79123 167.51044 180.54244">NON-SHY$FARMERS</tspan></text>
</g>
</g>
<g clip-path="url(#clip_11)">
<g clip-path="url(#clip_12)">
<path transform="matrix(1,0,0,-1,0,196)" d="M-1 197H2V160H-1Z" fill="#f2f2f2"/>
<path transform="matrix(1,0,0,-1,0,196)" d="M649 194H652V160H649Z" fill="#f2f2f2"/>
<path transform="matrix(1,0,0,-1,0,196)" d="M-1 160H2V142H-1Z" fill="#ffffff"/>
<path transform="matrix(1,0,0,-1,0,196)" d="M649 160H652V142H649Z" fill="#ffffff"/>
<path transform="matrix(1,0,0,-1,0,196)" d="M64 160H67V142H64Z" fill="#ffffff"/>
<path transform="matrix(1,0,0,-1,0,196)" d="M129 160H132V142H129Z" fill="#ffffff"/>
<path transform="matrix(1,0,0,-1,0,196)" d="M194 160H197V142H194Z" fill="#ffffff"/>
<path transform="matrix(1,0,0,-1,0,196)" d="M259 160H262V142H259Z" fill="#ffffff"/>
<path transform="matrix(1,0,0,-1,0,196)" d="M324 160H327V142H324Z" fill="#ffffff"/>
<path transform="matrix(1,0,0,-1,0,196)" d="M389 160H392V142H389Z" fill="#ffffff"/>
<path transform="matrix(1,0,0,-1,0,196)" d="M454 160H457V142H454Z" fill="#ffffff"/>
<path transform="matrix(1,0,0,-1,0,196)" d="M519 160H522V142H519Z" fill="#ffffff"/>
<path transform="matrix(1,0,0,-1,0,196)" d="M584 160H587V142H584Z" fill="#ffffff"/>
<path stroke-width="1" stroke-linecap="butt" stroke-miterlimit="10" stroke-linejoin="miter" fill="none" stroke="#cecece" d="M.5 196V197"/>
<path transform="matrix(1,0,0,-1,0,196)" d="M0 0H1V-1H0Z" fill="#cecece"/>
<path stroke-width="1" stroke-linecap="butt" stroke-miterlimit="10" stroke-linejoin="miter" fill="none" stroke="#cecece" d="M65.5 196V197"/>
<path transform="matrix(1,0,0,-1,0,196)" d="M65 0H66V-1H65Z" fill="#cecece"/>
<path stroke-width="1" stroke-linecap="butt" stroke-miterlimit="10" stroke-linejoin="miter" fill="none" stroke="#cecece" d="M130.5 196V197"/>
<path transform="matrix(1,0,0,-1,0,196)" d="M130 0H131V-1H130Z" fill="#cecece"/>
<path stroke-width="1" stroke-linecap="butt" stroke-miterlimit="10" stroke-linejoin="miter" fill="none" stroke="#cecece" d="M195.5 196V197"/>
<path transform="matrix(1,0,0,-1,0,196)" d="M195 0H196V-1H195Z" fill="#cecece"/>
<path stroke-width="1" stroke-linecap="butt" stroke-miterlimit="10" stroke-linejoin="miter" fill="none" stroke="#cecece" d="M260.5 196V197"/>
<path transform="matrix(1,0,0,-1,0,196)" d="M260 0H261V-1H260Z" fill="#cecece"/>
<path stroke-width="1" stroke-linecap="butt" stroke-miterlimit="10" stroke-linejoin="miter" fill="none" stroke="#cecece" d="M325.5 196V197"/>
<path transform="matrix(1,0,0,-1,0,196)" d="M325 0H326V-1H325Z" fill="#cecece"/>
<path stroke-width="1" stroke-linecap="butt" stroke-miterlimit="10" stroke-linejoin="miter" fill="none" stroke="#cecece" d="M390.5 196V197"/>
<path transform="matrix(1,0,0,-1,0,196)" d="M390 0H391V-1H390Z" fill="#cecece"/>
<path stroke-width="1" stroke-linecap="butt" stroke-miterlimit="10" stroke-linejoin="miter" fill="none" stroke="#cecece" d="M455.5 196V197"/>
<path transform="matrix(1,0,0,-1,0,196)" d="M455 0H456V-1H455Z" fill="#cecece"/>
<path stroke-width="1" stroke-linecap="butt" stroke-miterlimit="10" stroke-linejoin="miter" fill="none" stroke="#cecece" d="M520.5 196V197"/>
<path transform="matrix(1,0,0,-1,0,196)" d="M520 0H521V-1H520Z" fill="#cecece"/>
<path stroke-width="1" stroke-linecap="butt" stroke-miterlimit="10" stroke-linejoin="miter" fill="none" stroke="#cecece" d="M585.5 196V197"/>
<path transform="matrix(1,0,0,-1,0,196)" d="M585 0H586V-1H585Z" fill="#cecece"/>
<path stroke-width="1" stroke-linecap="butt" stroke-miterlimit="10" stroke-linejoin="miter" fill="none" stroke="#cecece" d="M650.5 196V197"/>
<path transform="matrix(1,0,0,-1,0,196)" d="M650 0H651V-1H650Z" fill="#cecece"/>
<path transform="matrix(1,0,0,-1,0,196)" d="M2 197H652V194H2Z" fill="#f2f2f2"/>
<path transform="matrix(1,0,0,-1,0,196)" d="M2 163H649V160H2Z" fill="#ffffff"/>
<path transform="matrix(1,0,0,-1,0,196)" d="M2 145H652V142H2Z" fill="#ffffff"/>
<path stroke-width="1" stroke-linecap="butt" stroke-miterlimit="10" stroke-linejoin="miter" fill="none" stroke="#cecece" d="M651 68.5H652"/>
<path transform="matrix(1,0,0,-1,0,196)" d="M651 128H652V127H651Z" fill="#cecece"/>
<path stroke-width="1" stroke-linecap="butt" stroke-miterlimit="10" stroke-linejoin="miter" fill="none" stroke="#cecece" d="M651 84.5H652"/>
<path transform="matrix(1,0,0,-1,0,196)" d="M651 112H652V111H651Z" fill="#cecece"/>
<path stroke-width="1" stroke-linecap="butt" stroke-miterlimit="10" stroke-linejoin="miter" fill="none" stroke="#cecece" d="M651 100.5H652"/>
<path transform="matrix(1,0,0,-1,0,196)" d="M651 96H652V95H651Z" fill="#cecece"/>
<path stroke-width="1" stroke-linecap="butt" stroke-miterlimit="10" stroke-linejoin="miter" fill="none" stroke="#cecece" d="M651 116.5H652"/>
<path transform="matrix(1,0,0,-1,0,196)" d="M651 80H652V79H651Z" fill="#cecece"/>
<path stroke-width="1" stroke-linecap="butt" stroke-miterlimit="10" stroke-linejoin="miter" fill="none" stroke="#cecece" d="M651 147.5H652"/>
<path transform="matrix(1,0,0,-1,0,196)" d="M651 49H652V48H651Z" fill="#cecece"/>
<path stroke-width="1" stroke-linecap="butt" stroke-miterlimit="10" stroke-linejoin="miter" fill="none" stroke="#cecece" d="M651 163.5H652"/>
<path transform="matrix(1,0,0,-1,0,196)" d="M651 33H652V32H651Z" fill="#cecece"/>
<path stroke-width="1" stroke-linecap="butt" stroke-miterlimit="10" stroke-linejoin="miter" fill="none" stroke="#cecece" d="M651 179.5H652"/>
<path transform="matrix(1,0,0,-1,0,196)" d="M651 17H652V16H651Z" fill="#cecece"/>
<path stroke-width="1" stroke-linecap="butt" stroke-miterlimit="10" stroke-linejoin="miter" fill="none" stroke="#cecece" d="M651 195.5H652"/>
<path transform="matrix(1,0,0,-1,0,196)" d="M651 1H652V0H651Z" fill="#cecece"/>
</g>
</g>
</svg>
