<svg xmlns="http://www.w3.org/2000/svg" xmlns:xlink="http://www.w3.org/1999/xlink" version="1.1" width="220pt" height="128pt" viewBox="0 0 220 128">
<defs>
<clipPath id="clip_0">
<path d="M0 0H220V127.97386H0Z" fill-rule="evenodd"/>
</clipPath>
<clipPath id="clip_1">
<path d="M0 0H220V127.254909H0Z" fill-rule="evenodd"/>
</clipPath>
<clipPath id="clip_2">
<path d="M220 72.973857H.0000000000009094947L0 82.32026H220V72.973857Z" fill-rule="evenodd"/>
</clipPath>
<clipPath id="clip_3">
<path d="M220 69.37908H-.0000000000009094947L0 82.32026H220V69.37908Z" fill-rule="evenodd"/>
</clipPath>
<clipPath id="clip_4">
<path d="M0 0H220V127.97386H0Z" fill-rule="evenodd"/>
</clipPath>
<clipPath id="clip_5">
<path d="M220 90.86346H-.0000000000009094947L0 103.804637H220V90.86346Z" fill-rule="evenodd"/>
</clipPath>
<clipPath id="clip_6">
<path d="M220 90.86346H-.0000000000009094947L0 106.68045H220V90.86346Z" fill-rule="evenodd"/>
</clipPath>
<clipPath id="clip_7">
<path d="M0 0H220V127.97386H0Z" fill-rule="evenodd"/>
</clipPath>
<clipPath id="clip_8">
<path d="M0 120.188938H220V127.97386H0Z" fill-rule="evenodd"/>
</clipPath>
<clipPath id="clip_9">
<path d="M220 120.188938H-.0000000000009094947L0 127.97386H220V120.188938Z" fill-rule="evenodd"/>
</clipPath>
<clipPath id="clip_10">
<path d="M0 0H220V127.97386H0Z" fill-rule="evenodd"/>
</clipPath>
<clipPath id="clip_11">
<path d="M220 23.130108H.0000000000009094947L0 36.071287H220V23.130108Z" fill-rule="evenodd"/>
</clipPath>
<clipPath id="clip_12">
<path d="M220 23.130108H.0000000000018189895L0 38.22815H220V23.130108Z" fill-rule="evenodd"/>
</clipPath>
<clipPath id="clip_13">
<path d="M0 0H220V127.97386H0Z" fill-rule="evenodd"/>
</clipPath>
<clipPath id="clip_14">
<path d="M220 67.22223H.0000000000009094947L0 75.84967H220V67.22223Z" fill-rule="evenodd"/>
</clipPath>
<clipPath id="clip_15">
<path d="M0 67.22223H220V77.28758H0Z" fill-rule="evenodd"/>
</clipPath>
<clipPath id="clip_16">
<path d="M0 0H220V127.97386H0Z" fill-rule="evenodd"/>
</clipPath>
<clipPath id="clip_17">
<path d="M0 64.346408H220V73.69281H0Z" fill-rule="evenodd"/>
</clipPath>
<clipPath id="clip_18">
<path d="M220 64.346408H.0000000000009094947L0 74.411769H220V64.346408Z" fill-rule="evenodd"/>
</clipPath>
<clipPath id="clip_19">
<path d="M220 38.464056H-.0000000000009094947L0 51.40523H220V38.464056Z" fill-rule="evenodd"/>
</clipPath>
<clipPath id="clip_20">
<path d="M0 0H220V127.97386H0Z" fill-rule="evenodd"/>
</clipPath>
<clipPath id="clip_21">
<path d="M0 34.86928H220V43.49673H0Z" fill-rule="evenodd"/>
</clipPath>
<clipPath id="clip_22">
<path d="M220 34.86928H.0000000000018189895L0 44.93464H220V34.86928Z" fill-rule="evenodd"/>
</clipPath>
</defs>
<g clip-path="url(#clip_0)">
<path transform="matrix(.71895429,0,0,.71895429,0,0)" d="M0 0H306V185H0Z" fill="#ffffff"/>
</g>
<g clip-path="url(#clip_1)">
<path transform="matrix(.71895429,0,0,.71895429,.35947714,.35947714)" d="M127 90H153C156.3137 90 159.14212 91.17157 161.48526 93.51472 163.82842 95.857868 164.99999 98.68629 165 102V108C164.99999 111.313709 163.82842 114.14213 161.48526 116.485279 159.14212 118.82842 156.3137 119.99999 153 120H127C123.68629 119.99999 120.85786 118.82842 118.51471 116.485279 116.17156 114.14213 114.99999 111.313709 115 108V102C114.99999 98.68629 116.17156 95.857868 118.51471 93.51472 120.85786 91.17157 123.68629 90 127 90Z" fill="#ffffff"/>
<path transform="matrix(.71895429,0,0,.71895429,.35947714,.35947714)" stroke-width="1" stroke-linecap="butt" stroke-miterlimit="4" stroke-linejoin="miter" fill="none" stroke="#000000" d="M127 90H153C156.3137 90 159.14212 91.17157 161.48526 93.51472 163.82842 95.857868 164.99999 98.68629 165 102V108C164.99999 111.313709 163.82842 114.14213 161.48526 116.485279 159.14212 118.82842 156.3137 119.99999 153 120H127C123.68629 119.99999 120.85786 118.82842 118.51471 116.485279 116.17156 114.14213 114.99999 111.313709 115 108V102C114.99999 98.68629 116.17156 95.857868 118.51471 93.51472 120.85786 91.17157 123.68629 90 127 90Z"/>
<path transform="matrix(.71895429,0,0,.71895429,.35947714,.35947714)" d="M255 90H281C284.3137 90 287.14213 91.17157 289.48527 93.51472 291.8284 95.857868 292.99998 98.68629 293 102V108C292.99998 111.313709 291.8284 114.14213 289.48527 116.485279 287.14213 118.82842 284.3137 119.99999 281 120H255C251.6863 119.99999 248.85787 118.82842 246.51471 116.485279 244.17157 114.14213 243 111.313709 243 108V102C243 98.68629 244.17157 95.857868 246.51471 93.51472 248.85787 91.17157 251.6863 90 255 90Z" fill="#ffffff"/>
<path transform="matrix(.71895429,0,0,.71895429,.35947714,.35947714)" stroke-width="1" stroke-linecap="butt" stroke-miterlimit="4" stroke-linejoin="miter" fill="none" stroke="#000000" d="M255 90H281C284.3137 90 287.14213 91.17157 289.48527 93.51472 291.8284 95.857868 292.99998 98.68629 293 102V108C292.99998 111.313709 291.8284 114.14213 289.48527 116.485279 287.14213 118.82842 284.3137 119.99999 281 120H255C251.6863 119.99999 248.85787 118.82842 246.51471 116.485279 244.17157 114.14213 243 111.313709 243 108V102C243 98.68629 244.17157 95.857868 246.51471 93.51472 248.85787 91.17157 251.6863 90 255 90Z"/>
<path transform="matrix(.71895429,0,0,.71895429,.35947714,.35947714)" stroke-width="1" stroke-linecap="butt" stroke-miterlimit="10" stroke-linejoin="miter" fill="none" stroke="#000000" d="M21 126V105H65.63"/>
<path transform="matrix(.71895429,0,0,.71895429,.35947714,.35947714)" d="M70.88 105 63.88 108.5 65.63 105 63.88 101.5 70.88 105Z"/>
<path transform="matrix(.71895429,0,0,.71895429,.35947714,.35947714)" stroke-width="1" stroke-linecap="butt" stroke-miterlimit="10" stroke-linejoin="miter" fill="none" stroke="#000000" d="M70.88 105 63.88 108.5 65.63 105 63.88 101.5 70.88 105Z"/>
<path transform="matrix(.71895429,0,0,.71895429,.35947714,.35947714)" stroke-width="1" stroke-linecap="butt" stroke-miterlimit="10" stroke-linejoin="miter" fill="none" stroke="#000000" d="M62 156V148.5C62 143.5 65.333339 141 72 141H130C136.66667 141 140 138.56 140 133.68V126.37"/>
<path transform="matrix(.71895429,0,0,.71895429,.35947714,.35947714)" d="M140 121.12 143.5 128.12 140 126.37 136.5 128.12 140 121.12Z"/>
<path transform="matrix(.71895429,0,0,.71895429,.35947714,.35947714)" stroke-width="1" stroke-linecap="butt" stroke-miterlimit="10" stroke-linejoin="miter" fill="none" stroke="#000000" d="M140 121.12 143.5 128.12 140 126.37 136.5 128.12 140 121.12Z"/>
<path transform="matrix(.71895429,0,0,.71895429,.35947714,.35947714)" stroke-width="1" stroke-linecap="butt" stroke-miterlimit="10" stroke-linejoin="miter" fill="none" stroke="#000000" d="M41 141H258C264.66667 141 268 138.56 268 133.68V126.37"/>
<path transform="matrix(.71895429,0,0,.71895429,.35947714,.35947714)" d="M268 121.12 271.5 128.12 268 126.37 264.5 128.12 268 121.12Z"/>
<path transform="matrix(.71895429,0,0,.71895429,.35947714,.35947714)" stroke-width="1" stroke-linecap="butt" stroke-miterlimit="10" stroke-linejoin="miter" fill="none" stroke="#000000" d="M268 121.12 271.5 128.12 268 126.37 264.5 128.12 268 121.12Z"/>
<path transform="matrix(.71895429,0,0,.71895429,.35947714,.35947714)" stroke-width="1" stroke-linecap="butt" stroke-miterlimit="10" stroke-linejoin="miter" fill="none" stroke="#000000" d="M202 41H258.63"/>
<path transform="matrix(.71895429,0,0,.71895429,.35947714,.35947714)" d="M263.88 41 256.88 44.5 258.63 41 256.88 37.5 263.88 41Z"/>
<path transform="matrix(.71895429,0,0,.71895429,.35947714,.35947714)" stroke-width="1" stroke-linecap="butt" stroke-miterlimit="10" stroke-linejoin="miter" fill="none" stroke="#000000" d="M263.88 41 256.88 44.5 258.63 41 256.88 37.5 263.88 41Z"/>
<path transform="matrix(.71895429,0,0,.71895429,.35947714,.35947714)" stroke-width="1" stroke-linecap="butt" stroke-miterlimit="10" stroke-linejoin="miter" fill="none" stroke="#000000" d="M192 95V57.37"/>
<path transform="matrix(.71895429,0,0,.71895429,.35947714,.35947714)" d="M192 52.12 195.5 59.12 192 57.37 188.5 59.12 192 52.12Z"/>
<path transform="matrix(.71895429,0,0,.71895429,.35947714,.35947714)" stroke-width="1" stroke-linecap="butt" stroke-miterlimit="10" stroke-linejoin="miter" fill="none" stroke="#000000" d="M192 52.12 195.5 59.12 192 57.37 188.5 59.12 192 52.12Z"/>
<path transform="matrix(.71895429,0,0,.71895429,.35947714,.35947714)" d="M202 105C201.99999 107.76142 201.02368 110.11844 199.07106 112.07106 197.11844 114.02368 194.76142 114.99999 192 115 189.23857 114.99999 186.88153 114.02368 184.92891 112.07106 182.97629 110.11844 181.99999 107.76142 182 105 181.99999 102.23857 182.97629 99.881549 184.92891 97.928928 186.88153 95.97631 189.23857 95 192 95 194.76142 95 197.11844 95.97631 199.07106 97.928928 201.02368 99.881549 201.99999 102.23857 202 105Z" fill="#ffffff"/>
<path transform="matrix(.71895429,0,0,.71895429,.35947714,.35947714)" stroke-width="1" stroke-linecap="butt" stroke-miterlimit="4" stroke-linejoin="miter" fill="none" stroke="#000000" d="M202 105C201.99999 107.76142 201.02368 110.11844 199.07106 112.07106 197.11844 114.02368 194.76142 114.99999 192 115 189.23857 114.99999 186.88153 114.02368 184.92891 112.07106 182.97629 110.11844 181.99999 107.76142 182 105 181.99999 102.23857 182.97629 99.881549 184.92891 97.928928 186.88153 95.97631 189.23857 95 192 95 194.76142 95 197.11844 95.97631 199.07106 97.928928 201.02368 99.881549 201.99999 102.23857 202 105Z"/>
<path transform="matrix(.71895429,0,0,.71895429,.35947714,.35947714)" stroke-width="1" stroke-linecap="butt" stroke-miterlimit="10" stroke-linejoin="miter" fill="none" stroke="#000000" d="M184.9 97.9 199.1 112.1"/>
<path transform="matrix(.71895429,0,0,.71895429,.35947714,.35947714)" stroke-width="1" stroke-linecap="butt" stroke-miterlimit="10" stroke-linejoin="miter" fill="none" stroke="#000000" d="M199.1 97.9 184.9 112.1"/>
<path transform="matrix(.71895429,0,0,.71895429,.35947714,.35947714)" stroke-width="1" stroke-linecap="butt" stroke-miterlimit="10" stroke-linejoin="miter" fill="none" stroke="#000000" d="M243 105H208.37"/>
<path transform="matrix(.71895429,0,0,.71895429,.35947714,.35947714)" d="M203.12 105 210.12 101.5 208.37 105 210.12 108.5 203.12 105Z"/>
<path transform="matrix(.71895429,0,0,.71895429,.35947714,.35947714)" stroke-width="1" stroke-linecap="butt" stroke-miterlimit="10" stroke-linejoin="miter" fill="none" stroke="#000000" d="M203.12 105 210.12 101.5 208.37 105 210.12 108.5 203.12 105Z"/>
<path transform="matrix(.71895429,0,0,.71895429,.35947714,.35947714)" stroke-width="1" stroke-linecap="butt" stroke-miterlimit="10" stroke-linejoin="miter" fill="none" stroke="#000000" d="M115 105H98.37"/>
<path transform="matrix(.71895429,0,0,.71895429,.35947714,.35947714)" d="M93.12 105 100.12 101.5 98.37 105 100.12 108.5 93.12 105Z"/>
<path transform="matrix(.71895429,0,0,.71895429,.35947714,.35947714)" stroke-width="1" stroke-linecap="butt" stroke-miterlimit="10" stroke-linejoin="miter" fill="none" stroke="#000000" d="M93.12 105 100.12 101.5 98.37 105 100.12 108.5 93.12 105Z"/>
<path transform="matrix(.71895429,0,0,.71895429,.35947714,.35947714)" d="M202 41C201.99999 43.76142 201.02368 46.118444 199.07106 48.071065 197.11844 50.023687 194.76142 50.999998 192 51 189.23857 50.999998 186.88153 50.023687 184.92891 48.071065 182.97629 46.118444 181.99999 43.76142 182 41 181.99999 38.238576 182.97629 35.881555 184.92891 33.928934 186.88153 31.97631 189.23857 31 192 31 194.76142 31 197.11844 31.97631 199.07106 33.928934 201.02368 35.881555 201.99999 38.238576 202 41Z" fill="#ffffff"/>
<path transform="matrix(.71895429,0,0,.71895429,.35947714,.35947714)" stroke-width="1" stroke-linecap="butt" stroke-miterlimit="4" stroke-linejoin="miter" fill="none" stroke="#000000" d="M202 41C201.99999 43.76142 201.02368 46.118444 199.07106 48.071065 197.11844 50.023687 194.76142 50.999998 192 51 189.23857 50.999998 186.88153 50.023687 184.92891 48.071065 182.97629 46.118444 181.99999 43.76142 182 41 181.99999 38.238576 182.97629 35.881555 184.92891 33.928934 186.88153 31.97631 189.23857 31 192 31 194.76142 31 197.11844 31.97631 199.07106 33.928934 201.02368 35.881555 201.99999 38.238576 202 41Z"/>
<path transform="matrix(.71895429,0,0,.71895429,.35947714,.35947714)" stroke-width="1" stroke-linecap="butt" stroke-miterlimit="10" stroke-linejoin="miter" fill="none" stroke="#000000" d="M182 41H202"/>
<path transform="matrix(.71895429,0,0,.71895429,.35947714,.35947714)" stroke-width="1" stroke-linecap="butt" stroke-miterlimit="10" stroke-linejoin="miter" fill="none" stroke="#000000" d="M192 31V51"/>
<path transform="matrix(.71895429,0,0,.71895429,.35947714,.35947714)" stroke-width="1" stroke-linecap="butt" stroke-miterlimit="10" stroke-linejoin="miter" fill="none" stroke="#000000" d="M224 87V77H182V62H166.37"/>
<path transform="matrix(.71895429,0,0,.71895429,.35947714,.35947714)" d="M161.12 62 168.12 58.5 166.37 62 168.12 65.5 161.12 62Z"/>
<path transform="matrix(.71895429,0,0,.71895429,.35947714,.35947714)" stroke-width="1" stroke-linecap="butt" stroke-miterlimit="10" stroke-linejoin="miter" fill="none" stroke="#000000" d="M161.12 62 168.12 58.5 166.37 62 168.12 65.5 161.12 62Z"/>
<path transform="matrix(.71895429,0,0,.71895429,.35947714,.35947714)" stroke-width="1" stroke-linecap="butt" stroke-miterlimit="10" stroke-linejoin="miter" fill="none" stroke="#000000" d="M82 95H81V83.37"/>
<path transform="matrix(.71895429,0,0,.71895429,.35947714,.35947714)" d="M81 78.12 84.5 85.12 81 83.37 77.5 85.12 81 78.12Z"/>
<path transform="matrix(.71895429,0,0,.71895429,.35947714,.35947714)" stroke-width="1" stroke-linecap="butt" stroke-miterlimit="10" stroke-linejoin="miter" fill="none" stroke="#000000" d="M81 78.12 84.5 85.12 81 83.37 77.5 85.12 81 78.12Z"/>
<path transform="matrix(.71895429,0,0,.71895429,.35947714,.35947714)" d="M92 105C92 107.76142 91.02369 110.11844 89.07107 112.07106 87.11845 114.02368 84.76142 114.99999 82 115 79.23857 114.99999 76.881549 114.02368 74.928928 112.07106 72.9763 110.11844 71.99999 107.76142 72 105 71.99999 102.23857 72.9763 99.881549 74.928928 97.928928 76.881549 95.97631 79.23857 95 82 95 84.76142 95 87.11845 95.97631 89.07107 97.928928 91.02369 99.881549 92 102.23857 92 105Z" fill="#ffffff"/>
<path transform="matrix(.71895429,0,0,.71895429,.35947714,.35947714)" stroke-width="1" stroke-linecap="butt" stroke-miterlimit="4" stroke-linejoin="miter" fill="none" stroke="#000000" d="M92 105C92 107.76142 91.02369 110.11844 89.07107 112.07106 87.11845 114.02368 84.76142 114.99999 82 115 79.23857 114.99999 76.881549 114.02368 74.928928 112.07106 72.9763 110.11844 71.99999 107.76142 72 105 71.99999 102.23857 72.9763 99.881549 74.928928 97.928928 76.881549 95.97631 79.23857 95 82 95 84.76142 95 87.11845 95.97631 89.07107 97.928928 91.02369 99.881549 92 102.23857 92 105Z"/>
<path transform="matrix(.71895429,0,0,.71895429,.35947714,.35947714)" stroke-width="1" stroke-linecap="butt" stroke-miterlimit="10" stroke-linejoin="miter" fill="none" stroke="#000000" d="M74.9 97.9 89.1 112.1"/>
<path transform="matrix(.71895429,0,0,.71895429,.35947714,.35947714)" stroke-width="1" stroke-linecap="butt" stroke-miterlimit="10" stroke-linejoin="miter" fill="none" stroke="#000000" d="M89.1 97.9 74.9 112.1"/>
<path transform="matrix(.71895429,0,0,.71895429,.35947714,.35947714)" stroke-width="1" stroke-linecap="butt" stroke-miterlimit="10" stroke-linejoin="miter" fill="none" stroke="#000000" d="M62 156V131C62 124.333339 58.666669 121 52 121H43.5C37.833333 121 35 117.666667 35 111V71C35 64.333339 37.273336 61 41.82 61H48.63"/>
<path transform="matrix(.71895429,0,0,.71895429,.35947714,.35947714)" d="M53.88 61 46.88 64.5 48.63 61 46.88 57.5 53.88 61Z"/>
<path transform="matrix(.71895429,0,0,.71895429,.35947714,.35947714)" stroke-width="1" stroke-linecap="butt" stroke-miterlimit="10" stroke-linejoin="miter" fill="none" stroke="#000000" d="M53.88 61 46.88 64.5 48.63 61 46.88 57.5 53.88 61Z"/>
<path transform="matrix(.71895429,0,0,.71895429,.35947714,.35947714)" stroke-width="1" stroke-linecap="butt" stroke-miterlimit="10" stroke-linejoin="miter" fill="none" stroke="#000000" d="M105 62H125 120 133.63"/>
<path transform="matrix(.71895429,0,0,.71895429,.35947714,.35947714)" d="M138.88 62 131.88 65.5 133.63 62 131.88 58.5 138.88 62Z"/>
<path transform="matrix(.71895429,0,0,.71895429,.35947714,.35947714)" stroke-width="1" stroke-linecap="butt" stroke-miterlimit="10" stroke-linejoin="miter" fill="none" stroke="#000000" d="M138.88 62 131.88 65.5 133.63 62 131.88 58.5 138.88 62Z"/>
<path transform="matrix(.71895429,0,0,.71895429,.35947714,.35947714)" d="M72 47H90C94.142139 47 97.677669 48.464468 100.6066 51.393396 103.53553 54.322328 104.99999 57.85786 105 62 104.99999 66.14213 103.53553 69.677669 100.6066 72.6066 97.677669 75.53553 94.142139 76.99999 90 77H72C67.85786 76.99999 64.32233 75.53553 61.393396 72.6066 58.464464 69.677669 56.999998 66.14213 57 62 56.999998 57.85786 58.464464 54.322328 61.393396 51.393396 64.32233 48.464468 67.85786 47 72 47Z" fill="#ffffff"/>
<path transform="matrix(.71895429,0,0,.71895429,.35947714,.35947714)" stroke-width="1" stroke-linecap="butt" stroke-miterlimit="4" stroke-linejoin="miter" fill="none" stroke="#000000" d="M72 47H90C94.142139 47 97.677669 48.464468 100.6066 51.393396 103.53553 54.322328 104.99999 57.85786 105 62 104.99999 66.14213 103.53553 69.677669 100.6066 72.6066 97.677669 75.53553 94.142139 76.99999 90 77H72C67.85786 76.99999 64.32233 75.53553 61.393396 72.6066 58.464464 69.677669 56.999998 66.14213 57 62 56.999998 57.85786 58.464464 54.322328 61.393396 51.393396 64.32233 48.464468 67.85786 47 72 47Z"/>
<path transform="matrix(.71895429,0,0,.71895429,.35947714,.35947714)" stroke-width="1" stroke-linecap="butt" stroke-miterlimit="10" stroke-linejoin="miter" fill="none" stroke="#000000" d="M41 131H182C188.66667 131 192 129.39334 192 126.18V121.37"/>
<path transform="matrix(.71895429,0,0,.71895429,.35947714,.35947714)" d="M192 116.12 195.5 123.12 192 121.37 188.5 123.12 192 116.12Z"/>
<path transform="matrix(.71895429,0,0,.71895429,.35947714,.35947714)" stroke-width="1" stroke-linecap="butt" stroke-miterlimit="10" stroke-linejoin="miter" fill="none" stroke="#000000" d="M192 116.12 195.5 123.12 192 121.37 188.5 123.12 192 116.12Z"/>
<path transform="matrix(.71895429,0,0,.71895429,.35947714,.35947714)" stroke-width="1" stroke-linecap="butt" stroke-miterlimit="10" stroke-linejoin="miter" fill="none" stroke="#000000" d="M150 52V41H175.63"/>
<path transform="matrix(.71895429,0,0,.71895429,.35947714,.35947714)" d="M180.88 41 173.88 44.5 175.63 41 173.88 37.5 180.88 41Z"/>
<path transform="matrix(.71895429,0,0,.71895429,.35947714,.35947714)" stroke-width="1" stroke-linecap="butt" stroke-miterlimit="10" stroke-linejoin="miter" fill="none" stroke="#000000" d="M180.88 41 173.88 44.5 175.63 41 173.88 37.5 180.88 41Z"/>
<path transform="matrix(.71895429,0,0,.71895429,.35947714,.35947714)" d="M160 62C159.99999 64.76142 159.02368 67.11844 157.07106 69.07106 155.11844 71.02368 152.76142 71.99999 150 72 147.23857 71.99999 144.88155 71.02368 142.92893 69.07106 140.9763 67.11844 139.99999 64.76142 140 62 139.99999 59.23857 140.9763 56.881547 142.92893 54.928926 144.88155 52.976308 147.23857 52 150 52 152.76142 52 155.11844 52.976308 157.07106 54.928926 159.02368 56.881547 159.99999 59.23857 160 62Z" fill="#ffffff"/>
<path transform="matrix(.71895429,0,0,.71895429,.35947714,.35947714)" stroke-width="1" stroke-linecap="butt" stroke-miterlimit="4" stroke-linejoin="miter" fill="none" stroke="#000000" d="M160 62C159.99999 64.76142 159.02368 67.11844 157.07106 69.07106 155.11844 71.02368 152.76142 71.99999 150 72 147.23857 71.99999 144.88155 71.02368 142.92893 69.07106 140.9763 67.11844 139.99999 64.76142 140 62 139.99999 59.23857 140.9763 56.881547 142.92893 54.928926 144.88155 52.976308 147.23857 52 150 52 152.76142 52 155.11844 52.976308 157.07106 54.928926 159.02368 56.881547 159.99999 59.23857 160 62Z"/>
<path transform="matrix(.71895429,0,0,.71895429,.35947714,.35947714)" stroke-width="1" stroke-linecap="butt" stroke-miterlimit="10" stroke-linejoin="miter" fill="none" stroke="#000000" d="M142.9 54.9 157.1 69.1"/>
<path transform="matrix(.71895429,0,0,.71895429,.35947714,.35947714)" stroke-width="1" stroke-linecap="butt" stroke-miterlimit="10" stroke-linejoin="miter" fill="none" stroke="#000000" d="M157.1 54.9 142.9 69.1"/>
</g>
<g clip-path="url(#clip_2)">
<text xml:space="preserve" transform="matrix(.71895429 0 0 .71895429 83.039218 70.81699)" font-size="16.94" font-family="Unnamed"><tspan y="13" x="20.4375">&#x03c3;</tspan></text>
</g>
<g clip-path="url(#clip_3)">
<text xml:space="preserve" transform="matrix(.71895429 0 0 .71895429 177.22223 70.81699)" font-size="16.94" font-family="Unnamed"><tspan y="13" x="7.515625 12.394348 19.915696 28.385682">tanh</tspan></text>
</g>
<g clip-path="url(#clip_4)">
<text xml:space="preserve" transform="matrix(.71895429 0 0 .71895429 1.7973857 92.30137)" font-size="12" font-family="Helvetica"><tspan y="13" x="32.65625"> </tspan></text>
</g>
<g clip-path="url(#clip_5)">
<text xml:space="preserve" transform="matrix(.71895429 0 0 .71895429 1.7973857 92.30137)" font-size="16.94" font-family="Unnamed"><tspan y="13" x="5.34375">h</tspan></text>
</g>
<g clip-path="url(#clip_6)">
<text xml:space="preserve" transform="matrix(.71895429 0 0 .71895429 1.7973857 92.30137)" font-size="11.97" font-family="Unnamed"><tspan y="16" x="13.8125">t</tspan></text>
<text xml:space="preserve" transform="matrix(.71895429 0 0 .71895429 1.7973857 92.30137)" font-size="11.97" font-family="Unnamed"><tspan y="16" x="17.265625">&#x2212;</tspan></text>
<text xml:space="preserve" transform="matrix(.71895429 0 0 .71895429 1.7973857 92.30137)" font-size="11.97" font-family="Unnamed"><tspan y="16" x="25.453125">1</tspan></text>
</g>
<g clip-path="url(#clip_7)">
<text xml:space="preserve" transform="matrix(.71895429 0 0 .71895429 33.79085 110.84253)" font-size="12" font-family="Helvetica"><tspan y="23" x="21.703125"> </tspan></text>
</g>
<g clip-path="url(#clip_8)">
<text xml:space="preserve" transform="matrix(.71895429 0 0 .71895429 33.79085 110.84253)" font-size="16.94" font-family="Unnamed"><tspan y="23" x="9.28125">x</tspan></text>
</g>
<g clip-path="url(#clip_9)">
<text xml:space="preserve" transform="matrix(.71895429 0 0 .71895429 33.79085 110.84253)" font-size="11.97" font-family="Unnamed"><tspan y="26" x="16.796875">t</tspan></text>
</g>
<g clip-path="url(#clip_10)">
<text xml:space="preserve" transform="matrix(.71895429 0 0 .71895429 193.75818 24.568017)" font-size="12" font-family="Helvetica"><tspan y="13" x="22.625"> </tspan></text>
</g>
<g clip-path="url(#clip_11)">
<text xml:space="preserve" transform="matrix(.71895429 0 0 .71895429 193.75818 24.568017)" font-size="16.94" font-family="Unnamed"><tspan y="13" x="9.375">h</tspan></text>
</g>
<g clip-path="url(#clip_12)">
<text xml:space="preserve" transform="matrix(.71895429 0 0 .71895429 193.75818 24.568017)" font-size="11.97" font-family="Unnamed"><tspan y="16" x="17.84375">t</tspan></text>
</g>
<g clip-path="url(#clip_13)">
<text xml:space="preserve" transform="matrix(.71895429 0 0 .71895429 69.73856 33.431375)" font-size="60" font-family="Helvetica"><tspan y="56" x="17.46875"> </tspan></text>
</g>
<g clip-path="url(#clip_14)">
<text xml:space="preserve" transform="matrix(.71895429 0 0 .71895429 69.73856 33.431375)" font-size="14.52" font-family="Unnamed"><tspan y="56" x="7.515625">r</tspan></text>
</g>
<g clip-path="url(#clip_15)">
<text xml:space="preserve" transform="matrix(.71895429 0 0 .71895429 69.73856 33.431375)" font-size="10.26" font-family="Unnamed"><tspan y="58" x="13.15625">t</tspan></text>
</g>
<g clip-path="url(#clip_16)">
<text xml:space="preserve" transform="matrix(.71895429 0 0 .71895429 151.69936 30.555556)" font-size="60" font-family="Helvetica"><tspan y="56" x="18.46875"> </tspan></text>
</g>
<g clip-path="url(#clip_17)">
<text xml:space="preserve" transform="matrix(.71895429 0 0 .71895429 151.69936 30.555556)" font-size="14.52" font-family="Unnamed"><tspan y="56" x="8.515625">z</tspan></text>
</g>
<g clip-path="url(#clip_18)">
<text xml:space="preserve" transform="matrix(.71895429 0 0 .71895429 151.69936 30.555556)" font-size="10.26" font-family="Unnamed"><tspan y="58" x="14.15625">t</tspan></text>
</g>
<g clip-path="url(#clip_19)">
<text xml:space="preserve" transform="matrix(.71895429 0 0 .71895429 42.77778 39.901964)" font-size="16.94" font-family="Unnamed"><tspan y="13" x="7.515625 12.394348 19.915696 28.385682">tanh</tspan></text>
</g>
<g clip-path="url(#clip_20)">
<text xml:space="preserve" transform="matrix(.71895429 0 0 .71895429 75.84968 1.0784314)" font-size="60" font-family="Helvetica"><tspan y="56" x="19.796875"> </tspan></text>
</g>
<g clip-path="url(#clip_21)">
<text xml:space="preserve" transform="matrix(.71895429 0 0 .71895429 75.84968 1.0784314)" font-size="14.52" font-family="Unnamed"><tspan y="56" x="8.1875">n</tspan></text>
</g>
<g clip-path="url(#clip_22)">
<text xml:space="preserve" transform="matrix(.71895429 0 0 .71895429 75.84968 1.0784314)" font-size="10.26" font-family="Unnamed"><tspan y="58" x="15.4375">t</tspan></text>
</g>
</svg>
