<svg xmlns="http://www.w3.org/2000/svg" xmlns:xlink="http://www.w3.org/1999/xlink" version="1.1" width="462pt" height="144pt" viewBox="0 0 462 144">
<defs>
<clipPath id="clip_0">
<path transform="matrix(.24,0,0,.24,0,0)" d="M0 0H1924.9999V598.7558H0Z" fill-rule="evenodd"/>
</clipPath>
<clipPath id="clip_1">
<path transform="matrix(.24,0,0,.24,0,0)" d="M0 0H1924.9999V598.7558H0Z" fill-rule="evenodd"/>
</clipPath>
<clipPath id="clip_2">
<path transform="matrix(.24,0,0,.24,0,0)" d="M0 297.88099H1924.9999V333.80635H0Z" fill-rule="evenodd"/>
</clipPath>
<clipPath id="clip_3">
<path transform="matrix(.24,0,0,.24,0,0)" d="M0 0H1924.9999V598.7558H0Z" fill-rule="evenodd"/>
</clipPath>
<clipPath id="clip_4">
<path transform="matrix(.24,0,0,.24,0,0)" d="M0 129.87856H1924.9999V168.79769H0Z" fill-rule="evenodd"/>
</clipPath>
<clipPath id="clip_5">
<path transform="matrix(.24,0,0,.24,0,0)" d="M0 129.87856H1924.9999V180.7728H0Z" fill-rule="evenodd"/>
</clipPath>
<clipPath id="clip_6">
<path transform="matrix(.24,0,0,.24,0,0)" d="M0 324.825H1924.9999V363.74415H0Z" fill-rule="evenodd"/>
</clipPath>
<clipPath id="clip_7">
<path transform="matrix(.24,0,0,.24,0,0)" d="M0 309.85615H1924.9999V363.74415H0Z" fill-rule="evenodd"/>
</clipPath>
<clipPath id="clip_8">
<path transform="matrix(.24,0,0,.24,0,0)" d="M0 318.83744H1924.9999V357.75657H0Z" fill-rule="evenodd"/>
</clipPath>
<clipPath id="clip_9">
<path transform="matrix(.24,0,0,.24,0,0)" d="M0 0H1924.9999V598.7558H0Z" fill-rule="evenodd"/>
</clipPath>
<clipPath id="clip_10">
<path transform="matrix(.24,0,0,.24,0,0)" d="M0 399.31867H1924.9999V453.20668H0Z" fill-rule="evenodd"/>
</clipPath>
<clipPath id="clip_11">
<path transform="matrix(.24,0,0,.24,0,0)" d="M0 399.31867H1924.9999V465.1818H0Z" fill-rule="evenodd"/>
</clipPath>
<clipPath id="clip_12">
<path transform="matrix(.24,0,0,.24,0,0)" d="M0 0H1924.9999V598.7558H0Z" fill-rule="evenodd"/>
</clipPath>
<clipPath id="clip_13">
<path transform="matrix(.24,0,0,.24,0,0)" d="M0 506.4632H1924.9999V545.3823H0Z" fill-rule="evenodd"/>
</clipPath>
<clipPath id="clip_14">
<path transform="matrix(.24,0,0,.24,0,0)" d="M0 506.4632H1924.9999V554.36367H0Z" fill-rule="evenodd"/>
</clipPath>
<clipPath id="clip_15">
<path transform="matrix(.24,0,0,.24,0,0)" d="M0 0H1924.9999V598.7558H0Z" fill-rule="evenodd"/>
</clipPath>
<clipPath id="clip_16">
<path transform="matrix(.24,0,0,.24,0,0)" d="M0 302.88624H1924.9999V356.77424H0Z" fill-rule="evenodd"/>
</clipPath>
<clipPath id="clip_17">
<path transform="matrix(.24,0,0,.24,0,0)" d="M0 302.88624H1924.9999V365.75559H0Z" fill-rule="evenodd"/>
</clipPath>
<clipPath id="clip_18">
<path transform="matrix(.24,0,0,.24,0,0)" d="M0 0H1924.9999V598.7558H0Z" fill-rule="evenodd"/>
</clipPath>
<clipPath id="clip_19">
<path transform="matrix(.24,0,0,.24,0,0)" d="M0 132.24083H1924.9999V171.15996H0Z" fill-rule="evenodd"/>
</clipPath>
<clipPath id="clip_20">
<path transform="matrix(.24,0,0,.24,0,0)" d="M0 132.24083H1924.9999V180.1413H0Z" fill-rule="evenodd"/>
</clipPath>
<clipPath id="clip_21">
<path transform="matrix(.24,0,0,.24,0,0)" d="M0 0H1924.9999V598.7558H0Z" fill-rule="evenodd"/>
</clipPath>
<clipPath id="clip_22">
<path transform="matrix(.24,0,0,.24,0,0)" d="M0 70.68125H1924.9999V121.57549H0Z" fill-rule="evenodd"/>
</clipPath>
<clipPath id="clip_23">
<path transform="matrix(.24,0,0,.24,0,0)" d="M0 52.71858H1924.9999V82.656368H0Z" fill-rule="evenodd"/>
</clipPath>
<clipPath id="clip_24">
<path transform="matrix(.24,0,0,.24,0,0)" d="M0 52.71858H1924.9999V124.569278H0Z" fill-rule="evenodd"/>
</clipPath>
<clipPath id="clip_25">
<path transform="matrix(.24,0,0,.24,0,0)" d="M0 0H1924.9999V598.7558H0Z" fill-rule="evenodd"/>
</clipPath>
<clipPath id="clip_26">
<path transform="matrix(.24,0,0,.24,0,0)" d="M0 279.91835H1924.9999V315.8437H0Z" fill-rule="evenodd"/>
</clipPath>
<clipPath id="clip_27">
<path transform="matrix(.24,0,0,.24,0,0)" d="M0 279.91835H1924.9999V321.83125H0Z" fill-rule="evenodd"/>
</clipPath>
<clipPath id="clip_28">
<path transform="matrix(.24,0,0,.24,0,0)" d="M0 0H1924.9999V598.7558H0Z" fill-rule="evenodd"/>
</clipPath>
<clipPath id="clip_29">
<path transform="matrix(.24,0,0,.24,0,0)" d="M0 276.92457H1924.9999V321.83125H0Z" fill-rule="evenodd"/>
</clipPath>
<clipPath id="clip_30">
<path transform="matrix(.24,0,0,.24,0,0)" d="M0 273.9308H1924.9999V327.8188H0Z" fill-rule="evenodd"/>
</clipPath>
<clipPath id="clip_31">
<path transform="matrix(.24,0,0,.24,0,0)" d="M0 0H1924.9999V598.7558H0Z" fill-rule="evenodd"/>
</clipPath>
<clipPath id="clip_32">
<path transform="matrix(.24,0,0,.24,0,0)" d="M0 288.89967H1924.9999V333.80635H0Z" fill-rule="evenodd"/>
</clipPath>
<clipPath id="clip_33">
<path transform="matrix(.24,0,0,.24,0,0)" d="M0 288.89967H1924.9999V333.80635H0Z" fill-rule="evenodd"/>
</clipPath>
<clipPath id="clip_34">
<path transform="matrix(.24,0,0,.24,0,0)" d="M0 0H1924.9999V598.7558H0Z" fill-rule="evenodd"/>
</clipPath>
<clipPath id="clip_35">
<path transform="matrix(.24,0,0,.24,0,0)" d="M0 199.0863H1924.9999V255.9681H0Z" fill-rule="evenodd"/>
</clipPath>
<clipPath id="clip_36">
<path transform="matrix(.24,0,0,.24,0,0)" d="M0 199.0863H1924.9999V255.9681H0Z" fill-rule="evenodd"/>
</clipPath>
<clipPath id="clip_37">
<path transform="matrix(.24,0,0,.24,0,0)" d="M0 199.08629H1924.9999V252.97432H0Z" fill-rule="evenodd"/>
</clipPath>
</defs>
<g clip-path="url(#clip_0)">
<path transform="matrix(.71850696,0,0,.71850696,0,0)" d="M0 0H643V201H0Z" fill="#ffffff"/>
</g>
<g clip-path="url(#clip_1)">
<path transform="matrix(.71850696,0,0,.71850696,.35925348,.35925348)" stroke-width="1" stroke-linecap="butt" stroke-miterlimit="10" stroke-linejoin="miter" fill="none" stroke="#000000" d="M121 88V68 78 64.37"/>
<path transform="matrix(.71850696,0,0,.71850696,.35925348,.35925348)" d="M121 59.12 124.5 66.12 121 64.37 117.5 66.12 121 59.12Z"/>
<path transform="matrix(.71850696,0,0,.71850696,.35925348,.35925348)" stroke-width="1" stroke-linecap="butt" stroke-miterlimit="10" stroke-linejoin="miter" fill="none" stroke="#000000" d="M121 59.12 124.5 66.12 121 64.37 117.5 66.12 121 59.12Z"/>
<path transform="matrix(.71850696,0,0,.71850696,.35925348,.35925348)" d="M108 88H134C134.78792 88 135.56829 88.07686 136.34107 88.23058 137.11385 88.38429 137.86423 88.61191 138.59218 88.91344 139.32013 89.21496 140.01168 89.5846 140.66681 90.022357 141.32195 90.460109 141.9281 90.957569 142.48526 91.51472 143.0424 92.07187 143.53986 92.67801 143.9776 93.333148 144.41536 93.98829 144.785 94.67984 145.08654 95.40779 145.38806 96.13575 145.61569 96.886119 145.76941 97.658908 145.92313 98.431697 145.99999 99.21206 146 100V106C145.99999 106.787929 145.92313 107.56829 145.76941 108.34108 145.61569 109.11387 145.38806 109.86424 145.08654 110.59219 144.785 111.320148 144.41536 112.011699 143.9776 112.66684 143.53986 113.32198 143.0424 113.92812 142.48526 114.485279 141.9281 115.04242 141.32196 115.53987 140.66683 115.97762 140.01168 116.415378 139.32013 116.78501 138.59218 117.08654 137.86423 117.38807 137.11385 117.61569 136.34107 117.76942 135.56829 117.92314 134.78792 118 134 118H108C107.21206 118 106.431697 117.92314 105.6589 117.769428 104.88611 117.6157 104.13574 117.38808 103.40778 117.08655 102.67983 116.78501 101.98829 116.415378 101.333148 115.97762 100.67801 115.53987 100.07186 115.04242 99.51471 114.485279 98.95756 113.92812 98.4601 113.321979 98.02235 112.66683 97.584598 112.01169 97.21496 111.320148 96.91343 110.592189 96.6119 109.86424 96.38428 109.11387 96.23057 108.34108 96.07684 107.56829 95.99999 106.787929 96 106V100C95.99999 99.21206 96.07684 98.431697 96.23056 97.6589 96.38428 96.88611 96.6119 96.13574 96.91343 95.40778 97.21496 94.67983 97.584598 93.98829 98.02235 93.333148 98.4601 92.67801 98.95756 92.07187 99.51471 91.51472 100.07186 90.957569 100.67801 90.46011 101.333148 90.02236 101.98829 89.5846 102.67983 89.21496 103.40778 88.91344 104.13574 88.61191 104.886119 88.384288 105.658908 88.230579 106.431697 88.07686 107.21206 88 108 88Z" fill="#ffffff"/>
<path transform="matrix(.71850696,0,0,.71850696,.35925348,.35925348)" stroke-width="1" stroke-linecap="butt" stroke-miterlimit="4" stroke-linejoin="miter" fill="none" stroke="#000000" d="M108 88H134C134.78792 88 135.56829 88.07686 136.34107 88.23058 137.11385 88.38429 137.86423 88.61191 138.59218 88.91344 139.32013 89.21496 140.01168 89.5846 140.66681 90.022357 141.32195 90.460109 141.9281 90.957569 142.48526 91.51472 143.0424 92.07187 143.53986 92.67801 143.9776 93.333148 144.41536 93.98829 144.785 94.67984 145.08654 95.40779 145.38806 96.13575 145.61569 96.886119 145.76941 97.658908 145.92313 98.431697 145.99999 99.21206 146 100V106C145.99999 106.787929 145.92313 107.56829 145.76941 108.34108 145.61569 109.11387 145.38806 109.86424 145.08654 110.59219 144.785 111.320148 144.41536 112.011699 143.9776 112.66684 143.53986 113.32198 143.0424 113.92812 142.48526 114.485279 141.9281 115.04242 141.32196 115.53987 140.66683 115.97762 140.01168 116.415378 139.32013 116.78501 138.59218 117.08654 137.86423 117.38807 137.11385 117.61569 136.34107 117.76942 135.56829 117.92314 134.78792 118 134 118H108C107.21206 118 106.431697 117.92314 105.6589 117.769428 104.88611 117.6157 104.13574 117.38808 103.40778 117.08655 102.67983 116.78501 101.98829 116.415378 101.333148 115.97762 100.67801 115.53987 100.07186 115.04242 99.51471 114.485279 98.95756 113.92812 98.4601 113.321979 98.02235 112.66683 97.584598 112.01169 97.21496 111.320148 96.91343 110.592189 96.6119 109.86424 96.38428 109.11387 96.23057 108.34108 96.07684 107.56829 95.99999 106.787929 96 106V100C95.99999 99.21206 96.07684 98.431697 96.23056 97.6589 96.38428 96.88611 96.6119 96.13574 96.91343 95.40778 97.21496 94.67983 97.584598 93.98829 98.02235 93.333148 98.4601 92.67801 98.95756 92.07187 99.51471 91.51472 100.07186 90.957569 100.67801 90.46011 101.333148 90.02236 101.98829 89.5846 102.67983 89.21496 103.40778 88.91344 104.13574 88.61191 104.886119 88.384288 105.658908 88.230579 106.431697 88.07686 107.21206 88 108 88Z"/>
<path transform="matrix(.71850696,0,0,.71850696,.35925348,.35925348)" stroke-width="1" stroke-linecap="butt" stroke-miterlimit="10" stroke-linejoin="miter" fill="none" stroke="#000000" d="M131 48H241.63"/>
<path transform="matrix(.71850696,0,0,.71850696,.35925348,.35925348)" d="M246.88 48 239.88 51.5 241.63 48 239.88 44.5 246.88 48Z"/>
<path transform="matrix(.71850696,0,0,.71850696,.35925348,.35925348)" stroke-width="1" stroke-linecap="butt" stroke-miterlimit="10" stroke-linejoin="miter" fill="none" stroke="#000000" d="M246.88 48 239.88 51.5 241.63 48 239.88 44.5 246.88 48Z"/>
<path transform="matrix(.71850696,0,0,.71850696,.35925348,.35925348)" d="M131 48C130.99999 48.65661 130.93593 49.306909 130.80783 49.9509 130.67974 50.594896 130.49004 51.220205 130.23877 51.826829 129.98749 52.433458 129.67946 53.009744 129.31468 53.55569 128.94989 54.101648 128.53534 54.60677 128.07106 55.071065 127.60676 55.535356 127.10164 55.949899 126.55569 56.31469 126.009738 56.67948 125.43344 56.987516 124.82682 57.23879 124.22019 57.490064 123.59488 57.67975 122.95089 57.807847 122.3069 57.935949 121.65661 57.999998 121 58 120.34338 57.999998 119.69308 57.935949 119.04909 57.807847 118.40509 57.67975 117.77978 57.490064 117.17315 57.238786 116.56653 56.98751 115.99024 56.679479 115.44429 56.31469 114.89834 55.949899 114.39322 55.535356 113.92893 55.071065 113.46463 54.60677 113.05009 54.101648 112.68529 53.555696 112.32049 53.009748 112.01246 52.433458 111.76119 51.826829 111.50992 51.220205 111.32024 50.59489 111.19214 49.950899 111.06404 49.306909 110.99999 48.65661 111 48 110.99999 47.343389 111.06404 46.693086 111.19214 46.04909 111.32024 45.405099 111.50992 44.779787 111.76119 44.173158 112.01246 43.566534 112.32049 42.990243 112.68529 42.44429 113.05009 41.898344 113.46463 41.39322 113.92893 40.92893 114.39322 40.464635 114.898349 40.05009 115.4443 39.6853 115.99025 39.320505 116.566539 39.01247 117.17316 38.7612 117.779788 38.509927 118.4051 38.32024 119.04909 38.192144 119.69308 38.06405 120.34338 38 121 38 121.65661 38 122.3069 38.06405 122.95089 38.192144 123.59488 38.32024 124.22019 38.509927 124.82681 38.7612 125.43344 39.01247 126.00973 39.320505 126.55568 39.6853 127.10163 40.05009 127.60676 40.464635 128.07106 40.92893 128.53534 41.39322 128.94989 41.898344 129.31468 42.44429 129.67946 42.990243 129.98749 43.566534 130.23877 44.17316 130.49004 44.779787 130.67974 45.405099 130.80783 46.04909 130.93593 46.693086 130.99999 47.343389 131 48Z" fill="#ffffff"/>
<path transform="matrix(.71850696,0,0,.71850696,.35925348,.35925348)" stroke-width="1" stroke-linecap="butt" stroke-miterlimit="4" stroke-linejoin="miter" fill="none" stroke="#000000" d="M131 48C130.99999 48.65661 130.93593 49.306909 130.80783 49.9509 130.67974 50.594896 130.49004 51.220205 130.23877 51.826829 129.98749 52.433458 129.67946 53.009744 129.31468 53.55569 128.94989 54.101648 128.53534 54.60677 128.07106 55.071065 127.60676 55.535356 127.10164 55.949899 126.55569 56.31469 126.009738 56.67948 125.43344 56.987516 124.82682 57.23879 124.22019 57.490064 123.59488 57.67975 122.95089 57.807847 122.3069 57.935949 121.65661 57.999998 121 58 120.34338 57.999998 119.69308 57.935949 119.04909 57.807847 118.40509 57.67975 117.77978 57.490064 117.17315 57.238786 116.56653 56.98751 115.99024 56.679479 115.44429 56.31469 114.89834 55.949899 114.39322 55.535356 113.92893 55.071065 113.46463 54.60677 113.05009 54.101648 112.68529 53.555696 112.32049 53.009748 112.01246 52.433458 111.76119 51.826829 111.50992 51.220205 111.32024 50.59489 111.19214 49.950899 111.06404 49.306909 110.99999 48.65661 111 48 110.99999 47.343389 111.06404 46.693086 111.19214 46.04909 111.32024 45.405099 111.50992 44.779787 111.76119 44.173158 112.01246 43.566534 112.32049 42.990243 112.68529 42.44429 113.05009 41.898344 113.46463 41.39322 113.92893 40.92893 114.39322 40.464635 114.898349 40.05009 115.4443 39.6853 115.99025 39.320505 116.566539 39.01247 117.17316 38.7612 117.779788 38.509927 118.4051 38.32024 119.04909 38.192144 119.69308 38.06405 120.34338 38 121 38 121.65661 38 122.3069 38.06405 122.95089 38.192144 123.59488 38.32024 124.22019 38.509927 124.82681 38.7612 125.43344 39.01247 126.00973 39.320505 126.55568 39.6853 127.10163 40.05009 127.60676 40.464635 128.07106 40.92893 128.53534 41.39322 128.94989 41.898344 129.31468 42.44429 129.67946 42.990243 129.98749 43.566534 130.23877 44.17316 130.49004 44.779787 130.67974 45.405099 130.80783 46.04909 130.93593 46.693086 130.99999 47.343389 131 48Z"/>
<path transform="matrix(.71850696,0,0,.71850696,.35925348,.35925348)" stroke-width="1" stroke-linecap="butt" stroke-miterlimit="10" stroke-linejoin="miter" fill="none" stroke="#000000" d="M113.9 40.9 128.1 55.1"/>
<path transform="matrix(.71850696,0,0,.71850696,.35925348,.35925348)" stroke-width="1" stroke-linecap="butt" stroke-miterlimit="10" stroke-linejoin="miter" fill="none" stroke="#000000" d="M128.1 40.9 113.9 55.1"/>
<path transform="matrix(.71850696,0,0,.71850696,.35925348,.35925348)" stroke-width="1" stroke-linecap="butt" stroke-miterlimit="10" stroke-linejoin="miter" fill="none" stroke="#000000" d="M41 48H104.63"/>
<path transform="matrix(.71850696,0,0,.71850696,.35925348,.35925348)" d="M109.88 48 102.88 51.5 104.63 48 102.88 44.5 109.88 48Z"/>
<path transform="matrix(.71850696,0,0,.71850696,.35925348,.35925348)" stroke-width="1" stroke-linecap="butt" stroke-miterlimit="10" stroke-linejoin="miter" fill="none" stroke="#000000" d="M109.88 48 102.88 51.5 104.63 48 102.88 44.5 109.88 48Z"/>
<path transform="matrix(.71850696,0,0,.71850696,.35925348,.35925348)" d="M180 97H206C206.78792 97 207.56829 97.07686 208.34107 97.230579 209.11386 97.38429 209.86423 97.611919 210.59218 97.91344 211.32013 98.214969 212.01169 98.5846 212.66684 99.022357 213.32198 99.460109 213.92812 99.95756 214.48528 100.51471 215.04242 101.07186 215.53987 101.678 215.97762 102.33314 216.41538 102.98828 216.785 103.679828 217.08654 104.40778 217.38806 105.13574 217.61569 105.886119 217.76941 106.658908 217.92314 107.431697 218.00002 108.21206 218 109V115C218.00002 115.787929 217.92316 116.56828 217.76943 117.34107 217.6157 118.11386 217.38808 118.864238 217.08655 119.592189 216.78502 120.32014 216.41539 121.01168 215.97763 121.66682 215.53987 122.32196 215.04242 122.928119 214.48528 123.48527 213.92812 124.04242 213.32196 124.53987 212.66683 124.977619 212.01169 125.41537 211.32013 125.785 210.59218 126.08653 209.86423 126.38806 209.11386 126.61569 208.34107 126.76942 207.56829 126.923137 206.78792 126.99999 206 127H180C179.21207 126.99999 178.4317 126.923137 177.6589 126.76942 176.88611 126.61569 176.13573 126.38806 175.40778 126.08653 174.67983 125.785 173.98828 125.41536 173.33313 124.97761 172.678 124.53987 172.07186 124.04242 171.51471 123.48527 170.95757 122.928119 170.46012 122.32197 170.02236 121.666828 169.5846 121.01168 169.21495 120.32014 168.91342 119.592189 168.6119 118.864238 168.38428 118.11386 168.23056 117.34107 168.07685 116.56828 167.99999 115.787929 168 115V109C167.99999 108.21206 168.07685 107.431697 168.23056 106.658908 168.38428 105.886119 168.6119 105.13574 168.91342 104.40778 169.21495 103.679828 169.5846 102.98828 170.02236 102.33314 170.46012 101.678 170.95757 101.07186 171.51471 100.51471 172.07186 99.95756 172.67801 99.460109 173.33315 99.022357 173.98828 98.5846 174.67983 98.214969 175.40778 97.91344 176.13573 97.611919 176.88611 97.38429 177.6589 97.230579 178.4317 97.07686 179.21207 97 180 97Z" fill="#ffffff"/>
<path transform="matrix(.71850696,0,0,.71850696,.35925348,.35925348)" stroke-width="1" stroke-linecap="butt" stroke-miterlimit="4" stroke-linejoin="miter" fill="none" stroke="#000000" d="M180 97H206C206.78792 97 207.56829 97.07686 208.34107 97.230579 209.11386 97.38429 209.86423 97.611919 210.59218 97.91344 211.32013 98.214969 212.01169 98.5846 212.66684 99.022357 213.32198 99.460109 213.92812 99.95756 214.48528 100.51471 215.04242 101.07186 215.53987 101.678 215.97762 102.33314 216.41538 102.98828 216.785 103.679828 217.08654 104.40778 217.38806 105.13574 217.61569 105.886119 217.76941 106.658908 217.92314 107.431697 218.00002 108.21206 218 109V115C218.00002 115.787929 217.92316 116.56828 217.76943 117.34107 217.6157 118.11386 217.38808 118.864238 217.08655 119.592189 216.78502 120.32014 216.41539 121.01168 215.97763 121.66682 215.53987 122.32196 215.04242 122.928119 214.48528 123.48527 213.92812 124.04242 213.32196 124.53987 212.66683 124.977619 212.01169 125.41537 211.32013 125.785 210.59218 126.08653 209.86423 126.38806 209.11386 126.61569 208.34107 126.76942 207.56829 126.923137 206.78792 126.99999 206 127H180C179.21207 126.99999 178.4317 126.923137 177.6589 126.76942 176.88611 126.61569 176.13573 126.38806 175.40778 126.08653 174.67983 125.785 173.98828 125.41536 173.33313 124.97761 172.678 124.53987 172.07186 124.04242 171.51471 123.48527 170.95757 122.928119 170.46012 122.32197 170.02236 121.666828 169.5846 121.01168 169.21495 120.32014 168.91342 119.592189 168.6119 118.864238 168.38428 118.11386 168.23056 117.34107 168.07685 116.56828 167.99999 115.787929 168 115V109C167.99999 108.21206 168.07685 107.431697 168.23056 106.658908 168.38428 105.886119 168.6119 105.13574 168.91342 104.40778 169.21495 103.679828 169.5846 102.98828 170.02236 102.33314 170.46012 101.678 170.95757 101.07186 171.51471 100.51471 172.07186 99.95756 172.67801 99.460109 173.33315 99.022357 173.98828 98.5846 174.67983 98.214969 175.40778 97.91344 176.13573 97.611919 176.88611 97.38429 177.6589 97.230579 178.4317 97.07686 179.21207 97 180 97Z"/>
<path transform="matrix(.71850696,0,0,.71850696,.35925348,.35925348)" d="M321 97H347C347.78794 97 348.56828 97.07686 349.34107 97.230579 350.11387 97.38429 350.86424 97.611919 351.59217 97.91344 352.3201 98.214969 353.01167 98.5846 353.6668 99.022357 354.32194 99.460109 354.9281 99.95756 355.48527 100.51471 356.0424 101.07186 356.53984 101.678 356.97758 102.33314 357.4153 102.98828 357.78495 103.679828 358.0865 104.40778 358.38804 105.13574 358.61567 105.886119 358.76939 106.658908 358.92314 107.431697 359 108.21206 359 109V115C359 115.787929 358.92314 116.56828 358.76939 117.34107 358.61567 118.11386 358.38804 118.864238 358.0865 119.592189 357.78495 120.32014 357.4153 121.01168 356.97755 121.66682 356.53984 122.32196 356.0424 122.928119 355.48527 123.48527 354.9281 124.04242 354.32194 124.53987 353.6668 124.977619 353.01167 125.41537 352.3201 125.785 351.59217 126.08653 350.86424 126.38806 350.11384 126.61569 349.34104 126.76942 348.56828 126.923137 347.78794 126.99999 347 127H321C320.21208 126.99999 319.4317 126.923137 318.6589 126.76942 317.8861 126.61569 317.13575 126.38806 316.40779 126.08653 315.67985 125.785 314.98829 125.41536 314.3331 124.97761 313.67799 124.53987 313.07185 124.04242 312.51469 123.48527 311.95753 122.928119 311.46006 122.32197 311.02229 121.666828 310.58454 121.01168 310.2149 120.32014 309.9134 119.592189 309.61186 118.864238 309.38426 118.11386 309.23054 117.34107 309.0768 116.56828 308.99998 115.787929 309 115V109C308.99998 108.21206 309.0768 107.431697 309.23054 106.658908 309.38426 105.886119 309.61186 105.13574 309.9134 104.40778 310.2149 103.679828 310.58454 102.98828 311.0223 102.33314 311.46006 101.678 311.95753 101.07186 312.51469 100.51471 313.07185 99.95756 313.67799 99.460109 314.33314 99.022357 314.98829 98.5846 315.67985 98.214969 316.40779 97.91344 317.13575 97.611919 317.8861 97.38429 318.6589 97.230579 319.4317 97.07686 320.21208 97 321 97Z" fill="#ffffff"/>
<path transform="matrix(.71850696,0,0,.71850696,.35925348,.35925348)" stroke-width="1" stroke-linecap="butt" stroke-miterlimit="4" stroke-linejoin="miter" fill="none" stroke="#000000" d="M321 97H347C347.78794 97 348.56828 97.07686 349.34107 97.230579 350.11387 97.38429 350.86424 97.611919 351.59217 97.91344 352.3201 98.214969 353.01167 98.5846 353.6668 99.022357 354.32194 99.460109 354.9281 99.95756 355.48527 100.51471 356.0424 101.07186 356.53984 101.678 356.97758 102.33314 357.4153 102.98828 357.78495 103.679828 358.0865 104.40778 358.38804 105.13574 358.61567 105.886119 358.76939 106.658908 358.92314 107.431697 359 108.21206 359 109V115C359 115.787929 358.92314 116.56828 358.76939 117.34107 358.61567 118.11386 358.38804 118.864238 358.0865 119.592189 357.78495 120.32014 357.4153 121.01168 356.97755 121.66682 356.53984 122.32196 356.0424 122.928119 355.48527 123.48527 354.9281 124.04242 354.32194 124.53987 353.6668 124.977619 353.01167 125.41537 352.3201 125.785 351.59217 126.08653 350.86424 126.38806 350.11384 126.61569 349.34104 126.76942 348.56828 126.923137 347.78794 126.99999 347 127H321C320.21208 126.99999 319.4317 126.923137 318.6589 126.76942 317.8861 126.61569 317.13575 126.38806 316.40779 126.08653 315.67985 125.785 314.98829 125.41536 314.3331 124.97761 313.67799 124.53987 313.07185 124.04242 312.51469 123.48527 311.95753 122.928119 311.46006 122.32197 311.02229 121.666828 310.58454 121.01168 310.2149 120.32014 309.9134 119.592189 309.61186 118.864238 309.38426 118.11386 309.23054 117.34107 309.0768 116.56828 308.99998 115.787929 309 115V109C308.99998 108.21206 309.0768 107.431697 309.23054 106.658908 309.38426 105.886119 309.61186 105.13574 309.9134 104.40778 310.2149 103.679828 310.58454 102.98828 311.0223 102.33314 311.46006 101.678 311.95753 101.07186 312.51469 100.51471 313.07185 99.95756 313.67799 99.460109 314.33314 99.022357 314.98829 98.5846 315.67985 98.214969 316.40779 97.91344 317.13575 97.611919 317.8861 97.38429 318.6589 97.230579 319.4317 97.07686 320.21208 97 321 97Z"/>
<path transform="matrix(.71850696,0,0,.71850696,.35925348,.35925348)" stroke-width="1" stroke-linecap="butt" stroke-miterlimit="10" stroke-linejoin="miter" fill="none" stroke="#000000" d="M451 110H484.63"/>
<path transform="matrix(.71850696,0,0,.71850696,.35925348,.35925348)" d="M489.88 110 482.88 113.5 484.63 110 482.88 106.5 489.88 110Z"/>
<path transform="matrix(.71850696,0,0,.71850696,.35925348,.35925348)" stroke-width="1" stroke-linecap="butt" stroke-miterlimit="10" stroke-linejoin="miter" fill="none" stroke="#000000" d="M489.88 110 482.88 113.5 484.63 110 482.88 106.5 489.88 110Z"/>
<path transform="matrix(.71850696,0,0,.71850696,.35925348,.35925348)" d="M413 95H439C439.7879 95 440.56825 95.07686 441.34104 95.23057 442.11384 95.38429 442.8642 95.611919 443.59214 95.91344 444.32008 96.214969 445.0116 96.5846 445.66679 97.022357 446.32194 97.460109 446.9281 97.95756 447.48527 98.51471 448.0424 99.07185 448.53984 99.67799 448.9776 100.33314 449.41535 100.98828 449.78498 101.67983 450.08653 102.40779 450.38807 103.13574 450.61567 103.886119 450.76939 104.658908 450.9231 105.4317 450.99998 106.21207 451 107V113C450.99998 113.787929 450.9231 114.568279 450.76939 115.341068 450.61567 116.11385 450.38807 116.86423 450.08653 117.59218 449.78498 118.32013 449.41535 119.01168 448.97758 119.666828 448.53984 120.32197 448.0424 120.928119 447.48527 121.48527 446.9281 122.04242 446.32194 122.53987 445.66679 122.97762 445.0116 123.415378 444.32008 123.78501 443.59214 124.08654 442.8642 124.38807 442.11384 124.61569 441.34104 124.76941 440.56825 124.923137 439.7879 124.99999 439 125H413C412.21208 124.99999 411.43168 124.923137 410.65888 124.76941 409.88609 124.615688 409.1357 124.38806 408.40776 124.08653 407.67979 123.785 406.98823 123.41537 406.3331 122.977619 405.67799 122.53986 405.07185 122.04242 404.51469 121.48527 403.95753 120.928119 403.46009 120.32197 403.0223 119.666828 402.58454 119.01168 402.2149 118.32013 401.9134 117.592189 401.61186 116.86423 401.38426 116.11386 401.23057 115.34107 401.07685 114.56828 401 113.787929 401 113V107C401 106.21207 401.07685 105.4317 401.23057 104.658908 401.38426 103.886119 401.61186 103.13574 401.9134 102.40779 402.2149 101.67983 402.58454 100.98829 403.0223 100.333148 403.46009 99.678 403.95753 99.07185 404.51469 98.51471 405.07185 97.95756 405.67799 97.460109 406.3331 97.022357 406.98823 96.5846 407.67979 96.214969 408.40776 95.91344 409.1357 95.611919 409.88609 95.38429 410.65888 95.23057 411.43168 95.07686 412.21208 95 413 95Z" fill="#ffffff"/>
<path transform="matrix(.71850696,0,0,.71850696,.35925348,.35925348)" stroke-width="1" stroke-linecap="butt" stroke-miterlimit="4" stroke-linejoin="miter" fill="none" stroke="#000000" d="M413 95H439C439.7879 95 440.56825 95.07686 441.34104 95.23057 442.11384 95.38429 442.8642 95.611919 443.59214 95.91344 444.32008 96.214969 445.0116 96.5846 445.66679 97.022357 446.32194 97.460109 446.9281 97.95756 447.48527 98.51471 448.0424 99.07185 448.53984 99.67799 448.9776 100.33314 449.41535 100.98828 449.78498 101.67983 450.08653 102.40779 450.38807 103.13574 450.61567 103.886119 450.76939 104.658908 450.9231 105.4317 450.99998 106.21207 451 107V113C450.99998 113.787929 450.9231 114.568279 450.76939 115.341068 450.61567 116.11385 450.38807 116.86423 450.08653 117.59218 449.78498 118.32013 449.41535 119.01168 448.97758 119.666828 448.53984 120.32197 448.0424 120.928119 447.48527 121.48527 446.9281 122.04242 446.32194 122.53987 445.66679 122.97762 445.0116 123.415378 444.32008 123.78501 443.59214 124.08654 442.8642 124.38807 442.11384 124.61569 441.34104 124.76941 440.56825 124.923137 439.7879 124.99999 439 125H413C412.21208 124.99999 411.43168 124.923137 410.65888 124.76941 409.88609 124.615688 409.1357 124.38806 408.40776 124.08653 407.67979 123.785 406.98823 123.41537 406.3331 122.977619 405.67799 122.53986 405.07185 122.04242 404.51469 121.48527 403.95753 120.928119 403.46009 120.32197 403.0223 119.666828 402.58454 119.01168 402.2149 118.32013 401.9134 117.592189 401.61186 116.86423 401.38426 116.11386 401.23057 115.34107 401.07685 114.56828 401 113.787929 401 113V107C401 106.21207 401.07685 105.4317 401.23057 104.658908 401.38426 103.886119 401.61186 103.13574 401.9134 102.40779 402.2149 101.67983 402.58454 100.98829 403.0223 100.333148 403.46009 99.678 403.95753 99.07185 404.51469 98.51471 405.07185 97.95756 405.67799 97.460109 406.3331 97.022357 406.98823 96.5846 407.67979 96.214969 408.40776 95.91344 409.1357 95.611919 409.88609 95.38429 410.65888 95.23057 411.43168 95.07686 412.21208 95 413 95Z"/>
<path transform="matrix(.71850696,0,0,.71850696,.35925348,.35925348)" stroke-width="1" stroke-linecap="butt" stroke-miterlimit="10" stroke-linejoin="miter" fill="none" stroke="#000000" d="M51 192V158C51 151.33333 54.333333 148 61 148H111C117.666667 148 121 144.66667 121 138V124.37"/>
<path transform="matrix(.71850696,0,0,.71850696,.35925348,.35925348)" d="M121 119.12 124.5 126.12 121 124.37 117.5 126.12 121 119.12Z"/>
<path transform="matrix(.71850696,0,0,.71850696,.35925348,.35925348)" stroke-width="1" stroke-linecap="butt" stroke-miterlimit="10" stroke-linejoin="miter" fill="none" stroke="#000000" d="M121 119.12 124.5 126.12 121 124.37 117.5 126.12 121 119.12Z"/>
<path transform="matrix(.71850696,0,0,.71850696,.35925348,.35925348)" stroke-width="1" stroke-linecap="butt" stroke-miterlimit="10" stroke-linejoin="miter" fill="none" stroke="#000000" d="M41 148H183C189.66667 148 193 145.56 193 140.68V133.37"/>
<path transform="matrix(.71850696,0,0,.71850696,.35925348,.35925348)" d="M193 128.12 196.5 135.12 193 133.37 189.5 135.12 193 128.12Z"/>
<path transform="matrix(.71850696,0,0,.71850696,.35925348,.35925348)" stroke-width="1" stroke-linecap="butt" stroke-miterlimit="10" stroke-linejoin="miter" fill="none" stroke="#000000" d="M193 128.12 196.5 135.12 193 133.37 189.5 135.12 193 128.12Z"/>
<path transform="matrix(.71850696,0,0,.71850696,.35925348,.35925348)" stroke-width="1" stroke-linecap="butt" stroke-miterlimit="10" stroke-linejoin="miter" fill="none" stroke="#000000" d="M41 148H324C330.66667 148 334 145.56 334 140.68V133.37"/>
<path transform="matrix(.71850696,0,0,.71850696,.35925348,.35925348)" d="M334 128.12 337.5 135.12 334 133.37 330.5 135.12 334 128.12Z"/>
<path transform="matrix(.71850696,0,0,.71850696,.35925348,.35925348)" stroke-width="1" stroke-linecap="butt" stroke-miterlimit="10" stroke-linejoin="miter" fill="none" stroke="#000000" d="M334 128.12 337.5 135.12 334 133.37 330.5 135.12 334 128.12Z"/>
<path transform="matrix(.71850696,0,0,.71850696,.35925348,.35925348)" stroke-width="1" stroke-linecap="butt" stroke-miterlimit="10" stroke-linejoin="miter" fill="none" stroke="#000000" d="M41 148H416C422.66667 148 426 145.22667 426 139.68V131.37"/>
<path transform="matrix(.71850696,0,0,.71850696,.35925348,.35925348)" d="M426 126.12 429.5 133.12 426 131.37 422.5 133.12 426 126.12Z"/>
<path transform="matrix(.71850696,0,0,.71850696,.35925348,.35925348)" stroke-width="1" stroke-linecap="butt" stroke-miterlimit="10" stroke-linejoin="miter" fill="none" stroke="#000000" d="M426 126.12 429.5 133.12 426 131.37 422.5 133.12 426 126.12Z"/>
<path transform="matrix(.71850696,0,0,.71850696,.35925348,.35925348)" stroke-width="1" stroke-linecap="butt" stroke-miterlimit="10" stroke-linejoin="miter" fill="none" stroke="#000000" d="M268 48H594.63"/>
<path transform="matrix(.71850696,0,0,.71850696,.35925348,.35925348)" d="M599.88 48 592.88 51.5 594.63 48 592.88 44.5 599.88 48Z"/>
<path transform="matrix(.71850696,0,0,.71850696,.35925348,.35925348)" stroke-width="1" stroke-linecap="butt" stroke-miterlimit="10" stroke-linejoin="miter" fill="none" stroke="#000000" d="M599.88 48 592.88 51.5 594.63 48 592.88 44.5 599.88 48Z"/>
<path transform="matrix(.71850696,0,0,.71850696,.35925348,.35925348)" stroke-width="1" stroke-linecap="butt" stroke-miterlimit="10" stroke-linejoin="miter" fill="none" stroke="#000000" d="M258 102V64.37"/>
<path transform="matrix(.71850696,0,0,.71850696,.35925348,.35925348)" d="M258 59.12 261.5 66.12 258 64.37 254.5 66.12 258 59.12Z"/>
<path transform="matrix(.71850696,0,0,.71850696,.35925348,.35925348)" stroke-width="1" stroke-linecap="butt" stroke-miterlimit="10" stroke-linejoin="miter" fill="none" stroke="#000000" d="M258 59.12 261.5 66.12 258 64.37 254.5 66.12 258 59.12Z"/>
<path transform="matrix(.71850696,0,0,.71850696,.35925348,.35925348)" d="M268 112C268 112.65661 267.93595 113.3069 267.80784 113.95089 267.67976 114.59488 267.49006 115.220188 267.23878 115.82681 266.98753 116.43345 266.67948 117.009738 266.31468 117.55568 265.9499 118.10164 265.53535 118.606769 265.07106 119.07106 264.60676 119.535358 264.10163 119.9499 263.5557 120.31469 263.00975 120.67948 262.43345 120.98751 261.8268 121.238788 261.22019 121.49006 260.59489 121.67975 259.9509 121.807849 259.30693 121.93594 258.65663 121.99999 258 122 257.34339 121.99999 256.69309 121.93594 256.04908 121.80784 255.40508 121.67975 254.77976 121.49006 254.17314 121.238788 253.56652 120.98751 252.99022 120.67948 252.44428 120.31469 251.89833 119.9499 251.39322 119.535358 250.92893 119.07106 250.46462 118.606769 250.05007 118.10164 249.68526 117.55569 249.32047 117.009738 249.01244 116.43345 248.76117 115.82682 248.5099 115.22019 248.32022 114.59488 248.19213 113.95089 248.06403 113.3069 247.99999 112.65661 248 112 247.99999 111.34338 248.06404 110.69308 248.19214 110.04909 248.32024 109.40509 248.50992 108.77978 248.7612 108.17316 249.01247 107.56653 249.3205 106.990238 249.68529 106.44428 250.05008 105.89833 250.46462 105.39321 250.92893 104.928928 251.39322 104.46463 251.89835 104.05009 252.44429 103.685298 252.99024 103.3205 253.56652 103.012477 254.17314 102.7612 254.77976 102.509929 255.40508 102.320247 256.04908 102.19215 256.69309 102.06405 257.34339 102 258 102 258.65663 102 259.30693 102.06405 259.9509 102.19215 260.59489 102.320247 261.22019 102.509929 261.8268 102.7612 262.43345 103.012477 263.00975 103.3205 263.5557 103.685298 264.10163 104.05009 264.60676 104.46463 265.07106 104.928928 265.53535 105.39321 265.9499 105.89833 266.31468 106.44428 266.67948 106.990238 266.98753 107.56653 267.23878 108.17315 267.49006 108.77978 267.67976 109.40509 267.80784 110.04909 267.93595 110.69308 268 111.34338 268 112Z" fill="#ffffff"/>
<path transform="matrix(.71850696,0,0,.71850696,.35925348,.35925348)" stroke-width="1" stroke-linecap="butt" stroke-miterlimit="4" stroke-linejoin="miter" fill="none" stroke="#000000" d="M268 112C268 112.65661 267.93595 113.3069 267.80784 113.95089 267.67976 114.59488 267.49006 115.220188 267.23878 115.82681 266.98753 116.43345 266.67948 117.009738 266.31468 117.55568 265.9499 118.10164 265.53535 118.606769 265.07106 119.07106 264.60676 119.535358 264.10163 119.9499 263.5557 120.31469 263.00975 120.67948 262.43345 120.98751 261.8268 121.238788 261.22019 121.49006 260.59489 121.67975 259.9509 121.807849 259.30693 121.93594 258.65663 121.99999 258 122 257.34339 121.99999 256.69309 121.93594 256.04908 121.80784 255.40508 121.67975 254.77976 121.49006 254.17314 121.238788 253.56652 120.98751 252.99022 120.67948 252.44428 120.31469 251.89833 119.9499 251.39322 119.535358 250.92893 119.07106 250.46462 118.606769 250.05007 118.10164 249.68526 117.55569 249.32047 117.009738 249.01244 116.43345 248.76117 115.82682 248.5099 115.22019 248.32022 114.59488 248.19213 113.95089 248.06403 113.3069 247.99999 112.65661 248 112 247.99999 111.34338 248.06404 110.69308 248.19214 110.04909 248.32024 109.40509 248.50992 108.77978 248.7612 108.17316 249.01247 107.56653 249.3205 106.990238 249.68529 106.44428 250.05008 105.89833 250.46462 105.39321 250.92893 104.928928 251.39322 104.46463 251.89835 104.05009 252.44429 103.685298 252.99024 103.3205 253.56652 103.012477 254.17314 102.7612 254.77976 102.509929 255.40508 102.320247 256.04908 102.19215 256.69309 102.06405 257.34339 102 258 102 258.65663 102 259.30693 102.06405 259.9509 102.19215 260.59489 102.320247 261.22019 102.509929 261.8268 102.7612 262.43345 103.012477 263.00975 103.3205 263.5557 103.685298 264.10163 104.05009 264.60676 104.46463 265.07106 104.928928 265.53535 105.39321 265.9499 105.89833 266.31468 106.44428 266.67948 106.990238 266.98753 107.56653 267.23878 108.17315 267.49006 108.77978 267.67976 109.40509 267.80784 110.04909 267.93595 110.69308 268 111.34338 268 112Z"/>
<path transform="matrix(.71850696,0,0,.71850696,.35925348,.35925348)" stroke-width="1" stroke-linecap="butt" stroke-miterlimit="10" stroke-linejoin="miter" fill="none" stroke="#000000" d="M250.9 104.9 265.1 119.1"/>
<path transform="matrix(.71850696,0,0,.71850696,.35925348,.35925348)" stroke-width="1" stroke-linecap="butt" stroke-miterlimit="10" stroke-linejoin="miter" fill="none" stroke="#000000" d="M265.1 104.9 250.9 119.1"/>
<path transform="matrix(.71850696,0,0,.71850696,.35925348,.35925348)" stroke-width="1" stroke-linecap="butt" stroke-miterlimit="10" stroke-linejoin="miter" fill="none" stroke="#000000" d="M309 112H274.37"/>
<path transform="matrix(.71850696,0,0,.71850696,.35925348,.35925348)" d="M269.12 112 276.12 108.5 274.37 112 276.12 115.5 269.12 112Z"/>
<path transform="matrix(.71850696,0,0,.71850696,.35925348,.35925348)" stroke-width="1" stroke-linecap="butt" stroke-miterlimit="10" stroke-linejoin="miter" fill="none" stroke="#000000" d="M269.12 112 276.12 108.5 274.37 112 276.12 115.5 269.12 112Z"/>
<path transform="matrix(.71850696,0,0,.71850696,.35925348,.35925348)" stroke-width="1" stroke-linecap="butt" stroke-miterlimit="10" stroke-linejoin="miter" fill="none" stroke="#000000" d="M218 112H241.63"/>
<path transform="matrix(.71850696,0,0,.71850696,.35925348,.35925348)" d="M246.88 112 239.88 115.5 241.63 112 239.88 108.5 246.88 112Z"/>
<path transform="matrix(.71850696,0,0,.71850696,.35925348,.35925348)" stroke-width="1" stroke-linecap="butt" stroke-miterlimit="10" stroke-linejoin="miter" fill="none" stroke="#000000" d="M246.88 112 239.88 115.5 241.63 112 239.88 108.5 246.88 112Z"/>
<path transform="matrix(.71850696,0,0,.71850696,.35925348,.35925348)" stroke-width="1" stroke-linecap="butt" stroke-miterlimit="10" stroke-linejoin="miter" fill="none" stroke="#000000" d="M511 110H594.63"/>
<path transform="matrix(.71850696,0,0,.71850696,.35925348,.35925348)" d="M599.88 110 592.88 113.5 594.63 110 592.88 106.5 599.88 110Z"/>
<path transform="matrix(.71850696,0,0,.71850696,.35925348,.35925348)" stroke-width="1" stroke-linecap="butt" stroke-miterlimit="10" stroke-linejoin="miter" fill="none" stroke="#000000" d="M599.88 110 592.88 113.5 594.63 110 592.88 106.5 599.88 110Z"/>
<path transform="matrix(.71850696,0,0,.71850696,.35925348,.35925348)" d="M511 110C511 110.65661 510.93595 111.30691 510.80784 111.9509 510.67973 112.59489 510.49003 113.22019 510.23875 113.82682 509.98744 114.43345 509.6794 115.00974 509.31465 115.555698 508.94984 116.10164 508.53529 116.60676 508.071 117.07106 507.6067 117.53535 507.10157 117.94989 506.5556 118.31468 506.00968 118.679477 505.43339 118.9875 504.82676 119.23878 504.22013 119.49005 503.59483 119.67973 502.95088 119.80784 502.3069 119.935939 501.6566 119.99999 501 120 500.34336 119.99999 499.69306 119.935939 499.04905 119.80783 498.40504 119.67973 497.77973 119.49005 497.17314 119.23878 496.56648 118.9875 495.99018 118.679477 495.44425 118.31468 494.89833 117.94989 494.3932 117.53535 493.92893 117.07106 493.46464 116.60676 493.05009 116.10164 492.68528 115.55569 492.32048 115.009738 492.01243 114.43345 491.76115 113.82682 491.50987 113.22019 491.3202 112.59489 491.1921 111.9509 491.06404 111.30691 490.99998 110.65661 491 110 490.99998 109.34339 491.06404 108.693088 491.19215 108.04909 491.32023 107.4051 491.5099 106.779788 491.76118 106.17316 492.01246 105.56652 492.3205 104.990238 492.6853 104.44428 493.05009 103.89833 493.46464 103.39321 493.92893 102.928928 494.3932 102.46464 494.8983 102.050098 495.4442 101.685298 495.99018 101.320499 496.56648 101.01247 497.17314 100.76119 497.77973 100.50992 498.40504 100.32024 499.04905 100.19214 499.69306 100.06405 500.34336 100 501 100 501.6566 100 502.3069 100.06405 502.95088 100.19214 503.59483 100.32024 504.22013 100.50992 504.82676 100.76119 505.43339 101.01247 506.00968 101.320499 506.5556 101.685298 507.10157 102.050098 507.6067 102.46464 508.071 102.928928 508.53529 103.39321 508.94984 103.89834 509.31465 104.44429 509.6794 104.990238 509.98744 105.56652 510.23875 106.17316 510.49003 106.779788 510.67973 107.4051 510.8078 108.04909 510.93595 108.693088 511 109.34339 511 110Z" fill="#ffffff"/>
<path transform="matrix(.71850696,0,0,.71850696,.35925348,.35925348)" stroke-width="1" stroke-linecap="butt" stroke-miterlimit="4" stroke-linejoin="miter" fill="none" stroke="#000000" d="M511 110C511 110.65661 510.93595 111.30691 510.80784 111.9509 510.67973 112.59489 510.49003 113.22019 510.23875 113.82682 509.98744 114.43345 509.6794 115.00974 509.31465 115.555698 508.94984 116.10164 508.53529 116.60676 508.071 117.07106 507.6067 117.53535 507.10157 117.94989 506.5556 118.31468 506.00968 118.679477 505.43339 118.9875 504.82676 119.23878 504.22013 119.49005 503.59483 119.67973 502.95088 119.80784 502.3069 119.935939 501.6566 119.99999 501 120 500.34336 119.99999 499.69306 119.935939 499.04905 119.80783 498.40504 119.67973 497.77973 119.49005 497.17314 119.23878 496.56648 118.9875 495.99018 118.679477 495.44425 118.31468 494.89833 117.94989 494.3932 117.53535 493.92893 117.07106 493.46464 116.60676 493.05009 116.10164 492.68528 115.55569 492.32048 115.009738 492.01243 114.43345 491.76115 113.82682 491.50987 113.22019 491.3202 112.59489 491.1921 111.9509 491.06404 111.30691 490.99998 110.65661 491 110 490.99998 109.34339 491.06404 108.693088 491.19215 108.04909 491.32023 107.4051 491.5099 106.779788 491.76118 106.17316 492.01246 105.56652 492.3205 104.990238 492.6853 104.44428 493.05009 103.89833 493.46464 103.39321 493.92893 102.928928 494.3932 102.46464 494.8983 102.050098 495.4442 101.685298 495.99018 101.320499 496.56648 101.01247 497.17314 100.76119 497.77973 100.50992 498.40504 100.32024 499.04905 100.19214 499.69306 100.06405 500.34336 100 501 100 501.6566 100 502.3069 100.06405 502.95088 100.19214 503.59483 100.32024 504.22013 100.50992 504.82676 100.76119 505.43339 101.01247 506.00968 101.320499 506.5556 101.685298 507.10157 102.050098 507.6067 102.46464 508.071 102.928928 508.53529 103.39321 508.94984 103.89834 509.31465 104.44429 509.6794 104.990238 509.98744 105.56652 510.23875 106.17316 510.49003 106.779788 510.67973 107.4051 510.8078 108.04909 510.93595 108.693088 511 109.34339 511 110Z"/>
<path transform="matrix(.71850696,0,0,.71850696,.35925348,.35925348)" stroke-width="1" stroke-linecap="butt" stroke-miterlimit="10" stroke-linejoin="miter" fill="none" stroke="#000000" d="M493.9 102.9 508.1 117.1"/>
<path transform="matrix(.71850696,0,0,.71850696,.35925348,.35925348)" stroke-width="1" stroke-linecap="butt" stroke-miterlimit="10" stroke-linejoin="miter" fill="none" stroke="#000000" d="M508.1 102.9 493.9 117.1"/>
<path transform="matrix(.71850696,0,0,.71850696,.35925348,.35925348)" stroke-width="1" stroke-linecap="butt" stroke-miterlimit="10" stroke-linejoin="miter" fill="none" stroke="#000000" d="M268 48H491C497.66667 48 501 50.273336 501 54.82V61.63"/>
<path transform="matrix(.71850696,0,0,.71850696,.35925348,.35925348)" d="M501 66.88 497.5 59.88 501 61.63 504.5 59.88 501 66.88Z"/>
<path transform="matrix(.71850696,0,0,.71850696,.35925348,.35925348)" stroke-width="1" stroke-linecap="butt" stroke-miterlimit="10" stroke-linejoin="miter" fill="none" stroke="#000000" d="M501 66.88 497.5 59.88 501 61.63 504.5 59.88 501 66.88Z"/>
<path transform="matrix(.71850696,0,0,.71850696,.35925348,.35925348)" stroke-width="1" stroke-linecap="butt" stroke-miterlimit="10" stroke-linejoin="miter" fill="none" stroke="#000000" d="M511 110H528C534.6667 110 538 106.666667 538 100V14.37"/>
<path transform="matrix(.71850696,0,0,.71850696,.35925348,.35925348)" d="M538 9.12 541.5 16.12 538 14.37 534.5 16.12 538 9.12Z"/>
<path transform="matrix(.71850696,0,0,.71850696,.35925348,.35925348)" stroke-width="1" stroke-linecap="butt" stroke-miterlimit="10" stroke-linejoin="miter" fill="none" stroke="#000000" d="M538 9.12 541.5 16.12 538 14.37 534.5 16.12 538 9.12Z"/>
<path transform="matrix(.71850696,0,0,.71850696,.35925348,.35925348)" stroke-width="1" stroke-linecap="butt" stroke-miterlimit="10" stroke-linejoin="miter" fill="none" stroke="#000000" d=""/>
<path transform="matrix(.71850696,0,0,.71850696,.35925348,.35925348)" d=""/>
<path transform="matrix(.71850696,0,0,.71850696,.35925348,.35925348)" stroke-width="1" stroke-linecap="butt" stroke-miterlimit="10" stroke-linejoin="miter" fill="none" stroke="#000000" d=""/>
<path transform="matrix(.71850696,0,0,.71850696,.35925348,.35925348)" d="M268 48C268 48.65661 267.93595 49.306909 267.80784 49.9509 267.67976 50.594896 267.49006 51.220205 267.23878 51.826829 266.98753 52.433458 266.67948 53.009744 266.31468 53.55569 265.9499 54.101648 265.53535 54.60677 265.07106 55.071065 264.60676 55.535356 264.10163 55.949899 263.5557 56.31469 263.00975 56.67948 262.43345 56.987516 261.8268 57.23879 261.22019 57.490064 260.59489 57.67975 259.9509 57.807847 259.30693 57.935949 258.65663 57.999998 258 58 257.34339 57.999998 256.69309 57.935949 256.04908 57.807847 255.40508 57.67975 254.77976 57.490064 254.17314 57.238786 253.56652 56.98751 252.99022 56.679479 252.44428 56.31469 251.89833 55.949899 251.39322 55.535356 250.92893 55.071065 250.46462 54.60677 250.05007 54.101648 249.68526 53.555696 249.32047 53.009748 249.01244 52.433458 248.76117 51.826829 248.5099 51.220205 248.32022 50.59489 248.19213 49.950899 248.06403 49.306909 247.99999 48.65661 248 48 247.99999 47.343389 248.06404 46.693086 248.19214 46.04909 248.32024 45.405099 248.50992 44.779787 248.7612 44.173158 249.01247 43.566534 249.3205 42.990243 249.68529 42.44429 250.05008 41.898344 250.46462 41.39322 250.92893 40.92893 251.39322 40.464635 251.89835 40.05009 252.44429 39.6853 252.99024 39.320505 253.56652 39.01247 254.17314 38.7612 254.77976 38.509927 255.40508 38.32024 256.04908 38.192144 256.69309 38.06405 257.34339 38 258 38 258.65663 38 259.30693 38.06405 259.9509 38.192144 260.59489 38.32024 261.22019 38.509927 261.8268 38.7612 262.43345 39.01247 263.00975 39.320505 263.5557 39.6853 264.10163 40.05009 264.60676 40.464635 265.07106 40.92893 265.53535 41.39322 265.9499 41.898344 266.31468 42.44429 266.67948 42.990243 266.98753 43.566534 267.23878 44.17316 267.49006 44.779787 267.67976 45.405099 267.80784 46.04909 267.93595 46.693086 268 47.343389 268 48Z" fill="#ffffff"/>
<path transform="matrix(.71850696,0,0,.71850696,.35925348,.35925348)" stroke-width="1" stroke-linecap="butt" stroke-miterlimit="4" stroke-linejoin="miter" fill="none" stroke="#000000" d="M268 48C268 48.65661 267.93595 49.306909 267.80784 49.9509 267.67976 50.594896 267.49006 51.220205 267.23878 51.826829 266.98753 52.433458 266.67948 53.009744 266.31468 53.55569 265.9499 54.101648 265.53535 54.60677 265.07106 55.071065 264.60676 55.535356 264.10163 55.949899 263.5557 56.31469 263.00975 56.67948 262.43345 56.987516 261.8268 57.23879 261.22019 57.490064 260.59489 57.67975 259.9509 57.807847 259.30693 57.935949 258.65663 57.999998 258 58 257.34339 57.999998 256.69309 57.935949 256.04908 57.807847 255.40508 57.67975 254.77976 57.490064 254.17314 57.238786 253.56652 56.98751 252.99022 56.679479 252.44428 56.31469 251.89833 55.949899 251.39322 55.535356 250.92893 55.071065 250.46462 54.60677 250.05007 54.101648 249.68526 53.555696 249.32047 53.009748 249.01244 52.433458 248.76117 51.826829 248.5099 51.220205 248.32022 50.59489 248.19213 49.950899 248.06403 49.306909 247.99999 48.65661 248 48 247.99999 47.343389 248.06404 46.693086 248.19214 46.04909 248.32024 45.405099 248.50992 44.779787 248.7612 44.173158 249.01247 43.566534 249.3205 42.990243 249.68529 42.44429 250.05008 41.898344 250.46462 41.39322 250.92893 40.92893 251.39322 40.464635 251.89835 40.05009 252.44429 39.6853 252.99024 39.320505 253.56652 39.01247 254.17314 38.7612 254.77976 38.509927 255.40508 38.32024 256.04908 38.192144 256.69309 38.06405 257.34339 38 258 38 258.65663 38 259.30693 38.06405 259.9509 38.192144 260.59489 38.32024 261.22019 38.509927 261.8268 38.7612 262.43345 39.01247 263.00975 39.320505 263.5557 39.6853 264.10163 40.05009 264.60676 40.464635 265.07106 40.92893 265.53535 41.39322 265.9499 41.898344 266.31468 42.44429 266.67948 42.990243 266.98753 43.566534 267.23878 44.17316 267.49006 44.779787 267.67976 45.405099 267.80784 46.04909 267.93595 46.693086 268 47.343389 268 48Z"/>
<path transform="matrix(.71850696,0,0,.71850696,.35925348,.35925348)" stroke-width="1" stroke-linecap="butt" stroke-miterlimit="10" stroke-linejoin="miter" fill="none" stroke="#000000" d="M248 48H268"/>
<path transform="matrix(.71850696,0,0,.71850696,.35925348,.35925348)" stroke-width="1" stroke-linecap="butt" stroke-miterlimit="10" stroke-linejoin="miter" fill="none" stroke="#000000" d="M258 38V58"/>
<path transform="matrix(.71850696,0,0,.71850696,.35925348,.35925348)" stroke-width="1" stroke-linecap="butt" stroke-miterlimit="10" stroke-linejoin="miter" fill="none" stroke="#000000" d=""/>
<path transform="matrix(.71850696,0,0,.71850696,.35925348,.35925348)" d=""/>
<path transform="matrix(.71850696,0,0,.71850696,.35925348,.35925348)" stroke-width="1" stroke-linecap="butt" stroke-miterlimit="10" stroke-linejoin="miter" fill="none" stroke="#000000" d=""/>
<path transform="matrix(.71850696,0,0,.71850696,.35925348,.35925348)" stroke-width="1" stroke-linecap="butt" stroke-miterlimit="10" stroke-linejoin="miter" fill="none" stroke="#000000" d="M502 83H501V93.63"/>
<path transform="matrix(.71850696,0,0,.71850696,.35925348,.35925348)" d="M501 98.88 497.5 91.88 501 93.63 504.5 91.88 501 98.88Z"/>
<path transform="matrix(.71850696,0,0,.71850696,.35925348,.35925348)" stroke-width="1" stroke-linecap="butt" stroke-miterlimit="10" stroke-linejoin="miter" fill="none" stroke="#000000" d="M501 98.88 497.5 91.88 501 93.63 504.5 91.88 501 98.88Z"/>
<path transform="matrix(.71850696,0,0,.71850696,.35925348,.35925348)" d="M483 67.5H521C521.394 67.5 521.7841 67.53843 522.1705 67.61529 522.5569 67.69215 522.93209 67.805957 523.2961 67.95671 523.66006 68.107479 524.0058 68.2923 524.3334 68.51118 524.66098 68.73006 524.964 68.97878 525.2426 69.257358 525.5211 69.53593 525.76986 69.839 525.9888 70.166568 526.2076 70.49413 526.3924 70.83991 526.54318 71.20389 526.694 71.56786 526.8078 71.943058 526.88467 72.329448 526.9615 72.71585 526.99996 73.10603 527 73.5V76.5C526.99996 76.89396 526.9615 77.28414 526.88467 77.67054 526.8078 78.05693 526.694 78.43212 526.54318 78.7961 526.3924 79.16007 526.2076 79.50584 525.9888 79.833408 525.76986 80.16097 525.5211 80.46405 525.2426 80.74263 524.964 81.0212 524.66098 81.26993 524.3334 81.4888 524.00576 81.70767 523.66 81.892498 523.296 82.04327 522.932 82.19403 522.5568 82.30784 522.1705 82.384708 521.7841 82.46156 521.394 82.49999 521 82.5H483C482.60603 82.49999 482.21583 82.46156 481.8294 82.384708 481.44303 82.30784 481.0678 82.19403 480.70384 82.04327 480.33985 81.892498 479.99406 81.70767 479.6665 81.48881 479.33897 81.26993 479.0359 81.0212 478.75733 80.74263 478.47877 80.46405 478.23005 80.16097 478.01115 79.833408 477.79228 79.50584 477.60746 79.16007 477.45668 78.7961 477.30595 78.43212 477.1921 78.05693 477.11524 77.67054 477.03843 77.28414 477 76.89396 477 76.5V73.5C477 73.10603 477.03843 72.71585 477.11528 72.329448 477.19215 71.943058 477.30595 71.56786 477.45668 71.20389 477.60746 70.83991 477.79228 70.49413 478.0111 70.166568 478.23 69.839 478.47877 69.53593 478.75733 69.257358 479.0359 68.97878 479.33897 68.73006 479.6665 68.51118 479.99406 68.2923 480.33985 68.107479 480.70384 67.95671 481.0678 67.805957 481.44303 67.69215 481.8294 67.61529 482.21583 67.53843 482.60603 67.5 483 67.5Z" fill="#ffffff"/>
<path transform="matrix(.71850696,0,0,.71850696,.35925348,.35925348)" stroke-width="1" stroke-linecap="butt" stroke-miterlimit="4" stroke-linejoin="miter" fill="none" stroke="#000000" d="M483 67.5H521C521.394 67.5 521.7841 67.53843 522.1705 67.61529 522.5569 67.69215 522.93209 67.805957 523.2961 67.95671 523.66006 68.107479 524.0058 68.2923 524.3334 68.51118 524.66098 68.73006 524.964 68.97878 525.2426 69.257358 525.5211 69.53593 525.76986 69.839 525.9888 70.166568 526.2076 70.49413 526.3924 70.83991 526.54318 71.20389 526.694 71.56786 526.8078 71.943058 526.88467 72.329448 526.9615 72.71585 526.99996 73.10603 527 73.5V76.5C526.99996 76.89396 526.9615 77.28414 526.88467 77.67054 526.8078 78.05693 526.694 78.43212 526.54318 78.7961 526.3924 79.16007 526.2076 79.50584 525.9888 79.833408 525.76986 80.16097 525.5211 80.46405 525.2426 80.74263 524.964 81.0212 524.66098 81.26993 524.3334 81.4888 524.00576 81.70767 523.66 81.892498 523.296 82.04327 522.932 82.19403 522.5568 82.30784 522.1705 82.384708 521.7841 82.46156 521.394 82.49999 521 82.5H483C482.60603 82.49999 482.21583 82.46156 481.8294 82.384708 481.44303 82.30784 481.0678 82.19403 480.70384 82.04327 480.33985 81.892498 479.99406 81.70767 479.6665 81.48881 479.33897 81.26993 479.0359 81.0212 478.75733 80.74263 478.47877 80.46405 478.23005 80.16097 478.01115 79.833408 477.79228 79.50584 477.60746 79.16007 477.45668 78.7961 477.30595 78.43212 477.1921 78.05693 477.11524 77.67054 477.03843 77.28414 477 76.89396 477 76.5V73.5C477 73.10603 477.03843 72.71585 477.11528 72.329448 477.19215 71.943058 477.30595 71.56786 477.45668 71.20389 477.60746 70.83991 477.79228 70.49413 478.0111 70.166568 478.23 69.839 478.47877 69.53593 478.75733 69.257358 479.0359 68.97878 479.33897 68.73006 479.6665 68.51118 479.99406 68.2923 480.33985 68.107479 480.70384 67.95671 481.0678 67.805957 481.44303 67.69215 481.8294 67.61529 482.21583 67.53843 482.60603 67.5 483 67.5Z"/>
</g>
<g clip-path="url(#clip_2)">
<text xml:space="preserve" transform="matrix(.71850696 0 0 .71850696 70.772937 70.05442)" font-size="14.52" font-family="Unnamed"><tspan y="11" x="18.84375">&#x03c3;</tspan></text>
</g>
<g clip-path="url(#clip_3)">
<text xml:space="preserve" transform="matrix(.71850696 0 0 .71850696 1.7962674 29.015332)" font-size="12" font-family="Helvetica"><tspan y="13" x="32.65625"> </tspan></text>
</g>
<g clip-path="url(#clip_4)">
<text xml:space="preserve" transform="matrix(.71850696 0 0 .71850696 1.7962674 29.015332)" font-size="16.94" font-family="Unnamed"><tspan y="13" x="5.34375">c</tspan></text>
</g>
<g clip-path="url(#clip_5)">
<text xml:space="preserve" transform="matrix(.71850696 0 0 .71850696 1.7962674 29.015332)" font-size="11.97" font-family="Unnamed"><tspan y="16" x="12.859375">t</tspan></text>
<text xml:space="preserve" transform="matrix(.71850696 0 0 .71850696 1.7962674 29.015332)" font-size="11.97" font-family="Unnamed"><tspan y="16" x="16.3125">&#x2212;</tspan></text>
<text xml:space="preserve" transform="matrix(.71850696 0 0 .71850696 1.7962674 29.015332)" font-size="11.97" font-family="Unnamed"><tspan y="16" x="24.5">1</tspan></text>
</g>
<g clip-path="url(#clip_6)">
<text xml:space="preserve" transform="matrix(.71850696 0 0 .71850696 121.06842 75.80248)" font-size="16.94" font-family="Unnamed"><tspan y="13" x="20.4375">&#x03c3;</tspan></text>
</g>
<g clip-path="url(#clip_7)">
<text xml:space="preserve" transform="matrix(.71850696 0 0 .71850696 224.53342 75.80248)" font-size="16.94" font-family="Unnamed"><tspan y="13" x="7.515625 12.394348 19.915696 28.385682">tanh</tspan></text>
</g>
<g clip-path="url(#clip_8)">
<text xml:space="preserve" transform="matrix(.71850696 0 0 .71850696 287.04353 74.36546)" font-size="16.94" font-family="Unnamed"><tspan y="13" x="22.4375">&#x03c3;</tspan></text>
</g>
<g clip-path="url(#clip_9)">
<text xml:space="preserve" transform="matrix(.71850696 0 0 .71850696 1.7962674 97.27349)" font-size="12" font-family="Helvetica"><tspan y="13" x="32.65625"> </tspan></text>
</g>
<g clip-path="url(#clip_10)">
<text xml:space="preserve" transform="matrix(.71850696 0 0 .71850696 1.7962674 97.27349)" font-size="16.94" font-family="Unnamed"><tspan y="13" x="5.34375">h</tspan></text>
</g>
<g clip-path="url(#clip_11)">
<text xml:space="preserve" transform="matrix(.71850696 0 0 .71850696 1.7962674 97.27349)" font-size="11.97" font-family="Unnamed"><tspan y="16" x="13.8125">t</tspan></text>
<text xml:space="preserve" transform="matrix(.71850696 0 0 .71850696 1.7962674 97.27349)" font-size="11.97" font-family="Unnamed"><tspan y="16" x="17.265625">&#x2212;</tspan></text>
<text xml:space="preserve" transform="matrix(.71850696 0 0 .71850696 1.7962674 97.27349)" font-size="11.97" font-family="Unnamed"><tspan y="16" x="25.453125">1</tspan></text>
</g>
<g clip-path="url(#clip_12)">
<text xml:space="preserve" transform="matrix(.71850696 0 0 .71850696 33.05132 119.395648)" font-size="12" font-family="Helvetica"><tspan y="13" x="21.703125"> </tspan></text>
</g>
<g clip-path="url(#clip_13)">
<text xml:space="preserve" transform="matrix(.71850696 0 0 .71850696 33.05132 119.395648)" font-size="16.94" font-family="Unnamed"><tspan y="13" x="9.28125">x</tspan></text>
</g>
<g clip-path="url(#clip_14)">
<text xml:space="preserve" transform="matrix(.71850696 0 0 .71850696 33.05132 119.395648)" font-size="11.97" font-family="Unnamed"><tspan y="16" x="16.796875">t</tspan></text>
</g>
<g clip-path="url(#clip_15)">
<text xml:space="preserve" transform="matrix(.71850696 0 0 .71850696 435.05595 74.12971)" font-size="12" font-family="Helvetica"><tspan y="13" x="22.625"> </tspan></text>
</g>
<g clip-path="url(#clip_16)">
<text xml:space="preserve" transform="matrix(.71850696 0 0 .71850696 435.05595 74.12971)" font-size="16.94" font-family="Unnamed"><tspan y="13" x="9.375">h</tspan></text>
</g>
<g clip-path="url(#clip_17)">
<text xml:space="preserve" transform="matrix(.71850696 0 0 .71850696 435.05595 74.12971)" font-size="11.97" font-family="Unnamed"><tspan y="16" x="17.84375">t</tspan></text>
</g>
<g clip-path="url(#clip_18)">
<text xml:space="preserve" transform="matrix(.71850696 0 0 .71850696 435.4152 29.582278)" font-size="12" font-family="Helvetica"><tspan y="13" x="21.703125"> </tspan></text>
</g>
<g clip-path="url(#clip_19)">
<text xml:space="preserve" transform="matrix(.71850696 0 0 .71850696 435.4152 29.582278)" font-size="16.94" font-family="Unnamed"><tspan y="13" x="9.28125">c</tspan></text>
</g>
<g clip-path="url(#clip_20)">
<text xml:space="preserve" transform="matrix(.71850696 0 0 .71850696 435.4152 29.582278)" font-size="11.97" font-family="Unnamed"><tspan y="16" x="16.796875">t</tspan></text>
</g>
<g clip-path="url(#clip_21)">
<text xml:space="preserve" transform="matrix(.71850696 0 0 .71850696 382.60493 14.089472)" font-size="12" font-family="Helvetica"><tspan y="15" x="26.03125"> </tspan></text>
</g>
<g clip-path="url(#clip_22)">
<text xml:space="preserve" transform="matrix(.71850696 0 0 .71850696 382.60493 14.089472)" font-size="16.94" font-family="Unnamed"><tspan y="15" x="12.921875">y</tspan></text>
</g>
<g clip-path="url(#clip_23)">
<text xml:space="preserve" transform="matrix(.71850696 0 0 .71850696 382.60493 14.089472)" font-size="16.94" font-family="Unnamed"><tspan y="14" x="11.953125">&#x02c6;</tspan></text>
</g>
<g clip-path="url(#clip_24)">
<text xml:space="preserve" transform="matrix(.71850696 0 0 .71850696 382.60493 14.089472)" font-size="11.97" font-family="Unnamed"><tspan y="19" x="21.4375">t</tspan></text>
</g>
<g clip-path="url(#clip_25)">
<text xml:space="preserve" transform="matrix(.71850696 0 0 .71850696 328.71693 33.410573)" font-size="60" font-family="Helvetica"><tspan y="56" x="19.796875"> </tspan></text>
</g>
<g clip-path="url(#clip_26)">
<text xml:space="preserve" transform="matrix(.71850696 0 0 .71850696 328.71693 33.410573)" font-size="14.52" font-family="Unnamed"><tspan y="56" x="8.1875">o</tspan></text>
</g>
<g clip-path="url(#clip_27)">
<text xml:space="preserve" transform="matrix(.71850696 0 0 .71850696 328.71693 33.410573)" font-size="10.26" font-family="Unnamed"><tspan y="58" x="15.4375">t</tspan></text>
</g>
<g clip-path="url(#clip_28)">
<text xml:space="preserve" transform="matrix(.71850696 0 0 .71850696 157.71227 34.847585)" font-size="60" font-family="Helvetica"><tspan y="56" x="16.140625"> </tspan></text>
</g>
<g clip-path="url(#clip_29)">
<text xml:space="preserve" transform="matrix(.71850696 0 0 .71850696 157.71227 34.847585)" font-size="14.52" font-family="Unnamed"><tspan y="56" x="7.84375">i</tspan></text>
</g>
<g clip-path="url(#clip_30)">
<text xml:space="preserve" transform="matrix(.71850696 0 0 .71850696 157.71227 34.847585)" font-size="10.26" font-family="Unnamed"><tspan y="58" x="11.875">t</tspan></text>
</g>
<g clip-path="url(#clip_31)">
<text xml:space="preserve" transform="matrix(.71850696 0 0 .71850696 198.66718 35.566095)" font-size="60" font-family="Helvetica"><tspan y="56" x="19.796875"> </tspan></text>
</g>
<g clip-path="url(#clip_32)">
<text xml:space="preserve" transform="matrix(.71850696 0 0 .71850696 198.66718 35.566095)" font-size="14.52" font-family="Unnamed"><tspan y="56" x="8.1875">g</tspan></text>
</g>
<g clip-path="url(#clip_33)">
<text xml:space="preserve" transform="matrix(.71850696 0 0 .71850696 198.66718 35.566095)" font-size="10.26" font-family="Unnamed"><tspan y="58" x="15.4375">t</tspan></text>
</g>
<g clip-path="url(#clip_34)">
<text xml:space="preserve" transform="matrix(.71850696 0 0 .71850696 85.143077 16.884913)" font-size="60" font-family="Helvetica"><tspan y="56" x="16.140625"> </tspan></text>
</g>
<g clip-path="url(#clip_35)">
<text xml:space="preserve" transform="matrix(.71850696 0 0 .71850696 85.143077 16.884913)" font-size="14.52" font-family="Unnamed"><tspan y="56" x="7.84375">f</tspan></text>
</g>
<g clip-path="url(#clip_36)">
<text xml:space="preserve" transform="matrix(.71850696 0 0 .71850696 85.143077 16.884913)" font-size="10.26" font-family="Unnamed"><tspan y="58" x="11.875">t</tspan></text>
</g>
<g clip-path="url(#clip_37)">
<text xml:space="preserve" transform="matrix(.71850696 0 0 .71850696 345.24259 49.217725)" font-size="16.94" font-family="Unnamed"><tspan y="13" x="7.515625 12.394348 19.915696 28.385682">tanh</tspan></text>
</g>
</svg>
