<svg xmlns="http://www.w3.org/2000/svg" xmlns:xlink="http://www.w3.org/1999/xlink" version="1.1" width="758pt" height="322pt" viewBox="0 0 758 322">
<defs>
<clipPath id="clip_0">
<path d="M0 0H758V321.4668H0Z" fill-rule="evenodd"/>
</clipPath>
<clipPath id="clip_1">
<path d="M0 0H758V321.4668H0Z" fill-rule="evenodd"/>
</clipPath>
<clipPath id="clip_2">
<path d="M758 21.21537H-.000000000007275958L0 49.26281H758V21.21537Z" fill-rule="evenodd"/>
</clipPath>
<clipPath id="clip_3">
<path d="M758 21.21537H.000000000003637979L0 56.45446H758V21.21537Z" fill-rule="evenodd"/>
</clipPath>
<clipPath id="clip_4">
<path d="M758 107.51518H-.000000000007275958L0 135.56262H758V107.51518Z" fill-rule="evenodd"/>
</clipPath>
<clipPath id="clip_5">
<path d="M758 107.51518H.000000000003637979L0 142.75428H758V107.51518Z" fill-rule="evenodd"/>
</clipPath>
<clipPath id="clip_6">
<path d="M758 186.62334H-.000000000007275958L0 214.67078H758V186.62334Z" fill-rule="evenodd"/>
</clipPath>
<clipPath id="clip_7">
<path d="M758 186.62334H.000000000003637979L0 222.5816H758V186.62334Z" fill-rule="evenodd"/>
</clipPath>
<clipPath id="clip_8">
<path d="M758 291.62144H-.000000000007275958L0 319.66889H758V291.62144Z" fill-rule="evenodd"/>
</clipPath>
<clipPath id="clip_9">
<path d="M758 291.62144H.000000000003637979L0 321.4668H758V291.62144Z" fill-rule="evenodd"/>
</clipPath>
<clipPath id="clip_10">
<path d="M758 147.06926H.000000000003637979L0 185.18502H758V147.06926Z" fill-rule="evenodd"/>
</clipPath>
<clipPath id="clip_11">
<path d="M0 132.68596H758V147.78842H0Z" fill-rule="evenodd"/>
</clipPath>
</defs>
<g clip-path="url(#clip_0)">
<path transform="matrix(.7191651,0,0,.7191651,0,0)" d="M0 0H1054V474H0Z" fill="#ffffff"/>
</g>
<g clip-path="url(#clip_1)">
<path transform="matrix(.7191651,0,0,.7191651,.35958255,.35958255)" stroke-width="1" stroke-linecap="butt" stroke-miterlimit="10" stroke-linejoin="miter" fill="none" stroke="#000000" d="M890 223H963.63"/>
<path transform="matrix(.7191651,0,0,.7191651,.35958255,.35958255)" d="M968.88 223 961.88 226.5 963.63 223 961.88 219.5 968.88 223Z"/>
<path transform="matrix(.7191651,0,0,.7191651,.35958255,.35958255)" stroke-width="1" stroke-linecap="butt" stroke-miterlimit="10" stroke-linejoin="miter" fill="none" stroke="#000000" d="M968.88 223 961.88 226.5 963.63 223 961.88 219.5 968.88 223Z"/>
<path transform="matrix(.7191651,0,0,.7191651,.35958255,.35958255)" d="M890 223C889.99996 228.3043 888.9849 233.40674 886.955 238.3073 884.9252 243.20787 882.03488 247.53353 878.2842 251.28426 874.5334 255.03498 870.20779 257.9253 865.3072 259.95518 860.4066 261.98506 855.30429 263 850 263 844.6956 263 839.5931 261.98506 834.6925 259.95518 829.79196 257.9253 825.4663 255.03498 821.71566 251.28426 817.9649 247.53353 815.0746 243.20787 813.0447 238.30731 811.01486 233.40676 809.99996 228.3043 810 223 809.99996 217.69565 811.01486 212.59319 813.0447 207.69263 815.0746 202.79207 817.9649 198.46643 821.71566 194.71572 825.4663 190.96498 829.79196 188.07468 834.6925 186.0448 839.5931 184.01494 844.6956 183 850 183 855.30429 183 860.4066 184.01493 865.3072 186.04479 870.20779 188.07468 874.5334 190.96498 878.2842 194.71572 882.03488 198.46643 884.9252 202.79209 886.955 207.69264 888.9849 212.5932 889.99996 217.69565 890 223Z" fill="#ffffff"/>
<path transform="matrix(.7191651,0,0,.7191651,.35958255,.35958255)" stroke-width="7" stroke-linecap="butt" stroke-miterlimit="4" stroke-linejoin="miter" fill="none" stroke="#ff3333" d="M890 223C889.99996 228.3043 888.9849 233.40674 886.955 238.3073 884.9252 243.20787 882.03488 247.53353 878.2842 251.28426 874.5334 255.03498 870.20779 257.9253 865.3072 259.95518 860.4066 261.98506 855.30429 263 850 263 844.6956 263 839.5931 261.98506 834.6925 259.95518 829.79196 257.9253 825.4663 255.03498 821.71566 251.28426 817.9649 247.53353 815.0746 243.20787 813.0447 238.30731 811.01486 233.40676 809.99996 228.3043 810 223 809.99996 217.69565 811.01486 212.59319 813.0447 207.69263 815.0746 202.79207 817.9649 198.46643 821.71566 194.71572 825.4663 190.96498 829.79196 188.07468 834.6925 186.0448 839.5931 184.01494 844.6956 183 850 183 855.30429 183 860.4066 184.01493 865.3072 186.04479 870.20779 188.07468 874.5334 190.96498 878.2842 194.71572 882.03488 198.46643 884.9252 202.79209 886.955 207.69264 888.9849 212.5932 889.99996 217.69565 890 223Z"/>
<path transform="matrix(.7191651,0,0,.7191651,.35958255,.35958255)" stroke-width="1" stroke-linecap="butt" stroke-miterlimit="10" stroke-linejoin="miter" fill="none" stroke="#000000" d="M723 43 807.23 217.27"/>
<path transform="matrix(.7191651,0,0,.7191651,.35958255,.35958255)" d="M809.51 221.99 803.32 217.21 807.23 217.27 809.62 214.17 809.51 221.99Z"/>
<path transform="matrix(.7191651,0,0,.7191651,.35958255,.35958255)" stroke-width="1" stroke-linecap="butt" stroke-miterlimit="10" stroke-linejoin="miter" fill="none" stroke="#000000" d="M809.51 221.99 803.32 217.21 807.23 217.27 809.62 214.17 809.51 221.99Z"/>
<path transform="matrix(.7191651,0,0,.7191651,.35958255,.35958255)" stroke-width="1" stroke-linecap="butt" stroke-miterlimit="10" stroke-linejoin="miter" fill="none" stroke="#000000" d="M723 163 804.76 219.38"/>
<path transform="matrix(.7191651,0,0,.7191651,.35958255,.35958255)" d="M809.08 222.37 801.33 221.27 804.76 219.38 805.3 215.51 809.08 222.37Z"/>
<path transform="matrix(.7191651,0,0,.7191651,.35958255,.35958255)" stroke-width="1" stroke-linecap="butt" stroke-miterlimit="10" stroke-linejoin="miter" fill="none" stroke="#000000" d="M809.08 222.37 801.33 221.27 804.76 219.38 805.3 215.51 809.08 222.37Z"/>
<path transform="matrix(.7191651,0,0,.7191651,.35958255,.35958255)" stroke-width="1" stroke-linecap="butt" stroke-miterlimit="10" stroke-linejoin="miter" fill="none" stroke="#000000" d="M723 283 804.76 226.62"/>
<path transform="matrix(.7191651,0,0,.7191651,.35958255,.35958255)" d="M809.08 223.63 805.3 230.49 804.76 226.62 801.33 224.73 809.08 223.63Z"/>
<path transform="matrix(.7191651,0,0,.7191651,.35958255,.35958255)" stroke-width="1" stroke-linecap="butt" stroke-miterlimit="10" stroke-linejoin="miter" fill="none" stroke="#000000" d="M809.08 223.63 805.3 230.49 804.76 226.62 801.33 224.73 809.08 223.63Z"/>
<path transform="matrix(.7191651,0,0,.7191651,.35958255,.35958255)" stroke-width="1" stroke-linecap="butt" stroke-miterlimit="10" stroke-linejoin="miter" fill="none" stroke="#000000" d="M723 403 807.23 228.73"/>
<path transform="matrix(.7191651,0,0,.7191651,.35958255,.35958255)" d="M809.51 224.01 809.62 231.83 807.23 228.73 803.32 228.79 809.51 224.01Z"/>
<path transform="matrix(.7191651,0,0,.7191651,.35958255,.35958255)" stroke-width="1" stroke-linecap="butt" stroke-miterlimit="10" stroke-linejoin="miter" fill="none" stroke="#000000" d="M809.51 224.01 809.62 231.83 807.23 228.73 803.32 228.79 809.51 224.01Z"/>
<path transform="matrix(.7191651,0,0,.7191651,.35958255,.35958255)" d="M723 163C722.99996 168.3043 721.9849 173.40676 719.9551 178.30731 717.9252 183.20787 715.03488 187.53353 711.2842 191.28426 707.5334 195.03498 703.20779 197.92527 698.30728 199.95516 693.4067 201.98505 688.30429 202.99999 683 203 677.6956 202.99999 672.5932 201.98505 667.6926 199.95516 662.79208 197.92527 658.4664 195.03498 654.7157 191.28426 650.96499 187.53353 648.07467 183.20787 646.04476 178.30731 644.0149 173.40676 642.99996 168.3043 643 163 642.99996 157.69567 644.0149 152.59322 646.04476 147.69264 648.07467 142.79209 650.96499 138.46645 654.7157 134.71573 658.4664 130.965 662.79208 128.07469 667.6926 126.044818 672.5932 124.01494 677.6956 123 683 123 688.30429 123 693.4067 124.01494 698.30728 126.04481 703.20779 128.07469 707.5334 130.965 711.2842 134.71573 715.03488 138.46645 717.9252 142.79209 719.9551 147.69264 721.9849 152.59322 722.99996 157.69567 723 163Z" fill="#ffffff"/>
<path transform="matrix(.7191651,0,0,.7191651,.35958255,.35958255)" stroke-width="7" stroke-linecap="butt" stroke-miterlimit="4" stroke-linejoin="miter" fill="none" stroke="#ff3333" d="M723 163C722.99996 168.3043 721.9849 173.40676 719.9551 178.30731 717.9252 183.20787 715.03488 187.53353 711.2842 191.28426 707.5334 195.03498 703.20779 197.92527 698.30728 199.95516 693.4067 201.98505 688.30429 202.99999 683 203 677.6956 202.99999 672.5932 201.98505 667.6926 199.95516 662.79208 197.92527 658.4664 195.03498 654.7157 191.28426 650.96499 187.53353 648.07467 183.20787 646.04476 178.30731 644.0149 173.40676 642.99996 168.3043 643 163 642.99996 157.69567 644.0149 152.59322 646.04476 147.69264 648.07467 142.79209 650.96499 138.46645 654.7157 134.71573 658.4664 130.965 662.79208 128.07469 667.6926 126.044818 672.5932 124.01494 677.6956 123 683 123 688.30429 123 693.4067 124.01494 698.30728 126.04481 703.20779 128.07469 707.5334 130.965 711.2842 134.71573 715.03488 138.46645 717.9252 142.79209 719.9551 147.69264 721.9849 152.59322 722.99996 157.69567 723 163Z"/>
<path transform="matrix(.7191651,0,0,.7191651,.35958255,.35958255)" d="M723 283C722.99996 288.30433 721.9849 293.40678 719.9551 298.3073 717.9252 303.2079 715.03488 307.53355 711.2842 311.28428 707.5334 315.03498 703.20779 317.9253 698.30728 319.95518 693.4067 321.98506 688.30429 322.99998 683 323 677.6956 322.99998 672.5932 321.98506 667.6926 319.95518 662.79208 317.9253 658.4664 315.03498 654.7157 311.28428 650.96499 307.53355 648.07467 303.2079 646.04476 298.3073 644.0149 293.40678 642.99996 288.30433 643 283 642.99996 277.69566 644.0149 272.5932 646.04476 267.69264 648.07467 262.79209 650.96499 258.46644 654.7157 254.71573 658.4664 250.96498 662.79208 248.07468 667.6926 246.0448 672.5932 244.01494 677.6956 243 683 243 688.30429 243 693.4067 244.01494 698.30728 246.0448 703.20779 248.07468 707.5334 250.96498 711.2842 254.71573 715.03488 258.46644 717.9252 262.79209 719.9551 267.69264 721.9849 272.5932 722.99996 277.69566 723 283Z" fill="#ffffff"/>
<path transform="matrix(.7191651,0,0,.7191651,.35958255,.35958255)" stroke-width="7" stroke-linecap="butt" stroke-miterlimit="4" stroke-linejoin="miter" fill="none" stroke="#ff3333" d="M723 283C722.99996 288.30433 721.9849 293.40678 719.9551 298.3073 717.9252 303.2079 715.03488 307.53355 711.2842 311.28428 707.5334 315.03498 703.20779 317.9253 698.30728 319.95518 693.4067 321.98506 688.30429 322.99998 683 323 677.6956 322.99998 672.5932 321.98506 667.6926 319.95518 662.79208 317.9253 658.4664 315.03498 654.7157 311.28428 650.96499 307.53355 648.07467 303.2079 646.04476 298.3073 644.0149 293.40678 642.99996 288.30433 643 283 642.99996 277.69566 644.0149 272.5932 646.04476 267.69264 648.07467 262.79209 650.96499 258.46644 654.7157 254.71573 658.4664 250.96498 662.79208 248.07468 667.6926 246.0448 672.5932 244.01494 677.6956 243 683 243 688.30429 243 693.4067 244.01494 698.30728 246.0448 703.20779 248.07468 707.5334 250.96498 711.2842 254.71573 715.03488 258.46644 717.9252 262.79209 719.9551 267.69264 721.9849 272.5932 722.99996 277.69566 723 283Z"/>
<path transform="matrix(.7191651,0,0,.7191651,.35958255,.35958255)" d="M723 403C722.99996 408.3043 721.9849 413.4067 719.9551 418.30726 717.9252 423.20787 715.03488 427.5335 711.2842 431.28425 707.5334 435.03495 703.20779 437.92527 698.30728 439.95515 693.4067 441.98503 688.30429 442.99998 683 443 677.6956 442.99998 672.5932 441.98503 667.6926 439.95515 662.79208 437.92527 658.4664 435.03495 654.7157 431.28425 650.96499 427.5335 648.07467 423.20787 646.04476 418.30729 644.0149 413.4067 642.99996 408.3043 643 403 642.99996 397.69566 644.0149 392.59318 646.04476 387.69264 648.07467 382.79206 650.96499 378.4664 654.7157 374.7157 658.4664 370.96498 662.79208 368.07469 667.6926 366.0448 672.5932 364.01493 677.6956 363 683 363 688.30429 363 693.4067 364.01493 698.30728 366.0448 703.20779 368.07469 707.5334 370.96498 711.2842 374.7157 715.03488 378.4664 717.9252 382.79206 719.9551 387.69264 721.9849 392.59318 722.99996 397.69566 723 403Z" fill="#ffffff"/>
<path transform="matrix(.7191651,0,0,.7191651,.35958255,.35958255)" stroke-width="7" stroke-linecap="butt" stroke-miterlimit="4" stroke-linejoin="miter" fill="none" stroke="#ff3333" d="M723 403C722.99996 408.3043 721.9849 413.4067 719.9551 418.30726 717.9252 423.20787 715.03488 427.5335 711.2842 431.28425 707.5334 435.03495 703.20779 437.92527 698.30728 439.95515 693.4067 441.98503 688.30429 442.99998 683 443 677.6956 442.99998 672.5932 441.98503 667.6926 439.95515 662.79208 437.92527 658.4664 435.03495 654.7157 431.28425 650.96499 427.5335 648.07467 423.20787 646.04476 418.30729 644.0149 413.4067 642.99996 408.3043 643 403 642.99996 397.69566 644.0149 392.59318 646.04476 387.69264 648.07467 382.79206 650.96499 378.4664 654.7157 374.7157 658.4664 370.96498 662.79208 368.07469 667.6926 366.0448 672.5932 364.01493 677.6956 363 683 363 688.30429 363 693.4067 364.01493 698.30728 366.0448 703.20779 368.07469 707.5334 370.96498 711.2842 374.7157 715.03488 378.4664 717.9252 382.79206 719.9551 387.69264 721.9849 392.59318 722.99996 397.69566 723 403Z"/>
<path transform="matrix(.7191651,0,0,.7191651,.35958255,.35958255)" d="M723 43C722.99996 48.304327 721.9849 53.40677 719.9551 58.30733 717.9252 63.207895 715.03488 67.53354 711.2842 71.28427 707.5334 75.034999 703.20779 77.9253 698.30728 79.95518 693.4067 81.985057 688.30429 82.99999 683 83 677.6956 82.99999 672.5932 81.985057 667.6926 79.95518 662.79208 77.9253 658.4664 75.034999 654.7157 71.28427 650.96499 67.53354 648.07467 63.207895 646.04476 58.30733 644.0149 53.40677 642.99996 48.304327 643 43 642.99996 37.695669 644.0149 32.59322 646.04476 27.69266 648.07467 22.792098 650.96499 18.466454 654.7157 14.715728 658.4664 10.965 662.79208 8.074697 667.6926 6.044818 672.5932 4.0149395 677.6956 3 683 3 688.30429 3 693.4067 4.0149395 698.30728 6.0448186 703.20779 8.074697 707.5334 10.965 711.2842 14.715728 715.03488 18.466454 717.9252 22.792098 719.9551 27.69266 721.9849 32.59322 722.99996 37.695669 723 43Z" fill="#ffffff"/>
<path transform="matrix(.7191651,0,0,.7191651,.35958255,.35958255)" stroke-width="7" stroke-linecap="butt" stroke-miterlimit="4" stroke-linejoin="miter" fill="none" stroke="#ff3333" d="M723 43C722.99996 48.304327 721.9849 53.40677 719.9551 58.30733 717.9252 63.207895 715.03488 67.53354 711.2842 71.28427 707.5334 75.034999 703.20779 77.9253 698.30728 79.95518 693.4067 81.985057 688.30429 82.99999 683 83 677.6956 82.99999 672.5932 81.985057 667.6926 79.95518 662.79208 77.9253 658.4664 75.034999 654.7157 71.28427 650.96499 67.53354 648.07467 63.207895 646.04476 58.30733 644.0149 53.40677 642.99996 48.304327 643 43 642.99996 37.695669 644.0149 32.59322 646.04476 27.69266 648.07467 22.792098 650.96499 18.466454 654.7157 14.715728 658.4664 10.965 662.79208 8.074697 667.6926 6.044818 672.5932 4.0149395 677.6956 3 683 3 688.30429 3 693.4067 4.0149395 698.30728 6.0448186 703.20779 8.074697 707.5334 10.965 711.2842 14.715728 715.03488 18.466454 717.9252 22.792098 719.9551 27.69266 721.9849 32.59322 722.99996 37.695669 723 43Z"/>
<path transform="matrix(.7191651,0,0,.7191651,.35958255,.35958255)" stroke-width="1" stroke-linecap="butt" stroke-miterlimit="10" stroke-linejoin="miter" fill="none" stroke="#000000" d="M513 43H636.63"/>
<path transform="matrix(.7191651,0,0,.7191651,.35958255,.35958255)" d="M641.88 43 634.88 46.5 636.63 43 634.88 39.5 641.88 43Z"/>
<path transform="matrix(.7191651,0,0,.7191651,.35958255,.35958255)" stroke-width="1" stroke-linecap="butt" stroke-miterlimit="10" stroke-linejoin="miter" fill="none" stroke="#000000" d="M641.88 43 634.88 46.5 636.63 43 634.88 39.5 641.88 43Z"/>
<path transform="matrix(.7191651,0,0,.7191651,.35958255,.35958255)" stroke-width="1" stroke-linecap="butt" stroke-miterlimit="10" stroke-linejoin="miter" fill="none" stroke="#000000" d="M513 43 638.32 158.68"/>
<path transform="matrix(.7191651,0,0,.7191651,.35958255,.35958255)" d="M642.18 162.24 634.66 160.07 638.32 158.68 639.41 154.92 642.18 162.24Z"/>
<path transform="matrix(.7191651,0,0,.7191651,.35958255,.35958255)" stroke-width="1" stroke-linecap="butt" stroke-miterlimit="10" stroke-linejoin="miter" fill="none" stroke="#000000" d="M642.18 162.24 634.66 160.07 638.32 158.68 639.41 154.92 642.18 162.24Z"/>
<path transform="matrix(.7191651,0,0,.7191651,.35958255,.35958255)" stroke-width="1" stroke-linecap="butt" stroke-miterlimit="10" stroke-linejoin="miter" fill="none" stroke="#000000" d="M513 43 639.97 277.4"/>
<path transform="matrix(.7191651,0,0,.7191651,.35958255,.35958255)" d="M642.47 282.02 636.06 277.53 639.97 277.4 642.21 274.19 642.47 282.02Z"/>
<path transform="matrix(.7191651,0,0,.7191651,.35958255,.35958255)" stroke-width="1" stroke-linecap="butt" stroke-miterlimit="10" stroke-linejoin="miter" fill="none" stroke="#000000" d="M642.47 282.02 636.06 277.53 639.97 277.4 642.21 274.19 642.47 282.02Z"/>
<path transform="matrix(.7191651,0,0,.7191651,.35958255,.35958255)" stroke-width="1" stroke-linecap="butt" stroke-miterlimit="10" stroke-linejoin="miter" fill="none" stroke="#000000" d="M513 43 640.84 397.01"/>
<path transform="matrix(.7191651,0,0,.7191651,.35958255,.35958255)" d="M642.62 401.95 636.95 396.55 640.84 397.01 643.53 394.18 642.62 401.95Z"/>
<path transform="matrix(.7191651,0,0,.7191651,.35958255,.35958255)" stroke-width="1" stroke-linecap="butt" stroke-miterlimit="10" stroke-linejoin="miter" fill="none" stroke="#000000" d="M642.62 401.95 636.95 396.55 640.84 397.01 643.53 394.18 642.62 401.95Z"/>
<path transform="matrix(.7191651,0,0,.7191651,.35958255,.35958255)" stroke-width="1" stroke-linecap="butt" stroke-miterlimit="10" stroke-linejoin="miter" fill="none" stroke="#000000" d="M513 163H636.63"/>
<path transform="matrix(.7191651,0,0,.7191651,.35958255,.35958255)" d="M641.88 163 634.88 166.5 636.63 163 634.88 159.5 641.88 163Z"/>
<path transform="matrix(.7191651,0,0,.7191651,.35958255,.35958255)" stroke-width="1" stroke-linecap="butt" stroke-miterlimit="10" stroke-linejoin="miter" fill="none" stroke="#000000" d="M641.88 163 634.88 166.5 636.63 163 634.88 159.5 641.88 163Z"/>
<path transform="matrix(.7191651,0,0,.7191651,.35958255,.35958255)" stroke-width="1" stroke-linecap="butt" stroke-miterlimit="10" stroke-linejoin="miter" fill="none" stroke="#000000" d="M513 163 638.32 278.68"/>
<path transform="matrix(.7191651,0,0,.7191651,.35958255,.35958255)" d="M642.18 282.24 634.66 280.07 638.32 278.68 639.41 274.92 642.18 282.24Z"/>
<path transform="matrix(.7191651,0,0,.7191651,.35958255,.35958255)" stroke-width="1" stroke-linecap="butt" stroke-miterlimit="10" stroke-linejoin="miter" fill="none" stroke="#000000" d="M642.18 282.24 634.66 280.07 638.32 278.68 639.41 274.92 642.18 282.24Z"/>
<path transform="matrix(.7191651,0,0,.7191651,.35958255,.35958255)" stroke-width="1" stroke-linecap="butt" stroke-miterlimit="10" stroke-linejoin="miter" fill="none" stroke="#000000" d="M513 163 639.97 397.4"/>
<path transform="matrix(.7191651,0,0,.7191651,.35958255,.35958255)" d="M642.47 402.02 636.06 397.53 639.97 397.4 642.21 394.19 642.47 402.02Z"/>
<path transform="matrix(.7191651,0,0,.7191651,.35958255,.35958255)" stroke-width="1" stroke-linecap="butt" stroke-miterlimit="10" stroke-linejoin="miter" fill="none" stroke="#000000" d="M642.47 402.02 636.06 397.53 639.97 397.4 642.21 394.19 642.47 402.02Z"/>
<path transform="matrix(.7191651,0,0,.7191651,.35958255,.35958255)" stroke-width="1" stroke-linecap="butt" stroke-miterlimit="10" stroke-linejoin="miter" fill="none" stroke="#000000" d="M513 163 638.32 47.32"/>
<path transform="matrix(.7191651,0,0,.7191651,.35958255,.35958255)" d="M642.18 43.76 639.41 51.08 638.32 47.32 634.66 45.93 642.18 43.76Z"/>
<path transform="matrix(.7191651,0,0,.7191651,.35958255,.35958255)" stroke-width="1" stroke-linecap="butt" stroke-miterlimit="10" stroke-linejoin="miter" fill="none" stroke="#000000" d="M642.18 43.76 639.41 51.08 638.32 47.32 634.66 45.93 642.18 43.76Z"/>
<path transform="matrix(.7191651,0,0,.7191651,.35958255,.35958255)" stroke-width="1" stroke-linecap="butt" stroke-miterlimit="10" stroke-linejoin="miter" fill="none" stroke="#000000" d="M513 283 638.32 167.32"/>
<path transform="matrix(.7191651,0,0,.7191651,.35958255,.35958255)" d="M642.18 163.76 639.41 171.08 638.32 167.32 634.66 165.93 642.18 163.76Z"/>
<path transform="matrix(.7191651,0,0,.7191651,.35958255,.35958255)" stroke-width="1" stroke-linecap="butt" stroke-miterlimit="10" stroke-linejoin="miter" fill="none" stroke="#000000" d="M642.18 163.76 639.41 171.08 638.32 167.32 634.66 165.93 642.18 163.76Z"/>
<path transform="matrix(.7191651,0,0,.7191651,.35958255,.35958255)" stroke-width="1" stroke-linecap="butt" stroke-miterlimit="10" stroke-linejoin="miter" fill="none" stroke="#000000" d="M513 283H636.63"/>
<path transform="matrix(.7191651,0,0,.7191651,.35958255,.35958255)" d="M641.88 283 634.88 286.5 636.63 283 634.88 279.5 641.88 283Z"/>
<path transform="matrix(.7191651,0,0,.7191651,.35958255,.35958255)" stroke-width="1" stroke-linecap="butt" stroke-miterlimit="10" stroke-linejoin="miter" fill="none" stroke="#000000" d="M641.88 283 634.88 286.5 636.63 283 634.88 279.5 641.88 283Z"/>
<path transform="matrix(.7191651,0,0,.7191651,.35958255,.35958255)" stroke-width="1" stroke-linecap="butt" stroke-miterlimit="10" stroke-linejoin="miter" fill="none" stroke="#000000" d="M513 283 638.32 398.68"/>
<path transform="matrix(.7191651,0,0,.7191651,.35958255,.35958255)" d="M642.18 402.24 634.66 400.07 638.32 398.68 639.41 394.92 642.18 402.24Z"/>
<path transform="matrix(.7191651,0,0,.7191651,.35958255,.35958255)" stroke-width="1" stroke-linecap="butt" stroke-miterlimit="10" stroke-linejoin="miter" fill="none" stroke="#000000" d="M642.18 402.24 634.66 400.07 638.32 398.68 639.41 394.92 642.18 402.24Z"/>
<path transform="matrix(.7191651,0,0,.7191651,.35958255,.35958255)" stroke-width="1" stroke-linecap="butt" stroke-miterlimit="10" stroke-linejoin="miter" fill="none" stroke="#000000" d="M513 283 639.97 48.6"/>
<path transform="matrix(.7191651,0,0,.7191651,.35958255,.35958255)" d="M642.47 43.98 642.21 51.81 639.97 48.6 636.06 48.47 642.47 43.98Z"/>
<path transform="matrix(.7191651,0,0,.7191651,.35958255,.35958255)" stroke-width="1" stroke-linecap="butt" stroke-miterlimit="10" stroke-linejoin="miter" fill="none" stroke="#000000" d="M642.47 43.98 642.21 51.81 639.97 48.6 636.06 48.47 642.47 43.98Z"/>
<path transform="matrix(.7191651,0,0,.7191651,.35958255,.35958255)" stroke-width="1" stroke-linecap="butt" stroke-miterlimit="10" stroke-linejoin="miter" fill="none" stroke="#000000" d="M513 403 639.97 168.6"/>
<path transform="matrix(.7191651,0,0,.7191651,.35958255,.35958255)" d="M642.47 163.98 642.21 171.81 639.97 168.6 636.06 168.47 642.47 163.98Z"/>
<path transform="matrix(.7191651,0,0,.7191651,.35958255,.35958255)" stroke-width="1" stroke-linecap="butt" stroke-miterlimit="10" stroke-linejoin="miter" fill="none" stroke="#000000" d="M642.47 163.98 642.21 171.81 639.97 168.6 636.06 168.47 642.47 163.98Z"/>
<path transform="matrix(.7191651,0,0,.7191651,.35958255,.35958255)" stroke-width="1" stroke-linecap="butt" stroke-miterlimit="10" stroke-linejoin="miter" fill="none" stroke="#000000" d="M513 403 638.32 287.32"/>
<path transform="matrix(.7191651,0,0,.7191651,.35958255,.35958255)" d="M642.18 283.76 639.41 291.08 638.32 287.32 634.66 285.93 642.18 283.76Z"/>
<path transform="matrix(.7191651,0,0,.7191651,.35958255,.35958255)" stroke-width="1" stroke-linecap="butt" stroke-miterlimit="10" stroke-linejoin="miter" fill="none" stroke="#000000" d="M642.18 283.76 639.41 291.08 638.32 287.32 634.66 285.93 642.18 283.76Z"/>
<path transform="matrix(.7191651,0,0,.7191651,.35958255,.35958255)" stroke-width="1" stroke-linecap="butt" stroke-miterlimit="10" stroke-linejoin="miter" fill="none" stroke="#000000" d="M513 403H636.63"/>
<path transform="matrix(.7191651,0,0,.7191651,.35958255,.35958255)" d="M641.88 403 634.88 406.5 636.63 403 634.88 399.5 641.88 403Z"/>
<path transform="matrix(.7191651,0,0,.7191651,.35958255,.35958255)" stroke-width="1" stroke-linecap="butt" stroke-miterlimit="10" stroke-linejoin="miter" fill="none" stroke="#000000" d="M641.88 403 634.88 406.5 636.63 403 634.88 399.5 641.88 403Z"/>
<path transform="matrix(.7191651,0,0,.7191651,.35958255,.35958255)" stroke-width="1" stroke-linecap="butt" stroke-miterlimit="10" stroke-linejoin="miter" fill="none" stroke="#000000" d="M513 403 640.84 48.99"/>
<path transform="matrix(.7191651,0,0,.7191651,.35958255,.35958255)" d="M642.62 44.05 643.53 51.82 640.84 48.99 636.95 49.45 642.62 44.05Z"/>
<path transform="matrix(.7191651,0,0,.7191651,.35958255,.35958255)" stroke-width="1" stroke-linecap="butt" stroke-miterlimit="10" stroke-linejoin="miter" fill="none" stroke="#000000" d="M642.62 44.05 643.53 51.82 640.84 48.99 636.95 49.45 642.62 44.05Z"/>
<path transform="matrix(.7191651,0,0,.7191651,.35958255,.35958255)" d="M513 43C512.99996 48.304327 511.985 53.40677 509.9551 58.30733 507.92524 63.207895 505.0349 67.53354 501.2842 71.28427 497.53346 75.034999 493.2078 77.9253 488.30726 79.95518 483.4067 81.985057 478.3043 82.99999 473 83 467.69563 82.99999 462.59315 81.985057 457.6926 79.95518 452.79203 77.9253 448.4664 75.034999 444.7157 71.28427 440.96495 67.53354 438.07466 63.207895 436.04478 58.30733 434.0149 53.40677 432.99998 48.304327 433 43 432.99998 37.695669 434.01487 32.59322 436.04475 27.69266 438.07463 22.792098 440.96495 18.466454 444.7157 14.715728 448.4664 10.965 452.79203 8.074697 457.69264 6.044818 462.59318 4.0149395 467.69563 3 473 3 478.3043 3 483.4067 4.0149395 488.30726 6.0448186 493.2078 8.074697 497.53346 10.965 501.2842 14.715728 505.0349 18.466454 507.92524 22.792098 509.9551 27.69266 511.985 32.59322 512.99996 37.695669 513 43Z" fill="#ffffff"/>
<path transform="matrix(.7191651,0,0,.7191651,.35958255,.35958255)" stroke-width="7" stroke-linecap="butt" stroke-miterlimit="4" stroke-linejoin="miter" fill="none" stroke="#ff3333" d="M513 43C512.99996 48.304327 511.985 53.40677 509.9551 58.30733 507.92524 63.207895 505.0349 67.53354 501.2842 71.28427 497.53346 75.034999 493.2078 77.9253 488.30726 79.95518 483.4067 81.985057 478.3043 82.99999 473 83 467.69563 82.99999 462.59315 81.985057 457.6926 79.95518 452.79203 77.9253 448.4664 75.034999 444.7157 71.28427 440.96495 67.53354 438.07466 63.207895 436.04478 58.30733 434.0149 53.40677 432.99998 48.304327 433 43 432.99998 37.695669 434.01487 32.59322 436.04475 27.69266 438.07463 22.792098 440.96495 18.466454 444.7157 14.715728 448.4664 10.965 452.79203 8.074697 457.69264 6.044818 462.59318 4.0149395 467.69563 3 473 3 478.3043 3 483.4067 4.0149395 488.30726 6.0448186 493.2078 8.074697 497.53346 10.965 501.2842 14.715728 505.0349 18.466454 507.92524 22.792098 509.9551 27.69266 511.985 32.59322 512.99996 37.695669 513 43Z"/>
<path transform="matrix(.7191651,0,0,.7191651,.35958255,.35958255)" d="M513 163C512.99996 168.3043 511.985 173.40676 509.9551 178.30731 507.92524 183.20787 505.0349 187.53353 501.2842 191.28426 497.53346 195.03498 493.2078 197.92527 488.30726 199.95516 483.4067 201.98505 478.3043 202.99999 473 203 467.69563 202.99999 462.59315 201.98505 457.6926 199.95516 452.79203 197.92527 448.4664 195.03498 444.7157 191.28426 440.96495 187.53353 438.07466 183.20787 436.04478 178.30731 434.0149 173.40676 432.99998 168.3043 433 163 432.99998 157.69567 434.01487 152.59322 436.04475 147.69264 438.07463 142.79209 440.96495 138.46645 444.7157 134.71573 448.4664 130.965 452.79203 128.07469 457.69264 126.044818 462.59318 124.01494 467.69563 123 473 123 478.3043 123 483.4067 124.01494 488.30726 126.04481 493.2078 128.07469 497.53346 130.965 501.2842 134.71573 505.0349 138.46645 507.92524 142.79209 509.9551 147.69264 511.985 152.59322 512.99996 157.69567 513 163Z" fill="#ffffff"/>
<path transform="matrix(.7191651,0,0,.7191651,.35958255,.35958255)" stroke-width="7" stroke-linecap="butt" stroke-miterlimit="4" stroke-linejoin="miter" fill="none" stroke="#ff3333" d="M513 163C512.99996 168.3043 511.985 173.40676 509.9551 178.30731 507.92524 183.20787 505.0349 187.53353 501.2842 191.28426 497.53346 195.03498 493.2078 197.92527 488.30726 199.95516 483.4067 201.98505 478.3043 202.99999 473 203 467.69563 202.99999 462.59315 201.98505 457.6926 199.95516 452.79203 197.92527 448.4664 195.03498 444.7157 191.28426 440.96495 187.53353 438.07466 183.20787 436.04478 178.30731 434.0149 173.40676 432.99998 168.3043 433 163 432.99998 157.69567 434.01487 152.59322 436.04475 147.69264 438.07463 142.79209 440.96495 138.46645 444.7157 134.71573 448.4664 130.965 452.79203 128.07469 457.69264 126.044818 462.59318 124.01494 467.69563 123 473 123 478.3043 123 483.4067 124.01494 488.30726 126.04481 493.2078 128.07469 497.53346 130.965 501.2842 134.71573 505.0349 138.46645 507.92524 142.79209 509.9551 147.69264 511.985 152.59322 512.99996 157.69567 513 163Z"/>
<path transform="matrix(.7191651,0,0,.7191651,.35958255,.35958255)" d="M513 283C512.99996 288.30433 511.985 293.40678 509.9551 298.3073 507.92524 303.2079 505.0349 307.53355 501.2842 311.28428 497.53346 315.03498 493.2078 317.9253 488.30726 319.95518 483.4067 321.98506 478.3043 322.99998 473 323 467.69563 322.99998 462.59315 321.98506 457.6926 319.95518 452.79203 317.9253 448.4664 315.03498 444.7157 311.28428 440.96495 307.53355 438.07466 303.2079 436.04478 298.3073 434.0149 293.40678 432.99998 288.30433 433 283 432.99998 277.69566 434.01487 272.5932 436.04475 267.69264 438.07463 262.79209 440.96495 258.46644 444.7157 254.71573 448.4664 250.96498 452.79203 248.07468 457.69264 246.0448 462.59318 244.01494 467.69563 243 473 243 478.3043 243 483.4067 244.01494 488.30726 246.0448 493.2078 248.07468 497.53346 250.96498 501.2842 254.71573 505.0349 258.46644 507.92524 262.79209 509.9551 267.69264 511.985 272.5932 512.99996 277.69566 513 283Z" fill="#ffffff"/>
<path transform="matrix(.7191651,0,0,.7191651,.35958255,.35958255)" stroke-width="7" stroke-linecap="butt" stroke-miterlimit="4" stroke-linejoin="miter" fill="none" stroke="#ff3333" d="M513 283C512.99996 288.30433 511.985 293.40678 509.9551 298.3073 507.92524 303.2079 505.0349 307.53355 501.2842 311.28428 497.53346 315.03498 493.2078 317.9253 488.30726 319.95518 483.4067 321.98506 478.3043 322.99998 473 323 467.69563 322.99998 462.59315 321.98506 457.6926 319.95518 452.79203 317.9253 448.4664 315.03498 444.7157 311.28428 440.96495 307.53355 438.07466 303.2079 436.04478 298.3073 434.0149 293.40678 432.99998 288.30433 433 283 432.99998 277.69566 434.01487 272.5932 436.04475 267.69264 438.07463 262.79209 440.96495 258.46644 444.7157 254.71573 448.4664 250.96498 452.79203 248.07468 457.69264 246.0448 462.59318 244.01494 467.69563 243 473 243 478.3043 243 483.4067 244.01494 488.30726 246.0448 493.2078 248.07468 497.53346 250.96498 501.2842 254.71573 505.0349 258.46644 507.92524 262.79209 509.9551 267.69264 511.985 272.5932 512.99996 277.69566 513 283Z"/>
<path transform="matrix(.7191651,0,0,.7191651,.35958255,.35958255)" d="M513 403C512.99996 408.3043 511.985 413.4067 509.9551 418.30726 507.92524 423.20787 505.0349 427.5335 501.2842 431.28425 497.53346 435.03495 493.2078 437.92527 488.30726 439.95515 483.4067 441.98503 478.3043 442.99998 473 443 467.69563 442.99998 462.59315 441.98503 457.6926 439.95515 452.79203 437.92527 448.4664 435.03495 444.7157 431.28425 440.96495 427.5335 438.07466 423.20787 436.04478 418.30729 434.0149 413.4067 432.99998 408.3043 433 403 432.99998 397.69566 434.01487 392.59318 436.04475 387.69264 438.07463 382.79206 440.96495 378.4664 444.7157 374.7157 448.4664 370.96498 452.79203 368.07469 457.69264 366.0448 462.59318 364.01493 467.69563 363 473 363 478.3043 363 483.4067 364.01493 488.30726 366.0448 493.2078 368.07469 497.53346 370.96498 501.2842 374.7157 505.0349 378.4664 507.92524 382.79206 509.9551 387.69264 511.985 392.59318 512.99996 397.69566 513 403Z" fill="#ffffff"/>
<path transform="matrix(.7191651,0,0,.7191651,.35958255,.35958255)" stroke-width="7" stroke-linecap="butt" stroke-miterlimit="4" stroke-linejoin="miter" fill="none" stroke="#ff3333" d="M513 403C512.99996 408.3043 511.985 413.4067 509.9551 418.30726 507.92524 423.20787 505.0349 427.5335 501.2842 431.28425 497.53346 435.03495 493.2078 437.92527 488.30726 439.95515 483.4067 441.98503 478.3043 442.99998 473 443 467.69563 442.99998 462.59315 441.98503 457.6926 439.95515 452.79203 437.92527 448.4664 435.03495 444.7157 431.28425 440.96495 427.5335 438.07466 423.20787 436.04478 418.30729 434.0149 413.4067 432.99998 408.3043 433 403 432.99998 397.69566 434.01487 392.59318 436.04475 387.69264 438.07463 382.79206 440.96495 378.4664 444.7157 374.7157 448.4664 370.96498 452.79203 368.07469 457.69264 366.0448 462.59318 364.01493 467.69563 363 473 363 478.3043 363 483.4067 364.01493 488.30726 366.0448 493.2078 368.07469 497.53346 370.96498 501.2842 374.7157 505.0349 378.4664 507.92524 382.79206 509.9551 387.69264 511.985 392.59318 512.99996 397.69566 513 403Z"/>
<path transform="matrix(.7191651,0,0,.7191651,.35958255,.35958255)" stroke-width="1" stroke-linecap="butt" stroke-miterlimit="10" stroke-linejoin="miter" fill="none" stroke="#000000" d="M303 43H426.63"/>
<path transform="matrix(.7191651,0,0,.7191651,.35958255,.35958255)" d="M431.88 43 424.88 46.5 426.63 43 424.88 39.5 431.88 43Z"/>
<path transform="matrix(.7191651,0,0,.7191651,.35958255,.35958255)" stroke-width="1" stroke-linecap="butt" stroke-miterlimit="10" stroke-linejoin="miter" fill="none" stroke="#000000" d="M431.88 43 424.88 46.5 426.63 43 424.88 39.5 431.88 43Z"/>
<path transform="matrix(.7191651,0,0,.7191651,.35958255,.35958255)" stroke-width="1" stroke-linecap="butt" stroke-miterlimit="10" stroke-linejoin="miter" fill="none" stroke="#000000" d="M303 43 428.32 158.68"/>
<path transform="matrix(.7191651,0,0,.7191651,.35958255,.35958255)" d="M432.18 162.24 424.66 160.07 428.32 158.68 429.41 154.92 432.18 162.24Z"/>
<path transform="matrix(.7191651,0,0,.7191651,.35958255,.35958255)" stroke-width="1" stroke-linecap="butt" stroke-miterlimit="10" stroke-linejoin="miter" fill="none" stroke="#000000" d="M432.18 162.24 424.66 160.07 428.32 158.68 429.41 154.92 432.18 162.24Z"/>
<path transform="matrix(.7191651,0,0,.7191651,.35958255,.35958255)" stroke-width="1" stroke-linecap="butt" stroke-miterlimit="10" stroke-linejoin="miter" fill="none" stroke="#000000" d="M303 43 429.97 277.4"/>
<path transform="matrix(.7191651,0,0,.7191651,.35958255,.35958255)" d="M432.47 282.02 426.06 277.53 429.97 277.4 432.21 274.19 432.47 282.02Z"/>
<path transform="matrix(.7191651,0,0,.7191651,.35958255,.35958255)" stroke-width="1" stroke-linecap="butt" stroke-miterlimit="10" stroke-linejoin="miter" fill="none" stroke="#000000" d="M432.47 282.02 426.06 277.53 429.97 277.4 432.21 274.19 432.47 282.02Z"/>
<path transform="matrix(.7191651,0,0,.7191651,.35958255,.35958255)" stroke-width="1" stroke-linecap="butt" stroke-miterlimit="10" stroke-linejoin="miter" fill="none" stroke="#000000" d="M303 43 430.84 397.01"/>
<path transform="matrix(.7191651,0,0,.7191651,.35958255,.35958255)" d="M432.62 401.95 426.95 396.55 430.84 397.01 433.53 394.18 432.62 401.95Z"/>
<path transform="matrix(.7191651,0,0,.7191651,.35958255,.35958255)" stroke-width="1" stroke-linecap="butt" stroke-miterlimit="10" stroke-linejoin="miter" fill="none" stroke="#000000" d="M432.62 401.95 426.95 396.55 430.84 397.01 433.53 394.18 432.62 401.95Z"/>
<path transform="matrix(.7191651,0,0,.7191651,.35958255,.35958255)" stroke-width="1" stroke-linecap="butt" stroke-miterlimit="10" stroke-linejoin="miter" fill="none" stroke="#000000" d="M303 163H426.63"/>
<path transform="matrix(.7191651,0,0,.7191651,.35958255,.35958255)" d="M431.88 163 424.88 166.5 426.63 163 424.88 159.5 431.88 163Z"/>
<path transform="matrix(.7191651,0,0,.7191651,.35958255,.35958255)" stroke-width="1" stroke-linecap="butt" stroke-miterlimit="10" stroke-linejoin="miter" fill="none" stroke="#000000" d="M431.88 163 424.88 166.5 426.63 163 424.88 159.5 431.88 163Z"/>
<path transform="matrix(.7191651,0,0,.7191651,.35958255,.35958255)" stroke-width="1" stroke-linecap="butt" stroke-miterlimit="10" stroke-linejoin="miter" fill="none" stroke="#000000" d="M303 163 428.32 278.68"/>
<path transform="matrix(.7191651,0,0,.7191651,.35958255,.35958255)" d="M432.18 282.24 424.66 280.07 428.32 278.68 429.41 274.92 432.18 282.24Z"/>
<path transform="matrix(.7191651,0,0,.7191651,.35958255,.35958255)" stroke-width="1" stroke-linecap="butt" stroke-miterlimit="10" stroke-linejoin="miter" fill="none" stroke="#000000" d="M432.18 282.24 424.66 280.07 428.32 278.68 429.41 274.92 432.18 282.24Z"/>
<path transform="matrix(.7191651,0,0,.7191651,.35958255,.35958255)" stroke-width="1" stroke-linecap="butt" stroke-miterlimit="10" stroke-linejoin="miter" fill="none" stroke="#000000" d="M303 163 429.97 397.4"/>
<path transform="matrix(.7191651,0,0,.7191651,.35958255,.35958255)" d="M432.47 402.02 426.06 397.53 429.97 397.4 432.21 394.19 432.47 402.02Z"/>
<path transform="matrix(.7191651,0,0,.7191651,.35958255,.35958255)" stroke-width="1" stroke-linecap="butt" stroke-miterlimit="10" stroke-linejoin="miter" fill="none" stroke="#000000" d="M432.47 402.02 426.06 397.53 429.97 397.4 432.21 394.19 432.47 402.02Z"/>
<path transform="matrix(.7191651,0,0,.7191651,.35958255,.35958255)" stroke-width="1" stroke-linecap="butt" stroke-miterlimit="10" stroke-linejoin="miter" fill="none" stroke="#000000" d="M303 163 428.32 47.32"/>
<path transform="matrix(.7191651,0,0,.7191651,.35958255,.35958255)" d="M432.18 43.76 429.41 51.08 428.32 47.32 424.66 45.93 432.18 43.76Z"/>
<path transform="matrix(.7191651,0,0,.7191651,.35958255,.35958255)" stroke-width="1" stroke-linecap="butt" stroke-miterlimit="10" stroke-linejoin="miter" fill="none" stroke="#000000" d="M432.18 43.76 429.41 51.08 428.32 47.32 424.66 45.93 432.18 43.76Z"/>
<path transform="matrix(.7191651,0,0,.7191651,.35958255,.35958255)" stroke-width="1" stroke-linecap="butt" stroke-miterlimit="10" stroke-linejoin="miter" fill="none" stroke="#000000" d="M303 283 428.32 167.32"/>
<path transform="matrix(.7191651,0,0,.7191651,.35958255,.35958255)" d="M432.18 163.76 429.41 171.08 428.32 167.32 424.66 165.93 432.18 163.76Z"/>
<path transform="matrix(.7191651,0,0,.7191651,.35958255,.35958255)" stroke-width="1" stroke-linecap="butt" stroke-miterlimit="10" stroke-linejoin="miter" fill="none" stroke="#000000" d="M432.18 163.76 429.41 171.08 428.32 167.32 424.66 165.93 432.18 163.76Z"/>
<path transform="matrix(.7191651,0,0,.7191651,.35958255,.35958255)" stroke-width="1" stroke-linecap="butt" stroke-miterlimit="10" stroke-linejoin="miter" fill="none" stroke="#000000" d="M303 283H426.63"/>
<path transform="matrix(.7191651,0,0,.7191651,.35958255,.35958255)" d="M431.88 283 424.88 286.5 426.63 283 424.88 279.5 431.88 283Z"/>
<path transform="matrix(.7191651,0,0,.7191651,.35958255,.35958255)" stroke-width="1" stroke-linecap="butt" stroke-miterlimit="10" stroke-linejoin="miter" fill="none" stroke="#000000" d="M431.88 283 424.88 286.5 426.63 283 424.88 279.5 431.88 283Z"/>
<path transform="matrix(.7191651,0,0,.7191651,.35958255,.35958255)" stroke-width="1" stroke-linecap="butt" stroke-miterlimit="10" stroke-linejoin="miter" fill="none" stroke="#000000" d="M303 283 428.32 398.68"/>
<path transform="matrix(.7191651,0,0,.7191651,.35958255,.35958255)" d="M432.18 402.24 424.66 400.07 428.32 398.68 429.41 394.92 432.18 402.24Z"/>
<path transform="matrix(.7191651,0,0,.7191651,.35958255,.35958255)" stroke-width="1" stroke-linecap="butt" stroke-miterlimit="10" stroke-linejoin="miter" fill="none" stroke="#000000" d="M432.18 402.24 424.66 400.07 428.32 398.68 429.41 394.92 432.18 402.24Z"/>
<path transform="matrix(.7191651,0,0,.7191651,.35958255,.35958255)" stroke-width="1" stroke-linecap="butt" stroke-miterlimit="10" stroke-linejoin="miter" fill="none" stroke="#000000" d="M303 283 429.97 48.6"/>
<path transform="matrix(.7191651,0,0,.7191651,.35958255,.35958255)" d="M432.47 43.98 432.21 51.81 429.97 48.6 426.06 48.47 432.47 43.98Z"/>
<path transform="matrix(.7191651,0,0,.7191651,.35958255,.35958255)" stroke-width="1" stroke-linecap="butt" stroke-miterlimit="10" stroke-linejoin="miter" fill="none" stroke="#000000" d="M432.47 43.98 432.21 51.81 429.97 48.6 426.06 48.47 432.47 43.98Z"/>
<path transform="matrix(.7191651,0,0,.7191651,.35958255,.35958255)" stroke-width="1" stroke-linecap="butt" stroke-miterlimit="10" stroke-linejoin="miter" fill="none" stroke="#000000" d="M303 403 429.97 168.6"/>
<path transform="matrix(.7191651,0,0,.7191651,.35958255,.35958255)" d="M432.47 163.98 432.21 171.81 429.97 168.6 426.06 168.47 432.47 163.98Z"/>
<path transform="matrix(.7191651,0,0,.7191651,.35958255,.35958255)" stroke-width="1" stroke-linecap="butt" stroke-miterlimit="10" stroke-linejoin="miter" fill="none" stroke="#000000" d="M432.47 163.98 432.21 171.81 429.97 168.6 426.06 168.47 432.47 163.98Z"/>
<path transform="matrix(.7191651,0,0,.7191651,.35958255,.35958255)" stroke-width="1" stroke-linecap="butt" stroke-miterlimit="10" stroke-linejoin="miter" fill="none" stroke="#000000" d="M303 403 428.32 287.32"/>
<path transform="matrix(.7191651,0,0,.7191651,.35958255,.35958255)" d="M432.18 283.76 429.41 291.08 428.32 287.32 424.66 285.93 432.18 283.76Z"/>
<path transform="matrix(.7191651,0,0,.7191651,.35958255,.35958255)" stroke-width="1" stroke-linecap="butt" stroke-miterlimit="10" stroke-linejoin="miter" fill="none" stroke="#000000" d="M432.18 283.76 429.41 291.08 428.32 287.32 424.66 285.93 432.18 283.76Z"/>
<path transform="matrix(.7191651,0,0,.7191651,.35958255,.35958255)" stroke-width="1" stroke-linecap="butt" stroke-miterlimit="10" stroke-linejoin="miter" fill="none" stroke="#000000" d="M303 403H426.63"/>
<path transform="matrix(.7191651,0,0,.7191651,.35958255,.35958255)" d="M431.88 403 424.88 406.5 426.63 403 424.88 399.5 431.88 403Z"/>
<path transform="matrix(.7191651,0,0,.7191651,.35958255,.35958255)" stroke-width="1" stroke-linecap="butt" stroke-miterlimit="10" stroke-linejoin="miter" fill="none" stroke="#000000" d="M431.88 403 424.88 406.5 426.63 403 424.88 399.5 431.88 403Z"/>
<path transform="matrix(.7191651,0,0,.7191651,.35958255,.35958255)" stroke-width="1" stroke-linecap="butt" stroke-miterlimit="10" stroke-linejoin="miter" fill="none" stroke="#000000" d="M303 403 430.84 48.99"/>
<path transform="matrix(.7191651,0,0,.7191651,.35958255,.35958255)" d="M432.62 44.05 433.53 51.82 430.84 48.99 426.95 49.45 432.62 44.05Z"/>
<path transform="matrix(.7191651,0,0,.7191651,.35958255,.35958255)" stroke-width="1" stroke-linecap="butt" stroke-miterlimit="10" stroke-linejoin="miter" fill="none" stroke="#000000" d="M432.62 44.05 433.53 51.82 430.84 48.99 426.95 49.45 432.62 44.05Z"/>
<path transform="matrix(.7191651,0,0,.7191651,.35958255,.35958255)" d="M303 43C302.99998 48.304327 301.98506 53.40677 299.95518 58.30733 297.92527 63.207895 295.03495 67.53354 291.28425 71.28427 287.5335 75.034999 283.20787 77.9253 278.30729 79.95518 273.40675 81.985057 268.3043 82.99999 263 83 257.69566 82.99999 252.5932 81.985057 247.69263 79.95518 242.79207 77.9253 238.46643 75.034999 234.71572 71.28427 230.96498 67.53354 228.07468 63.207895 226.0448 58.30733 224.01493 53.40677 222.99999 48.304327 223 43 222.99999 37.695669 224.01493 32.59322 226.0448 27.69266 228.07468 22.792098 230.96498 18.466454 234.71572 14.715728 238.46643 10.965 242.79207 8.074697 247.69263 6.044818 252.5932 4.0149395 257.69566 3 263 3 268.3043 3 273.40675 4.0149395 278.30729 6.0448186 283.20787 8.074697 287.5335 10.965 291.28425 14.715728 295.03495 18.466454 297.92527 22.792098 299.95518 27.69266 301.98506 32.59322 302.99998 37.695669 303 43Z" fill="#ffffff"/>
<path transform="matrix(.7191651,0,0,.7191651,.35958255,.35958255)" stroke-width="7" stroke-linecap="butt" stroke-miterlimit="4" stroke-linejoin="miter" fill="none" stroke="#ff3333" d="M303 43C302.99998 48.304327 301.98506 53.40677 299.95518 58.30733 297.92527 63.207895 295.03495 67.53354 291.28425 71.28427 287.5335 75.034999 283.20787 77.9253 278.30729 79.95518 273.40675 81.985057 268.3043 82.99999 263 83 257.69566 82.99999 252.5932 81.985057 247.69263 79.95518 242.79207 77.9253 238.46643 75.034999 234.71572 71.28427 230.96498 67.53354 228.07468 63.207895 226.0448 58.30733 224.01493 53.40677 222.99999 48.304327 223 43 222.99999 37.695669 224.01493 32.59322 226.0448 27.69266 228.07468 22.792098 230.96498 18.466454 234.71572 14.715728 238.46643 10.965 242.79207 8.074697 247.69263 6.044818 252.5932 4.0149395 257.69566 3 263 3 268.3043 3 273.40675 4.0149395 278.30729 6.0448186 283.20787 8.074697 287.5335 10.965 291.28425 14.715728 295.03495 18.466454 297.92527 22.792098 299.95518 27.69266 301.98506 32.59322 302.99998 37.695669 303 43Z"/>
<path transform="matrix(.7191651,0,0,.7191651,.35958255,.35958255)" d="M303 163C302.99998 168.3043 301.98506 173.40676 299.95518 178.30731 297.92527 183.20787 295.03495 187.53353 291.28425 191.28426 287.5335 195.03498 283.20787 197.92527 278.30729 199.95516 273.40675 201.98505 268.3043 202.99999 263 203 257.69566 202.99999 252.5932 201.98505 247.69263 199.95516 242.79207 197.92527 238.46643 195.03498 234.71572 191.28426 230.96498 187.53353 228.07468 183.20787 226.0448 178.30731 224.01493 173.40676 222.99999 168.3043 223 163 222.99999 157.69567 224.01493 152.59322 226.0448 147.69264 228.07468 142.79209 230.96498 138.46645 234.71572 134.71573 238.46643 130.965 242.79207 128.07469 247.69263 126.044818 252.5932 124.01494 257.69566 123 263 123 268.3043 123 273.40675 124.01494 278.30729 126.04481 283.20787 128.07469 287.5335 130.965 291.28425 134.71573 295.03495 138.46645 297.92527 142.79209 299.95518 147.69264 301.98506 152.59322 302.99998 157.69567 303 163Z" fill="#ffffff"/>
<path transform="matrix(.7191651,0,0,.7191651,.35958255,.35958255)" stroke-width="7" stroke-linecap="butt" stroke-miterlimit="4" stroke-linejoin="miter" fill="none" stroke="#ff3333" d="M303 163C302.99998 168.3043 301.98506 173.40676 299.95518 178.30731 297.92527 183.20787 295.03495 187.53353 291.28425 191.28426 287.5335 195.03498 283.20787 197.92527 278.30729 199.95516 273.40675 201.98505 268.3043 202.99999 263 203 257.69566 202.99999 252.5932 201.98505 247.69263 199.95516 242.79207 197.92527 238.46643 195.03498 234.71572 191.28426 230.96498 187.53353 228.07468 183.20787 226.0448 178.30731 224.01493 173.40676 222.99999 168.3043 223 163 222.99999 157.69567 224.01493 152.59322 226.0448 147.69264 228.07468 142.79209 230.96498 138.46645 234.71572 134.71573 238.46643 130.965 242.79207 128.07469 247.69263 126.044818 252.5932 124.01494 257.69566 123 263 123 268.3043 123 273.40675 124.01494 278.30729 126.04481 283.20787 128.07469 287.5335 130.965 291.28425 134.71573 295.03495 138.46645 297.92527 142.79209 299.95518 147.69264 301.98506 152.59322 302.99998 157.69567 303 163Z"/>
<path transform="matrix(.7191651,0,0,.7191651,.35958255,.35958255)" d="M303 283C302.99998 288.30433 301.98506 293.40678 299.95518 298.3073 297.92527 303.2079 295.03495 307.53355 291.28425 311.28428 287.5335 315.03498 283.20787 317.9253 278.30729 319.95518 273.40675 321.98506 268.3043 322.99998 263 323 257.69566 322.99998 252.5932 321.98506 247.69263 319.95518 242.79207 317.9253 238.46643 315.03498 234.71572 311.28428 230.96498 307.53355 228.07468 303.2079 226.0448 298.3073 224.01493 293.40678 222.99999 288.30433 223 283 222.99999 277.69566 224.01493 272.5932 226.0448 267.69264 228.07468 262.79209 230.96498 258.46644 234.71572 254.71573 238.46643 250.96498 242.79207 248.07468 247.69263 246.0448 252.5932 244.01494 257.69566 243 263 243 268.3043 243 273.40675 244.01494 278.30729 246.0448 283.20787 248.07468 287.5335 250.96498 291.28425 254.71573 295.03495 258.46644 297.92527 262.79209 299.95518 267.69264 301.98506 272.5932 302.99998 277.69566 303 283Z" fill="#ffffff"/>
<path transform="matrix(.7191651,0,0,.7191651,.35958255,.35958255)" stroke-width="7" stroke-linecap="butt" stroke-miterlimit="4" stroke-linejoin="miter" fill="none" stroke="#ff3333" d="M303 283C302.99998 288.30433 301.98506 293.40678 299.95518 298.3073 297.92527 303.2079 295.03495 307.53355 291.28425 311.28428 287.5335 315.03498 283.20787 317.9253 278.30729 319.95518 273.40675 321.98506 268.3043 322.99998 263 323 257.69566 322.99998 252.5932 321.98506 247.69263 319.95518 242.79207 317.9253 238.46643 315.03498 234.71572 311.28428 230.96498 307.53355 228.07468 303.2079 226.0448 298.3073 224.01493 293.40678 222.99999 288.30433 223 283 222.99999 277.69566 224.01493 272.5932 226.0448 267.69264 228.07468 262.79209 230.96498 258.46644 234.71572 254.71573 238.46643 250.96498 242.79207 248.07468 247.69263 246.0448 252.5932 244.01494 257.69566 243 263 243 268.3043 243 273.40675 244.01494 278.30729 246.0448 283.20787 248.07468 287.5335 250.96498 291.28425 254.71573 295.03495 258.46644 297.92527 262.79209 299.95518 267.69264 301.98506 272.5932 302.99998 277.69566 303 283Z"/>
<path transform="matrix(.7191651,0,0,.7191651,.35958255,.35958255)" d="M303 403C302.99998 408.3043 301.98506 413.4067 299.95518 418.30726 297.92527 423.20787 295.03495 427.5335 291.28425 431.28425 287.5335 435.03495 283.20787 437.92527 278.30729 439.95515 273.40675 441.98503 268.3043 442.99998 263 443 257.69566 442.99998 252.5932 441.98503 247.69263 439.95515 242.79207 437.92527 238.46643 435.03495 234.71572 431.28425 230.96498 427.5335 228.07468 423.20787 226.0448 418.30729 224.01493 413.4067 222.99999 408.3043 223 403 222.99999 397.69566 224.01493 392.59318 226.0448 387.69264 228.07468 382.79206 230.96498 378.4664 234.71572 374.7157 238.46643 370.96498 242.79207 368.07469 247.69263 366.0448 252.5932 364.01493 257.69566 363 263 363 268.3043 363 273.40675 364.01493 278.30729 366.0448 283.20787 368.07469 287.5335 370.96498 291.28425 374.7157 295.03495 378.4664 297.92527 382.79206 299.95518 387.69264 301.98506 392.59318 302.99998 397.69566 303 403Z" fill="#ffffff"/>
<path transform="matrix(.7191651,0,0,.7191651,.35958255,.35958255)" stroke-width="7" stroke-linecap="butt" stroke-miterlimit="4" stroke-linejoin="miter" fill="none" stroke="#ff3333" d="M303 403C302.99998 408.3043 301.98506 413.4067 299.95518 418.30726 297.92527 423.20787 295.03495 427.5335 291.28425 431.28425 287.5335 435.03495 283.20787 437.92527 278.30729 439.95515 273.40675 441.98503 268.3043 442.99998 263 443 257.69566 442.99998 252.5932 441.98503 247.69263 439.95515 242.79207 437.92527 238.46643 435.03495 234.71572 431.28425 230.96498 427.5335 228.07468 423.20787 226.0448 418.30729 224.01493 413.4067 222.99999 408.3043 223 403 222.99999 397.69566 224.01493 392.59318 226.0448 387.69264 228.07468 382.79206 230.96498 378.4664 234.71572 374.7157 238.46643 370.96498 242.79207 368.07469 247.69263 366.0448 252.5932 364.01493 257.69566 363 263 363 268.3043 363 273.40675 364.01493 278.30729 366.0448 283.20787 368.07469 287.5335 370.96498 291.28425 374.7157 295.03495 378.4664 297.92527 382.79206 299.95518 387.69264 301.98506 392.59318 302.99998 397.69566 303 403Z"/>
<path transform="matrix(.7191651,0,0,.7191651,.35958255,.35958255)" stroke-width="1" stroke-linecap="butt" stroke-miterlimit="10" stroke-linejoin="miter" fill="none" stroke="#000000" d="M90 43H213.63"/>
<path transform="matrix(.7191651,0,0,.7191651,.35958255,.35958255)" d="M218.88 43 211.88 46.5 213.63 43 211.88 39.5 218.88 43Z"/>
<path transform="matrix(.7191651,0,0,.7191651,.35958255,.35958255)" stroke-width="1" stroke-linecap="butt" stroke-miterlimit="10" stroke-linejoin="miter" fill="none" stroke="#000000" d="M218.88 43 211.88 46.5 213.63 43 211.88 39.5 218.88 43Z"/>
<path transform="matrix(.7191651,0,0,.7191651,.35958255,.35958255)" stroke-width="1" stroke-linecap="butt" stroke-miterlimit="10" stroke-linejoin="miter" fill="none" stroke="#000000" d="M90 43 215.32 158.68"/>
<path transform="matrix(.7191651,0,0,.7191651,.35958255,.35958255)" d="M219.18 162.24 211.66 160.07 215.32 158.68 216.41 154.92 219.18 162.24Z"/>
<path transform="matrix(.7191651,0,0,.7191651,.35958255,.35958255)" stroke-width="1" stroke-linecap="butt" stroke-miterlimit="10" stroke-linejoin="miter" fill="none" stroke="#000000" d="M219.18 162.24 211.66 160.07 215.32 158.68 216.41 154.92 219.18 162.24Z"/>
<path transform="matrix(.7191651,0,0,.7191651,.35958255,.35958255)" stroke-width="1" stroke-linecap="butt" stroke-miterlimit="10" stroke-linejoin="miter" fill="none" stroke="#000000" d="M90 43 216.97 277.4"/>
<path transform="matrix(.7191651,0,0,.7191651,.35958255,.35958255)" d="M219.47 282.02 213.06 277.53 216.97 277.4 219.21 274.19 219.47 282.02Z"/>
<path transform="matrix(.7191651,0,0,.7191651,.35958255,.35958255)" stroke-width="1" stroke-linecap="butt" stroke-miterlimit="10" stroke-linejoin="miter" fill="none" stroke="#000000" d="M219.47 282.02 213.06 277.53 216.97 277.4 219.21 274.19 219.47 282.02Z"/>
<path transform="matrix(.7191651,0,0,.7191651,.35958255,.35958255)" stroke-width="1" stroke-linecap="butt" stroke-miterlimit="10" stroke-linejoin="miter" fill="none" stroke="#000000" d="M90 43 217.84 397.01"/>
<path transform="matrix(.7191651,0,0,.7191651,.35958255,.35958255)" d="M219.62 401.95 213.95 396.55 217.84 397.01 220.53 394.18 219.62 401.95Z"/>
<path transform="matrix(.7191651,0,0,.7191651,.35958255,.35958255)" stroke-width="1" stroke-linecap="butt" stroke-miterlimit="10" stroke-linejoin="miter" fill="none" stroke="#000000" d="M219.62 401.95 213.95 396.55 217.84 397.01 220.53 394.18 219.62 401.95Z"/>
<path transform="matrix(.7191651,0,0,.7191651,.35958255,.35958255)" stroke-width="1" stroke-linecap="butt" stroke-miterlimit="10" stroke-linejoin="miter" fill="none" stroke="#000000" d="M90 163H213.63"/>
<path transform="matrix(.7191651,0,0,.7191651,.35958255,.35958255)" d="M218.88 163 211.88 166.5 213.63 163 211.88 159.5 218.88 163Z"/>
<path transform="matrix(.7191651,0,0,.7191651,.35958255,.35958255)" stroke-width="1" stroke-linecap="butt" stroke-miterlimit="10" stroke-linejoin="miter" fill="none" stroke="#000000" d="M218.88 163 211.88 166.5 213.63 163 211.88 159.5 218.88 163Z"/>
<path transform="matrix(.7191651,0,0,.7191651,.35958255,.35958255)" stroke-width="1" stroke-linecap="butt" stroke-miterlimit="10" stroke-linejoin="miter" fill="none" stroke="#000000" d="M90 163 215.32 278.68"/>
<path transform="matrix(.7191651,0,0,.7191651,.35958255,.35958255)" d="M219.18 282.24 211.66 280.07 215.32 278.68 216.41 274.92 219.18 282.24Z"/>
<path transform="matrix(.7191651,0,0,.7191651,.35958255,.35958255)" stroke-width="1" stroke-linecap="butt" stroke-miterlimit="10" stroke-linejoin="miter" fill="none" stroke="#000000" d="M219.18 282.24 211.66 280.07 215.32 278.68 216.41 274.92 219.18 282.24Z"/>
<path transform="matrix(.7191651,0,0,.7191651,.35958255,.35958255)" stroke-width="1" stroke-linecap="butt" stroke-miterlimit="10" stroke-linejoin="miter" fill="none" stroke="#000000" d="M90 163 216.97 397.4"/>
<path transform="matrix(.7191651,0,0,.7191651,.35958255,.35958255)" d="M219.47 402.02 213.06 397.53 216.97 397.4 219.21 394.19 219.47 402.02Z"/>
<path transform="matrix(.7191651,0,0,.7191651,.35958255,.35958255)" stroke-width="1" stroke-linecap="butt" stroke-miterlimit="10" stroke-linejoin="miter" fill="none" stroke="#000000" d="M219.47 402.02 213.06 397.53 216.97 397.4 219.21 394.19 219.47 402.02Z"/>
<path transform="matrix(.7191651,0,0,.7191651,.35958255,.35958255)" stroke-width="1" stroke-linecap="butt" stroke-miterlimit="10" stroke-linejoin="miter" fill="none" stroke="#000000" d="M90 163 215.32 47.32"/>
<path transform="matrix(.7191651,0,0,.7191651,.35958255,.35958255)" d="M219.18 43.76 216.41 51.08 215.32 47.32 211.66 45.93 219.18 43.76Z"/>
<path transform="matrix(.7191651,0,0,.7191651,.35958255,.35958255)" stroke-width="1" stroke-linecap="butt" stroke-miterlimit="10" stroke-linejoin="miter" fill="none" stroke="#000000" d="M219.18 43.76 216.41 51.08 215.32 47.32 211.66 45.93 219.18 43.76Z"/>
<path transform="matrix(.7191651,0,0,.7191651,.35958255,.35958255)" stroke-width="1" stroke-linecap="butt" stroke-miterlimit="10" stroke-linejoin="miter" fill="none" stroke="#000000" d="M90 283 215.32 167.32"/>
<path transform="matrix(.7191651,0,0,.7191651,.35958255,.35958255)" d="M219.18 163.76 216.41 171.08 215.32 167.32 211.66 165.93 219.18 163.76Z"/>
<path transform="matrix(.7191651,0,0,.7191651,.35958255,.35958255)" stroke-width="1" stroke-linecap="butt" stroke-miterlimit="10" stroke-linejoin="miter" fill="none" stroke="#000000" d="M219.18 163.76 216.41 171.08 215.32 167.32 211.66 165.93 219.18 163.76Z"/>
<path transform="matrix(.7191651,0,0,.7191651,.35958255,.35958255)" stroke-width="1" stroke-linecap="butt" stroke-miterlimit="10" stroke-linejoin="miter" fill="none" stroke="#000000" d="M90 283H213.63"/>
<path transform="matrix(.7191651,0,0,.7191651,.35958255,.35958255)" d="M218.88 283 211.88 286.5 213.63 283 211.88 279.5 218.88 283Z"/>
<path transform="matrix(.7191651,0,0,.7191651,.35958255,.35958255)" stroke-width="1" stroke-linecap="butt" stroke-miterlimit="10" stroke-linejoin="miter" fill="none" stroke="#000000" d="M218.88 283 211.88 286.5 213.63 283 211.88 279.5 218.88 283Z"/>
<path transform="matrix(.7191651,0,0,.7191651,.35958255,.35958255)" stroke-width="1" stroke-linecap="butt" stroke-miterlimit="10" stroke-linejoin="miter" fill="none" stroke="#000000" d="M90 283 215.32 398.68"/>
<path transform="matrix(.7191651,0,0,.7191651,.35958255,.35958255)" d="M219.18 402.24 211.66 400.07 215.32 398.68 216.41 394.92 219.18 402.24Z"/>
<path transform="matrix(.7191651,0,0,.7191651,.35958255,.35958255)" stroke-width="1" stroke-linecap="butt" stroke-miterlimit="10" stroke-linejoin="miter" fill="none" stroke="#000000" d="M219.18 402.24 211.66 400.07 215.32 398.68 216.41 394.92 219.18 402.24Z"/>
<path transform="matrix(.7191651,0,0,.7191651,.35958255,.35958255)" stroke-width="1" stroke-linecap="butt" stroke-miterlimit="10" stroke-linejoin="miter" fill="none" stroke="#000000" d="M90 283 216.97 48.6"/>
<path transform="matrix(.7191651,0,0,.7191651,.35958255,.35958255)" d="M219.47 43.98 219.21 51.81 216.97 48.6 213.06 48.47 219.47 43.98Z"/>
<path transform="matrix(.7191651,0,0,.7191651,.35958255,.35958255)" stroke-width="1" stroke-linecap="butt" stroke-miterlimit="10" stroke-linejoin="miter" fill="none" stroke="#000000" d="M219.47 43.98 219.21 51.81 216.97 48.6 213.06 48.47 219.47 43.98Z"/>
<path transform="matrix(.7191651,0,0,.7191651,.35958255,.35958255)" stroke-width="1" stroke-linecap="butt" stroke-miterlimit="10" stroke-linejoin="miter" fill="none" stroke="#000000" d="M90 403 216.97 168.6"/>
<path transform="matrix(.7191651,0,0,.7191651,.35958255,.35958255)" d="M219.47 163.98 219.21 171.81 216.97 168.6 213.06 168.47 219.47 163.98Z"/>
<path transform="matrix(.7191651,0,0,.7191651,.35958255,.35958255)" stroke-width="1" stroke-linecap="butt" stroke-miterlimit="10" stroke-linejoin="miter" fill="none" stroke="#000000" d="M219.47 163.98 219.21 171.81 216.97 168.6 213.06 168.47 219.47 163.98Z"/>
<path transform="matrix(.7191651,0,0,.7191651,.35958255,.35958255)" stroke-width="1" stroke-linecap="butt" stroke-miterlimit="10" stroke-linejoin="miter" fill="none" stroke="#000000" d="M90 403 215.32 287.32"/>
<path transform="matrix(.7191651,0,0,.7191651,.35958255,.35958255)" d="M219.18 283.76 216.41 291.08 215.32 287.32 211.66 285.93 219.18 283.76Z"/>
<path transform="matrix(.7191651,0,0,.7191651,.35958255,.35958255)" stroke-width="1" stroke-linecap="butt" stroke-miterlimit="10" stroke-linejoin="miter" fill="none" stroke="#000000" d="M219.18 283.76 216.41 291.08 215.32 287.32 211.66 285.93 219.18 283.76Z"/>
<path transform="matrix(.7191651,0,0,.7191651,.35958255,.35958255)" stroke-width="1" stroke-linecap="butt" stroke-miterlimit="10" stroke-linejoin="miter" fill="none" stroke="#000000" d="M90 403H213.63"/>
<path transform="matrix(.7191651,0,0,.7191651,.35958255,.35958255)" d="M218.88 403 211.88 406.5 213.63 403 211.88 399.5 218.88 403Z"/>
<path transform="matrix(.7191651,0,0,.7191651,.35958255,.35958255)" stroke-width="1" stroke-linecap="butt" stroke-miterlimit="10" stroke-linejoin="miter" fill="none" stroke="#000000" d="M218.88 403 211.88 406.5 213.63 403 211.88 399.5 218.88 403Z"/>
<path transform="matrix(.7191651,0,0,.7191651,.35958255,.35958255)" stroke-width="1" stroke-linecap="butt" stroke-miterlimit="10" stroke-linejoin="miter" fill="none" stroke="#000000" d="M90 403 217.84 48.99"/>
<path transform="matrix(.7191651,0,0,.7191651,.35958255,.35958255)" d="M219.62 44.05 220.53 51.82 217.84 48.99 213.95 49.45 219.62 44.05Z"/>
<path transform="matrix(.7191651,0,0,.7191651,.35958255,.35958255)" stroke-width="1" stroke-linecap="butt" stroke-miterlimit="10" stroke-linejoin="miter" fill="none" stroke="#000000" d="M219.62 44.05 220.53 51.82 217.84 48.99 213.95 49.45 219.62 44.05Z"/>
</g>
<g clip-path="url(#clip_2)">
<text xml:space="preserve" transform="matrix(.7191651 0 0 .7191651 .35958255 6.112903)" font-size="72.6" font-family="Unnamed"><tspan y="56" x="38.171876">x</tspan></text>
</g>
<g clip-path="url(#clip_3)">
<text xml:space="preserve" transform="matrix(.7191651 0 0 .7191651 .35958255 6.112903)" font-size="51.32" font-family="Unnamed"><tspan y="67" x="70.40625">1</tspan></text>
</g>
<g clip-path="url(#clip_4)">
<text xml:space="preserve" transform="matrix(.7191651 0 0 .7191651 .35958255 92.41271)" font-size="72.6" font-family="Unnamed"><tspan y="56" x="38.171876">x</tspan></text>
</g>
<g clip-path="url(#clip_5)">
<text xml:space="preserve" transform="matrix(.7191651 0 0 .7191651 .35958255 92.41271)" font-size="51.32" font-family="Unnamed"><tspan y="67" x="70.40625">2</tspan></text>
</g>
<g clip-path="url(#clip_6)">
<text xml:space="preserve" transform="matrix(.7191651 0 0 .7191651 .35958255 171.52088)" font-size="72.6" font-family="Unnamed"><tspan y="56" x="38.171876">x</tspan></text>
</g>
<g clip-path="url(#clip_7)">
<text xml:space="preserve" transform="matrix(.7191651 0 0 .7191651 .35958255 171.52088)" font-size="51.32" font-family="Unnamed"><tspan y="67" x="70.40625">3</tspan></text>
</g>
<g clip-path="url(#clip_8)">
<text xml:space="preserve" transform="matrix(.7191651 0 0 .7191651 .35958255 239.12239)" font-size="72.6" font-family="Unnamed"><tspan y="108" x="38.171876">x</tspan></text>
</g>
<g clip-path="url(#clip_9)">
<text xml:space="preserve" transform="matrix(.7191651 0 0 .7191651 .35958255 239.12239)" font-size="51.32" font-family="Unnamed"><tspan y="119" x="70.40625">4</tspan></text>
</g>
<g clip-path="url(#clip_10)">
<text xml:space="preserve" transform="matrix(.7191651 0 0 .7191651 668.1044 131.9668)" font-size="72.6" font-family="Unnamed"><tspan y="56" x="45.03125">y</tspan></text>
</g>
<g clip-path="url(#clip_11)">
<text xml:space="preserve" transform="matrix(.7191651 0 0 .7191651 668.1044 131.9668)" font-size="72.6" font-family="Unnamed"><tspan y="59" x="40.828126">&#x02c6;</tspan></text>
</g>
</svg>
