<svg xmlns="http://www.w3.org/2000/svg" xmlns:xlink="http://www.w3.org/1999/xlink" version="1.1" width="117.099pt" height="124.185pt" viewBox="0 0 117.099 124.185">
<path transform="matrix(1,0,0,-1,50.045,113.824)" stroke-width=".79701" stroke-linecap="butt" stroke-dasharray="2.98883,2.98883" stroke-miterlimit="10" stroke-linejoin="miter" fill="none" stroke="#002b36" d="M0 0 56.69362 28.3468M-9.92111 9.21304 46.77249 37.55986M-19.84224 18.4261 36.85136 46.7729M-29.76335 27.63916 26.93025 55.98598M-39.681 36.84898 17.0126 65.19579M0 0-39.68448 36.85222M14.17339 7.08669-25.5111 43.9389M28.3468 14.17339-11.33768 51.02562M42.5202 21.2601 2.83571 58.11232M56.68863 28.34431 17.00414 65.19653"/>
<path transform="matrix(1,0,0,-1,50.045,113.824)" d="M0 0-9.92111 9.21304 4.25227 16.29973 14.17339 7.08669ZM4.25227 16.29973" fill="#268bd2"/>
<path transform="matrix(1,0,0,-1,50.045,113.824)" stroke-width=".79701" stroke-linecap="butt" stroke-miterlimit="10" stroke-linejoin="miter" fill="none" stroke="#002b36" d="M0 0-9.92111 9.21304 4.25227 16.29973 14.17339 7.08669ZM4.25227 16.29973"/>
<path transform="matrix(1,0,0,-1,50.045,113.824)" d="M-9.92111 9.21304-19.84224 18.4261-5.66884 25.51279 4.25227 16.29973ZM-5.66884 25.51279" fill="#268bd2"/>
<path transform="matrix(1,0,0,-1,50.045,113.824)" stroke-width=".79701" stroke-linecap="butt" stroke-miterlimit="10" stroke-linejoin="miter" fill="none" stroke="#002b36" d="M-9.92111 9.21304-19.84224 18.4261-5.66884 25.51279 4.25227 16.29973ZM-5.66884 25.51279"/>
<path transform="matrix(1,0,0,-1,50.045,113.824)" d="M-19.84224 18.4261-29.76335 27.63916-15.58995 34.72586-5.66884 25.51279ZM-15.58995 34.72586" fill="#268bd2"/>
<path transform="matrix(1,0,0,-1,50.045,113.824)" stroke-width=".79701" stroke-linecap="butt" stroke-miterlimit="10" stroke-linejoin="miter" fill="none" stroke="#002b36" d="M-19.84224 18.4261-29.76335 27.63916-15.58995 34.72586-5.66884 25.51279ZM-15.58995 34.72586"/>
<path transform="matrix(1,0,0,-1,50.045,113.824)" d="M-29.76335 27.63916-39.68448 36.85222-25.5111 43.9389-15.58995 34.72586ZM-25.5111 43.9389" fill="#268bd2"/>
<path transform="matrix(1,0,0,-1,50.045,113.824)" stroke-width=".79701" stroke-linecap="butt" stroke-miterlimit="10" stroke-linejoin="miter" fill="none" stroke="#002b36" d="M-29.76335 27.63916-39.68448 36.85222-25.5111 43.9389-15.58995 34.72586ZM-25.5111 43.9389"/>
<path transform="matrix(1,0,0,-1,50.045,113.824)" d="M14.17339 7.08669 4.25227 16.29973 18.42569 23.38644 28.3468 14.17339ZM18.42569 23.38644" fill="#268bd2"/>
<path transform="matrix(1,0,0,-1,50.045,113.824)" stroke-width=".79701" stroke-linecap="butt" stroke-miterlimit="10" stroke-linejoin="miter" fill="none" stroke="#002b36" d="M14.17339 7.08669 4.25227 16.29973 18.42569 23.38644 28.3468 14.17339ZM18.42569 23.38644"/>
<path transform="matrix(1,0,0,-1,50.045,113.824)" d="M4.25227 16.29973-5.66884 25.51279 8.50456 32.59949 18.42569 23.38644ZM8.50456 32.59949" fill="#268bd2"/>
<path transform="matrix(1,0,0,-1,50.045,113.824)" stroke-width=".79701" stroke-linecap="butt" stroke-miterlimit="10" stroke-linejoin="miter" fill="none" stroke="#002b36" d="M4.25227 16.29973-5.66884 25.51279 8.50456 32.59949 18.42569 23.38644ZM8.50456 32.59949"/>
<path transform="matrix(1,0,0,-1,50.045,113.824)" d="M-5.66884 25.51279-15.58995 34.72586-1.41655 41.81256 8.50456 32.59949ZM-1.41655 41.81256" fill="#268bd2"/>
<path transform="matrix(1,0,0,-1,50.045,113.824)" stroke-width=".79701" stroke-linecap="butt" stroke-miterlimit="10" stroke-linejoin="miter" fill="none" stroke="#002b36" d="M-5.66884 25.51279-15.58995 34.72586-1.41655 41.81256 8.50456 32.59949ZM-1.41655 41.81256"/>
<path transform="matrix(1,0,0,-1,50.045,113.824)" d="M-15.58995 34.72586-25.5111 43.9389-11.33768 51.02562-1.41655 41.81256ZM-11.33768 51.02562" fill="#268bd2"/>
<path transform="matrix(1,0,0,-1,50.045,113.824)" stroke-width=".79701" stroke-linecap="butt" stroke-miterlimit="10" stroke-linejoin="miter" fill="none" stroke="#002b36" d="M-15.58995 34.72586-25.5111 43.9389-11.33768 51.02562-1.41655 41.81256ZM-11.33768 51.02562"/>
<path transform="matrix(1,0,0,-1,50.045,113.824)" d="M28.3468 14.17339 18.42569 23.38644 32.59909 30.47314 42.5202 21.2601ZM32.59909 30.47314" fill="#268bd2"/>
<path transform="matrix(1,0,0,-1,50.045,113.824)" stroke-width=".79701" stroke-linecap="butt" stroke-miterlimit="10" stroke-linejoin="miter" fill="none" stroke="#002b36" d="M28.3468 14.17339 18.42569 23.38644 32.59909 30.47314 42.5202 21.2601ZM32.59909 30.47314"/>
<path transform="matrix(1,0,0,-1,50.045,113.824)" d="M18.42569 23.38644 8.50456 32.59949 22.67795 39.6862 32.59909 30.47314ZM22.67795 39.6862" fill="#268bd2"/>
<path transform="matrix(1,0,0,-1,50.045,113.824)" stroke-width=".79701" stroke-linecap="butt" stroke-miterlimit="10" stroke-linejoin="miter" fill="none" stroke="#002b36" d="M18.42569 23.38644 8.50456 32.59949 22.67795 39.6862 32.59909 30.47314ZM22.67795 39.6862"/>
<path transform="matrix(1,0,0,-1,50.045,113.824)" d="M8.50456 32.59949-1.41655 41.81256 12.75684 48.89926 22.67795 39.6862ZM12.75684 48.89926" fill="#268bd2"/>
<path transform="matrix(1,0,0,-1,50.045,113.824)" stroke-width=".79701" stroke-linecap="butt" stroke-miterlimit="10" stroke-linejoin="miter" fill="none" stroke="#002b36" d="M8.50456 32.59949-1.41655 41.81256 12.75684 48.89926 22.67795 39.6862ZM12.75684 48.89926"/>
<path transform="matrix(1,0,0,-1,50.045,113.824)" d="M-1.41655 41.81256-11.33768 51.02562 2.83571 58.11232 12.75684 48.89926ZM2.83571 58.11232" fill="#268bd2"/>
<path transform="matrix(1,0,0,-1,50.045,113.824)" stroke-width=".79701" stroke-linecap="butt" stroke-miterlimit="10" stroke-linejoin="miter" fill="none" stroke="#002b36" d="M-1.41655 41.81256-11.33768 51.02562 2.83571 58.11232 12.75684 48.89926ZM2.83571 58.11232"/>
<path transform="matrix(1,0,0,-1,50.045,113.824)" d="M42.5202 21.2601 32.59909 30.47314 46.77249 37.55986 56.69362 28.3468ZM46.77249 37.55986" fill="#268bd2"/>
<path transform="matrix(1,0,0,-1,50.045,113.824)" stroke-width=".79701" stroke-linecap="butt" stroke-miterlimit="10" stroke-linejoin="miter" fill="none" stroke="#002b36" d="M42.5202 21.2601 32.59909 30.47314 46.77249 37.55986 56.69362 28.3468ZM46.77249 37.55986"/>
<path transform="matrix(1,0,0,-1,50.045,113.824)" d="M32.59909 30.47314 22.67795 39.6862 36.85136 46.7729 46.77249 37.55986ZM36.85136 46.7729" fill="#268bd2"/>
<path transform="matrix(1,0,0,-1,50.045,113.824)" stroke-width=".79701" stroke-linecap="butt" stroke-miterlimit="10" stroke-linejoin="miter" fill="none" stroke="#002b36" d="M32.59909 30.47314 22.67795 39.6862 36.85136 46.7729 46.77249 37.55986ZM36.85136 46.7729"/>
<path transform="matrix(1,0,0,-1,50.045,113.824)" d="M22.67795 39.6862 12.75684 48.89926 26.93025 55.98598 36.85136 46.7729ZM26.93025 55.98598" fill="#268bd2"/>
<path transform="matrix(1,0,0,-1,50.045,113.824)" stroke-width=".79701" stroke-linecap="butt" stroke-miterlimit="10" stroke-linejoin="miter" fill="none" stroke="#002b36" d="M22.67795 39.6862 12.75684 48.89926 26.93025 55.98598 36.85136 46.7729ZM26.93025 55.98598"/>
<path transform="matrix(1,0,0,-1,50.045,113.824)" d="M12.75684 48.89926 2.83571 58.11232 17.00912 65.19902 26.93025 55.98598ZM17.00912 65.19902" fill="#268bd2"/>
<path transform="matrix(1,0,0,-1,50.045,113.824)" stroke-width=".79701" stroke-linecap="butt" stroke-miterlimit="10" stroke-linejoin="miter" fill="none" stroke="#002b36" d="M12.75684 48.89926 2.83571 58.11232 17.00912 65.19902 26.93025 55.98598ZM17.00912 65.19902"/>
<g>
<path transform="matrix(1,0,0,-1,50.045,113.824)" d="M-9.92111 9.21304-19.84224 18.4261-5.66884 25.51279 4.25227 16.29973ZM-5.66884 25.51279" fill="#073642" fill-opacity=".4"/>
<path transform="matrix(1,0,0,-1,50.045,113.824)" stroke-width=".3985" stroke-linecap="butt" stroke-miterlimit="10" stroke-linejoin="miter" fill="none" stroke="#000000" stroke-opacity=".4" d="M-9.92111 9.21304-19.84224 18.4261-5.66884 25.51279 4.25227 16.29973ZM-5.66884 25.51279"/>
</g>
<g>
<path transform="matrix(1,0,0,-1,50.045,113.824)" d="M-19.84224 18.4261-29.76335 27.63916-15.58995 34.72586-5.66884 25.51279ZM-15.58995 34.72586" fill="#073642" fill-opacity=".4"/>
<path transform="matrix(1,0,0,-1,50.045,113.824)" stroke-width=".3985" stroke-linecap="butt" stroke-miterlimit="10" stroke-linejoin="miter" fill="none" stroke="#000000" stroke-opacity=".4" d="M-19.84224 18.4261-29.76335 27.63916-15.58995 34.72586-5.66884 25.51279ZM-15.58995 34.72586"/>
</g>
<g>
<path transform="matrix(1,0,0,-1,50.045,113.824)" d="M-29.76335 27.63916-39.68448 36.85222-25.5111 43.9389-15.58995 34.72586ZM-25.5111 43.9389" fill="#073642" fill-opacity=".4"/>
<path transform="matrix(1,0,0,-1,50.045,113.824)" stroke-width=".3985" stroke-linecap="butt" stroke-miterlimit="10" stroke-linejoin="miter" fill="none" stroke="#000000" stroke-opacity=".4" d="M-29.76335 27.63916-39.68448 36.85222-25.5111 43.9389-15.58995 34.72586ZM-25.5111 43.9389"/>
</g>
<g>
<path transform="matrix(1,0,0,-1,50.045,113.824)" d="M4.25227 16.29973-5.66884 25.51279 8.50456 32.59949 18.42569 23.38644ZM8.50456 32.59949" fill="#073642" fill-opacity=".4"/>
<path transform="matrix(1,0,0,-1,50.045,113.824)" stroke-width=".3985" stroke-linecap="butt" stroke-miterlimit="10" stroke-linejoin="miter" fill="none" stroke="#000000" stroke-opacity=".4" d="M4.25227 16.29973-5.66884 25.51279 8.50456 32.59949 18.42569 23.38644ZM8.50456 32.59949"/>
</g>
<g>
<path transform="matrix(1,0,0,-1,50.045,113.824)" d="M-5.66884 25.51279-15.58995 34.72586-1.41655 41.81256 8.50456 32.59949ZM-1.41655 41.81256" fill="#073642" fill-opacity=".4"/>
<path transform="matrix(1,0,0,-1,50.045,113.824)" stroke-width=".3985" stroke-linecap="butt" stroke-miterlimit="10" stroke-linejoin="miter" fill="none" stroke="#000000" stroke-opacity=".4" d="M-5.66884 25.51279-15.58995 34.72586-1.41655 41.81256 8.50456 32.59949ZM-1.41655 41.81256"/>
</g>
<g>
<path transform="matrix(1,0,0,-1,50.045,113.824)" d="M-15.58995 34.72586-25.5111 43.9389-11.33768 51.02562-1.41655 41.81256ZM-11.33768 51.02562" fill="#073642" fill-opacity=".4"/>
<path transform="matrix(1,0,0,-1,50.045,113.824)" stroke-width=".3985" stroke-linecap="butt" stroke-miterlimit="10" stroke-linejoin="miter" fill="none" stroke="#000000" stroke-opacity=".4" d="M-15.58995 34.72586-25.5111 43.9389-11.33768 51.02562-1.41655 41.81256ZM-11.33768 51.02562"/>
</g>
<g>
<path transform="matrix(1,0,0,-1,50.045,113.824)" d="M18.42569 23.38644 8.50456 32.59949 22.67795 39.6862 32.59909 30.47314ZM22.67795 39.6862" fill="#073642" fill-opacity=".4"/>
<path transform="matrix(1,0,0,-1,50.045,113.824)" stroke-width=".3985" stroke-linecap="butt" stroke-miterlimit="10" stroke-linejoin="miter" fill="none" stroke="#000000" stroke-opacity=".4" d="M18.42569 23.38644 8.50456 32.59949 22.67795 39.6862 32.59909 30.47314ZM22.67795 39.6862"/>
</g>
<g>
<path transform="matrix(1,0,0,-1,50.045,113.824)" d="M8.50456 32.59949-1.41655 41.81256 12.75684 48.89926 22.67795 39.6862ZM12.75684 48.89926" fill="#073642" fill-opacity=".4"/>
<path transform="matrix(1,0,0,-1,50.045,113.824)" stroke-width=".3985" stroke-linecap="butt" stroke-miterlimit="10" stroke-linejoin="miter" fill="none" stroke="#000000" stroke-opacity=".4" d="M8.50456 32.59949-1.41655 41.81256 12.75684 48.89926 22.67795 39.6862ZM12.75684 48.89926"/>
</g>
<g>
<path transform="matrix(1,0,0,-1,50.045,113.824)" d="M-1.41655 41.81256-11.33768 51.02562 2.83571 58.11232 12.75684 48.89926ZM2.83571 58.11232" fill="#073642" fill-opacity=".4"/>
<path transform="matrix(1,0,0,-1,50.045,113.824)" stroke-width=".3985" stroke-linecap="butt" stroke-miterlimit="10" stroke-linejoin="miter" fill="none" stroke="#000000" stroke-opacity=".4" d="M-1.41655 41.81256-11.33768 51.02562 2.83571 58.11232 12.75684 48.89926ZM2.83571 58.11232"/>
</g>
<path transform="matrix(1,0,0,-1,50.045,113.824)" stroke-width=".79701" stroke-linecap="butt" stroke-miterlimit="10" stroke-linejoin="miter" fill="none" stroke="#002b36" d="M-9.92111 9.21304 32.59909 30.47314M-19.84224 18.4261 22.67795 39.6862M-29.76335 27.63916 12.75684 48.89926M-39.681 36.84898 2.83919 58.10909M-9.92111 9.21304-39.68448 36.85222M4.25227 16.29973-25.5111 43.9389M18.42569 23.38644-11.33768 51.02562M32.59412 30.47066 2.83073 58.10983"/>
<path transform="matrix(1,0,0,-1,50.045,113.824)" stroke-width=".3985" stroke-linecap="butt" stroke-miterlimit="10" stroke-linejoin="miter" fill="none" stroke="#000000" d="M-9.92122 9.21213-12.4118 80.0801M32.59961 30.47255 1.76158 87.16678M-39.68506 36.8517-22.33293 89.29315M2.83577 58.11212-8.15953 96.37984"/>
<path transform="matrix(1,0,0,-1,50.045,113.824)" d="M-2.49069 70.86703-22.33293 89.29315 6.01387 103.46654 25.85611 85.04044ZM6.01387 103.46654" fill="#2aa198"/>
<path transform="matrix(1,0,0,-1,50.045,113.824)" stroke-width=".3985" stroke-linecap="butt" stroke-miterlimit="10" stroke-linejoin="miter" fill="none" stroke="#000000" d="M-2.49069 70.86703-22.33293 89.29315 6.01387 103.46654 25.85611 85.04044ZM6.01387 103.46654"/>
<path transform="matrix(1,0,0,-1,50.045,113.824)" stroke-width=".79701" stroke-linecap="butt" stroke-miterlimit="10" stroke-linejoin="miter" fill="none" stroke="#002b36" d="M-2.49069 70.86703 25.85611 85.04044M-12.4118 80.0801 15.935 94.2535M-22.32944 89.2899 6.01736 103.4633M-2.49069 70.86703-22.33293 89.29315M11.6827 77.95374-8.15953 96.37984M25.85112 85.03795 6.00888 103.46405"/>
<g>
<path transform="matrix(1,0,0,-1,50.045,113.824)" d="M-12.4118 80.0801-22.33293 89.29315-8.15953 96.37984 1.76158 87.16678ZM-8.15953 96.37984" fill="#073642" fill-opacity=".4"/>
<path transform="matrix(1,0,0,-1,50.045,113.824)" stroke-width=".3985" stroke-linecap="butt" stroke-miterlimit="10" stroke-linejoin="miter" fill="none" stroke="#000000" stroke-opacity=".4" d="M-12.4118 80.0801-22.33293 89.29315-8.15953 96.37984 1.76158 87.16678ZM-8.15953 96.37984"/>
</g>
<path transform="matrix(1,0,0,-1,50.045,113.824)" stroke-width=".79701" stroke-linecap="butt" stroke-miterlimit="10" stroke-linejoin="miter" fill="none" stroke="#002b36" d="M-12.4118 80.0801-22.33293 89.29315-8.15953 96.37984 1.76158 87.16678ZM-8.15953 96.37984"/>
</svg>
