<svg xmlns="http://www.w3.org/2000/svg" xmlns:xlink="http://www.w3.org/1999/xlink" version="1.1" width="721pt" height="523pt" viewBox="0 0 721 523">
<defs>
<clipPath id="clip_0">
<path transform="matrix(1,0,0,-1,0,523)" d="M0 367.97H711.94V512.04006H0Z"/>
</clipPath>
<clipPath id="clip_1">
<path transform="matrix(1,0,0,-1,0,523)" d="M0 367.97H711.94V512.04006H0Z"/>
</clipPath>
<clipPath id="clip_2">
<path transform="matrix(1,0,0,-1,0,523)" d="M0 348.96H721.44V523.44H0Z"/>
</clipPath>
<clipPath id="clip_3">
<path transform="matrix(1,0,0,-1,0,523)" d="M0 193.49H711.94V337.56H0Z"/>
</clipPath>
<clipPath id="clip_4">
<path transform="matrix(1,0,0,-1,0,523)" d="M0 193.49H711.94V337.56H0Z"/>
</clipPath>
<clipPath id="clip_5">
<path transform="matrix(1,0,0,-1,0,523)" d="M0 174.48H721.44V348.96H0Z"/>
</clipPath>
<clipPath id="clip_6">
<path transform="matrix(1,0,0,-1,0,523)" d="M0 19.01H711.94V163.08H0Z"/>
</clipPath>
<clipPath id="clip_7">
<path transform="matrix(1,0,0,-1,0,523)" d="M0 19.01H711.94V163.08H0Z"/>
</clipPath>
<clipPath id="clip_8">
<path transform="matrix(1,0,0,-1,0,523)" d="M0 0H721.44V174.48H0Z"/>
</clipPath>
</defs>
<path transform="matrix(1,0,0,-1,0,523)" d="M0 0H721.44V523.44H0Z" fill="#ffffff"/>
<g clip-path="url(#clip_0)">
</g>
<g clip-path="url(#clip_1)">
<path transform="matrix(1,0,0,-1,0,523)" stroke-width=".75" stroke-linecap="round" stroke-linejoin="round" fill="none" stroke="#00cd00" d="M26.37 435.36 27.67 449.53 28.97 428.08 30.27 435.78 31.57 431.19 32.87 431.46 34.17 416.12 35.47 420.75 36.77 423.28 38.07 416.37 39.37 428.58 40.67 424.95 41.97 435.71 43.27 414.05 44.57 434.42 45.87 404.87 47.17 411.88 48.47 420.42 49.77 404.08 51.07 437.88 52.37 400.2 53.67 425.61 54.97 412.43 56.27 417.62 57.57 412.99 58.87 415.62 60.17 409.34 61.47 406.38 62.77 408.44 64.07 412.32 65.37 409.07 66.67 428.83 67.97 420.98 69.27 414.24 70.57 424.36 71.87 412.76 73.18 424.57 74.48 435.57 75.78 427.72 77.08 427.22 78.38 423.76 79.68 426.24 80.98 434.44 82.28 433.54 83.58 453.62 84.88 465.74 86.18 478.63 87.48 456.33 88.78 464.51 90.08 445.65 91.38 441.16 92.68 453.49 93.98 451.09 95.28 450.26 96.58 445.52 97.88 449.59 99.18 446.73 100.48 436.63 101.78 441.47 103.08 428.22 104.38 423.49 105.68 423.42 106.98 429.5 108.28 412.47 109.58 430.02 110.88 409.36 112.18 424.47 113.48 416.31 114.78 412.91 116.08 406.29 117.38 416.91 118.68 394.23 119.98 424.91 121.28 416.16 122.58 412.01 123.88 402.37 125.18 450.59 126.48 427.72 127.78 406.44 129.08 415.27 130.38 409.78 131.68 438.2 132.98 414.33 134.28 419.79 135.58 402.81 136.88 445.94 138.18 412.39 139.49 434.04 140.79 429.35 142.09 449.99 143.39 399.22 144.69 445 145.99 435.25 147.29 430 148.59 451.61 149.89 453.28 151.19 462.07 152.49 469.91 153.79 473.19 155.09 466.39 156.39 473.21 157.69 448.48 158.99 459.25 160.29 463.78 161.59 445.42 162.89 442.64 164.19 429.35 165.49 419.98 166.79 426.7 168.09 402.02 169.39 421.32 170.69 420.13 171.99 418.19 173.29 422.38 174.59 417.35 175.89 408.15 177.19 429.41 178.49 405.98 179.79 436.21 181.09 404.1 182.39 409.61 183.69 407.86 184.99 407.4 186.29 427.24 187.59 403.27 188.89 417.27 190.19 413.41 191.49 424.55 192.79 426.97 194.09 411.99 195.39 417.62 196.69 393.88 197.99 410.76 199.29 405.08 200.59 413.45 201.89 420.19 203.19 407.96 204.5 415.47 205.8 403.58 207.1 424.24 208.4 412.16 209.7 438.89 211 430.46 212.3 423.86 213.6 434.61 214.9 435.46 216.2 434.71 217.5 447.73 218.8 461.07 220.1 473.31 221.4 506.7 222.7 496.08 224 483.89 225.3 480.12 226.6 477.82 227.9 444.77 229.2 436.59 230.5 435.4 231.8 425.2 233.1 431.83 234.4 412.36 235.7 421.25 237 424.2 238.3 420.31 239.6 399.55 240.9 439.66 242.2 417.08 243.5 427.85 244.8 425.93 246.1 406.63 247.4 411.4 248.7 411.91 250 403.27 251.3 403.81 252.6 436.28 253.9 412.76 255.2 421.34 256.5 398.59 257.8 400.95 259.1 403.96 260.4 413.22 261.7 396.8 263 412.36 264.3 402.29 265.6 393.86 266.9 397.47 268.2 413.39 269.5 409.23 270.81 423.19 272.11 406.52 273.41 405.31 274.71 403.02 276.01 417.25 277.31 402.79 278.61 425.97 279.91 417.23 281.21 429.68 282.51 417.1 283.81 440.51 285.11 430.68 286.41 439.03 287.71 451.99 289.01 448.61 290.31 430.35 291.61 419.98 292.91 426.45 294.21 422.55 295.51 430.02 296.81 428.77 298.11 445.06 299.41 436.88 300.71 454.7 302.01 438.36 303.31 433.27 304.61 416.93 305.91 432.06 307.21 434.73 308.51 408.88 309.81 428.93 311.11 409.49 312.41 434.55 313.71 405.02 315.01 421.92 316.31 416.56 317.61 411.55 318.91 402.45 320.21 405.69 321.51 429.87 322.81 398.7 324.11 409.78 325.41 407.88 326.71 401.31 328.01 417.31 329.31 386.66 330.61 401.97 331.91 402.22 333.21 408.57 334.51 412.68 335.81 401.6 337.12 421.3 338.42 405.17 339.72 411.01 341.02 418.83 342.32 422.78 343.62 423.72 344.92 417.5 346.22 409.4 347.52 433.13 348.82 405.63 350.12 436.99 351.42 420.77 352.72 428.08 354.02 434.67 355.32 457.96 356.62 454.93 357.92 454.62 359.22 467.78 360.52 451.34 361.82 464.68 363.12 461.63 364.42 430.29 365.72 435.21 367.02 419.77 368.32 412.49 369.62 422.3 370.92 409.61 372.22 415.14 373.52 412.78 374.82 416.08 376.12 433.5 377.42 398.18 378.72 399.22 380.02 390.73 381.32 395.71 382.62 412.78 383.92 402.85 385.22 395.86 386.52 382.99 387.82 393.42 389.12 406.02 390.42 402.56 391.72 390.64 393.02 386.8 394.32 397.3 395.62 390.85 396.92 396.59 398.22 387.05 399.52 388.7 400.82 404 402.13 398.72 403.43 398.22 404.73 395.28 406.03 396.86 407.33 379.38 408.63 384.65 409.93 397.28 411.23 408.71 412.53 419.27 413.83 402.83 415.13 412.2 416.43 419.21 417.73 429.12 419.03 418.31 420.33 419.31 421.63 410.07 422.93 433.21 424.23 440.62 425.53 426.14 426.83 427.58 428.13 417.44 429.43 422.76 430.73 434.42 432.03 445.5 433.33 443.89 434.63 434.42 435.93 431.75 437.23 451.22 438.53 428.04 439.83 424.22 441.13 415.79 442.43 409.53 443.73 410.01 445.03 407.46 446.33 409.86 447.63 397.42 448.93 399.74 450.23 386.8 451.53 390.43 452.83 398.89 454.13 405 455.43 404.33 456.73 421.78 458.03 395.13 459.33 391.19 460.63 390.75 461.93 384.88 463.23 395.21 464.53 405.21 465.83 381.34 467.13 392.21 468.44 382.21 469.74 397.11 471.04 381.52 472.34 389.47 473.64 386.26 474.94 393.31 476.24 404.35 477.54 393.5 478.84 392.73 480.14 409.69 481.44 409.23 482.74 402.62 484.04 405.92 485.34 407.29 486.64 419.65 487.94 403.83 489.24 422.11 490.54 431.98 491.84 425.03 493.14 423.78 494.44 422.65 495.74 423.86 497.04 395.84 498.34 414.93 499.64 402.1 500.94 397.45 502.24 404.79 503.54 406.56 504.84 410.22 506.14 407.27 507.44 422.61 508.74 420.34 510.04 418.29 511.34 411.13 512.64 422.03 513.94 405 515.24 404.48 516.54 385.89 517.84 419.23 519.14 406.13 520.44 397.99 521.74 386.95 523.04 393.71 524.34 394.07 525.64 387.6 526.94 393.73 528.24 384.86 529.54 396.69 530.84 404.19 532.14 397.03 533.44 383.95 534.75 390.73 536.05 385.09 537.35 373.3 538.65 390.87 539.95 374.03 541.25 383.17 542.55 397.95 543.85 384.05 545.15 397.17 546.45 391.9 547.75 394.75 549.05 401.99 550.35 415.22 551.65 389.12 552.95 416.58 554.25 403.37 555.55 413.64 556.85 404.19 558.15 424.91 559.45 422.84 560.75 418.6 562.05 433.25 563.35 438.93 564.65 450.49 565.95 430.87 567.25 426.2 568.55 438.32 569.85 419.79 571.15 410.32 572.45 412.07 573.75 425.11 575.05 411.95 576.35 418.52 577.65 404.83 578.95 410.72 580.25 401.31 581.55 392.81 582.85 391.08 584.15 402.47 585.45 400.66 586.75 379.25 588.05 398.47 589.35 394.94 590.65 391.44 591.95 393.17 593.25 386.24 594.55 390.39 595.85 410.57 597.15 383.65 598.45 390.37 599.75 388.12 601.06 396.4 602.36 394.46 603.66 392.35 604.96 401.35 606.26 388.64 607.56 391.56 608.86 415.7 610.16 425.09 611.46 393.21 612.76 395.48 614.06 384.82 615.36 402.52 616.66 399.8 617.96 407.17 619.26 405.37 620.56 390.6 621.86 424.76 623.16 414.99 624.46 431.92 625.76 440.43 627.06 455.66 628.36 426.76 629.66 413.41 630.96 415.04 632.26 414.95 633.56 441.54 634.86 430.5 636.16 421.36 637.46 409.94 638.76 415.31 640.06 416.08 641.36 409.88 642.66 413.32 643.96 406.29 645.26 417.21 646.56 413.99 647.86 402.27 649.16 408.25 650.46 400.55 651.76 413.41 653.06 411.47 654.36 410.42 655.66 396.05 656.96 405.4 658.26 414.56 659.56 387.56 660.86 398.78 662.16 401.76 663.46 395.36 664.76 386.89 666.07 385.93 667.37 380.38 668.67 389.54 669.97 387.45 671.27 392.6 672.57 384.82 673.87 400.55 675.17 406.27 676.47 403.04 677.77 397.57 679.07 384.47 680.37 396.09 681.67 390.94 682.97 395.03 684.27 417.79 685.57 409.57"/>
</g>
<g clip-path="url(#clip_2)">
<text xml:space="preserve" transform="matrix(1 0 -0 1 0 523)" font-size="13" font-family="Helvetica" font-weight="bold"><tspan y="-513.07" x="280.37 289.75599 296.98399 301.78099 309.72398 313.33799 321.02098 327.98896 335.21696 342.44496 349.67295 357.61595 361.22996 368.45796 373.51496 377.12898 387.95799 395.90098 401.218 405.547 412.775 416.389 420.00303 424.33204">Cardiovascular Mortality</tspan></text>
</g>
<path transform="matrix(1,0,0,-1,0,523)" stroke-width=".75" stroke-linecap="round" stroke-linejoin="round" fill="none" stroke="#000000" d="M26.37 367.97H702.47"/>
<path transform="matrix(1,0,0,-1,0,523)" stroke-width=".75" stroke-linecap="round" stroke-linejoin="round" fill="none" stroke="#000000" d="M26.37 367.97V363.22"/>
<path transform="matrix(1,0,0,-1,0,523)" stroke-width=".75" stroke-linecap="round" stroke-linejoin="round" fill="none" stroke="#000000" d="M161.59 367.97V363.22"/>
<path transform="matrix(1,0,0,-1,0,523)" stroke-width=".75" stroke-linecap="round" stroke-linejoin="round" fill="none" stroke="#000000" d="M296.81 367.97V363.22"/>
<path transform="matrix(1,0,0,-1,0,523)" stroke-width=".75" stroke-linecap="round" stroke-linejoin="round" fill="none" stroke="#000000" d="M432.03 367.97V363.22"/>
<path transform="matrix(1,0,0,-1,0,523)" stroke-width=".75" stroke-linecap="round" stroke-linejoin="round" fill="none" stroke="#000000" d="M567.25 367.97V363.22"/>
<path transform="matrix(1,0,0,-1,0,523)" stroke-width=".75" stroke-linecap="round" stroke-linejoin="round" fill="none" stroke="#000000" d="M702.47 367.97V363.22"/>
<text xml:space="preserve" transform="matrix(1 0 -0 1 0 523)" font-size="11" font-family="Helvetica"><tspan y="-350.86" x="14.14 20.256 26.372002 32.488004">1970</tspan></text>
<text xml:space="preserve" transform="matrix(1 0 -0 1 0 523)" font-size="11" font-family="Helvetica"><tspan y="-350.86" x="149.36 155.476 161.592 167.708">1972</tspan></text>
<text xml:space="preserve" transform="matrix(1 0 -0 1 0 523)" font-size="11" font-family="Helvetica"><tspan y="-350.86" x="284.58 290.69599 296.81199 302.92799">1974</tspan></text>
<text xml:space="preserve" transform="matrix(1 0 -0 1 0 523)" font-size="11" font-family="Helvetica"><tspan y="-350.86" x="419.8 425.916 432.03199 438.14799">1976</tspan></text>
<text xml:space="preserve" transform="matrix(1 0 -0 1 0 523)" font-size="11" font-family="Helvetica"><tspan y="-350.86" x="555.02 561.13607 567.2521 573.3681">1978</tspan></text>
<text xml:space="preserve" transform="matrix(1 0 -0 1 0 523)" font-size="11" font-family="Helvetica"><tspan y="-350.86" x="690.24 696.356 702.47207 708.5881">1980</tspan></text>
<path transform="matrix(1,0,0,-1,0,523)" stroke-width=".75" stroke-linecap="round" stroke-linejoin="round" fill="none" stroke="#000000" d="M0 377.25V502.44"/>
<path transform="matrix(1,0,0,-1,0,523)" stroke-width=".75" stroke-linecap="round" stroke-linejoin="round" fill="none" stroke="#000000" d="M0 377.25V377.25"/>
<path transform="matrix(1,0,0,-1,0,523)" stroke-width=".75" stroke-linecap="round" stroke-linejoin="round" fill="none" stroke="#000000" d="M0 398.11V398.11"/>
<path transform="matrix(1,0,0,-1,0,523)" stroke-width=".75" stroke-linecap="round" stroke-linejoin="round" fill="none" stroke="#000000" d="M0 418.98V418.98"/>
<path transform="matrix(1,0,0,-1,0,523)" stroke-width=".75" stroke-linecap="round" stroke-linejoin="round" fill="none" stroke="#000000" d="M0 439.85V439.85"/>
<path transform="matrix(1,0,0,-1,0,523)" stroke-width=".75" stroke-linecap="round" stroke-linejoin="round" fill="none" stroke="#000000" d="M0 460.71V460.71"/>
<path transform="matrix(1,0,0,-1,0,523)" stroke-width=".75" stroke-linecap="round" stroke-linejoin="round" fill="none" stroke="#000000" d="M0 481.58V481.58"/>
<path transform="matrix(1,0,0,-1,0,523)" stroke-width=".75" stroke-linecap="round" stroke-linejoin="round" fill="none" stroke="#000000" d="M0 502.44V502.44"/>
<path transform="matrix(1,0,0,-1,0,523)" stroke-width=".75" stroke-linecap="round" stroke-linejoin="round" fill="none" stroke="#000000" d="M0 367.97H711.94V512.04H0V367.97"/>
<g clip-path="url(#clip_3)">
</g>
<g clip-path="url(#clip_4)">
<path transform="matrix(1,0,0,-1,0,523)" stroke-width=".75" stroke-linecap="round" stroke-linejoin="round" fill="none" stroke="#00cd00" d="M26.37 257.31 27.67 243.17 28.97 231.59 30.27 257.61 31.57 262.4 32.87 245.05 34.17 262.27 35.47 264.12 36.77 234.94 38.07 242.9 39.37 273.41 40.67 245.57 41.97 296.32 43.27 249.27 44.57 265.04 45.87 270.68 47.17 250.72 48.47 276.3 49.77 286.07 51.07 304.73 52.37 278.58 53.67 298.71 54.97 282.86 56.27 296.56 57.57 298.39 58.87 300.43 60.17 287.33 61.47 294.68 62.77 283.95 64.07 281.63 65.37 275.31 66.67 312.28 67.97 290.32 69.27 268.37 70.57 261.64 71.87 249.82 73.18 280.93 74.48 249.65 75.78 272.75 77.08 252.49 78.38 226.17 79.68 244.67 80.98 246.74 82.28 209.53 83.58 225.17 84.88 229.41 86.18 199.78 87.48 257.77 88.78 235.63 90.08 273.3 91.38 221.32 92.68 280.49 93.98 219.85 95.28 230.4 96.58 244.07 97.88 233.28 99.18 264.09 100.48 237.15 101.78 285.42 103.08 257.99 104.38 238.19 105.68 232.66 106.98 240.2 108.28 236.8 109.58 268.18 110.88 265.18 112.18 237.61 113.48 249.79 114.78 258.48 116.08 293.24 117.38 274.2 118.68 270.77 119.98 297.87 121.28 295.2 122.58 287.74 123.88 301.41 125.18 319.85 126.48 300.35 127.78 285.45 129.08 304.76 130.38 282.51 131.68 329.69 132.98 285.09 134.28 277.36 135.58 270.74 136.88 332.22 138.18 248.62 139.49 267.96 140.79 235.24 142.09 274.28 143.39 239.58 144.69 245.87 145.99 239.87 147.29 234.35 148.59 217.18 149.89 235.22 151.19 210.46 152.49 233.17 153.79 234.35 155.09 250.58 156.39 220.59 157.69 237.89 158.99 231.19 160.29 254.72 161.59 247.34 162.89 242.54 164.19 266.3 165.49 246.93 166.79 247.07 168.09 249.76 169.39 255.97 170.69 260.8 171.99 252.65 173.29 250.55 174.59 278.69 175.89 243.09 177.19 282.72 178.49 240.47 179.79 280.22 181.09 289.29 182.39 265.86 183.69 282.29 184.99 266.84 186.29 284.74 187.59 291.3 188.89 291.5 190.19 277.33 191.49 324.92 192.79 294.33 194.09 283.51 195.39 283.38 196.69 287.76 197.99 294.79 199.29 271.61 200.59 270.41 201.89 283.95 203.19 274.17 204.5 275.12 205.8 263 207.1 253.58 208.4 256.82 209.7 257.88 211 239.38 212.3 234.92 213.6 259.49 214.9 263.66 216.2 198.82 217.5 241.18 218.8 265.75 220.1 244.78 221.4 214.54 222.7 251.04 224 219.72 225.3 244.56 226.6 234.15 227.9 221.05 229.2 246.88 230.5 246.33 231.8 238.84 233.1 220.18 234.4 239.03 235.7 223.18 237 234.35 238.3 270.28 239.6 241.54 240.9 258.62 242.2 245.02 243.5 260.66 244.8 254.78 246.1 250.74 247.4 273.95 248.7 257.69 250 291.25 251.3 258.92 252.6 322.28 253.9 282.64 255.2 286.7 256.5 276.49 257.8 274.36 259.1 295.61 260.4 283.73 261.7 280.05 263 298.99 264.3 281.99 265.6 270.82 266.9 264.94 268.2 266.76 269.5 262.38 270.81 299.26 272.11 248.35 273.41 283.73 274.71 277.63 276.01 285.69 277.31 260.52 278.61 261.01 279.91 234.32 281.21 231.98 282.51 236.63 283.81 265.67 285.11 242.98 286.41 248.43 287.71 227.83 289.01 199.67 290.31 235.24 291.61 238.32 292.91 238.43 294.21 239.06 295.51 256.95 296.81 232.25 298.11 255.05 299.41 243.47 300.71 222.6 302.01 260.17 303.31 228.79 304.61 236.8 305.91 262.89 307.21 262.78 308.51 253 309.81 257.61 311.11 250.99 312.41 251.51 313.71 241.32 315.01 286.54 316.31 254.34 317.61 265.78 318.91 280.74 320.21 287.65 321.51 300.59 322.81 272.29 324.11 284.14 325.41 307.35 326.71 295.99 328.01 291.14 329.31 278.94 330.61 278.69 331.91 285.91 333.21 291.69 334.51 302.47 335.81 272.92 337.12 291.85 338.42 268.23 339.72 262.35 341.02 268.31 342.32 288.09 343.62 244.34 344.92 235.46 346.22 282.7 347.52 258.1 348.82 260.6 350.12 248.35 351.42 241.97 352.72 250.91 354.02 249.55 355.32 210.86 356.62 232.22 357.92 239.93 359.22 280.41 360.52 249.65 361.82 209.56 363.12 235.05 364.42 229.36 365.72 240.5 367.02 250.2 368.32 225.87 369.62 222.06 370.92 238.98 372.22 234.73 373.52 225.3 374.82 224.1 376.12 234.26 377.42 242.19 378.72 249.41 380.02 262.18 381.32 248.89 382.62 253.17 383.92 265.37 385.22 258.07 386.52 264.2 387.82 251.29 389.12 281.91 390.42 283.6 391.72 293.76 393.02 274.09 394.32 290.16 395.62 285.88 396.92 295.83 398.22 271.26 399.52 282.75 400.82 285.18 402.13 286.48 403.43 266.46 404.73 311.49 406.03 295.53 407.33 286.32 408.63 259.43 409.93 274.85 411.23 252.21 412.53 267.33 413.83 254.5 415.13 269.87 416.43 258.89 417.73 242.05 419.03 263.6 420.33 234.89 421.63 243.42 422.93 252.81 424.23 234.05 425.53 245.4 426.83 289.48 428.13 253.77 429.43 282.02 430.73 214.11 432.03 242.52 433.33 247.88 434.63 247.83 435.93 220.04 437.23 246.9 438.53 269.98 439.83 263.17 441.13 238.49 442.43 232.9 443.73 238.68 445.03 257.2 446.33 264.94 447.63 248.13 448.93 282.89 450.23 257.04 451.53 254.31 452.83 264.64 454.13 264.88 455.43 282.37 456.73 324.51 458.03 283.9 459.33 295.72 460.63 269.78 461.93 284.22 463.23 276.51 464.53 282.12 465.83 277.06 467.13 275.94 468.44 303.51 469.74 300.51 471.04 278.45 472.34 260.06 473.64 268.23 474.94 268.45 476.24 308.85 477.54 272.59 478.84 267.44 480.14 274.28 481.44 312.36 482.74 246.66 484.04 282.32 485.34 244.91 486.64 269.87 487.94 259.19 489.24 262.97 490.54 252.24 491.84 228.79 493.14 215.69 494.44 254.28 495.74 255.24 497.04 245.32 498.34 254.42 499.64 276.24 500.94 270.08 502.24 234.86 503.54 250.85 504.84 244.45 506.14 237.1 507.44 235.35 508.74 235.54 510.04 257.53 511.34 248.81 512.64 277.96 513.94 257.15 515.24 238.1 516.54 233.72 517.84 258.97 519.14 252.43 520.44 283.84 521.74 256.11 523.04 272.59 524.34 275.4 525.64 286.43 526.94 282.12 528.24 285.99 529.54 297.43 530.84 310.81 532.14 293.16 533.44 289.37 534.75 286.05 536.05 280.82 537.35 286.18 538.65 295.69 539.95 259.19 541.25 274.82 542.55 274.28 543.85 288.42 545.15 279.78 546.45 266.6 547.75 269.54 549.05 266.57 550.35 273.46 551.65 252.38 552.95 287.19 554.25 275.8 555.55 250.66 556.85 241.97 558.15 241.62 559.45 231.59 560.75 236.25 562.05 232.98 563.35 234.24 564.65 248.81 565.95 246.88 567.25 222.5 568.55 247.31 569.85 246.33 571.15 234.24 572.45 236.09 573.75 273.05 575.05 255.97 576.35 246.33 577.65 238.76 578.95 239.71 580.25 256.03 581.55 245.81 582.85 261.45 584.15 288.23 585.45 276.38 586.75 273.08 588.05 270.71 589.35 287.41 590.65 288.77 591.95 299.15 593.25 271.69 594.55 279.89 595.85 309.07 597.15 287.38 598.45 295.01 599.75 296.4 601.06 286.59 602.36 284.6 603.66 280.98 604.96 296.37 606.26 277.11 607.56 261.61 608.86 324.78 610.16 309.42 611.46 279.65 612.76 294.79 614.06 271.12 615.36 263.27 616.66 270.38 617.96 238.81 619.26 242.93 620.56 229.25 621.86 243.33 623.16 227.07 624.46 245.54 625.76 227.02 627.06 231.54 628.36 234.81 629.66 231.02 630.96 224.48 632.26 218.85 633.56 213.56 634.86 252 636.16 228.84 637.46 231.24 638.76 240.2 640.06 267.99 641.36 219.91 642.66 237.18 643.96 242.35 645.26 257.39 646.56 257.23 647.86 254.83 649.16 262.1 650.46 239.28 651.76 286.59 653.06 260.9 654.36 267.41 655.66 249.82 656.96 296.56 658.26 295.74 659.56 273.95 660.86 290.87 662.16 280.11 663.46 290.41 664.76 292.61 666.07 288.63 667.37 291.44 668.67 290.68 669.97 273.24 671.27 296.04 672.57 278.01 673.87 307.84 675.17 314.65 676.47 305.74 677.77 279.1 679.07 284.52 680.37 265.4 681.67 257.06 682.97 266.3 684.27 259.9 685.57 252.24"/>
</g>
<g clip-path="url(#clip_5)">
<text xml:space="preserve" transform="matrix(1 0 -0 1 0 523)" font-size="13" font-family="Helvetica" font-weight="bold"><tspan y="-338.59" x="316.99 324.15299 331.38099 342.938 350.88099 358.10899 363.166 370.39399 374.723 382.666 387.723">Temperature</tspan></text>
</g>
<path transform="matrix(1,0,0,-1,0,523)" stroke-width=".75" stroke-linecap="round" stroke-linejoin="round" fill="none" stroke="#000000" d="M26.37 193.49H702.47"/>
<path transform="matrix(1,0,0,-1,0,523)" stroke-width=".75" stroke-linecap="round" stroke-linejoin="round" fill="none" stroke="#000000" d="M26.37 193.49V188.74"/>
<path transform="matrix(1,0,0,-1,0,523)" stroke-width=".75" stroke-linecap="round" stroke-linejoin="round" fill="none" stroke="#000000" d="M161.59 193.49V188.74"/>
<path transform="matrix(1,0,0,-1,0,523)" stroke-width=".75" stroke-linecap="round" stroke-linejoin="round" fill="none" stroke="#000000" d="M296.81 193.49V188.74"/>
<path transform="matrix(1,0,0,-1,0,523)" stroke-width=".75" stroke-linecap="round" stroke-linejoin="round" fill="none" stroke="#000000" d="M432.03 193.49V188.74"/>
<path transform="matrix(1,0,0,-1,0,523)" stroke-width=".75" stroke-linecap="round" stroke-linejoin="round" fill="none" stroke="#000000" d="M567.25 193.49V188.74"/>
<path transform="matrix(1,0,0,-1,0,523)" stroke-width=".75" stroke-linecap="round" stroke-linejoin="round" fill="none" stroke="#000000" d="M702.47 193.49V188.74"/>
<text xml:space="preserve" transform="matrix(1 0 -0 1 0 523)" font-size="11" font-family="Helvetica"><tspan y="-176.38" x="14.14 20.256 26.372002 32.488004">1970</tspan></text>
<text xml:space="preserve" transform="matrix(1 0 -0 1 0 523)" font-size="11" font-family="Helvetica"><tspan y="-176.38" x="149.36 155.476 161.592 167.708">1972</tspan></text>
<text xml:space="preserve" transform="matrix(1 0 -0 1 0 523)" font-size="11" font-family="Helvetica"><tspan y="-176.38" x="284.58 290.69599 296.81199 302.92799">1974</tspan></text>
<text xml:space="preserve" transform="matrix(1 0 -0 1 0 523)" font-size="11" font-family="Helvetica"><tspan y="-176.38" x="419.8 425.916 432.03199 438.14799">1976</tspan></text>
<text xml:space="preserve" transform="matrix(1 0 -0 1 0 523)" font-size="11" font-family="Helvetica"><tspan y="-176.38" x="555.02 561.13607 567.2521 573.3681">1978</tspan></text>
<text xml:space="preserve" transform="matrix(1 0 -0 1 0 523)" font-size="11" font-family="Helvetica"><tspan y="-176.38" x="690.24 696.356 702.47207 708.5881">1980</tspan></text>
<path transform="matrix(1,0,0,-1,0,523)" stroke-width=".75" stroke-linecap="round" stroke-linejoin="round" fill="none" stroke="#000000" d="M0 196.34V332.55"/>
<path transform="matrix(1,0,0,-1,0,523)" stroke-width=".75" stroke-linecap="round" stroke-linejoin="round" fill="none" stroke="#000000" d="M0 196.34V196.34"/>
<path transform="matrix(1,0,0,-1,0,523)" stroke-width=".75" stroke-linecap="round" stroke-linejoin="round" fill="none" stroke="#000000" d="M0 223.59V223.59"/>
<path transform="matrix(1,0,0,-1,0,523)" stroke-width=".75" stroke-linecap="round" stroke-linejoin="round" fill="none" stroke="#000000" d="M0 250.83V250.83"/>
<path transform="matrix(1,0,0,-1,0,523)" stroke-width=".75" stroke-linecap="round" stroke-linejoin="round" fill="none" stroke="#000000" d="M0 278.07V278.07"/>
<path transform="matrix(1,0,0,-1,0,523)" stroke-width=".75" stroke-linecap="round" stroke-linejoin="round" fill="none" stroke="#000000" d="M0 305.31V305.31"/>
<path transform="matrix(1,0,0,-1,0,523)" stroke-width=".75" stroke-linecap="round" stroke-linejoin="round" fill="none" stroke="#000000" d="M0 332.55V332.55"/>
<path transform="matrix(1,0,0,-1,0,523)" stroke-width=".75" stroke-linecap="round" stroke-linejoin="round" fill="none" stroke="#000000" d="M0 193.49H711.94V337.56H0V193.49"/>
<g clip-path="url(#clip_6)">
</g>
<g clip-path="url(#clip_7)">
<path transform="matrix(1,0,0,-1,0,523)" stroke-width=".75" stroke-linecap="round" stroke-linejoin="round" fill="none" stroke="#00cd00" d="M26.37 114.44 27.67 74.74 28.97 85.18 30.27 84.29 31.57 102.93 32.87 65.14 34.17 71.7 35.47 64.44 36.77 32.48 38.07 58.96 39.37 78.74 40.67 44.97 41.97 116.03 43.27 41.34 44.57 60.14 45.87 60.88 47.17 40.16 48.47 77.37 49.77 60.61 51.07 91.72 52.37 72.42 53.67 78.4 54.97 65.48 56.27 91.89 57.57 94 58.87 84.03 60.17 76.44 61.47 84.1 62.77 71.99 64.07 84.65 65.37 100.22 66.67 118.35 67.97 95.1 69.27 75.49 70.57 75.25 71.87 77.38 73.18 123.3 74.48 69.78 75.78 116.39 77.08 121.56 78.38 58 79.68 112.38 80.98 99.24 82.28 73.38 83.58 107.74 84.88 100.13 86.18 129.96 87.48 115.86 88.78 106.31 90.08 118.99 91.38 101.58 92.68 109.61 93.98 65.71 95.28 59.63 96.58 84.16 97.88 55.58 99.18 81.5 100.48 62.48 101.78 80.95 103.08 65.83 104.38 43.3 105.68 42.97 106.98 51.25 108.28 54.36 109.58 49.67 110.88 51.82 112.18 28.64 113.48 44.97 114.78 49.28 116.08 80.11 117.38 52.4 118.68 41.15 119.98 75.27 121.28 62.72 122.58 51.2 123.88 61.28 125.18 70.33 126.48 52.45 127.78 43.49 129.08 69.86 130.38 42.12 131.68 93.59 132.98 46.75 134.28 75.56 135.58 70.26 136.88 115.04 138.18 75.91 139.49 112.51 140.79 75.58 142.09 131.83 143.39 89.78 144.69 97.11 145.99 111.95 147.29 76.88 148.59 101.4 149.89 117.9 151.19 57.55 152.49 109.2 153.79 134.2 155.09 135.45 156.39 105.78 157.69 90.23 158.99 87.48 160.29 100.46 161.59 98.18 162.89 87.31 164.19 69.57 165.49 74.05 166.79 72.94 168.09 56.81 169.39 64.42 170.69 63.85 171.99 51.15 173.29 58.94 174.59 66.57 175.89 38.89 177.19 65.81 178.49 31.19 179.79 53.33 181.09 54.84 182.39 44.9 183.69 46 184.99 33.92 186.29 54.74 187.59 52.98 188.89 48 190.19 37.1 191.49 79.92 192.79 52.26 194.09 47.15 195.39 58.15 196.69 52.85 197.99 56.42 199.29 31.73 200.59 73.52 201.89 73.18 203.19 62.91 204.5 62.27 205.8 77.11 207.1 86.88 208.4 95.19 209.7 115.11 211 88.27 212.3 86.81 213.6 105.42 214.9 112.58 216.2 83.19 217.5 118.32 218.8 118.27 220.1 87.96 221.4 112.5 222.7 109.42 224 71.85 225.3 99.09 226.6 92.18 227.9 58.32 229.2 71.03 230.5 63.01 231.8 60.85 233.1 44.28 234.4 61.14 235.7 39.49 237 42.51 238.3 65.95 239.6 55.42 240.9 42.77 242.2 53.89 243.5 57.52 244.8 58.74 246.1 43.9 247.4 51.66 248.7 35.88 250 68.15 251.3 37.94 252.6 71.1 253.9 53.91 255.2 55.22 256.5 41.89 257.8 45.38 259.1 61.86 260.4 47.82 261.7 42.01 263 68.04 264.3 53.16 265.6 41.94 266.9 47.04 268.2 53.02 269.5 60.11 270.81 86 272.11 60.5 273.41 102.91 274.71 86.52 276.01 96.13 277.31 82.64 278.61 114.99 279.91 67.77 281.21 81.14 282.51 105.94 283.81 119.4 285.11 112.27 286.41 98.24 287.71 96.1 289.01 56.43 290.31 98.28 291.61 105.89 292.91 116.22 294.21 109.99 295.51 102.67 296.81 82.26 298.11 79.8 299.41 71.75 300.71 69.16 302.01 98.98 303.31 42.42 304.61 41.12 305.91 55.66 307.21 61.79 308.51 54.15 309.81 58.6 311.11 40.55 312.41 40.28 313.71 33.98 315.01 56.45 316.31 33.7 317.61 37.38 318.91 51.08 320.21 50.44 321.51 62.75 322.81 33.58 324.11 47.88 325.41 61.95 326.71 53.76 328.01 42.08 329.31 30.23 330.61 46.41 331.91 52.54 333.21 55.85 334.51 68.2 335.81 47.03 337.12 77.02 338.42 60.78 339.72 37.91 341.02 83.36 342.32 91.67 343.62 50.48 344.92 80.18 346.22 101.73 347.52 103.74 348.82 96.82 350.12 93.25 351.42 114.62 352.72 81.92 354.02 128.81 355.32 65.21 356.62 102.35 357.92 68.52 359.22 122.01 360.52 109.37 361.82 77.73 363.12 65.07 364.42 67.03 365.72 74.55 367.02 107.12 368.32 45.7 369.62 51.34 370.92 59.47 372.22 36.9 373.52 55.71 374.82 32.41 376.12 39.26 377.42 37.03 378.72 48.64 380.02 55.7 381.32 36.95 382.62 36.38 383.92 41.99 385.22 39.25 386.52 42.92 387.82 27.01 389.12 57.35 390.42 44.67 391.72 55.49 393.02 32.02 394.32 52.31 395.62 46.7 396.92 62.24 398.22 31.81 399.52 48.93 400.82 62.17 402.13 61.76 403.43 46.12 404.73 84.73 406.03 71.65 407.33 74.89 408.63 44.95 409.93 96.7 411.23 57.35 412.53 112.87 413.83 103.05 415.13 104.01 416.43 138.99 417.73 109.9 419.03 118.42 420.33 88.35 421.63 138.17 422.93 118.2 424.23 101.37 425.53 123.14 426.83 106.59 428.13 87.2 429.43 114.61 430.73 39.16 432.03 70.22 433.33 68.66 434.63 68.01 435.93 49.55 437.23 62.87 438.53 74.76 439.83 49.34 441.13 45.7 442.43 53.53 443.73 42.58 445.03 47.7 446.33 53.55 447.63 42.41 448.93 61.07 450.23 31.59 451.53 36.12 452.83 34.82 454.13 42.84 455.43 43.01 456.73 77.26 458.03 43.51 459.33 56.19 460.63 24.34 461.93 57.48 463.23 32.12 464.53 48.45 465.83 39.32 467.13 29.91 468.44 64.45 469.74 50.58 471.04 53.22 472.34 35.59 473.64 45.98 474.94 44.97 476.24 97.13 477.54 68.76 478.84 57.93 480.14 90.19 481.44 97.54 482.74 84.37 484.04 109.87 485.34 107.77 486.64 114.09 487.94 120.55 489.24 110.64 490.54 131.95 491.84 92.56 493.14 73.81 494.44 115.95 495.74 103.81 497.04 90.71 498.34 115.31 499.64 97.9 500.94 92.39 502.24 55.16 503.54 76.23 504.84 62.75 506.14 64.75 507.44 45.15 508.74 55.47 510.04 55.78 511.34 40.05 512.64 62.84 513.94 34.8 515.24 34.17 516.54 33.24 517.84 44.3 519.14 31.28 520.44 56.81 521.74 32.71 523.04 39.52 524.34 65.6 525.64 42.49 526.94 50.49 528.24 44.52 529.54 62.05 530.84 76.66 532.14 50.84 533.44 62.26 534.75 55.92 536.05 43.39 537.35 50.82 538.65 68.99 539.95 39.35 541.25 59.89 542.55 64.3 543.85 85.66 545.15 97.2 546.45 84.2 547.75 89.5 549.05 69.48 550.35 110.07 551.65 98.55 552.95 82.64 554.25 125.79 555.55 134.89 556.85 94.83 558.15 67.24 559.45 74.38 560.75 84.77 562.05 80.39 563.35 75.1 564.65 109.99 565.95 77.49 567.25 46.96 568.55 77.79 569.85 66.41 571.15 40.62 572.45 59.3 573.75 55.75 575.05 47.13 576.35 37.63 577.65 46.29 578.95 38.42 580.25 49.02 581.55 38.51 582.85 52.55 584.15 55.7 585.45 52.18 586.75 43.95 588.05 40 589.35 67.01 590.65 53.69 591.95 59.68 593.25 34.61 594.55 60.64 595.85 83.65 597.15 72.9 598.45 74.6 599.75 72.4 601.06 56.5 602.36 72.51 603.66 76.08 604.96 70.24 606.26 53.74 607.56 47.88 608.86 61.69 610.16 132.62 611.46 86.26 612.76 127.57 614.06 65.5 615.36 87.12 616.66 102.12 617.96 82.62 619.26 90.88 620.56 48.31 621.86 110.57 623.16 68.16 624.46 90.35 625.76 107.34 627.06 108.07 628.36 61.65 629.66 89.01 630.96 59.75 632.26 73.91 633.56 52.5 634.86 157.74 636.16 58.91 637.46 60.76 638.76 80.37 640.06 104.24 641.36 47.64 642.66 52.07 643.96 50.22 645.26 60.38 646.56 54.6 647.86 67.77 649.16 53.55 650.46 51.3 651.76 62.51 653.06 63.13 654.36 48.36 655.66 53.72 656.96 57.41 658.26 82.72 659.56 54.63 660.86 72.04 662.16 64.28 663.46 73.18 664.76 83.12 666.07 74.09 667.37 76.01 668.67 85.68 669.97 50.53 671.27 97.42 672.57 55.87 673.87 98.78 675.17 88.35 676.47 83.96 677.77 70.65 679.07 108.29 680.37 61.98 681.67 67.85 682.97 111 684.27 88.44 685.57 97.08"/>
</g>
<g clip-path="url(#clip_8)">
<text xml:space="preserve" transform="matrix(1 0 -0 1 0 523)" font-size="13" font-family="Helvetica" font-weight="bold"><tspan y="-164.11" x="319.18 327.46098 334.68898 340.00599 344.335 347.949 355.177 363.12 366.734 373.962 378.29103 385.519">Particulates</tspan></text>
</g>
<path transform="matrix(1,0,0,-1,0,523)" stroke-width=".75" stroke-linecap="round" stroke-linejoin="round" fill="none" stroke="#000000" d="M26.37 19.01H702.47"/>
<path transform="matrix(1,0,0,-1,0,523)" stroke-width=".75" stroke-linecap="round" stroke-linejoin="round" fill="none" stroke="#000000" d="M26.37 19.01V14.26"/>
<path transform="matrix(1,0,0,-1,0,523)" stroke-width=".75" stroke-linecap="round" stroke-linejoin="round" fill="none" stroke="#000000" d="M161.59 19.01V14.26"/>
<path transform="matrix(1,0,0,-1,0,523)" stroke-width=".75" stroke-linecap="round" stroke-linejoin="round" fill="none" stroke="#000000" d="M296.81 19.01V14.26"/>
<path transform="matrix(1,0,0,-1,0,523)" stroke-width=".75" stroke-linecap="round" stroke-linejoin="round" fill="none" stroke="#000000" d="M432.03 19.01V14.26"/>
<path transform="matrix(1,0,0,-1,0,523)" stroke-width=".75" stroke-linecap="round" stroke-linejoin="round" fill="none" stroke="#000000" d="M567.25 19.01V14.26"/>
<path transform="matrix(1,0,0,-1,0,523)" stroke-width=".75" stroke-linecap="round" stroke-linejoin="round" fill="none" stroke="#000000" d="M702.47 19.01V14.26"/>
<text xml:space="preserve" transform="matrix(1 0 -0 1 0 523)" font-size="11" font-family="Helvetica"><tspan y="-1.9" x="14.14 20.256 26.372002 32.488004">1970</tspan></text>
<text xml:space="preserve" transform="matrix(1 0 -0 1 0 523)" font-size="11" font-family="Helvetica"><tspan y="-1.9" x="149.36 155.476 161.592 167.708">1972</tspan></text>
<text xml:space="preserve" transform="matrix(1 0 -0 1 0 523)" font-size="11" font-family="Helvetica"><tspan y="-1.9" x="284.58 290.69599 296.81199 302.92799">1974</tspan></text>
<text xml:space="preserve" transform="matrix(1 0 -0 1 0 523)" font-size="11" font-family="Helvetica"><tspan y="-1.9" x="419.8 425.916 432.03199 438.14799">1976</tspan></text>
<text xml:space="preserve" transform="matrix(1 0 -0 1 0 523)" font-size="11" font-family="Helvetica"><tspan y="-1.9" x="555.02 561.13607 567.2521 573.3681">1978</tspan></text>
<text xml:space="preserve" transform="matrix(1 0 -0 1 0 523)" font-size="11" font-family="Helvetica"><tspan y="-1.9" x="690.24 696.356 702.47207 708.5881">1980</tspan></text>
<path transform="matrix(1,0,0,-1,0,523)" stroke-width=".75" stroke-linecap="round" stroke-linejoin="round" fill="none" stroke="#000000" d="M0 23.91V161.28"/>
<path transform="matrix(1,0,0,-1,0,523)" stroke-width=".75" stroke-linecap="round" stroke-linejoin="round" fill="none" stroke="#000000" d="M0 23.91V23.91"/>
<path transform="matrix(1,0,0,-1,0,523)" stroke-width=".75" stroke-linecap="round" stroke-linejoin="round" fill="none" stroke="#000000" d="M0 58.26V58.26"/>
<path transform="matrix(1,0,0,-1,0,523)" stroke-width=".75" stroke-linecap="round" stroke-linejoin="round" fill="none" stroke="#000000" d="M0 92.6V92.6"/>
<path transform="matrix(1,0,0,-1,0,523)" stroke-width=".75" stroke-linecap="round" stroke-linejoin="round" fill="none" stroke="#000000" d="M0 126.94V126.94"/>
<path transform="matrix(1,0,0,-1,0,523)" stroke-width=".75" stroke-linecap="round" stroke-linejoin="round" fill="none" stroke="#000000" d="M0 161.28V161.28"/>
<path transform="matrix(1,0,0,-1,0,523)" stroke-width=".75" stroke-linecap="round" stroke-linejoin="round" fill="none" stroke="#000000" d="M0 19.01H711.94V163.08H0V19.01"/>
</svg>
