<svg xmlns="http://www.w3.org/2000/svg" xmlns:xlink="http://www.w3.org/1999/xlink" version="1.1" width="337.94615pt" height="232.56739pt" viewBox="0 0 337.94615 232.56739">
<defs>
<clipPath id="clip_0">
<path transform="matrix(1,0,0,-1,-53.38635,319.4826)" d="M0 595.92H842V.04306083H0Z" fill-rule="evenodd"/>
</clipPath>
<clipPath id="clip_1">
<path transform="matrix(1,0,0,-1,-53.38635,319.4826)" d="M0 0H841.92V595.92H0Z"/>
</clipPath>
<clipPath id="clip_2">
<path transform="matrix(1,0,0,-1,-53.38635,319.4826)" d="M0 595.92H842V.7627728H0Z" fill-rule="evenodd"/>
</clipPath>
<clipPath id="clip_3">
<path transform="matrix(1,0,0,-1,-53.38635,319.4826)" d="M0 0H841.92V595.92H0Z"/>
</clipPath>
<clipPath id="clip_4">
<path transform="matrix(1,0,0,-1,-53.38635,319.4826)" d="M0 104.0337H842V90.36017H0Z" fill-rule="evenodd"/>
</clipPath>
<clipPath id="clip_5">
<path transform="matrix(1,0,0,-1,-53.38635,319.4826)" d="M0 0H841.92V595.92H0Z"/>
</clipPath>
<clipPath id="clip_6">
<path transform="matrix(1,0,0,-1,-53.38635,319.4826)" d="M0 104.0337H842V87.48152H0Z" fill-rule="evenodd"/>
</clipPath>
<clipPath id="clip_7">
<path transform="matrix(1,0,0,-1,-53.38635,319.4826)" d="M0 0H841.92V595.92H0Z"/>
</clipPath>
<clipPath id="clip_8">
<path transform="matrix(1,0,0,-1,-53.38635,319.4826)" d="M0 595.92H842V.04306083H0Z"/>
</clipPath>
<clipPath id="clip_9">
<path transform="matrix(1,0,0,-1,-53.38635,319.4826)" d="M0 595.92H842V.7627728H0Z"/>
</clipPath>
<clipPath id="clip_10">
<path transform="matrix(1,0,0,-1,-53.38635,319.4826)" d="M52.17521 595.92H65.84872V.7627728H52.17521Z" fill-rule="evenodd"/>
</clipPath>
<clipPath id="clip_11">
<path transform="matrix(1,0,0,-1,-53.38635,319.4826)" d="M0 0H841.92V595.92H0Z"/>
</clipPath>
<clipPath id="clip_12">
<path transform="matrix(1,0,0,-1,-53.38635,319.4826)" d="M0 595.92H842V.04306083H0Z"/>
</clipPath>
<clipPath id="clip_13">
<path transform="matrix(1,0,0,-1,-53.38635,319.4826)" d="M0 595.92H842V.7627728H0Z"/>
</clipPath>
<clipPath id="clip_14">
<path transform="matrix(1,0,0,-1,-53.38635,319.4826)" d="M52.17521 595.92H68.72735V.7627728H52.17521Z" fill-rule="evenodd"/>
</clipPath>
<clipPath id="clip_15">
<path transform="matrix(1,0,0,-1,-53.38635,319.4826)" d="M0 0H841.92V595.92H0Z"/>
</clipPath>
</defs>
<g clip-path="url(#clip_0)">
<g clip-path="url(#clip_1)">
<path transform="matrix(1,0,0,-1,-53.38635,319.4826)" d="M0 595.92H841.9999V.04310134H0Z" fill="#ffffff"/>
<path transform="matrix(1,0,0,-1,-53.38635,319.4826)" d="M0 595.92H841.9999V.7627594H0Z" fill="#ffffff"/>
</g>
</g>
<g clip-path="url(#clip_2)">
<g clip-path="url(#clip_3)">
<path transform="matrix(.7196581,0,0,.7196581,-53.02652,-276.07759)" stroke-width="3" stroke-linecap="butt" stroke-miterlimit="10" stroke-linejoin="miter" fill="none" stroke="#000000" d="M100 670H529.9"/>
<path transform="matrix(1,0,0,-1,-53.38635,319.4826)" d="M386.5643 113.3892 380.0874 110.1508 381.7067 113.3892 380.0874 116.6277 386.5643 113.3892Z"/>
<path transform="matrix(.7196581,0,0,.7196581,-53.02652,-276.07759)" stroke-width="3" stroke-linecap="butt" stroke-miterlimit="10" stroke-linejoin="miter" fill="none" stroke="#000000" d="M536.65 670 527.65 674.5 529.9 670 527.65 665.5 536.65 670Z"/>
<path transform="matrix(.7196581,0,0,.7196581,-53.02652,-276.07759)" stroke-width="3" stroke-linecap="butt" stroke-miterlimit="10" stroke-linejoin="miter" fill="none" stroke="#000000" d="M100 670V440.1"/>
<path transform="matrix(1,0,0,-1,-53.38635,319.4826)" d="M72.32564 283.6963 75.5641 277.2194 72.32564 278.8386 69.08717 277.2194 72.32564 283.6963Z"/>
<path transform="matrix(.7196581,0,0,.7196581,-53.02652,-276.07759)" stroke-width="3" stroke-linecap="butt" stroke-miterlimit="10" stroke-linejoin="miter" fill="none" stroke="#000000" d="M100 433.35 104.5 442.35 100 440.1 95.5 442.35 100 433.35Z"/>
<path transform="matrix(1,0,0,-1,-53.38635,319.4826)" d="M137.0949 185.3551C137.0948 184.8825 137.0488 184.4145 136.9566 183.9511 136.8644 183.4876 136.7279 183.0377 136.547 182.6011 136.3662 182.1646 136.1445 181.7498 135.882 181.3569 135.6195 180.964 135.3211 180.6005 134.987 180.2663 134.6529 179.9322 134.2894 179.6339 133.8965 179.3714 133.5036 179.1088 133.0888 178.8871 132.6523 178.7063 132.2157 178.5255 131.7657 178.3889 131.3022 178.2967 130.8388 178.2046 130.3708 178.1585 129.8983 178.1585 129.4258 178.1585 128.9577 178.2046 128.4943 178.2967 128.0308 178.3889 127.5808 178.5255 127.1443 178.7063 126.7077 178.8871 126.293 179.1088 125.9001 179.3714 125.5072 179.6339 125.1436 179.9322 124.8095 180.2663 124.4754 180.6005 124.1771 180.964 123.9145 181.3569 123.652 181.7498 123.4303 182.1646 123.2495 182.6011 123.0687 183.0377 122.9322 183.4876 122.84 183.9511 122.7478 184.4145 122.7017 184.8825 122.7017 185.3551 122.7017 185.8276 122.7478 186.2956 122.84 186.7591 122.9322 187.2225 123.0687 187.6726 123.2495 188.1091 123.4303 188.5457 123.652 188.9604 123.9145 189.3533 124.1771 189.7462 124.4754 190.1097 124.8095 190.4438 125.1436 190.778 125.5072 191.0763 125.9001 191.3388 126.293 191.6013 126.7077 191.823 127.1443 192.0039 127.5808 192.1847 128.0308 192.3212 128.4943 192.4134 128.9577 192.5056 129.4258 192.5516 129.8983 192.5516 130.3708 192.5516 130.8388 192.5056 131.3022 192.4134 131.7657 192.3212 132.2157 192.1847 132.6523 192.0039 133.0888 191.823 133.5036 191.6013 133.8965 191.3388 134.2894 191.0763 134.6529 190.778 134.987 190.4438 135.3211 190.1097 135.6195 189.7462 135.882 189.3533 136.1445 188.9604 136.3662 188.5457 136.547 188.1091 136.7279 187.6726 136.8644 187.2225 136.9566 186.7591 137.0488 186.2956 137.0948 185.8276 137.0949 185.3551Z" fill="#00ff00"/>
<path transform="matrix(1,0,0,-1,-53.38635,319.4826)" d="M187.4709 156.5687C187.4709 156.0962 187.4248 155.6282 187.3326 155.1648 187.2404 154.7013 187.1039 154.2513 186.9231 153.8147 186.7423 153.3781 186.5206 152.9634 186.2581 152.5705 185.9955 152.1777 185.6972 151.8141 185.3631 151.48 185.029 151.1459 184.6654 150.8475 184.2725 150.585 183.8797 150.3225 183.4649 150.1008 183.0284 149.92 182.5918 149.7391 182.1418 149.6026 181.6783 149.5104 181.2149 149.4182 180.7469 149.3722 180.2743 149.3722 179.8018 149.3722 179.3338 149.4182 178.8703 149.5104 178.4069 149.6026 177.9569 149.7391 177.5203 149.92 177.0837 150.1008 176.669 150.3225 176.2761 150.585 175.8832 150.8475 175.5197 151.1459 175.1856 151.48 174.8515 151.8141 174.5531 152.1777 174.2906 152.5705 174.0281 152.9634 173.8064 153.3781 173.6256 153.8147 173.4447 154.2513 173.3082 154.7013 173.216 155.1648 173.1238 155.6282 173.0778 156.0962 173.0778 156.5687 173.0778 157.0413 173.1238 157.5093 173.216 157.9728 173.3082 158.4362 173.4447 158.8862 173.6256 159.3228 173.8064 159.7594 174.0281 160.1741 174.2906 160.567 174.5531 160.9599 174.8515 161.3234 175.1856 161.6575 175.5197 161.9916 175.8832 162.29 176.2761 162.5525 176.669 162.8151 177.0837 163.0367 177.5203 163.2175 177.9569 163.3984 178.4069 163.5348 178.8703 163.627 179.3338 163.7192 179.8018 163.7653 180.2743 163.7653 180.7469 163.7653 181.2149 163.7192 181.6783 163.627 182.1418 163.5348 182.5918 163.3984 183.0284 163.2175 183.4649 163.0367 183.8797 162.8151 184.2726 162.5525 184.6654 162.29 185.029 161.9916 185.3631 161.6575 185.6972 161.3234 185.9955 160.9599 186.2581 160.567 186.5206 160.1741 186.7423 159.7594 186.9231 159.3228 187.1039 158.8862 187.2404 158.4362 187.3326 157.9728 187.4248 157.5093 187.4709 157.0413 187.4709 156.5687Z" fill="#00ff00"/>
<path transform="matrix(1,0,0,-1,-53.38635,319.4826)" d="M216.2572 185.3551C216.2572 184.8825 216.2111 184.4145 216.1189 183.9511 216.0267 183.4876 215.8902 183.0377 215.7094 182.6011 215.5286 182.1646 215.3069 181.7498 215.0444 181.3569 214.7818 180.964 214.4835 180.6005 214.1494 180.2663 213.8153 179.9322 213.4517 179.6339 213.0588 179.3714 212.6659 179.1088 212.2512 178.8871 211.8147 178.7063 211.3781 178.5255 210.9281 178.3889 210.4646 178.2967 210.0012 178.2046 209.5332 178.1585 209.0607 178.1585 208.5881 178.1585 208.1201 178.2046 207.6567 178.2967 207.1932 178.3889 206.7432 178.5255 206.3066 178.7063 205.8701 178.8871 205.4553 179.1088 205.0624 179.3714 204.6695 179.6339 204.306 179.9322 203.9719 180.2663 203.6378 180.6005 203.3394 180.964 203.0769 181.3569 202.8144 181.7498 202.5927 182.1646 202.4119 182.6011 202.231 183.0377 202.0945 183.4876 202.0023 183.9511 201.9102 184.4145 201.8641 184.8825 201.8641 185.3551 201.8641 185.8276 201.9102 186.2956 202.0023 186.7591 202.0945 187.2225 202.231 187.6726 202.4119 188.1091 202.5927 188.5457 202.8144 188.9604 203.0769 189.3533 203.3394 189.7462 203.6378 190.1097 203.9719 190.4438 204.306 190.778 204.6695 191.0763 205.0624 191.3388 205.4553 191.6013 205.8701 191.823 206.3066 192.0039 206.7432 192.1847 207.1932 192.3212 207.6567 192.4134 208.1201 192.5056 208.5881 192.5516 209.0607 192.5516 209.5332 192.5516 210.0012 192.5056 210.4646 192.4134 210.9281 192.3212 211.3781 192.1847 211.8147 192.0039 212.2512 191.823 212.6659 191.6013 213.0588 191.3388 213.4517 191.0763 213.8153 190.778 214.1494 190.4438 214.4835 190.1097 214.7818 189.7462 215.0444 189.3533 215.3069 188.9604 215.5286 188.5457 215.7094 188.1091 215.8902 187.6726 216.0267 187.2225 216.1189 186.7591 216.2111 186.2956 216.2572 185.8276 216.2572 185.3551Z" fill="#00ff00"/>
<path transform="matrix(1,0,0,-1,-53.38635,319.4826)" d="M194.6675 206.9448C194.6675 206.4723 194.6214 206.0043 194.5292 205.5408 194.437 205.0774 194.3005 204.6274 194.1197 204.1908 193.9388 203.7543 193.7171 203.3396 193.4546 202.9467 193.1921 202.5538 192.8938 202.1902 192.5597 201.8561 192.2255 201.522 191.862 201.2237 191.4691 200.9611 191.0762 200.6986 190.6615 200.4769 190.2249 200.2961 189.7884 200.1152 189.3384 199.9787 188.8749 199.8865 188.4115 199.7943 187.9435 199.7482 187.4709 199.7482 186.9984 199.7482 186.5304 199.7943 186.0669 199.8865 185.6035 199.9787 185.1534 200.1152 184.7169 200.2961 184.2803 200.4769 183.8656 200.6986 183.4727 200.9611 183.0798 201.2237 182.7163 201.522 182.3822 201.8561 182.048 202.1902 181.7497 202.5538 181.4872 202.9467 181.2246 203.3396 181.003 203.7543 180.8221 204.1908 180.6413 204.6274 180.5048 205.0774 180.4126 205.5408 180.3204 206.0043 180.2743 206.4723 180.2743 206.9448 180.2743 207.4173 180.3204 207.8854 180.4126 208.3488 180.5048 208.8123 180.6413 209.2623 180.8221 209.6988 181.0029 210.1354 181.2246 210.5501 181.4872 210.943 181.7497 211.3359 182.048 211.6994 182.3822 212.0336 182.7163 212.3677 183.0798 212.666 183.4727 212.9285 183.8656 213.1911 184.2803 213.4128 184.7169 213.5936 185.1534 213.7744 185.6035 213.9109 186.0669 214.0031 186.5304 214.0953 186.9984 214.1414 187.4709 214.1414 187.9435 214.1414 188.4115 214.0953 188.8749 214.0031 189.3384 213.9109 189.7884 213.7744 190.2249 213.5936 190.6615 213.4128 191.0762 213.1911 191.4691 212.9285 191.862 212.666 192.2255 212.3677 192.5597 212.0336 192.8938 211.6994 193.1921 211.3359 193.4546 210.943 193.7171 210.5501 193.9388 210.1354 194.1197 209.6988 194.3005 209.2623 194.437 208.8123 194.5292 208.3488 194.6214 207.8854 194.6675 207.4173 194.6675 206.9448Z" fill="#00ff00"/>
<path transform="matrix(1,0,0,-1,-53.38635,319.4826)" d="M180.2743 214.1414C180.2743 213.6688 180.2282 213.2009 180.136 212.7374 180.0439 212.274 179.9073 211.824 179.7265 211.3874 179.5457 210.9508 179.324 210.5361 179.0615 210.1432 178.799 209.7503 178.5006 209.3868 178.1665 209.0526 177.8324 208.7185 177.4688 208.4202 177.0759 208.1577 176.6831 207.8952 176.2683 207.6735 175.8318 207.4927 175.3952 207.3118 174.9452 207.1753 174.4817 207.0831 174.0183 206.9909 173.5503 206.9448 173.0778 206.9448 172.6052 206.9448 172.1372 206.9909 171.6738 207.0831 171.2103 207.1753 170.7603 207.3118 170.3237 207.4927 169.8872 207.6735 169.4724 207.8952 169.0795 208.1577 168.6866 208.4202 168.3231 208.7185 167.989 209.0526 167.6549 209.3868 167.3565 209.7503 167.094 210.1432 166.8315 210.5361 166.6098 210.9508 166.429 211.3874 166.2481 211.824 166.1116 212.274 166.0194 212.7374 165.9273 213.2009 165.8812 213.6688 165.8812 214.1414 165.8812 214.614 165.9273 215.0819 166.0194 215.5454 166.1116 216.0088 166.2481 216.4588 166.429 216.8954 166.6098 217.332 166.8315 217.7467 167.094 218.1396 167.3565 218.5325 167.6549 218.896 167.989 219.2302 168.3231 219.5643 168.6866 219.8626 169.0795 220.1252 169.4724 220.3877 169.8872 220.6093 170.3237 220.7902 170.7603 220.971 171.2103 221.1075 171.6738 221.1997 172.1372 221.2919 172.6052 221.338 173.0778 221.338 173.5503 221.338 174.0183 221.2919 174.4817 221.1997 174.9452 221.1075 175.3952 220.971 175.8318 220.7902 176.2683 220.6093 176.6831 220.3877 177.0759 220.1252 177.4688 219.8626 177.8324 219.5643 178.1665 219.2302 178.5006 218.896 178.799 218.5325 179.0615 218.1396 179.324 217.7467 179.5457 217.332 179.7265 216.8954 179.9073 216.4589 180.0439 216.0089 180.136 215.5454 180.2282 215.0819 180.2743 214.614 180.2743 214.1414Z" fill="#00ff00"/>
<path transform="matrix(1,0,0,-1,-53.38635,319.4826)" d="M288.2231 264.5174C288.223 264.0449 288.1769 263.577 288.0848 263.1135 287.9925 262.6501 287.856 262.2001 287.6752 261.7635 287.4944 261.3269 287.2727 260.9122 287.0102 260.5193 286.7477 260.1264 286.4493 259.7628 286.1152 259.4287 285.7811 259.0946 285.4176 258.7963 285.0247 258.5337 284.6318 258.2712 284.217 258.0495 283.7805 257.8687 283.3439 257.6879 282.8939 257.5514 282.4304 257.4592 281.967 257.367 281.499 257.3209 281.0265 257.3209 280.5539 257.3209 280.0859 257.367 279.6225 257.4592 279.159 257.5514 278.709 257.6879 278.2724 257.8687 277.8358 258.0495 277.4211 258.2712 277.0282 258.5337 276.6353 258.7963 276.2718 259.0946 275.9377 259.4287 275.6036 259.7628 275.3053 260.1264 275.0427 260.5193 274.7802 260.9122 274.5585 261.3269 274.3777 261.7635 274.1969 262.2001 274.0603 262.6501 273.9682 263.1135 273.876 263.577 273.8299 264.0449 273.8299 264.5174 273.8299 264.99 273.876 265.458 273.9682 265.9215 274.0603 266.3849 274.1969 266.8349 274.3777 267.2715 274.5585 267.708 274.7802 268.1228 275.0427 268.5157 275.3053 268.9086 275.6036 269.2721 275.9377 269.6062 276.2718 269.9404 276.6353 270.2387 277.0282 270.5012 277.4211 270.7638 277.8358 270.9854 278.2724 271.1663 278.709 271.3471 279.159 271.4836 279.6225 271.5758 280.0859 271.6679 280.5539 271.714 281.0265 271.714 281.499 271.714 281.967 271.6679 282.4304 271.5758 282.8939 271.4836 283.3439 271.3471 283.7805 271.1663 284.217 270.9854 284.6318 270.7638 285.0247 270.5012 285.4176 270.2387 285.7811 269.9404 286.1152 269.6062 286.4493 269.2721 286.7477 268.9086 287.0102 268.5157 287.2727 268.1228 287.4944 267.708 287.6752 267.2715 287.856 266.8349 287.9925 266.3849 288.0847 265.9215 288.1769 265.458 288.223 264.99 288.2231 264.5174Z" fill="#00ff00"/>
<path transform="matrix(1,0,0,-1,-53.38635,319.4826)" d="M129.8983 156.5687C129.8983 156.0962 129.8522 155.6282 129.76 155.1648 129.6678 154.7013 129.5313 154.2513 129.3505 153.8147 129.1696 153.3781 128.948 152.9634 128.6854 152.5705 128.4229 152.1777 128.1246 151.8141 127.7904 151.48 127.4563 151.1459 127.0928 150.8475 126.6999 150.585 126.307 150.3225 125.8923 150.1008 125.4557 149.92 125.0191 149.7391 124.5691 149.6026 124.1057 149.5104 123.6422 149.4182 123.1742 149.3722 122.7017 149.3722 122.2292 149.3722 121.7612 149.4182 121.2977 149.5104 120.8342 149.6026 120.3842 149.7391 119.9477 149.92 119.5111 150.1008 119.0964 150.3225 118.7035 150.585 118.3106 150.8475 117.9471 151.1459 117.6129 151.48 117.2788 151.8141 116.9805 152.1777 116.7179 152.5705 116.4554 152.9634 116.2337 153.3781 116.0529 153.8147 115.8721 154.2513 115.7356 154.7013 115.6434 155.1648 115.5512 155.6282 115.5051 156.0962 115.5051 156.5687 115.5051 157.0413 115.5512 157.5093 115.6434 157.9728 115.7356 158.4362 115.8721 158.8862 116.0529 159.3228 116.2337 159.7594 116.4554 160.1741 116.7179 160.567 116.9805 160.9599 117.2788 161.3234 117.6129 161.6575 117.9471 161.9916 118.3106 162.29 118.7035 162.5525 119.0964 162.8151 119.5111 163.0367 119.9477 163.2175 120.3842 163.3984 120.8342 163.5348 121.2977 163.627 121.7612 163.7192 122.2292 163.7653 122.7017 163.7653 123.1742 163.7653 123.6422 163.7192 124.1057 163.627 124.5691 163.5348 125.0191 163.3984 125.4557 163.2175 125.8923 163.0367 126.307 162.8151 126.6999 162.5525 127.0928 162.29 127.4563 161.9916 127.7904 161.6575 128.1246 161.3234 128.4229 160.9599 128.6854 160.567 128.948 160.1741 129.1696 159.7594 129.3505 159.3228 129.5313 158.8862 129.6678 158.4362 129.76 157.9728 129.8522 157.5093 129.8983 157.0413 129.8983 156.5687Z" fill="#00ff00"/>
<path transform="matrix(1,0,0,-1,-53.38635,319.4826)" d="M194.6675 257.3209C194.6675 256.8483 194.6214 256.3804 194.5292 255.9169 194.437 255.4535 194.3005 255.0035 194.1197 254.5669 193.9388 254.1304 193.7171 253.7156 193.4546 253.3227 193.1921 252.9298 192.8938 252.5663 192.5597 252.2321 192.2255 251.898 191.862 251.5997 191.4691 251.3371 191.0762 251.0746 190.6615 250.853 190.2249 250.6721 189.7884 250.4913 189.3384 250.3548 188.8749 250.2626 188.4115 250.1704 187.9435 250.1243 187.4709 250.1243 186.9984 250.1243 186.5304 250.1704 186.0669 250.2626 185.6035 250.3548 185.1534 250.4913 184.7169 250.6721 184.2803 250.853 183.8656 251.0746 183.4727 251.3371 183.0798 251.5997 182.7163 251.898 182.3822 252.2321 182.048 252.5663 181.7497 252.9298 181.4872 253.3227 181.2246 253.7156 181.003 254.1304 180.8221 254.5669 180.6413 255.0035 180.5048 255.4535 180.4126 255.9169 180.3204 256.3804 180.2743 256.8483 180.2743 257.3209 180.2743 257.7934 180.3204 258.2614 180.4126 258.7249 180.5048 259.1884 180.6413 259.6384 180.8221 260.0749 181.0029 260.5115 181.2246 260.9262 181.4872 261.3191 181.7497 261.712 182.048 262.0755 182.3822 262.4096 182.7163 262.7438 183.0798 263.0421 183.4727 263.3046 183.8656 263.5672 184.2803 263.7888 184.7169 263.9697 185.1534 264.1505 185.6035 264.287 186.0669 264.3791 186.5304 264.4713 186.9984 264.5174 187.4709 264.5174 187.9435 264.5174 188.4115 264.4713 188.8749 264.3791 189.3384 264.287 189.7884 264.1505 190.2249 263.9696 190.6615 263.7888 191.0762 263.5672 191.4691 263.3046 191.862 263.0421 192.2255 262.7438 192.5597 262.4096 192.8938 262.0755 193.1921 261.712 193.4546 261.3191 193.7171 260.9262 193.9388 260.5115 194.1197 260.0749 194.3005 259.6384 194.437 259.1884 194.5292 258.7249 194.6214 258.2614 194.6675 257.7934 194.6675 257.3209Z" fill="#00ff00"/>
<path transform="matrix(1,0,0,-1,-53.38635,319.4826)" d="M295.4196 300.5003C295.4196 300.0278 295.3735 299.5598 295.2813 299.0964 295.1891 298.6329 295.0526 298.1829 294.8718 297.7464 294.691 297.3098 294.4693 296.8951 294.2068 296.5022 293.9443 296.1093 293.6459 295.7458 293.3118 295.4116 292.9777 295.0775 292.6142 294.7791 292.2212 294.5166 291.8284 294.2541 291.4136 294.0324 290.9771 293.8516 290.5405 293.6708 290.0905 293.5342 289.627 293.4421 289.1636 293.3499 288.6956 293.3038 288.2231 293.3038 287.7505 293.3038 287.2825 293.3499 286.819 293.4421 286.3556 293.5342 285.9056 293.6708 285.469 293.8516 285.0324 294.0324 284.6177 294.2541 284.2248 294.5166 283.8319 294.7791 283.4684 295.0775 283.1343 295.4116 282.8001 295.7458 282.5018 296.1093 282.2393 296.5022 281.9767 296.8951 281.7551 297.3098 281.5743 297.7464 281.3934 298.1829 281.2569 298.6329 281.1647 299.0964 281.0726 299.5598 281.0265 300.0278 281.0265 300.5003 281.0265 300.9729 281.0726 301.4409 281.1647 301.9044 281.2569 302.3678 281.3934 302.8178 281.5743 303.2544 281.7551 303.6909 281.9767 304.1057 282.2393 304.4986 282.5018 304.8915 282.8001 305.255 283.1343 305.5891 283.4684 305.9233 283.8319 306.2216 284.2248 306.4841 284.6177 306.7466 285.0324 306.9683 285.469 307.1492 285.9056 307.33 286.3556 307.4665 286.819 307.5586 287.2825 307.6508 287.7505 307.6969 288.2231 307.6969 288.6956 307.6969 289.1636 307.6508 289.627 307.5587 290.0905 307.4665 290.5405 307.33 290.9771 307.1492 291.4136 306.9683 291.8284 306.7466 292.2212 306.4841 292.6142 306.2216 292.9777 305.9233 293.3118 305.5891 293.6459 305.255 293.9443 304.8915 294.2068 304.4986 294.4693 304.1057 294.691 303.6909 294.8718 303.2544 295.0526 302.8178 295.1891 302.3678 295.2813 301.9044 295.3735 301.4409 295.4196 300.9729 295.4196 300.5003Z" fill="#00ff00"/>
<path transform="matrix(1,0,0,-1,-53.38635,319.4826)" d="M317.0094 278.9106C317.0094 278.4381 316.9633 277.9701 316.8711 277.5066 316.7789 277.0432 316.6423 276.5932 316.4615 276.1566 316.2807 275.72 316.059 275.3053 315.7965 274.9124 315.534 274.5195 315.2356 274.156 314.9015 273.8219 314.5674 273.4878 314.2039 273.1894 313.811 272.9269 313.418 272.6644 313.0033 272.4427 312.5667 272.2619 312.1302 272.081 311.6802 271.9445 311.2167 271.8523 310.7533 271.7601 310.2853 271.714 309.8128 271.714 309.3403 271.714 308.8723 271.7601 308.4088 271.8523 307.9453 271.9445 307.4953 272.081 307.0588 272.2619 306.6222 272.4427 306.2075 272.6644 305.8146 272.9269 305.4217 273.1894 305.0582 273.4878 304.724 273.8219 304.3899 274.156 304.0916 274.5195 303.829 274.9124 303.5665 275.3053 303.3448 275.72 303.164 276.1566 302.9832 276.5932 302.8466 277.0432 302.7545 277.5066 302.6623 277.9701 302.6162 278.4381 302.6162 278.9106 302.6162 279.3831 302.6623 279.8511 302.7545 280.3146 302.8467 280.778 302.9832 281.2281 303.164 281.6646 303.3448 282.1012 303.5665 282.5159 303.829 282.9088 304.0916 283.3017 304.3899 283.6652 304.724 283.9994 305.0582 284.3335 305.4217 284.6318 305.8146 284.8944 306.2075 285.1569 306.6222 285.3786 307.0588 285.5594 307.4953 285.7402 307.9453 285.8767 308.4088 285.9689 308.8723 286.0611 309.3403 286.1072 309.8128 286.1072 310.2853 286.1072 310.7533 286.0611 311.2167 285.9689 311.6802 285.8767 312.1302 285.7402 312.5667 285.5594 313.0033 285.3786 313.418 285.1569 313.811 284.8944 314.2039 284.6318 314.5674 284.3335 314.9015 283.9994 315.2356 283.6652 315.534 283.3017 315.7965 282.9088 316.059 282.516 316.2807 282.1012 316.4615 281.6647 316.6423 281.2281 316.7789 280.7781 316.8711 280.3146 316.9633 279.8511 317.0094 279.3831 317.0094 278.9106Z" fill="#00ff00"/>
<path transform="matrix(1,0,0,-1,-53.38635,319.4826)" d="M216.2572 264.5174C216.2572 264.0449 216.2111 263.577 216.1189 263.1135 216.0267 262.6501 215.8902 262.2001 215.7094 261.7635 215.5286 261.3269 215.3069 260.9122 215.0444 260.5193 214.7818 260.1264 214.4835 259.7628 214.1494 259.4287 213.8153 259.0946 213.4517 258.7963 213.0588 258.5337 212.6659 258.2712 212.2512 258.0495 211.8147 257.8687 211.3781 257.6879 210.9281 257.5514 210.4646 257.4592 210.0012 257.367 209.5332 257.3209 209.0607 257.3209 208.5881 257.3209 208.1201 257.367 207.6567 257.4592 207.1932 257.5514 206.7432 257.6879 206.3066 257.8687 205.8701 258.0495 205.4553 258.2712 205.0624 258.5337 204.6695 258.7963 204.306 259.0946 203.9719 259.4287 203.6378 259.7628 203.3394 260.1264 203.0769 260.5193 202.8144 260.9122 202.5927 261.3269 202.4119 261.7635 202.231 262.2001 202.0945 262.6501 202.0023 263.1135 201.9102 263.577 201.8641 264.0449 201.8641 264.5174 201.8641 264.99 201.9102 265.458 202.0023 265.9215 202.0945 266.3849 202.231 266.8349 202.4119 267.2715 202.5927 267.708 202.8144 268.1228 203.0769 268.5157 203.3394 268.9086 203.6378 269.2721 203.9719 269.6062 204.306 269.9404 204.6695 270.2387 205.0624 270.5012 205.4553 270.7638 205.8701 270.9854 206.3066 271.1663 206.7432 271.3471 207.1932 271.4836 207.6567 271.5758 208.1201 271.6679 208.5881 271.714 209.0607 271.714 209.5332 271.714 210.0012 271.6679 210.4646 271.5758 210.9281 271.4836 211.3781 271.3471 211.8147 271.1663 212.2512 270.9854 212.6659 270.7638 213.0588 270.5012 213.4517 270.2387 213.8153 269.9404 214.1494 269.6062 214.4835 269.2721 214.7818 268.9086 215.0444 268.5157 215.3069 268.1228 215.5286 267.708 215.7094 267.2715 215.8902 266.8349 216.0267 266.3849 216.1189 265.9215 216.2111 265.458 216.2572 264.99 216.2572 264.5174Z" fill="#00ff00"/>
<path transform="matrix(1,0,0,-1,-53.38635,319.4826)" d="M230.6504 228.5345C230.6504 228.062 230.6043 227.594 230.5121 227.1306 230.4199 226.6671 230.2834 226.2171 230.1026 225.7806 229.9217 225.344 229.7001 224.9293 229.4375 224.5364 229.175 224.1435 228.8767 223.7799 228.5426 223.4458 228.2084 223.1117 227.8449 222.8134 227.452 222.5508 227.0591 222.2883 226.6444 222.0666 226.2078 221.8858 225.7713 221.7049 225.3213 221.5685 224.8578 221.4763 224.3943 221.3841 223.9263 221.338 223.4538 221.338 222.9813 221.338 222.5133 221.3841 222.0498 221.4763 221.5864 221.5685 221.1364 221.7049 220.6998 221.8858 220.2632 222.0666 219.8485 222.2883 219.4556 222.5508 219.0627 222.8134 218.6992 223.1117 218.365 223.4458 218.0309 223.7799 217.7326 224.1435 217.4701 224.5364 217.2075 224.9293 216.9858 225.344 216.805 225.7806 216.6242 226.2171 216.4877 226.6671 216.3955 227.1306 216.3033 227.594 216.2572 228.062 216.2572 228.5345 216.2572 229.0071 216.3033 229.4751 216.3955 229.9386 216.4877 230.402 216.6242 230.8521 216.805 231.2886 216.9858 231.7252 217.2075 232.1399 217.4701 232.5328 217.7326 232.9257 218.0309 233.2892 218.365 233.6233 218.6992 233.9575 219.0627 234.2558 219.4556 234.5183 219.8485 234.7809 220.2632 235.0025 220.6998 235.1833 221.1364 235.3641 221.5864 235.5007 222.0498 235.5928 222.5133 235.685 222.9813 235.7311 223.4538 235.7311 223.9263 235.7311 224.3943 235.685 224.8578 235.5928 225.3213 235.5006 225.7713 235.3641 226.2078 235.1833 226.6444 235.0025 227.0591 234.7808 227.452 234.5183 227.8449 234.2558 228.2084 233.9575 228.5426 233.6233 228.8767 233.2892 229.175 232.9257 229.4375 232.5328 229.7001 232.1399 229.9217 231.7252 230.1026 231.2886 230.2834 230.8521 230.4199 230.402 230.5121 229.9386 230.6043 229.4751 230.6504 229.0071 230.6504 228.5345Z" fill="#00ff00"/>
<path transform="matrix(1,0,0,-1,-53.38635,319.4826)" d="M259.4367 206.9448C259.4367 206.4723 259.3906 206.0043 259.2984 205.5408 259.2063 205.0774 259.0697 204.6274 258.8889 204.1908 258.7081 203.7543 258.4864 203.3396 258.2239 202.9467 257.9614 202.5538 257.663 202.1902 257.3289 201.8561 256.9948 201.522 256.6312 201.2237 256.2383 200.9611 255.8455 200.6986 255.4307 200.4769 254.9941 200.2961 254.5576 200.1152 254.1076 199.9787 253.6441 199.8865 253.1807 199.7943 252.7127 199.7482 252.2402 199.7482 251.7676 199.7482 251.2996 199.7943 250.8361 199.8865 250.3727 199.9787 249.9227 200.1152 249.4861 200.2961 249.0496 200.4769 248.6348 200.6986 248.242 200.9611 247.8491 201.2237 247.4855 201.522 247.1514 201.8561 246.8172 202.1902 246.5189 202.5538 246.2564 202.9467 245.9939 203.3396 245.7722 203.7543 245.5914 204.1908 245.4105 204.6274 245.274 205.0774 245.1818 205.5408 245.0897 206.0043 245.0436 206.4723 245.0436 206.9448 245.0436 207.4173 245.0897 207.8854 245.1818 208.3488 245.274 208.8123 245.4105 209.2623 245.5914 209.6988 245.7722 210.1354 245.9939 210.5501 246.2564 210.943 246.5189 211.3359 246.8172 211.6994 247.1514 212.0336 247.4855 212.3677 247.8491 212.666 248.2419 212.9285 248.6348 213.1911 249.0496 213.4128 249.4861 213.5936 249.9227 213.7744 250.3727 213.9109 250.8361 214.0031 251.2996 214.0953 251.7676 214.1414 252.2402 214.1414 252.7127 214.1414 253.1807 214.0953 253.6441 214.0031 254.1076 213.9109 254.5576 213.7744 254.9941 213.5936 255.4307 213.4128 255.8455 213.1911 256.2383 212.9285 256.6312 212.666 256.9948 212.3677 257.3289 212.0336 257.663 211.6994 257.9614 211.3359 258.2239 210.943 258.4864 210.5501 258.7081 210.1354 258.8889 209.6988 259.0697 209.2623 259.2063 208.8123 259.2984 208.3488 259.3906 207.8854 259.4367 207.4173 259.4367 206.9448Z" fill="#00ff00"/>
<path transform="matrix(1,0,0,-1,-53.38635,319.4826)" d="M252.2402 250.1243C252.2401 249.6518 252.194 249.1838 252.1018 248.7203 252.0097 248.2569 251.8731 247.8069 251.6923 247.3703 251.5115 246.9338 251.2898 246.519 251.0273 246.1261 250.7648 245.7332 250.4664 245.3697 250.1323 245.0356 249.7982 244.7014 249.4346 244.4031 249.0417 244.1406 248.6488 243.8781 248.2341 243.6564 247.7975 243.4755 247.361 243.2947 246.911 243.1582 246.4475 243.066 245.9841 242.9738 245.5161 242.9277 245.0436 242.9277 244.571 242.9277 244.103 242.9738 243.6395 243.066 243.1761 243.1582 242.7261 243.2947 242.2895 243.4755 241.8529 243.6564 241.4382 243.8781 241.0453 244.1406 240.6524 244.4031 240.2889 244.7014 239.9548 245.0356 239.6207 245.3697 239.3223 245.7332 239.0598 246.1261 238.7973 246.519 238.5756 246.9338 238.3948 247.3703 238.2139 247.8069 238.0774 248.2569 237.9852 248.7203 237.8931 249.1838 237.847 249.6518 237.847 250.1243 237.847 250.5968 237.8931 251.0648 237.9852 251.5283 238.0774 251.9917 238.2139 252.4418 238.3948 252.8783 238.5756 253.3149 238.7973 253.7296 239.0598 254.1225 239.3223 254.5154 239.6207 254.8789 239.9548 255.213 240.2889 255.5472 240.6524 255.8455 241.0453 256.108 241.4382 256.3706 241.8529 256.5922 242.2895 256.7731 242.7261 256.9539 243.1761 257.0904 243.6395 257.1826 244.103 257.2748 244.571 257.3209 245.0436 257.3209 245.5161 257.3209 245.9841 257.2748 246.4475 257.1826 246.911 257.0904 247.361 256.9539 247.7975 256.7731 248.2341 256.5922 248.6488 256.3706 249.0417 256.108 249.4346 255.8455 249.7982 255.5472 250.1323 255.213 250.4664 254.8789 250.7648 254.5154 251.0273 254.1225 251.2898 253.7296 251.5115 253.3149 251.6923 252.8783 251.8731 252.4418 252.0097 251.9917 252.1018 251.5283 252.194 251.0648 252.2401 250.5968 252.2402 250.1243Z" fill="#00ff00"/>
<path transform="matrix(.7196581,0,0,.7196581,-53.02652,-276.07759)" stroke-width="3" stroke-linecap="butt" stroke-miterlimit="10" stroke-linejoin="miter" fill="none" stroke="#000000" d="M140 650 450 390"/>
</g>
</g>
<g clip-path="url(#clip_4)">
<g clip-path="url(#clip_5)">
<path transform="matrix(1,0,0,-1,-53.38635,319.4826)" d="M370.8247 98.53802 370.4068 99.68746C370.156 100.3771 369.7589 101.234 368.8393 101.7355L366.0807 101.0459 366.1434 100.6697C366.3524 100.7533 366.6659 100.7951 366.9376 100.7951 368.087 100.7951 368.6304 99.93825 368.9856 98.9351L369.6753 97.0124 368.3169 94.90162C367.6481 93.87757 367.1047 93.66858 366.854 93.66858 366.3315 93.66858 366.4151 94.08656 365.8717 94.08656 365.3492 94.08656 365.0776 93.64769 365.0776 93.3133 365.0776 92.85353 365.4119 92.33106 366.1643 92.33106 367.3346 92.33106 367.9407 93.22971 368.6095 94.25375L369.9261 96.30184 370.762 93.94027C371.0337 93.18791 371.4308 92.33106 372.2877 92.33106 373.4998 92.33106 374.4402 94.33735 374.691 94.65083L374.3984 94.85982C373.9596 93.96117 373.458 93.66858 373.1236 93.66858 372.1832 93.66858 371.7025 96.48993 371.0755 97.78566L372.225 99.56207C372.5175 100.0218 372.7474 100.3562 373.3744 100.3562 373.7297 100.3562 373.8342 100.1681 374.294 100.1681 374.8373 100.1681 375.109 100.6488 375.109 101.0459 375.109 101.4848 374.7537 101.7355 374.085 101.7355 373.04 101.7355 372.3086 100.816 371.7652 99.98004L370.8247 98.53802Z"/>
</g>
</g>
<g clip-path="url(#clip_6)">
<g clip-path="url(#clip_7)">
<path transform="matrix(1,0,0,-1,-53.38635,319.4826)" d="M381.7638 89.64051V89.86213C380.6557 89.86213 380.3602 90.12808 380.3602 90.76338V99.58381L380.2273 99.62813 377.5826 98.28364V98.0768L377.9815 98.22455C378.2475 98.32797 378.4986 98.40184 378.6464 98.40184 378.9566 98.40184 379.0896 98.18022 379.0896 97.67789V91.0441C379.0896 90.2315 378.7793 89.92123 377.686 89.86213V89.64051H381.7638Z"/>
</g>
</g>
<g clip-path="url(#clip_8)">
<g clip-path="url(#clip_9)">
<g clip-path="url(#clip_10)">
<g clip-path="url(#clip_11)">
<path transform="matrix(1,0,0,-1,-53.38635,319.4826)" d="M57.67087 273.714 56.52143 273.296C55.83176 273.0452 54.97491 272.6481 54.47334 271.7286L55.163 268.9699 55.53918 269.0326C55.45558 269.2416 55.41379 269.5551 55.41379 269.8268 55.41379 270.9762 56.27064 271.5196 57.27379 271.8749L59.19648 272.5646 61.30727 271.2061C62.33131 270.5374 62.5403 269.994 62.5403 269.7432 62.5403 269.2207 62.12232 269.3043 62.12232 268.761 62.12232 268.2385 62.5612 267.9668 62.89558 267.9668 63.35536 267.9668 63.87783 268.3012 63.87783 269.0535 63.87783 270.2239 62.97918 270.8299 61.95513 271.4987L59.90704 272.8153 62.26862 273.6513C63.02098 273.923 63.87783 274.3201 63.87783 275.1769 63.87783 276.389 61.87154 277.3295 61.55806 277.5803L61.34907 277.2877C62.24772 276.8488 62.5403 276.3472 62.5403 276.0129 62.5403 275.0724 59.71895 274.5917 58.42322 273.9648L56.64682 275.1142C56.18705 275.4068 55.85266 275.6367 55.85266 276.2637 55.85266 276.6189 56.04075 276.7234 56.04075 277.1832 56.04075 277.7266 55.56008 277.9983 55.163 277.9983 54.72412 277.9983 54.47334 277.643 54.47334 276.9742 54.47334 275.9293 55.39289 275.1978 56.22884 274.6544L57.67087 273.714Z"/>
</g>
</g>
</g>
</g>
<g clip-path="url(#clip_12)">
<g clip-path="url(#clip_13)">
<g clip-path="url(#clip_14)">
<g clip-path="url(#clip_15)">
<path transform="matrix(1,0,0,-1,-53.38635,319.4826)" d="M64.54425 285.835 64.45561 285.6282C65.28298 285.1406 65.4455 284.8304 65.4455 284.2098V280.7526L62.84518 283.1904C61.45637 284.5053 60.34827 285.0815 59.18108 285.0815 57.7184 285.0815 56.58076 284.0178 56.58076 282.3482 56.58076 280.5309 57.79227 279.5854 59.5209 279.2751L59.59477 279.5854C58.14686 280.1764 57.67407 280.6935 57.67407 281.7572 57.67407 283.0131 58.4128 283.8109 59.75729 283.8109 61.01313 283.8109 62.136 283.279 63.59868 281.8902L66.39108 279.2603H66.56837V285.0372L64.54425 285.835Z"/>
</g>
</g>
</g>
</g>
</svg>
