<svg xmlns="http://www.w3.org/2000/svg" xmlns:xlink="http://www.w3.org/1999/xlink" version="1.1" width="460.8pt" height="345.6pt" viewBox="0 0 460.8 345.6">
<defs>
<clipPath id="clip_0">
<path transform="matrix(.01,0,0,-.01,58.512414,322.17778)" d="M-1021-463H1794V1233H-1021Z"/>
</clipPath>
<clipPath id="clip_1">
<path transform="matrix(.01,0,0,-.01,99.09423,322.17778)" d="M-1021-463H1794V1233H-1021Z"/>
</clipPath>
<clipPath id="clip_2">
<path transform="matrix(.01,0,0,-.01,139.67606,322.17778)" d="M-1021-463H1794V1233H-1021Z"/>
</clipPath>
<clipPath id="clip_3">
<path transform="matrix(.01,0,0,-.01,180.25788,322.17778)" d="M-1021-463H1794V1233H-1021Z"/>
</clipPath>
<clipPath id="clip_4">
<path transform="matrix(.01,0,0,-.01,19.959376,299.97898)" d="M-1021-463H1794V1233H-1021Z"/>
</clipPath>
<clipPath id="clip_5">
<path transform="matrix(.01,0,0,-.01,19.959376,269.56544)" d="M-1021-463H1794V1233H-1021Z"/>
</clipPath>
<clipPath id="clip_6">
<path transform="matrix(.01,0,0,-.01,19.959376,239.15192)" d="M-1021-463H1794V1233H-1021Z"/>
</clipPath>
<clipPath id="clip_7">
<path transform="matrix(.01,0,0,-.01,19.959376,208.7384)" d="M-1021-463H1794V1233H-1021Z"/>
</clipPath>
<clipPath id="clip_8">
<path transform="matrix(1,0,0,-1,0,345.6)" d="M57.6 38.016H414.72V304.128H57.6Z"/>
</clipPath>
<clipPath id="clip_9">
<path transform="matrix(1,0,0,-1,0,345.6)" d="M57.6 38.016H414.72V304.128H57.6Z"/>
</clipPath>
<clipPath id="clip_10">
<path transform="matrix(1,0,0,-1,0,345.6)" d="M57.6 38.016H414.72V304.128H57.6Z"/>
</clipPath>
<clipPath id="clip_11">
<path transform="matrix(1,0,0,-1,0,345.6)" d="M57.6 38.016H414.72V304.128H57.6Z"/>
</clipPath>
<clipPath id="clip_12">
<path transform="matrix(1,0,0,-1,0,345.6)" d="M57.6 38.016H414.72V304.128H57.6Z"/>
</clipPath>
<clipPath id="clip_13">
<path transform="matrix(1,0,0,-1,0,345.6)" d="M57.6 38.016H414.72V304.128H57.6Z"/>
</clipPath>
<clipPath id="clip_14">
<path transform="matrix(1,0,0,-1,0,345.6)" d="M57.6 38.016H414.72V304.128H57.6Z"/>
</clipPath>
<clipPath id="clip_15">
<path transform="matrix(1,0,0,-1,0,345.6)" d="M57.6 38.016H414.72V304.128H57.6Z"/>
</clipPath>
<clipPath id="clip_16">
<path transform="matrix(1,0,0,-1,0,345.6)" d="M57.6 38.016H414.72V304.128H57.6Z"/>
</clipPath>
<clipPath id="clip_17">
<path transform="matrix(1,0,0,-1,0,345.6)" d="M57.6 38.016H414.72V304.128H57.6Z"/>
</clipPath>
<clipPath id="clip_18">
<path transform="matrix(1,0,0,-1,0,345.6)" d="M57.6 38.016H414.72V304.128H57.6Z"/>
</clipPath>
<clipPath id="clip_19">
<path transform="matrix(1,0,0,-1,0,345.6)" d="M57.6 38.016H414.72V304.128H57.6Z"/>
</clipPath>
<clipPath id="clip_20">
<path transform="matrix(1,0,0,-1,0,345.6)" d="M57.6 38.016H414.72V304.128H57.6Z"/>
</clipPath>
<clipPath id="clip_21">
<path transform="matrix(1,0,0,-1,0,345.6)" d="M57.6 38.016H414.72V304.128H57.6Z"/>
</clipPath>
<clipPath id="clip_22">
<path transform="matrix(1,0,0,-1,0,345.6)" d="M57.6 38.016H414.72V304.128H57.6Z"/>
</clipPath>
<clipPath id="clip_23">
<path transform="matrix(1,0,0,-1,0,345.6)" d="M57.6 38.016H414.72V304.128H57.6Z"/>
</clipPath>
<clipPath id="clip_24">
<path transform="matrix(1,0,0,-1,0,345.6)" d="M57.6 38.016H414.72V304.128H57.6Z"/>
</clipPath>
<clipPath id="clip_25">
<path transform="matrix(1,0,0,-1,0,345.6)" d="M57.6 38.016H414.72V304.128H57.6Z"/>
</clipPath>
<clipPath id="clip_26">
<path transform="matrix(1,0,0,-1,0,345.6)" d="M57.6 38.016H414.72V304.128H57.6Z"/>
</clipPath>
<clipPath id="clip_27">
<path transform="matrix(1,0,0,-1,0,345.6)" d="M57.6 38.016H414.72V304.128H57.6Z"/>
</clipPath>
</defs>
<g>
<path transform="matrix(1,0,0,-1,0,345.6)" d="M0 0H460.8V345.6H0Z" fill="#ffffff"/>
<path transform="matrix(1,0,0,-1,0,345.6)" d="M57.6 38.016H414.72V304.128H57.6Z" fill="#ffffff"/>
<path transform="matrix(1,0,0,-1,0,345.6)" d="M73.832729 38.016V34.516"/>
<path transform="matrix(1,0,0,-1,0,345.6)" stroke-width=".8" stroke-linecap="butt" stroke-linejoin="round" fill="none" stroke="#000000" d="M73.832729 38.016V34.516"/>
<text xml:space="preserve" transform="matrix(1 0 -0 1 58.512414 322.17778)" font-size="10" font-family="DejaVuSans"><tspan y="0" x="8.378906 14.738907 17.918908 24.278908">1.00</tspan></text>
<g clip-path="url(#clip_0)">
<path transform="matrix(.01,0,0,-.01,58.512414,322.17778)" d="M106 355H732V272H106V355"/>
</g>
<path transform="matrix(1,0,0,-1,0,345.6)" d="M114.41454 38.016V34.516"/>
<path transform="matrix(1,0,0,-1,0,345.6)" stroke-width=".8" stroke-linecap="butt" stroke-linejoin="round" fill="none" stroke="#000000" d="M114.41454 38.016V34.516"/>
<text xml:space="preserve" transform="matrix(1 0 -0 1 99.09423 322.17778)" font-size="10" font-family="DejaVuSans"><tspan y="0" x="8.378906 14.738907 17.918908 24.278908">0.75</tspan></text>
<g clip-path="url(#clip_1)">
<path transform="matrix(.01,0,0,-.01,99.09423,322.17778)" d="M106 355H732V272H106V355"/>
</g>
<path transform="matrix(1,0,0,-1,0,345.6)" d="M154.99637 38.016V34.516"/>
<path transform="matrix(1,0,0,-1,0,345.6)" stroke-width=".8" stroke-linecap="butt" stroke-linejoin="round" fill="none" stroke="#000000" d="M154.99637 38.016V34.516"/>
<text xml:space="preserve" transform="matrix(1 0 -0 1 139.67606 322.17778)" font-size="10" font-family="DejaVuSans"><tspan y="0" x="8.378906 14.738907 17.918908 24.278908">0.50</tspan></text>
<g clip-path="url(#clip_2)">
<path transform="matrix(.01,0,0,-.01,139.67606,322.17778)" d="M106 355H732V272H106V355"/>
</g>
<path transform="matrix(1,0,0,-1,0,345.6)" d="M195.57819 38.016V34.516"/>
<path transform="matrix(1,0,0,-1,0,345.6)" stroke-width=".8" stroke-linecap="butt" stroke-linejoin="round" fill="none" stroke="#000000" d="M195.57819 38.016V34.516"/>
<text xml:space="preserve" transform="matrix(1 0 -0 1 180.25788 322.17778)" font-size="10" font-family="DejaVuSans"><tspan y="0" x="8.378906 14.738907 17.918908 24.278908">0.25</tspan></text>
<g clip-path="url(#clip_3)">
<path transform="matrix(.01,0,0,-.01,180.25788,322.17778)" d="M106 355H732V272H106V355"/>
</g>
<path transform="matrix(1,0,0,-1,0,345.6)" d="M236.16 38.016V34.516"/>
<path transform="matrix(1,0,0,-1,0,345.6)" stroke-width=".8" stroke-linecap="butt" stroke-linejoin="round" fill="none" stroke="#000000" d="M236.16 38.016V34.516"/>
<text xml:space="preserve" transform="matrix(1 0 -0 1 0 345.6)" font-size="10" font-family="DejaVuSans"><tspan y="-23.42225" x="225.02719 231.38719 234.5672 240.9272">0.00</tspan></text>
<path transform="matrix(1,0,0,-1,0,345.6)" d="M276.74183 38.016V34.516"/>
<path transform="matrix(1,0,0,-1,0,345.6)" stroke-width=".8" stroke-linecap="butt" stroke-linejoin="round" fill="none" stroke="#000000" d="M276.74183 38.016V34.516"/>
<text xml:space="preserve" transform="matrix(1 0 -0 1 0 345.6)" font-size="10" font-family="DejaVuSans"><tspan y="-23.42225" x="265.609 271.969 275.149 281.50898">0.25</tspan></text>
<path transform="matrix(1,0,0,-1,0,345.6)" d="M317.32365 38.016V34.516"/>
<path transform="matrix(1,0,0,-1,0,345.6)" stroke-width=".8" stroke-linecap="butt" stroke-linejoin="round" fill="none" stroke="#000000" d="M317.32365 38.016V34.516"/>
<text xml:space="preserve" transform="matrix(1 0 -0 1 0 345.6)" font-size="10" font-family="DejaVuSans"><tspan y="-23.42225" x="306.19084 312.55085 315.73085 322.09083">0.50</tspan></text>
<path transform="matrix(1,0,0,-1,0,345.6)" d="M357.90547 38.016V34.516"/>
<path transform="matrix(1,0,0,-1,0,345.6)" stroke-width=".8" stroke-linecap="butt" stroke-linejoin="round" fill="none" stroke="#000000" d="M357.90547 38.016V34.516"/>
<text xml:space="preserve" transform="matrix(1 0 -0 1 0 345.6)" font-size="10" font-family="DejaVuSans"><tspan y="-23.42225" x="346.77265 353.13264 356.31263 362.6726">0.75</tspan></text>
<path transform="matrix(1,0,0,-1,0,345.6)" d="M398.48728 38.016V34.516"/>
<path transform="matrix(1,0,0,-1,0,345.6)" stroke-width=".8" stroke-linecap="butt" stroke-linejoin="round" fill="none" stroke="#000000" d="M398.48728 38.016V34.516"/>
<text xml:space="preserve" transform="matrix(1 0 -0 1 0 345.6)" font-size="10" font-family="DejaVuSans"><tspan y="-23.42225" x="387.35447 393.71449 396.89448 403.25447">1.00</tspan></text>
<path transform="matrix(1,0,0,-1,0,345.6)" d="M57.6 49.417917H54.1"/>
<path transform="matrix(1,0,0,-1,0,345.6)" stroke-width=".8" stroke-linecap="butt" stroke-linejoin="round" fill="none" stroke="#000000" d="M57.6 49.417917H54.1"/>
<text xml:space="preserve" transform="matrix(1 0 -0 1 19.959376 299.97898)" font-size="10" font-family="DejaVuSans"><tspan y="0" x="8.378906 14.738907 17.918908 24.278908">1.00</tspan></text>
<g clip-path="url(#clip_4)">
<path transform="matrix(.01,0,0,-.01,19.959376,299.97898)" d="M106 355H732V272H106V355"/>
</g>
<path transform="matrix(1,0,0,-1,0,345.6)" d="M57.6 79.831439H54.1"/>
<path transform="matrix(1,0,0,-1,0,345.6)" stroke-width=".8" stroke-linecap="butt" stroke-linejoin="round" fill="none" stroke="#000000" d="M57.6 79.831439H54.1"/>
<text xml:space="preserve" transform="matrix(1 0 -0 1 19.959376 269.56544)" font-size="10" font-family="DejaVuSans"><tspan y="0" x="8.378906 14.738907 17.918908 24.278908">0.75</tspan></text>
<g clip-path="url(#clip_5)">
<path transform="matrix(.01,0,0,-.01,19.959376,269.56544)" d="M106 355H732V272H106V355"/>
</g>
<path transform="matrix(1,0,0,-1,0,345.6)" d="M57.6 110.24496H54.1"/>
<path transform="matrix(1,0,0,-1,0,345.6)" stroke-width=".8" stroke-linecap="butt" stroke-linejoin="round" fill="none" stroke="#000000" d="M57.6 110.24496H54.1"/>
<text xml:space="preserve" transform="matrix(1 0 -0 1 19.959376 239.15192)" font-size="10" font-family="DejaVuSans"><tspan y="0" x="8.378906 14.738907 17.918908 24.278908">0.50</tspan></text>
<g clip-path="url(#clip_6)">
<path transform="matrix(.01,0,0,-.01,19.959376,239.15192)" d="M106 355H732V272H106V355"/>
</g>
<path transform="matrix(1,0,0,-1,0,345.6)" d="M57.6 140.65848H54.1"/>
<path transform="matrix(1,0,0,-1,0,345.6)" stroke-width=".8" stroke-linecap="butt" stroke-linejoin="round" fill="none" stroke="#000000" d="M57.6 140.65848H54.1"/>
<text xml:space="preserve" transform="matrix(1 0 -0 1 19.959376 208.7384)" font-size="10" font-family="DejaVuSans"><tspan y="0" x="8.378906 14.738907 17.918908 24.278908">0.25</tspan></text>
<g clip-path="url(#clip_7)">
<path transform="matrix(.01,0,0,-.01,19.959376,208.7384)" d="M106 355H732V272H106V355"/>
</g>
<path transform="matrix(1,0,0,-1,0,345.6)" d="M57.6 171.072H54.1"/>
<path transform="matrix(1,0,0,-1,0,345.6)" stroke-width=".8" stroke-linecap="butt" stroke-linejoin="round" fill="none" stroke="#000000" d="M57.6 171.072H54.1"/>
<text xml:space="preserve" transform="matrix(1 0 -0 1 0 345.6)" font-size="10" font-family="DejaVuSans"><tspan y="-167.27513" x="28.334376 34.694375 37.874376 44.234376">0.00</tspan></text>
<path transform="matrix(1,0,0,-1,0,345.6)" d="M57.6 201.48552H54.1"/>
<path transform="matrix(1,0,0,-1,0,345.6)" stroke-width=".8" stroke-linecap="butt" stroke-linejoin="round" fill="none" stroke="#000000" d="M57.6 201.48552H54.1"/>
<text xml:space="preserve" transform="matrix(1 0 -0 1 0 345.6)" font-size="10" font-family="DejaVuSans"><tspan y="-197.68865" x="28.334376 34.694375 37.874376 44.234376">0.25</tspan></text>
<path transform="matrix(1,0,0,-1,0,345.6)" d="M57.6 231.89905H54.1"/>
<path transform="matrix(1,0,0,-1,0,345.6)" stroke-width=".8" stroke-linecap="butt" stroke-linejoin="round" fill="none" stroke="#000000" d="M57.6 231.89905H54.1"/>
<text xml:space="preserve" transform="matrix(1 0 -0 1 0 345.6)" font-size="10" font-family="DejaVuSans"><tspan y="-228.10218" x="28.334376 34.694375 37.874376 44.234376">0.50</tspan></text>
<path transform="matrix(1,0,0,-1,0,345.6)" d="M57.6 262.31257H54.1"/>
<path transform="matrix(1,0,0,-1,0,345.6)" stroke-width=".8" stroke-linecap="butt" stroke-linejoin="round" fill="none" stroke="#000000" d="M57.6 262.31257H54.1"/>
<text xml:space="preserve" transform="matrix(1 0 -0 1 0 345.6)" font-size="10" font-family="DejaVuSans"><tspan y="-258.5157" x="28.334376 34.694375 37.874376 44.234376">0.75</tspan></text>
<path transform="matrix(1,0,0,-1,0,345.6)" d="M57.6 292.72608H54.1"/>
<path transform="matrix(1,0,0,-1,0,345.6)" stroke-width=".8" stroke-linecap="butt" stroke-linejoin="round" fill="none" stroke="#000000" d="M57.6 292.72608H54.1"/>
<text xml:space="preserve" transform="matrix(1 0 -0 1 0 345.6)" font-size="10" font-family="DejaVuSans"><tspan y="-288.9292" x="28.334376 34.694375 37.874376 44.234376">1.00</tspan></text>
<g clip-path="url(#clip_8)">
<path transform="matrix(1,0,0,-1,0,345.6)" stroke-width="1.5" stroke-linecap="square" stroke-linejoin="round" fill="none" stroke="#1f77b4" d="M73.832729 51.114175 80.45833 56.01041 87.08393 60.906648 93.70953 65.80289 100.33514 70.69913 106.96074 75.59536 113.58634 80.4916 120.211948 85.38784 126.83755 90.28407 133.46315 95.18031 140.08876 100.07655 146.71436 104.972789 153.33997 109.869029 159.96556 114.76527 166.59117 119.6615 173.21677 124.55774 179.84238 129.45398 186.46797 134.35022 193.09358 139.24646 199.71918 144.14269 206.34479 149.03893 212.97039 153.93517 219.596 158.8314 226.2216 163.72765 232.8472 168.62389 239.4728 173.52013 246.0984 178.41635 252.72402 183.31259 259.3496 188.20883 265.97523 193.10507 272.60084 198.00131 279.2264 202.89756 285.85203 207.79378 292.47764 212.69002 299.10325 217.58626 305.72883 222.4825 312.35444 227.37874 318.98005 232.27498 325.60566 237.1712 332.23124 242.06745 338.85685 246.96369 345.48246 251.85993 352.10807 256.75617 358.73365 261.6524 365.35926 266.54866 371.98487 271.4449 378.61048 276.34114 385.23606 281.23738 391.86167 286.13359 398.48728 291.02983"/>
</g>
<g clip-path="url(#clip_9)">
<path transform="matrix(1,0,0,-1,0,345.6)" stroke-width="1.5" stroke-linecap="square" stroke-linejoin="round" fill="none" stroke="#ff7f0e" d="M73.832729 56.603567 80.45833 61.275747 87.08393 65.94793 93.70953 70.62011 100.33514 75.29229 106.96074 79.96447 113.58634 84.63665 120.211948 89.30883 126.83755 93.98101 133.46315 98.6532 140.08876 103.32538 146.71436 107.99756 153.33997 112.66974 159.96556 117.34192 166.59117 122.0141 173.21677 126.68628 179.84238 131.35846 186.46797 136.03064 193.09358 140.70282 199.71918 145.375 206.34479 150.04718 212.97039 154.71936 219.596 159.39154 226.2216 164.06374 232.8472 168.73592 239.4728 173.4081 246.0984 178.08028 252.72402 182.75246 259.3496 187.42464 265.97523 192.09682 272.60084 196.769 279.2264 201.44118 285.85203 206.11336 292.47764 210.78554 299.10325 215.45772 305.72883 220.1299 312.35444 224.80208 318.98005 229.47426 325.60566 234.14644 332.23124 238.81862 338.85685 243.4908 345.48246 248.16298 352.10807 252.83518 358.73365 257.50736 365.35926 262.17955 371.98487 266.8517 378.61048 271.5239 385.23606 276.19609 391.86167 280.86827 398.48728 285.54045"/>
</g>
<g clip-path="url(#clip_10)">
<path transform="matrix(1,0,0,-1,0,345.6)" stroke-width="1.5" stroke-linecap="square" stroke-linejoin="round" fill="none" stroke="#2ca02c" d="M73.832729 67.58432 80.45833 71.80831 87.08393 76.032299 93.70953 80.25628 100.33514 84.48027 106.96074 88.704257 113.58634 92.928249 120.211948 97.15223 126.83755 101.37621 133.46315 105.600208 140.08876 109.82419 146.71436 114.04818 153.33997 118.27216 159.96556 122.496158 166.59117 126.72014 173.21677 130.94412 179.84238 135.1681 186.46797 139.3921 193.09358 143.61609 199.71918 147.84008 206.34479 152.06406 212.97039 156.28804 219.596 160.51204 226.2216 164.73603 232.8472 168.96 239.4728 173.18399 246.0984 177.40798 252.72402 181.63198 259.3496 185.85596 265.97523 190.07994 272.60084 194.30393 279.2264 198.52791 285.85203 202.7519 292.47764 206.97589 299.10325 211.19988 305.72883 215.42386 312.35444 219.64785 318.98005 223.87184 325.60566 228.09583 332.23124 232.31981 338.85685 236.5438 345.48246 240.76778 352.10807 244.99178 358.73365 249.21576 365.35926 253.43975 371.98487 257.66374 378.61048 261.88774 385.23606 266.1117 391.86167 270.3357 398.48728 274.5597"/>
</g>
<g clip-path="url(#clip_11)">
<path transform="matrix(1,0,0,-1,0,345.6)" stroke-width="1.5" stroke-linecap="square" stroke-linejoin="round" fill="none" stroke="#d62728" d="M73.832729 52.248819 80.45833 57.098745 87.08393 61.94867 93.70953 66.79859 100.33514 71.64852 106.96074 76.49844 113.58634 81.34837 120.211948 86.198299 126.83755 91.048229 133.46315 95.89815 140.08876 100.74808 146.71436 105.598 153.33997 110.44793 159.96556 115.29785 166.59117 120.14778 173.21677 124.9977 179.84238 129.84763 186.46797 134.69756 193.09358 139.54749 199.71918 144.39742 206.34479 149.24733 212.97039 154.09726 219.596 158.94719 226.2216 163.7971 232.8472 168.64704 239.4728 173.49697 246.0984 178.3469 252.72402 183.19681 259.3496 188.04674 265.97523 192.89667 272.60084 197.7466 279.2264 202.59651 285.85203 207.44644 292.47764 212.29637 299.10325 217.1463 305.72883 221.99622 312.35444 226.84615 318.98005 231.69608 325.60566 236.546 332.23124 241.39592 338.85685 246.24585 345.48246 251.09578 352.10807 255.94571 358.73365 260.79563 365.35926 265.64558 371.98487 270.49549 378.61048 275.3454 385.23606 280.19535 391.86167 285.04527 398.48728 289.89518"/>
</g>
<g clip-path="url(#clip_12)">
<path transform="matrix(1,0,0,-1,0,345.6)" stroke-width="1.5" stroke-linecap="square" stroke-linejoin="round" fill="none" stroke="#9467bd" d="M73.832729 55.07084 80.45833 59.80558 87.08393 64.54032 93.70953 69.27506 100.33514 74.0098 106.96074 78.744548 113.58634 83.47929 120.211948 88.21403 126.83755 92.94877 133.46315 97.68351 140.08876 102.41825 146.71436 107.15299 153.33997 111.88773 159.96556 116.622478 166.59117 121.357219 173.21677 126.09196 179.84238 130.8267 186.46797 135.56145 193.09358 140.29619 199.71918 145.03093 206.34479 149.76567 212.97039 154.50041 219.596 159.23516 226.2216 163.9699 232.8472 168.70464 239.4728 173.43938 246.0984 178.17412 252.72402 182.90886 259.3496 187.6436 265.97523 192.37834 272.60084 197.11309 279.2264 201.84783 285.85203 206.58257 292.47764 211.3173 299.10325 216.05205 305.72883 220.78679 312.35444 225.52153 318.98005 230.25627 325.60566 234.99102 332.23124 239.72576 338.85685 244.4605 345.48246 249.19524 352.10807 253.92998 358.73365 258.6647 365.35926 263.39945 371.98487 268.1342 378.61048 272.86894 385.23606 277.60368 391.86167 282.3384 398.48728 287.07316"/>
</g>
<g clip-path="url(#clip_13)">
<path transform="matrix(1,0,0,-1,0,345.6)" stroke-width="1.5" stroke-linecap="square" stroke-linejoin="round" fill="none" stroke="#8c564b" d="M73.832729 56.085195 80.45833 60.778535 87.08393 65.47187 93.70953 70.165218 100.33514 74.85855 106.96074 79.55189 113.58634 84.24523 120.211948 88.93857 126.83755 93.631908 133.46315 98.32525 140.08876 103.018589 146.71436 107.71192 153.33997 112.405269 159.96556 117.0986 166.59117 121.79194 173.21677 126.485279 179.84238 131.17862 186.46797 135.87197 193.09358 140.56529 199.71918 145.25864 206.34479 149.95198 212.97039 154.64531 219.596 159.33866 226.2216 164.032 232.8472 168.72533 239.4728 173.41867 246.0984 178.11202 252.72402 182.80535 259.3496 187.49869 265.97523 192.19203 272.60084 196.88536 279.2264 201.5787 285.85203 206.27205 292.47764 210.96538 299.10325 215.65872 305.72883 220.35207 312.35444 225.0454 318.98005 229.73874 325.60566 234.43209 332.23124 239.12541 338.85685 243.81876 345.48246 248.5121 352.10807 253.20543 358.73365 257.89878 365.35926 262.5921 371.98487 267.28547 378.61048 271.9788 385.23606 276.67213 391.86167 281.36549 398.48728 286.0588"/>
</g>
<g clip-path="url(#clip_14)">
<path transform="matrix(1,0,0,-1,0,345.6)" stroke-width="1.5" stroke-linecap="square" stroke-linejoin="round" fill="none" stroke="#e377c2" d="M73.832729 52.952966 80.45833 57.774148 87.08393 62.595335 93.70953 67.41652 100.33514 72.2377 106.96074 77.05889 113.58634 81.88007 120.211948 86.701259 126.83755 91.522449 133.46315 96.34363 140.08876 101.16482 146.71436 105.986 153.33997 110.80718 159.96556 115.62837 166.59117 120.449558 173.21677 125.270748 179.84238 130.09192 186.46797 134.91312 193.09358 139.7343 199.71918 144.55548 206.34479 149.37667 212.97039 154.19785 219.596 159.01905 226.2216 163.84023 232.8472 168.6614 239.4728 173.48259 246.0984 178.30377 252.72402 183.12497 259.3496 187.94615 265.97523 192.76734 272.60084 197.58852 279.2264 202.4097 285.85203 207.2309 292.47764 212.05208 299.10325 216.87326 305.72883 221.69445 312.35444 226.51563 318.98005 231.33683 325.60566 236.158 332.23124 240.97919 338.85685 245.80037 345.48246 250.62155 352.10807 255.44274 358.73365 260.26393 365.35926 265.0851 371.98487 269.9063 378.61048 274.72749 385.23606 279.54869 391.86167 284.36985 398.48728 289.19105"/>
</g>
<g clip-path="url(#clip_15)">
<path transform="matrix(1,0,0,-1,0,345.6)" stroke-width="1.5" stroke-linecap="square" stroke-linejoin="round" fill="none" stroke="#919191" d="M73.832729 52.973985 80.45833 57.79431 87.08393 62.61464 93.70953 67.43497 100.33514 72.255298 106.96074 77.07562 113.58634 81.89595 120.211948 86.71627 126.83755 91.5366 133.46315 96.356929 140.08876 101.17725 146.71436 105.99758 153.33997 110.81791 159.96556 115.63824 166.59117 120.458568 173.21677 125.27889 179.84238 130.09922 186.46797 134.91954 193.09358 139.73987 199.71918 144.5602 206.34479 149.38053 212.97039 154.20085 219.596 159.02118 226.2216 163.8415 232.8472 168.66184 239.4728 173.48217 246.0984 178.30249 252.72402 183.12282 259.3496 187.94315 265.97523 192.76348 272.60084 197.5838 279.2264 202.40413 285.85203 207.22446 292.47764 212.04479 299.10325 216.86511 305.72883 221.68544 312.35444 226.50577 318.98005 231.3261 325.60566 236.14643 332.23124 240.96675 338.85685 245.78707 345.48246 250.60739 352.10807 255.42772 358.73365 260.24806 365.35926 265.0684 371.98487 269.8887 378.61048 274.70906 385.23606 279.52937 391.86167 284.3497 398.48728 289.17"/>
</g>
<g clip-path="url(#clip_16)">
<path transform="matrix(1,0,0,-1,0,345.6)" stroke-width="1.5" stroke-linecap="square" stroke-linejoin="round" fill="none" stroke="#bcbd22" d="M73.832729 60.538087 80.45833 65.049678 87.08393 69.561267 93.70953 74.07285 100.33514 78.58444 106.96074 83.09602 113.58634 87.60761 120.211948 92.1192 126.83755 96.63079 133.46315 101.14238 140.08876 105.65397 146.71436 110.16556 153.33997 114.67715 159.96556 119.188739 166.59117 123.700328 173.21677 128.21192 179.84238 132.7235 186.46797 137.23509 193.09358 141.74668 199.71918 146.25827 206.34479 150.76985 212.97039 155.28145 219.596 159.79303 226.2216 164.30461 232.8472 168.81621 239.4728 173.32779 246.0984 177.83939 252.72402 182.35097 259.3496 186.86257 265.97523 191.37415 272.60084 195.88574 279.2264 200.39733 285.85203 204.90892 292.47764 209.4205 299.10325 213.93209 305.72883 218.44368 312.35444 222.95526 318.98005 227.46686 325.60566 231.97844 332.23124 236.49004 338.85685 241.00162 345.48246 245.51322 352.10807 250.0248 358.73365 254.53639 365.35926 259.04798 371.98487 263.55958 378.61048 268.07115 385.23606 272.58274 391.86167 277.09434 398.48728 281.60594"/>
</g>
<g clip-path="url(#clip_17)">
<path transform="matrix(1,0,0,-1,0,345.6)" stroke-width="1.5" stroke-linecap="square" stroke-linejoin="round" fill="none" stroke="#17becf" d="M73.832729 61.802534 80.45833 66.26251 87.08393 70.72249 93.70953 75.182468 100.33514 79.64245 106.96074 84.102428 113.58634 88.5624 120.211948 93.022388 126.83755 97.48236 133.46315 101.94234 140.08876 106.40231 146.71436 110.8623 153.33997 115.32227 159.96556 119.78225 166.59117 124.242229 173.21677 128.70221 179.84238 133.16219 186.46797 137.62216 193.09358 142.08214 199.71918 146.54212 206.34479 151.00209 212.97039 155.46208 219.596 159.92206 226.2216 164.38204 232.8472 168.84201 239.4728 173.30199 246.0984 177.76197 252.72402 182.22194 259.3496 186.68193 265.97523 191.1419 272.60084 195.60189 279.2264 200.06186 285.85203 204.52184 292.47764 208.98181 299.10325 213.44179 305.72883 217.90177 312.35444 222.36176 318.98005 226.82173 325.60566 231.28171 332.23124 235.74169 338.85685 240.20166 345.48246 244.66164 352.10807 249.12162 358.73365 253.5816 365.35926 258.04158 371.98487 262.50157 378.61048 266.96153 385.23606 271.4215 391.86167 275.8815 398.48728 280.34147"/>
</g>
<g clip-path="url(#clip_18)">
<path transform="matrix(1,0,0,-1,0,345.6)" stroke-width="1.5" stroke-linecap="square" stroke-linejoin="round" fill="none" stroke="#1f77b4" d="M73.832729 67.66296 80.45833 71.883739 87.08393 76.10451 93.70953 80.32529 100.33514 84.54607 106.96074 88.766849 113.58634 92.98762 120.211948 97.2084 126.83755 101.42918 133.46315 105.649959 140.08876 109.87073 146.71436 114.09151 153.33997 118.31229 159.96556 122.53306 166.59117 126.75384 173.21677 130.97461 179.84238 135.19539 186.46797 139.41617 193.09358 143.63695 199.71918 147.85773 206.34479 152.0785 212.97039 156.29929 219.596 160.52005 226.2216 164.74083 232.8472 168.96161 239.4728 173.18239 246.0984 177.40317 252.72402 181.62395 259.3496 185.84473 265.97523 190.06549 272.60084 194.28627 279.2264 198.50705 285.85203 202.72783 292.47764 206.94861 299.10325 211.16939 305.72883 215.39017 312.35444 219.61093 318.98005 223.83171 325.60566 228.05249 332.23124 232.27327 338.85685 236.49405 345.48246 240.71483 352.10807 244.93561 358.73365 249.15639 365.35926 253.37715 371.98487 257.59794 378.61048 261.81874 385.23606 266.0395 391.86167 270.26026 398.48728 274.48106"/>
</g>
<g clip-path="url(#clip_19)">
<path transform="matrix(1,0,0,-1,0,345.6)" stroke-width="1.5" stroke-linecap="square" stroke-linejoin="round" fill="none" stroke="#ff7f0e" d="M73.832729 56.5518 80.45833 61.226095 87.08393 65.90039 93.70953 70.574687 100.33514 75.24898 106.96074 79.92327 113.58634 84.597568 120.211948 89.27186 126.83755 93.94615 133.46315 98.620449 140.08876 103.29474 146.71436 107.96903 153.33997 112.643329 159.96556 117.31762 166.59117 121.99191 173.21677 126.66621 179.84238 131.3405 186.46797 136.0148 193.09358 140.68909 199.71918 145.36339 206.34479 150.03768 212.97039 154.71198 219.596 159.38626 226.2216 164.06056 232.8472 168.73485 239.4728 173.40915 246.0984 178.08344 252.72402 182.75774 259.3496 187.43202 265.97523 192.10633 272.60084 196.78061 279.2264 201.45491 285.85203 206.12921 292.47764 210.8035 299.10325 215.4778 305.72883 220.15209 312.35444 224.82639 318.98005 229.50067 325.60566 234.17498 332.23124 238.84926 338.85685 243.52356 345.48246 248.19785 352.10807 252.87215 358.73365 257.54646 365.35926 262.22074 371.98487 266.89503 378.61048 271.5693 385.23606 276.24363 391.86167 280.9179 398.48728 285.5922"/>
</g>
<g clip-path="url(#clip_20)">
<path transform="matrix(1,0,0,-1,0,345.6)" stroke-width="1.5" stroke-linecap="square" stroke-linejoin="round" fill="none" stroke="#2ca02c" d="M73.832729 55.151975 80.45833 59.883405 87.08393 64.61483 93.70953 69.34626 100.33514 74.07769 106.96074 78.80912 113.58634 83.54055 120.211948 88.27198 126.83755 93.00341 133.46315 97.73484 140.08876 102.46627 146.71436 107.1977 153.33997 111.92913 159.96556 116.66056 166.59117 121.39199 173.21677 126.12342 179.84238 130.85485 186.46797 135.58628 193.09358 140.3177 199.71918 145.04914 206.34479 149.78057 212.97039 154.512 219.596 159.24343 226.2216 163.97486 232.8472 168.70629 239.4728 173.43772 246.0984 178.16915 252.72402 182.90058 259.3496 187.632 265.97523 192.36344 272.60084 197.09487 279.2264 201.8263 285.85203 206.55773 292.47764 211.28916 299.10325 216.02059 305.72883 220.75202 312.35444 225.48345 318.98005 230.21488 325.60566 234.9463 332.23124 239.67774 338.85685 244.40917 345.48246 249.1406 352.10807 253.87203 358.73365 258.60346 365.35926 263.33488 371.98487 268.0663 378.61048 272.79774 385.23606 277.52919 391.86167 282.2606 398.48728 286.99205"/>
</g>
<g clip-path="url(#clip_21)">
<path transform="matrix(1,0,0,-1,0,345.6)" stroke-width="1.5" stroke-linecap="square" stroke-linejoin="round" fill="none" stroke="#d62728" d="M73.832729 53.129858 80.45833 57.94382 87.08393 62.757787 93.70953 67.571758 100.33514 72.38572 106.96074 77.199687 113.58634 82.01365 120.211948 86.827617 126.83755 91.64158 133.46315 96.45554 140.08876 101.26951 146.71436 106.08347 153.33997 110.89744 159.96556 115.7114 166.59117 120.52537 173.21677 125.33933 179.84238 130.15329 186.46797 134.96726 193.09358 139.78122 199.71918 144.5952 206.34479 149.40917 212.97039 154.22313 219.596 159.0371 226.2216 163.85106 232.8472 168.66503 239.4728 173.47899 246.0984 178.29296 252.72402 183.10692 259.3496 187.92089 265.97523 192.73485 272.60084 197.54882 279.2264 202.36278 285.85203 207.17675 292.47764 211.9907 299.10325 216.80467 305.72883 221.61864 312.35444 226.4326 318.98005 231.24657 325.60566 236.06053 332.23124 240.8745 338.85685 245.68846 345.48246 250.50243 352.10807 255.31639 358.73365 260.13035 365.35926 264.9443 371.98487 269.75828 378.61048 274.57225 385.23606 279.3862 391.86167 284.20018 398.48728 289.01414"/>
</g>
<g clip-path="url(#clip_22)">
<path transform="matrix(1,0,0,-1,0,345.6)" stroke-width="1.5" stroke-linecap="square" stroke-linejoin="round" fill="none" stroke="#9467bd" d="M73.832729 60.015409 80.45833 64.54833 87.08393 69.08125 93.70953 73.614177 100.33514 78.147098 106.96074 82.680019 113.58634 87.21294 120.211948 91.745868 126.83755 96.278789 133.46315 100.81171 140.08876 105.34463 146.71436 109.87755 153.33997 114.41048 159.96556 118.9434 166.59117 123.47632 173.21677 128.00923 179.84238 132.54216 186.46797 137.07509 193.09358 141.608 199.71918 146.14093 206.34479 150.67385 212.97039 155.20677 219.596 159.7397 226.2216 164.27262 232.8472 168.80554 239.4728 173.33846 246.0984 177.87139 252.72402 182.40431 259.3496 186.93723 265.97523 191.47016 272.60084 196.00307 279.2264 200.536 285.85203 205.06891 292.47764 209.60184 299.10325 214.13477 305.72883 218.66768 312.35444 223.2006 318.98005 227.73352 325.60566 232.26645 332.23124 236.79938 338.85685 241.33229 345.48246 245.86522 352.10807 250.39813 358.73365 254.93106 365.35926 259.464 371.98487 263.99693 378.61048 268.52983 385.23606 273.06275 391.86167 277.59568 398.48728 282.1286"/>
</g>
<g clip-path="url(#clip_23)">
<path transform="matrix(1,0,0,-1,0,345.6)" stroke-width="1.5" stroke-linecap="square" stroke-linejoin="round" fill="none" stroke="#8c564b" d="M73.832729 62.252126 80.45833 66.693759 87.08393 71.13538 93.70953 75.57701 100.33514 80.01864 106.96074 84.460269 113.58634 88.90189 120.211948 93.34352 126.83755 97.78515 133.46315 102.226779 140.08876 106.6684 146.71436 111.11003 153.33997 115.55166 159.96556 119.993289 166.59117 124.43491 173.21677 128.87654 179.84238 133.31816 186.46797 137.7598 193.09358 142.20142 199.71918 146.64305 206.34479 151.08467 212.97039 155.5263 219.596 159.96793 226.2216 164.40956 232.8472 168.85118 239.4728 173.29282 246.0984 177.73444 252.72402 182.17607 259.3496 186.61769 265.97523 191.05933 272.60084 195.50095 279.2264 199.94258 285.85203 204.3842 292.47764 208.82584 299.10325 213.26746 305.72883 217.70909 312.35444 222.15071 318.98005 226.59235 325.60566 231.03397 332.23124 235.4756 338.85685 239.91722 345.48246 244.35886 352.10807 248.80048 358.73365 253.24211 365.35926 257.68376 371.98487 262.12538 378.61048 266.567 385.23606 271.0086 391.86167 275.45027 398.48728 279.89189"/>
</g>
<g clip-path="url(#clip_24)">
<path transform="matrix(1,0,0,-1,0,345.6)" stroke-width="1.5" stroke-linecap="square" stroke-linejoin="round" fill="none" stroke="#e377c2" d="M73.832729 57.4071 80.45833 62.046483 87.08393 66.68587 93.70953 71.32525 100.33514 75.96464 106.96074 80.60402 113.58634 85.2434 120.211948 89.88278 126.83755 94.52217 133.46315 99.16155 140.08876 103.800937 146.71436 108.44032 153.33997 113.079708 159.96556 117.719089 166.59117 122.358478 173.21677 126.997859 179.84238 131.63724 186.46797 136.27663 193.09358 140.916 199.71918 145.55539 206.34479 150.19478 212.97039 154.83415 219.596 159.47354 226.2216 164.11293 232.8472 168.7523 239.4728 173.3917 246.0984 178.03108 252.72402 182.67046 259.3496 187.30985 265.97523 191.94924 272.60084 196.58861 279.2264 201.228 285.85203 205.86737 292.47764 210.50676 299.10325 215.14615 305.72883 219.78553 312.35444 224.42491 318.98005 229.0643 325.60566 233.70368 332.23124 238.34307 338.85685 242.98246 345.48246 247.62183 352.10807 252.26122 358.73365 256.9006 365.35926 261.53999 371.98487 266.17936 378.61048 270.81877 385.23606 275.45814 391.86167 280.0975 398.48728 284.7369"/>
</g>
<g clip-path="url(#clip_25)">
<path transform="matrix(1,0,0,-1,0,345.6)" stroke-width="1.5" stroke-linecap="square" stroke-linejoin="round" fill="none" stroke="#919191" d="M73.832729 59.610383 80.45833 64.159839 87.08393 68.70929 93.70953 73.25874 100.33514 77.8082 106.96074 82.35765 113.58634 86.907108 120.211948 91.45656 126.83755 96.00601 133.46315 100.555469 140.08876 105.10492 146.71436 109.65437 153.33997 114.20383 159.96556 118.75328 166.59117 123.302738 173.21677 127.85219 179.84238 132.40164 186.46797 136.9511 193.09358 141.50055 199.71918 146.05 206.34479 150.59946 212.97039 155.14891 219.596 159.69837 226.2216 164.24782 232.8472 168.79727 239.4728 173.34673 246.0984 177.89618 252.72402 182.44564 259.3496 186.99509 265.97523 191.54454 272.60084 196.094 279.2264 200.64345 285.85203 205.1929 292.47764 209.74236 299.10325 214.29181 305.72883 218.84127 312.35444 223.39072 318.98005 227.94017 325.60566 232.48963 332.23124 237.03908 338.85685 241.58853 345.48246 246.13799 352.10807 250.68744 358.73365 255.2369 365.35926 259.78636 371.98487 264.33583 378.61048 268.88526 385.23606 273.43473 391.86167 277.98417 398.48728 282.53364"/>
</g>
<g clip-path="url(#clip_26)">
<path transform="matrix(1,0,0,-1,0,345.6)" stroke-width="1.5" stroke-linecap="square" stroke-linejoin="round" fill="none" stroke="#bcbd22" d="M73.832729 50.112 80.45833 55.049146 87.08393 59.986288 93.70953 64.92343 100.33514 69.86057 106.96074 74.797718 113.58634 79.734859 120.211948 84.672 126.83755 89.609149 133.46315 94.54629 140.08876 99.48343 146.71436 104.42057 153.33997 109.35771 159.96556 114.29485 166.59117 119.232 173.21677 124.16914 179.84238 129.1063 186.46797 134.04343 193.09358 138.98058 199.71918 143.91771 206.34479 148.85486 212.97039 153.792 219.596 158.72914 226.2216 163.66629 232.8472 168.60343 239.4728 173.54058 246.0984 178.4777 252.72402 183.41486 259.3496 188.352 265.97523 193.28914 272.60084 198.22629 279.2264 203.16342 285.85203 208.10057 292.47764 213.03772 299.10325 217.97486 305.72883 222.912 312.35444 227.84914 318.98005 232.78629 325.60566 237.72344 332.23124 242.66057 338.85685 247.59772 345.48246 252.53485 352.10807 257.472 358.73365 262.40916 365.35926 267.34629 371.98487 272.28343 378.61048 277.22059 385.23606 282.1577 391.86167 287.09486 398.48728 292.032"/>
</g>
<g clip-path="url(#clip_27)">
<path transform="matrix(1,0,0,-1,0,345.6)" stroke-width="1.5" stroke-linecap="square" stroke-linejoin="round" fill="none" stroke="#17becf" d="M73.832729 62.571859 80.45833 67.000438 87.08393 71.429019 93.70953 75.85759 100.33514 80.28617 106.96074 84.714748 113.58634 89.143329 120.211948 93.5719 126.83755 98.00048 133.46315 102.429058 140.08876 106.85763 146.71436 111.28621 153.33997 115.71478 159.96556 120.143367 166.59117 124.57194 173.21677 129.00052 179.84238 133.4291 186.46797 137.85767 193.09358 142.28626 199.71918 146.71483 206.34479 151.1434 212.97039 155.57198 219.596 160.00057 226.2216 164.42914 232.8472 168.85771 239.4728 173.28629 246.0984 177.71486 252.72402 182.14345 259.3496 186.57202 265.97523 191.0006 272.60084 195.42917 279.2264 199.85776 285.85203 204.28633 292.47764 208.7149 299.10325 213.14348 305.72883 217.57207 312.35444 222.00064 318.98005 226.42922 325.60566 230.85779 332.23124 235.28636 338.85685 239.71495 345.48246 244.14353 352.10807 248.5721 358.73365 253.00067 365.35926 257.42927 371.98487 261.85783 378.61048 266.2864 385.23606 270.715 391.86167 275.14356 398.48728 279.57215"/>
</g>
<path transform="matrix(1,0,0,-1,0,345.6)" stroke-width=".8" stroke-linecap="square" stroke-miterlimit="10" stroke-linejoin="miter" fill="none" stroke="#000000" d="M57.6 38.016V304.128"/>
<path transform="matrix(1,0,0,-1,0,345.6)" stroke-width=".8" stroke-linecap="square" stroke-miterlimit="10" stroke-linejoin="miter" fill="none" stroke="#000000" d="M414.72 38.016V304.128"/>
<path transform="matrix(1,0,0,-1,0,345.6)" stroke-width=".8" stroke-linecap="square" stroke-miterlimit="10" stroke-linejoin="miter" fill="none" stroke="#000000" d="M57.6 38.016H414.72"/>
<path transform="matrix(1,0,0,-1,0,345.6)" stroke-width=".8" stroke-linecap="square" stroke-miterlimit="10" stroke-linejoin="miter" fill="none" stroke="#000000" d="M57.6 304.128H414.72"/>
</g>
</svg>
