<svg xmlns="http://www.w3.org/2000/svg" xmlns:xlink="http://www.w3.org/1999/xlink" version="1.1" width="460.8pt" height="345.6pt" viewBox="0 0 460.8 345.6">
<defs>
<clipPath id="clip_0">
<path transform="matrix(.01,0,0,-.01,58.512414,322.17778)" d="M-1021-463H1794V1233H-1021Z"/>
</clipPath>
<clipPath id="clip_1">
<path transform="matrix(.01,0,0,-.01,99.09423,322.17778)" d="M-1021-463H1794V1233H-1021Z"/>
</clipPath>
<clipPath id="clip_2">
<path transform="matrix(.01,0,0,-.01,139.67606,322.17778)" d="M-1021-463H1794V1233H-1021Z"/>
</clipPath>
<clipPath id="clip_3">
<path transform="matrix(.01,0,0,-.01,180.25788,322.17778)" d="M-1021-463H1794V1233H-1021Z"/>
</clipPath>
<clipPath id="clip_4">
<path transform="matrix(.01,0,0,-.01,26.31875,304.83265)" d="M-1021-463H1794V1233H-1021Z"/>
</clipPath>
<clipPath id="clip_5">
<path transform="matrix(.01,0,0,-.01,26.31875,258.7222)" d="M-1021-463H1794V1233H-1021Z"/>
</clipPath>
<clipPath id="clip_6">
<path transform="matrix(1,0,0,-1,0,345.6)" d="M57.6 38.016H414.72V304.128H57.6Z"/>
</clipPath>
<clipPath id="clip_7">
<path transform="matrix(1,0,0,-1,0,345.6)" d="M57.6 38.016H414.72V304.128H57.6Z"/>
</clipPath>
<clipPath id="clip_8">
<path transform="matrix(1,0,0,-1,0,345.6)" d="M57.6 38.016H414.72V304.128H57.6Z"/>
</clipPath>
<clipPath id="clip_9">
<path transform="matrix(1,0,0,-1,0,345.6)" d="M57.6 38.016H414.72V304.128H57.6Z"/>
</clipPath>
<clipPath id="clip_10">
<path transform="matrix(1,0,0,-1,0,345.6)" d="M57.6 38.016H414.72V304.128H57.6Z"/>
</clipPath>
<clipPath id="clip_11">
<path transform="matrix(1,0,0,-1,0,345.6)" d="M57.6 38.016H414.72V304.128H57.6Z"/>
</clipPath>
<clipPath id="clip_12">
<path transform="matrix(1,0,0,-1,0,345.6)" d="M57.6 38.016H414.72V304.128H57.6Z"/>
</clipPath>
<clipPath id="clip_13">
<path transform="matrix(1,0,0,-1,0,345.6)" d="M57.6 38.016H414.72V304.128H57.6Z"/>
</clipPath>
<clipPath id="clip_14">
<path transform="matrix(1,0,0,-1,0,345.6)" d="M57.6 38.016H414.72V304.128H57.6Z"/>
</clipPath>
<clipPath id="clip_15">
<path transform="matrix(1,0,0,-1,0,345.6)" d="M57.6 38.016H414.72V304.128H57.6Z"/>
</clipPath>
<clipPath id="clip_16">
<path transform="matrix(1,0,0,-1,0,345.6)" d="M57.6 38.016H414.72V304.128H57.6Z"/>
</clipPath>
<clipPath id="clip_17">
<path transform="matrix(1,0,0,-1,0,345.6)" d="M57.6 38.016H414.72V304.128H57.6Z"/>
</clipPath>
<clipPath id="clip_18">
<path transform="matrix(1,0,0,-1,0,345.6)" d="M57.6 38.016H414.72V304.128H57.6Z"/>
</clipPath>
<clipPath id="clip_19">
<path transform="matrix(1,0,0,-1,0,345.6)" d="M57.6 38.016H414.72V304.128H57.6Z"/>
</clipPath>
<clipPath id="clip_20">
<path transform="matrix(1,0,0,-1,0,345.6)" d="M57.6 38.016H414.72V304.128H57.6Z"/>
</clipPath>
<clipPath id="clip_21">
<path transform="matrix(1,0,0,-1,0,345.6)" d="M57.6 38.016H414.72V304.128H57.6Z"/>
</clipPath>
<clipPath id="clip_22">
<path transform="matrix(1,0,0,-1,0,345.6)" d="M57.6 38.016H414.72V304.128H57.6Z"/>
</clipPath>
<clipPath id="clip_23">
<path transform="matrix(1,0,0,-1,0,345.6)" d="M57.6 38.016H414.72V304.128H57.6Z"/>
</clipPath>
<clipPath id="clip_24">
<path transform="matrix(1,0,0,-1,0,345.6)" d="M57.6 38.016H414.72V304.128H57.6Z"/>
</clipPath>
<clipPath id="clip_25">
<path transform="matrix(1,0,0,-1,0,345.6)" d="M57.6 38.016H414.72V304.128H57.6Z"/>
</clipPath>
<clipPath id="clip_26">
<path transform="matrix(1,0,0,-1,0,345.6)" d="M57.6 38.016H414.72V304.128H57.6Z"/>
</clipPath>
<clipPath id="clip_27">
<path transform="matrix(1,0,0,-1,0,345.6)" d="M57.6 38.016H414.72V304.128H57.6Z"/>
</clipPath>
<clipPath id="clip_28">
<path transform="matrix(1,0,0,-1,0,345.6)" d="M57.6 38.016H414.72V304.128H57.6Z"/>
</clipPath>
<clipPath id="clip_29">
<path transform="matrix(1,0,0,-1,0,345.6)" d="M57.6 38.016H414.72V304.128H57.6Z"/>
</clipPath>
<clipPath id="clip_30">
<path transform="matrix(1,0,0,-1,0,345.6)" d="M57.6 38.016H414.72V304.128H57.6Z"/>
</clipPath>
<clipPath id="clip_31">
<path transform="matrix(1,0,0,-1,0,345.6)" d="M57.6 38.016H414.72V304.128H57.6Z"/>
</clipPath>
<clipPath id="clip_32">
<path transform="matrix(1,0,0,-1,0,345.6)" d="M57.6 38.016H414.72V304.128H57.6Z"/>
</clipPath>
<clipPath id="clip_33">
<path transform="matrix(1,0,0,-1,0,345.6)" d="M57.6 38.016H414.72V304.128H57.6Z"/>
</clipPath>
<clipPath id="clip_34">
<path transform="matrix(1,0,0,-1,0,345.6)" d="M57.6 38.016H414.72V304.128H57.6Z"/>
</clipPath>
<clipPath id="clip_35">
<path transform="matrix(1,0,0,-1,0,345.6)" d="M57.6 38.016H414.72V304.128H57.6Z"/>
</clipPath>
<clipPath id="clip_36">
<path transform="matrix(1,0,0,-1,0,345.6)" d="M57.6 38.016H414.72V304.128H57.6Z"/>
</clipPath>
<clipPath id="clip_37">
<path transform="matrix(1,0,0,-1,0,345.6)" d="M57.6 38.016H414.72V304.128H57.6Z"/>
</clipPath>
<clipPath id="clip_38">
<path transform="matrix(1,0,0,-1,0,345.6)" d="M57.6 38.016H414.72V304.128H57.6Z"/>
</clipPath>
<clipPath id="clip_39">
<path transform="matrix(1,0,0,-1,0,345.6)" d="M57.6 38.016H414.72V304.128H57.6Z"/>
</clipPath>
<clipPath id="clip_40">
<path transform="matrix(1,0,0,-1,0,345.6)" d="M57.6 38.016H414.72V304.128H57.6Z"/>
</clipPath>
<clipPath id="clip_41">
<path transform="matrix(1,0,0,-1,0,345.6)" d="M57.6 38.016H414.72V304.128H57.6Z"/>
</clipPath>
<clipPath id="clip_42">
<path transform="matrix(1,0,0,-1,0,345.6)" d="M57.6 38.016H414.72V304.128H57.6Z"/>
</clipPath>
<clipPath id="clip_43">
<path transform="matrix(1,0,0,-1,0,345.6)" d="M57.6 38.016H414.72V304.128H57.6Z"/>
</clipPath>
<clipPath id="clip_44">
<path transform="matrix(1,0,0,-1,0,345.6)" d="M57.6 38.016H414.72V304.128H57.6Z"/>
</clipPath>
<clipPath id="clip_45">
<path transform="matrix(1,0,0,-1,0,345.6)" d="M57.6 38.016H414.72V304.128H57.6Z"/>
</clipPath>
</defs>
<g>
<path transform="matrix(1,0,0,-1,0,345.6)" d="M0 0H460.8V345.6H0Z" fill="#ffffff"/>
<path transform="matrix(1,0,0,-1,0,345.6)" d="M57.6 38.016H414.72V304.128H57.6Z" fill="#ffffff"/>
<path transform="matrix(1,0,0,-1,0,345.6)" d="M73.832729 38.016V34.516"/>
<path transform="matrix(1,0,0,-1,0,345.6)" stroke-width=".8" stroke-linecap="butt" stroke-linejoin="round" fill="none" stroke="#000000" d="M73.832729 38.016V34.516"/>
<text xml:space="preserve" transform="matrix(1 0 -0 1 58.512414 322.17778)" font-size="10" font-family="DejaVuSans"><tspan y="0" x="8.378906 14.738907 17.918908 24.278908">1.00</tspan></text>
<g clip-path="url(#clip_0)">
<path transform="matrix(.01,0,0,-.01,58.512414,322.17778)" d="M106 355H732V272H106V355"/>
</g>
<path transform="matrix(1,0,0,-1,0,345.6)" d="M114.41454 38.016V34.516"/>
<path transform="matrix(1,0,0,-1,0,345.6)" stroke-width=".8" stroke-linecap="butt" stroke-linejoin="round" fill="none" stroke="#000000" d="M114.41454 38.016V34.516"/>
<text xml:space="preserve" transform="matrix(1 0 -0 1 99.09423 322.17778)" font-size="10" font-family="DejaVuSans"><tspan y="0" x="8.378906 14.738907 17.918908 24.278908">0.75</tspan></text>
<g clip-path="url(#clip_1)">
<path transform="matrix(.01,0,0,-.01,99.09423,322.17778)" d="M106 355H732V272H106V355"/>
</g>
<path transform="matrix(1,0,0,-1,0,345.6)" d="M154.99637 38.016V34.516"/>
<path transform="matrix(1,0,0,-1,0,345.6)" stroke-width=".8" stroke-linecap="butt" stroke-linejoin="round" fill="none" stroke="#000000" d="M154.99637 38.016V34.516"/>
<text xml:space="preserve" transform="matrix(1 0 -0 1 139.67606 322.17778)" font-size="10" font-family="DejaVuSans"><tspan y="0" x="8.378906 14.738907 17.918908 24.278908">0.50</tspan></text>
<g clip-path="url(#clip_2)">
<path transform="matrix(.01,0,0,-.01,139.67606,322.17778)" d="M106 355H732V272H106V355"/>
</g>
<path transform="matrix(1,0,0,-1,0,345.6)" d="M195.57819 38.016V34.516"/>
<path transform="matrix(1,0,0,-1,0,345.6)" stroke-width=".8" stroke-linecap="butt" stroke-linejoin="round" fill="none" stroke="#000000" d="M195.57819 38.016V34.516"/>
<text xml:space="preserve" transform="matrix(1 0 -0 1 180.25788 322.17778)" font-size="10" font-family="DejaVuSans"><tspan y="0" x="8.378906 14.738907 17.918908 24.278908">0.25</tspan></text>
<g clip-path="url(#clip_3)">
<path transform="matrix(.01,0,0,-.01,180.25788,322.17778)" d="M106 355H732V272H106V355"/>
</g>
<path transform="matrix(1,0,0,-1,0,345.6)" d="M236.16 38.016V34.516"/>
<path transform="matrix(1,0,0,-1,0,345.6)" stroke-width=".8" stroke-linecap="butt" stroke-linejoin="round" fill="none" stroke="#000000" d="M236.16 38.016V34.516"/>
<text xml:space="preserve" transform="matrix(1 0 -0 1 0 345.6)" font-size="10" font-family="DejaVuSans"><tspan y="-23.42225" x="225.02719 231.38719 234.5672 240.9272">0.00</tspan></text>
<path transform="matrix(1,0,0,-1,0,345.6)" d="M276.74183 38.016V34.516"/>
<path transform="matrix(1,0,0,-1,0,345.6)" stroke-width=".8" stroke-linecap="butt" stroke-linejoin="round" fill="none" stroke="#000000" d="M276.74183 38.016V34.516"/>
<text xml:space="preserve" transform="matrix(1 0 -0 1 0 345.6)" font-size="10" font-family="DejaVuSans"><tspan y="-23.42225" x="265.609 271.969 275.149 281.50898">0.25</tspan></text>
<path transform="matrix(1,0,0,-1,0,345.6)" d="M317.32365 38.016V34.516"/>
<path transform="matrix(1,0,0,-1,0,345.6)" stroke-width=".8" stroke-linecap="butt" stroke-linejoin="round" fill="none" stroke="#000000" d="M317.32365 38.016V34.516"/>
<text xml:space="preserve" transform="matrix(1 0 -0 1 0 345.6)" font-size="10" font-family="DejaVuSans"><tspan y="-23.42225" x="306.19084 312.55085 315.73085 322.09083">0.50</tspan></text>
<path transform="matrix(1,0,0,-1,0,345.6)" d="M357.90547 38.016V34.516"/>
<path transform="matrix(1,0,0,-1,0,345.6)" stroke-width=".8" stroke-linecap="butt" stroke-linejoin="round" fill="none" stroke="#000000" d="M357.90547 38.016V34.516"/>
<text xml:space="preserve" transform="matrix(1 0 -0 1 0 345.6)" font-size="10" font-family="DejaVuSans"><tspan y="-23.42225" x="346.77265 353.13264 356.31263 362.6726">0.75</tspan></text>
<path transform="matrix(1,0,0,-1,0,345.6)" d="M398.48728 38.016V34.516"/>
<path transform="matrix(1,0,0,-1,0,345.6)" stroke-width=".8" stroke-linecap="butt" stroke-linejoin="round" fill="none" stroke="#000000" d="M398.48728 38.016V34.516"/>
<text xml:space="preserve" transform="matrix(1 0 -0 1 0 345.6)" font-size="10" font-family="DejaVuSans"><tspan y="-23.42225" x="387.35447 393.71449 396.89448 403.25447">1.00</tspan></text>
<path transform="matrix(1,0,0,-1,0,345.6)" d="M57.6 44.564256H54.1"/>
<path transform="matrix(1,0,0,-1,0,345.6)" stroke-width=".8" stroke-linecap="butt" stroke-linejoin="round" fill="none" stroke="#000000" d="M57.6 44.564256H54.1"/>
<text xml:space="preserve" transform="matrix(1 0 -0 1 26.31875 304.83265)" font-size="10" font-family="DejaVuSans"><tspan y="0" x="8.378906 14.738907 17.918908">1.0</tspan></text>
<g clip-path="url(#clip_4)">
<path transform="matrix(.01,0,0,-.01,26.31875,304.83265)" d="M106 355H732V272H106V355"/>
</g>
<path transform="matrix(1,0,0,-1,0,345.6)" d="M57.6 90.674678H54.1"/>
<path transform="matrix(1,0,0,-1,0,345.6)" stroke-width=".8" stroke-linecap="butt" stroke-linejoin="round" fill="none" stroke="#000000" d="M57.6 90.674678H54.1"/>
<text xml:space="preserve" transform="matrix(1 0 -0 1 26.31875 258.7222)" font-size="10" font-family="DejaVuSans"><tspan y="0" x="8.378906 14.738907 17.918908">0.5</tspan></text>
<g clip-path="url(#clip_5)">
<path transform="matrix(.01,0,0,-.01,26.31875,258.7222)" d="M106 355H732V272H106V355"/>
</g>
<path transform="matrix(1,0,0,-1,0,345.6)" d="M57.6 136.7851H54.1"/>
<path transform="matrix(1,0,0,-1,0,345.6)" stroke-width=".8" stroke-linecap="butt" stroke-linejoin="round" fill="none" stroke="#000000" d="M57.6 136.7851H54.1"/>
<text xml:space="preserve" transform="matrix(1 0 -0 1 0 345.6)" font-size="10" font-family="DejaVuSans"><tspan y="-132.98822" x="34.69375 41.05375 44.23375">0.0</tspan></text>
<path transform="matrix(1,0,0,-1,0,345.6)" d="M57.6 182.89551H54.1"/>
<path transform="matrix(1,0,0,-1,0,345.6)" stroke-width=".8" stroke-linecap="butt" stroke-linejoin="round" fill="none" stroke="#000000" d="M57.6 182.89551H54.1"/>
<text xml:space="preserve" transform="matrix(1 0 -0 1 0 345.6)" font-size="10" font-family="DejaVuSans"><tspan y="-179.09864" x="34.69375 41.05375 44.23375">0.5</tspan></text>
<path transform="matrix(1,0,0,-1,0,345.6)" d="M57.6 229.00594H54.1"/>
<path transform="matrix(1,0,0,-1,0,345.6)" stroke-width=".8" stroke-linecap="butt" stroke-linejoin="round" fill="none" stroke="#000000" d="M57.6 229.00594H54.1"/>
<text xml:space="preserve" transform="matrix(1 0 -0 1 0 345.6)" font-size="10" font-family="DejaVuSans"><tspan y="-225.20906" x="34.69375 41.05375 44.23375">1.0</tspan></text>
<path transform="matrix(1,0,0,-1,0,345.6)" d="M57.6 275.11637H54.1"/>
<path transform="matrix(1,0,0,-1,0,345.6)" stroke-width=".8" stroke-linecap="butt" stroke-linejoin="round" fill="none" stroke="#000000" d="M57.6 275.11637H54.1"/>
<text xml:space="preserve" transform="matrix(1 0 -0 1 0 345.6)" font-size="10" font-family="DejaVuSans"><tspan y="-271.3195" x="34.69375 41.05375 44.23375">1.5</tspan></text>
<g clip-path="url(#clip_6)">
<path transform="matrix(1,0,0,-1,0,345.6)" stroke-width="1.5" stroke-linecap="square" stroke-linejoin="round" fill="none" stroke="#1f77b4" d="M73.832729 129.76238 80.45833 132.41519 87.08393 135.068 93.70953 137.7208 100.33514 140.37361 106.96074 143.02642 113.58634 145.67922 120.211948 148.33203 126.83755 150.98484 133.46315 153.63764 140.08876 156.29044 146.71436 158.94326 153.33997 161.59606 159.96556 164.24886 166.59117 166.90167 173.21677 169.55448 179.84238 172.20728 186.46797 174.86009 193.09358 177.5129 199.71918 180.1657 206.34479 182.8185 212.97039 185.47132 219.596 188.12412 226.2216 190.77692 232.8472 193.42974 239.4728 196.08254 246.0984 198.73534 252.72402 201.38814 259.3496 204.04096 265.97523 206.69376 272.60084 209.34656 279.2264 211.99938 285.85203 214.65218 292.47764 217.30498 299.10325 219.9578 305.72883 222.6106 312.35444 225.2634 318.98005 227.9162 325.60566 230.56902 332.23124 233.22182 338.85685 235.87462 345.48246 238.52744 352.10807 241.18024 358.73365 243.83304 365.35926 246.48586 371.98487 249.13866 378.61048 251.79146 385.23606 254.44426 391.86167 257.09709 398.48728 259.74989"/>
</g>
<g clip-path="url(#clip_7)">
<path transform="matrix(1,0,0,-1,0,345.6)" stroke-width="1.5" stroke-linecap="square" stroke-linejoin="round" fill="none" stroke="#ff7f0e" d="M73.832729 101.66746 80.45833 104.7092 87.08393 107.75094 93.70953 110.79268 100.33514 113.83442 106.96074 116.87616 113.58634 119.91791 120.211948 122.95965 126.83755 126.00139 133.46315 129.04312 140.08876 132.08487 146.71436 135.12662 153.33997 138.16835 159.96556 141.2101 166.59117 144.25183 173.21677 147.29358 179.84238 150.33531 186.46797 153.37706 193.09358 156.4188 199.71918 159.46054 206.34479 162.50229 212.97039 165.54402 219.596 168.58577 226.2216 171.6275 232.8472 174.66925 239.4728 177.71099 246.0984 180.75273 252.72402 183.79448 259.3496 186.83621 265.97523 189.87796 272.60084 192.9197 279.2264 195.96144 285.85203 199.00318 292.47764 202.04492 299.10325 205.08666 305.72883 208.1284 312.35444 211.17015 318.98005 214.21189 325.60566 217.25363 332.23124 220.29537 338.85685 223.33712 345.48246 226.37885 352.10807 229.4206 358.73365 232.46234 365.35926 235.50408 371.98487 238.54582 378.61048 241.58756 385.23606 244.6293 391.86167 247.67104 398.48728 250.71279"/>
</g>
<g clip-path="url(#clip_8)">
<path transform="matrix(1,0,0,-1,0,345.6)" stroke-width="1.5" stroke-linecap="square" stroke-linejoin="round" fill="none" stroke="#2ca02c" d="M73.832729 106.734348 80.45833 109.17235 87.08393 111.61035 93.70953 114.048358 100.33514 116.48636 106.96074 118.92436 113.58634 121.362369 120.211948 123.80037 126.83755 126.23838 133.46315 128.67638 140.08876 131.11438 146.71436 133.55239 153.33997 135.9904 159.96556 138.4284 166.59117 140.86641 173.21677 143.30442 179.84238 145.74242 186.46797 148.18042 193.09358 150.61843 199.71918 153.05643 206.34479 155.49443 212.97039 157.93244 219.596 160.37044 226.2216 162.80844 232.8472 165.24645 239.4728 167.68445 246.0984 170.12245 252.72402 172.56046 259.3496 174.99846 265.97523 177.43647 272.60084 179.87447 279.2264 182.31247 285.85203 184.75048 292.47764 187.18848 299.10325 189.6265 305.72883 192.0645 312.35444 194.5025 318.98005 196.9405 325.60566 199.37851 332.23124 201.81652 338.85685 204.25452 345.48246 206.69252 352.10807 209.13053 358.73365 211.56853 365.35926 214.00653 371.98487 216.44454 378.61048 218.88254 385.23606 221.32054 391.86167 223.75855 398.48728 226.19655"/>
</g>
<g clip-path="url(#clip_9)">
<path transform="matrix(1,0,0,-1,0,345.6)" stroke-width="1.5" stroke-linecap="square" stroke-linejoin="round" fill="none" stroke="#d62728" d="M73.832729 83.55194 80.45833 86.20632 87.08393 88.860698 93.70953 91.515079 100.33514 94.16945 106.96074 96.82383 113.58634 99.4782 120.211948 102.132579 126.83755 104.78696 133.46315 107.44133 140.08876 110.09571 146.71436 112.750087 153.33997 115.404468 159.96556 118.05884 166.59117 120.71322 173.21677 123.36759 179.84238 126.021968 186.46797 128.67635 193.09358 131.33072 199.71918 133.98509 206.34479 136.63948 212.97039 139.29386 219.596 141.94823 226.2216 144.6026 232.8472 147.25699 239.4728 149.91136 246.0984 152.56574 252.72402 155.22011 259.3496 157.87448 265.97523 160.52887 272.60084 163.18325 279.2264 165.83762 285.85203 168.49199 292.47764 171.14638 299.10325 173.80075 305.72883 176.45513 312.35444 179.1095 318.98005 181.76387 325.60566 184.41826 332.23124 187.07263 338.85685 189.727 345.48246 192.38138 352.10807 195.03575 358.73365 197.69014 365.35926 200.34452 371.98487 202.99889 378.61048 205.65326 385.23606 208.30765 391.86167 210.96202 398.48728 213.6164"/>
</g>
<g clip-path="url(#clip_10)">
<path transform="matrix(1,0,0,-1,0,345.6)" stroke-width="1.5" stroke-linecap="square" stroke-linejoin="round" fill="none" stroke="#9467bd" d="M73.832729 100.53708 80.45833 103.877658 87.08393 107.21823 93.70953 110.55881 100.33514 113.89938 106.96074 117.23996 113.58634 120.580539 120.211948 123.92111 126.83755 127.26169 133.46315 130.60227 140.08876 133.94284 146.71436 137.28342 153.33997 140.624 159.96556 143.96457 166.59117 147.30515 173.21677 150.64572 179.84238 153.9863 186.46797 157.32688 193.09358 160.66745 199.71918 164.00803 206.34479 167.3486 212.97039 170.68918 219.596 174.02976 226.2216 177.37033 232.8472 180.7109 239.4728 184.05149 246.0984 187.39206 252.72402 190.73264 259.3496 194.07321 265.97523 197.41379 272.60084 200.75437 279.2264 204.09494 285.85203 207.43552 292.47764 210.7761 299.10325 214.11667 305.72883 217.45725 312.35444 220.79782 318.98005 224.1384 325.60566 227.47898 332.23124 230.81955 338.85685 234.16013 345.48246 237.5007 352.10807 240.84128 358.73365 244.18186 365.35926 247.52243 371.98487 250.863 378.61048 254.20359 385.23606 257.54417 391.86167 260.88475 398.48728 264.2253"/>
</g>
<g clip-path="url(#clip_11)">
<path transform="matrix(1,0,0,-1,0,345.6)" stroke-width="1.5" stroke-linecap="square" stroke-linejoin="round" fill="none" stroke="#8c564b" d="M73.832729 84.45845 80.45833 87.78355 87.08393 91.108638 93.70953 94.43373 100.33514 97.75882 106.96074 101.083919 113.58634 104.409008 120.211948 107.7341 126.83755 111.05919 133.46315 114.384288 140.08876 117.70937 146.71436 121.03447 153.33997 124.35956 159.96556 127.68465 166.59117 131.00974 173.21677 134.33484 179.84238 137.65993 186.46797 140.98502 193.09358 144.3101 199.71918 147.63521 206.34479 150.9603 212.97039 154.28539 219.596 157.61048 226.2216 160.93558 232.8472 164.26067 239.4728 167.58576 246.0984 170.91085 252.72402 174.23595 259.3496 177.56104 265.97523 180.88613 272.60084 184.21121 279.2264 187.53632 285.85203 190.8614 292.47764 194.1865 299.10325 197.51158 305.72883 200.83669 312.35444 204.16178 318.98005 207.48686 325.60566 210.81195 332.23124 214.13706 338.85685 217.46215 345.48246 220.78723 352.10807 224.11232 358.73365 227.43741 365.35926 230.76251 371.98487 234.0876 378.61048 237.41269 385.23606 240.73778 391.86167 244.06288 398.48728 247.38797"/>
</g>
<g clip-path="url(#clip_12)">
<path transform="matrix(1,0,0,-1,0,345.6)" stroke-width="1.5" stroke-linecap="square" stroke-linejoin="round" fill="none" stroke="#e377c2" d="M73.832729 115.55249 80.45833 116.888797 87.08393 118.2251 93.70953 119.5614 100.33514 120.897708 106.96074 122.23401 113.58634 123.57031 120.211948 124.90662 126.83755 126.24292 133.46315 127.57922 140.08876 128.91553 146.71436 130.25183 153.33997 131.58814 159.96556 132.92444 166.59117 134.26074 173.21677 135.59705 179.84238 136.93335 186.46797 138.26966 193.09358 139.60596 199.71918 140.94226 206.34479 142.27857 212.97039 143.61487 219.596 144.95117 226.2216 146.28748 232.8472 147.62378 239.4728 148.96009 246.0984 150.29639 252.72402 151.63269 259.3496 152.969 265.97523 154.3053 272.60084 155.6416 279.2264 156.9779 285.85203 158.31421 292.47764 159.65052 299.10325 160.98682 305.72883 162.32312 312.35444 163.65943 318.98005 164.99573 325.60566 166.33203 332.23124 167.66834 338.85685 169.00464 345.48246 170.34095 352.10807 171.67725 358.73365 173.01355 365.35926 174.34986 371.98487 175.68616 378.61048 177.02246 385.23606 178.35877 391.86167 179.69507 398.48728 181.03137"/>
</g>
<g clip-path="url(#clip_13)">
<path transform="matrix(1,0,0,-1,0,345.6)" stroke-width="1.5" stroke-linecap="square" stroke-linejoin="round" fill="none" stroke="#919191" d="M73.832729 157.6523 80.45833 160.39475 87.08393 163.13719 93.70953 165.87963 100.33514 168.62207 106.96074 171.36452 113.58634 174.10697 120.211948 176.8494 126.83755 179.59185 133.46315 182.33429 140.08876 185.07674 146.71436 187.81917 153.33997 190.56162 159.96556 193.30406 166.59117 196.04651 173.21677 198.78894 179.84238 201.53139 186.46797 204.27384 193.09358 207.01627 199.71918 209.75872 206.34479 212.50116 212.97039 215.2436 219.596 217.98604 226.2216 220.72849 232.8472 223.47093 239.4728 226.21338 246.0984 228.95581 252.72402 231.69826 259.3496 234.4407 265.97523 237.18315 272.60084 239.92559 279.2264 242.66803 285.85203 245.41048 292.47764 248.15291 299.10325 250.89536 305.72883 253.6378 312.35444 256.38026 318.98005 259.12269 325.60566 261.86515 332.23124 264.60758 338.85685 267.35 345.48246 270.09248 352.10807 272.8349 358.73365 275.57734 365.35926 278.3198 371.98487 281.06224 378.61048 283.80467 385.23606 286.54713 391.86167 289.28956 398.48728 292.032"/>
</g>
<g clip-path="url(#clip_14)">
<path transform="matrix(1,0,0,-1,0,345.6)" stroke-width="1.5" stroke-linecap="square" stroke-linejoin="round" fill="none" stroke="#bcbd22" d="M73.832729 208.68463 80.45833 209.49456 87.08393 210.30448 93.70953 211.1144 100.33514 211.92432 106.96074 212.73426 113.58634 213.54418 120.211948 214.3541 126.83755 215.16402 133.46315 215.97396 140.08876 216.78388 146.71436 217.5938 153.33997 218.40372 159.96556 219.21366 166.59117 220.02358 173.21677 220.8335 179.84238 221.64342 186.46797 222.45334 193.09358 223.26328 199.71918 224.0732 206.34479 224.88312 212.97039 225.69304 219.596 226.50298 226.2216 227.3129 232.8472 228.12282 239.4728 228.93274 246.0984 229.74266 252.72402 230.5526 259.3496 231.36252 265.97523 232.17244 272.60084 232.98236 279.2264 233.7923 285.85203 234.60222 292.47764 235.41214 299.10325 236.22206 305.72883 237.03199 312.35444 237.84192 318.98005 238.65184 325.60566 239.46176 332.23124 240.27169 338.85685 241.08162 345.48246 241.89154 352.10807 242.70146 358.73365 243.51139 365.35926 244.32132 371.98487 245.13124 378.61048 245.94116 385.23606 246.75109 391.86167 247.561 398.48728 248.37094"/>
</g>
<g clip-path="url(#clip_15)">
<path transform="matrix(1,0,0,-1,0,345.6)" stroke-width="1.5" stroke-linecap="square" stroke-linejoin="round" fill="none" stroke="#17becf" d="M73.832729 170.65825 80.45833 171.49599 87.08393 172.33373 93.70953 173.17147 100.33514 174.0092 106.96074 174.84694 113.58634 175.68468 120.211948 176.52242 126.83755 177.36016 133.46315 178.19789 140.08876 179.03563 146.71436 179.87337 153.33997 180.7111 159.96556 181.54885 166.59117 182.38658 173.21677 183.22432 179.84238 184.06206 186.46797 184.8998 193.09358 185.73752 199.71918 186.57526 206.34479 187.413 212.97039 188.25074 219.596 189.08847 226.2216 189.92621 232.8472 190.76395 239.4728 191.60169 246.0984 192.43943 252.72402 193.27716 259.3496 194.1149 265.97523 194.95264 272.60084 195.79038 279.2264 196.62812 285.85203 197.46585 292.47764 198.30359 299.10325 199.14133 305.72883 199.97907 312.35444 200.8168 318.98005 201.65454 325.60566 202.49228 332.23124 203.33002 338.85685 204.16776 345.48246 205.0055 352.10807 205.84323 358.73365 206.68097 365.35926 207.5187 371.98487 208.35645 378.61048 209.19419 385.23606 210.03192 391.86167 210.86966 398.48728 211.7074"/>
</g>
<g clip-path="url(#clip_16)">
<path transform="matrix(1,0,0,-1,0,345.6)" stroke-width="1.5" stroke-linecap="square" stroke-linejoin="round" fill="none" stroke="#1f77b4" d="M73.832729 50.112 80.45833 53.716653 87.08393 57.321306 93.70953 60.925958 100.33514 64.53061 106.96074 68.13526 113.58634 71.739917 120.211948 75.34457 126.83755 78.94922 133.46315 82.55387 140.08876 86.15852 146.71436 89.763179 153.33997 93.36783 159.96556 96.97248 166.59117 100.57713 173.21677 104.181789 179.84238 107.78644 186.46797 111.39109 193.09358 114.99574 199.71918 118.600399 206.34479 122.20505 212.97039 125.8097 219.596 129.41436 226.2216 133.019 232.8472 136.62366 239.4728 140.2283 246.0984 143.83296 252.72402 147.4376 259.3496 151.04227 265.97523 154.64691 272.60084 158.25157 279.2264 161.85622 285.85203 165.46088 292.47764 169.06552 299.10325 172.67018 305.72883 176.27483 312.35444 179.87949 318.98005 183.48413 325.60566 187.08879 332.23124 190.69344 338.85685 194.2981 345.48246 197.90274 352.10807 201.5074 358.73365 205.11205 365.35926 208.7167 371.98487 212.32135 378.61048 215.92601 385.23606 219.53066 391.86167 223.13532 398.48728 226.73996"/>
</g>
<g clip-path="url(#clip_17)">
<path transform="matrix(1,0,0,-1,0,345.6)" stroke-width="1.5" stroke-linecap="square" stroke-linejoin="round" fill="none" stroke="#ff7f0e" d="M73.832729 170.18386 80.45833 170.89978 87.08393 171.6157 93.70953 172.33162 100.33514 173.04755 106.96074 173.76348 113.58634 174.4794 120.211948 175.19533 126.83755 175.91126 133.46315 176.62718 140.08876 177.34311 146.71436 178.05904 153.33997 178.77497 159.96556 179.49089 166.59117 180.20682 173.21677 180.92273 179.84238 181.63866 186.46797 182.35459 193.09358 183.07051 199.71918 183.78644 206.34479 184.50237 212.97039 185.21829 219.596 185.93422 226.2216 186.65015 232.8472 187.36608 239.4728 188.082 246.0984 188.79792 252.72402 189.51384 259.3496 190.22977 265.97523 190.9457 272.60084 191.66162 279.2264 192.37755 285.85203 193.09348 292.47764 193.8094 299.10325 194.52533 305.72883 195.24126 312.35444 195.95719 318.98005 196.67311 325.60566 197.38903 332.23124 198.10495 338.85685 198.82088 345.48246 199.5368 352.10807 200.25273 358.73365 200.96866 365.35926 201.68459 371.98487 202.40052 378.61048 203.11644 385.23606 203.83237 391.86167 204.5483 398.48728 205.2642"/>
</g>
<g clip-path="url(#clip_18)">
<path transform="matrix(1,0,0,-1,0,345.6)" stroke-width="1.5" stroke-linecap="square" stroke-linejoin="round" fill="none" stroke="#2ca02c" d="M73.832729 116.06071 80.45833 119.19129 87.08393 122.32188 93.70953 125.45245 100.33514 128.58304 106.96074 131.71363 113.58634 134.84421 120.211948 137.9748 126.83755 141.10538 133.46315 144.23596 140.08876 147.36653 146.71436 150.49712 153.33997 153.6277 159.96556 156.75829 166.59117 159.88887 173.21677 163.01946 179.84238 166.15004 186.46797 169.28063 193.09358 172.41121 199.71918 175.5418 206.34479 178.67237 212.97039 181.80295 219.596 184.93354 226.2216 188.06412 232.8472 191.1947 239.4728 194.32529 246.0984 197.45587 252.72402 200.58646 259.3496 203.71704 265.97523 206.84763 272.60084 209.9782 279.2264 213.10878 285.85203 216.23937 292.47764 219.36995 299.10325 222.50054 305.72883 225.63112 312.35444 228.7617 318.98005 231.89229 325.60566 235.02288 332.23124 238.15346 338.85685 241.28403 345.48246 244.41461 352.10807 247.5452 358.73365 250.67578 365.35926 253.80637 371.98487 256.93696 378.61048 260.06755 385.23606 263.19813 391.86167 266.3287 398.48728 269.4593"/>
</g>
<g clip-path="url(#clip_19)">
<path transform="matrix(1,0,0,-1,0,345.6)" stroke-width="1.5" stroke-linecap="square" stroke-linejoin="round" fill="none" stroke="#d62728" d="M73.832729 165.3812 80.45833 166.20407 87.08393 167.02693 93.70953 167.84981 100.33514 168.67269 106.96074 169.49556 113.58634 170.31844 120.211948 171.14131 126.83755 171.96419 133.46315 172.78707 140.08876 173.60994 146.71436 174.43282 153.33997 175.25569 159.96556 176.07857 166.59117 176.90145 173.21677 177.72432 179.84238 178.5472 186.46797 179.37006 193.09358 180.19293 199.71918 181.01581 206.34479 181.83869 212.97039 182.66156 219.596 183.48444 226.2216 184.30731 232.8472 185.13019 239.4728 185.95307 246.0984 186.77594 252.72402 187.59882 259.3496 188.42169 265.97523 189.24457 272.60084 190.06745 279.2264 190.8903 285.85203 191.71318 292.47764 192.53606 299.10325 193.35894 305.72883 194.18181 312.35444 195.00469 318.98005 195.82756 325.60566 196.65044 332.23124 197.47332 338.85685 198.29619 345.48246 199.11907 352.10807 199.94194 358.73365 200.76482 365.35926 201.58769 371.98487 202.41057 378.61048 203.23345 385.23606 204.0563 391.86167 204.87918 398.48728 205.70206"/>
</g>
<g clip-path="url(#clip_20)">
<path transform="matrix(1,0,0,-1,0,345.6)" stroke-width="1.5" stroke-linecap="square" stroke-linejoin="round" fill="none" stroke="#9467bd" d="M73.832729 88.42571 80.45833 90.41216 87.08393 92.39861 93.70953 94.38506 100.33514 96.37151 106.96074 98.35796 113.58634 100.34442 120.211948 102.33087 126.83755 104.31732 133.46315 106.30377 140.08876 108.29022 146.71436 110.27667 153.33997 112.26312 159.96556 114.24957 166.59117 116.23602 173.21677 118.22248 179.84238 120.20893 186.46797 122.19538 193.09358 124.18183 199.71918 126.16828 206.34479 128.15474 212.97039 130.14119 219.596 132.12764 226.2216 134.11409 232.8472 136.10054 239.4728 138.08699 246.0984 140.07344 252.72402 142.05989 259.3496 144.04634 265.97523 146.03279 272.60084 148.01924 279.2264 150.00569 285.85203 151.99214 292.47764 153.97859 299.10325 155.96504 305.72883 157.95149 312.35444 159.93795 318.98005 161.92441 325.60566 163.91086 332.23124 165.89731 338.85685 167.88376 345.48246 169.87021 352.10807 171.85666 358.73365 173.84311 365.35926 175.82956 371.98487 177.81601 378.61048 179.80246 385.23606 181.78891 391.86167 183.77536 398.48728 185.76181"/>
</g>
<g clip-path="url(#clip_21)">
<path transform="matrix(1,0,0,-1,0,345.6)" stroke-width="1.5" stroke-linecap="square" stroke-linejoin="round" fill="none" stroke="#8c564b" d="M73.832729 177.82172 80.45833 179.80078 87.08393 181.77983 93.70953 183.7589 100.33514 185.73795 106.96074 187.71701 113.58634 189.69606 120.211948 191.67513 126.83755 193.65418 133.46315 195.63323 140.08876 197.61229 146.71436 199.59136 153.33997 201.5704 159.96556 203.54946 166.59117 205.52852 173.21677 207.50757 179.84238 209.48664 186.46797 211.46569 193.09358 213.44475 199.71918 215.4238 206.34479 217.40287 212.97039 219.38191 219.596 221.36098 226.2216 223.34003 232.8472 225.31909 239.4728 227.29814 246.0984 229.2772 252.72402 231.25626 259.3496 233.23532 265.97523 235.21437 272.60084 237.19344 279.2264 239.17249 285.85203 241.15155 292.47764 243.1306 299.10325 245.10967 305.72883 247.08872 312.35444 249.06778 318.98005 251.04683 325.60566 253.0259 332.23124 255.00495 338.85685 256.984 345.48246 258.96305 352.10807 260.9421 358.73365 262.92118 365.35926 264.90025 371.98487 266.87928 378.61048 268.85835 385.23606 270.8374 391.86167 272.81648 398.48728 274.7955"/>
</g>
<g clip-path="url(#clip_22)">
<path transform="matrix(1,0,0,-1,0,345.6)" stroke-width="1.5" stroke-linecap="square" stroke-linejoin="round" fill="none" stroke="#e377c2" d="M73.832729 153.68244 80.45833 155.99477 87.08393 158.30709 93.70953 160.61942 100.33514 162.93175 106.96074 165.24407 113.58634 167.5564 120.211948 169.86873 126.83755 172.18105 133.46315 174.49338 140.08876 176.80571 146.71436 179.11803 153.33997 181.43036 159.96556 183.74269 166.59117 186.05501 173.21677 188.36734 179.84238 190.67967 186.46797 192.99199 193.09358 195.30432 199.71918 197.61666 206.34479 199.92897 212.97039 202.2413 219.596 204.55364 226.2216 206.86595 232.8472 209.17829 239.4728 211.49062 246.0984 213.80294 252.72402 216.11527 259.3496 218.4276 265.97523 220.73993 272.60084 223.05225 279.2264 225.36458 285.85203 227.67691 292.47764 229.98923 299.10325 232.30156 305.72883 234.61389 312.35444 236.92621 318.98005 239.23854 325.60566 241.55088 332.23124 243.86319 338.85685 246.17552 345.48246 248.48786 352.10807 250.80017 358.73365 253.1125 365.35926 255.42484 371.98487 257.73716 378.61048 260.04948 385.23606 262.36183 391.86167 264.67414 398.48728 266.98646"/>
</g>
<g clip-path="url(#clip_23)">
<path transform="matrix(1,0,0,-1,0,345.6)" stroke-width="1.5" stroke-linecap="square" stroke-linejoin="round" fill="none" stroke="#919191" d="M73.832729 133.89353 80.45833 135.80936 87.08393 137.72519 93.70953 139.64102 100.33514 141.55686 106.96074 143.47269 113.58634 145.38852 120.211948 147.30435 126.83755 149.22019 133.46315 151.13602 140.08876 153.05185 146.71436 154.96768 153.33997 156.88352 159.96556 158.79935 166.59117 160.71518 173.21677 162.63101 179.84238 164.54685 186.46797 166.46268 193.09358 168.37851 199.71918 170.29434 206.34479 172.21018 212.97039 174.126 219.596 176.04184 226.2216 177.95767 232.8472 179.8735 239.4728 181.78934 246.0984 183.70517 252.72402 185.621 259.3496 187.53684 265.97523 189.45267 272.60084 191.3685 279.2264 193.28433 285.85203 195.20017 292.47764 197.116 299.10325 199.03183 305.72883 200.94766 312.35444 202.8635 318.98005 204.77933 325.60566 206.69516 332.23124 208.611 338.85685 210.52683 345.48246 212.44266 352.10807 214.35849 358.73365 216.27433 365.35926 218.19016 371.98487 220.10599 378.61048 222.02182 385.23606 223.93766 391.86167 225.85349 398.48728 227.76932"/>
</g>
<g clip-path="url(#clip_24)">
<path transform="matrix(1,0,0,-1,0,345.6)" stroke-width="1.5" stroke-linecap="square" stroke-linejoin="round" fill="none" stroke="#bcbd22" d="M73.832729 129.52556 80.45833 132.62129 87.08393 135.71703 93.70953 138.81278 100.33514 141.90851 106.96074 145.00424 113.58634 148.09999 120.211948 151.19573 126.83755 154.29148 133.46315 157.3872 140.08876 160.48294 146.71436 163.57869 153.33997 166.67443 159.96556 169.77016 166.59117 172.8659 173.21677 175.96164 179.84238 179.05738 186.46797 182.15312 193.09358 185.24886 199.71918 188.3446 206.34479 191.44034 212.97039 194.53607 219.596 197.63182 226.2216 200.72756 232.8472 203.82329 239.4728 206.91904 246.0984 210.01477 252.72402 213.1105 259.3496 216.20626 265.97523 219.30199 272.60084 222.39774 279.2264 225.49347 285.85203 228.5892 292.47764 231.68495 299.10325 234.78069 305.72883 237.87642 312.35444 240.97217 318.98005 244.0679 325.60566 247.16365 332.23124 250.25939 338.85685 253.35512 345.48246 256.45088 352.10807 259.5466 358.73365 262.64234 365.35926 265.73808 371.98487 268.83384 378.61048 271.92958 385.23606 275.0253 391.86167 278.12104 398.48728 281.21678"/>
</g>
<g clip-path="url(#clip_25)">
<path transform="matrix(1,0,0,-1,0,345.6)" stroke-width="1.5" stroke-linecap="square" stroke-linejoin="round" fill="none" stroke="#17becf" d="M73.832729 117.22654 80.45833 119.13804 87.08393 121.04953 93.70953 122.96103 100.33514 124.87252 106.96074 126.78402 113.58634 128.69551 120.211948 130.60701 126.83755 132.51851 133.46315 134.43 140.08876 136.34149 146.71436 138.25299 153.33997 140.16449 159.96556 142.07598 166.59117 143.98748 173.21677 145.89897 179.84238 147.81047 186.46797 149.72196 193.09358 151.63346 199.71918 153.54496 206.34479 155.45644 212.97039 157.36794 219.596 159.27944 226.2216 161.19094 232.8472 163.10242 239.4728 165.01392 246.0984 166.92542 252.72402 168.83692 259.3496 170.7484 265.97523 172.6599 272.60084 174.5714 279.2264 176.4829 285.85203 178.39438 292.47764 180.30588 299.10325 182.21738 305.72883 184.12888 312.35444 186.04036 318.98005 187.95186 325.60566 189.86336 332.23124 191.77486 338.85685 193.68634 345.48246 195.59784 352.10807 197.50934 358.73365 199.42082 365.35926 201.33232 371.98487 203.24382 378.61048 205.15532 385.23606 207.0668 391.86167 208.9783 398.48728 210.8898"/>
</g>
<g clip-path="url(#clip_26)">
<path transform="matrix(1,0,0,-1,0,345.6)" stroke-width="1.5" stroke-linecap="square" stroke-linejoin="round" fill="none" stroke="#1f77b4" d="M73.832729 129.76238 80.45833 132.41519 87.08393 135.068 93.70953 137.7208 100.33514 140.37361 106.96074 143.02642 113.58634 145.67922 120.211948 148.33203 126.83755 150.98484 133.46315 153.63764 140.08876 156.29044 146.71436 158.94326 153.33997 161.59606 159.96556 164.24886 166.59117 166.90167 173.21677 169.55448 179.84238 172.20728 186.46797 174.86009 193.09358 177.5129 199.71918 180.1657 206.34479 182.8185 212.97039 185.47132 219.596 188.12412 226.2216 190.77692 232.8472 193.42974 239.4728 196.08254 246.0984 198.73534 252.72402 201.38814 259.3496 204.04096 265.97523 206.69376 272.60084 209.34656 279.2264 211.99938 285.85203 214.65218 292.47764 217.30498 299.10325 219.9578 305.72883 222.6106 312.35444 225.2634 318.98005 227.9162 325.60566 230.56902 332.23124 233.22182 338.85685 235.87462 345.48246 238.52744 352.10807 241.18024 358.73365 243.83304 365.35926 246.48586 371.98487 249.13866 378.61048 251.79146 385.23606 254.44426 391.86167 257.09709 398.48728 259.74989"/>
</g>
<g clip-path="url(#clip_27)">
<path transform="matrix(1,0,0,-1,0,345.6)" stroke-width="1.5" stroke-linecap="square" stroke-linejoin="round" fill="none" stroke="#ff7f0e" d="M73.832729 101.66746 80.45833 104.7092 87.08393 107.75094 93.70953 110.79268 100.33514 113.83442 106.96074 116.87616 113.58634 119.91791 120.211948 122.95965 126.83755 126.00139 133.46315 129.04312 140.08876 132.08487 146.71436 135.12662 153.33997 138.16835 159.96556 141.2101 166.59117 144.25183 173.21677 147.29358 179.84238 150.33531 186.46797 153.37706 193.09358 156.4188 199.71918 159.46054 206.34479 162.50229 212.97039 165.54402 219.596 168.58577 226.2216 171.6275 232.8472 174.66925 239.4728 177.71099 246.0984 180.75273 252.72402 183.79448 259.3496 186.83621 265.97523 189.87796 272.60084 192.9197 279.2264 195.96144 285.85203 199.00318 292.47764 202.04492 299.10325 205.08666 305.72883 208.1284 312.35444 211.17015 318.98005 214.21189 325.60566 217.25363 332.23124 220.29537 338.85685 223.33712 345.48246 226.37885 352.10807 229.4206 358.73365 232.46234 365.35926 235.50408 371.98487 238.54582 378.61048 241.58756 385.23606 244.6293 391.86167 247.67104 398.48728 250.71279"/>
</g>
<g clip-path="url(#clip_28)">
<path transform="matrix(1,0,0,-1,0,345.6)" stroke-width="1.5" stroke-linecap="square" stroke-linejoin="round" fill="none" stroke="#2ca02c" d="M73.832729 106.734348 80.45833 109.17235 87.08393 111.61035 93.70953 114.048358 100.33514 116.48636 106.96074 118.92436 113.58634 121.362369 120.211948 123.80037 126.83755 126.23838 133.46315 128.67638 140.08876 131.11438 146.71436 133.55239 153.33997 135.9904 159.96556 138.4284 166.59117 140.86641 173.21677 143.30442 179.84238 145.74242 186.46797 148.18042 193.09358 150.61843 199.71918 153.05643 206.34479 155.49443 212.97039 157.93244 219.596 160.37044 226.2216 162.80844 232.8472 165.24645 239.4728 167.68445 246.0984 170.12245 252.72402 172.56046 259.3496 174.99846 265.97523 177.43647 272.60084 179.87447 279.2264 182.31247 285.85203 184.75048 292.47764 187.18848 299.10325 189.6265 305.72883 192.0645 312.35444 194.5025 318.98005 196.9405 325.60566 199.37851 332.23124 201.81652 338.85685 204.25452 345.48246 206.69252 352.10807 209.13053 358.73365 211.56853 365.35926 214.00653 371.98487 216.44454 378.61048 218.88254 385.23606 221.32054 391.86167 223.75855 398.48728 226.19655"/>
</g>
<g clip-path="url(#clip_29)">
<path transform="matrix(1,0,0,-1,0,345.6)" stroke-width="1.5" stroke-linecap="square" stroke-linejoin="round" fill="none" stroke="#d62728" d="M73.832729 83.55194 80.45833 86.20632 87.08393 88.860698 93.70953 91.515079 100.33514 94.16945 106.96074 96.82383 113.58634 99.4782 120.211948 102.132579 126.83755 104.78696 133.46315 107.44133 140.08876 110.09571 146.71436 112.750087 153.33997 115.404468 159.96556 118.05884 166.59117 120.71322 173.21677 123.36759 179.84238 126.021968 186.46797 128.67635 193.09358 131.33072 199.71918 133.98509 206.34479 136.63948 212.97039 139.29386 219.596 141.94823 226.2216 144.6026 232.8472 147.25699 239.4728 149.91136 246.0984 152.56574 252.72402 155.22011 259.3496 157.87448 265.97523 160.52887 272.60084 163.18325 279.2264 165.83762 285.85203 168.49199 292.47764 171.14638 299.10325 173.80075 305.72883 176.45513 312.35444 179.1095 318.98005 181.76387 325.60566 184.41826 332.23124 187.07263 338.85685 189.727 345.48246 192.38138 352.10807 195.03575 358.73365 197.69014 365.35926 200.34452 371.98487 202.99889 378.61048 205.65326 385.23606 208.30765 391.86167 210.96202 398.48728 213.6164"/>
</g>
<g clip-path="url(#clip_30)">
<path transform="matrix(1,0,0,-1,0,345.6)" stroke-width="1.5" stroke-linecap="square" stroke-linejoin="round" fill="none" stroke="#9467bd" d="M73.832729 100.53708 80.45833 103.877658 87.08393 107.21823 93.70953 110.55881 100.33514 113.89938 106.96074 117.23996 113.58634 120.580539 120.211948 123.92111 126.83755 127.26169 133.46315 130.60227 140.08876 133.94284 146.71436 137.28342 153.33997 140.624 159.96556 143.96457 166.59117 147.30515 173.21677 150.64572 179.84238 153.9863 186.46797 157.32688 193.09358 160.66745 199.71918 164.00803 206.34479 167.3486 212.97039 170.68918 219.596 174.02976 226.2216 177.37033 232.8472 180.7109 239.4728 184.05149 246.0984 187.39206 252.72402 190.73264 259.3496 194.07321 265.97523 197.41379 272.60084 200.75437 279.2264 204.09494 285.85203 207.43552 292.47764 210.7761 299.10325 214.11667 305.72883 217.45725 312.35444 220.79782 318.98005 224.1384 325.60566 227.47898 332.23124 230.81955 338.85685 234.16013 345.48246 237.5007 352.10807 240.84128 358.73365 244.18186 365.35926 247.52243 371.98487 250.863 378.61048 254.20359 385.23606 257.54417 391.86167 260.88475 398.48728 264.2253"/>
</g>
<g clip-path="url(#clip_31)">
<path transform="matrix(1,0,0,-1,0,345.6)" stroke-width="1.5" stroke-linecap="square" stroke-linejoin="round" fill="none" stroke="#8c564b" d="M73.832729 84.45845 80.45833 87.78355 87.08393 91.108638 93.70953 94.43373 100.33514 97.75882 106.96074 101.083919 113.58634 104.409008 120.211948 107.7341 126.83755 111.05919 133.46315 114.384288 140.08876 117.70937 146.71436 121.03447 153.33997 124.35956 159.96556 127.68465 166.59117 131.00974 173.21677 134.33484 179.84238 137.65993 186.46797 140.98502 193.09358 144.3101 199.71918 147.63521 206.34479 150.9603 212.97039 154.28539 219.596 157.61048 226.2216 160.93558 232.8472 164.26067 239.4728 167.58576 246.0984 170.91085 252.72402 174.23595 259.3496 177.56104 265.97523 180.88613 272.60084 184.21121 279.2264 187.53632 285.85203 190.8614 292.47764 194.1865 299.10325 197.51158 305.72883 200.83669 312.35444 204.16178 318.98005 207.48686 325.60566 210.81195 332.23124 214.13706 338.85685 217.46215 345.48246 220.78723 352.10807 224.11232 358.73365 227.43741 365.35926 230.76251 371.98487 234.0876 378.61048 237.41269 385.23606 240.73778 391.86167 244.06288 398.48728 247.38797"/>
</g>
<g clip-path="url(#clip_32)">
<path transform="matrix(1,0,0,-1,0,345.6)" stroke-width="1.5" stroke-linecap="square" stroke-linejoin="round" fill="none" stroke="#e377c2" d="M73.832729 115.55249 80.45833 116.888797 87.08393 118.2251 93.70953 119.5614 100.33514 120.897708 106.96074 122.23401 113.58634 123.57031 120.211948 124.90662 126.83755 126.24292 133.46315 127.57922 140.08876 128.91553 146.71436 130.25183 153.33997 131.58814 159.96556 132.92444 166.59117 134.26074 173.21677 135.59705 179.84238 136.93335 186.46797 138.26966 193.09358 139.60596 199.71918 140.94226 206.34479 142.27857 212.97039 143.61487 219.596 144.95117 226.2216 146.28748 232.8472 147.62378 239.4728 148.96009 246.0984 150.29639 252.72402 151.63269 259.3496 152.969 265.97523 154.3053 272.60084 155.6416 279.2264 156.9779 285.85203 158.31421 292.47764 159.65052 299.10325 160.98682 305.72883 162.32312 312.35444 163.65943 318.98005 164.99573 325.60566 166.33203 332.23124 167.66834 338.85685 169.00464 345.48246 170.34095 352.10807 171.67725 358.73365 173.01355 365.35926 174.34986 371.98487 175.68616 378.61048 177.02246 385.23606 178.35877 391.86167 179.69507 398.48728 181.03137"/>
</g>
<g clip-path="url(#clip_33)">
<path transform="matrix(1,0,0,-1,0,345.6)" stroke-width="1.5" stroke-linecap="square" stroke-linejoin="round" fill="none" stroke="#919191" d="M73.832729 157.6523 80.45833 160.39475 87.08393 163.13719 93.70953 165.87963 100.33514 168.62207 106.96074 171.36452 113.58634 174.10697 120.211948 176.8494 126.83755 179.59185 133.46315 182.33429 140.08876 185.07674 146.71436 187.81917 153.33997 190.56162 159.96556 193.30406 166.59117 196.04651 173.21677 198.78894 179.84238 201.53139 186.46797 204.27384 193.09358 207.01627 199.71918 209.75872 206.34479 212.50116 212.97039 215.2436 219.596 217.98604 226.2216 220.72849 232.8472 223.47093 239.4728 226.21338 246.0984 228.95581 252.72402 231.69826 259.3496 234.4407 265.97523 237.18315 272.60084 239.92559 279.2264 242.66803 285.85203 245.41048 292.47764 248.15291 299.10325 250.89536 305.72883 253.6378 312.35444 256.38026 318.98005 259.12269 325.60566 261.86515 332.23124 264.60758 338.85685 267.35 345.48246 270.09248 352.10807 272.8349 358.73365 275.57734 365.35926 278.3198 371.98487 281.06224 378.61048 283.80467 385.23606 286.54713 391.86167 289.28956 398.48728 292.032"/>
</g>
<g clip-path="url(#clip_34)">
<path transform="matrix(1,0,0,-1,0,345.6)" stroke-width="1.5" stroke-linecap="square" stroke-linejoin="round" fill="none" stroke="#bcbd22" d="M73.832729 208.68463 80.45833 209.49456 87.08393 210.30448 93.70953 211.1144 100.33514 211.92432 106.96074 212.73426 113.58634 213.54418 120.211948 214.3541 126.83755 215.16402 133.46315 215.97396 140.08876 216.78388 146.71436 217.5938 153.33997 218.40372 159.96556 219.21366 166.59117 220.02358 173.21677 220.8335 179.84238 221.64342 186.46797 222.45334 193.09358 223.26328 199.71918 224.0732 206.34479 224.88312 212.97039 225.69304 219.596 226.50298 226.2216 227.3129 232.8472 228.12282 239.4728 228.93274 246.0984 229.74266 252.72402 230.5526 259.3496 231.36252 265.97523 232.17244 272.60084 232.98236 279.2264 233.7923 285.85203 234.60222 292.47764 235.41214 299.10325 236.22206 305.72883 237.03199 312.35444 237.84192 318.98005 238.65184 325.60566 239.46176 332.23124 240.27169 338.85685 241.08162 345.48246 241.89154 352.10807 242.70146 358.73365 243.51139 365.35926 244.32132 371.98487 245.13124 378.61048 245.94116 385.23606 246.75109 391.86167 247.561 398.48728 248.37094"/>
</g>
<g clip-path="url(#clip_35)">
<path transform="matrix(1,0,0,-1,0,345.6)" stroke-width="1.5" stroke-linecap="square" stroke-linejoin="round" fill="none" stroke="#17becf" d="M73.832729 170.65825 80.45833 171.49599 87.08393 172.33373 93.70953 173.17147 100.33514 174.0092 106.96074 174.84694 113.58634 175.68468 120.211948 176.52242 126.83755 177.36016 133.46315 178.19789 140.08876 179.03563 146.71436 179.87337 153.33997 180.7111 159.96556 181.54885 166.59117 182.38658 173.21677 183.22432 179.84238 184.06206 186.46797 184.8998 193.09358 185.73752 199.71918 186.57526 206.34479 187.413 212.97039 188.25074 219.596 189.08847 226.2216 189.92621 232.8472 190.76395 239.4728 191.60169 246.0984 192.43943 252.72402 193.27716 259.3496 194.1149 265.97523 194.95264 272.60084 195.79038 279.2264 196.62812 285.85203 197.46585 292.47764 198.30359 299.10325 199.14133 305.72883 199.97907 312.35444 200.8168 318.98005 201.65454 325.60566 202.49228 332.23124 203.33002 338.85685 204.16776 345.48246 205.0055 352.10807 205.84323 358.73365 206.68097 365.35926 207.5187 371.98487 208.35645 378.61048 209.19419 385.23606 210.03192 391.86167 210.86966 398.48728 211.7074"/>
</g>
<g clip-path="url(#clip_36)">
<path transform="matrix(1,0,0,-1,0,345.6)" stroke-width="1.5" stroke-linecap="square" stroke-linejoin="round" fill="none" stroke="#1f77b4" d="M73.832729 50.112 80.45833 53.716653 87.08393 57.321306 93.70953 60.925958 100.33514 64.53061 106.96074 68.13526 113.58634 71.739917 120.211948 75.34457 126.83755 78.94922 133.46315 82.55387 140.08876 86.15852 146.71436 89.763179 153.33997 93.36783 159.96556 96.97248 166.59117 100.57713 173.21677 104.181789 179.84238 107.78644 186.46797 111.39109 193.09358 114.99574 199.71918 118.600399 206.34479 122.20505 212.97039 125.8097 219.596 129.41436 226.2216 133.019 232.8472 136.62366 239.4728 140.2283 246.0984 143.83296 252.72402 147.4376 259.3496 151.04227 265.97523 154.64691 272.60084 158.25157 279.2264 161.85622 285.85203 165.46088 292.47764 169.06552 299.10325 172.67018 305.72883 176.27483 312.35444 179.87949 318.98005 183.48413 325.60566 187.08879 332.23124 190.69344 338.85685 194.2981 345.48246 197.90274 352.10807 201.5074 358.73365 205.11205 365.35926 208.7167 371.98487 212.32135 378.61048 215.92601 385.23606 219.53066 391.86167 223.13532 398.48728 226.73996"/>
</g>
<g clip-path="url(#clip_37)">
<path transform="matrix(1,0,0,-1,0,345.6)" stroke-width="1.5" stroke-linecap="square" stroke-linejoin="round" fill="none" stroke="#ff7f0e" d="M73.832729 170.18386 80.45833 170.89978 87.08393 171.6157 93.70953 172.33162 100.33514 173.04755 106.96074 173.76348 113.58634 174.4794 120.211948 175.19533 126.83755 175.91126 133.46315 176.62718 140.08876 177.34311 146.71436 178.05904 153.33997 178.77497 159.96556 179.49089 166.59117 180.20682 173.21677 180.92273 179.84238 181.63866 186.46797 182.35459 193.09358 183.07051 199.71918 183.78644 206.34479 184.50237 212.97039 185.21829 219.596 185.93422 226.2216 186.65015 232.8472 187.36608 239.4728 188.082 246.0984 188.79792 252.72402 189.51384 259.3496 190.22977 265.97523 190.9457 272.60084 191.66162 279.2264 192.37755 285.85203 193.09348 292.47764 193.8094 299.10325 194.52533 305.72883 195.24126 312.35444 195.95719 318.98005 196.67311 325.60566 197.38903 332.23124 198.10495 338.85685 198.82088 345.48246 199.5368 352.10807 200.25273 358.73365 200.96866 365.35926 201.68459 371.98487 202.40052 378.61048 203.11644 385.23606 203.83237 391.86167 204.5483 398.48728 205.2642"/>
</g>
<g clip-path="url(#clip_38)">
<path transform="matrix(1,0,0,-1,0,345.6)" stroke-width="1.5" stroke-linecap="square" stroke-linejoin="round" fill="none" stroke="#2ca02c" d="M73.832729 116.06071 80.45833 119.19129 87.08393 122.32188 93.70953 125.45245 100.33514 128.58304 106.96074 131.71363 113.58634 134.84421 120.211948 137.9748 126.83755 141.10538 133.46315 144.23596 140.08876 147.36653 146.71436 150.49712 153.33997 153.6277 159.96556 156.75829 166.59117 159.88887 173.21677 163.01946 179.84238 166.15004 186.46797 169.28063 193.09358 172.41121 199.71918 175.5418 206.34479 178.67237 212.97039 181.80295 219.596 184.93354 226.2216 188.06412 232.8472 191.1947 239.4728 194.32529 246.0984 197.45587 252.72402 200.58646 259.3496 203.71704 265.97523 206.84763 272.60084 209.9782 279.2264 213.10878 285.85203 216.23937 292.47764 219.36995 299.10325 222.50054 305.72883 225.63112 312.35444 228.7617 318.98005 231.89229 325.60566 235.02288 332.23124 238.15346 338.85685 241.28403 345.48246 244.41461 352.10807 247.5452 358.73365 250.67578 365.35926 253.80637 371.98487 256.93696 378.61048 260.06755 385.23606 263.19813 391.86167 266.3287 398.48728 269.4593"/>
</g>
<g clip-path="url(#clip_39)">
<path transform="matrix(1,0,0,-1,0,345.6)" stroke-width="1.5" stroke-linecap="square" stroke-linejoin="round" fill="none" stroke="#d62728" d="M73.832729 165.3812 80.45833 166.20407 87.08393 167.02693 93.70953 167.84981 100.33514 168.67269 106.96074 169.49556 113.58634 170.31844 120.211948 171.14131 126.83755 171.96419 133.46315 172.78707 140.08876 173.60994 146.71436 174.43282 153.33997 175.25569 159.96556 176.07857 166.59117 176.90145 173.21677 177.72432 179.84238 178.5472 186.46797 179.37006 193.09358 180.19293 199.71918 181.01581 206.34479 181.83869 212.97039 182.66156 219.596 183.48444 226.2216 184.30731 232.8472 185.13019 239.4728 185.95307 246.0984 186.77594 252.72402 187.59882 259.3496 188.42169 265.97523 189.24457 272.60084 190.06745 279.2264 190.8903 285.85203 191.71318 292.47764 192.53606 299.10325 193.35894 305.72883 194.18181 312.35444 195.00469 318.98005 195.82756 325.60566 196.65044 332.23124 197.47332 338.85685 198.29619 345.48246 199.11907 352.10807 199.94194 358.73365 200.76482 365.35926 201.58769 371.98487 202.41057 378.61048 203.23345 385.23606 204.0563 391.86167 204.87918 398.48728 205.70206"/>
</g>
<g clip-path="url(#clip_40)">
<path transform="matrix(1,0,0,-1,0,345.6)" stroke-width="1.5" stroke-linecap="square" stroke-linejoin="round" fill="none" stroke="#9467bd" d="M73.832729 88.42571 80.45833 90.41216 87.08393 92.39861 93.70953 94.38506 100.33514 96.37151 106.96074 98.35796 113.58634 100.34442 120.211948 102.33087 126.83755 104.31732 133.46315 106.30377 140.08876 108.29022 146.71436 110.27667 153.33997 112.26312 159.96556 114.24957 166.59117 116.23602 173.21677 118.22248 179.84238 120.20893 186.46797 122.19538 193.09358 124.18183 199.71918 126.16828 206.34479 128.15474 212.97039 130.14119 219.596 132.12764 226.2216 134.11409 232.8472 136.10054 239.4728 138.08699 246.0984 140.07344 252.72402 142.05989 259.3496 144.04634 265.97523 146.03279 272.60084 148.01924 279.2264 150.00569 285.85203 151.99214 292.47764 153.97859 299.10325 155.96504 305.72883 157.95149 312.35444 159.93795 318.98005 161.92441 325.60566 163.91086 332.23124 165.89731 338.85685 167.88376 345.48246 169.87021 352.10807 171.85666 358.73365 173.84311 365.35926 175.82956 371.98487 177.81601 378.61048 179.80246 385.23606 181.78891 391.86167 183.77536 398.48728 185.76181"/>
</g>
<g clip-path="url(#clip_41)">
<path transform="matrix(1,0,0,-1,0,345.6)" stroke-width="1.5" stroke-linecap="square" stroke-linejoin="round" fill="none" stroke="#8c564b" d="M73.832729 177.82172 80.45833 179.80078 87.08393 181.77983 93.70953 183.7589 100.33514 185.73795 106.96074 187.71701 113.58634 189.69606 120.211948 191.67513 126.83755 193.65418 133.46315 195.63323 140.08876 197.61229 146.71436 199.59136 153.33997 201.5704 159.96556 203.54946 166.59117 205.52852 173.21677 207.50757 179.84238 209.48664 186.46797 211.46569 193.09358 213.44475 199.71918 215.4238 206.34479 217.40287 212.97039 219.38191 219.596 221.36098 226.2216 223.34003 232.8472 225.31909 239.4728 227.29814 246.0984 229.2772 252.72402 231.25626 259.3496 233.23532 265.97523 235.21437 272.60084 237.19344 279.2264 239.17249 285.85203 241.15155 292.47764 243.1306 299.10325 245.10967 305.72883 247.08872 312.35444 249.06778 318.98005 251.04683 325.60566 253.0259 332.23124 255.00495 338.85685 256.984 345.48246 258.96305 352.10807 260.9421 358.73365 262.92118 365.35926 264.90025 371.98487 266.87928 378.61048 268.85835 385.23606 270.8374 391.86167 272.81648 398.48728 274.7955"/>
</g>
<g clip-path="url(#clip_42)">
<path transform="matrix(1,0,0,-1,0,345.6)" stroke-width="1.5" stroke-linecap="square" stroke-linejoin="round" fill="none" stroke="#e377c2" d="M73.832729 153.68244 80.45833 155.99477 87.08393 158.30709 93.70953 160.61942 100.33514 162.93175 106.96074 165.24407 113.58634 167.5564 120.211948 169.86873 126.83755 172.18105 133.46315 174.49338 140.08876 176.80571 146.71436 179.11803 153.33997 181.43036 159.96556 183.74269 166.59117 186.05501 173.21677 188.36734 179.84238 190.67967 186.46797 192.99199 193.09358 195.30432 199.71918 197.61666 206.34479 199.92897 212.97039 202.2413 219.596 204.55364 226.2216 206.86595 232.8472 209.17829 239.4728 211.49062 246.0984 213.80294 252.72402 216.11527 259.3496 218.4276 265.97523 220.73993 272.60084 223.05225 279.2264 225.36458 285.85203 227.67691 292.47764 229.98923 299.10325 232.30156 305.72883 234.61389 312.35444 236.92621 318.98005 239.23854 325.60566 241.55088 332.23124 243.86319 338.85685 246.17552 345.48246 248.48786 352.10807 250.80017 358.73365 253.1125 365.35926 255.42484 371.98487 257.73716 378.61048 260.04948 385.23606 262.36183 391.86167 264.67414 398.48728 266.98646"/>
</g>
<g clip-path="url(#clip_43)">
<path transform="matrix(1,0,0,-1,0,345.6)" stroke-width="1.5" stroke-linecap="square" stroke-linejoin="round" fill="none" stroke="#919191" d="M73.832729 133.89353 80.45833 135.80936 87.08393 137.72519 93.70953 139.64102 100.33514 141.55686 106.96074 143.47269 113.58634 145.38852 120.211948 147.30435 126.83755 149.22019 133.46315 151.13602 140.08876 153.05185 146.71436 154.96768 153.33997 156.88352 159.96556 158.79935 166.59117 160.71518 173.21677 162.63101 179.84238 164.54685 186.46797 166.46268 193.09358 168.37851 199.71918 170.29434 206.34479 172.21018 212.97039 174.126 219.596 176.04184 226.2216 177.95767 232.8472 179.8735 239.4728 181.78934 246.0984 183.70517 252.72402 185.621 259.3496 187.53684 265.97523 189.45267 272.60084 191.3685 279.2264 193.28433 285.85203 195.20017 292.47764 197.116 299.10325 199.03183 305.72883 200.94766 312.35444 202.8635 318.98005 204.77933 325.60566 206.69516 332.23124 208.611 338.85685 210.52683 345.48246 212.44266 352.10807 214.35849 358.73365 216.27433 365.35926 218.19016 371.98487 220.10599 378.61048 222.02182 385.23606 223.93766 391.86167 225.85349 398.48728 227.76932"/>
</g>
<g clip-path="url(#clip_44)">
<path transform="matrix(1,0,0,-1,0,345.6)" stroke-width="1.5" stroke-linecap="square" stroke-linejoin="round" fill="none" stroke="#bcbd22" d="M73.832729 129.52556 80.45833 132.62129 87.08393 135.71703 93.70953 138.81278 100.33514 141.90851 106.96074 145.00424 113.58634 148.09999 120.211948 151.19573 126.83755 154.29148 133.46315 157.3872 140.08876 160.48294 146.71436 163.57869 153.33997 166.67443 159.96556 169.77016 166.59117 172.8659 173.21677 175.96164 179.84238 179.05738 186.46797 182.15312 193.09358 185.24886 199.71918 188.3446 206.34479 191.44034 212.97039 194.53607 219.596 197.63182 226.2216 200.72756 232.8472 203.82329 239.4728 206.91904 246.0984 210.01477 252.72402 213.1105 259.3496 216.20626 265.97523 219.30199 272.60084 222.39774 279.2264 225.49347 285.85203 228.5892 292.47764 231.68495 299.10325 234.78069 305.72883 237.87642 312.35444 240.97217 318.98005 244.0679 325.60566 247.16365 332.23124 250.25939 338.85685 253.35512 345.48246 256.45088 352.10807 259.5466 358.73365 262.64234 365.35926 265.73808 371.98487 268.83384 378.61048 271.92958 385.23606 275.0253 391.86167 278.12104 398.48728 281.21678"/>
</g>
<g clip-path="url(#clip_45)">
<path transform="matrix(1,0,0,-1,0,345.6)" stroke-width="1.5" stroke-linecap="square" stroke-linejoin="round" fill="none" stroke="#17becf" d="M73.832729 117.22654 80.45833 119.13804 87.08393 121.04953 93.70953 122.96103 100.33514 124.87252 106.96074 126.78402 113.58634 128.69551 120.211948 130.60701 126.83755 132.51851 133.46315 134.43 140.08876 136.34149 146.71436 138.25299 153.33997 140.16449 159.96556 142.07598 166.59117 143.98748 173.21677 145.89897 179.84238 147.81047 186.46797 149.72196 193.09358 151.63346 199.71918 153.54496 206.34479 155.45644 212.97039 157.36794 219.596 159.27944 226.2216 161.19094 232.8472 163.10242 239.4728 165.01392 246.0984 166.92542 252.72402 168.83692 259.3496 170.7484 265.97523 172.6599 272.60084 174.5714 279.2264 176.4829 285.85203 178.39438 292.47764 180.30588 299.10325 182.21738 305.72883 184.12888 312.35444 186.04036 318.98005 187.95186 325.60566 189.86336 332.23124 191.77486 338.85685 193.68634 345.48246 195.59784 352.10807 197.50934 358.73365 199.42082 365.35926 201.33232 371.98487 203.24382 378.61048 205.15532 385.23606 207.0668 391.86167 208.9783 398.48728 210.8898"/>
</g>
<path transform="matrix(1,0,0,-1,0,345.6)" stroke-width=".8" stroke-linecap="square" stroke-miterlimit="10" stroke-linejoin="miter" fill="none" stroke="#000000" d="M57.6 38.016V304.128"/>
<path transform="matrix(1,0,0,-1,0,345.6)" stroke-width=".8" stroke-linecap="square" stroke-miterlimit="10" stroke-linejoin="miter" fill="none" stroke="#000000" d="M414.72 38.016V304.128"/>
<path transform="matrix(1,0,0,-1,0,345.6)" stroke-width=".8" stroke-linecap="square" stroke-miterlimit="10" stroke-linejoin="miter" fill="none" stroke="#000000" d="M57.6 38.016H414.72"/>
<path transform="matrix(1,0,0,-1,0,345.6)" stroke-width=".8" stroke-linecap="square" stroke-miterlimit="10" stroke-linejoin="miter" fill="none" stroke="#000000" d="M57.6 304.128H414.72"/>
</g>
</svg>
