<svg xmlns="http://www.w3.org/2000/svg" xmlns:xlink="http://www.w3.org/1999/xlink" xmlns:inkscape="http://www.inkscape.org/namespaces/inkscape" version="1.1" width="180" height="130" viewBox="0 0 180 130">
<g>
<path transform="matrix(1,0,0,-1,0,130)" stroke-width="2" stroke-linecap="square" stroke-miterlimit="3.25" stroke-linejoin="miter" fill="none" stroke="#ff0000" d="M.25 14.035H55.766L55.844 14.125 55.922 14.129 56.004 14.133 56.082 14.141 56.238 14.148 56.32 14.156 56.477 14.164 56.559 14.172 56.715 14.18 56.797 14.184 56.875 14.191 57.031 14.199 57.113 14.203 57.27 14.211 57.352 14.215 57.586 14.227 57.668 14.23 57.824 14.238 57.906 14.242 57.984 14.246H58.062L58.145 14.25 58.223 14.254 58.301 14.262 58.379 14.266 58.461 14.27 58.617 14.277 58.699 14.285 58.777 14.289 58.855 14.297 58.938 14.305 59.016 14.312 59.094 14.316 59.172 14.328 59.254 14.336 59.332 14.344 59.41 14.355 59.492 14.363 59.648 14.387 59.73 14.398 59.809 14.414 59.887 14.426 59.965 14.441 60.047 14.453 60.203 14.484 60.285 14.504 60.363 14.52 60.441 14.539 60.523 14.555 60.758 14.613 60.84 14.637 60.918 14.656 60.996 14.68 61.078 14.703 61.156 14.723 61.234 14.746 61.316 14.773 61.473 14.82 61.551 14.848 61.633 14.875 61.711 14.898 61.789 14.926 61.871 14.957 62.027 15.012 62.109 15.043 62.344 15.137 62.426 15.172 62.582 15.242 62.664 15.277 62.742 15.312 62.82 15.352 62.902 15.391 63.059 15.469 63.137 15.512 63.219 15.555 63.375 15.641 63.457 15.684 63.613 15.777 63.695 15.824 63.852 15.918 63.93 15.969 64.012 16.016 64.168 16.117 64.25 16.164 64.328 16.215 64.406 16.262 64.488 16.312 64.566 16.359 64.645 16.41 64.723 16.457 64.805 16.504 64.961 16.598 65.043 16.645 65.121 16.688 65.199 16.734 65.281 16.777 65.516 16.906 65.598 16.949 65.676 16.988 65.754 17.031 65.836 17.07 65.914 17.113 65.992 17.152 66.074 17.195 66.309 17.324 66.391 17.371 66.547 17.465 66.629 17.516 66.707 17.566 66.785 17.621 66.867 17.676 67.102 17.863 67.184 17.934 67.262 18.008 67.34 18.086 67.422 18.164 67.5 18.25 67.578 18.34 67.66 18.434 67.816 18.637 67.895 18.746 67.977 18.859 68.055 18.98 68.133 19.105 68.215 19.234 68.293 19.371 68.371 19.516 68.453 19.66 68.609 19.973 68.688 20.137 68.77 20.309 68.848 20.484 68.926 20.668 69.008 20.855 69.086 21.047 69.164 21.246 69.246 21.453 69.324 21.664 69.402 21.879 69.48 22.098 69.562 22.324 69.641 22.555 69.719 22.789 69.801 23.027 69.957 23.52 70.039 23.77 70.117 24.023 70.273 24.539 70.355 24.801 70.512 25.332 70.594 25.598 70.75 26.129 70.832 26.395 71.066 27.191 71.148 27.453 71.227 27.711 71.305 27.973 71.387 28.227 71.465 28.48 71.543 28.73 71.625 28.98 71.703 29.227 71.781 29.469 71.859 29.707 71.941 29.949 72.098 30.418 72.18 30.652 72.336 31.113 72.418 31.344 72.574 31.805 72.652 32.039 72.734 32.273 72.812 32.508 72.891 32.746 72.973 32.988 73.051 33.23 73.129 33.48 73.211 33.734 73.289 33.992 73.367 34.254 73.445 34.523 73.527 34.797 73.605 35.078 73.684 35.363 73.766 35.652 73.844 35.949 73.922 36.254 74.004 36.562 74.082 36.879 74.238 37.527 74.32 37.859 74.398 38.199 74.477 38.543 74.559 38.891 74.637 39.242 74.715 39.598 74.797 39.957 74.875 40.32 74.953 40.688 75.031 41.059 75.113 41.43 75.191 41.805 75.27 42.184 75.352 42.566 75.43 42.949 75.508 43.336 75.59 43.723 75.668 44.113 75.746 44.508 75.824 44.906 75.906 45.305 75.984 45.707 76.062 46.113 76.145 46.527 76.223 46.941 76.301 47.359 76.383 47.785 76.461 48.215 76.539 48.652 76.617 49.094 76.699 49.543 76.777 50 76.855 50.465 76.938 50.938 77.016 51.418 77.094 51.91 77.172 52.406 77.254 52.914 77.332 53.434 77.41 53.961 77.492 54.5 77.57 55.047 77.648 55.605 77.73 56.172 77.809 56.75 77.887 57.336 77.965 57.934 78.047 58.539 78.125 59.152 78.203 59.777 78.285 60.406 78.363 61.043 78.441 61.688 78.523 62.336 78.602 62.992 78.68 63.652 78.758 64.316 78.84 64.984 78.918 65.652 78.996 66.324 79.078 66.996 79.234 68.34 79.316 69.008 79.395 69.68 79.551 71.008 79.633 71.668 79.789 72.973 79.871 73.621 79.949 74.262 80.027 74.895 80.109 75.527 80.188 76.152 80.266 76.77 80.344 77.383 80.426 77.988 80.504 78.59 80.582 79.188 80.664 79.777 80.82 80.941 80.902 81.516 81.059 82.648 81.137 83.207 81.219 83.762 81.297 84.312 81.375 84.859 81.457 85.402 81.535 85.941 81.613 86.477 81.695 87.008 81.852 88.062 81.93 88.582 82.012 89.102 82.168 90.125 82.25 90.637 82.406 91.645 82.488 92.145 82.645 93.137 82.723 93.625 82.805 94.117 82.883 94.605 82.961 95.09 83.043 95.574 83.199 96.535 83.281 97.016 83.516 98.445 83.598 98.922 83.754 99.875 83.836 100.352 83.992 101.305 84.074 101.781 84.152 102.262 84.23 102.738 84.309 103.219 84.391 103.695 84.469 104.176 84.547 104.652 84.629 105.133 84.707 105.605 84.785 106.082 84.867 106.555 84.945 107.027 85.102 107.957 85.184 108.418 85.262 108.875 85.34 109.324 85.422 109.77 85.5 110.211 85.578 110.645 85.66 111.07 85.738 111.488 85.816 111.898 85.895 112.301 85.977 112.695 86.055 113.078 86.133 113.457 86.215 113.824 86.293 114.18 86.371 114.531 86.453 114.871 86.531 115.203 86.609 115.527 86.688 115.84 86.77 116.145 86.848 116.441 86.926 116.73 87.008 117.012 87.086 117.281 87.164 117.547 87.246 117.805 87.324 118.055 87.402 118.293 87.48 118.527 87.562 118.754 87.641 118.973 87.719 119.184 87.801 119.391 87.879 119.586 87.957 119.773 88.039 119.957 88.117 120.129 88.195 120.293 88.273 120.449 88.355 120.602 88.434 120.742 88.512 120.875 88.594 121 88.672 121.113 88.75 121.223 88.832 121.324 88.91 121.414 88.988 121.5 89.066 121.578 89.148 121.648 89.227 121.711 89.305 121.766 89.387 121.816 89.465 121.859 89.543 121.898 89.625 121.93 89.703 121.957 89.859 121.996 89.941 122.008 90.02 122.02 90.098 122.023 90.18 122.027H90.258L90.336 122.023 90.418 122.02 90.574 122.004 90.652 121.988 90.734 121.977 90.812 121.957 90.891 121.941 90.973 121.918 91.051 121.895 91.129 121.867 91.211 121.84 91.367 121.77 91.445 121.727 91.527 121.68 91.605 121.629 91.684 121.574 91.766 121.512 91.844 121.441 91.922 121.367 92.004 121.281 92.082 121.188 92.16 121.086 92.238 120.973 92.32 120.848 92.398 120.711 92.477 120.566 92.559 120.402 92.637 120.23 92.715 120.043 92.797 119.84 92.875 119.621 92.953 119.387 93.031 119.133 93.113 118.867 93.191 118.586 93.27 118.285 93.352 117.969 93.43 117.633 93.508 117.285 93.59 116.918 93.668 116.535 93.746 116.137 93.824 115.727 93.906 115.301 93.984 114.863 94.062 114.414 94.145 113.949 94.223 113.48 94.301 113 94.383 112.512 94.461 112.02 94.539 111.52 94.617 111.016 94.699 110.512 94.855 109.496 94.938 108.992 95.016 108.488 95.094 107.988 95.176 107.488 95.254 106.996 95.332 106.508 95.41 106.027 95.492 105.555 95.57 105.082 95.648 104.621 95.73 104.164 95.809 103.715 95.887 103.27 95.969 102.832 96.047 102.398 96.125 101.969 96.203 101.543 96.285 101.117 96.441 100.273 96.523 99.852 96.68 99 96.758 98.57 96.84 98.133 96.918 97.691 96.996 97.242 97.078 96.785 97.156 96.316 97.234 95.84 97.316 95.355 97.395 94.855 97.473 94.344 97.551 93.82 97.633 93.281 97.711 92.73 97.789 92.168 97.871 91.59 97.949 90.996 98.027 90.391 98.109 89.773 98.188 89.141 98.266 88.496 98.344 87.836 98.426 87.168 98.504 86.488 98.582 85.797 98.664 85.098 98.742 84.387 98.82 83.672 98.902 82.945 98.98 82.215 99.059 81.48 99.137 80.742 99.219 80 99.375 78.508 99.457 77.766 99.613 76.281 99.695 75.543 99.852 74.082 99.93 73.363 100.012 72.648 100.09 71.945 100.168 71.246 100.25 70.559 100.328 69.883 100.406 69.219 100.488 68.566 100.566 67.926 100.645 67.297 100.723 66.68 100.805 66.078 100.883 65.488 100.961 64.914 101.043 64.352 101.121 63.801 101.199 63.266 101.281 62.746 101.359 62.238 101.438 61.742 101.516 61.258 101.598 60.785 101.676 60.324 101.754 59.875 101.836 59.438 101.914 59.008 101.992 58.586 102.074 58.176 102.152 57.773 102.23 57.375 102.309 56.984 102.391 56.602 102.547 55.844 102.629 55.473 102.785 54.738 102.867 54.375 103.023 53.648 103.102 53.289 103.184 52.926 103.34 52.199 103.422 51.836 103.5 51.469 103.578 51.098 103.66 50.727 103.738 50.355 103.816 49.98 103.895 49.602 103.977 49.223 104.133 48.457 104.215 48.07 104.371 47.289 104.453 46.895 104.609 46.105 104.688 45.707 104.77 45.305 104.848 44.906 104.926 44.504 105.008 44.102 105.086 43.695 105.164 43.293 105.246 42.887 105.324 42.484 105.402 42.078 105.48 41.676 105.562 41.27 105.641 40.867 105.719 40.461 105.801 40.059 105.957 39.254 106.039 38.855 106.117 38.453 106.195 38.055 106.273 37.66 106.355 37.262 106.434 36.867 106.512 36.477 106.594 36.082 106.672 35.691 106.75 35.305 106.832 34.918 106.988 34.152 107.066 33.773 107.148 33.398 107.227 33.023 107.305 32.652 107.387 32.285 107.465 31.922 107.543 31.562 107.625 31.203 107.703 30.852 107.781 30.504 107.859 30.16 107.941 29.82 108.02 29.484 108.098 29.156 108.18 28.832 108.258 28.512 108.336 28.199 108.418 27.895 108.496 27.594 108.574 27.301 108.652 27.012 108.734 26.73 108.812 26.457 108.891 26.191 108.973 25.934 109.051 25.68 109.129 25.434 109.211 25.195 109.289 24.965 109.367 24.742 109.445 24.527 109.527 24.316 109.605 24.113 109.684 23.918 109.766 23.73 109.844 23.551 109.922 23.375 110.004 23.207 110.082 23.043 110.16 22.887 110.238 22.734 110.32 22.59 110.398 22.449 110.477 22.312 110.559 22.18 110.715 21.93 110.797 21.809 110.953 21.574 111.031 21.465 111.113 21.352 111.191 21.242 111.27 21.137 111.352 21.031 111.508 20.82 111.59 20.719 111.746 20.508 111.824 20.406 111.906 20.301 112.062 20.09 112.145 19.984 112.223 19.879 112.301 19.77 112.383 19.66 112.539 19.441 112.617 19.328 112.699 19.215 112.855 18.988 112.938 18.871 113.094 18.637 113.176 18.523 113.254 18.402 113.41 18.168 113.492 18.051 113.648 17.816 113.73 17.703 113.809 17.586 113.887 17.473 113.969 17.359 114.203 17.031 114.285 16.926 114.441 16.723 114.523 16.621 114.68 16.434 114.762 16.344 114.84 16.254 114.918 16.168 114.996 16.086 115.078 16.008 115.156 15.93 115.234 15.859 115.316 15.789 115.395 15.719 115.473 15.656 115.555 15.594 115.711 15.477 115.789 15.422 115.871 15.371 115.949 15.32 116.027 15.273 116.109 15.227 116.266 15.141 116.348 15.102 116.504 15.023 116.582 14.988 116.664 14.953 116.742 14.922 116.82 14.887 116.902 14.855 116.98 14.828 117.059 14.797 117.137 14.77 117.219 14.742 117.297 14.715 117.375 14.691 117.457 14.668 117.613 14.621 117.695 14.602 117.773 14.578 117.852 14.559 117.93 14.543 118.012 14.523 118.168 14.492 118.25 14.48 118.328 14.465 118.406 14.453 118.488 14.441 118.566 14.43 118.723 14.414 118.805 14.406 118.961 14.391 119.043 14.387 119.121 14.383 119.199 14.375 119.281 14.371H119.359L119.516 14.363H119.598L119.676 14.359H119.754L119.836 14.355H119.992L120.074 14.352H120.309L120.391 14.348H120.707L120.785 14.344H121.262L121.34 14.34H122.215L122.293 14.336H122.609L122.688 14.332H122.77L122.848 14.328H122.926L123.008 14.324 123.086 14.32H123.164L123.246 14.316 123.402 14.309 123.48 14.301 123.562 14.297 123.641 14.293 123.719 14.285 123.801 14.281 123.879 14.273 123.957 14.27 124.039 14.262 124.273 14.238 124.355 14.23 124.512 14.215 124.594 14.207 124.75 14.191 124.832 14.184 125.066 14.16 125.148 14.152 125.227 14.145 125.305 14.141 125.387 14.133 125.465 14.125 125.543 14.035H179.75"/>
<path transform="matrix(1,0,0,-1,0,130)" stroke-width=".5" stroke-linecap="butt" stroke-miterlimit="3.25" stroke-linejoin="miter" fill="none" stroke="#000000" d="M.25 14.035V15.312"/>
<path transform="matrix(1,0,0,-1,0,130)" stroke-width=".5" stroke-linecap="butt" stroke-miterlimit="3.25" stroke-linejoin="miter" fill="none" stroke="#000000" d="M9.227 14.035V15.312"/>
<path transform="matrix(1,0,0,-1,0,130)" stroke-width=".5" stroke-linecap="butt" stroke-miterlimit="3.25" stroke-linejoin="miter" fill="none" stroke="#000000" d="M18.199 14.035V16.16"/>
<text xml:space="preserve" transform="matrix(1 0 -0 1 0 130)" font-size="9" font-family="MathematicaSans"><tspan y="-2.888094" x="9.315723">-</tspan></text>
<text xml:space="preserve" transform="matrix(1 0 -0 1 0 130)" font-size="9" font-family="ArialMT"><tspan y="-2.888094" x="14.562723 19.566723 22.059723">0.4</tspan></text>
<path transform="matrix(1,0,0,-1,0,130)" stroke-width=".5" stroke-linecap="butt" stroke-miterlimit="3.25" stroke-linejoin="miter" fill="none" stroke="#000000" d="M27.176 14.035V15.312"/>
<path transform="matrix(1,0,0,-1,0,130)" stroke-width=".5" stroke-linecap="butt" stroke-miterlimit="3.25" stroke-linejoin="miter" fill="none" stroke="#000000" d="M36.148 14.035V15.312"/>
<path transform="matrix(1,0,0,-1,0,130)" stroke-width=".5" stroke-linecap="butt" stroke-miterlimit="3.25" stroke-linejoin="miter" fill="none" stroke="#000000" d="M45.125 14.035V15.312"/>
<path transform="matrix(1,0,0,-1,0,130)" stroke-width=".5" stroke-linecap="butt" stroke-miterlimit="3.25" stroke-linejoin="miter" fill="none" stroke="#000000" d="M54.102 14.035V16.16"/>
<text xml:space="preserve" transform="matrix(1 0 -0 1 0 130)" font-size="9" font-family="MathematicaSans"><tspan y="-2.888094" x="45.21572">-</tspan></text>
<text xml:space="preserve" transform="matrix(1 0 -0 1 0 130)" font-size="9" font-family="ArialMT"><tspan y="-2.888094" x="50.462724 55.466726 57.959726">0.2</tspan></text>
<path transform="matrix(1,0,0,-1,0,130)" stroke-width=".5" stroke-linecap="butt" stroke-miterlimit="3.25" stroke-linejoin="miter" fill="none" stroke="#000000" d="M63.074 14.035V15.312"/>
<path transform="matrix(1,0,0,-1,0,130)" stroke-width=".5" stroke-linecap="butt" stroke-miterlimit="3.25" stroke-linejoin="miter" fill="none" stroke="#000000" d="M72.051 14.035V15.312"/>
<path transform="matrix(1,0,0,-1,0,130)" stroke-width=".5" stroke-linecap="butt" stroke-miterlimit="3.25" stroke-linejoin="miter" fill="none" stroke="#000000" d="M81.023 14.035V15.312"/>
<path transform="matrix(1,0,0,-1,0,130)" stroke-width=".5" stroke-linecap="butt" stroke-miterlimit="3.25" stroke-linejoin="miter" fill="none" stroke="#000000" d="M90 14.035V16.16"/>
<text xml:space="preserve" transform="matrix(1 0 -0 1 0 130)" font-size="9" font-family="ArialMT"><tspan y="-2.888094" x="83.74365 88.74765 91.24065">0.0</tspan></text>
<path transform="matrix(1,0,0,-1,0,130)" stroke-width=".5" stroke-linecap="butt" stroke-miterlimit="3.25" stroke-linejoin="miter" fill="none" stroke="#000000" d="M98.977 14.035V15.312"/>
<path transform="matrix(1,0,0,-1,0,130)" stroke-width=".5" stroke-linecap="butt" stroke-miterlimit="3.25" stroke-linejoin="miter" fill="none" stroke="#000000" d="M107.949 14.035V15.312"/>
<path transform="matrix(1,0,0,-1,0,130)" stroke-width=".5" stroke-linecap="butt" stroke-miterlimit="3.25" stroke-linejoin="miter" fill="none" stroke="#000000" d="M116.926 14.035V15.312"/>
<path transform="matrix(1,0,0,-1,0,130)" stroke-width=".5" stroke-linecap="butt" stroke-miterlimit="3.25" stroke-linejoin="miter" fill="none" stroke="#000000" d="M125.898 14.035V16.16"/>
<text xml:space="preserve" transform="matrix(1 0 -0 1 0 130)" font-size="9" font-family="ArialMT"><tspan y="-2.888094" x="119.643657 124.64765 127.140659">0.2</tspan></text>
<path transform="matrix(1,0,0,-1,0,130)" stroke-width=".5" stroke-linecap="butt" stroke-miterlimit="3.25" stroke-linejoin="miter" fill="none" stroke="#000000" d="M134.875 14.035V15.312"/>
<path transform="matrix(1,0,0,-1,0,130)" stroke-width=".5" stroke-linecap="butt" stroke-miterlimit="3.25" stroke-linejoin="miter" fill="none" stroke="#000000" d="M143.852 14.035V15.312"/>
<path transform="matrix(1,0,0,-1,0,130)" stroke-width=".5" stroke-linecap="butt" stroke-miterlimit="3.25" stroke-linejoin="miter" fill="none" stroke="#000000" d="M152.824 14.035V15.312"/>
<path transform="matrix(1,0,0,-1,0,130)" stroke-width=".5" stroke-linecap="butt" stroke-miterlimit="3.25" stroke-linejoin="miter" fill="none" stroke="#000000" d="M161.801 14.035V16.16"/>
<text xml:space="preserve" transform="matrix(1 0 -0 1 0 130)" font-size="9" font-family="ArialMT"><tspan y="-2.888094" x="155.54366 160.54766 163.04065">0.4</tspan></text>
<path transform="matrix(1,0,0,-1,0,130)" stroke-width=".5" stroke-linecap="butt" stroke-miterlimit="3.25" stroke-linejoin="miter" fill="none" stroke="#000000" d="M170.773 14.035V15.312"/>
<path transform="matrix(1,0,0,-1,0,130)" stroke-width=".5" stroke-linecap="butt" stroke-miterlimit="3.25" stroke-linejoin="miter" fill="none" stroke="#000000" d="M179.75 14.035V15.312"/>
<path transform="matrix(1,0,0,-1,0,130)" stroke-width=".5" stroke-linecap="butt" stroke-miterlimit="3.25" stroke-linejoin="miter" fill="none" stroke="#000000" d="M.25 14.035H179.75"/>
<path transform="matrix(1,0,0,-1,0,130)" stroke-width=".5" stroke-linecap="butt" stroke-miterlimit="3.25" stroke-linejoin="miter" fill="none" stroke="#000000" d="M90 14.035H92.125"/>
<path transform="matrix(1,0,0,-1,0,130)" stroke-width=".5" stroke-linecap="butt" stroke-miterlimit="3.25" stroke-linejoin="miter" fill="none" stroke="#000000" d="M90 20.969H91.277"/>
<path transform="matrix(1,0,0,-1,0,130)" stroke-width=".5" stroke-linecap="butt" stroke-miterlimit="3.25" stroke-linejoin="miter" fill="none" stroke="#000000" d="M90 27.902H91.277"/>
<path transform="matrix(1,0,0,-1,0,130)" stroke-width=".5" stroke-linecap="butt" stroke-miterlimit="3.25" stroke-linejoin="miter" fill="none" stroke="#000000" d="M90 34.836H91.277"/>
<path transform="matrix(1,0,0,-1,0,130)" stroke-width=".5" stroke-linecap="butt" stroke-miterlimit="3.25" stroke-linejoin="miter" fill="none" stroke="#000000" d="M90 41.77H92.125"/>
<text xml:space="preserve" transform="matrix(1 0 -0 1 0 130)" font-size="9" font-family="ArialMT"><tspan y="-38.64971" x="81.99414">2</tspan></text>
<path transform="matrix(1,0,0,-1,0,130)" stroke-width=".5" stroke-linecap="butt" stroke-miterlimit="3.25" stroke-linejoin="miter" fill="none" stroke="#000000" d="M90 48.703H91.277"/>
<path transform="matrix(1,0,0,-1,0,130)" stroke-width=".5" stroke-linecap="butt" stroke-miterlimit="3.25" stroke-linejoin="miter" fill="none" stroke="#000000" d="M90 55.637H91.277"/>
<path transform="matrix(1,0,0,-1,0,130)" stroke-width=".5" stroke-linecap="butt" stroke-miterlimit="3.25" stroke-linejoin="miter" fill="none" stroke="#000000" d="M90 62.57H91.277"/>
<path transform="matrix(1,0,0,-1,0,130)" stroke-width=".5" stroke-linecap="butt" stroke-miterlimit="3.25" stroke-linejoin="miter" fill="none" stroke="#000000" d="M90 69.504H92.125"/>
<text xml:space="preserve" transform="matrix(1 0 -0 1 0 130)" font-size="9" font-family="ArialMT"><tspan y="-66.38399" x="81.99414">4</tspan></text>
<path transform="matrix(1,0,0,-1,0,130)" stroke-width=".5" stroke-linecap="butt" stroke-miterlimit="3.25" stroke-linejoin="miter" fill="none" stroke="#000000" d="M90 76.438H91.277"/>
<path transform="matrix(1,0,0,-1,0,130)" stroke-width=".5" stroke-linecap="butt" stroke-miterlimit="3.25" stroke-linejoin="miter" fill="none" stroke="#000000" d="M90 83.371H91.277"/>
<path transform="matrix(1,0,0,-1,0,130)" stroke-width=".5" stroke-linecap="butt" stroke-miterlimit="3.25" stroke-linejoin="miter" fill="none" stroke="#000000" d="M90 90.305H91.277"/>
<path transform="matrix(1,0,0,-1,0,130)" stroke-width=".5" stroke-linecap="butt" stroke-miterlimit="3.25" stroke-linejoin="miter" fill="none" stroke="#000000" d="M90 97.238H92.125"/>
<text xml:space="preserve" transform="matrix(1 0 -0 1 0 130)" font-size="9" font-family="ArialMT"><tspan y="-94.11826" x="81.99414">6</tspan></text>
<path transform="matrix(1,0,0,-1,0,130)" stroke-width=".5" stroke-linecap="butt" stroke-miterlimit="3.25" stroke-linejoin="miter" fill="none" stroke="#000000" d="M90 104.172H91.277"/>
<path transform="matrix(1,0,0,-1,0,130)" stroke-width=".5" stroke-linecap="butt" stroke-miterlimit="3.25" stroke-linejoin="miter" fill="none" stroke="#000000" d="M90 111.105H91.277"/>
<path transform="matrix(1,0,0,-1,0,130)" stroke-width=".5" stroke-linecap="butt" stroke-miterlimit="3.25" stroke-linejoin="miter" fill="none" stroke="#000000" d="M90 118.039H91.277"/>
<path transform="matrix(1,0,0,-1,0,130)" stroke-width=".5" stroke-linecap="butt" stroke-miterlimit="3.25" stroke-linejoin="miter" fill="none" stroke="#000000" d="M90 124.973H92.125"/>
<text xml:space="preserve" transform="matrix(1 0 -0 1 0 130)" font-size="9" font-family="ArialMT"><tspan y="-121.85254" x="81.99414">8</tspan></text>
<path transform="matrix(1,0,0,-1,0,130)" stroke-width=".5" stroke-linecap="butt" stroke-miterlimit="3.25" stroke-linejoin="miter" fill="none" stroke="#000000" d="M90 14.035V124.973"/>
</g>
</svg>
