<svg xmlns="http://www.w3.org/2000/svg" xmlns:xlink="http://www.w3.org/1999/xlink" xmlns:inkscape="http://www.inkscape.org/namespaces/inkscape" version="1.1" width="180" height="130" viewBox="0 0 180 130">
<g>
<path transform="matrix(1,0,0,-1,0,130)" stroke-width="2" stroke-linecap="square" stroke-miterlimit="3.25" stroke-linejoin="miter" fill="none" stroke="#ff0000" d="M.25 14.035H48.191L48.281 14.133 48.367 14.137 48.637 14.148 48.723 14.156 48.992 14.168 49.078 14.172 49.168 14.18 49.348 14.188 49.434 14.191 49.703 14.203H49.789L50.059 14.215H50.145L50.234 14.219H50.324L50.414 14.223H50.5L50.59 14.227H50.68L50.77 14.23H51.035L51.125 14.234H51.48L51.566 14.238H51.926L52.012 14.242H52.102L52.191 14.246H52.281L52.367 14.25H52.457L52.637 14.258 52.723 14.262 52.992 14.273 53.078 14.281 53.168 14.285 53.348 14.301 53.434 14.309 53.613 14.324 53.703 14.336 53.789 14.344 54.059 14.379 54.145 14.391 54.234 14.406 54.324 14.418 54.414 14.434 54.5 14.445 54.77 14.492 54.855 14.508 55.035 14.539 55.125 14.559 55.211 14.574 55.48 14.621 55.566 14.641 55.836 14.688 55.922 14.703 56.102 14.734 56.191 14.746 56.277 14.762 56.367 14.777 56.547 14.801 56.633 14.816 56.902 14.852 56.988 14.863 57.078 14.875 57.168 14.883 57.258 14.895 57.344 14.906 57.434 14.914 57.523 14.926 57.613 14.934 57.699 14.945 57.789 14.953 57.879 14.965 57.969 14.973 58.059 14.984 58.145 14.992 58.234 15 58.414 15.023 58.5 15.031 58.68 15.055 58.77 15.062 58.855 15.074 59.125 15.109 59.211 15.121 59.391 15.145 59.48 15.16 59.566 15.172 59.656 15.188 59.746 15.199 59.836 15.215 59.922 15.227 60.191 15.273 60.277 15.289 60.547 15.336 60.633 15.352 60.723 15.371 60.812 15.387 60.902 15.406 60.988 15.426 61.258 15.484 61.344 15.504 61.434 15.523 61.613 15.57 61.699 15.594 61.789 15.621 61.879 15.645 61.969 15.672 62.055 15.703 62.324 15.797 62.41 15.832 62.59 15.91 62.68 15.953 62.766 15.996 62.855 16.043 63.035 16.145 63.121 16.199 63.211 16.258 63.391 16.383 63.477 16.449 63.656 16.598 63.746 16.676 63.836 16.758 64.012 16.934 64.102 17.027 64.191 17.125 64.277 17.227 64.367 17.332 64.457 17.441 64.547 17.555 64.633 17.672 64.812 17.914 64.902 18.043 64.988 18.176 65.078 18.309 65.258 18.59 65.344 18.734 65.434 18.883 65.613 19.188 65.699 19.348 65.789 19.504 65.879 19.668 65.969 19.836 66.055 20.004 66.234 20.348 66.324 20.523 66.41 20.703 66.59 21.07 66.68 21.262 66.766 21.453 66.855 21.645 67.035 22.043 67.121 22.25 67.211 22.457 67.301 22.668 67.391 22.883 67.477 23.102 67.566 23.324 67.656 23.551 67.746 23.785 67.832 24.02 68.012 24.504 68.102 24.754 68.188 25.008 68.277 25.266 68.367 25.527 68.457 25.797 68.543 26.066 68.723 26.621 68.812 26.906 68.898 27.195 68.988 27.484 69.078 27.777 69.168 28.074 69.254 28.375 69.344 28.676 69.523 29.285 69.613 29.594 69.699 29.898 69.969 30.824 70.055 31.133 70.145 31.441 70.324 32.051 70.41 32.355 70.5 32.66 70.59 32.961 70.68 33.258 70.766 33.555 70.855 33.852 71.035 34.438 71.121 34.73 71.211 35.02 71.301 35.312 71.391 35.602 71.477 35.895 71.566 36.184 71.746 36.77 71.832 37.066 71.922 37.367 72.102 37.977 72.188 38.289 72.367 38.93 72.457 39.262 72.543 39.598 72.633 39.941 72.723 40.293 72.812 40.656 72.898 41.023 72.988 41.402 73.078 41.793 73.168 42.188 73.254 42.594 73.344 43.012 73.434 43.438 73.523 43.871 73.609 44.316 73.699 44.77 73.789 45.227 73.879 45.695 73.965 46.172 74.055 46.656 74.145 47.145 74.234 47.641 74.32 48.141 74.5 49.148 74.59 49.66 74.676 50.172 74.766 50.684 74.855 51.199 74.945 51.711 75.031 52.223 75.121 52.734 75.301 53.75 75.391 54.25 75.477 54.746 75.566 55.242 75.656 55.73 75.746 56.211 75.832 56.691 75.922 57.164 76.012 57.629 76.102 58.086 76.188 58.543 76.277 58.988 76.367 59.43 76.457 59.867 76.543 60.293 76.633 60.719 76.723 61.137 76.812 61.547 76.898 61.953 76.988 62.355 77.078 62.754 77.168 63.148 77.254 63.535 77.344 63.922 77.434 64.305 77.523 64.684 77.609 65.062 77.699 65.434 77.789 65.809 77.879 66.18 77.965 66.551 78.145 67.285 78.234 67.656 78.32 68.023 78.41 68.391 78.59 69.133 78.676 69.504 78.766 69.875 78.945 70.625 79.031 71.004 79.121 71.387 79.211 71.766 79.301 72.152 79.387 72.539 79.477 72.926 79.566 73.316 79.656 73.711 79.742 74.105 80.012 75.301 80.098 75.703 80.188 76.109 80.277 76.512 80.367 76.918 80.453 77.324 80.543 77.73 80.633 78.141 80.723 78.547 80.809 78.953 80.898 79.359 81.168 80.566 81.254 80.969 81.344 81.363 81.434 81.762 81.523 82.152 81.609 82.543 81.789 83.309 81.879 83.688 81.965 84.066 82.055 84.438 82.145 84.805 82.234 85.168 82.32 85.527 82.5 86.23 82.59 86.578 82.676 86.922 82.855 87.594 82.945 87.926 83.031 88.25 83.121 88.574 83.211 88.895 83.301 89.211 83.387 89.527 83.477 89.84 83.656 90.457 83.742 90.766 83.922 91.375 84.012 91.676 84.098 91.98 84.188 92.285 84.277 92.586 84.367 92.891 84.453 93.191 84.633 93.801 84.723 94.109 84.809 94.414 84.988 95.031 85.078 95.344 85.164 95.656 85.344 96.281 85.434 96.598 85.52 96.91 85.699 97.543 85.789 97.863 85.875 98.18 86.055 98.812 86.145 99.133 86.23 99.449 86.41 100.082 86.5 100.395 86.586 100.711 86.766 101.336 86.855 101.645 86.945 101.957 87.031 102.266 87.301 103.18 87.387 103.484 87.477 103.785 87.656 104.379 87.742 104.676 88.012 105.543 88.098 105.824 88.277 106.379 88.367 106.648 88.453 106.91 88.543 107.168 88.633 107.422 88.723 107.664 88.809 107.898 88.898 108.125 88.988 108.344 89.078 108.551 89.164 108.746 89.254 108.93 89.344 109.098 89.434 109.254 89.52 109.398 89.609 109.523 89.699 109.637 89.789 109.73 89.875 109.809 89.965 109.867 90.055 109.91 90.145 109.934 90.23 109.941 90.32 109.926 90.41 109.891 90.5 109.84 90.586 109.766 90.676 109.676 90.766 109.562 90.855 109.43 90.941 109.281 91.031 109.113 91.121 108.926 91.211 108.723 91.297 108.5 91.387 108.262 91.477 108.004 91.566 107.734 91.652 107.449 91.742 107.148 91.832 106.836 91.922 106.508 92.008 106.172 92.098 105.824 92.188 105.465 92.277 105.102 92.363 104.727 92.453 104.348 92.633 103.574 92.723 103.18 92.809 102.789 93.078 101.605 93.164 101.219 93.254 100.832 93.344 100.453 93.434 100.078 93.52 99.711 93.609 99.355 93.699 99.008 93.789 98.668 93.875 98.34 93.965 98.027 94.055 97.723 94.145 97.434 94.23 97.156 94.32 96.895 94.41 96.645 94.5 96.41 94.586 96.188 94.676 95.98 94.766 95.785 94.855 95.605 94.941 95.438 95.031 95.281 95.121 95.137 95.211 95 95.297 94.871 95.387 94.754 95.477 94.641 95.566 94.535 95.652 94.43 95.922 94.125 96.008 94.02 96.098 93.91 96.188 93.797 96.277 93.676 96.363 93.543 96.453 93.402 96.543 93.246 96.633 93.078 96.719 92.895 96.809 92.695 96.898 92.477 96.988 92.242 97.074 91.988 97.164 91.715 97.254 91.418 97.344 91.102 97.43 90.762 97.52 90.398 97.609 90.016 97.699 89.609 97.785 89.184 97.875 88.734 97.965 88.266 98.055 87.777 98.141 87.266 98.23 86.738 98.32 86.191 98.41 85.625 98.5 85.047 98.586 84.449 98.676 83.84 98.766 83.219 98.855 82.586 98.941 81.941 99.031 81.285 99.121 80.625 99.211 79.957 99.297 79.281 99.387 78.602 99.477 77.918 99.566 77.23 99.652 76.543 99.742 75.852 99.832 75.164 99.922 74.473 100.008 73.785 100.098 73.098 100.277 71.73 100.363 71.051 100.453 70.375 100.543 69.703 100.633 69.035 100.719 68.371 100.809 67.711 100.898 67.055 100.988 66.406 101.074 65.762 101.164 65.121 101.344 63.855 101.43 63.234 101.52 62.617 101.609 62.004 101.699 61.398 101.785 60.801 101.875 60.207 101.965 59.621 102.055 59.043 102.141 58.473 102.23 57.906 102.32 57.352 102.41 56.801 102.496 56.262 102.586 55.73 102.676 55.207 102.766 54.691 102.852 54.184 102.941 53.688 103.031 53.199 103.121 52.723 103.207 52.254 103.297 51.797 103.387 51.348 103.477 50.906 103.562 50.477 103.652 50.059 103.742 49.648 103.832 49.25 103.918 48.859 104.008 48.477 104.098 48.109 104.188 47.746 104.277 47.395 104.363 47.051 104.453 46.715 104.543 46.391 104.633 46.074 104.719 45.766 104.809 45.465 104.898 45.172 104.988 44.883 105.074 44.605 105.164 44.332 105.254 44.066 105.344 43.809 105.43 43.555 105.52 43.305 105.609 43.062 105.699 42.824 105.785 42.59 105.875 42.359 105.965 42.133 106.055 41.91 106.141 41.688 106.23 41.473 106.32 41.254 106.41 41.039 106.496 40.824 106.586 40.613 106.676 40.398 106.766 40.188 106.852 39.973 106.941 39.762 107.031 39.547 107.121 39.328 107.207 39.109 107.297 38.891 107.387 38.668 107.477 38.441 107.562 38.211 107.652 37.98 107.742 37.746 107.832 37.508 107.918 37.27 108.098 36.777 108.188 36.523 108.273 36.27 108.453 35.754 108.543 35.488 108.629 35.223 108.719 34.957 108.809 34.684 108.898 34.414 108.984 34.141 109.074 33.863 109.164 33.59 109.254 33.312 109.34 33.035 109.43 32.758 109.52 32.484 109.609 32.207 109.695 31.934 109.785 31.66 109.965 31.121 110.055 30.855 110.141 30.59 110.23 30.328 110.32 30.07 110.41 29.816 110.496 29.562 110.676 29.07 110.766 28.828 110.852 28.59 110.941 28.355 111.031 28.125 111.121 27.902 111.207 27.68 111.297 27.457 111.387 27.242 111.477 27.031 111.562 26.824 111.652 26.617 111.832 26.219 111.918 26.023 112.098 25.641 112.188 25.457 112.273 25.273 112.363 25.09 112.453 24.91 112.543 24.734 112.629 24.559 112.719 24.387 112.809 24.219 112.898 24.047 112.984 23.879 113.254 23.387 113.34 23.227 113.609 22.746 113.695 22.59 113.875 22.277 113.965 22.125 114.051 21.969 114.23 21.664 114.32 21.516 114.406 21.367 114.586 21.07 114.676 20.926 114.762 20.781 114.852 20.637 115.031 20.355 115.117 20.219 115.207 20.082 115.387 19.816 115.473 19.688 115.652 19.438 115.742 19.316 115.832 19.199 115.918 19.082 116.098 18.863 116.188 18.758 116.273 18.652 116.363 18.555 116.543 18.367 116.629 18.281 116.719 18.195 116.898 18.039 116.984 17.965 117.074 17.895 117.164 17.828 117.254 17.766 117.34 17.703 117.43 17.645 117.52 17.59 117.609 17.539 117.695 17.488 117.785 17.441 117.965 17.355 118.051 17.312 118.32 17.195 118.406 17.16 118.676 17.055 118.762 17.02 119.031 16.914 119.117 16.879 119.207 16.844 119.387 16.766 119.473 16.727 119.562 16.688 119.742 16.602 119.828 16.559 119.918 16.516 120.098 16.422 120.184 16.375 120.273 16.328 120.453 16.227 120.539 16.176 120.809 16.023 120.895 15.969 120.984 15.918 121.074 15.863 121.164 15.812 121.25 15.762 121.34 15.707 121.52 15.605 121.609 15.559 121.695 15.508 121.785 15.457 121.965 15.363 122.051 15.316 122.141 15.273 122.23 15.227 122.32 15.184 122.406 15.145 122.496 15.102 122.676 15.023 122.762 14.984 122.852 14.949 122.941 14.91 123.031 14.875 123.117 14.84 123.297 14.777 123.387 14.742 123.473 14.715 123.652 14.652 123.742 14.625 123.828 14.598 123.918 14.57 124.008 14.547 124.098 14.52 124.184 14.496 124.453 14.426 124.539 14.402 124.809 14.344 124.895 14.324 124.984 14.305 125.074 14.289 125.164 14.27 125.25 14.254 125.43 14.223 125.52 14.211 125.605 14.195 125.875 14.16 125.961 14.152 126.051 14.141 126.141 14.133 126.23 14.035H179.75"/>
<path transform="matrix(1,0,0,-1,0,130)" stroke-width=".5" stroke-linecap="butt" stroke-miterlimit="3.25" stroke-linejoin="miter" fill="none" stroke="#000000" d="M.25 14.035V15.312"/>
<path transform="matrix(1,0,0,-1,0,130)" stroke-width=".5" stroke-linecap="butt" stroke-miterlimit="3.25" stroke-linejoin="miter" fill="none" stroke="#000000" d="M9.227 14.035V15.312"/>
<path transform="matrix(1,0,0,-1,0,130)" stroke-width=".5" stroke-linecap="butt" stroke-miterlimit="3.25" stroke-linejoin="miter" fill="none" stroke="#000000" d="M18.199 14.035V16.16"/>
<text xml:space="preserve" transform="matrix(1 0 -0 1 0 130)" font-size="9" font-family="MathematicaSans"><tspan y="-2.888094" x="9.315723">-</tspan></text>
<text xml:space="preserve" transform="matrix(1 0 -0 1 0 130)" font-size="9" font-family="ArialMT"><tspan y="-2.888094" x="14.562723 19.566723 22.059723">0.4</tspan></text>
<path transform="matrix(1,0,0,-1,0,130)" stroke-width=".5" stroke-linecap="butt" stroke-miterlimit="3.25" stroke-linejoin="miter" fill="none" stroke="#000000" d="M27.176 14.035V15.312"/>
<path transform="matrix(1,0,0,-1,0,130)" stroke-width=".5" stroke-linecap="butt" stroke-miterlimit="3.25" stroke-linejoin="miter" fill="none" stroke="#000000" d="M36.148 14.035V15.312"/>
<path transform="matrix(1,0,0,-1,0,130)" stroke-width=".5" stroke-linecap="butt" stroke-miterlimit="3.25" stroke-linejoin="miter" fill="none" stroke="#000000" d="M45.125 14.035V15.312"/>
<path transform="matrix(1,0,0,-1,0,130)" stroke-width=".5" stroke-linecap="butt" stroke-miterlimit="3.25" stroke-linejoin="miter" fill="none" stroke="#000000" d="M54.102 14.035V16.16"/>
<text xml:space="preserve" transform="matrix(1 0 -0 1 0 130)" font-size="9" font-family="MathematicaSans"><tspan y="-2.888094" x="45.21572">-</tspan></text>
<text xml:space="preserve" transform="matrix(1 0 -0 1 0 130)" font-size="9" font-family="ArialMT"><tspan y="-2.888094" x="50.462724 55.466726 57.959726">0.2</tspan></text>
<path transform="matrix(1,0,0,-1,0,130)" stroke-width=".5" stroke-linecap="butt" stroke-miterlimit="3.25" stroke-linejoin="miter" fill="none" stroke="#000000" d="M63.074 14.035V15.312"/>
<path transform="matrix(1,0,0,-1,0,130)" stroke-width=".5" stroke-linecap="butt" stroke-miterlimit="3.25" stroke-linejoin="miter" fill="none" stroke="#000000" d="M72.051 14.035V15.312"/>
<path transform="matrix(1,0,0,-1,0,130)" stroke-width=".5" stroke-linecap="butt" stroke-miterlimit="3.25" stroke-linejoin="miter" fill="none" stroke="#000000" d="M81.023 14.035V15.312"/>
<path transform="matrix(1,0,0,-1,0,130)" stroke-width=".5" stroke-linecap="butt" stroke-miterlimit="3.25" stroke-linejoin="miter" fill="none" stroke="#000000" d="M90 14.035V16.16"/>
<text xml:space="preserve" transform="matrix(1 0 -0 1 0 130)" font-size="9" font-family="ArialMT"><tspan y="-2.888094" x="83.74365 88.74765 91.24065">0.0</tspan></text>
<path transform="matrix(1,0,0,-1,0,130)" stroke-width=".5" stroke-linecap="butt" stroke-miterlimit="3.25" stroke-linejoin="miter" fill="none" stroke="#000000" d="M98.977 14.035V15.312"/>
<path transform="matrix(1,0,0,-1,0,130)" stroke-width=".5" stroke-linecap="butt" stroke-miterlimit="3.25" stroke-linejoin="miter" fill="none" stroke="#000000" d="M107.949 14.035V15.312"/>
<path transform="matrix(1,0,0,-1,0,130)" stroke-width=".5" stroke-linecap="butt" stroke-miterlimit="3.25" stroke-linejoin="miter" fill="none" stroke="#000000" d="M116.926 14.035V15.312"/>
<path transform="matrix(1,0,0,-1,0,130)" stroke-width=".5" stroke-linecap="butt" stroke-miterlimit="3.25" stroke-linejoin="miter" fill="none" stroke="#000000" d="M125.898 14.035V16.16"/>
<text xml:space="preserve" transform="matrix(1 0 -0 1 0 130)" font-size="9" font-family="ArialMT"><tspan y="-2.888094" x="119.643657 124.64765 127.140659">0.2</tspan></text>
<path transform="matrix(1,0,0,-1,0,130)" stroke-width=".5" stroke-linecap="butt" stroke-miterlimit="3.25" stroke-linejoin="miter" fill="none" stroke="#000000" d="M134.875 14.035V15.312"/>
<path transform="matrix(1,0,0,-1,0,130)" stroke-width=".5" stroke-linecap="butt" stroke-miterlimit="3.25" stroke-linejoin="miter" fill="none" stroke="#000000" d="M143.852 14.035V15.312"/>
<path transform="matrix(1,0,0,-1,0,130)" stroke-width=".5" stroke-linecap="butt" stroke-miterlimit="3.25" stroke-linejoin="miter" fill="none" stroke="#000000" d="M152.824 14.035V15.312"/>
<path transform="matrix(1,0,0,-1,0,130)" stroke-width=".5" stroke-linecap="butt" stroke-miterlimit="3.25" stroke-linejoin="miter" fill="none" stroke="#000000" d="M161.801 14.035V16.16"/>
<text xml:space="preserve" transform="matrix(1 0 -0 1 0 130)" font-size="9" font-family="ArialMT"><tspan y="-2.888094" x="155.54366 160.54766 163.04065">0.4</tspan></text>
<path transform="matrix(1,0,0,-1,0,130)" stroke-width=".5" stroke-linecap="butt" stroke-miterlimit="3.25" stroke-linejoin="miter" fill="none" stroke="#000000" d="M170.773 14.035V15.312"/>
<path transform="matrix(1,0,0,-1,0,130)" stroke-width=".5" stroke-linecap="butt" stroke-miterlimit="3.25" stroke-linejoin="miter" fill="none" stroke="#000000" d="M179.75 14.035V15.312"/>
<path transform="matrix(1,0,0,-1,0,130)" stroke-width=".5" stroke-linecap="butt" stroke-miterlimit="3.25" stroke-linejoin="miter" fill="none" stroke="#000000" d="M.25 14.035H179.75"/>
<path transform="matrix(1,0,0,-1,0,130)" stroke-width=".5" stroke-linecap="butt" stroke-miterlimit="3.25" stroke-linejoin="miter" fill="none" stroke="#000000" d="M90 14.035H92.125"/>
<path transform="matrix(1,0,0,-1,0,130)" stroke-width=".5" stroke-linecap="butt" stroke-miterlimit="3.25" stroke-linejoin="miter" fill="none" stroke="#000000" d="M90 20.969H91.277"/>
<path transform="matrix(1,0,0,-1,0,130)" stroke-width=".5" stroke-linecap="butt" stroke-miterlimit="3.25" stroke-linejoin="miter" fill="none" stroke="#000000" d="M90 27.902H91.277"/>
<path transform="matrix(1,0,0,-1,0,130)" stroke-width=".5" stroke-linecap="butt" stroke-miterlimit="3.25" stroke-linejoin="miter" fill="none" stroke="#000000" d="M90 34.836H91.277"/>
<path transform="matrix(1,0,0,-1,0,130)" stroke-width=".5" stroke-linecap="butt" stroke-miterlimit="3.25" stroke-linejoin="miter" fill="none" stroke="#000000" d="M90 41.77H92.125"/>
<text xml:space="preserve" transform="matrix(1 0 -0 1 0 130)" font-size="9" font-family="ArialMT"><tspan y="-38.64971" x="81.99414">2</tspan></text>
<path transform="matrix(1,0,0,-1,0,130)" stroke-width=".5" stroke-linecap="butt" stroke-miterlimit="3.25" stroke-linejoin="miter" fill="none" stroke="#000000" d="M90 48.703H91.277"/>
<path transform="matrix(1,0,0,-1,0,130)" stroke-width=".5" stroke-linecap="butt" stroke-miterlimit="3.25" stroke-linejoin="miter" fill="none" stroke="#000000" d="M90 55.637H91.277"/>
<path transform="matrix(1,0,0,-1,0,130)" stroke-width=".5" stroke-linecap="butt" stroke-miterlimit="3.25" stroke-linejoin="miter" fill="none" stroke="#000000" d="M90 62.57H91.277"/>
<path transform="matrix(1,0,0,-1,0,130)" stroke-width=".5" stroke-linecap="butt" stroke-miterlimit="3.25" stroke-linejoin="miter" fill="none" stroke="#000000" d="M90 69.504H92.125"/>
<text xml:space="preserve" transform="matrix(1 0 -0 1 0 130)" font-size="9" font-family="ArialMT"><tspan y="-66.38399" x="81.99414">4</tspan></text>
<path transform="matrix(1,0,0,-1,0,130)" stroke-width=".5" stroke-linecap="butt" stroke-miterlimit="3.25" stroke-linejoin="miter" fill="none" stroke="#000000" d="M90 76.438H91.277"/>
<path transform="matrix(1,0,0,-1,0,130)" stroke-width=".5" stroke-linecap="butt" stroke-miterlimit="3.25" stroke-linejoin="miter" fill="none" stroke="#000000" d="M90 83.371H91.277"/>
<path transform="matrix(1,0,0,-1,0,130)" stroke-width=".5" stroke-linecap="butt" stroke-miterlimit="3.25" stroke-linejoin="miter" fill="none" stroke="#000000" d="M90 90.305H91.277"/>
<path transform="matrix(1,0,0,-1,0,130)" stroke-width=".5" stroke-linecap="butt" stroke-miterlimit="3.25" stroke-linejoin="miter" fill="none" stroke="#000000" d="M90 97.238H92.125"/>
<text xml:space="preserve" transform="matrix(1 0 -0 1 0 130)" font-size="9" font-family="ArialMT"><tspan y="-94.11826" x="81.99414">6</tspan></text>
<path transform="matrix(1,0,0,-1,0,130)" stroke-width=".5" stroke-linecap="butt" stroke-miterlimit="3.25" stroke-linejoin="miter" fill="none" stroke="#000000" d="M90 104.172H91.277"/>
<path transform="matrix(1,0,0,-1,0,130)" stroke-width=".5" stroke-linecap="butt" stroke-miterlimit="3.25" stroke-linejoin="miter" fill="none" stroke="#000000" d="M90 111.105H91.277"/>
<path transform="matrix(1,0,0,-1,0,130)" stroke-width=".5" stroke-linecap="butt" stroke-miterlimit="3.25" stroke-linejoin="miter" fill="none" stroke="#000000" d="M90 118.039H91.277"/>
<path transform="matrix(1,0,0,-1,0,130)" stroke-width=".5" stroke-linecap="butt" stroke-miterlimit="3.25" stroke-linejoin="miter" fill="none" stroke="#000000" d="M90 124.973H92.125"/>
<text xml:space="preserve" transform="matrix(1 0 -0 1 0 130)" font-size="9" font-family="ArialMT"><tspan y="-121.85254" x="81.99414">8</tspan></text>
<path transform="matrix(1,0,0,-1,0,130)" stroke-width=".5" stroke-linecap="butt" stroke-miterlimit="3.25" stroke-linejoin="miter" fill="none" stroke="#000000" d="M90 14.035V124.973"/>
</g>
</svg>
