<svg xmlns="http://www.w3.org/2000/svg" xmlns:xlink="http://www.w3.org/1999/xlink" xmlns:inkscape="http://www.inkscape.org/namespaces/inkscape" version="1.1" width="320" height="428" viewBox="0 0 320 428">
<defs>
<clipPath id="clip_0">
<path transform="matrix(1,0,0,-1,0,428)" d="M59.04 73.44H290.01V369.96H59.04Z"/>
</clipPath>
<clipPath id="clip_1">
<path transform="matrix(1,0,0,-1,0,428)" d="M59.04 73.44H290.01V369.96H59.04Z"/>
</clipPath>
</defs>
<path transform="matrix(1,0,0,-1,0,428)" d="M0 0H320.25V429H0Z" fill="#ffffff"/>
<g clip-path="url(#clip_0)">
<path transform="matrix(1,0,0,-1,0,428)" stroke-width=".75" stroke-linecap="round" stroke-linejoin="round" fill="none" stroke="#0000ff" d="M67.59 266.6 74.72 282.44 81.85 297.12 88.98 310.5 96.11 322.46 103.24 332.89 110.37 341.67 117.5 348.74 124.62 354.01 131.75 357.44 138.88 358.98 146.01 358.62 153.14 356.36 160.27 352.22 167.4 346.24 174.53 338.47 181.65 328.98 188.78 317.88 195.91 305.25 203.04 291.21 210.17 275.9 217.3 259.45 224.43 241.99 231.55 223.69 238.68 204.69 245.81 185.15 252.94 165.21 260.07 145.03 267.2 124.75 274.33 104.5 281.46 84.42"/>
</g>
<path transform="matrix(1,0,0,-1,0,428)" stroke-width=".75" stroke-linecap="round" stroke-linejoin="round" fill="none" stroke="#000000" d="M67.59 73.44H281.46"/>
<path transform="matrix(1,0,0,-1,0,428)" stroke-width=".75" stroke-linecap="round" stroke-linejoin="round" fill="none" stroke="#000000" d="M67.59 73.44V66.24"/>
<path transform="matrix(1,0,0,-1,0,428)" stroke-width=".75" stroke-linecap="round" stroke-linejoin="round" fill="none" stroke="#000000" d="M138.88 73.44V66.24"/>
<path transform="matrix(1,0,0,-1,0,428)" stroke-width=".75" stroke-linecap="round" stroke-linejoin="round" fill="none" stroke="#000000" d="M210.17 73.44V66.24"/>
<path transform="matrix(1,0,0,-1,0,428)" stroke-width=".75" stroke-linecap="round" stroke-linejoin="round" fill="none" stroke="#000000" d="M281.46 73.44V66.24"/>
<text xml:space="preserve" transform="matrix(1 0 -0 1 0 428)" font-size="12" font-family="Helvetica"><tspan y="-47.52" x="59.25 65.922 69.257999">0.0</tspan></text>
<text xml:space="preserve" transform="matrix(1 0 -0 1 0 428)" font-size="12" font-family="Helvetica"><tspan y="-47.52" x="130.54 137.21199 140.54799">0.5</tspan></text>
<text xml:space="preserve" transform="matrix(1 0 -0 1 0 428)" font-size="12" font-family="Helvetica"><tspan y="-47.52" x="201.83 208.502 211.838">1.0</tspan></text>
<text xml:space="preserve" transform="matrix(1 0 -0 1 0 428)" font-size="12" font-family="Helvetica"><tspan y="-47.52" x="273.12 279.792 283.128">1.5</tspan></text>
<path transform="matrix(1,0,0,-1,0,428)" stroke-width=".75" stroke-linecap="round" stroke-linejoin="round" fill="none" stroke="#000000" d="M59.04 94.04V359.95"/>
<path transform="matrix(1,0,0,-1,0,428)" stroke-width=".75" stroke-linecap="round" stroke-linejoin="round" fill="none" stroke="#000000" d="M59.04 94.04H51.84"/>
<path transform="matrix(1,0,0,-1,0,428)" stroke-width=".75" stroke-linecap="round" stroke-linejoin="round" fill="none" stroke="#000000" d="M59.04 138.36H51.84"/>
<path transform="matrix(1,0,0,-1,0,428)" stroke-width=".75" stroke-linecap="round" stroke-linejoin="round" fill="none" stroke="#000000" d="M59.04 182.68H51.84"/>
<path transform="matrix(1,0,0,-1,0,428)" stroke-width=".75" stroke-linecap="round" stroke-linejoin="round" fill="none" stroke="#000000" d="M59.04 226.99H51.84"/>
<path transform="matrix(1,0,0,-1,0,428)" stroke-width=".75" stroke-linecap="round" stroke-linejoin="round" fill="none" stroke="#000000" d="M59.04 271.31H51.84"/>
<path transform="matrix(1,0,0,-1,0,428)" stroke-width=".75" stroke-linecap="round" stroke-linejoin="round" fill="none" stroke="#000000" d="M59.04 315.63H51.84"/>
<path transform="matrix(1,0,0,-1,0,428)" stroke-width=".75" stroke-linecap="round" stroke-linejoin="round" fill="none" stroke="#000000" d="M59.04 359.95H51.84"/>
<text xml:space="preserve" transform="matrix(0 -1 1 0 0 428)" font-size="12" font-family="Helvetica"><tspan y="41.76" x="85.7 92.371997 95.70799">1.4</tspan></text>
<text xml:space="preserve" transform="matrix(0 -1 1 0 0 428)" font-size="12" font-family="Helvetica"><tspan y="41.76" x="130.02 136.692 140.028">1.6</tspan></text>
<text xml:space="preserve" transform="matrix(0 -1 1 0 0 428)" font-size="12" font-family="Helvetica"><tspan y="41.76" x="174.34 181.012 184.34799">1.8</tspan></text>
<text xml:space="preserve" transform="matrix(0 -1 1 0 0 428)" font-size="12" font-family="Helvetica"><tspan y="41.76" x="218.65 225.32199 228.65799">2.0</tspan></text>
<text xml:space="preserve" transform="matrix(0 -1 1 0 0 428)" font-size="12" font-family="Helvetica"><tspan y="41.76" x="262.97 269.642 272.978">2.2</tspan></text>
<text xml:space="preserve" transform="matrix(0 -1 1 0 0 428)" font-size="12" font-family="Helvetica"><tspan y="41.76" x="307.29 313.962 317.298">2.4</tspan></text>
<text xml:space="preserve" transform="matrix(0 -1 1 0 0 428)" font-size="12" font-family="Helvetica"><tspan y="41.76" x="351.61 358.28199 361.61799">2.6</tspan></text>
<path transform="matrix(1,0,0,-1,0,428)" stroke-width=".75" stroke-linecap="round" stroke-linejoin="round" fill="none" stroke="#000000" d="M59.04 73.44H290.01V369.96H59.04V73.44"/>
<text xml:space="preserve" transform="matrix(1 0 -0 1 0 428)" font-size="14" font-family="Helvetica" font-weight="bold"><tspan y="-394.45" x="109.81 121.472 125.364 133.148 137.04 145.594 150.256 154.148 163.486 172.82399 182.16199 186.05399 193.83798 202.39199 210.94599 214.83798 223.39199 230.68599">Mix of SPY and TLT</tspan></text>
<text xml:space="preserve" transform="matrix(1 0 -0 1 0 428)" font-size="12" font-family="Helvetica"><tspan y="-18.72" x="102.8 110.132 114.008 120.68001 126.68001 130.016 132.68001 139.352 146.024 149.36 156.032 159.368 162.704 170.708 178.71199 186.71599 190.05199 192.71599 199.38799 202.72399 210.12798 216.79998 221.27597 224.61197 227.58797 234.25997 236.92397 239.58797">Fraction of SPY in Portfolio</tspan></text>
<g clip-path="url(#clip_1)">
<path transform="matrix(1,0,0,-1,0,428)" d="M66.24 266.6C66.24 267.34 66.85 267.95 67.59 267.95 68.34 267.95 68.94 267.34 68.94 266.6 68.94 265.85 68.34 265.25 67.59 265.25 66.85 265.25 66.24 265.85 66.24 266.6" fill="#ff0000"/>
<path transform="matrix(1,0,0,-1,0,428)" stroke-width=".75" stroke-linecap="round" stroke-linejoin="round" fill="none" stroke="#ff0000" d="M66.24 266.6C66.24 267.34 66.85 267.95 67.59 267.95 68.34 267.95 68.94 267.34 68.94 266.6 68.94 265.85 68.34 265.25 67.59 265.25 66.85 265.25 66.24 265.85 66.24 266.6"/>
<path transform="matrix(1,0,0,-1,0,428)" d="M73.37 282.44C73.37 283.18 73.98 283.79 74.72 283.79 75.47 283.79 76.07 283.18 76.07 282.44 76.07 281.7 75.47 281.09 74.72 281.09 73.98 281.09 73.37 281.7 73.37 282.44" fill="#ff0000"/>
<path transform="matrix(1,0,0,-1,0,428)" stroke-width=".75" stroke-linecap="round" stroke-linejoin="round" fill="none" stroke="#ff0000" d="M73.37 282.44C73.37 283.18 73.98 283.79 74.72 283.79 75.47 283.79 76.07 283.18 76.07 282.44 76.07 281.7 75.47 281.09 74.72 281.09 73.98 281.09 73.37 281.7 73.37 282.44"/>
<path transform="matrix(1,0,0,-1,0,428)" d="M80.5 297.12C80.5 297.86 81.11 298.47 81.85 298.47 82.59 298.47 83.2 297.86 83.2 297.12 83.2 296.38 82.59 295.77 81.85 295.77 81.11 295.77 80.5 296.38 80.5 297.12" fill="#ff0000"/>
<path transform="matrix(1,0,0,-1,0,428)" stroke-width=".75" stroke-linecap="round" stroke-linejoin="round" fill="none" stroke="#ff0000" d="M80.5 297.12C80.5 297.86 81.11 298.47 81.85 298.47 82.59 298.47 83.2 297.86 83.2 297.12 83.2 296.38 82.59 295.77 81.85 295.77 81.11 295.77 80.5 296.38 80.5 297.12"/>
<path transform="matrix(1,0,0,-1,0,428)" d="M87.63 310.5C87.63 311.25 88.24 311.85 88.98 311.85 89.72 311.85 90.33 311.25 90.33 310.5 90.33 309.76 89.72 309.15 88.98 309.15 88.24 309.15 87.63 309.76 87.63 310.5" fill="#ff0000"/>
<path transform="matrix(1,0,0,-1,0,428)" stroke-width=".75" stroke-linecap="round" stroke-linejoin="round" fill="none" stroke="#ff0000" d="M87.63 310.5C87.63 311.25 88.24 311.85 88.98 311.85 89.72 311.85 90.33 311.25 90.33 310.5 90.33 309.76 89.72 309.15 88.98 309.15 88.24 309.15 87.63 309.76 87.63 310.5"/>
<path transform="matrix(1,0,0,-1,0,428)" d="M94.76 322.46C94.76 323.2 95.37 323.81 96.11 323.81 96.85 323.81 97.46 323.2 97.46 322.46 97.46 321.72 96.85 321.11 96.11 321.11 95.37 321.11 94.76 321.72 94.76 322.46" fill="#ff0000"/>
<path transform="matrix(1,0,0,-1,0,428)" stroke-width=".75" stroke-linecap="round" stroke-linejoin="round" fill="none" stroke="#ff0000" d="M94.76 322.46C94.76 323.2 95.37 323.81 96.11 323.81 96.85 323.81 97.46 323.2 97.46 322.46 97.46 321.72 96.85 321.11 96.11 321.11 95.37 321.11 94.76 321.72 94.76 322.46"/>
<path transform="matrix(1,0,0,-1,0,428)" d="M101.89 332.89C101.89 333.63 102.5 334.24 103.24 334.24 103.98 334.24 104.59 333.63 104.59 332.89 104.59 332.14 103.98 331.54 103.24 331.54 102.5 331.54 101.89 332.14 101.89 332.89" fill="#ff0000"/>
<path transform="matrix(1,0,0,-1,0,428)" stroke-width=".75" stroke-linecap="round" stroke-linejoin="round" fill="none" stroke="#ff0000" d="M101.89 332.89C101.89 333.63 102.5 334.24 103.24 334.24 103.98 334.24 104.59 333.63 104.59 332.89 104.59 332.14 103.98 331.54 103.24 331.54 102.5 331.54 101.89 332.14 101.89 332.89"/>
<path transform="matrix(1,0,0,-1,0,428)" d="M109.02 341.67C109.02 342.42 109.62 343.02 110.37 343.02 111.11 343.02 111.72 342.42 111.72 341.67 111.72 340.93 111.11 340.32 110.37 340.32 109.62 340.32 109.02 340.93 109.02 341.67" fill="#ff0000"/>
<path transform="matrix(1,0,0,-1,0,428)" stroke-width=".75" stroke-linecap="round" stroke-linejoin="round" fill="none" stroke="#ff0000" d="M109.02 341.67C109.02 342.42 109.62 343.02 110.37 343.02 111.11 343.02 111.72 342.42 111.72 341.67 111.72 340.93 111.11 340.32 110.37 340.32 109.62 340.32 109.02 340.93 109.02 341.67"/>
<path transform="matrix(1,0,0,-1,0,428)" d="M116.15 348.74C116.15 349.48 116.75 350.09 117.5 350.09 118.24 350.09 118.85 349.48 118.85 348.74 118.85 348 118.24 347.39 117.5 347.39 116.75 347.39 116.15 348 116.15 348.74" fill="#ff0000"/>
<path transform="matrix(1,0,0,-1,0,428)" stroke-width=".75" stroke-linecap="round" stroke-linejoin="round" fill="none" stroke="#ff0000" d="M116.15 348.74C116.15 349.48 116.75 350.09 117.5 350.09 118.24 350.09 118.85 349.48 118.85 348.74 118.85 348 118.24 347.39 117.5 347.39 116.75 347.39 116.15 348 116.15 348.74"/>
<path transform="matrix(1,0,0,-1,0,428)" d="M123.27 354.01C123.27 354.75 123.88 355.36 124.62 355.36 125.37 355.36 125.97 354.75 125.97 354.01 125.97 353.27 125.37 352.66 124.62 352.66 123.88 352.66 123.27 353.27 123.27 354.01" fill="#ff0000"/>
<path transform="matrix(1,0,0,-1,0,428)" stroke-width=".75" stroke-linecap="round" stroke-linejoin="round" fill="none" stroke="#ff0000" d="M123.27 354.01C123.27 354.75 123.88 355.36 124.62 355.36 125.37 355.36 125.97 354.75 125.97 354.01 125.97 353.27 125.37 352.66 124.62 352.66 123.88 352.66 123.27 353.27 123.27 354.01"/>
<path transform="matrix(1,0,0,-1,0,428)" d="M130.4 357.44C130.4 358.18 131.01 358.79 131.75 358.79 132.5 358.79 133.1 358.18 133.1 357.44 133.1 356.69 132.5 356.09 131.75 356.09 131.01 356.09 130.4 356.69 130.4 357.44" fill="#ff0000"/>
<path transform="matrix(1,0,0,-1,0,428)" stroke-width=".75" stroke-linecap="round" stroke-linejoin="round" fill="none" stroke="#ff0000" d="M130.4 357.44C130.4 358.18 131.01 358.79 131.75 358.79 132.5 358.79 133.1 358.18 133.1 357.44 133.1 356.69 132.5 356.09 131.75 356.09 131.01 356.09 130.4 356.69 130.4 357.44"/>
<path transform="matrix(1,0,0,-1,0,428)" d="M137.53 358.98C137.53 359.72 138.14 360.33 138.88 360.33 139.62 360.33 140.23 359.72 140.23 358.98 140.23 358.24 139.62 357.63 138.88 357.63 138.14 357.63 137.53 358.24 137.53 358.98" fill="#ff0000"/>
<path transform="matrix(1,0,0,-1,0,428)" stroke-width=".75" stroke-linecap="round" stroke-linejoin="round" fill="none" stroke="#ff0000" d="M137.53 358.98C137.53 359.72 138.14 360.33 138.88 360.33 139.62 360.33 140.23 359.72 140.23 358.98 140.23 358.24 139.62 357.63 138.88 357.63 138.14 357.63 137.53 358.24 137.53 358.98"/>
<path transform="matrix(1,0,0,-1,0,428)" d="M144.66 358.62C144.66 359.36 145.27 359.97 146.01 359.97 146.75 359.97 147.36 359.36 147.36 358.62 147.36 357.88 146.75 357.27 146.01 357.27 145.27 357.27 144.66 357.88 144.66 358.62" fill="#ff0000"/>
<path transform="matrix(1,0,0,-1,0,428)" stroke-width=".75" stroke-linecap="round" stroke-linejoin="round" fill="none" stroke="#ff0000" d="M144.66 358.62C144.66 359.36 145.27 359.97 146.01 359.97 146.75 359.97 147.36 359.36 147.36 358.62 147.36 357.88 146.75 357.27 146.01 357.27 145.27 357.27 144.66 357.88 144.66 358.62"/>
<path transform="matrix(1,0,0,-1,0,428)" d="M151.79 356.36C151.79 357.1 152.4 357.71 153.14 357.71 153.88 357.71 154.49 357.1 154.49 356.36 154.49 355.62 153.88 355.01 153.14 355.01 152.4 355.01 151.79 355.62 151.79 356.36" fill="#ff0000"/>
<path transform="matrix(1,0,0,-1,0,428)" stroke-width=".75" stroke-linecap="round" stroke-linejoin="round" fill="none" stroke="#ff0000" d="M151.79 356.36C151.79 357.1 152.4 357.71 153.14 357.71 153.88 357.71 154.49 357.1 154.49 356.36 154.49 355.62 153.88 355.01 153.14 355.01 152.4 355.01 151.79 355.62 151.79 356.36"/>
<path transform="matrix(1,0,0,-1,0,428)" d="M158.92 352.22C158.92 352.96 159.53 353.57 160.27 353.57 161.01 353.57 161.62 352.96 161.62 352.22 161.62 351.48 161.01 350.87 160.27 350.87 159.53 350.87 158.92 351.48 158.92 352.22" fill="#ff0000"/>
<path transform="matrix(1,0,0,-1,0,428)" stroke-width=".75" stroke-linecap="round" stroke-linejoin="round" fill="none" stroke="#ff0000" d="M158.92 352.22C158.92 352.96 159.53 353.57 160.27 353.57 161.01 353.57 161.62 352.96 161.62 352.22 161.62 351.48 161.01 350.87 160.27 350.87 159.53 350.87 158.92 351.48 158.92 352.22"/>
<path transform="matrix(1,0,0,-1,0,428)" d="M166.05 346.24C166.05 346.98 166.65 347.59 167.4 347.59 168.14 347.59 168.75 346.98 168.75 346.24 168.75 345.49 168.14 344.89 167.4 344.89 166.65 344.89 166.05 345.49 166.05 346.24" fill="#ff0000"/>
<path transform="matrix(1,0,0,-1,0,428)" stroke-width=".75" stroke-linecap="round" stroke-linejoin="round" fill="none" stroke="#ff0000" d="M166.05 346.24C166.05 346.98 166.65 347.59 167.4 347.59 168.14 347.59 168.75 346.98 168.75 346.24 168.75 345.49 168.14 344.89 167.4 344.89 166.65 344.89 166.05 345.49 166.05 346.24"/>
<path transform="matrix(1,0,0,-1,0,428)" d="M173.18 338.47C173.18 339.21 173.78 339.82 174.53 339.82 175.27 339.82 175.88 339.21 175.88 338.47 175.88 337.72 175.27 337.12 174.53 337.12 173.78 337.12 173.18 337.72 173.18 338.47" fill="#ff0000"/>
<path transform="matrix(1,0,0,-1,0,428)" stroke-width=".75" stroke-linecap="round" stroke-linejoin="round" fill="none" stroke="#ff0000" d="M173.18 338.47C173.18 339.21 173.78 339.82 174.53 339.82 175.27 339.82 175.88 339.21 175.88 338.47 175.88 337.72 175.27 337.12 174.53 337.12 173.78 337.12 173.18 337.72 173.18 338.47"/>
<path transform="matrix(1,0,0,-1,0,428)" d="M180.3 328.98C180.3 329.73 180.91 330.33 181.65 330.33 182.4 330.33 183 329.73 183 328.98 183 328.24 182.4 327.63 181.65 327.63 180.91 327.63 180.3 328.24 180.3 328.98" fill="#ff0000"/>
<path transform="matrix(1,0,0,-1,0,428)" stroke-width=".75" stroke-linecap="round" stroke-linejoin="round" fill="none" stroke="#ff0000" d="M180.3 328.98C180.3 329.73 180.91 330.33 181.65 330.33 182.4 330.33 183 329.73 183 328.98 183 328.24 182.4 327.63 181.65 327.63 180.91 327.63 180.3 328.24 180.3 328.98"/>
<path transform="matrix(1,0,0,-1,0,428)" d="M187.43 317.88C187.43 318.62 188.04 319.23 188.78 319.23 189.53 319.23 190.13 318.62 190.13 317.88 190.13 317.13 189.53 316.53 188.78 316.53 188.04 316.53 187.43 317.13 187.43 317.88" fill="#ff0000"/>
<path transform="matrix(1,0,0,-1,0,428)" stroke-width=".75" stroke-linecap="round" stroke-linejoin="round" fill="none" stroke="#ff0000" d="M187.43 317.88C187.43 318.62 188.04 319.23 188.78 319.23 189.53 319.23 190.13 318.62 190.13 317.88 190.13 317.13 189.53 316.53 188.78 316.53 188.04 316.53 187.43 317.13 187.43 317.88"/>
<path transform="matrix(1,0,0,-1,0,428)" d="M194.56 305.25C194.56 305.99 195.17 306.6 195.91 306.6 196.65 306.6 197.26 305.99 197.26 305.25 197.26 304.51 196.65 303.9 195.91 303.9 195.17 303.9 194.56 304.51 194.56 305.25" fill="#ff0000"/>
<path transform="matrix(1,0,0,-1,0,428)" stroke-width=".75" stroke-linecap="round" stroke-linejoin="round" fill="none" stroke="#ff0000" d="M194.56 305.25C194.56 305.99 195.17 306.6 195.91 306.6 196.65 306.6 197.26 305.99 197.26 305.25 197.26 304.51 196.65 303.9 195.91 303.9 195.17 303.9 194.56 304.51 194.56 305.25"/>
<path transform="matrix(1,0,0,-1,0,428)" d="M201.69 291.21C201.69 291.96 202.3 292.56 203.04 292.56 203.78 292.56 204.39 291.96 204.39 291.21 204.39 290.47 203.78 289.86 203.04 289.86 202.3 289.86 201.69 290.47 201.69 291.21" fill="#ff0000"/>
<path transform="matrix(1,0,0,-1,0,428)" stroke-width=".75" stroke-linecap="round" stroke-linejoin="round" fill="none" stroke="#ff0000" d="M201.69 291.21C201.69 291.96 202.3 292.56 203.04 292.56 203.78 292.56 204.39 291.96 204.39 291.21 204.39 290.47 203.78 289.86 203.04 289.86 202.3 289.86 201.69 290.47 201.69 291.21"/>
<path transform="matrix(1,0,0,-1,0,428)" d="M208.82 275.9C208.82 276.64 209.43 277.25 210.17 277.25 210.91 277.25 211.52 276.64 211.52 275.9 211.52 275.16 210.91 274.55 210.17 274.55 209.43 274.55 208.82 275.16 208.82 275.9" fill="#ff0000"/>
<path transform="matrix(1,0,0,-1,0,428)" stroke-width=".75" stroke-linecap="round" stroke-linejoin="round" fill="none" stroke="#ff0000" d="M208.82 275.9C208.82 276.64 209.43 277.25 210.17 277.25 210.91 277.25 211.52 276.64 211.52 275.9 211.52 275.16 210.91 274.55 210.17 274.55 209.43 274.55 208.82 275.16 208.82 275.9"/>
<path transform="matrix(1,0,0,-1,0,428)" d="M215.95 259.45C215.95 260.19 216.55 260.8 217.3 260.8 218.04 260.8 218.65 260.19 218.65 259.45 218.65 258.7 218.04 258.1 217.3 258.1 216.55 258.1 215.95 258.7 215.95 259.45" fill="#ff0000"/>
<path transform="matrix(1,0,0,-1,0,428)" stroke-width=".75" stroke-linecap="round" stroke-linejoin="round" fill="none" stroke="#ff0000" d="M215.95 259.45C215.95 260.19 216.55 260.8 217.3 260.8 218.04 260.8 218.65 260.19 218.65 259.45 218.65 258.7 218.04 258.1 217.3 258.1 216.55 258.1 215.95 258.7 215.95 259.45"/>
<path transform="matrix(1,0,0,-1,0,428)" d="M223.08 241.99C223.08 242.74 223.68 243.34 224.43 243.34 225.17 243.34 225.78 242.74 225.78 241.99 225.78 241.25 225.17 240.64 224.43 240.64 223.68 240.64 223.08 241.25 223.08 241.99" fill="#ff0000"/>
<path transform="matrix(1,0,0,-1,0,428)" stroke-width=".75" stroke-linecap="round" stroke-linejoin="round" fill="none" stroke="#ff0000" d="M223.08 241.99C223.08 242.74 223.68 243.34 224.43 243.34 225.17 243.34 225.78 242.74 225.78 241.99 225.78 241.25 225.17 240.64 224.43 240.64 223.68 240.64 223.08 241.25 223.08 241.99"/>
<path transform="matrix(1,0,0,-1,0,428)" d="M230.2 223.69C230.2 224.44 230.81 225.04 231.55 225.04 232.3 225.04 232.9 224.44 232.9 223.69 232.9 222.95 232.3 222.34 231.55 222.34 230.81 222.34 230.2 222.95 230.2 223.69" fill="#ff0000"/>
<path transform="matrix(1,0,0,-1,0,428)" stroke-width=".75" stroke-linecap="round" stroke-linejoin="round" fill="none" stroke="#ff0000" d="M230.2 223.69C230.2 224.44 230.81 225.04 231.55 225.04 232.3 225.04 232.9 224.44 232.9 223.69 232.9 222.95 232.3 222.34 231.55 222.34 230.81 222.34 230.2 222.95 230.2 223.69"/>
<path transform="matrix(1,0,0,-1,0,428)" d="M237.33 204.69C237.33 205.44 237.94 206.04 238.68 206.04 239.43 206.04 240.03 205.44 240.03 204.69 240.03 203.95 239.43 203.34 238.68 203.34 237.94 203.34 237.33 203.95 237.33 204.69" fill="#ff0000"/>
<path transform="matrix(1,0,0,-1,0,428)" stroke-width=".75" stroke-linecap="round" stroke-linejoin="round" fill="none" stroke="#ff0000" d="M237.33 204.69C237.33 205.44 237.94 206.04 238.68 206.04 239.43 206.04 240.03 205.44 240.03 204.69 240.03 203.95 239.43 203.34 238.68 203.34 237.94 203.34 237.33 203.95 237.33 204.69"/>
<path transform="matrix(1,0,0,-1,0,428)" d="M244.46 185.15C244.46 185.89 245.07 186.5 245.81 186.5 246.55 186.5 247.16 185.89 247.16 185.15 247.16 184.41 246.55 183.8 245.81 183.8 245.07 183.8 244.46 184.41 244.46 185.15" fill="#ff0000"/>
<path transform="matrix(1,0,0,-1,0,428)" stroke-width=".75" stroke-linecap="round" stroke-linejoin="round" fill="none" stroke="#ff0000" d="M244.46 185.15C244.46 185.89 245.07 186.5 245.81 186.5 246.55 186.5 247.16 185.89 247.16 185.15 247.16 184.41 246.55 183.8 245.81 183.8 245.07 183.8 244.46 184.41 244.46 185.15"/>
<path transform="matrix(1,0,0,-1,0,428)" d="M251.59 165.21C251.59 165.95 252.2 166.56 252.94 166.56 253.68 166.56 254.29 165.95 254.29 165.21 254.29 164.47 253.68 163.86 252.94 163.86 252.2 163.86 251.59 164.47 251.59 165.21" fill="#ff0000"/>
<path transform="matrix(1,0,0,-1,0,428)" stroke-width=".75" stroke-linecap="round" stroke-linejoin="round" fill="none" stroke="#ff0000" d="M251.59 165.21C251.59 165.95 252.2 166.56 252.94 166.56 253.68 166.56 254.29 165.95 254.29 165.21 254.29 164.47 253.68 163.86 252.94 163.86 252.2 163.86 251.59 164.47 251.59 165.21"/>
<path transform="matrix(1,0,0,-1,0,428)" d="M258.72 145.03C258.72 145.77 259.33 146.38 260.07 146.38 260.81 146.38 261.42 145.77 261.42 145.03 261.42 144.29 260.81 143.68 260.07 143.68 259.33 143.68 258.72 144.29 258.72 145.03" fill="#ff0000"/>
<path transform="matrix(1,0,0,-1,0,428)" stroke-width=".75" stroke-linecap="round" stroke-linejoin="round" fill="none" stroke="#ff0000" d="M258.72 145.03C258.72 145.77 259.33 146.38 260.07 146.38 260.81 146.38 261.42 145.77 261.42 145.03 261.42 144.29 260.81 143.68 260.07 143.68 259.33 143.68 258.72 144.29 258.72 145.03"/>
<path transform="matrix(1,0,0,-1,0,428)" d="M265.85 124.75C265.85 125.49 266.46 126.1 267.2 126.1 267.94 126.1 268.55 125.49 268.55 124.75 268.55 124.01 267.94 123.4 267.2 123.4 266.46 123.4 265.85 124.01 265.85 124.75" fill="#ff0000"/>
<path transform="matrix(1,0,0,-1,0,428)" stroke-width=".75" stroke-linecap="round" stroke-linejoin="round" fill="none" stroke="#ff0000" d="M265.85 124.75C265.85 125.49 266.46 126.1 267.2 126.1 267.94 126.1 268.55 125.49 268.55 124.75 268.55 124.01 267.94 123.4 267.2 123.4 266.46 123.4 265.85 124.01 265.85 124.75"/>
<path transform="matrix(1,0,0,-1,0,428)" d="M272.98 104.5C272.98 105.24 273.58 105.85 274.33 105.85 275.07 105.85 275.68 105.24 275.68 104.5 275.68 103.76 275.07 103.15 274.33 103.15 273.58 103.15 272.98 103.76 272.98 104.5" fill="#ff0000"/>
<path transform="matrix(1,0,0,-1,0,428)" stroke-width=".75" stroke-linecap="round" stroke-linejoin="round" fill="none" stroke="#ff0000" d="M272.98 104.5C272.98 105.24 273.58 105.85 274.33 105.85 275.07 105.85 275.68 105.24 275.68 104.5 275.68 103.76 275.07 103.15 274.33 103.15 273.58 103.15 272.98 103.76 272.98 104.5"/>
<path transform="matrix(1,0,0,-1,0,428)" d="M280.11 84.42C280.11 85.16 280.71 85.77 281.46 85.77 282.2 85.77 282.81 85.16 282.81 84.42 282.81 83.68 282.2 83.07 281.46 83.07 280.71 83.07 280.11 83.68 280.11 84.42" fill="#ff0000"/>
<path transform="matrix(1,0,0,-1,0,428)" stroke-width=".75" stroke-linecap="round" stroke-linejoin="round" fill="none" stroke="#ff0000" d="M280.11 84.42C280.11 85.16 280.71 85.77 281.46 85.77 282.2 85.77 282.81 85.16 282.81 84.42 282.81 83.68 282.2 83.07 281.46 83.07 280.71 83.07 280.11 83.68 280.11 84.42"/>
<path transform="matrix(1,0,0,-1,0,428)" stroke-width=".75" stroke-linecap="round" stroke-linejoin="round" fill="none" stroke="#00ff00" d="M59.04 276.87H290.01"/>
<text xml:space="preserve" transform="matrix(1 0 -0 1 0 428)" font-size="12" font-family="Helvetica"><tspan y="-298.44" x="65.58 74.244 80.916 84.252 90.923999 95.22 101.892 105.228 108.563999 112.56 119.231998 129.228 132.564 140.568 146.87999 152.63999 159.31198 165.31198 168.64798 176.05197 182.72397 187.19997 190.53597 193.51197 200.18396 202.84796 205.51197">Return from Bayes Portfolio</tspan></text>
<path transform="matrix(1,0,0,-1,0,428)" stroke-width=".75" stroke-linecap="round" stroke-dasharray="0,3" stroke-linejoin="round" fill="none" stroke="#d3d3d3" d="M67.59 73.44V369.96"/>
<path transform="matrix(1,0,0,-1,0,428)" stroke-width=".75" stroke-linecap="round" stroke-dasharray="0,3" stroke-linejoin="round" fill="none" stroke="#d3d3d3" d="M138.88 73.44V369.96"/>
<path transform="matrix(1,0,0,-1,0,428)" stroke-width=".75" stroke-linecap="round" stroke-dasharray="0,3" stroke-linejoin="round" fill="none" stroke="#d3d3d3" d="M210.17 73.44V369.96"/>
<path transform="matrix(1,0,0,-1,0,428)" stroke-width=".75" stroke-linecap="round" stroke-dasharray="0,3" stroke-linejoin="round" fill="none" stroke="#d3d3d3" d="M281.46 73.44V369.96"/>
<path transform="matrix(1,0,0,-1,0,428)" stroke-width=".75" stroke-linecap="round" stroke-dasharray="0,3" stroke-linejoin="round" fill="none" stroke="#d3d3d3" d="M59.04 94.04H290.01"/>
<path transform="matrix(1,0,0,-1,0,428)" stroke-width=".75" stroke-linecap="round" stroke-dasharray="0,3" stroke-linejoin="round" fill="none" stroke="#d3d3d3" d="M59.04 138.36H290.01"/>
<path transform="matrix(1,0,0,-1,0,428)" stroke-width=".75" stroke-linecap="round" stroke-dasharray="0,3" stroke-linejoin="round" fill="none" stroke="#d3d3d3" d="M59.04 182.68H290.01"/>
<path transform="matrix(1,0,0,-1,0,428)" stroke-width=".75" stroke-linecap="round" stroke-dasharray="0,3" stroke-linejoin="round" fill="none" stroke="#d3d3d3" d="M59.04 226.99H290.01"/>
<path transform="matrix(1,0,0,-1,0,428)" stroke-width=".75" stroke-linecap="round" stroke-dasharray="0,3" stroke-linejoin="round" fill="none" stroke="#d3d3d3" d="M59.04 271.31H290.01"/>
<path transform="matrix(1,0,0,-1,0,428)" stroke-width=".75" stroke-linecap="round" stroke-dasharray="0,3" stroke-linejoin="round" fill="none" stroke="#d3d3d3" d="M59.04 315.63H290.01"/>
<path transform="matrix(1,0,0,-1,0,428)" stroke-width=".75" stroke-linecap="round" stroke-dasharray="0,3" stroke-linejoin="round" fill="none" stroke="#d3d3d3" d="M59.04 359.95H290.01"/>
</g>
</svg>
