<svg xmlns="http://www.w3.org/2000/svg" xmlns:xlink="http://www.w3.org/1999/xlink" xmlns:inkscape="http://www.inkscape.org/namespaces/inkscape" version="1.1" width="504" height="504" viewBox="0 0 504 504">
<defs>
<clipPath id="clip_0">
<path transform="matrix(1,0,0,-1,0,504)" d="M59.04 73.44H473.76V444.96H59.04Z"/>
</clipPath>
</defs>
<text xml:space="preserve" transform="matrix(1 0 -0 1 0 504)" font-size="14" font-family="Helvetica" font-weight="bold"><tspan y="-469.45" x="197.94 208.048 211.94 219.724 224.386 232.94 241.494 246.94 254.724 267.17 271.062 279.616 284.27799 288.16999 295.95399 299.84599 312.292 316.184 325.522">Histogram of sim.EV</tspan></text>
<text xml:space="preserve" transform="matrix(1 0 -0 1 0 504)" font-size="12" font-family="Helvetica"><tspan y="-18.72" x="247.4 253.4 256.064 266.06 269.396 277.4">sim.EV</tspan></text>
<text xml:space="preserve" transform="matrix(0 -1 1 0 0 504)" font-size="12" font-family="Helvetica"><tspan y="12.96" x="239.2 247.864 254.536 261.208 267.208 269.872 273.208">Density</tspan></text>
<path transform="matrix(1,0,0,-1,0,504)" stroke-width=".75" stroke-linecap="round" stroke-linejoin="round" fill="none" stroke="#000000" d="M74.4 73.44H418.28"/>
<path transform="matrix(1,0,0,-1,0,504)" stroke-width=".75" stroke-linecap="round" stroke-linejoin="round" fill="none" stroke="#000000" d="M74.4 73.44V66.24"/>
<path transform="matrix(1,0,0,-1,0,504)" stroke-width=".75" stroke-linecap="round" stroke-linejoin="round" fill="none" stroke="#000000" d="M131.71 73.44V66.24"/>
<path transform="matrix(1,0,0,-1,0,504)" stroke-width=".75" stroke-linecap="round" stroke-linejoin="round" fill="none" stroke="#000000" d="M189.03 73.44V66.24"/>
<path transform="matrix(1,0,0,-1,0,504)" stroke-width=".75" stroke-linecap="round" stroke-linejoin="round" fill="none" stroke="#000000" d="M246.34 73.44V66.24"/>
<path transform="matrix(1,0,0,-1,0,504)" stroke-width=".75" stroke-linecap="round" stroke-linejoin="round" fill="none" stroke="#000000" d="M303.65 73.44V66.24"/>
<path transform="matrix(1,0,0,-1,0,504)" stroke-width=".75" stroke-linecap="round" stroke-linejoin="round" fill="none" stroke="#000000" d="M360.97 73.44V66.24"/>
<path transform="matrix(1,0,0,-1,0,504)" stroke-width=".75" stroke-linecap="round" stroke-linejoin="round" fill="none" stroke="#000000" d="M418.28 73.44V66.24"/>
<text xml:space="preserve" transform="matrix(1 0 -0 1 0 504)" font-size="12" font-family="Helvetica"><tspan y="-47.52" x="64.39 71.062 77.73399">260</tspan></text>
<text xml:space="preserve" transform="matrix(1 0 -0 1 0 504)" font-size="12" font-family="Helvetica"><tspan y="-47.52" x="121.71 128.382 135.054">280</tspan></text>
<text xml:space="preserve" transform="matrix(1 0 -0 1 0 504)" font-size="12" font-family="Helvetica"><tspan y="-47.52" x="179.02 185.692 192.364">300</tspan></text>
<text xml:space="preserve" transform="matrix(1 0 -0 1 0 504)" font-size="12" font-family="Helvetica"><tspan y="-47.52" x="236.33 243.002 249.674">320</tspan></text>
<text xml:space="preserve" transform="matrix(1 0 -0 1 0 504)" font-size="12" font-family="Helvetica"><tspan y="-47.52" x="293.65 300.322 306.994">340</tspan></text>
<text xml:space="preserve" transform="matrix(1 0 -0 1 0 504)" font-size="12" font-family="Helvetica"><tspan y="-47.52" x="350.96 357.632 364.304">360</tspan></text>
<text xml:space="preserve" transform="matrix(1 0 -0 1 0 504)" font-size="12" font-family="Helvetica"><tspan y="-47.52" x="408.27 414.942 421.61399">380</tspan></text>
<path transform="matrix(1,0,0,-1,0,504)" stroke-width=".75" stroke-linecap="round" stroke-linejoin="round" fill="none" stroke="#000000" d="M59.04 87.2V414.82"/>
<path transform="matrix(1,0,0,-1,0,504)" stroke-width=".75" stroke-linecap="round" stroke-linejoin="round" fill="none" stroke="#000000" d="M59.04 87.2H51.84"/>
<path transform="matrix(1,0,0,-1,0,504)" stroke-width=".75" stroke-linecap="round" stroke-linejoin="round" fill="none" stroke="#000000" d="M59.04 169.1H51.84"/>
<path transform="matrix(1,0,0,-1,0,504)" stroke-width=".75" stroke-linecap="round" stroke-linejoin="round" fill="none" stroke="#000000" d="M59.04 251.01H51.84"/>
<path transform="matrix(1,0,0,-1,0,504)" stroke-width=".75" stroke-linecap="round" stroke-linejoin="round" fill="none" stroke="#000000" d="M59.04 332.91H51.84"/>
<path transform="matrix(1,0,0,-1,0,504)" stroke-width=".75" stroke-linecap="round" stroke-linejoin="round" fill="none" stroke="#000000" d="M59.04 414.82H51.84"/>
<text xml:space="preserve" transform="matrix(0 -1 1 0 0 504)" font-size="12" font-family="Helvetica"><tspan y="41.76" x="75.52 82.192 85.528 92.2">0.00</tspan></text>
<text xml:space="preserve" transform="matrix(0 -1 1 0 0 504)" font-size="12" font-family="Helvetica"><tspan y="41.76" x="157.43 164.10199 167.43799 174.10999">0.01</tspan></text>
<text xml:space="preserve" transform="matrix(0 -1 1 0 0 504)" font-size="12" font-family="Helvetica"><tspan y="41.76" x="239.33 246.002 249.338 256.01">0.02</tspan></text>
<text xml:space="preserve" transform="matrix(0 -1 1 0 0 504)" font-size="12" font-family="Helvetica"><tspan y="41.76" x="321.24 327.912 331.248 337.91999">0.03</tspan></text>
<text xml:space="preserve" transform="matrix(0 -1 1 0 0 504)" font-size="12" font-family="Helvetica"><tspan y="41.76" x="403.14 409.812 413.148 419.82">0.04</tspan></text>
<g clip-path="url(#clip_0)">
<path transform="matrix(1,0,0,-1,0,504)" d="M74.4 87.2H77.270008V95.39H74.4Z" fill="#0000ff"/>
<path transform="matrix(1,0,0,-1,0,504)" stroke-width=".75" stroke-linecap="round" stroke-linejoin="round" fill="none" stroke="#000000" d="M74.4 87.2H77.270008V95.39H74.4Z"/>
<path transform="matrix(1,0,0,-1,0,504)" d="M77.27 87.2H80.14V95.39H77.27Z" fill="#0000ff"/>
<path transform="matrix(1,0,0,-1,0,504)" stroke-width=".75" stroke-linecap="round" stroke-linejoin="round" fill="none" stroke="#000000" d="M77.27 87.2H80.14V95.39H77.27Z"/>
<path transform="matrix(1,0,0,-1,0,504)" d="M80.13 87.2H83V95.39H80.13Z" fill="#0000ff"/>
<path transform="matrix(1,0,0,-1,0,504)" stroke-width=".75" stroke-linecap="round" stroke-linejoin="round" fill="none" stroke="#000000" d="M80.13 87.2H83V95.39H80.13Z"/>
<path transform="matrix(1,0,0,-1,0,504)" d="M83 87.2H85.87V87.2H83Z" fill="#0000ff"/>
<path transform="matrix(1,0,0,-1,0,504)" stroke-width=".75" stroke-linecap="round" stroke-linejoin="round" fill="none" stroke="#000000" d="M83 87.2H85.87V87.2H83Z"/>
<path transform="matrix(1,0,0,-1,0,504)" d="M85.86 87.2H88.73V87.2H85.86Z" fill="#0000ff"/>
<path transform="matrix(1,0,0,-1,0,504)" stroke-width=".75" stroke-linecap="round" stroke-linejoin="round" fill="none" stroke="#000000" d="M85.86 87.2H88.73V87.2H85.86Z"/>
<path transform="matrix(1,0,0,-1,0,504)" d="M88.73 87.2H91.600009V87.2H88.73Z" fill="#0000ff"/>
<path transform="matrix(1,0,0,-1,0,504)" stroke-width=".75" stroke-linecap="round" stroke-linejoin="round" fill="none" stroke="#000000" d="M88.73 87.2H91.600009V87.2H88.73Z"/>
<path transform="matrix(1,0,0,-1,0,504)" d="M91.59 87.2H94.46V87.2H91.59Z" fill="#0000ff"/>
<path transform="matrix(1,0,0,-1,0,504)" stroke-width=".75" stroke-linecap="round" stroke-linejoin="round" fill="none" stroke="#000000" d="M91.59 87.2H94.46V87.2H91.59Z"/>
<path transform="matrix(1,0,0,-1,0,504)" d="M94.46 87.2H97.33V87.2H94.46Z" fill="#0000ff"/>
<path transform="matrix(1,0,0,-1,0,504)" stroke-width=".75" stroke-linecap="round" stroke-linejoin="round" fill="none" stroke="#000000" d="M94.46 87.2H97.33V87.2H94.46Z"/>
<path transform="matrix(1,0,0,-1,0,504)" d="M97.33 87.2H100.200008V87.2H97.33Z" fill="#0000ff"/>
<path transform="matrix(1,0,0,-1,0,504)" stroke-width=".75" stroke-linecap="round" stroke-linejoin="round" fill="none" stroke="#000000" d="M97.33 87.2H100.200008V87.2H97.33Z"/>
<path transform="matrix(1,0,0,-1,0,504)" d="M100.19 87.2H103.060009V87.2H100.19Z" fill="#0000ff"/>
<path transform="matrix(1,0,0,-1,0,504)" stroke-width=".75" stroke-linecap="round" stroke-linejoin="round" fill="none" stroke="#000000" d="M100.19 87.2H103.060009V87.2H100.19Z"/>
<path transform="matrix(1,0,0,-1,0,504)" d="M103.06 87.2H105.93V95.39H103.06Z" fill="#0000ff"/>
<path transform="matrix(1,0,0,-1,0,504)" stroke-width=".75" stroke-linecap="round" stroke-linejoin="round" fill="none" stroke="#000000" d="M103.06 87.2H105.93V95.39H103.06Z"/>
<path transform="matrix(1,0,0,-1,0,504)" d="M105.92 87.2H108.79V87.2H105.92Z" fill="#0000ff"/>
<path transform="matrix(1,0,0,-1,0,504)" stroke-width=".75" stroke-linecap="round" stroke-linejoin="round" fill="none" stroke="#000000" d="M105.92 87.2H108.79V87.2H105.92Z"/>
<path transform="matrix(1,0,0,-1,0,504)" d="M108.79 87.2H111.66V87.2H108.79Z" fill="#0000ff"/>
<path transform="matrix(1,0,0,-1,0,504)" stroke-width=".75" stroke-linecap="round" stroke-linejoin="round" fill="none" stroke="#000000" d="M108.79 87.2H111.66V87.2H108.79Z"/>
<path transform="matrix(1,0,0,-1,0,504)" d="M111.65 87.2H114.520008V87.2H111.65Z" fill="#0000ff"/>
<path transform="matrix(1,0,0,-1,0,504)" stroke-width=".75" stroke-linecap="round" stroke-linejoin="round" fill="none" stroke="#000000" d="M111.65 87.2H114.520008V87.2H111.65Z"/>
<path transform="matrix(1,0,0,-1,0,504)" d="M114.52 87.2H117.39V95.39H114.52Z" fill="#0000ff"/>
<path transform="matrix(1,0,0,-1,0,504)" stroke-width=".75" stroke-linecap="round" stroke-linejoin="round" fill="none" stroke="#000000" d="M114.52 87.2H117.39V95.39H114.52Z"/>
<path transform="matrix(1,0,0,-1,0,504)" d="M117.39 87.2H120.26V103.579998H117.39Z" fill="#0000ff"/>
<path transform="matrix(1,0,0,-1,0,504)" stroke-width=".75" stroke-linecap="round" stroke-linejoin="round" fill="none" stroke="#000000" d="M117.39 87.2H120.26V103.579998H117.39Z"/>
<path transform="matrix(1,0,0,-1,0,504)" d="M120.25 87.2H123.12V87.2H120.25Z" fill="#0000ff"/>
<path transform="matrix(1,0,0,-1,0,504)" stroke-width=".75" stroke-linecap="round" stroke-linejoin="round" fill="none" stroke="#000000" d="M120.25 87.2H123.12V87.2H120.25Z"/>
<path transform="matrix(1,0,0,-1,0,504)" d="M123.12 87.2H125.990009V87.2H123.12Z" fill="#0000ff"/>
<path transform="matrix(1,0,0,-1,0,504)" stroke-width=".75" stroke-linecap="round" stroke-linejoin="round" fill="none" stroke="#000000" d="M123.12 87.2H125.990009V87.2H123.12Z"/>
<path transform="matrix(1,0,0,-1,0,504)" d="M125.98 87.2H128.85V87.2H125.98Z" fill="#0000ff"/>
<path transform="matrix(1,0,0,-1,0,504)" stroke-width=".75" stroke-linecap="round" stroke-linejoin="round" fill="none" stroke="#000000" d="M125.98 87.2H128.85V87.2H125.98Z"/>
<path transform="matrix(1,0,0,-1,0,504)" d="M128.85 87.2H131.72V87.2H128.85Z" fill="#0000ff"/>
<path transform="matrix(1,0,0,-1,0,504)" stroke-width=".75" stroke-linecap="round" stroke-linejoin="round" fill="none" stroke="#000000" d="M128.85 87.2H131.72V87.2H128.85Z"/>
<path transform="matrix(1,0,0,-1,0,504)" d="M131.71 87.2H134.58V103.579998H131.71Z" fill="#0000ff"/>
<path transform="matrix(1,0,0,-1,0,504)" stroke-width=".75" stroke-linecap="round" stroke-linejoin="round" fill="none" stroke="#000000" d="M131.71 87.2H134.58V103.579998H131.71Z"/>
<path transform="matrix(1,0,0,-1,0,504)" d="M134.58 87.2H137.45V103.579998H134.58Z" fill="#0000ff"/>
<path transform="matrix(1,0,0,-1,0,504)" stroke-width=".75" stroke-linecap="round" stroke-linejoin="round" fill="none" stroke="#000000" d="M134.58 87.2H137.45V103.579998H134.58Z"/>
<path transform="matrix(1,0,0,-1,0,504)" d="M137.44 87.2H140.31V87.2H137.44Z" fill="#0000ff"/>
<path transform="matrix(1,0,0,-1,0,504)" stroke-width=".75" stroke-linecap="round" stroke-linejoin="round" fill="none" stroke="#000000" d="M137.44 87.2H140.31V87.2H137.44Z"/>
<path transform="matrix(1,0,0,-1,0,504)" d="M140.31 87.2H143.18V95.39H140.31Z" fill="#0000ff"/>
<path transform="matrix(1,0,0,-1,0,504)" stroke-width=".75" stroke-linecap="round" stroke-linejoin="round" fill="none" stroke="#000000" d="M140.31 87.2H143.18V95.39H140.31Z"/>
<path transform="matrix(1,0,0,-1,0,504)" d="M143.18 87.2H146.04999V95.39H143.18Z" fill="#0000ff"/>
<path transform="matrix(1,0,0,-1,0,504)" stroke-width=".75" stroke-linecap="round" stroke-linejoin="round" fill="none" stroke="#000000" d="M143.18 87.2H146.04999V95.39H143.18Z"/>
<path transform="matrix(1,0,0,-1,0,504)" d="M146.04 87.2H148.90999V95.39H146.04Z" fill="#0000ff"/>
<path transform="matrix(1,0,0,-1,0,504)" stroke-width=".75" stroke-linecap="round" stroke-linejoin="round" fill="none" stroke="#000000" d="M146.04 87.2H148.90999V95.39H146.04Z"/>
<path transform="matrix(1,0,0,-1,0,504)" d="M148.91 87.2H151.78V87.2H148.91Z" fill="#0000ff"/>
<path transform="matrix(1,0,0,-1,0,504)" stroke-width=".75" stroke-linecap="round" stroke-linejoin="round" fill="none" stroke="#000000" d="M148.91 87.2H151.78V87.2H148.91Z"/>
<path transform="matrix(1,0,0,-1,0,504)" d="M151.77 87.2H154.64V103.579998H151.77Z" fill="#0000ff"/>
<path transform="matrix(1,0,0,-1,0,504)" stroke-width=".75" stroke-linecap="round" stroke-linejoin="round" fill="none" stroke="#000000" d="M151.77 87.2H154.64V103.579998H151.77Z"/>
<path transform="matrix(1,0,0,-1,0,504)" d="M154.64 87.2H157.51V128.15H154.64Z" fill="#0000ff"/>
<path transform="matrix(1,0,0,-1,0,504)" stroke-width=".75" stroke-linecap="round" stroke-linejoin="round" fill="none" stroke="#000000" d="M154.64 87.2H157.51V128.15H154.64Z"/>
<path transform="matrix(1,0,0,-1,0,504)" d="M157.5 87.2H160.37V111.77H157.5Z" fill="#0000ff"/>
<path transform="matrix(1,0,0,-1,0,504)" stroke-width=".75" stroke-linecap="round" stroke-linejoin="round" fill="none" stroke="#000000" d="M157.5 87.2H160.37V111.77H157.5Z"/>
<path transform="matrix(1,0,0,-1,0,504)" d="M160.37 87.2H163.23999V119.95999H160.37Z" fill="#0000ff"/>
<path transform="matrix(1,0,0,-1,0,504)" stroke-width=".75" stroke-linecap="round" stroke-linejoin="round" fill="none" stroke="#000000" d="M160.37 87.2H163.23999V119.95999H160.37Z"/>
<path transform="matrix(1,0,0,-1,0,504)" d="M163.24 87.2H166.11V103.579998H163.24Z" fill="#0000ff"/>
<path transform="matrix(1,0,0,-1,0,504)" stroke-width=".75" stroke-linecap="round" stroke-linejoin="round" fill="none" stroke="#000000" d="M163.24 87.2H166.11V103.579998H163.24Z"/>
<path transform="matrix(1,0,0,-1,0,504)" d="M166.1 87.2H168.97V103.579998H166.1Z" fill="#0000ff"/>
<path transform="matrix(1,0,0,-1,0,504)" stroke-width=".75" stroke-linecap="round" stroke-linejoin="round" fill="none" stroke="#000000" d="M166.1 87.2H168.97V103.579998H166.1Z"/>
<path transform="matrix(1,0,0,-1,0,504)" d="M168.97 87.2H171.84V160.91H168.97Z" fill="#0000ff"/>
<path transform="matrix(1,0,0,-1,0,504)" stroke-width=".75" stroke-linecap="round" stroke-linejoin="round" fill="none" stroke="#000000" d="M168.97 87.2H171.84V160.91H168.97Z"/>
<path transform="matrix(1,0,0,-1,0,504)" d="M171.83 87.2H174.7V103.579998H171.83Z" fill="#0000ff"/>
<path transform="matrix(1,0,0,-1,0,504)" stroke-width=".75" stroke-linecap="round" stroke-linejoin="round" fill="none" stroke="#000000" d="M171.83 87.2H174.7V103.579998H171.83Z"/>
<path transform="matrix(1,0,0,-1,0,504)" d="M174.7 87.2H177.56999V119.95999H174.7Z" fill="#0000ff"/>
<path transform="matrix(1,0,0,-1,0,504)" stroke-width=".75" stroke-linecap="round" stroke-linejoin="round" fill="none" stroke="#000000" d="M174.7 87.2H177.56999V119.95999H174.7Z"/>
<path transform="matrix(1,0,0,-1,0,504)" d="M177.56 87.2H180.43V103.579998H177.56Z" fill="#0000ff"/>
<path transform="matrix(1,0,0,-1,0,504)" stroke-width=".75" stroke-linecap="round" stroke-linejoin="round" fill="none" stroke="#000000" d="M177.56 87.2H180.43V103.579998H177.56Z"/>
<path transform="matrix(1,0,0,-1,0,504)" d="M180.43 87.2H183.29999V103.579998H180.43Z" fill="#0000ff"/>
<path transform="matrix(1,0,0,-1,0,504)" stroke-width=".75" stroke-linecap="round" stroke-linejoin="round" fill="none" stroke="#000000" d="M180.43 87.2H183.29999V103.579998H180.43Z"/>
<path transform="matrix(1,0,0,-1,0,504)" d="M183.3 87.2H186.17V103.579998H183.3Z" fill="#0000ff"/>
<path transform="matrix(1,0,0,-1,0,504)" stroke-width=".75" stroke-linecap="round" stroke-linejoin="round" fill="none" stroke="#000000" d="M183.3 87.2H186.17V103.579998H183.3Z"/>
<path transform="matrix(1,0,0,-1,0,504)" d="M186.16 87.2H189.03V119.95999H186.16Z" fill="#0000ff"/>
<path transform="matrix(1,0,0,-1,0,504)" stroke-width=".75" stroke-linecap="round" stroke-linejoin="round" fill="none" stroke="#000000" d="M186.16 87.2H189.03V119.95999H186.16Z"/>
<path transform="matrix(1,0,0,-1,0,504)" d="M189.03 87.2H191.9V136.34H189.03Z" fill="#0000ff"/>
<path transform="matrix(1,0,0,-1,0,504)" stroke-width=".75" stroke-linecap="round" stroke-linejoin="round" fill="none" stroke="#000000" d="M189.03 87.2H191.9V136.34H189.03Z"/>
<path transform="matrix(1,0,0,-1,0,504)" d="M191.89 87.2H194.76V144.53H191.89Z" fill="#0000ff"/>
<path transform="matrix(1,0,0,-1,0,504)" stroke-width=".75" stroke-linecap="round" stroke-linejoin="round" fill="none" stroke="#000000" d="M191.89 87.2H194.76V144.53H191.89Z"/>
<path transform="matrix(1,0,0,-1,0,504)" d="M194.76 87.2H197.62999V144.53H194.76Z" fill="#0000ff"/>
<path transform="matrix(1,0,0,-1,0,504)" stroke-width=".75" stroke-linecap="round" stroke-linejoin="round" fill="none" stroke="#000000" d="M194.76 87.2H197.62999V144.53H194.76Z"/>
<path transform="matrix(1,0,0,-1,0,504)" d="M197.62 87.2H200.48999V103.579998H197.62Z" fill="#0000ff"/>
<path transform="matrix(1,0,0,-1,0,504)" stroke-width=".75" stroke-linecap="round" stroke-linejoin="round" fill="none" stroke="#000000" d="M197.62 87.2H200.48999V103.579998H197.62Z"/>
<path transform="matrix(1,0,0,-1,0,504)" d="M200.49 87.2H203.36V226.44H200.49Z" fill="#0000ff"/>
<path transform="matrix(1,0,0,-1,0,504)" stroke-width=".75" stroke-linecap="round" stroke-linejoin="round" fill="none" stroke="#000000" d="M200.49 87.2H203.36V226.44H200.49Z"/>
<path transform="matrix(1,0,0,-1,0,504)" d="M203.36 87.2H206.23V111.77H203.36Z" fill="#0000ff"/>
<path transform="matrix(1,0,0,-1,0,504)" stroke-width=".75" stroke-linecap="round" stroke-linejoin="round" fill="none" stroke="#000000" d="M203.36 87.2H206.23V111.77H203.36Z"/>
<path transform="matrix(1,0,0,-1,0,504)" d="M206.22 87.2H209.09V111.77H206.22Z" fill="#0000ff"/>
<path transform="matrix(1,0,0,-1,0,504)" stroke-width=".75" stroke-linecap="round" stroke-linejoin="round" fill="none" stroke="#000000" d="M206.22 87.2H209.09V111.77H206.22Z"/>
<path transform="matrix(1,0,0,-1,0,504)" d="M209.09 87.2H211.95999V234.62999H209.09Z" fill="#0000ff"/>
<path transform="matrix(1,0,0,-1,0,504)" stroke-width=".75" stroke-linecap="round" stroke-linejoin="round" fill="none" stroke="#000000" d="M209.09 87.2H211.95999V234.62999H209.09Z"/>
<path transform="matrix(1,0,0,-1,0,504)" d="M211.95 87.2H214.81999V152.72H211.95Z" fill="#0000ff"/>
<path transform="matrix(1,0,0,-1,0,504)" stroke-width=".75" stroke-linecap="round" stroke-linejoin="round" fill="none" stroke="#000000" d="M211.95 87.2H214.81999V152.72H211.95Z"/>
<path transform="matrix(1,0,0,-1,0,504)" d="M214.82 87.2H217.69V136.34H214.82Z" fill="#0000ff"/>
<path transform="matrix(1,0,0,-1,0,504)" stroke-width=".75" stroke-linecap="round" stroke-linejoin="round" fill="none" stroke="#000000" d="M214.82 87.2H217.69V136.34H214.82Z"/>
<path transform="matrix(1,0,0,-1,0,504)" d="M217.68 87.2H220.54999V193.68H217.68Z" fill="#0000ff"/>
<path transform="matrix(1,0,0,-1,0,504)" stroke-width=".75" stroke-linecap="round" stroke-linejoin="round" fill="none" stroke="#000000" d="M217.68 87.2H220.54999V193.68H217.68Z"/>
<path transform="matrix(1,0,0,-1,0,504)" d="M220.55 87.2H223.42V128.15H220.55Z" fill="#0000ff"/>
<path transform="matrix(1,0,0,-1,0,504)" stroke-width=".75" stroke-linecap="round" stroke-linejoin="round" fill="none" stroke="#000000" d="M220.55 87.2H223.42V128.15H220.55Z"/>
<path transform="matrix(1,0,0,-1,0,504)" d="M223.41 87.2H226.28V119.95999H223.41Z" fill="#0000ff"/>
<path transform="matrix(1,0,0,-1,0,504)" stroke-width=".75" stroke-linecap="round" stroke-linejoin="round" fill="none" stroke="#000000" d="M223.41 87.2H226.28V119.95999H223.41Z"/>
<path transform="matrix(1,0,0,-1,0,504)" d="M226.28 87.2H229.15V193.68H226.28Z" fill="#0000ff"/>
<path transform="matrix(1,0,0,-1,0,504)" stroke-width=".75" stroke-linecap="round" stroke-linejoin="round" fill="none" stroke="#000000" d="M226.28 87.2H229.15V193.68H226.28Z"/>
<path transform="matrix(1,0,0,-1,0,504)" d="M229.15 87.2H232.01999V119.95999H229.15Z" fill="#0000ff"/>
<path transform="matrix(1,0,0,-1,0,504)" stroke-width=".75" stroke-linecap="round" stroke-linejoin="round" fill="none" stroke="#000000" d="M229.15 87.2H232.01999V119.95999H229.15Z"/>
<path transform="matrix(1,0,0,-1,0,504)" d="M232.01 87.2H234.87999V177.29999H232.01Z" fill="#0000ff"/>
<path transform="matrix(1,0,0,-1,0,504)" stroke-width=".75" stroke-linecap="round" stroke-linejoin="round" fill="none" stroke="#000000" d="M232.01 87.2H234.87999V177.29999H232.01Z"/>
<path transform="matrix(1,0,0,-1,0,504)" d="M234.88 87.2H237.75V144.53H234.88Z" fill="#0000ff"/>
<path transform="matrix(1,0,0,-1,0,504)" stroke-width=".75" stroke-linecap="round" stroke-linejoin="round" fill="none" stroke="#000000" d="M234.88 87.2H237.75V144.53H234.88Z"/>
<path transform="matrix(1,0,0,-1,0,504)" d="M237.74 87.2H240.61V234.62999H237.74Z" fill="#0000ff"/>
<path transform="matrix(1,0,0,-1,0,504)" stroke-width=".75" stroke-linecap="round" stroke-linejoin="round" fill="none" stroke="#000000" d="M237.74 87.2H240.61V234.62999H237.74Z"/>
<path transform="matrix(1,0,0,-1,0,504)" d="M240.61 87.2H243.48V226.44H240.61Z" fill="#0000ff"/>
<path transform="matrix(1,0,0,-1,0,504)" stroke-width=".75" stroke-linecap="round" stroke-linejoin="round" fill="none" stroke="#000000" d="M240.61 87.2H243.48V226.44H240.61Z"/>
<path transform="matrix(1,0,0,-1,0,504)" d="M243.47 87.2H246.34V177.29999H243.47Z" fill="#0000ff"/>
<path transform="matrix(1,0,0,-1,0,504)" stroke-width=".75" stroke-linecap="round" stroke-linejoin="round" fill="none" stroke="#000000" d="M243.47 87.2H246.34V177.29999H243.47Z"/>
<path transform="matrix(1,0,0,-1,0,504)" d="M246.34 87.2H249.20999V341.09999H246.34Z" fill="#0000ff"/>
<path transform="matrix(1,0,0,-1,0,504)" stroke-width=".75" stroke-linecap="round" stroke-linejoin="round" fill="none" stroke="#000000" d="M246.34 87.2H249.20999V341.09999H246.34Z"/>
<path transform="matrix(1,0,0,-1,0,504)" d="M249.21 87.2H252.08V226.44H249.21Z" fill="#0000ff"/>
<path transform="matrix(1,0,0,-1,0,504)" stroke-width=".75" stroke-linecap="round" stroke-linejoin="round" fill="none" stroke="#000000" d="M249.21 87.2H252.08V226.44H249.21Z"/>
<path transform="matrix(1,0,0,-1,0,504)" d="M252.07 87.2H254.94V201.87H252.07Z" fill="#0000ff"/>
<path transform="matrix(1,0,0,-1,0,504)" stroke-width=".75" stroke-linecap="round" stroke-linejoin="round" fill="none" stroke="#000000" d="M252.07 87.2H254.94V201.87H252.07Z"/>
<path transform="matrix(1,0,0,-1,0,504)" d="M254.94 87.2H257.81V226.44H254.94Z" fill="#0000ff"/>
<path transform="matrix(1,0,0,-1,0,504)" stroke-width=".75" stroke-linecap="round" stroke-linejoin="round" fill="none" stroke="#000000" d="M254.94 87.2H257.81V226.44H254.94Z"/>
<path transform="matrix(1,0,0,-1,0,504)" d="M257.8 87.2H260.66999V128.15H257.8Z" fill="#0000ff"/>
<path transform="matrix(1,0,0,-1,0,504)" stroke-width=".75" stroke-linecap="round" stroke-linejoin="round" fill="none" stroke="#000000" d="M257.8 87.2H260.66999V128.15H257.8Z"/>
<path transform="matrix(1,0,0,-1,0,504)" d="M260.67 87.2H263.54V193.68H260.67Z" fill="#0000ff"/>
<path transform="matrix(1,0,0,-1,0,504)" stroke-width=".75" stroke-linecap="round" stroke-linejoin="round" fill="none" stroke="#000000" d="M260.67 87.2H263.54V193.68H260.67Z"/>
<path transform="matrix(1,0,0,-1,0,504)" d="M263.53 87.2H266.4V210.06H263.53Z" fill="#0000ff"/>
<path transform="matrix(1,0,0,-1,0,504)" stroke-width=".75" stroke-linecap="round" stroke-linejoin="round" fill="none" stroke="#000000" d="M263.53 87.2H266.4V210.06H263.53Z"/>
<path transform="matrix(1,0,0,-1,0,504)" d="M266.4 87.2H269.27V218.25H266.4Z" fill="#0000ff"/>
<path transform="matrix(1,0,0,-1,0,504)" stroke-width=".75" stroke-linecap="round" stroke-linejoin="round" fill="none" stroke="#000000" d="M266.4 87.2H269.27V218.25H266.4Z"/>
<path transform="matrix(1,0,0,-1,0,504)" d="M269.27 87.2H272.13999V259.2H269.27Z" fill="#0000ff"/>
<path transform="matrix(1,0,0,-1,0,504)" stroke-width=".75" stroke-linecap="round" stroke-linejoin="round" fill="none" stroke="#000000" d="M269.27 87.2H272.13999V259.2H269.27Z"/>
<path transform="matrix(1,0,0,-1,0,504)" d="M272.13 87.2H275V242.81999H272.13Z" fill="#0000ff"/>
<path transform="matrix(1,0,0,-1,0,504)" stroke-width=".75" stroke-linecap="round" stroke-linejoin="round" fill="none" stroke="#000000" d="M272.13 87.2H275V242.81999H272.13Z"/>
<path transform="matrix(1,0,0,-1,0,504)" d="M275 87.2H277.87V226.44H275Z" fill="#0000ff"/>
<path transform="matrix(1,0,0,-1,0,504)" stroke-width=".75" stroke-linecap="round" stroke-linejoin="round" fill="none" stroke="#000000" d="M275 87.2H277.87V226.44H275Z"/>
<path transform="matrix(1,0,0,-1,0,504)" d="M277.86 87.2H280.72999V431.2H277.86Z" fill="#0000ff"/>
<path transform="matrix(1,0,0,-1,0,504)" stroke-width=".75" stroke-linecap="round" stroke-linejoin="round" fill="none" stroke="#000000" d="M277.86 87.2H280.72999V431.2H277.86Z"/>
<path transform="matrix(1,0,0,-1,0,504)" d="M280.73 87.2H283.6V169.1H280.73Z" fill="#0000ff"/>
<path transform="matrix(1,0,0,-1,0,504)" stroke-width=".75" stroke-linecap="round" stroke-linejoin="round" fill="none" stroke="#000000" d="M280.73 87.2H283.6V169.1H280.73Z"/>
<path transform="matrix(1,0,0,-1,0,504)" d="M283.59 87.2H286.46V201.87H283.59Z" fill="#0000ff"/>
<path transform="matrix(1,0,0,-1,0,504)" stroke-width=".75" stroke-linecap="round" stroke-linejoin="round" fill="none" stroke="#000000" d="M283.59 87.2H286.46V201.87H283.59Z"/>
<path transform="matrix(1,0,0,-1,0,504)" d="M286.46 87.2H289.33V275.58003H286.46Z" fill="#0000ff"/>
<path transform="matrix(1,0,0,-1,0,504)" stroke-width=".75" stroke-linecap="round" stroke-linejoin="round" fill="none" stroke="#000000" d="M286.46 87.2H289.33V275.58003H286.46Z"/>
<path transform="matrix(1,0,0,-1,0,504)" d="M289.33 87.2H292.19999V218.25H289.33Z" fill="#0000ff"/>
<path transform="matrix(1,0,0,-1,0,504)" stroke-width=".75" stroke-linecap="round" stroke-linejoin="round" fill="none" stroke="#000000" d="M289.33 87.2H292.19999V218.25H289.33Z"/>
<path transform="matrix(1,0,0,-1,0,504)" d="M292.19 87.2H295.06V160.91H292.19Z" fill="#0000ff"/>
<path transform="matrix(1,0,0,-1,0,504)" stroke-width=".75" stroke-linecap="round" stroke-linejoin="round" fill="none" stroke="#000000" d="M292.19 87.2H295.06V160.91H292.19Z"/>
<path transform="matrix(1,0,0,-1,0,504)" d="M295.06 87.2H297.93V234.62999H295.06Z" fill="#0000ff"/>
<path transform="matrix(1,0,0,-1,0,504)" stroke-width=".75" stroke-linecap="round" stroke-linejoin="round" fill="none" stroke="#000000" d="M295.06 87.2H297.93V234.62999H295.06Z"/>
<path transform="matrix(1,0,0,-1,0,504)" d="M297.92 87.2H300.79V226.44H297.92Z" fill="#0000ff"/>
<path transform="matrix(1,0,0,-1,0,504)" stroke-width=".75" stroke-linecap="round" stroke-linejoin="round" fill="none" stroke="#000000" d="M297.92 87.2H300.79V226.44H297.92Z"/>
<path transform="matrix(1,0,0,-1,0,504)" d="M300.79 87.2H303.66V193.68H300.79Z" fill="#0000ff"/>
<path transform="matrix(1,0,0,-1,0,504)" stroke-width=".75" stroke-linecap="round" stroke-linejoin="round" fill="none" stroke="#000000" d="M300.79 87.2H303.66V193.68H300.79Z"/>
<path transform="matrix(1,0,0,-1,0,504)" d="M303.65 87.2H306.52V210.06H303.65Z" fill="#0000ff"/>
<path transform="matrix(1,0,0,-1,0,504)" stroke-width=".75" stroke-linecap="round" stroke-linejoin="round" fill="none" stroke="#000000" d="M303.65 87.2H306.52V210.06H303.65Z"/>
<path transform="matrix(1,0,0,-1,0,504)" d="M306.52 87.2H309.38999V201.87H306.52Z" fill="#0000ff"/>
<path transform="matrix(1,0,0,-1,0,504)" stroke-width=".75" stroke-linecap="round" stroke-linejoin="round" fill="none" stroke="#000000" d="M306.52 87.2H309.38999V201.87H306.52Z"/>
<path transform="matrix(1,0,0,-1,0,504)" d="M309.39 87.2H312.26V357.49H309.39Z" fill="#0000ff"/>
<path transform="matrix(1,0,0,-1,0,504)" stroke-width=".75" stroke-linecap="round" stroke-linejoin="round" fill="none" stroke="#000000" d="M309.39 87.2H312.26V357.49H309.39Z"/>
<path transform="matrix(1,0,0,-1,0,504)" d="M312.25 87.2H315.12V218.25H312.25Z" fill="#0000ff"/>
<path transform="matrix(1,0,0,-1,0,504)" stroke-width=".75" stroke-linecap="round" stroke-linejoin="round" fill="none" stroke="#000000" d="M312.25 87.2H315.12V218.25H312.25Z"/>
<path transform="matrix(1,0,0,-1,0,504)" d="M315.12 87.2H317.99V210.06H315.12Z" fill="#0000ff"/>
<path transform="matrix(1,0,0,-1,0,504)" stroke-width=".75" stroke-linecap="round" stroke-linejoin="round" fill="none" stroke="#000000" d="M315.12 87.2H317.99V210.06H315.12Z"/>
<path transform="matrix(1,0,0,-1,0,504)" d="M317.98 87.2H320.85V193.68H317.98Z" fill="#0000ff"/>
<path transform="matrix(1,0,0,-1,0,504)" stroke-width=".75" stroke-linecap="round" stroke-linejoin="round" fill="none" stroke="#000000" d="M317.98 87.2H320.85V193.68H317.98Z"/>
<path transform="matrix(1,0,0,-1,0,504)" d="M320.85 87.2H323.72V300.15H320.85Z" fill="#0000ff"/>
<path transform="matrix(1,0,0,-1,0,504)" stroke-width=".75" stroke-linecap="round" stroke-linejoin="round" fill="none" stroke="#000000" d="M320.85 87.2H323.72V300.15H320.85Z"/>
<path transform="matrix(1,0,0,-1,0,504)" d="M323.71 87.2H326.58V193.68H323.71Z" fill="#0000ff"/>
<path transform="matrix(1,0,0,-1,0,504)" stroke-width=".75" stroke-linecap="round" stroke-linejoin="round" fill="none" stroke="#000000" d="M323.71 87.2H326.58V193.68H323.71Z"/>
<path transform="matrix(1,0,0,-1,0,504)" d="M326.58 87.2H329.44999V251.01H326.58Z" fill="#0000ff"/>
<path transform="matrix(1,0,0,-1,0,504)" stroke-width=".75" stroke-linecap="round" stroke-linejoin="round" fill="none" stroke="#000000" d="M326.58 87.2H329.44999V251.01H326.58Z"/>
<path transform="matrix(1,0,0,-1,0,504)" d="M329.44 87.2H332.31V234.62999H329.44Z" fill="#0000ff"/>
<path transform="matrix(1,0,0,-1,0,504)" stroke-width=".75" stroke-linecap="round" stroke-linejoin="round" fill="none" stroke="#000000" d="M329.44 87.2H332.31V234.62999H329.44Z"/>
<path transform="matrix(1,0,0,-1,0,504)" d="M332.31 87.2H335.18V185.48999H332.31Z" fill="#0000ff"/>
<path transform="matrix(1,0,0,-1,0,504)" stroke-width=".75" stroke-linecap="round" stroke-linejoin="round" fill="none" stroke="#000000" d="M332.31 87.2H335.18V185.48999H332.31Z"/>
<path transform="matrix(1,0,0,-1,0,504)" d="M335.18 87.2H338.05V373.87H335.18Z" fill="#0000ff"/>
<path transform="matrix(1,0,0,-1,0,504)" stroke-width=".75" stroke-linecap="round" stroke-linejoin="round" fill="none" stroke="#000000" d="M335.18 87.2H338.05V373.87H335.18Z"/>
<path transform="matrix(1,0,0,-1,0,504)" d="M338.04 87.2H340.91V193.68H338.04Z" fill="#0000ff"/>
<path transform="matrix(1,0,0,-1,0,504)" stroke-width=".75" stroke-linecap="round" stroke-linejoin="round" fill="none" stroke="#000000" d="M338.04 87.2H340.91V193.68H338.04Z"/>
<path transform="matrix(1,0,0,-1,0,504)" d="M340.91 87.2H343.78V144.53H340.91Z" fill="#0000ff"/>
<path transform="matrix(1,0,0,-1,0,504)" stroke-width=".75" stroke-linecap="round" stroke-linejoin="round" fill="none" stroke="#000000" d="M340.91 87.2H343.78V144.53H340.91Z"/>
<path transform="matrix(1,0,0,-1,0,504)" d="M343.77 87.2H346.63999V210.06H343.77Z" fill="#0000ff"/>
<path transform="matrix(1,0,0,-1,0,504)" stroke-width=".75" stroke-linecap="round" stroke-linejoin="round" fill="none" stroke="#000000" d="M343.77 87.2H346.63999V210.06H343.77Z"/>
<path transform="matrix(1,0,0,-1,0,504)" d="M346.64 87.2H349.51V152.72H346.64Z" fill="#0000ff"/>
<path transform="matrix(1,0,0,-1,0,504)" stroke-width=".75" stroke-linecap="round" stroke-linejoin="round" fill="none" stroke="#000000" d="M346.64 87.2H349.51V152.72H346.64Z"/>
<path transform="matrix(1,0,0,-1,0,504)" d="M349.5 87.2H352.37V136.34H349.5Z" fill="#0000ff"/>
<path transform="matrix(1,0,0,-1,0,504)" stroke-width=".75" stroke-linecap="round" stroke-linejoin="round" fill="none" stroke="#000000" d="M349.5 87.2H352.37V136.34H349.5Z"/>
<path transform="matrix(1,0,0,-1,0,504)" d="M352.37 87.2H355.24V234.62999H352.37Z" fill="#0000ff"/>
<path transform="matrix(1,0,0,-1,0,504)" stroke-width=".75" stroke-linecap="round" stroke-linejoin="round" fill="none" stroke="#000000" d="M352.37 87.2H355.24V234.62999H352.37Z"/>
<path transform="matrix(1,0,0,-1,0,504)" d="M355.24 87.2H358.11V119.95999H355.24Z" fill="#0000ff"/>
<path transform="matrix(1,0,0,-1,0,504)" stroke-width=".75" stroke-linecap="round" stroke-linejoin="round" fill="none" stroke="#000000" d="M355.24 87.2H358.11V119.95999H355.24Z"/>
<path transform="matrix(1,0,0,-1,0,504)" d="M358.1 87.2H360.97V169.1H358.1Z" fill="#0000ff"/>
<path transform="matrix(1,0,0,-1,0,504)" stroke-width=".75" stroke-linecap="round" stroke-linejoin="round" fill="none" stroke="#000000" d="M358.1 87.2H360.97V169.1H358.1Z"/>
<path transform="matrix(1,0,0,-1,0,504)" d="M360.97 87.2H363.84V177.29999H360.97Z" fill="#0000ff"/>
<path transform="matrix(1,0,0,-1,0,504)" stroke-width=".75" stroke-linecap="round" stroke-linejoin="round" fill="none" stroke="#000000" d="M360.97 87.2H363.84V177.29999H360.97Z"/>
<path transform="matrix(1,0,0,-1,0,504)" d="M363.83 87.2H366.69999V185.48999H363.83Z" fill="#0000ff"/>
<path transform="matrix(1,0,0,-1,0,504)" stroke-width=".75" stroke-linecap="round" stroke-linejoin="round" fill="none" stroke="#000000" d="M363.83 87.2H366.69999V185.48999H363.83Z"/>
<path transform="matrix(1,0,0,-1,0,504)" d="M366.7 87.2H369.57V160.91H366.7Z" fill="#0000ff"/>
<path transform="matrix(1,0,0,-1,0,504)" stroke-width=".75" stroke-linecap="round" stroke-linejoin="round" fill="none" stroke="#000000" d="M366.7 87.2H369.57V160.91H366.7Z"/>
<path transform="matrix(1,0,0,-1,0,504)" d="M369.56 87.2H372.43V136.34H369.56Z" fill="#0000ff"/>
<path transform="matrix(1,0,0,-1,0,504)" stroke-width=".75" stroke-linecap="round" stroke-linejoin="round" fill="none" stroke="#000000" d="M369.56 87.2H372.43V136.34H369.56Z"/>
<path transform="matrix(1,0,0,-1,0,504)" d="M372.43 87.2H375.3V128.15H372.43Z" fill="#0000ff"/>
<path transform="matrix(1,0,0,-1,0,504)" stroke-width=".75" stroke-linecap="round" stroke-linejoin="round" fill="none" stroke="#000000" d="M372.43 87.2H375.3V128.15H372.43Z"/>
<path transform="matrix(1,0,0,-1,0,504)" d="M375.3 87.2H378.16999V152.72H375.3Z" fill="#0000ff"/>
<path transform="matrix(1,0,0,-1,0,504)" stroke-width=".75" stroke-linecap="round" stroke-linejoin="round" fill="none" stroke="#000000" d="M375.3 87.2H378.16999V152.72H375.3Z"/>
<path transform="matrix(1,0,0,-1,0,504)" d="M378.16 87.2H381.03V160.91H378.16Z" fill="#0000ff"/>
<path transform="matrix(1,0,0,-1,0,504)" stroke-width=".75" stroke-linecap="round" stroke-linejoin="round" fill="none" stroke="#000000" d="M378.16 87.2H381.03V160.91H378.16Z"/>
<path transform="matrix(1,0,0,-1,0,504)" d="M381.03 87.2H383.9V119.95999H381.03Z" fill="#0000ff"/>
<path transform="matrix(1,0,0,-1,0,504)" stroke-width=".75" stroke-linecap="round" stroke-linejoin="round" fill="none" stroke="#000000" d="M381.03 87.2H383.9V119.95999H381.03Z"/>
<path transform="matrix(1,0,0,-1,0,504)" d="M383.89 87.2H386.76V95.39H383.89Z" fill="#0000ff"/>
<path transform="matrix(1,0,0,-1,0,504)" stroke-width=".75" stroke-linecap="round" stroke-linejoin="round" fill="none" stroke="#000000" d="M383.89 87.2H386.76V95.39H383.89Z"/>
<path transform="matrix(1,0,0,-1,0,504)" d="M386.76 87.2H389.63V119.95999H386.76Z" fill="#0000ff"/>
<path transform="matrix(1,0,0,-1,0,504)" stroke-width=".75" stroke-linecap="round" stroke-linejoin="round" fill="none" stroke="#000000" d="M386.76 87.2H389.63V119.95999H386.76Z"/>
<path transform="matrix(1,0,0,-1,0,504)" d="M389.62 87.2H392.49V128.15H389.62Z" fill="#0000ff"/>
<path transform="matrix(1,0,0,-1,0,504)" stroke-width=".75" stroke-linecap="round" stroke-linejoin="round" fill="none" stroke="#000000" d="M389.62 87.2H392.49V128.15H389.62Z"/>
<path transform="matrix(1,0,0,-1,0,504)" d="M392.49 87.2H395.36V95.39H392.49Z" fill="#0000ff"/>
<path transform="matrix(1,0,0,-1,0,504)" stroke-width=".75" stroke-linecap="round" stroke-linejoin="round" fill="none" stroke="#000000" d="M392.49 87.2H395.36V95.39H392.49Z"/>
<path transform="matrix(1,0,0,-1,0,504)" d="M395.36 87.2H398.22999V136.34H395.36Z" fill="#0000ff"/>
<path transform="matrix(1,0,0,-1,0,504)" stroke-width=".75" stroke-linecap="round" stroke-linejoin="round" fill="none" stroke="#000000" d="M395.36 87.2H398.22999V136.34H395.36Z"/>
<path transform="matrix(1,0,0,-1,0,504)" d="M398.22 87.2H401.09V103.579998H398.22Z" fill="#0000ff"/>
<path transform="matrix(1,0,0,-1,0,504)" stroke-width=".75" stroke-linecap="round" stroke-linejoin="round" fill="none" stroke="#000000" d="M398.22 87.2H401.09V103.579998H398.22Z"/>
<path transform="matrix(1,0,0,-1,0,504)" d="M401.09 87.2H403.96V111.77H401.09Z" fill="#0000ff"/>
<path transform="matrix(1,0,0,-1,0,504)" stroke-width=".75" stroke-linecap="round" stroke-linejoin="round" fill="none" stroke="#000000" d="M401.09 87.2H403.96V111.77H401.09Z"/>
<path transform="matrix(1,0,0,-1,0,504)" d="M403.95 87.2H406.82V103.579998H403.95Z" fill="#0000ff"/>
<path transform="matrix(1,0,0,-1,0,504)" stroke-width=".75" stroke-linecap="round" stroke-linejoin="round" fill="none" stroke="#000000" d="M403.95 87.2H406.82V103.579998H403.95Z"/>
<path transform="matrix(1,0,0,-1,0,504)" d="M406.82 87.2H409.69V87.2H406.82Z" fill="#0000ff"/>
<path transform="matrix(1,0,0,-1,0,504)" stroke-width=".75" stroke-linecap="round" stroke-linejoin="round" fill="none" stroke="#000000" d="M406.82 87.2H409.69V87.2H406.82Z"/>
<path transform="matrix(1,0,0,-1,0,504)" d="M409.68 87.2H412.55V128.15H409.68Z" fill="#0000ff"/>
<path transform="matrix(1,0,0,-1,0,504)" stroke-width=".75" stroke-linecap="round" stroke-linejoin="round" fill="none" stroke="#000000" d="M409.68 87.2H412.55V128.15H409.68Z"/>
<path transform="matrix(1,0,0,-1,0,504)" d="M412.55 87.2H415.41999V95.39H412.55Z" fill="#0000ff"/>
<path transform="matrix(1,0,0,-1,0,504)" stroke-width=".75" stroke-linecap="round" stroke-linejoin="round" fill="none" stroke="#000000" d="M412.55 87.2H415.41999V95.39H412.55Z"/>
<path transform="matrix(1,0,0,-1,0,504)" d="M415.41 87.2H418.28V95.39H415.41Z" fill="#0000ff"/>
<path transform="matrix(1,0,0,-1,0,504)" stroke-width=".75" stroke-linecap="round" stroke-linejoin="round" fill="none" stroke="#000000" d="M415.41 87.2H418.28V95.39H415.41Z"/>
<path transform="matrix(1,0,0,-1,0,504)" d="M418.28 87.2H421.15V103.579998H418.28Z" fill="#0000ff"/>
<path transform="matrix(1,0,0,-1,0,504)" stroke-width=".75" stroke-linecap="round" stroke-linejoin="round" fill="none" stroke="#000000" d="M418.28 87.2H421.15V103.579998H418.28Z"/>
<path transform="matrix(1,0,0,-1,0,504)" d="M421.15 87.2H424.02V103.579998H421.15Z" fill="#0000ff"/>
<path transform="matrix(1,0,0,-1,0,504)" stroke-width=".75" stroke-linecap="round" stroke-linejoin="round" fill="none" stroke="#000000" d="M421.15 87.2H424.02V103.579998H421.15Z"/>
<path transform="matrix(1,0,0,-1,0,504)" d="M424.01 87.2H426.88V87.2H424.01Z" fill="#0000ff"/>
<path transform="matrix(1,0,0,-1,0,504)" stroke-width=".75" stroke-linecap="round" stroke-linejoin="round" fill="none" stroke="#000000" d="M424.01 87.2H426.88V87.2H424.01Z"/>
<path transform="matrix(1,0,0,-1,0,504)" d="M426.88 87.2H429.75V87.2H426.88Z" fill="#0000ff"/>
<path transform="matrix(1,0,0,-1,0,504)" stroke-width=".75" stroke-linecap="round" stroke-linejoin="round" fill="none" stroke="#000000" d="M426.88 87.2H429.75V87.2H426.88Z"/>
<path transform="matrix(1,0,0,-1,0,504)" d="M429.74 87.2H432.61V95.39H429.74Z" fill="#0000ff"/>
<path transform="matrix(1,0,0,-1,0,504)" stroke-width=".75" stroke-linecap="round" stroke-linejoin="round" fill="none" stroke="#000000" d="M429.74 87.2H432.61V95.39H429.74Z"/>
<path transform="matrix(1,0,0,-1,0,504)" d="M432.61 87.2H435.47999V95.39H432.61Z" fill="#0000ff"/>
<path transform="matrix(1,0,0,-1,0,504)" stroke-width=".75" stroke-linecap="round" stroke-linejoin="round" fill="none" stroke="#000000" d="M432.61 87.2H435.47999V95.39H432.61Z"/>
<path transform="matrix(1,0,0,-1,0,504)" d="M435.47 87.2H438.34V87.2H435.47Z" fill="#0000ff"/>
<path transform="matrix(1,0,0,-1,0,504)" stroke-width=".75" stroke-linecap="round" stroke-linejoin="round" fill="none" stroke="#000000" d="M435.47 87.2H438.34V87.2H435.47Z"/>
<path transform="matrix(1,0,0,-1,0,504)" d="M438.34 87.2H441.21V95.39H438.34Z" fill="#0000ff"/>
<path transform="matrix(1,0,0,-1,0,504)" stroke-width=".75" stroke-linecap="round" stroke-linejoin="round" fill="none" stroke="#000000" d="M438.34 87.2H441.21V95.39H438.34Z"/>
<path transform="matrix(1,0,0,-1,0,504)" d="M441.21 87.2H444.08V95.39H441.21Z" fill="#0000ff"/>
<path transform="matrix(1,0,0,-1,0,504)" stroke-width=".75" stroke-linecap="round" stroke-linejoin="round" fill="none" stroke="#000000" d="M441.21 87.2H444.08V95.39H441.21Z"/>
<path transform="matrix(1,0,0,-1,0,504)" d="M444.07 87.2H446.94V87.2H444.07Z" fill="#0000ff"/>
<path transform="matrix(1,0,0,-1,0,504)" stroke-width=".75" stroke-linecap="round" stroke-linejoin="round" fill="none" stroke="#000000" d="M444.07 87.2H446.94V87.2H444.07Z"/>
<path transform="matrix(1,0,0,-1,0,504)" d="M446.94 87.2H449.81V87.2H446.94Z" fill="#0000ff"/>
<path transform="matrix(1,0,0,-1,0,504)" stroke-width=".75" stroke-linecap="round" stroke-linejoin="round" fill="none" stroke="#000000" d="M446.94 87.2H449.81V87.2H446.94Z"/>
<path transform="matrix(1,0,0,-1,0,504)" d="M449.8 87.2H452.66999V87.2H449.8Z" fill="#0000ff"/>
<path transform="matrix(1,0,0,-1,0,504)" stroke-width=".75" stroke-linecap="round" stroke-linejoin="round" fill="none" stroke="#000000" d="M449.8 87.2H452.66999V87.2H449.8Z"/>
<path transform="matrix(1,0,0,-1,0,504)" d="M452.67 87.2H455.54V95.39H452.67Z" fill="#0000ff"/>
<path transform="matrix(1,0,0,-1,0,504)" stroke-width=".75" stroke-linecap="round" stroke-linejoin="round" fill="none" stroke="#000000" d="M452.67 87.2H455.54V95.39H452.67Z"/>
<path transform="matrix(1,0,0,-1,0,504)" d="M455.53 87.2H458.4V95.39H455.53Z" fill="#0000ff"/>
<path transform="matrix(1,0,0,-1,0,504)" stroke-width=".75" stroke-linecap="round" stroke-linejoin="round" fill="none" stroke="#000000" d="M455.53 87.2H458.4V95.39H455.53Z"/>
<path transform="matrix(1,0,0,-1,0,504)" stroke-width="2.25" stroke-linecap="round" stroke-linejoin="round" fill="none" stroke="#000000" d="M375.3 73.44V444.96"/>
</g>
</svg>
