<svg xmlns="http://www.w3.org/2000/svg" xmlns:xlink="http://www.w3.org/1999/xlink" xmlns:inkscape="http://www.inkscape.org/namespaces/inkscape" version="1.1" width="721" height="523" viewBox="0 0 721 523">
<defs>
<clipPath id="clip_0">
<path transform="matrix(1,0,0,-1,0,523)" d="M59.04 73.44H691.19998V464.4H59.04Z"/>
</clipPath>
</defs>
<path transform="matrix(1,0,0,-1,0,523)" d="M0 0H721.44V523.44H0Z" fill="#ffffff"/>
<path transform="matrix(1,0,0,-1,0,523)" d="M82.45 77.31H155.62V463.08H82.45Z" fill="#66cdaa"/>
<path transform="matrix(1,0,0,-1,0,523)" stroke-width=".75" stroke-linecap="round" stroke-linejoin="round" fill="none" stroke="#000000" d="M82.45 77.31H155.62V463.08H82.45Z"/>
<path transform="matrix(1,0,0,-1,0,523)" d="M155.62 77.31H228.79V464.4H155.62Z" fill="#ff7f50"/>
<path transform="matrix(1,0,0,-1,0,523)" stroke-width=".75" stroke-linecap="round" stroke-linejoin="round" fill="none" stroke="#000000" d="M155.62 77.31H228.79V464.4H155.62Z"/>
<path transform="matrix(1,0,0,-1,0,523)" d="M301.95 77.31H375.12V412.32H301.95Z" fill="#66cdaa"/>
<path transform="matrix(1,0,0,-1,0,523)" stroke-width=".75" stroke-linecap="round" stroke-linejoin="round" fill="none" stroke="#000000" d="M301.95 77.31H375.12V412.32H301.95Z"/>
<path transform="matrix(1,0,0,-1,0,523)" d="M375.12 77.31H448.28999V391.82H375.12Z" fill="#ff7f50"/>
<path transform="matrix(1,0,0,-1,0,523)" stroke-width=".75" stroke-linecap="round" stroke-linejoin="round" fill="none" stroke="#000000" d="M375.12 77.31H448.28999V391.82H375.12Z"/>
<path transform="matrix(1,0,0,-1,0,523)" d="M521.45 77.31H594.62V222.77H521.45Z" fill="#66cdaa"/>
<path transform="matrix(1,0,0,-1,0,523)" stroke-width=".75" stroke-linecap="round" stroke-linejoin="round" fill="none" stroke="#000000" d="M521.45 77.31H594.62V222.77H521.45Z"/>
<path transform="matrix(1,0,0,-1,0,523)" d="M594.62 77.31H667.79V246.66H594.62Z" fill="#ff7f50"/>
<path transform="matrix(1,0,0,-1,0,523)" stroke-width=".75" stroke-linecap="round" stroke-linejoin="round" fill="none" stroke="#000000" d="M594.62 77.31H667.79V246.66H594.62Z"/>
<text xml:space="preserve" transform="matrix(1 0 -0 1 0 523)" font-size="12" font-family="Helvetica"><tspan y="-47.52" x="152.28">0</tspan></text>
<text xml:space="preserve" transform="matrix(1 0 -0 1 0 523)" font-size="12" font-family="Helvetica"><tspan y="-47.52" x="371.78">1</tspan></text>
<text xml:space="preserve" transform="matrix(1 0 -0 1 0 523)" font-size="12" font-family="Helvetica"><tspan y="-47.52" x="591.28">2</tspan></text>
<text xml:space="preserve" transform="matrix(1 0 -0 1 0 523)" font-size="12" font-family="Helvetica"><tspan y="-18.72" x="359.45 368.786 375.458 382.13 384.794">Goals</tspan></text>
<text xml:space="preserve" transform="matrix(0 -1 1 0 0 523)" font-size="12" font-family="Helvetica"><tspan y="12.96" x="241.58 248.252 252.248 258.92 265.592 272.264 278.936 281.6 284.264 286.928 290.264">probability</tspan></text>
<path transform="matrix(1,0,0,-1,0,523)" stroke-width=".75" stroke-linecap="round" stroke-linejoin="round" fill="none" stroke="#000000" d="M59.04 77.31V445.05"/>
<path transform="matrix(1,0,0,-1,0,523)" stroke-width=".75" stroke-linecap="round" stroke-linejoin="round" fill="none" stroke="#000000" d="M59.04 77.31H51.84"/>
<path transform="matrix(1,0,0,-1,0,523)" stroke-width=".75" stroke-linecap="round" stroke-linejoin="round" fill="none" stroke="#000000" d="M59.04 169.24H51.84"/>
<path transform="matrix(1,0,0,-1,0,523)" stroke-width=".75" stroke-linecap="round" stroke-linejoin="round" fill="none" stroke="#000000" d="M59.04 261.18H51.84"/>
<path transform="matrix(1,0,0,-1,0,523)" stroke-width=".75" stroke-linecap="round" stroke-linejoin="round" fill="none" stroke="#000000" d="M59.04 353.11H51.84"/>
<path transform="matrix(1,0,0,-1,0,523)" stroke-width=".75" stroke-linecap="round" stroke-linejoin="round" fill="none" stroke="#000000" d="M59.04 445.05H51.84"/>
<text xml:space="preserve" transform="matrix(0 -1 1 0 0 523)" font-size="12" font-family="Helvetica"><tspan y="41.76" x="68.97 75.642 78.978">0.0</tspan></text>
<text xml:space="preserve" transform="matrix(0 -1 1 0 0 523)" font-size="12" font-family="Helvetica"><tspan y="41.76" x="160.9 167.57199 170.90799">0.1</tspan></text>
<text xml:space="preserve" transform="matrix(0 -1 1 0 0 523)" font-size="12" font-family="Helvetica"><tspan y="41.76" x="252.84 259.512 262.848">0.2</tspan></text>
<text xml:space="preserve" transform="matrix(0 -1 1 0 0 523)" font-size="12" font-family="Helvetica"><tspan y="41.76" x="344.77 351.442 354.77799">0.3</tspan></text>
<text xml:space="preserve" transform="matrix(0 -1 1 0 0 523)" font-size="12" font-family="Helvetica"><tspan y="41.76" x="436.71 443.382 446.718">0.4</tspan></text>
<g clip-path="url(#clip_0)">
<path transform="matrix(1,0,0,-1,0,523)" d="M572.64 417.76H580.74V425.86H572.64Z" fill="#66cdaa"/>
<path transform="matrix(1,0,0,-1,0,523)" d="M572.64 375.17H580.74V383.27H572.64Z" fill="#ff7f50"/>
<text xml:space="preserve" transform="matrix(1 0 -0 1 0 523)" font-size="18" font-family="Helvetica"><tspan y="-415.35" x="597.22 608.3259 618.3339 622.3299 631.3299 640.3299 650.3379">Poisson</tspan></text>
<text xml:space="preserve" transform="matrix(1 0 -0 1 0 523)" font-size="18" font-family="Helvetica"><tspan y="-372.75" x="597.22 610.21597 620.22396 630.23196 634.2279 643.2279 653.2359">Chelsea</tspan></text>
</g>
</svg>
