<?xml version="1.0" encoding="UTF-8" standalone="no"?>
<!-- Created with Inkscape (http://www.inkscape.org/) -->

<svg
   version="1.1"
   id="svg1"
   width="554.66669"
   height="553.33331"
   viewBox="0 0 554.66669 553.33331"
   sodipodi:docname="pl-nonlinear1.pdf"
   xmlns:inkscape="http://www.inkscape.org/namespaces/inkscape"
   xmlns:sodipodi="http://sodipodi.sourceforge.net/DTD/sodipodi-0.dtd"
   xmlns="http://www.w3.org/2000/svg"
   xmlns:svg="http://www.w3.org/2000/svg">
  <defs
     id="defs1">
    <clipPath
       clipPathUnits="userSpaceOnUse"
       id="clipPath2">
      <path
         d="M 59.04,73.44 H 177.89 V 356.46 H 59.04 Z"
         id="path2" />
    </clipPath>
    <clipPath
       clipPathUnits="userSpaceOnUse"
       id="clipPath3">
      <path
         d="M 0,0 H 208.13 V 415.5 H 0 Z"
         transform="matrix(1,0,0,-1,-105.13,18.720003)"
         id="path3" />
    </clipPath>
    <clipPath
       clipPathUnits="userSpaceOnUse"
       id="clipPath4">
      <path
         d="M 0,0 H 208.13 V 415.5 H 0 Z"
         transform="matrix(0,1,1,0,-211.95001,-12.96)"
         id="path4" />
    </clipPath>
    <clipPath
       clipPathUnits="userSpaceOnUse"
       id="clipPath6">
      <path
         d="M 0,0 H 416.25 V 415.5 H 0 Z"
         id="path6" />
    </clipPath>
    <clipPath
       clipPathUnits="userSpaceOnUse"
       id="clipPath8">
      <path
         d="M 0,0 H 416.25 V 415.5 H 0 Z"
         id="path8" />
    </clipPath>
    <clipPath
       clipPathUnits="userSpaceOnUse"
       id="clipPath10">
      <path
         d="M 0,0 H 416.25 V 415.5 H 0 Z"
         id="path10" />
    </clipPath>
    <clipPath
       clipPathUnits="userSpaceOnUse"
       id="clipPath12">
      <path
         d="M 0,0 H 416.25 V 415.5 H 0 Z"
         id="path12" />
    </clipPath>
    <clipPath
       clipPathUnits="userSpaceOnUse"
       id="clipPath14">
      <path
         d="M 0,0 H 416.25 V 415.5 H 0 Z"
         id="path14" />
    </clipPath>
    <clipPath
       clipPathUnits="userSpaceOnUse"
       id="clipPath16">
      <path
         d="M 0,0 H 416.25 V 415.5 H 0 Z"
         id="path16" />
    </clipPath>
    <clipPath
       clipPathUnits="userSpaceOnUse"
       id="clipPath18">
      <path
         d="M 0,0 H 416.25 V 415.5 H 0 Z"
         id="path18" />
    </clipPath>
    <clipPath
       clipPathUnits="userSpaceOnUse"
       id="clipPath19">
      <path
         d="M 0,0 H 416.25 V 415.5 H 0 Z"
         transform="matrix(1,0,0,-1,-58.990001,47.520004)"
         id="path19" />
    </clipPath>
    <clipPath
       clipPathUnits="userSpaceOnUse"
       id="clipPath20">
      <path
         d="M 0,0 H 416.25 V 415.5 H 0 Z"
         transform="matrix(1,0,0,-1,-77.889999,47.520004)"
         id="path20" />
    </clipPath>
    <clipPath
       clipPathUnits="userSpaceOnUse"
       id="clipPath21">
      <path
         d="M 0,0 H 416.25 V 415.5 H 0 Z"
         transform="matrix(1,0,0,-1,-122.35,47.520004)"
         id="path21" />
    </clipPath>
    <clipPath
       clipPathUnits="userSpaceOnUse"
       id="clipPath22">
      <path
         d="M 0,0 H 416.25 V 415.5 H 0 Z"
         transform="matrix(1,0,0,-1,-163.48,47.520004)"
         id="path22" />
    </clipPath>
    <clipPath
       clipPathUnits="userSpaceOnUse"
       id="clipPath24">
      <path
         d="M 0,0 H 416.25 V 415.5 H 0 Z"
         id="path24" />
    </clipPath>
    <clipPath
       clipPathUnits="userSpaceOnUse"
       id="clipPath26">
      <path
         d="M 0,0 H 416.25 V 415.5 H 0 Z"
         id="path26" />
    </clipPath>
    <clipPath
       clipPathUnits="userSpaceOnUse"
       id="clipPath28">
      <path
         d="M 0,0 H 416.25 V 415.5 H 0 Z"
         id="path28" />
    </clipPath>
    <clipPath
       clipPathUnits="userSpaceOnUse"
       id="clipPath30">
      <path
         d="M 0,0 H 416.25 V 415.5 H 0 Z"
         id="path30" />
    </clipPath>
    <clipPath
       clipPathUnits="userSpaceOnUse"
       id="clipPath32">
      <path
         d="M 0,0 H 416.25 V 415.5 H 0 Z"
         id="path32" />
    </clipPath>
    <clipPath
       clipPathUnits="userSpaceOnUse"
       id="clipPath33">
      <path
         d="M 0,0 H 416.25 V 415.5 H 0 Z"
         transform="matrix(0,1,1,0,-126.8,-41.760001)"
         id="path33" />
    </clipPath>
    <clipPath
       clipPathUnits="userSpaceOnUse"
       id="clipPath34">
      <path
         d="M 0,0 H 416.25 V 415.5 H 0 Z"
         transform="matrix(0,1,1,0,-193.74001,-41.760001)"
         id="path34" />
    </clipPath>
    <clipPath
       clipPathUnits="userSpaceOnUse"
       id="clipPath35">
      <path
         d="M 0,0 H 416.25 V 415.5 H 0 Z"
         transform="matrix(0,1,1,0,-260.67001,-41.760001)"
         id="path35" />
    </clipPath>
    <clipPath
       clipPathUnits="userSpaceOnUse"
       id="clipPath36">
      <path
         d="M 0,0 H 416.25 V 415.5 H 0 Z"
         transform="matrix(0,1,1,0,-327.61001,-41.760001)"
         id="path36" />
    </clipPath>
    <clipPath
       clipPathUnits="userSpaceOnUse"
       id="clipPath38">
      <path
         d="M 0,0 H 416.25 V 415.5 H 0 Z"
         id="path38" />
    </clipPath>
    <clipPath
       clipPathUnits="userSpaceOnUse"
       id="clipPath40">
      <path
         d="M 267.16,73.44 H 386.01 V 356.46 H 267.16 Z"
         id="path40" />
    </clipPath>
    <clipPath
       clipPathUnits="userSpaceOnUse"
       id="clipPath41">
      <path
         d="M 208.13,0 H 416.26 V 415.5 H 208.13 Z"
         transform="matrix(1,0,0,-1,-313.26001,18.720003)"
         id="path41" />
    </clipPath>
    <clipPath
       clipPathUnits="userSpaceOnUse"
       id="clipPath42">
      <path
         d="M 208.13,0 H 416.26 V 415.5 H 208.13 Z"
         transform="matrix(0,1,1,0,-211.95001,-221.08)"
         id="path42" />
    </clipPath>
    <clipPath
       clipPathUnits="userSpaceOnUse"
       id="clipPath44">
      <path
         d="M 0,0 H 416.25 V 415.5 H 0 Z"
         id="path44" />
    </clipPath>
    <clipPath
       clipPathUnits="userSpaceOnUse"
       id="clipPath46">
      <path
         d="M 0,0 H 416.25 V 415.5 H 0 Z"
         id="path46" />
    </clipPath>
    <clipPath
       clipPathUnits="userSpaceOnUse"
       id="clipPath48">
      <path
         d="M 0,0 H 416.25 V 415.5 H 0 Z"
         id="path48" />
    </clipPath>
    <clipPath
       clipPathUnits="userSpaceOnUse"
       id="clipPath50">
      <path
         d="M 0,0 H 416.25 V 415.5 H 0 Z"
         id="path50" />
    </clipPath>
    <clipPath
       clipPathUnits="userSpaceOnUse"
       id="clipPath52">
      <path
         d="M 0,0 H 416.25 V 415.5 H 0 Z"
         id="path52" />
    </clipPath>
    <clipPath
       clipPathUnits="userSpaceOnUse"
       id="clipPath54">
      <path
         d="M 0,0 H 416.25 V 415.5 H 0 Z"
         id="path54" />
    </clipPath>
    <clipPath
       clipPathUnits="userSpaceOnUse"
       id="clipPath56">
      <path
         d="M 0,0 H 416.25 V 415.5 H 0 Z"
         id="path56" />
    </clipPath>
    <clipPath
       clipPathUnits="userSpaceOnUse"
       id="clipPath57">
      <path
         d="M 0,0 H 416.25 V 415.5 H 0 Z"
         transform="matrix(1,0,0,-1,-267.12001,47.520004)"
         id="path57" />
    </clipPath>
    <clipPath
       clipPathUnits="userSpaceOnUse"
       id="clipPath58">
      <path
         d="M 0,0 H 416.25 V 415.5 H 0 Z"
         transform="matrix(1,0,0,-1,-286.01001,47.520004)"
         id="path58" />
    </clipPath>
    <clipPath
       clipPathUnits="userSpaceOnUse"
       id="clipPath59">
      <path
         d="M 0,0 H 416.25 V 415.5 H 0 Z"
         transform="matrix(1,0,0,-1,-330.48001,47.520004)"
         id="path59" />
    </clipPath>
    <clipPath
       clipPathUnits="userSpaceOnUse"
       id="clipPath60">
      <path
         d="M 0,0 H 416.25 V 415.5 H 0 Z"
         transform="matrix(1,0,0,-1,-371.60001,47.520004)"
         id="path60" />
    </clipPath>
    <clipPath
       clipPathUnits="userSpaceOnUse"
       id="clipPath62">
      <path
         d="M 0,0 H 416.25 V 415.5 H 0 Z"
         id="path62" />
    </clipPath>
    <clipPath
       clipPathUnits="userSpaceOnUse"
       id="clipPath64">
      <path
         d="M 0,0 H 416.25 V 415.5 H 0 Z"
         id="path64" />
    </clipPath>
    <clipPath
       clipPathUnits="userSpaceOnUse"
       id="clipPath66">
      <path
         d="M 0,0 H 416.25 V 415.5 H 0 Z"
         id="path66" />
    </clipPath>
    <clipPath
       clipPathUnits="userSpaceOnUse"
       id="clipPath68">
      <path
         d="M 0,0 H 416.25 V 415.5 H 0 Z"
         id="path68" />
    </clipPath>
    <clipPath
       clipPathUnits="userSpaceOnUse"
       id="clipPath70">
      <path
         d="M 0,0 H 416.25 V 415.5 H 0 Z"
         id="path70" />
    </clipPath>
    <clipPath
       clipPathUnits="userSpaceOnUse"
       id="clipPath72">
      <path
         d="M 0,0 H 416.25 V 415.5 H 0 Z"
         id="path72" />
    </clipPath>
    <clipPath
       clipPathUnits="userSpaceOnUse"
       id="clipPath74">
      <path
         d="M 0,0 H 416.25 V 415.5 H 0 Z"
         id="path74" />
    </clipPath>
    <clipPath
       clipPathUnits="userSpaceOnUse"
       id="clipPath76">
      <path
         d="M 0,0 H 416.25 V 415.5 H 0 Z"
         id="path76" />
    </clipPath>
    <clipPath
       clipPathUnits="userSpaceOnUse"
       id="clipPath77">
      <path
         d="M 0,0 H 416.25 V 415.5 H 0 Z"
         transform="matrix(0,1,1,0,-81.89,-249.88)"
         id="path77" />
    </clipPath>
    <clipPath
       clipPathUnits="userSpaceOnUse"
       id="clipPath78">
      <path
         d="M 0,0 H 416.25 V 415.5 H 0 Z"
         transform="matrix(0,1,1,0,-126.44,-249.88)"
         id="path78" />
    </clipPath>
    <clipPath
       clipPathUnits="userSpaceOnUse"
       id="clipPath79">
      <path
         d="M 0,0 H 416.25 V 415.5 H 0 Z"
         transform="matrix(0,1,1,0,-170.99,-249.88)"
         id="path79" />
    </clipPath>
    <clipPath
       clipPathUnits="userSpaceOnUse"
       id="clipPath80">
      <path
         d="M 0,0 H 416.25 V 415.5 H 0 Z"
         transform="matrix(0,1,1,0,-219.04001,-249.88)"
         id="path80" />
    </clipPath>
    <clipPath
       clipPathUnits="userSpaceOnUse"
       id="clipPath81">
      <path
         d="M 0,0 H 416.25 V 415.5 H 0 Z"
         transform="matrix(0,1,1,0,-263.59001,-249.88)"
         id="path81" />
    </clipPath>
    <clipPath
       clipPathUnits="userSpaceOnUse"
       id="clipPath82">
      <path
         d="M 0,0 H 416.25 V 415.5 H 0 Z"
         transform="matrix(0,1,1,0,-308.14001,-249.88)"
         id="path82" />
    </clipPath>
    <clipPath
       clipPathUnits="userSpaceOnUse"
       id="clipPath83">
      <path
         d="M 0,0 H 416.25 V 415.5 H 0 Z"
         transform="matrix(0,1,1,0,-352.69001,-249.88)"
         id="path83" />
    </clipPath>
    <clipPath
       clipPathUnits="userSpaceOnUse"
       id="clipPath85">
      <path
         d="M 0,0 H 416.25 V 415.5 H 0 Z"
         id="path85" />
    </clipPath>
  </defs>
  <sodipodi:namedview
     id="namedview1"
     pagecolor="#ffffff"
     bordercolor="#000000"
     borderopacity="0.25"
     inkscape:showpageshadow="2"
     inkscape:pageopacity="0.0"
     inkscape:pagecheckerboard="0"
     inkscape:deskcolor="#d1d1d1">
    <inkscape:page
       x="0"
       y="0"
       inkscape:label="1"
       id="page1"
       width="554.66669"
       height="553.33331"
       margin="0"
       bleed="0" />
  </sodipodi:namedview>
  <g
     id="g1"
     inkscape:groupmode="layer"
     inkscape:label="1">
    <path
       id="path1"
       d="m 63.44,130.13 1.11,-30.41 1.11,2.65 1.12,40.19 1.11,15.5 1.11,9.53 1.11,25.67 1.11,-9.98 1.11,9.77 1.12,-10.74 1.11,7.49 1.11,-47.21 1.11,-11.28 1.11,-8.21 1.11,-0.34 1.11,5.48 1.12,-32.52 1.11,-11.8 1.11,24.13 1.11,2.38 1.11,47.37 1.11,-30.01 1.12,-0.51 1.11,2.74 1.11,8.79 1.11,79.19 1.11,-47.69 1.11,1.22 1.11,45.99 1.12,-6.65 1.11,-15.58 1.11,-0.37 1.11,-33.14 1.11,12.81 1.11,14.48 1.12,-4.83 1.11,12.44 1.11,23.75 1.11,10.39 1.11,-10.82 1.11,-17.92 1.11,28.97 1.12,7.21 1.11,30.45 1.11,21.38 1.11,-36.53 1.11,4.7 1.11,4.48 1.12,30.76 1.11,52.48 1.11,-18.24 1.11,3.52 1.11,-29.55 1.11,13.95 1.11,10.77 1.12,-6.21 1.11,3.62 1.11,-14.98 1.11,10.86 1.11,-26.27 1.11,36.74 1.12,9.86 1.11,-8.72 1.11,-22.25 1.11,4.39 1.11,-33.62 1.11,9.13 1.11,-14.87 1.12,-21.13 1.11,-39.47 1.11,35.95 1.11,-15.88 1.11,6.42 1.11,4.5 1.12,14.72 1.11,-6.61 1.11,-23.46 1.11,4.98 1.11,20.45 1.11,3.1 1.11,10.6 1.12,22.14 1.11,-19.04 1.11,-6.34 1.11,-76.59 1.11,-3.57 1.11,36.89 1.11,14.56 1.12,26.12 1.11,-31.41 1.11,30.42 1.11,13.24 1.11,16.63 1.11,41.84 1.12,5.58 1.11,-20.07 1.11,-20.19 1.11,15.74 1.11,8.66 1.11,-19.25"
       style="fill:none;stroke:#000000;stroke-width:0.75;stroke-linecap:round;stroke-linejoin:round;stroke-miterlimit:10;stroke-dasharray:none;stroke-opacity:1"
       transform="matrix(1.3333333,0,0,-1.3333333,0,553.33333)"
       clip-path="url(#clipPath2)" />
    <text
       id="text2"
       xml:space="preserve"
       transform="matrix(1.3333333,0,0,1.3333333,140.17333,528.37333)"
       clip-path="url(#clipPath3)"><tspan
         id="tspan2"
         style="font-variant:normal;font-weight:normal;font-size:12px;font-family:Helvetica;writing-mode:lr-tb;fill:#000000;fill-opacity:1;fill-rule:nonzero;stroke:none"
         x="0"
         y="0">Time</tspan></text>
    <text
       id="text3"
       xml:space="preserve"
       transform="matrix(0,-1.3333333,1.3333333,0,17.28,270.73333)"
       clip-path="url(#clipPath4)"><tspan
         id="tspan3"
         style="font-variant:normal;font-weight:normal;font-size:12px;font-family:Helvetica;writing-mode:lr-tb;fill:#000000;fill-opacity:1;fill-rule:nonzero;stroke:none"
         x="0"
         y="0">x</tspan></text>
    <path
       id="path5"
       d="M 62.33,73.44 H 173.48"
       style="fill:none;stroke:#000000;stroke-width:0.75;stroke-linecap:round;stroke-linejoin:round;stroke-miterlimit:10;stroke-dasharray:none;stroke-opacity:1"
       transform="matrix(1.3333333,0,0,-1.3333333,0,553.33333)"
       clip-path="url(#clipPath6)" />
    <path
       id="path7"
       d="m 62.33,73.44 v -7.2"
       style="fill:none;stroke:#000000;stroke-width:0.75;stroke-linecap:round;stroke-linejoin:round;stroke-miterlimit:10;stroke-dasharray:none;stroke-opacity:1"
       transform="matrix(1.3333333,0,0,-1.3333333,0,553.33333)"
       clip-path="url(#clipPath8)" />
    <path
       id="path9"
       d="m 84.56,73.44 v -7.2"
       style="fill:none;stroke:#000000;stroke-width:0.75;stroke-linecap:round;stroke-linejoin:round;stroke-miterlimit:10;stroke-dasharray:none;stroke-opacity:1"
       transform="matrix(1.3333333,0,0,-1.3333333,0,553.33333)"
       clip-path="url(#clipPath10)" />
    <path
       id="path11"
       d="m 106.79,73.44 v -7.2"
       style="fill:none;stroke:#000000;stroke-width:0.75;stroke-linecap:round;stroke-linejoin:round;stroke-miterlimit:10;stroke-dasharray:none;stroke-opacity:1"
       transform="matrix(1.3333333,0,0,-1.3333333,0,553.33333)"
       clip-path="url(#clipPath12)" />
    <path
       id="path13"
       d="m 129.02,73.44 v -7.2"
       style="fill:none;stroke:#000000;stroke-width:0.75;stroke-linecap:round;stroke-linejoin:round;stroke-miterlimit:10;stroke-dasharray:none;stroke-opacity:1"
       transform="matrix(1.3333333,0,0,-1.3333333,0,553.33333)"
       clip-path="url(#clipPath14)" />
    <path
       id="path15"
       d="m 151.25,73.44 v -7.2"
       style="fill:none;stroke:#000000;stroke-width:0.75;stroke-linecap:round;stroke-linejoin:round;stroke-miterlimit:10;stroke-dasharray:none;stroke-opacity:1"
       transform="matrix(1.3333333,0,0,-1.3333333,0,553.33333)"
       clip-path="url(#clipPath16)" />
    <path
       id="path17"
       d="m 173.48,73.44 v -7.2"
       style="fill:none;stroke:#000000;stroke-width:0.75;stroke-linecap:round;stroke-linejoin:round;stroke-miterlimit:10;stroke-dasharray:none;stroke-opacity:1"
       transform="matrix(1.3333333,0,0,-1.3333333,0,553.33333)"
       clip-path="url(#clipPath18)" />
    <text
       id="text18"
       xml:space="preserve"
       transform="matrix(1.3333333,0,0,1.3333333,78.653333,489.97333)"
       clip-path="url(#clipPath19)"><tspan
         id="tspan18"
         style="font-variant:normal;font-weight:normal;font-size:12px;font-family:Helvetica;writing-mode:lr-tb;fill:#000000;fill-opacity:1;fill-rule:nonzero;stroke:none"
         x="0"
         y="0">0</tspan></text>
    <text
       id="text19"
       xml:space="preserve"
       transform="matrix(1.3333333,0,0,1.3333333,103.85333,489.97333)"
       clip-path="url(#clipPath20)"><tspan
         id="tspan19"
         style="font-variant:normal;font-weight:normal;font-size:12px;font-family:Helvetica;writing-mode:lr-tb;fill:#000000;fill-opacity:1;fill-rule:nonzero;stroke:none"
         x="0"
         y="0">20</tspan></text>
    <text
       id="text20"
       xml:space="preserve"
       transform="matrix(1.3333333,0,0,1.3333333,163.13333,489.97333)"
       clip-path="url(#clipPath21)"><tspan
         id="tspan20"
         style="font-variant:normal;font-weight:normal;font-size:12px;font-family:Helvetica;writing-mode:lr-tb;fill:#000000;fill-opacity:1;fill-rule:nonzero;stroke:none"
         x="0"
         y="0">60</tspan></text>
    <text
       id="text21"
       xml:space="preserve"
       transform="matrix(1.3333333,0,0,1.3333333,217.97333,489.97333)"
       clip-path="url(#clipPath22)"><tspan
         id="tspan21"
         style="font-variant:normal;font-weight:normal;font-size:12px;font-family:Helvetica;writing-mode:lr-tb;fill:#000000;fill-opacity:1;fill-rule:nonzero;stroke:none"
         x="0"
         y="0">100</tspan></text>
    <path
       id="path23"
       d="M 59.04,130.13 V 330.95"
       style="fill:none;stroke:#000000;stroke-width:0.75;stroke-linecap:round;stroke-linejoin:round;stroke-miterlimit:10;stroke-dasharray:none;stroke-opacity:1"
       transform="matrix(1.3333333,0,0,-1.3333333,0,553.33333)"
       clip-path="url(#clipPath24)" />
    <path
       id="path25"
       d="m 59.04,130.13 h -7.2"
       style="fill:none;stroke:#000000;stroke-width:0.75;stroke-linecap:round;stroke-linejoin:round;stroke-miterlimit:10;stroke-dasharray:none;stroke-opacity:1"
       transform="matrix(1.3333333,0,0,-1.3333333,0,553.33333)"
       clip-path="url(#clipPath26)" />
    <path
       id="path27"
       d="m 59.04,197.07 h -7.2"
       style="fill:none;stroke:#000000;stroke-width:0.75;stroke-linecap:round;stroke-linejoin:round;stroke-miterlimit:10;stroke-dasharray:none;stroke-opacity:1"
       transform="matrix(1.3333333,0,0,-1.3333333,0,553.33333)"
       clip-path="url(#clipPath28)" />
    <path
       id="path29"
       d="m 59.04,264.01 h -7.2"
       style="fill:none;stroke:#000000;stroke-width:0.75;stroke-linecap:round;stroke-linejoin:round;stroke-miterlimit:10;stroke-dasharray:none;stroke-opacity:1"
       transform="matrix(1.3333333,0,0,-1.3333333,0,553.33333)"
       clip-path="url(#clipPath30)" />
    <path
       id="path31"
       d="m 59.04,330.95 h -7.2"
       style="fill:none;stroke:#000000;stroke-width:0.75;stroke-linecap:round;stroke-linejoin:round;stroke-miterlimit:10;stroke-dasharray:none;stroke-opacity:1"
       transform="matrix(1.3333333,0,0,-1.3333333,0,553.33333)"
       clip-path="url(#clipPath32)" />
    <text
       id="text32"
       xml:space="preserve"
       transform="matrix(0,-1.3333333,1.3333333,0,55.68,384.26667)"
       clip-path="url(#clipPath33)"><tspan
         id="tspan32"
         style="font-variant:normal;font-weight:normal;font-size:12px;font-family:Helvetica;writing-mode:lr-tb;fill:#000000;fill-opacity:1;fill-rule:nonzero;stroke:none"
         x="0"
         y="0">2</tspan></text>
    <text
       id="text33"
       xml:space="preserve"
       transform="matrix(0,-1.3333333,1.3333333,0,55.68,295.01333)"
       clip-path="url(#clipPath34)"><tspan
         id="tspan33"
         style="font-variant:normal;font-weight:normal;font-size:12px;font-family:Helvetica;writing-mode:lr-tb;fill:#000000;fill-opacity:1;fill-rule:nonzero;stroke:none"
         x="0"
         y="0">4</tspan></text>
    <text
       id="text34"
       xml:space="preserve"
       transform="matrix(0,-1.3333333,1.3333333,0,55.68,205.77333)"
       clip-path="url(#clipPath35)"><tspan
         id="tspan34"
         style="font-variant:normal;font-weight:normal;font-size:12px;font-family:Helvetica;writing-mode:lr-tb;fill:#000000;fill-opacity:1;fill-rule:nonzero;stroke:none"
         x="0"
         y="0">6</tspan></text>
    <text
       id="text35"
       xml:space="preserve"
       transform="matrix(0,-1.3333333,1.3333333,0,55.68,116.52)"
       clip-path="url(#clipPath36)"><tspan
         id="tspan35"
         style="font-variant:normal;font-weight:normal;font-size:12px;font-family:Helvetica;writing-mode:lr-tb;fill:#000000;fill-opacity:1;fill-rule:nonzero;stroke:none"
         x="0"
         y="0">8</tspan></text>
    <path
       id="path37"
       d="M 59.04,73.44 H 177.89 V 356.46 H 59.04 V 73.44"
       style="fill:none;stroke:#000000;stroke-width:0.75;stroke-linecap:round;stroke-linejoin:round;stroke-miterlimit:10;stroke-dasharray:none;stroke-opacity:1"
       transform="matrix(1.3333333,0,0,-1.3333333,0,553.33333)"
       clip-path="url(#clipPath38)" />
    <path
       id="path39"
       d="m 271.57,209.1 1.11,79.57 1.11,-39.2 1.11,-9.01 1.11,56.72 1.11,-103.74 1.12,6.27 1.11,-2.48 1.11,63.24 1.11,-56.17 1.11,29.05 1.11,58.82 1.12,-27.45 1.11,-47.05 1.11,-29.68 1.11,-5.52 1.11,161.6 1.11,-25.36 1.11,-55.72 1.12,-130.75 1.11,111.56 1.11,6.92 1.11,-26.26 1.11,-28.02 1.11,76.16 1.11,-27.01 1.12,-2.13 1.11,63.26 1.11,-59.96 1.11,-27.12 1.11,47.51 1.11,-31.42 1.12,19.4 1.11,-93.51 1.11,53.23 1.11,26.24 1.11,-9.79 1.11,-7.47 1.11,-32.84 1.12,25.79 1.11,28.55 1.11,7.58 1.11,-111.93 1.11,108.09 1.11,15.97 1.12,-112.69 1.11,94.47 1.11,9.41 1.11,-103.58 1.11,169.38 1.11,23.95 1.11,-100.71 1.12,24.38 1.11,-134.09 1.11,126.15 1.11,-52.01 1.11,-14.07 1.11,-27.32 1.12,95.92 1.11,5.77 1.11,-52.75 1.11,-67.34 1.11,138.59 1.11,-19.95 1.11,-17.97 1.12,88.69 1.11,-159.46 1.11,104.12 1.11,-68.32 1.11,34.94 1.11,-19.23 1.12,96.39 1.11,-243.79 1.11,166.01 1.11,51.76 1.11,-55.89 1.11,-11.98 1.11,-44.46 1.12,92.39 1.11,-71.24 1.11,-12 1.11,-18.32 1.11,1.15 1.11,38.52 1.12,-64.11 1.11,104.48 1.11,-98.48 1.11,-9.79 1.11,123.69 1.11,-63.97 1.11,-29.93 1.12,75.17 1.11,0.07 1.11,-27.16 1.11,-8.11 1.11,-1.55 1.11,-14.65 1.12,15.94 1.11,82.07 1.11,-137.62"
       style="fill:none;stroke:#000000;stroke-width:0.75;stroke-linecap:round;stroke-linejoin:round;stroke-miterlimit:10;stroke-dasharray:none;stroke-opacity:1"
       transform="matrix(1.3333333,0,0,-1.3333333,0,553.33333)"
       clip-path="url(#clipPath40)" />
    <text
       id="text40"
       xml:space="preserve"
       transform="matrix(1.3333333,0,0,1.3333333,417.68,528.37333)"
       clip-path="url(#clipPath41)"><tspan
         id="tspan40"
         style="font-variant:normal;font-weight:normal;font-size:12px;font-family:Helvetica;writing-mode:lr-tb;fill:#000000;fill-opacity:1;fill-rule:nonzero;stroke:none"
         x="0"
         y="0">Time</tspan></text>
    <text
       id="text41"
       xml:space="preserve"
       transform="matrix(0,-1.3333333,1.3333333,0,294.77333,270.73333)"
       clip-path="url(#clipPath42)"><tspan
         id="tspan41"
         style="font-variant:normal;font-weight:normal;font-size:12px;font-family:Helvetica;writing-mode:lr-tb;fill:#000000;fill-opacity:1;fill-rule:nonzero;stroke:none"
         x="0"
         y="0">y</tspan></text>
    <path
       id="path43"
       d="M 270.46,73.44 H 381.61"
       style="fill:none;stroke:#000000;stroke-width:0.75;stroke-linecap:round;stroke-linejoin:round;stroke-miterlimit:10;stroke-dasharray:none;stroke-opacity:1"
       transform="matrix(1.3333333,0,0,-1.3333333,0,553.33333)"
       clip-path="url(#clipPath44)" />
    <path
       id="path45"
       d="m 270.46,73.44 v -7.2"
       style="fill:none;stroke:#000000;stroke-width:0.75;stroke-linecap:round;stroke-linejoin:round;stroke-miterlimit:10;stroke-dasharray:none;stroke-opacity:1"
       transform="matrix(1.3333333,0,0,-1.3333333,0,553.33333)"
       clip-path="url(#clipPath46)" />
    <path
       id="path47"
       d="m 292.69,73.44 v -7.2"
       style="fill:none;stroke:#000000;stroke-width:0.75;stroke-linecap:round;stroke-linejoin:round;stroke-miterlimit:10;stroke-dasharray:none;stroke-opacity:1"
       transform="matrix(1.3333333,0,0,-1.3333333,0,553.33333)"
       clip-path="url(#clipPath48)" />
    <path
       id="path49"
       d="m 314.92,73.44 v -7.2"
       style="fill:none;stroke:#000000;stroke-width:0.75;stroke-linecap:round;stroke-linejoin:round;stroke-miterlimit:10;stroke-dasharray:none;stroke-opacity:1"
       transform="matrix(1.3333333,0,0,-1.3333333,0,553.33333)"
       clip-path="url(#clipPath50)" />
    <path
       id="path51"
       d="m 337.15,73.44 v -7.2"
       style="fill:none;stroke:#000000;stroke-width:0.75;stroke-linecap:round;stroke-linejoin:round;stroke-miterlimit:10;stroke-dasharray:none;stroke-opacity:1"
       transform="matrix(1.3333333,0,0,-1.3333333,0,553.33333)"
       clip-path="url(#clipPath52)" />
    <path
       id="path53"
       d="m 359.38,73.44 v -7.2"
       style="fill:none;stroke:#000000;stroke-width:0.75;stroke-linecap:round;stroke-linejoin:round;stroke-miterlimit:10;stroke-dasharray:none;stroke-opacity:1"
       transform="matrix(1.3333333,0,0,-1.3333333,0,553.33333)"
       clip-path="url(#clipPath54)" />
    <path
       id="path55"
       d="m 381.61,73.44 v -7.2"
       style="fill:none;stroke:#000000;stroke-width:0.75;stroke-linecap:round;stroke-linejoin:round;stroke-miterlimit:10;stroke-dasharray:none;stroke-opacity:1"
       transform="matrix(1.3333333,0,0,-1.3333333,0,553.33333)"
       clip-path="url(#clipPath56)" />
    <text
       id="text56"
       xml:space="preserve"
       transform="matrix(1.3333333,0,0,1.3333333,356.16,489.97333)"
       clip-path="url(#clipPath57)"><tspan
         id="tspan56"
         style="font-variant:normal;font-weight:normal;font-size:12px;font-family:Helvetica;writing-mode:lr-tb;fill:#000000;fill-opacity:1;fill-rule:nonzero;stroke:none"
         x="0"
         y="0">0</tspan></text>
    <text
       id="text57"
       xml:space="preserve"
       transform="matrix(1.3333333,0,0,1.3333333,381.34667,489.97333)"
       clip-path="url(#clipPath58)"><tspan
         id="tspan57"
         style="font-variant:normal;font-weight:normal;font-size:12px;font-family:Helvetica;writing-mode:lr-tb;fill:#000000;fill-opacity:1;fill-rule:nonzero;stroke:none"
         x="0"
         y="0">20</tspan></text>
    <text
       id="text58"
       xml:space="preserve"
       transform="matrix(1.3333333,0,0,1.3333333,440.64,489.97333)"
       clip-path="url(#clipPath59)"><tspan
         id="tspan58"
         style="font-variant:normal;font-weight:normal;font-size:12px;font-family:Helvetica;writing-mode:lr-tb;fill:#000000;fill-opacity:1;fill-rule:nonzero;stroke:none"
         x="0"
         y="0">60</tspan></text>
    <text
       id="text59"
       xml:space="preserve"
       transform="matrix(1.3333333,0,0,1.3333333,495.46667,489.97333)"
       clip-path="url(#clipPath60)"><tspan
         id="tspan59"
         style="font-variant:normal;font-weight:normal;font-size:12px;font-family:Helvetica;writing-mode:lr-tb;fill:#000000;fill-opacity:1;fill-rule:nonzero;stroke:none"
         x="0"
         y="0">100</tspan></text>
    <path
       id="path61"
       d="m 267.16,88.73 v 267.3"
       style="fill:none;stroke:#000000;stroke-width:0.75;stroke-linecap:round;stroke-linejoin:round;stroke-miterlimit:10;stroke-dasharray:none;stroke-opacity:1"
       transform="matrix(1.3333333,0,0,-1.3333333,0,553.33333)"
       clip-path="url(#clipPath62)" />
    <path
       id="path63"
       d="m 267.16,88.73 h -7.2"
       style="fill:none;stroke:#000000;stroke-width:0.75;stroke-linecap:round;stroke-linejoin:round;stroke-miterlimit:10;stroke-dasharray:none;stroke-opacity:1"
       transform="matrix(1.3333333,0,0,-1.3333333,0,553.33333)"
       clip-path="url(#clipPath64)" />
    <path
       id="path65"
       d="m 267.16,133.28 h -7.2"
       style="fill:none;stroke:#000000;stroke-width:0.75;stroke-linecap:round;stroke-linejoin:round;stroke-miterlimit:10;stroke-dasharray:none;stroke-opacity:1"
       transform="matrix(1.3333333,0,0,-1.3333333,0,553.33333)"
       clip-path="url(#clipPath66)" />
    <path
       id="path67"
       d="m 267.16,177.83 h -7.2"
       style="fill:none;stroke:#000000;stroke-width:0.75;stroke-linecap:round;stroke-linejoin:round;stroke-miterlimit:10;stroke-dasharray:none;stroke-opacity:1"
       transform="matrix(1.3333333,0,0,-1.3333333,0,553.33333)"
       clip-path="url(#clipPath68)" />
    <path
       id="path69"
       d="m 267.16,222.38 h -7.2"
       style="fill:none;stroke:#000000;stroke-width:0.75;stroke-linecap:round;stroke-linejoin:round;stroke-miterlimit:10;stroke-dasharray:none;stroke-opacity:1"
       transform="matrix(1.3333333,0,0,-1.3333333,0,553.33333)"
       clip-path="url(#clipPath70)" />
    <path
       id="path71"
       d="m 267.16,266.93 h -7.2"
       style="fill:none;stroke:#000000;stroke-width:0.75;stroke-linecap:round;stroke-linejoin:round;stroke-miterlimit:10;stroke-dasharray:none;stroke-opacity:1"
       transform="matrix(1.3333333,0,0,-1.3333333,0,553.33333)"
       clip-path="url(#clipPath72)" />
    <path
       id="path73"
       d="m 267.16,311.48 h -7.2"
       style="fill:none;stroke:#000000;stroke-width:0.75;stroke-linecap:round;stroke-linejoin:round;stroke-miterlimit:10;stroke-dasharray:none;stroke-opacity:1"
       transform="matrix(1.3333333,0,0,-1.3333333,0,553.33333)"
       clip-path="url(#clipPath74)" />
    <path
       id="path75"
       d="m 267.16,356.03 h -7.2"
       style="fill:none;stroke:#000000;stroke-width:0.75;stroke-linecap:round;stroke-linejoin:round;stroke-miterlimit:10;stroke-dasharray:none;stroke-opacity:1"
       transform="matrix(1.3333333,0,0,-1.3333333,0,553.33333)"
       clip-path="url(#clipPath76)" />
    <text
       id="text76"
       xml:space="preserve"
       transform="matrix(0,-1.3333333,1.3333333,0,333.17333,444.14667)"
       clip-path="url(#clipPath77)"><tspan
         id="tspan76"
         style="font-variant:normal;font-weight:normal;font-size:12px;font-family:Helvetica;writing-mode:lr-tb;fill:#000000;fill-opacity:1;fill-rule:nonzero;stroke:none"
         x="0"
         y="0">−3</tspan></text>
    <text
       id="text77"
       xml:space="preserve"
       transform="matrix(0,-1.3333333,1.3333333,0,333.17333,384.74667)"
       clip-path="url(#clipPath78)"><tspan
         id="tspan77"
         style="font-variant:normal;font-weight:normal;font-size:12px;font-family:Helvetica;writing-mode:lr-tb;fill:#000000;fill-opacity:1;fill-rule:nonzero;stroke:none"
         x="0"
         y="0">−2</tspan></text>
    <text
       id="text78"
       xml:space="preserve"
       transform="matrix(0,-1.3333333,1.3333333,0,333.17333,325.34667)"
       clip-path="url(#clipPath79)"><tspan
         id="tspan78"
         style="font-variant:normal;font-weight:normal;font-size:12px;font-family:Helvetica;writing-mode:lr-tb;fill:#000000;fill-opacity:1;fill-rule:nonzero;stroke:none"
         x="0"
         y="0">−1</tspan></text>
    <text
       id="text79"
       xml:space="preserve"
       transform="matrix(0,-1.3333333,1.3333333,0,333.17333,261.28)"
       clip-path="url(#clipPath80)"><tspan
         id="tspan79"
         style="font-variant:normal;font-weight:normal;font-size:12px;font-family:Helvetica;writing-mode:lr-tb;fill:#000000;fill-opacity:1;fill-rule:nonzero;stroke:none"
         x="0"
         y="0">0</tspan></text>
    <text
       id="text80"
       xml:space="preserve"
       transform="matrix(0,-1.3333333,1.3333333,0,333.17333,201.88)"
       clip-path="url(#clipPath81)"><tspan
         id="tspan80"
         style="font-variant:normal;font-weight:normal;font-size:12px;font-family:Helvetica;writing-mode:lr-tb;fill:#000000;fill-opacity:1;fill-rule:nonzero;stroke:none"
         x="0"
         y="0">1</tspan></text>
    <text
       id="text81"
       xml:space="preserve"
       transform="matrix(0,-1.3333333,1.3333333,0,333.17333,142.48)"
       clip-path="url(#clipPath82)"><tspan
         id="tspan81"
         style="font-variant:normal;font-weight:normal;font-size:12px;font-family:Helvetica;writing-mode:lr-tb;fill:#000000;fill-opacity:1;fill-rule:nonzero;stroke:none"
         x="0"
         y="0">2</tspan></text>
    <text
       id="text82"
       xml:space="preserve"
       transform="matrix(0,-1.3333333,1.3333333,0,333.17333,83.08)"
       clip-path="url(#clipPath83)"><tspan
         id="tspan82"
         style="font-variant:normal;font-weight:normal;font-size:12px;font-family:Helvetica;writing-mode:lr-tb;fill:#000000;fill-opacity:1;fill-rule:nonzero;stroke:none"
         x="0"
         y="0">3</tspan></text>
    <path
       id="path84"
       d="M 267.16,73.44 H 386.01 V 356.46 H 267.16 V 73.44"
       style="fill:none;stroke:#000000;stroke-width:0.75;stroke-linecap:round;stroke-linejoin:round;stroke-miterlimit:10;stroke-dasharray:none;stroke-opacity:1"
       transform="matrix(1.3333333,0,0,-1.3333333,0,553.33333)"
       clip-path="url(#clipPath85)" />
  </g>
</svg>
