<?xml version="1.0" encoding="UTF-8" standalone="no"?>
<?xml-stylesheet href="
  data:text/css,
  @import url(https://fonts.googleapis.com/css?family=Roboto:400,700);
  svg text {
    font-family: 'Roboto';
  }
  .node text {
    font-size: 12px;
  }
" type="text/css"?>
<!DOCTYPE svg PUBLIC "-//W3C//DTD SVG 1.1//EN"
 "http://www.w3.org/Graphics/SVG/1.1/DTD/svg11.dtd">
<!-- Generated by graphviz version 2.50.0 (0)
 -->
<!-- Title: G Pages: 1 -->
<svg width="519pt" height="171pt"
 viewBox="0.00 0.00 171.00 519.00" xmlns="http://www.w3.org/2000/svg" xmlns:xlink="http://www.w3.org/1999/xlink">
<g id="graph0" class="graph" transform="scale(2 2) rotate(270) translate(-200 200)">
<title>G</title>
<polygon fill="white" stroke="transparent" points="-4,4 -4,-515 167,-515 167,4 -4,4"/>
<text text-anchor="start" x="55.5" y="-492.8" font-family="Times,serif" font-weight="bold" font-size="19.00">layer1</text>
<!-- 4596909824 -->
<g id="node4596909824" class="node">
<title>4596909824</title>
<g id="a_node4596909824"><a xlink:title=" ">
<polygon fill="#fff26e" stroke="#ffdb13" points="128,-410 72,-410 72,-374 128,-374 128,-410"/>
<text text-anchor="start" x="90.5" y="-395.8" font-family="Times,serif" font-weight="bold" font-size="14.00">dot</text>
<text text-anchor="start" x="80" y="-381.8" font-family="Times,serif" font-size="14.00">[200,4]</text>
</a>
</g>
</g>
<!-- 4590883808 -->
<g id="node4590883808" class="node">
<title>4590883808</title>
<g id="a_node4590883808"><a xlink:title=" ">
<polygon fill="#fff26e" stroke="#ffdb13" points="91,-338 35,-338 35,-302 91,-302 91,-338"/>
<text text-anchor="start" x="52" y="-323.8" font-family="Times,serif" font-weight="bold" font-size="14.00">add</text>
<text text-anchor="start" x="43" y="-309.8" font-family="Times,serif" font-size="14.00">[200,4]</text>
</a>
</g>
</g>
<!-- 4596909824&#45;&gt;4590883808 -->
<g id="edge4" class="edge">
<title>4596909824&#45;&gt;4590883808</title>
<path fill="none" stroke="black" d="M90.85,-373.7C86.6,-365.64 81.44,-355.89 76.73,-346.98"/>
<polygon fill="black" stroke="black" points="79.81,-345.31 72.04,-338.1 73.62,-348.58 79.81,-345.31"/>
</g>
<!-- 4596672080 -->
<g id="node4596672080" class="node">
<title>4596672080</title>
<g id="a_node4596672080"><a xlink:title=" ">
<polygon fill="#fff26e" stroke="#ffdb13" points="91,-266 35,-266 35,-230 91,-230 91,-266"/>
<text text-anchor="start" x="52.5" y="-251.8" font-family="Times,serif" font-weight="bold" font-size="14.00">neg</text>
<text text-anchor="start" x="43" y="-237.8" font-family="Times,serif" font-size="14.00">[200,4]</text>
</a>
</g>
</g>
<!-- 4590883808&#45;&gt;4596672080 -->
<g id="edge5" class="edge">
<title>4590883808&#45;&gt;4596672080</title>
<path fill="none" stroke="black" d="M63,-301.7C63,-293.98 63,-284.71 63,-276.11"/>
<polygon fill="black" stroke="black" points="66.5,-276.1 63,-266.1 59.5,-276.1 66.5,-276.1"/>
</g>
<!-- 4596566064 -->
<g id="node4596566064" class="node">
<title>4596566064</title>
<g id="a_node4596566064"><a xlink:title=" ">
<polygon fill="#fff26e" stroke="#ffdb13" points="91,-194 35,-194 35,-158 91,-158 91,-194"/>
<text text-anchor="start" x="52.5" y="-179.8" font-family="Times,serif" font-weight="bold" font-size="14.00">exp</text>
<text text-anchor="start" x="43" y="-165.8" font-family="Times,serif" font-size="14.00">[200,4]</text>
</a>
</g>
</g>
<!-- 4596672080&#45;&gt;4596566064 -->
<g id="edge6" class="edge">
<title>4596672080&#45;&gt;4596566064</title>
<path fill="none" stroke="black" d="M63,-229.7C63,-221.98 63,-212.71 63,-204.11"/>
<polygon fill="black" stroke="black" points="66.5,-204.1 63,-194.1 59.5,-204.1 66.5,-204.1"/>
</g>
<!-- 4596566672 -->
<g id="node4596566672" class="node">
<title>4596566672</title>
<g id="a_node4596566672"><a xlink:title=" ">
<polygon fill="#fff26e" stroke="#ffdb13" points="108,-122 52,-122 52,-86 108,-86 108,-122"/>
<text text-anchor="start" x="69" y="-107.8" font-family="Times,serif" font-weight="bold" font-size="14.00">add</text>
<text text-anchor="start" x="60" y="-93.8" font-family="Times,serif" font-size="14.00">[200,4]</text>
</a>
</g>
</g>
<!-- 4596566064&#45;&gt;4596566672 -->
<g id="edge8" class="edge">
<title>4596566064&#45;&gt;4596566672</title>
<path fill="none" stroke="black" d="M67.2,-157.7C69.1,-149.9 71.38,-140.51 73.48,-131.83"/>
<polygon fill="black" stroke="black" points="76.89,-132.65 75.85,-122.1 70.08,-131 76.89,-132.65"/>
</g>
<!-- 4596513696 -->
<g id="node4596513696" class="node">
<title>4596513696</title>
<g id="a_node4596513696"><a xlink:title=" ">
<polygon fill="#aabfff" stroke="#0053d6" stroke-width="2" points="136,-50 80,-50 80,0 136,0 136,-50"/>
<text text-anchor="start" x="88.5" y="-35.8" font-family="Times,serif" font-weight="bold" font-size="14.00">output</text>
<text text-anchor="start" x="98.5" y="-21.8" font-family="Times,serif" font-weight="bold" font-size="14.00">div</text>
<text text-anchor="start" x="88" y="-7.8" font-family="Times,serif" font-size="14.00">[200,4]</text>
</a>
</g>
</g>
<!-- 4596566672&#45;&gt;4596513696 -->
<g id="edge10" class="edge">
<title>4596566672&#45;&gt;4596513696</title>
<path fill="none" stroke="black" d="M86.21,-85.91C89.03,-78.17 92.46,-68.73 95.76,-59.66"/>
<polygon fill="black" stroke="black" points="99.13,-60.64 99.25,-50.05 92.55,-58.25 99.13,-60.64"/>
</g>
<!-- 60955435360 -->
<g id="node60955435360" class="node">
<title>60955435360</title>
<polygon fill="#ffdeaf" stroke="#ff8a4f" points="91,-482 35,-482 35,-446 91,-446 91,-482"/>
<text text-anchor="start" x="59.5" y="-467.8" font-family="Times,serif" font-weight="bold" font-size="14.00">x</text>
<text text-anchor="start" x="43" y="-453.8" font-family="Times,serif" font-size="14.00">[200,2]</text>
</g>
<!-- 60955435360&#45;&gt;4596909824 -->
<g id="edge1" class="edge">
<title>60955435360&#45;&gt;4596909824</title>
<path fill="none" stroke="black" d="M72.15,-445.7C76.4,-437.64 81.56,-427.89 86.27,-418.98"/>
<polygon fill="black" stroke="black" points="89.38,-420.58 90.96,-410.1 83.19,-417.31 89.38,-420.58"/>
</g>
<!-- 46719293280 -->
<g id="node46719293280" class="node">
<title>46719293280</title>
<polygon fill="#ffdeaf" stroke="#ff8a4f" points="163,-482 109,-482 109,-446 163,-446 163,-482"/>
<text text-anchor="start" x="131" y="-467.8" font-family="Times,serif" font-weight="bold" font-size="14.00">w</text>
<text text-anchor="start" x="122.5" y="-453.8" font-family="Times,serif" font-size="14.00">[2,4]</text>
</g>
<!-- 46719293280&#45;&gt;4596909824 -->
<g id="edge2" class="edge">
<title>46719293280&#45;&gt;4596909824</title>
<path fill="none" stroke="black" d="M127.1,-445.7C123,-437.73 118.05,-428.1 113.51,-419.26"/>
<polygon fill="black" stroke="black" points="116.48,-417.4 108.8,-410.1 110.26,-420.6 116.48,-417.4"/>
</g>
<!-- 46719310880 -->
<g id="node46719310880" class="node">
<title>46719310880</title>
<polygon fill="#ffdeaf" stroke="#ff8a4f" points="54,-410 0,-410 0,-374 54,-374 54,-410"/>
<text text-anchor="start" x="23" y="-395.8" font-family="Times,serif" font-weight="bold" font-size="14.00">b</text>
<text text-anchor="start" x="19" y="-381.8" font-family="Times,serif" font-size="14.00">[4]</text>
</g>
<!-- 46719310880&#45;&gt;4590883808 -->
<g id="edge3" class="edge">
<title>46719310880&#45;&gt;4590883808</title>
<path fill="none" stroke="black" d="M35.9,-373.7C40,-365.73 44.95,-356.1 49.49,-347.26"/>
<polygon fill="black" stroke="black" points="52.74,-348.6 54.2,-338.1 46.52,-345.4 52.74,-348.6"/>
</g>
<!-- 4349634864 -->
<g id="node10" class="node">
<title>4349634864</title>
<polygon fill="#e6d6ff" stroke="#a261ff" points="163,-194 109,-194 109,-158 163,-158 163,-194"/>
<text text-anchor="start" x="132.5" y="-173.3" font-family="Times,serif" font-weight="bold" font-size="14.00">1</text>
</g>
<!-- 4349634864&#45;&gt;4596566672 -->
<g id="edge7" class="edge">
<title>4349634864&#45;&gt;4596566672</title>
<path fill="none" stroke="black" d="M122.16,-157.7C115.51,-149.39 107.42,-139.28 100.11,-130.14"/>
<polygon fill="black" stroke="black" points="102.66,-127.73 93.68,-122.1 97.2,-132.1 102.66,-127.73"/>
</g>
<!-- 4349634864&#45;&gt;4596513696 -->
<g id="edge9" class="edge">
<title>4349634864&#45;&gt;4596513696</title>
<path fill="none" stroke="black" d="M132.79,-157.91C128.33,-134.18 120.17,-90.74 114.43,-60.21"/>
<polygon fill="black" stroke="black" points="117.8,-59.19 112.51,-50 110.92,-60.48 117.8,-59.19"/>
</g>
</g>
</svg>
