<svg xmlns="http://www.w3.org/2000/svg" xmlns:xlink="http://www.w3.org/1999/xlink" xmlns:inkscape="http://www.inkscape.org/namespaces/inkscape" version="1.1" width="721" height="523" viewBox="0 0 721 523">
<defs>
<clipPath id="clip_0">
<path transform="matrix(1,0,0,-1,0,523)" d="M59.04 73.44H691.19998V464.4H59.04Z"/>
</clipPath>
</defs>
<path transform="matrix(1,0,0,-1,0,523)" d="M0 0H721.44V523.44H0Z" fill="#ffffff"/>
<path transform="matrix(1,0,0,-1,0,523)" d="M82.45 77.31H116.88V232.04H82.45Z" fill="#66cdaa"/>
<path transform="matrix(1,0,0,-1,0,523)" stroke-width=".75" stroke-linecap="round" stroke-linejoin="round" fill="none" stroke="#000000" d="M82.45 77.31H116.88V232.04H82.45Z"/>
<path transform="matrix(1,0,0,-1,0,523)" d="M116.88 77.31H151.31V191.69H116.88Z" fill="#ff7f50"/>
<path transform="matrix(1,0,0,-1,0,523)" stroke-width=".75" stroke-linecap="round" stroke-linejoin="round" fill="none" stroke="#000000" d="M116.88 77.31H151.31V191.69H116.88Z"/>
<path transform="matrix(1,0,0,-1,0,523)" d="M185.75 77.31H220.18V423.41H185.75Z" fill="#66cdaa"/>
<path transform="matrix(1,0,0,-1,0,523)" stroke-width=".75" stroke-linecap="round" stroke-linejoin="round" fill="none" stroke="#000000" d="M185.75 77.31H220.18V423.41H185.75Z"/>
<path transform="matrix(1,0,0,-1,0,523)" d="M220.18 77.31H254.60999V420.45H220.18Z" fill="#ff7f50"/>
<path transform="matrix(1,0,0,-1,0,523)" stroke-width=".75" stroke-linecap="round" stroke-linejoin="round" fill="none" stroke="#000000" d="M220.18 77.31H254.60999V420.45H220.18Z"/>
<path transform="matrix(1,0,0,-1,0,523)" d="M289.04 77.31H323.47V464.4H289.04Z" fill="#66cdaa"/>
<path transform="matrix(1,0,0,-1,0,523)" stroke-width=".75" stroke-linecap="round" stroke-linejoin="round" fill="none" stroke="#000000" d="M289.04 77.31H323.47V464.4H289.04Z"/>
<path transform="matrix(1,0,0,-1,0,523)" d="M323.47 77.31H357.9V458.58H323.47Z" fill="#ff7f50"/>
<path transform="matrix(1,0,0,-1,0,523)" stroke-width=".75" stroke-linecap="round" stroke-linejoin="round" fill="none" stroke="#000000" d="M323.47 77.31H357.9V458.58H323.47Z"/>
<path transform="matrix(1,0,0,-1,0,523)" d="M392.34 77.31H426.77V365.93H392.34Z" fill="#66cdaa"/>
<path transform="matrix(1,0,0,-1,0,523)" stroke-width=".75" stroke-linecap="round" stroke-linejoin="round" fill="none" stroke="#000000" d="M392.34 77.31H426.77V365.93H392.34Z"/>
<path transform="matrix(1,0,0,-1,0,523)" d="M426.77 77.31H461.19999V458.58H426.77Z" fill="#ff7f50"/>
<path transform="matrix(1,0,0,-1,0,523)" stroke-width=".75" stroke-linecap="round" stroke-linejoin="round" fill="none" stroke="#000000" d="M426.77 77.31H461.19999V458.58H426.77Z"/>
<path transform="matrix(1,0,0,-1,0,523)" d="M495.63 77.31H530.06V238.70999H495.63Z" fill="#66cdaa"/>
<path transform="matrix(1,0,0,-1,0,523)" stroke-width=".75" stroke-linecap="round" stroke-linejoin="round" fill="none" stroke="#000000" d="M495.63 77.31H530.06V238.70999H495.63Z"/>
<path transform="matrix(1,0,0,-1,0,523)" d="M530.06 77.31H564.49V229.81999H530.06Z" fill="#ff7f50"/>
<path transform="matrix(1,0,0,-1,0,523)" stroke-width=".75" stroke-linecap="round" stroke-linejoin="round" fill="none" stroke="#000000" d="M530.06 77.31H564.49V229.81999H530.06Z"/>
<path transform="matrix(1,0,0,-1,0,523)" d="M598.92 77.31H633.35V149.51H598.92Z" fill="#66cdaa"/>
<path transform="matrix(1,0,0,-1,0,523)" stroke-width=".75" stroke-linecap="round" stroke-linejoin="round" fill="none" stroke="#000000" d="M598.92 77.31H633.35V149.51H598.92Z"/>
<path transform="matrix(1,0,0,-1,0,523)" d="M633.36 77.31H667.79V153.56H633.36Z" fill="#ff7f50"/>
<path transform="matrix(1,0,0,-1,0,523)" stroke-width=".75" stroke-linecap="round" stroke-linejoin="round" fill="none" stroke="#000000" d="M633.36 77.31H667.79V153.56H633.36Z"/>
<text xml:space="preserve" transform="matrix(1 0 -0 1 0 523)" font-size="12" font-family="Helvetica"><tspan y="-47.52" x="113.55">0</tspan></text>
<text xml:space="preserve" transform="matrix(1 0 -0 1 0 523)" font-size="12" font-family="Helvetica"><tspan y="-47.52" x="216.84">1</tspan></text>
<text xml:space="preserve" transform="matrix(1 0 -0 1 0 523)" font-size="12" font-family="Helvetica"><tspan y="-47.52" x="320.14">2</tspan></text>
<text xml:space="preserve" transform="matrix(1 0 -0 1 0 523)" font-size="12" font-family="Helvetica"><tspan y="-47.52" x="423.43">3</tspan></text>
<text xml:space="preserve" transform="matrix(1 0 -0 1 0 523)" font-size="12" font-family="Helvetica"><tspan y="-47.52" x="526.73">4</tspan></text>
<text xml:space="preserve" transform="matrix(1 0 -0 1 0 523)" font-size="12" font-family="Helvetica"><tspan y="-47.52" x="630.02">5</tspan></text>
<text xml:space="preserve" transform="matrix(1 0 -0 1 0 523)" font-size="12" font-family="Helvetica"><tspan y="-18.72" x="359.45 368.786 375.458 382.13 384.794">Goals</tspan></text>
<text xml:space="preserve" transform="matrix(0 -1 1 0 0 523)" font-size="12" font-family="Helvetica"><tspan y="12.96" x="241.58 248.252 252.248 258.92 265.592 272.264 278.936 281.6 284.264 286.928 290.264">probability</tspan></text>
<path transform="matrix(1,0,0,-1,0,523)" stroke-width=".75" stroke-linecap="round" stroke-linejoin="round" fill="none" stroke="#000000" d="M59.04 77.31V439.52"/>
<path transform="matrix(1,0,0,-1,0,523)" stroke-width=".75" stroke-linecap="round" stroke-linejoin="round" fill="none" stroke="#000000" d="M59.04 77.31H51.84"/>
<path transform="matrix(1,0,0,-1,0,523)" stroke-width=".75" stroke-linecap="round" stroke-linejoin="round" fill="none" stroke="#000000" d="M59.04 149.75H51.84"/>
<path transform="matrix(1,0,0,-1,0,523)" stroke-width=".75" stroke-linecap="round" stroke-linejoin="round" fill="none" stroke="#000000" d="M59.04 222.19H51.84"/>
<path transform="matrix(1,0,0,-1,0,523)" stroke-width=".75" stroke-linecap="round" stroke-linejoin="round" fill="none" stroke="#000000" d="M59.04 294.64H51.84"/>
<path transform="matrix(1,0,0,-1,0,523)" stroke-width=".75" stroke-linecap="round" stroke-linejoin="round" fill="none" stroke="#000000" d="M59.04 367.08H51.84"/>
<path transform="matrix(1,0,0,-1,0,523)" stroke-width=".75" stroke-linecap="round" stroke-linejoin="round" fill="none" stroke="#000000" d="M59.04 439.52H51.84"/>
<text xml:space="preserve" transform="matrix(0 -1 1 0 0 523)" font-size="12" font-family="Helvetica"><tspan y="41.76" x="65.63 72.302 75.638 82.31">0.00</tspan></text>
<text xml:space="preserve" transform="matrix(0 -1 1 0 0 523)" font-size="12" font-family="Helvetica"><tspan y="41.76" x="138.08 144.752 148.088 154.76">0.05</tspan></text>
<text xml:space="preserve" transform="matrix(0 -1 1 0 0 523)" font-size="12" font-family="Helvetica"><tspan y="41.76" x="210.52 217.192 220.528 227.2">0.10</tspan></text>
<text xml:space="preserve" transform="matrix(0 -1 1 0 0 523)" font-size="12" font-family="Helvetica"><tspan y="41.76" x="282.96 289.632 292.968 299.63999">0.15</tspan></text>
<text xml:space="preserve" transform="matrix(0 -1 1 0 0 523)" font-size="12" font-family="Helvetica"><tspan y="41.76" x="355.4 362.072 365.408 372.08">0.20</tspan></text>
<text xml:space="preserve" transform="matrix(0 -1 1 0 0 523)" font-size="12" font-family="Helvetica"><tspan y="41.76" x="427.84 434.512 437.848 444.52">0.25</tspan></text>
<g clip-path="url(#clip_0)">
<path transform="matrix(1,0,0,-1,0,523)" d="M572.64 417.76H580.74V425.86H572.64Z" fill="#66cdaa"/>
<path transform="matrix(1,0,0,-1,0,523)" d="M572.64 375.17H580.74V383.27H572.64Z" fill="#ff7f50"/>
<text xml:space="preserve" transform="matrix(1 0 -0 1 0 523)" font-size="18" font-family="Helvetica"><tspan y="-415.35" x="597.22 608.3259 618.3339 622.3299 631.3299 640.3299 650.3379">Poisson</tspan></text>
<text xml:space="preserve" transform="matrix(1 0 -0 1 0 523)" font-size="18" font-family="Helvetica"><tspan y="-372.75" x="597.22 610.21597 620.22396 630.23196 634.2279 643.2279 653.2359">Chelsea</tspan></text>
</g>
</svg>
