<svg xmlns="http://www.w3.org/2000/svg" xmlns:xlink="http://www.w3.org/1999/xlink" xmlns:inkscape="http://www.inkscape.org/namespaces/inkscape" version="1.1" width="205.27353" height="113.77005" viewBox="0 0 205.27353 113.77005">
<defs>
<clipPath id="clip_0">
<path transform="matrix(1,0,0,-1,-67.18397,195.5632)" d="M67.18397 81.79315H272.4575V195.5632H67.18397Z" clip-rule="evenodd"/>
</clipPath>
<clipPath id="clip_1">
<path transform="matrix(1,0,0,-1,-67.18397,195.5632)" d="M0 0H362.835V272.126H0Z"/>
</clipPath>
<clipPath id="clip_2">
<path transform="matrix(1,0,0,-1,-67.18397,195.5632)" d="M74.268 41.116H288.57V227.6848H74.268Z"/>
</clipPath>
<clipPath id="clip_3">
<path transform="matrix(1,0,0,-1,-67.18397,195.5632)" d="M111.4809 87.40523H269.8249V190.62943H111.4809Z"/>
</clipPath>
<clipPath id="clip_4">
<path transform="matrix(1,0,0,-1,-67.18397,195.5632)" d="M74.268 41.116H288.57V227.6848H74.268Z"/>
</clipPath>
<clipPath id="clip_5">
<path transform="matrix(1,0,0,-1,-67.18397,195.5632)" d="M111.4809 87.40523H269.8249V190.62943H111.4809Z"/>
</clipPath>
<clipPath id="clip_6">
<path transform="matrix(1,0,0,-1,-67.18397,195.5632)" d="M0 0H362.835V272.126H0Z"/>
</clipPath>
</defs>
<g clip-path="url(#clip_0)">
<g clip-path="url(#clip_1)">
<path transform="matrix(1,0,0,-1,-67.18397,195.5632)" d="M0 0H362.835V272.126H0Z" fill="#ffffff"/>
<path transform="matrix(1,0,0,-1,168.28302,192.0762)" stroke-width=".3985" stroke-linecap="butt" stroke-miterlimit="10" stroke-linejoin="miter" fill="none" stroke="#adade0" d="M8.26909 .79701H11.65642V3.18806H8.26909Z"/>
<path transform="matrix(1,0,0,-1,-67.18397,195.5632)" d="M239.4671 3.98698 237.467 5.48702 239.4671 6.98703" fill="#d6d6f0"/>
<path transform="matrix(1,0,0,-1,-67.18397,195.5632)" d="M251.4672 3.98698 253.4672 5.48702 251.4672 6.98703" fill="#d6d6f0"/>
<path transform="matrix(1,0,0,-1,189.20404,192.0762)" stroke-width=".3985" stroke-linecap="butt" stroke-miterlimit="10" stroke-linejoin="miter" fill="none" stroke="#adade0" d="M6.97394 0H10.36127V2.39105H6.97394ZM7.80008 2.40001V3.20003H11.20012V.8H10.4001M8.6001 3.20003V4.00005H12.00015V1.60002H11.20012"/>
<path transform="matrix(1,0,0,-1,-67.18397,195.5632)" d="M260.3881 3.98698 258.388 5.48702 260.3881 6.98703M272.3882 3.98698 274.3882 5.48702 272.3882 6.98703" fill="#d6d6f0"/>
<path transform="matrix(1,0,0,-1,210.12604,192.0762)" stroke-width=".59776" stroke-linecap="butt" stroke-miterlimit="10" stroke-linejoin="miter" fill="none" stroke="#adade0" d="M9.00009 3.00003H12.00015"/>
<path transform="matrix(1,0,0,-1,-67.18397,195.5632)" d="M281.3101 3.98698 279.31 5.48702 281.3101 6.98703M293.3102 3.98698 295.3102 5.48702 293.3102 6.98703" fill="#d6d6f0"/>
<path transform="matrix(1,0,0,-1,210.12604,192.0762)" stroke-width=".59776" stroke-linecap="butt" stroke-miterlimit="10" stroke-linejoin="miter" fill="none" stroke="#d6d6f0" d="M8.00009 4.00005H11.00012M9.00009 2.00002H12.00015M8.00009 1H11.00012M9.00009 0H12.00015"/>
<path transform="matrix(1,0,0,-1,231.04804,192.0762)" stroke-width=".59776" stroke-linecap="butt" stroke-miterlimit="10" stroke-linejoin="miter" fill="none" stroke="#adade0" d="M8.00009 4.00005H11.00012M9.00009 3.00003H12.00015M9.00009 2.00002H12.00015"/>
<path transform="matrix(1,0,0,-1,-67.18397,195.5632)" d="M302.2321 3.98698 300.232 5.48702 302.2321 6.98703M314.2322 3.98698 316.2322 5.48702 314.2322 6.98703" fill="#d6d6f0"/>
<path transform="matrix(1,0,0,-1,231.04804,192.0762)" stroke-width=".59776" stroke-linecap="butt" stroke-miterlimit="10" stroke-linejoin="miter" fill="none" stroke="#d6d6f0" d="M8.00009 1H11.00012M9.00009 0H12.00015"/>
<path transform="matrix(1,0,0,-1,251.96906,192.0762)" stroke-width=".59776" stroke-linecap="butt" stroke-miterlimit="10" stroke-linejoin="miter" fill="none" stroke="#adade0" d="M8.00009 4.00005H11.00012M9.00009 3.00003H12.00015M9.00009 2.00002H12.00015M8.00009 1H11.00012M9.00009 0H12.00015"/>
<path transform="matrix(1,0,0,-1,272.89106,192.0762)" stroke-width=".59776" stroke-linecap="butt" stroke-miterlimit="10" stroke-linejoin="miter" fill="none" stroke="#adade0" d="M10.4001 1.60002 12.00015 0"/>
<path transform="matrix(1,0,0,-1,272.89106,192.0762)" stroke-width=".3985" stroke-linecap="butt" stroke-miterlimit="10" stroke-linejoin="miter" fill="none" stroke="#adade0" d="M10.66016 2.49069C10.66016 3.15096 10.1249 3.68622 9.46463 3.68622 8.80435 3.68622 8.26909 3.15096 8.26909 2.49069 8.26909 1.83041 8.80435 1.29515 9.46463 1.29515 10.1249 1.29515 10.66016 1.83041 10.66016 2.49069ZM9.46463 2.49069"/>
<path transform="matrix(1,0,0,-1,272.89106,192.0762)" stroke-width=".3985" stroke-linecap="round" stroke-miterlimit="10" stroke-linejoin="miter" fill="none" stroke="#adade0" d="M4.00005 0C5.08101 0 6.00006 .9 6.00006 2.00002 6.00006 3.10002 5.10005 4.00005 4.00005 4.00005 2.90001 4.00005 2.00002 3.10002 2.00002 2.00002M3.20003 2.60002 2.00002 1.60002 .8 2.60002M16.0002 0C14.90016 0 14.00017 .9 14.00017 2.00002 14.00017 3.10002 14.90016 4.00005 16.0002 4.00005 17.1002 4.00005 18.00021 3.10002 18.00021 2.00002M19.20023 2.60002 18.00021 1.60002 16.8002 2.60002"/>
<text fill="#3333b2" xml:space="preserve" transform="matrix(1 0 -0 1 -67.18397 195.5632)" font-size="17.2154" font-family="URWPalladioL"><tspan y="-248.782" x="8.504 19.02261 27.63031 34.92964 43.17582 52.69594 61.30364 66.313327 75.626857 88.95158 97.55928 103.1715">BaseballData</tspan></text>
<text fill="#3333b2" xml:space="preserve" transform="matrix(1 0 -0 1 -67.18397 195.5632)" font-size="9.9626" font-family="URWPalladioL"><tspan y="-232.842" x="8.504 14.043205 16.942322 20.877549 25.10169 30.840149 36.070516 41.868749 45.803976 48.70309 54.501325 60.04053 65.02183 70.561038 77.82377 83.91092 88.13506 91.38287 94.28199 103.078968 108.060268 111.308078 116.74766 120.682888 126.26194 132.34909 135.66664 139.42255 144.86212 153.151 158.1323 163.93053 172.50832 181.93294 187.37252 191.30774 195.24297 198.14209">FirstShrinkageEstimator:EfronandMorris</tspan></text>
</g>
<g clip-path="url(#clip_2)">
<path transform="matrix(1,0,0,-1,-67.18397,195.5632)" d="M74.268 41.116H288.8852V227.84239H74.268Z" fill="#ffffff"/>
</g>
<g clip-path="url(#clip_3)">
<text xml:space="preserve" transform="matrix(.6303 0 -0 .6303 7.08403 154.4472)" font-size="16" font-family="Helvetica"><tspan y="-220.69" x="110.85"> </tspan></text>
<text xml:space="preserve" transform="matrix(.6303 0 -0 .6303 7.08403 154.4472)" font-size="16" font-family="Helvetica"><tspan y="-195.59" x="200.32"> </tspan></text>
<text xml:space="preserve" transform="matrix(.6303 0 -0 .6303 7.08403 154.4472)" font-size="16" font-family="Helvetica"><tspan y="-165.06" x="289.79"> </tspan></text>
</g>
<g clip-path="url(#clip_4)">
<path transform="matrix(.6303,0,0,-.6303,7.08403,154.4472)" stroke-width=".75" stroke-linecap="round" stroke-linejoin="round" fill="none" stroke="#000000" d="M59.04 89.96V220.69"/>
<path transform="matrix(.6303,0,0,-.6303,7.08403,154.4472)" stroke-width=".75" stroke-linecap="round" stroke-linejoin="round" fill="none" stroke="#000000" d="M59.04 89.96H51.84"/>
<path transform="matrix(.6303,0,0,-.6303,7.08403,154.4472)" stroke-width=".75" stroke-linecap="round" stroke-linejoin="round" fill="none" stroke="#000000" d="M59.04 116.11H51.84"/>
<path transform="matrix(.6303,0,0,-.6303,7.08403,154.4472)" stroke-width=".75" stroke-linecap="round" stroke-linejoin="round" fill="none" stroke="#000000" d="M59.04 142.25H51.84"/>
<path transform="matrix(.6303,0,0,-.6303,7.08403,154.4472)" stroke-width=".75" stroke-linecap="round" stroke-linejoin="round" fill="none" stroke="#000000" d="M59.04 168.4H51.84"/>
<path transform="matrix(.6303,0,0,-.6303,7.08403,154.4472)" stroke-width=".75" stroke-linecap="round" stroke-linejoin="round" fill="none" stroke="#000000" d="M59.04 194.54H51.84"/>
<path transform="matrix(.6303,0,0,-.6303,7.08403,154.4472)" stroke-width=".75" stroke-linecap="round" stroke-linejoin="round" fill="none" stroke="#000000" d="M59.04 220.69H51.84"/>
<text xml:space="preserve" transform="matrix(0 -.6303 .6303 0 7.08403 154.4472)" font-size="16" font-family="Helvetica"><tspan y="41.76" x="74.4 83.296009 87.744 96.64001">0.15</tspan></text>
<text xml:space="preserve" transform="matrix(0 -.6303 .6303 0 7.08403 154.4472)" font-size="16" font-family="Helvetica"><tspan y="41.76" x="126.68 135.576 140.024 148.92">0.25</tspan></text>
<text xml:space="preserve" transform="matrix(0 -.6303 .6303 0 7.08403 154.4472)" font-size="16" font-family="Helvetica"><tspan y="41.76" x="178.97 187.866 192.314 201.20999">0.35</tspan></text>
<path transform="matrix(.6303,0,0,-.6303,7.08403,154.4472)" stroke-width=".75" stroke-linecap="round" stroke-linejoin="round" fill="none" stroke="#000000" d="M59.04 73.44H310.26V237.21H59.04V73.44"/>
<text xml:space="preserve" transform="matrix(.6303 0 -0 .6303 7.08403 154.4472)" font-size="16" font-family="Helvetica"><tspan y="-18.72" x="180.2">a</tspan></text>
<text xml:space="preserve" transform="matrix(0 -.6303 .6303 0 7.08403 154.4472)" font-size="16" font-family="Helvetica"><tspan y="12.96" x="91.73 100.62601 105.95401 114.85001 123.74602 127.29802 135.29802 139.74602 148.64202 157.53801 161.98601 170.562 178.162 187.058 192.226 201.122 210.01799">predicted average</tspan></text>
</g>
<g clip-path="url(#clip_5)">
<text fill="#ff0000" xml:space="preserve" transform="matrix(.6303 0 -0 .6303 7.08403 154.4472)" font-size="16" font-family="Helvetica"><tspan y="-209.18" x="110.85"> </tspan></text>
<text fill="#ff0000" xml:space="preserve" transform="matrix(.6303 0 -0 .6303 7.08403 154.4472)" font-size="16" font-family="Helvetica"><tspan y="-171.53" x="200.32"> </tspan></text>
<text fill="#ff0000" xml:space="preserve" transform="matrix(.6303 0 -0 .6303 7.08403 154.4472)" font-size="16" font-family="Helvetica"><tspan y="-162.62" x="289.79"> </tspan></text>
<text fill="#00cd00" xml:space="preserve" transform="matrix(.6303 0 -0 .6303 7.08403 154.4472)" font-size="16" font-family="Helvetica"><tspan y="-197.68" x="110.85"> </tspan></text>
<text fill="#00cd00" xml:space="preserve" transform="matrix(.6303 0 -0 .6303 7.08403 154.4472)" font-size="16" font-family="Helvetica"><tspan y="-159.51" x="200.32"> </tspan></text>
<text fill="#00cd00" xml:space="preserve" transform="matrix(.6303 0 -0 .6303 7.08403 154.4472)" font-size="16" font-family="Helvetica"><tspan y="-160.18" x="289.79"> </tspan></text>
<text fill="#0000ff" xml:space="preserve" transform="matrix(.6303 0 -0 .6303 7.08403 154.4472)" font-size="16" font-family="Helvetica"><tspan y="-185.65" x="110.85"> </tspan></text>
<text fill="#0000ff" xml:space="preserve" transform="matrix(.6303 0 -0 .6303 7.08403 154.4472)" font-size="16" font-family="Helvetica"><tspan y="-135.98" x="200.32"> </tspan></text>
<text fill="#0000ff" xml:space="preserve" transform="matrix(.6303 0 -0 .6303 7.08403 154.4472)" font-size="16" font-family="Helvetica"><tspan y="-157.63" x="289.79"> </tspan></text>
<text fill="#00ffff" xml:space="preserve" transform="matrix(.6303 0 -0 .6303 7.08403 154.4472)" font-size="16" font-family="Helvetica"><tspan y="-174.15" x="110.85"> </tspan></text>
<text fill="#00ffff" xml:space="preserve" transform="matrix(.6303 0 -0 .6303 7.08403 154.4472)" font-size="16" font-family="Helvetica"><tspan y="-155.85" x="200.32"> </tspan></text>
<text fill="#00ffff" xml:space="preserve" transform="matrix(.6303 0 -0 .6303 7.08403 154.4472)" font-size="16" font-family="Helvetica"><tspan y="-155.2" x="289.79"> </tspan></text>
<text fill="#ff00ff" xml:space="preserve" transform="matrix(.6303 0 -0 .6303 7.08403 154.4472)" font-size="16" font-family="Helvetica"><tspan y="-174.15" x="110.85"> </tspan></text>
<text fill="#ff00ff" xml:space="preserve" transform="matrix(.6303 0 -0 .6303 7.08403 154.4472)" font-size="16" font-family="Helvetica"><tspan y="-154.8" x="200.32"> </tspan></text>
<text fill="#ff00ff" xml:space="preserve" transform="matrix(.6303 0 -0 .6303 7.08403 154.4472)" font-size="16" font-family="Helvetica"><tspan y="-155.2" x="289.79"> </tspan></text>
<text xml:space="preserve" transform="matrix(.6303 0 -0 .6303 7.08403 154.4472)" font-size="16" font-family="Helvetica"><tspan y="-162.65" x="110.85"> </tspan></text>
<text xml:space="preserve" transform="matrix(.6303 0 -0 .6303 7.08403 154.4472)" font-size="16" font-family="Helvetica"><tspan y="-150.62" x="200.32"> </tspan></text>
<text xml:space="preserve" transform="matrix(.6303 0 -0 .6303 7.08403 154.4472)" font-size="16" font-family="Helvetica"><tspan y="-152.76" x="289.79"> </tspan></text>
<text fill="#ff0000" xml:space="preserve" transform="matrix(.6303 0 -0 .6303 7.08403 154.4472)" font-size="16" font-family="Helvetica"><tspan y="-151.14" x="110.85"> </tspan></text>
<text fill="#ff0000" xml:space="preserve" transform="matrix(.6303 0 -0 .6303 7.08403 154.4472)" font-size="16" font-family="Helvetica"><tspan y="-128.66" x="200.32"> </tspan></text>
<text fill="#ff0000" xml:space="preserve" transform="matrix(.6303 0 -0 .6303 7.08403 154.4472)" font-size="16" font-family="Helvetica"><tspan y="-150.32" x="289.79"> </tspan></text>
<text fill="#00cd00" xml:space="preserve" transform="matrix(.6303 0 -0 .6303 7.08403 154.4472)" font-size="16" font-family="Helvetica"><tspan y="-139.12" x="110.85"> </tspan></text>
<text fill="#00cd00" xml:space="preserve" transform="matrix(.6303 0 -0 .6303 7.08403 154.4472)" font-size="16" font-family="Helvetica"><tspan y="-151.14" x="200.32"> </tspan></text>
<text fill="#00cd00" xml:space="preserve" transform="matrix(.6303 0 -0 .6303 7.08403 154.4472)" font-size="16" font-family="Helvetica"><tspan y="-147.77" x="289.79"> </tspan></text>
<text fill="#0000ff" xml:space="preserve" transform="matrix(.6303 0 -0 .6303 7.08403 154.4472)" font-size="16" font-family="Helvetica"><tspan y="-139.12" x="110.85"> </tspan></text>
<text fill="#0000ff" xml:space="preserve" transform="matrix(.6303 0 -0 .6303 7.08403 154.4472)" font-size="16" font-family="Helvetica"><tspan y="-133.36" x="200.32"> </tspan></text>
<text fill="#0000ff" xml:space="preserve" transform="matrix(.6303 0 -0 .6303 7.08403 154.4472)" font-size="16" font-family="Helvetica"><tspan y="-147.77" x="289.79"> </tspan></text>
<text fill="#00ffff" xml:space="preserve" transform="matrix(.6303 0 -0 .6303 7.08403 154.4472)" font-size="16" font-family="Helvetica"><tspan y="-127.61" x="110.85"> </tspan></text>
<text fill="#00ffff" xml:space="preserve" transform="matrix(.6303 0 -0 .6303 7.08403 154.4472)" font-size="16" font-family="Helvetica"><tspan y="-148" x="200.32"> </tspan></text>
<text fill="#00ffff" xml:space="preserve" transform="matrix(.6303 0 -0 .6303 7.08403 154.4472)" font-size="16" font-family="Helvetica"><tspan y="-145.33" x="289.79"> </tspan></text>
<text fill="#ff00ff" xml:space="preserve" transform="matrix(.6303 0 -0 .6303 7.08403 154.4472)" font-size="16" font-family="Helvetica"><tspan y="-127.61" x="110.85"> </tspan></text>
<text fill="#ff00ff" xml:space="preserve" transform="matrix(.6303 0 -0 .6303 7.08403 154.4472)" font-size="16" font-family="Helvetica"><tspan y="-129.18" x="200.32"> </tspan></text>
<text fill="#ff00ff" xml:space="preserve" transform="matrix(.6303 0 -0 .6303 7.08403 154.4472)" font-size="16" font-family="Helvetica"><tspan y="-145.33" x="289.79"> </tspan></text>
<text xml:space="preserve" transform="matrix(.6303 0 -0 .6303 7.08403 154.4472)" font-size="16" font-family="Helvetica"><tspan y="-127.61" x="110.85"> </tspan></text>
<text xml:space="preserve" transform="matrix(.6303 0 -0 .6303 7.08403 154.4472)" font-size="16" font-family="Helvetica"><tspan y="-166.31" x="200.32"> </tspan></text>
<text xml:space="preserve" transform="matrix(.6303 0 -0 .6303 7.08403 154.4472)" font-size="16" font-family="Helvetica"><tspan y="-145.33" x="289.79"> </tspan></text>
<text fill="#ff0000" xml:space="preserve" transform="matrix(.6303 0 -0 .6303 7.08403 154.4472)" font-size="16" font-family="Helvetica"><tspan y="-127.61" x="110.85"> </tspan></text>
<text fill="#ff0000" xml:space="preserve" transform="matrix(.6303 0 -0 .6303 7.08403 154.4472)" font-size="16" font-family="Helvetica"><tspan y="-146.44" x="200.32"> </tspan></text>
<text fill="#ff0000" xml:space="preserve" transform="matrix(.6303 0 -0 .6303 7.08403 154.4472)" font-size="16" font-family="Helvetica"><tspan y="-145.33" x="289.79"> </tspan></text>
<text fill="#00cd00" xml:space="preserve" transform="matrix(.6303 0 -0 .6303 7.08403 154.4472)" font-size="16" font-family="Helvetica"><tspan y="-127.61" x="110.85"> </tspan></text>
<text fill="#00cd00" xml:space="preserve" transform="matrix(.6303 0 -0 .6303 7.08403 154.4472)" font-size="16" font-family="Helvetica"><tspan y="-142.78" x="200.32"> </tspan></text>
<text fill="#00cd00" xml:space="preserve" transform="matrix(.6303 0 -0 .6303 7.08403 154.4472)" font-size="16" font-family="Helvetica"><tspan y="-145.33" x="289.79"> </tspan></text>
<text fill="#0000ff" xml:space="preserve" transform="matrix(.6303 0 -0 .6303 7.08403 154.4472)" font-size="16" font-family="Helvetica"><tspan y="-116.11" x="110.85"> </tspan></text>
<text fill="#0000ff" xml:space="preserve" transform="matrix(.6303 0 -0 .6303 7.08403 154.4472)" font-size="16" font-family="Helvetica"><tspan y="-157.42" x="200.32"> </tspan></text>
<text fill="#0000ff" xml:space="preserve" transform="matrix(.6303 0 -0 .6303 7.08403 154.4472)" font-size="16" font-family="Helvetica"><tspan y="-142.89" x="289.79"> </tspan></text>
<text fill="#00ffff" xml:space="preserve" transform="matrix(.6303 0 -0 .6303 7.08403 154.4472)" font-size="16" font-family="Helvetica"><tspan y="-104.6" x="110.85"> </tspan></text>
<text fill="#00ffff" xml:space="preserve" transform="matrix(.6303 0 -0 .6303 7.08403 154.4472)" font-size="16" font-family="Helvetica"><tspan y="-169.44" x="200.32"> </tspan></text>
<text fill="#00ffff" xml:space="preserve" transform="matrix(.6303 0 -0 .6303 7.08403 154.4472)" font-size="16" font-family="Helvetica"><tspan y="-140.45" x="289.79"> </tspan></text>
<text fill="#ff00ff" xml:space="preserve" transform="matrix(.6303 0 -0 .6303 7.08403 154.4472)" font-size="16" font-family="Helvetica"><tspan y="-93.1" x="110.85"> </tspan></text>
<text fill="#ff00ff" xml:space="preserve" transform="matrix(.6303 0 -0 .6303 7.08403 154.4472)" font-size="16" font-family="Helvetica"><tspan y="-107.22" x="200.32"> </tspan></text>
<text fill="#ff00ff" xml:space="preserve" transform="matrix(.6303 0 -0 .6303 7.08403 154.4472)" font-size="16" font-family="Helvetica"><tspan y="-138.01" x="289.79"> </tspan></text>
<path transform="matrix(.6303,0,0,-.6303,7.08403,154.4472)" stroke-width=".75" stroke-linecap="round" stroke-linejoin="round" fill="none" stroke="#000000" d="M113.08 220.69 202.54 195.59 292.01 165.06"/>
<path transform="matrix(.6303,0,0,-.6303,7.08403,154.4472)" stroke-width=".75" stroke-linecap="round" stroke-dasharray="2.25,3.75" stroke-linejoin="round" fill="none" stroke="#ff0000" d="M113.08 209.18 202.54 171.53 292.01 162.62"/>
<path transform="matrix(.6303,0,0,-.6303,7.08403,154.4472)" stroke-width=".75" stroke-linecap="round" stroke-dasharray="0,3" stroke-linejoin="round" fill="none" stroke="#00cd00" d="M113.08 197.68 202.54 159.51 292.01 160.18"/>
<path transform="matrix(.6303,0,0,-.6303,7.08403,154.4472)" stroke-width=".75" stroke-linecap="round" stroke-dasharray="0,3,2.25,3" stroke-linejoin="round" fill="none" stroke="#0000ff" d="M113.08 185.65 202.54 135.98 292.01 157.63"/>
<path transform="matrix(.6303,0,0,-.6303,7.08403,154.4472)" stroke-width=".75" stroke-linecap="round" stroke-dasharray="4.5,3" stroke-linejoin="round" fill="none" stroke="#00ffff" d="M113.08 174.15 202.54 155.85 292.01 155.2"/>
<path transform="matrix(.6303,0,0,-.6303,7.08403,154.4472)" stroke-width=".75" stroke-linecap="round" stroke-linejoin="round" fill="none" stroke="#ff00ff" d="M113.08 174.15 202.54 154.8 292.01 155.2"/>
<path transform="matrix(.6303,0,0,-.6303,7.08403,154.4472)" stroke-width=".75" stroke-linecap="round" stroke-dasharray="2.25,3.75" stroke-linejoin="round" fill="none" stroke="#000000" d="M113.08 162.65 202.54 150.62 292.01 152.76"/>
<path transform="matrix(.6303,0,0,-.6303,7.08403,154.4472)" stroke-width=".75" stroke-linecap="round" stroke-dasharray="0,3" stroke-linejoin="round" fill="none" stroke="#ff0000" d="M113.08 151.14 202.54 128.66 292.01 150.32"/>
<path transform="matrix(.6303,0,0,-.6303,7.08403,154.4472)" stroke-width=".75" stroke-linecap="round" stroke-dasharray="0,3,2.25,3" stroke-linejoin="round" fill="none" stroke="#00cd00" d="M113.08 139.12 202.54 151.14 292.01 147.77"/>
<path transform="matrix(.6303,0,0,-.6303,7.08403,154.4472)" stroke-width=".75" stroke-linecap="round" stroke-dasharray="4.5,3" stroke-linejoin="round" fill="none" stroke="#0000ff" d="M113.08 139.12 202.54 133.36 292.01 147.77"/>
<path transform="matrix(.6303,0,0,-.6303,7.08403,154.4472)" stroke-width=".75" stroke-linecap="round" stroke-linejoin="round" fill="none" stroke="#00ffff" d="M113.08 127.61 202.54 148 292.01 145.33"/>
<path transform="matrix(.6303,0,0,-.6303,7.08403,154.4472)" stroke-width=".75" stroke-linecap="round" stroke-dasharray="2.25,3.75" stroke-linejoin="round" fill="none" stroke="#ff00ff" d="M113.08 127.61 202.54 129.18 292.01 145.33"/>
<path transform="matrix(.6303,0,0,-.6303,7.08403,154.4472)" stroke-width=".75" stroke-linecap="round" stroke-dasharray="0,3" stroke-linejoin="round" fill="none" stroke="#000000" d="M113.08 127.61 202.54 166.31 292.01 145.33"/>
<path transform="matrix(.6303,0,0,-.6303,7.08403,154.4472)" stroke-width=".75" stroke-linecap="round" stroke-dasharray="0,3,2.25,3" stroke-linejoin="round" fill="none" stroke="#ff0000" d="M113.08 127.61 202.54 146.44 292.01 145.33"/>
<path transform="matrix(.6303,0,0,-.6303,7.08403,154.4472)" stroke-width=".75" stroke-linecap="round" stroke-dasharray="4.5,3" stroke-linejoin="round" fill="none" stroke="#00cd00" d="M113.08 127.61 202.54 142.78 292.01 145.33"/>
<path transform="matrix(.6303,0,0,-.6303,7.08403,154.4472)" stroke-width=".75" stroke-linecap="round" stroke-linejoin="round" fill="none" stroke="#0000ff" d="M113.08 116.11 202.54 157.42 292.01 142.89"/>
<path transform="matrix(.6303,0,0,-.6303,7.08403,154.4472)" stroke-width=".75" stroke-linecap="round" stroke-dasharray="2.25,3.75" stroke-linejoin="round" fill="none" stroke="#00ffff" d="M113.08 104.6 202.54 169.44 292.01 140.45"/>
<path transform="matrix(.6303,0,0,-.6303,7.08403,154.4472)" stroke-width=".75" stroke-linecap="round" stroke-dasharray="0,3" stroke-linejoin="round" fill="none" stroke="#ff00ff" d="M113.08 93.1 202.54 107.22 292.01 138.01"/>
<text xml:space="preserve" transform="matrix(.6303 0 -0 .6303 7.08403 154.4472)" font-size="10" font-family="Helvetica"><tspan y="-217.1" x="64.84 72.06 74.28 79.84 88.17 93.729999 99.28999 102.06999">Clemente</tspan></text>
<text xml:space="preserve" transform="matrix(.6303 0 -0 .6303 7.08403 154.4472)" font-size="10" font-family="Helvetica"><tspan y="-205.67" x="65.12 72.340007 77.9 83.46 85.68 91.24 96.24 101.799999">Robinson</tspan></text>
<text xml:space="preserve" transform="matrix(.6303 0 -0 .6303 7.08403 154.4472)" font-size="10" font-family="Helvetica"><tspan y="-194.16" x="69.16 76.380008 81.79 88.86 94.42 97.75">Howard</tspan></text>
<text xml:space="preserve" transform="matrix(.6303 0 -0 .6303 7.08403 154.4472)" font-size="10" font-family="Helvetica"><tspan y="-182.16" x="63.17 68.17 73.729999 79.28999 84.84999 89.84999 92.62999 98.18999 103.749988">Johnstone</tspan></text>
<text xml:space="preserve" transform="matrix(.6303 0 -0 .6303 7.08403 154.4472)" font-size="10" font-family="Helvetica"><tspan y="-171.63" x="74.14 80.81 86.369998 89.7 93.33">Berry</tspan></text>
<text xml:space="preserve" transform="matrix(.6303 0 -0 .6303 7.08403 154.4472)" font-size="10" font-family="Helvetica"><tspan y="-160.16" x="64.21 70.479999 76.03999 81.03999 86.03999 88.259998 93.81999 99.37999 104.93999">Kessinger</tspan></text>
<text xml:space="preserve" transform="matrix(.6303 0 -0 .6303 7.08403 154.4472)" font-size="10" font-family="Helvetica"><tspan y="-147.63" x="66.68 73.35 75.57 80.32 85.88 89.11 94.67 100.229999">Alvarado</tspan></text>
<text xml:space="preserve" transform="matrix(.6303 0 -0 .6303 7.08403 154.4472)" font-size="10" font-family="Helvetica"><tspan y="-135.53" x="73.17 79.84 85.399997 90.95999 93.73999">Santo</tspan></text>
<text xml:space="preserve" transform="matrix(.6303 0 -0 .6303 7.08403 154.4472)" font-size="10" font-family="Helvetica"><tspan y="-124.1" x="65.93 72.1 77.659999 80.439998 83.77 89.329998 94.329998 99.88999 102.10999 104.329998">Petrocelli</tspan></text>
<text xml:space="preserve" transform="matrix(.6303 0 -0 .6303 7.08403 154.4472)" font-size="10" font-family="Helvetica"><tspan y="-113.46" x="59.21 66.43 71.99 80.32 85.88 91.439998 96.99999 102.55999 106.03999 108.259998">Campaneris</tspan></text>
<text xml:space="preserve" transform="matrix(.6303 0 -0 .6303 7.08403 154.4472)" font-size="10" font-family="Helvetica"><tspan y="-101.09" x="68.45 76.78 82.34 87.899997 92.899997 98.45999">Munson</tspan></text>
<text xml:space="preserve" transform="matrix(.6303 0 -0 .6303 7.08403 154.4472)" font-size="10" font-family="Helvetica"><tspan y="-89.59" x="75.68 82.35 84.57 89.57 91.79">Alvis</tspan></text>
<text xml:space="preserve" transform="matrix(.6303 0 -0 .6303 7.08403 154.4472)" font-size="8" font-family="Helvetica"><tspan y="-86.66" x="99.74 104.628 106.404 109.068 113.068 115.292 117.516 121.964">First 45</tspan></text>
<text xml:space="preserve" transform="matrix(.6303 0 -0 .6303 7.08403 154.4472)" font-size="8" font-family="Helvetica"><tspan y="-77.06" x="101.07 105.518 107.742 109.965999 114.413997 118.86199 121.08599">at bats</tspan></text>
<text xml:space="preserve" transform="matrix(.6303 0 -0 .6303 7.08403 154.4472)" font-size="8" font-family="Helvetica"><tspan y="-86.66" x="187.95 192.96599 196.76599 201.21399 203.79799 208.24599 212.69399">Average</tspan></text>
<text xml:space="preserve" transform="matrix(.6303 0 -0 .6303 7.08403 154.4472)" font-size="8" font-family="Helvetica"><tspan y="-77.06" x="180.09 184.538 186.762 188.986 191.65 196.09799 202.762 207.20999 208.986 213.43399 217.88199 222.32999">of remainder</tspan></text>
<text xml:space="preserve" transform="matrix(.6303 0 -0 .6303 7.08403 154.4472)" font-size="8" font-family="Helvetica"><tspan y="-86.66" x="285.01">J</tspan></text>
<text xml:space="preserve" transform="matrix(.6303 0 -0 .6303 7.08403 154.4472)" font-size="8" font-family="Helvetica"><tspan y="-86.66" x="289.01">&#x2212;</tspan></text>
<text xml:space="preserve" transform="matrix(.6303 0 -0 .6303 7.08403 154.4472)" font-size="8" font-family="Helvetica"><tspan y="-86.66" x="293.682">S</tspan></text>
<text xml:space="preserve" transform="matrix(.6303 0 -0 .6303 7.08403 154.4472)" font-size="8" font-family="Helvetica"><tspan y="-77.06" x="275.56 280.008 284.008 286.232 288.008 294.672 299.12 301.344 305.792">estimator</tspan></text>
</g>
<g clip-path="url(#clip_6)">
<text fill="#3333b2" xml:space="preserve" transform="matrix(1 0 -0 1 -67.18397 195.5632)" font-size="10.9091" font-family="URWPalladioL"><tspan y="-19.696" x="115.762 121.82746 125.00201 131.06746 137.64565 141.75838 149.71112">Figure:</tspan></text>
<text xml:space="preserve" transform="matrix(1 0 -0 1 -67.18397 195.5632)" font-size="10.9091" font-family="URWPalladioL"><tspan y="-19.696" x="155.8202 162.48567 167.94022 172.56568 177.79114 183.82387 189.27841 192.45296 198.35478 204.08206 210.43115 214.74025 217.9148 224.26389 230.32935 235.78389 241.84935">BaseballShrinkage</tspan></text>
</g>
</g>
</svg>
