<svg xmlns="http://www.w3.org/2000/svg" xmlns:xlink="http://www.w3.org/1999/xlink" xmlns:inkscape="http://www.inkscape.org/namespaces/inkscape" version="1.1" width="200.31519" height="168.7498" viewBox="0 0 200.31519 168.7498">
<defs>
<clipPath id="clip_0">
<path transform="matrix(1,0,0,-1,-77.8771,202.1857)" d="M77.8771 33.4359H278.1923V202.1857H77.8771Z" clip-rule="evenodd"/>
</clipPath>
<clipPath id="clip_1">
<path transform="matrix(1,0,0,-1,-77.8771,202.1857)" d="M0 0H362.835V272.126H0Z"/>
</clipPath>
<clipPath id="clip_2">
<path transform="matrix(1,0,0,-1,-77.8771,202.1857)" d="M42.815 14.402H320.015V228.60199H42.815Z"/>
</clipPath>
<clipPath id="clip_3">
<path transform="matrix(1,0,0,-1,-77.8771,202.1857)" d="M96.52507 55.45673H275.88047V181.24073H96.52507Z"/>
</clipPath>
<clipPath id="clip_4">
<path transform="matrix(1,0,0,-1,-77.8771,202.1857)" d="M76.88221 31.02293H285.941V200.88314H76.88221Z"/>
</clipPath>
<clipPath id="clip_5">
<path transform="matrix(1,0,0,-1,-77.8771,202.1857)" d="M96.52507 55.45673H275.88047V181.24073H96.52507Z"/>
</clipPath>
<clipPath id="clip_6">
<path transform="matrix(1,0,0,-1,-77.8771,202.1857)" d="M42.815 14.402H320.015V228.60199H42.815Z"/>
</clipPath>
</defs>
<g clip-path="url(#clip_0)">
<g clip-path="url(#clip_1)">
<path transform="matrix(1,0,0,-1,-77.8771,202.1857)" d="M0 0H362.835V272.126H0Z" fill="#ffffff"/>
<path transform="matrix(1,0,0,-1,157.5899,198.6987)" stroke-width=".3985" stroke-linecap="butt" stroke-miterlimit="10" stroke-linejoin="miter" fill="none" stroke="#adade0" d="M8.26909 .79701H11.65642V3.18806H8.26909Z"/>
<path transform="matrix(1,0,0,-1,-77.8771,202.1857)" d="M239.4671 3.98698 237.467 5.48702 239.4671 6.98703" fill="#d6d6f0"/>
<path transform="matrix(1,0,0,-1,-77.8771,202.1857)" d="M251.4672 3.98698 253.4672 5.48702 251.4672 6.98703" fill="#d6d6f0"/>
<path transform="matrix(1,0,0,-1,178.5109,198.6987)" stroke-width=".3985" stroke-linecap="butt" stroke-miterlimit="10" stroke-linejoin="miter" fill="none" stroke="#adade0" d="M6.97394 0H10.36127V2.39105H6.97394ZM7.80008 2.40001V3.20003H11.20012V.8H10.4001M8.6001 3.20003V4.00005H12.00015V1.60002H11.20012"/>
<path transform="matrix(1,0,0,-1,-77.8771,202.1857)" d="M260.3881 3.98698 258.388 5.48702 260.3881 6.98703M272.3882 3.98698 274.3882 5.48702 272.3882 6.98703" fill="#d6d6f0"/>
<path transform="matrix(1,0,0,-1,199.43289,198.6987)" stroke-width=".59776" stroke-linecap="butt" stroke-miterlimit="10" stroke-linejoin="miter" fill="none" stroke="#adade0" d="M9.00009 3.00003H12.00015"/>
<path transform="matrix(1,0,0,-1,-77.8771,202.1857)" d="M281.3101 3.98698 279.31 5.48702 281.3101 6.98703M293.3102 3.98698 295.3102 5.48702 293.3102 6.98703" fill="#d6d6f0"/>
<path transform="matrix(1,0,0,-1,199.43289,198.6987)" stroke-width=".59776" stroke-linecap="butt" stroke-miterlimit="10" stroke-linejoin="miter" fill="none" stroke="#d6d6f0" d="M8.00009 4.00005H11.00012M9.00009 2.00002H12.00015M8.00009 1H11.00012M9.00009 0H12.00015"/>
<path transform="matrix(1,0,0,-1,220.35489,198.6987)" stroke-width=".59776" stroke-linecap="butt" stroke-miterlimit="10" stroke-linejoin="miter" fill="none" stroke="#adade0" d="M8.00009 4.00005H11.00012M9.00009 3.00003H12.00015M9.00009 2.00002H12.00015"/>
<path transform="matrix(1,0,0,-1,-77.8771,202.1857)" d="M302.2321 3.98698 300.232 5.48702 302.2321 6.98703M314.2322 3.98698 316.2322 5.48702 314.2322 6.98703" fill="#d6d6f0"/>
<path transform="matrix(1,0,0,-1,220.35489,198.6987)" stroke-width=".59776" stroke-linecap="butt" stroke-miterlimit="10" stroke-linejoin="miter" fill="none" stroke="#d6d6f0" d="M8.00009 1H11.00012M9.00009 0H12.00015"/>
<path transform="matrix(1,0,0,-1,241.27591,198.6987)" stroke-width=".59776" stroke-linecap="butt" stroke-miterlimit="10" stroke-linejoin="miter" fill="none" stroke="#adade0" d="M8.00009 4.00005H11.00012M9.00009 3.00003H12.00015M9.00009 2.00002H12.00015M8.00009 1H11.00012M9.00009 0H12.00015"/>
<path transform="matrix(1,0,0,-1,262.1979,198.6987)" stroke-width=".59776" stroke-linecap="butt" stroke-miterlimit="10" stroke-linejoin="miter" fill="none" stroke="#adade0" d="M10.4001 1.60002 12.00015 0"/>
<path transform="matrix(1,0,0,-1,262.1979,198.6987)" stroke-width=".3985" stroke-linecap="butt" stroke-miterlimit="10" stroke-linejoin="miter" fill="none" stroke="#adade0" d="M10.66016 2.49069C10.66016 3.15096 10.1249 3.68622 9.46463 3.68622 8.80435 3.68622 8.26909 3.15096 8.26909 2.49069 8.26909 1.83041 8.80435 1.29515 9.46463 1.29515 10.1249 1.29515 10.66016 1.83041 10.66016 2.49069ZM9.46463 2.49069"/>
<path transform="matrix(1,0,0,-1,262.1979,198.6987)" stroke-width=".3985" stroke-linecap="round" stroke-miterlimit="10" stroke-linejoin="miter" fill="none" stroke="#adade0" d="M4.00005 0C5.08101 0 6.00006 .9 6.00006 2.00002 6.00006 3.10002 5.10005 4.00005 4.00005 4.00005 2.90001 4.00005 2.00002 3.10002 2.00002 2.00002M3.20003 2.60002 2.00002 1.60002 .8 2.60002M16.0002 0C14.90016 0 14.00017 .9 14.00017 2.00002 14.00017 3.10002 14.90016 4.00005 16.0002 4.00005 17.1002 4.00005 18.00021 3.10002 18.00021 2.00002M19.20023 2.60002 18.00021 1.60002 16.8002 2.60002"/>
<text fill="#3333b2" xml:space="preserve" transform="matrix(1 0 -0 1 -77.8771 202.1857)" font-size="17.2154" font-family="URWPalladioL"><tspan y="-248.71" x="8.504 19.02261 27.63031 33.24253 38.85475 43.864435 53.883798 67.75941 79.569179 89.295879 97.54205 104.34214 112.949848 122.52161 130.76779">BattingAverages</tspan></text>
</g>
<g clip-path="url(#clip_2)">
<path transform="matrix(.7259,0,0,-.7259,-19.94233,-13.502594)" stroke-width=".398" stroke-linecap="butt" stroke-miterlimit="10" stroke-linejoin="miter" fill="none" stroke="#000000" d="M0 0H340.203"/>
</g>
<g clip-path="url(#clip_3)">
<text xml:space="preserve" transform="matrix(.36295 0 -0 .36295 -.9948883 171.16277)" font-size="6.86" font-family="ZapfDingbatsITC"><tspan y="-378.61" x="78.73">&#x25cf;</tspan></text>
<text xml:space="preserve" transform="matrix(.36295 0 -0 .36295 -.9948883 171.16277)" font-size="6.86" font-family="ZapfDingbatsITC"><tspan y="-211.4798" x="85.6586">&#x25cf;</tspan></text>
<text xml:space="preserve" transform="matrix(.36295 0 -0 .36295 -.9948883 171.16277)" font-size="6.86" font-family="ZapfDingbatsITC"><tspan y="-127.9182" x="91.49646">&#x25cf;</tspan></text>
<text xml:space="preserve" transform="matrix(.36295 0 -0 .36295 -.9948883 171.16277)" font-size="6.86" font-family="ZapfDingbatsITC"><tspan y="-77.77842" x="96.6346">&#x25cf;</tspan></text>
<text xml:space="preserve" transform="matrix(.36295 0 -0 .36295 -.9948883 171.16277)" font-size="6.86" font-family="ZapfDingbatsITC"><tspan y="-44.34964" x="101.2857">&#x25cf;</tspan></text>
<text xml:space="preserve" transform="matrix(.36295 0 -0 .36295 -.9948883 171.16277)" font-size="6.86" font-family="ZapfDingbatsITC"><tspan y="-20.46998" x="105.5663">&#x25cf;</tspan></text>
<text xml:space="preserve" transform="matrix(.36295 0 -0 .36295 -.9948883 171.16277)" font-size="6.86" font-family="ZapfDingbatsITC"><tspan y="-127.9182" x="109.5451">&#x25cf;</tspan></text>
<text xml:space="preserve" transform="matrix(.36295 0 -0 .36295 -.9948883 171.16277)" font-size="6.86" font-family="ZapfDingbatsITC"><tspan y="-211.4798" x="113.277">&#x25cf;</tspan></text>
<text xml:space="preserve" transform="matrix(.36295 0 -0 .36295 -.9948883 171.16277)" font-size="6.86" font-family="ZapfDingbatsITC"><tspan y="-178.051" x="116.8167">&#x25cf;</tspan></text>
<text xml:space="preserve" transform="matrix(.36295 0 -0 .36295 -.9948883 171.16277)" font-size="6.86" font-family="ZapfDingbatsITC"><tspan y="-150.7139" x="120.1781">&#x25cf;</tspan></text>
<text xml:space="preserve" transform="matrix(.36295 0 -0 .36295 -.9948883 171.16277)" font-size="6.86" font-family="ZapfDingbatsITC"><tspan y="-211.4867" x="123.3955">&#x25cf;</tspan></text>
<text xml:space="preserve" transform="matrix(.36295 0 -0 .36295 -.9948883 171.16277)" font-size="6.86" font-family="ZapfDingbatsITC"><tspan y="-185.7754" x="126.4756">&#x25cf;</tspan></text>
<text xml:space="preserve" transform="matrix(.36295 0 -0 .36295 -.9948883 171.16277)" font-size="6.86" font-family="ZapfDingbatsITC"><tspan y="-163.7342" x="129.4323">&#x25cf;</tspan></text>
<text xml:space="preserve" transform="matrix(.36295 0 -0 .36295 -.9948883 171.16277)" font-size="6.86" font-family="ZapfDingbatsITC"><tspan y="-211.4867" x="132.2929">&#x25cf;</tspan></text>
<text xml:space="preserve" transform="matrix(.36295 0 -0 .36295 -.9948883 171.16277)" font-size="6.86" font-family="ZapfDingbatsITC"><tspan y="-253.2641" x="135.0643">&#x25cf;</tspan></text>
<text xml:space="preserve" transform="matrix(.36295 0 -0 .36295 -.9948883 171.16277)" font-size="6.86" font-family="ZapfDingbatsITC"><tspan y="-290.1366" x="137.7466">&#x25cf;</tspan></text>
<text xml:space="preserve" transform="matrix(.36295 0 -0 .36295 -.9948883 171.16277)" font-size="6.86" font-family="ZapfDingbatsITC"><tspan y="-267.1967" x="140.3534">&#x25cf;</tspan></text>
<text xml:space="preserve" transform="matrix(.36295 0 -0 .36295 -.9948883 171.16277)" font-size="6.86" font-family="ZapfDingbatsITC"><tspan y="-299.4456" x="142.8847">&#x25cf;</tspan></text>
<text xml:space="preserve" transform="matrix(.36295 0 -0 .36295 -.9948883 171.16277)" font-size="6.86" font-family="ZapfDingbatsITC"><tspan y="-278.3374" x="145.3543">&#x25cf;</tspan></text>
<text xml:space="preserve" transform="matrix(.36295 0 -0 .36295 -.9948883 171.16277)" font-size="6.86" font-family="ZapfDingbatsITC"><tspan y="-306.9847" x="147.7622">&#x25cf;</tspan></text>
<text xml:space="preserve" transform="matrix(.36295 0 -0 .36295 -.9948883 171.16277)" font-size="6.86" font-family="ZapfDingbatsITC"><tspan y="-333.0322" x="150.1152">&#x25cf;</tspan></text>
<text xml:space="preserve" transform="matrix(.36295 0 -0 .36295 -.9948883 171.16277)" font-size="6.86" font-family="ZapfDingbatsITC"><tspan y="-356.8089" x="152.4064">&#x25cf;</tspan></text>
<text xml:space="preserve" transform="matrix(.36295 0 -0 .36295 -.9948883 171.16277)" font-size="6.86" font-family="ZapfDingbatsITC"><tspan y="-336.8257" x="154.6565">&#x25cf;</tspan></text>
<text xml:space="preserve" transform="matrix(.36295 0 -0 .36295 -.9948883 171.16277)" font-size="6.86" font-family="ZapfDingbatsITC"><tspan y="-358.5445" x="156.8585">&#x25cf;</tspan></text>
<text xml:space="preserve" transform="matrix(.36295 0 -0 .36295 -.9948883 171.16277)" font-size="6.86" font-family="ZapfDingbatsITC"><tspan y="-340.0362" x="159.0194">&#x25cf;</tspan></text>
<text xml:space="preserve" transform="matrix(.36295 0 -0 .36295 -.9948883 171.16277)" font-size="6.86" font-family="ZapfDingbatsITC"><tspan y="-322.8931" x="161.1323">&#x25cf;</tspan></text>
<text xml:space="preserve" transform="matrix(.36295 0 -0 .36295 -.9948883 171.16277)" font-size="6.86" font-family="ZapfDingbatsITC"><tspan y="-306.971" x="163.2109">&#x25cf;</tspan></text>
<text xml:space="preserve" transform="matrix(.36295 0 -0 .36295 -.9948883 171.16277)" font-size="6.86" font-family="ZapfDingbatsITC"><tspan y="-292.1534" x="165.2483">&#x25cf;</tspan></text>
<text xml:space="preserve" transform="matrix(.36295 0 -0 .36295 -.9948883 171.16277)" font-size="6.86" font-family="ZapfDingbatsITC"><tspan y="-278.3237" x="167.2583">&#x25cf;</tspan></text>
<text xml:space="preserve" transform="matrix(.36295 0 -0 .36295 -.9948883 171.16277)" font-size="6.86" font-family="ZapfDingbatsITC"><tspan y="-265.3857" x="169.2271">&#x25cf;</tspan></text>
<text xml:space="preserve" transform="matrix(.36295 0 -0 .36295 -.9948883 171.16277)" font-size="6.86" font-family="ZapfDingbatsITC"><tspan y="-253.2572" x="171.1685">&#x25cf;</tspan></text>
<text xml:space="preserve" transform="matrix(.36295 0 -0 .36295 -.9948883 171.16277)" font-size="6.86" font-family="ZapfDingbatsITC"><tspan y="-272.2457" x="173.0756">&#x25cf;</tspan></text>
<text xml:space="preserve" transform="matrix(.36295 0 -0 .36295 -.9948883 171.16277)" font-size="6.86" font-family="ZapfDingbatsITC"><tspan y="-260.6386" x="174.9689">&#x25cf;</tspan></text>
<text xml:space="preserve" transform="matrix(.36295 0 -0 .36295 -.9948883 171.16277)" font-size="6.86" font-family="ZapfDingbatsITC"><tspan y="-278.3305" x="176.8211">&#x25cf;</tspan></text>
<text xml:space="preserve" transform="matrix(.36295 0 -0 .36295 -.9948883 171.16277)" font-size="6.86" font-family="ZapfDingbatsITC"><tspan y="-267.1899" x="178.6528">&#x25cf;</tspan></text>
<text xml:space="preserve" transform="matrix(.36295 0 -0 .36295 -.9948883 171.16277)" font-size="6.86" font-family="ZapfDingbatsITC"><tspan y="-283.7499" x="180.4501">&#x25cf;</tspan></text>
<text xml:space="preserve" transform="matrix(.36295 0 -0 .36295 -.9948883 171.16277)" font-size="6.86" font-family="ZapfDingbatsITC"><tspan y="-299.4387" x="182.2268">&#x25cf;</tspan></text>
<text xml:space="preserve" transform="matrix(.36295 0 -0 .36295 -.9948883 171.16277)" font-size="6.86" font-family="ZapfDingbatsITC"><tspan y="-288.6205" x="183.9898">&#x25cf;</tspan></text>
<text xml:space="preserve" transform="matrix(.36295 0 -0 .36295 -.9948883 171.16277)" font-size="6.86" font-family="ZapfDingbatsITC"><tspan y="-278.3305" x="185.7186">&#x25cf;</tspan></text>
<text xml:space="preserve" transform="matrix(.36295 0 -0 .36295 -.9948883 171.16277)" font-size="6.86" font-family="ZapfDingbatsITC"><tspan y="-293.0109" x="187.4267">&#x25cf;</tspan></text>
<text xml:space="preserve" transform="matrix(.36295 0 -0 .36295 -.9948883 171.16277)" font-size="6.86" font-family="ZapfDingbatsITC"><tspan y="-283.1119" x="189.1143">&#x25cf;</tspan></text>
<text xml:space="preserve" transform="matrix(.36295 0 -0 .36295 -.9948883 171.16277)" font-size="6.86" font-family="ZapfDingbatsITC"><tspan y="-273.6726" x="190.7812">&#x25cf;</tspan></text>
<text xml:space="preserve" transform="matrix(.36295 0 -0 .36295 -.9948883 171.16277)" font-size="6.86" font-family="ZapfDingbatsITC"><tspan y="-287.4543" x="192.4414">&#x25cf;</tspan></text>
<text xml:space="preserve" transform="matrix(.36295 0 -0 .36295 -.9948883 171.16277)" font-size="6.86" font-family="ZapfDingbatsITC"><tspan y="-278.3374" x="194.074">&#x25cf;</tspan></text>
<text xml:space="preserve" transform="matrix(.36295 0 -0 .36295 -.9948883 171.16277)" font-size="6.86" font-family="ZapfDingbatsITC"><tspan y="-291.4194" x="195.6861">&#x25cf;</tspan></text>
<text xml:space="preserve" transform="matrix(.36295 0 -0 .36295 -.9948883 171.16277)" font-size="6.86" font-family="ZapfDingbatsITC"><tspan y="-303.9389" x="197.2845">&#x25cf;</tspan></text>
<text xml:space="preserve" transform="matrix(.36295 0 -0 .36295 -.9948883 171.16277)" font-size="6.86" font-family="ZapfDingbatsITC"><tspan y="-295.0621" x="198.8623">&#x25cf;</tspan></text>
<text xml:space="preserve" transform="matrix(.36295 0 -0 .36295 -.9948883 171.16277)" font-size="6.86" font-family="ZapfDingbatsITC"><tspan y="-286.5351" x="200.4333">&#x25cf;</tspan></text>
<text xml:space="preserve" transform="matrix(.36295 0 -0 .36295 -.9948883 171.16277)" font-size="6.86" font-family="ZapfDingbatsITC"><tspan y="-278.3442" x="201.9836">&#x25cf;</tspan></text>
<text xml:space="preserve" transform="matrix(.36295 0 -0 .36295 -.9948883 171.16277)" font-size="6.86" font-family="ZapfDingbatsITC"><tspan y="-270.4827" x="203.5134">&#x25cf;</tspan></text>
<text xml:space="preserve" transform="matrix(.36295 0 -0 .36295 -.9948883 171.16277)" font-size="6.86" font-family="ZapfDingbatsITC"><tspan y="-262.9161" x="205.0363">&#x25cf;</tspan></text>
<text xml:space="preserve" transform="matrix(.36295 0 -0 .36295 -.9948883 171.16277)" font-size="6.86" font-family="ZapfDingbatsITC"><tspan y="-255.6445" x="206.5387">&#x25cf;</tspan></text>
<text xml:space="preserve" transform="matrix(.36295 0 -0 .36295 -.9948883 171.16277)" font-size="6.86" font-family="ZapfDingbatsITC"><tspan y="-248.6336" x="208.0273">&#x25cf;</tspan></text>
<text xml:space="preserve" transform="matrix(.36295 0 -0 .36295 -.9948883 171.16277)" font-size="6.86" font-family="ZapfDingbatsITC"><tspan y="-260.1104" x="209.509">&#x25cf;</tspan></text>
<text xml:space="preserve" transform="matrix(.36295 0 -0 .36295 -.9948883 171.16277)" font-size="6.86" font-family="ZapfDingbatsITC"><tspan y="-253.2709" x="210.9702">&#x25cf;</tspan></text>
<text xml:space="preserve" transform="matrix(.36295 0 -0 .36295 -.9948883 171.16277)" font-size="6.86" font-family="ZapfDingbatsITC"><tspan y="-246.6785" x="212.4177">&#x25cf;</tspan></text>
<text xml:space="preserve" transform="matrix(.36295 0 -0 .36295 -.9948883 171.16277)" font-size="6.86" font-family="ZapfDingbatsITC"><tspan y="-257.5859" x="213.8446">&#x25cf;</tspan></text>
<text xml:space="preserve" transform="matrix(.36295 0 -0 .36295 -.9948883 171.16277)" font-size="6.86" font-family="ZapfDingbatsITC"><tspan y="-251.1443" x="215.2714">&#x25cf;</tspan></text>
<text xml:space="preserve" transform="matrix(.36295 0 -0 .36295 -.9948883 171.16277)" font-size="6.86" font-family="ZapfDingbatsITC"><tspan y="-244.9155" x="216.6846">&#x25cf;</tspan></text>
<text xml:space="preserve" transform="matrix(.36295 0 -0 .36295 -.9948883 171.16277)" font-size="6.86" font-family="ZapfDingbatsITC"><tspan y="-238.8855" x="218.084">&#x25cf;</tspan></text>
<text xml:space="preserve" transform="matrix(.36295 0 -0 .36295 -.9948883 171.16277)" font-size="6.86" font-family="ZapfDingbatsITC"><tspan y="-233.0545" x="219.4766">&#x25cf;</tspan></text>
<text xml:space="preserve" transform="matrix(.36295 0 -0 .36295 -.9948883 171.16277)" font-size="6.86" font-family="ZapfDingbatsITC"><tspan y="-227.4019" x="220.8555">&#x25cf;</tspan></text>
<text xml:space="preserve" transform="matrix(.36295 0 -0 .36295 -.9948883 171.16277)" font-size="6.86" font-family="ZapfDingbatsITC"><tspan y="-221.9345" x="222.2275">&#x25cf;</tspan></text>
<text xml:space="preserve" transform="matrix(.36295 0 -0 .36295 -.9948883 171.16277)" font-size="6.86" font-family="ZapfDingbatsITC"><tspan y="-216.6248" x="223.5789">&#x25cf;</tspan></text>
<text xml:space="preserve" transform="matrix(.36295 0 -0 .36295 -.9948883 171.16277)" font-size="6.86" font-family="ZapfDingbatsITC"><tspan y="-211.4867" x="224.9303">&#x25cf;</tspan></text>
<text xml:space="preserve" transform="matrix(.36295 0 -0 .36295 -.9948883 171.16277)" font-size="6.86" font-family="ZapfDingbatsITC"><tspan y="-221.468" x="226.2612">&#x25cf;</tspan></text>
<text xml:space="preserve" transform="matrix(.36295 0 -0 .36295 -.9948883 171.16277)" font-size="6.86" font-family="ZapfDingbatsITC"><tspan y="-216.4053" x="227.592">&#x25cf;</tspan></text>
<text xml:space="preserve" transform="matrix(.36295 0 -0 .36295 -.9948883 171.16277)" font-size="6.86" font-family="ZapfDingbatsITC"><tspan y="-211.4867" x="228.9091">&#x25cf;</tspan></text>
<text xml:space="preserve" transform="matrix(.36295 0 -0 .36295 -.9948883 171.16277)" font-size="6.86" font-family="ZapfDingbatsITC"><tspan y="-206.719" x="230.2125">&#x25cf;</tspan></text>
<text xml:space="preserve" transform="matrix(.36295 0 -0 .36295 -.9948883 171.16277)" font-size="6.86" font-family="ZapfDingbatsITC"><tspan y="-202.0679" x="231.5159">&#x25cf;</tspan></text>
<text xml:space="preserve" transform="matrix(.36295 0 -0 .36295 -.9948883 171.16277)" font-size="6.86" font-family="ZapfDingbatsITC"><tspan y="-197.5609" x="232.8056">&#x25cf;</tspan></text>
<text xml:space="preserve" transform="matrix(.36295 0 -0 .36295 -.9948883 171.16277)" font-size="6.86" font-family="ZapfDingbatsITC"><tspan y="-206.9111" x="234.0884">&#x25cf;</tspan></text>
<text xml:space="preserve" transform="matrix(.36295 0 -0 .36295 -.9948883 171.16277)" font-size="6.86" font-family="ZapfDingbatsITC"><tspan y="-216.0143" x="235.3575">&#x25cf;</tspan></text>
<text xml:space="preserve" transform="matrix(.36295 0 -0 .36295 -.9948883 171.16277)" font-size="6.86" font-family="ZapfDingbatsITC"><tspan y="-224.8637" x="236.6198">&#x25cf;</tspan></text>
<text xml:space="preserve" transform="matrix(.36295 0 -0 .36295 -.9948883 171.16277)" font-size="6.86" font-family="ZapfDingbatsITC"><tspan y="-220.2949" x="237.882">&#x25cf;</tspan></text>
<text xml:space="preserve" transform="matrix(.36295 0 -0 .36295 -.9948883 171.16277)" font-size="6.86" font-family="ZapfDingbatsITC"><tspan y="-215.8359" x="239.1237">&#x25cf;</tspan></text>
<text xml:space="preserve" transform="matrix(.36295 0 -0 .36295 -.9948883 171.16277)" font-size="6.86" font-family="ZapfDingbatsITC"><tspan y="-211.4935" x="240.3653">&#x25cf;</tspan></text>
<text xml:space="preserve" transform="matrix(.36295 0 -0 .36295 -.9948883 171.16277)" font-size="6.86" font-family="ZapfDingbatsITC"><tspan y="-207.2609" x="241.5933">&#x25cf;</tspan></text>
<text xml:space="preserve" transform="matrix(.36295 0 -0 .36295 -.9948883 171.16277)" font-size="6.86" font-family="ZapfDingbatsITC"><tspan y="-203.1312" x="242.8143">&#x25cf;</tspan></text>
<text xml:space="preserve" transform="matrix(.36295 0 -0 .36295 -.9948883 171.16277)" font-size="6.86" font-family="ZapfDingbatsITC"><tspan y="-199.1112" x="244.0217">&#x25cf;</tspan></text>
<text xml:space="preserve" transform="matrix(.36295 0 -0 .36295 -.9948883 171.16277)" font-size="6.86" font-family="ZapfDingbatsITC"><tspan y="-207.4118" x="245.2291">&#x25cf;</tspan></text>
<text xml:space="preserve" transform="matrix(.36295 0 -0 .36295 -.9948883 171.16277)" font-size="6.86" font-family="ZapfDingbatsITC"><tspan y="-203.4399" x="246.4296">&#x25cf;</tspan></text>
<text xml:space="preserve" transform="matrix(.36295 0 -0 .36295 -.9948883 171.16277)" font-size="6.86" font-family="ZapfDingbatsITC"><tspan y="-199.5503" x="247.6163">&#x25cf;</tspan></text>
<text xml:space="preserve" transform="matrix(.36295 0 -0 .36295 -.9948883 171.16277)" font-size="6.86" font-family="ZapfDingbatsITC"><tspan y="-195.7636" x="248.8031">&#x25cf;</tspan></text>
<text xml:space="preserve" transform="matrix(.36295 0 -0 .36295 -.9948883 171.16277)" font-size="6.86" font-family="ZapfDingbatsITC"><tspan y="-192.066" x="249.983">&#x25cf;</tspan></text>
<text xml:space="preserve" transform="matrix(.36295 0 -0 .36295 -.9948883 171.16277)" font-size="6.86" font-family="ZapfDingbatsITC"><tspan y="-199.9687" x="251.1561">&#x25cf;</tspan></text>
<text xml:space="preserve" transform="matrix(.36295 0 -0 .36295 -.9948883 171.16277)" font-size="6.86" font-family="ZapfDingbatsITC"><tspan y="-196.3055" x="252.3154">&#x25cf;</tspan></text>
<text xml:space="preserve" transform="matrix(.36295 0 -0 .36295 -.9948883 171.16277)" font-size="6.86" font-family="ZapfDingbatsITC"><tspan y="-203.9887" x="253.4748">&#x25cf;</tspan></text>
<text xml:space="preserve" transform="matrix(.36295 0 -0 .36295 -.9948883 171.16277)" font-size="6.86" font-family="ZapfDingbatsITC"><tspan y="-200.3598" x="254.6273">&#x25cf;</tspan></text>
<text xml:space="preserve" transform="matrix(.36295 0 -0 .36295 -.9948883 171.16277)" font-size="6.86" font-family="ZapfDingbatsITC"><tspan y="-196.8131" x="255.7797">&#x25cf;</tspan></text>
<text xml:space="preserve" transform="matrix(.36295 0 -0 .36295 -.9948883 171.16277)" font-size="6.86" font-family="ZapfDingbatsITC"><tspan y="-204.2357" x="256.9185">&#x25cf;</tspan></text>
<text xml:space="preserve" transform="matrix(.36295 0 -0 .36295 -.9948883 171.16277)" font-size="6.86" font-family="ZapfDingbatsITC"><tspan y="-200.7233" x="258.0504">&#x25cf;</tspan></text>
<text xml:space="preserve" transform="matrix(.36295 0 -0 .36295 -.9948883 171.16277)" font-size="6.86" font-family="ZapfDingbatsITC"><tspan y="-197.2865" x="259.1686">&#x25cf;</tspan></text>
<text xml:space="preserve" transform="matrix(.36295 0 -0 .36295 -.9948883 171.16277)" font-size="6.86" font-family="ZapfDingbatsITC"><tspan y="-193.9182" x="260.3005">&#x25cf;</tspan></text>
<text xml:space="preserve" transform="matrix(.36295 0 -0 .36295 -.9948883 171.16277)" font-size="6.86" font-family="ZapfDingbatsITC"><tspan y="-190.6186" x="261.4118">&#x25cf;</tspan></text>
<text xml:space="preserve" transform="matrix(.36295 0 -0 .36295 -.9948883 171.16277)" font-size="6.86" font-family="ZapfDingbatsITC"><tspan y="-187.3875" x="262.5231">&#x25cf;</tspan></text>
<text xml:space="preserve" transform="matrix(.36295 0 -0 .36295 -.9948883 171.16277)" font-size="6.86" font-family="ZapfDingbatsITC"><tspan y="-184.2182" x="263.6207">&#x25cf;</tspan></text>
<text xml:space="preserve" transform="matrix(.36295 0 -0 .36295 -.9948883 171.16277)" font-size="6.86" font-family="ZapfDingbatsITC"><tspan y="-191.2497" x="264.7183">&#x25cf;</tspan></text>
<text xml:space="preserve" transform="matrix(.36295 0 -0 .36295 -.9948883 171.16277)" font-size="6.86" font-family="ZapfDingbatsITC"><tspan y="-188.1078" x="265.8091">&#x25cf;</tspan></text>
<text xml:space="preserve" transform="matrix(.36295 0 -0 .36295 -.9948883 171.16277)" font-size="6.86" font-family="ZapfDingbatsITC"><tspan y="-194.9609" x="266.8998">&#x25cf;</tspan></text>
<text xml:space="preserve" transform="matrix(.36295 0 -0 .36295 -.9948883 171.16277)" font-size="6.86" font-family="ZapfDingbatsITC"><tspan y="-201.6837" x="267.9768">&#x25cf;</tspan></text>
<text xml:space="preserve" transform="matrix(.36295 0 -0 .36295 -.9948883 171.16277)" font-size="6.86" font-family="ZapfDingbatsITC"><tspan y="-198.535" x="269.0538">&#x25cf;</tspan></text>
<text xml:space="preserve" transform="matrix(.36295 0 -0 .36295 -.9948883 171.16277)" font-size="6.86" font-family="ZapfDingbatsITC"><tspan y="-195.448" x="270.124">&#x25cf;</tspan></text>
<text xml:space="preserve" transform="matrix(.36295 0 -0 .36295 -.9948883 171.16277)" font-size="6.86" font-family="ZapfDingbatsITC"><tspan y="-192.4159" x="271.1873">&#x25cf;</tspan></text>
<text xml:space="preserve" transform="matrix(.36295 0 -0 .36295 -.9948883 171.16277)" font-size="6.86" font-family="ZapfDingbatsITC"><tspan y="-189.4455" x="272.2506">&#x25cf;</tspan></text>
<text xml:space="preserve" transform="matrix(.36295 0 -0 .36295 -.9948883 171.16277)" font-size="6.86" font-family="ZapfDingbatsITC"><tspan y="-186.5231" x="273.3139">&#x25cf;</tspan></text>
<text xml:space="preserve" transform="matrix(.36295 0 -0 .36295 -.9948883 171.16277)" font-size="6.86" font-family="ZapfDingbatsITC"><tspan y="-183.6625" x="274.3635">&#x25cf;</tspan></text>
<text xml:space="preserve" transform="matrix(.36295 0 -0 .36295 -.9948883 171.16277)" font-size="6.86" font-family="ZapfDingbatsITC"><tspan y="-180.8431" x="275.4131">&#x25cf;</tspan></text>
<text xml:space="preserve" transform="matrix(.36295 0 -0 .36295 -.9948883 171.16277)" font-size="6.86" font-family="ZapfDingbatsITC"><tspan y="-178.0853" x="276.4558">&#x25cf;</tspan></text>
<text xml:space="preserve" transform="matrix(.36295 0 -0 .36295 -.9948883 171.16277)" font-size="6.86" font-family="ZapfDingbatsITC"><tspan y="-184.4171" x="277.4848">&#x25cf;</tspan></text>
<text xml:space="preserve" transform="matrix(.36295 0 -0 .36295 -.9948883 171.16277)" font-size="6.86" font-family="ZapfDingbatsITC"><tspan y="-181.68" x="278.5275">&#x25cf;</tspan></text>
<text xml:space="preserve" transform="matrix(.36295 0 -0 .36295 -.9948883 171.16277)" font-size="6.86" font-family="ZapfDingbatsITC"><tspan y="-178.9771" x="279.5496">&#x25cf;</tspan></text>
<text xml:space="preserve" transform="matrix(.36295 0 -0 .36295 -.9948883 171.16277)" font-size="6.86" font-family="ZapfDingbatsITC"><tspan y="-176.336" x="280.5718">&#x25cf;</tspan></text>
<text xml:space="preserve" transform="matrix(.36295 0 -0 .36295 -.9948883 171.16277)" font-size="6.86" font-family="ZapfDingbatsITC"><tspan y="-173.7292" x="281.5939">&#x25cf;</tspan></text>
<text xml:space="preserve" transform="matrix(.36295 0 -0 .36295 -.9948883 171.16277)" font-size="6.86" font-family="ZapfDingbatsITC"><tspan y="-171.1773" x="282.6161">&#x25cf;</tspan></text>
<text xml:space="preserve" transform="matrix(.36295 0 -0 .36295 -.9948883 171.16277)" font-size="6.86" font-family="ZapfDingbatsITC"><tspan y="-177.2347" x="283.6245">&#x25cf;</tspan></text>
<text xml:space="preserve" transform="matrix(.36295 0 -0 .36295 -.9948883 171.16277)" font-size="6.86" font-family="ZapfDingbatsITC"><tspan y="-183.1823" x="284.626">&#x25cf;</tspan></text>
<text xml:space="preserve" transform="matrix(.36295 0 -0 .36295 -.9948883 171.16277)" font-size="6.86" font-family="ZapfDingbatsITC"><tspan y="-180.6098" x="285.6276">&#x25cf;</tspan></text>
<text xml:space="preserve" transform="matrix(.36295 0 -0 .36295 -.9948883 171.16277)" font-size="6.86" font-family="ZapfDingbatsITC"><tspan y="-178.0785" x="286.6292">&#x25cf;</tspan></text>
<text xml:space="preserve" transform="matrix(.36295 0 -0 .36295 -.9948883 171.16277)" font-size="6.86" font-family="ZapfDingbatsITC"><tspan y="-175.5952" x="287.617">&#x25cf;</tspan></text>
<text xml:space="preserve" transform="matrix(.36295 0 -0 .36295 -.9948883 171.16277)" font-size="6.86" font-family="ZapfDingbatsITC"><tspan y="-173.1461" x="288.6048">&#x25cf;</tspan></text>
<text xml:space="preserve" transform="matrix(.36295 0 -0 .36295 -.9948883 171.16277)" font-size="6.86" font-family="ZapfDingbatsITC"><tspan y="-170.7451" x="289.5858">&#x25cf;</tspan></text>
<text xml:space="preserve" transform="matrix(.36295 0 -0 .36295 -.9948883 171.16277)" font-size="6.86" font-family="ZapfDingbatsITC"><tspan y="-176.4664" x="290.5668">&#x25cf;</tspan></text>
<text xml:space="preserve" transform="matrix(.36295 0 -0 .36295 -.9948883 171.16277)" font-size="6.86" font-family="ZapfDingbatsITC"><tspan y="-182.0984" x="291.5478">&#x25cf;</tspan></text>
<text xml:space="preserve" transform="matrix(.36295 0 -0 .36295 -.9948883 171.16277)" font-size="6.86" font-family="ZapfDingbatsITC"><tspan y="-187.6276" x="292.515">&#x25cf;</tspan></text>
<text xml:space="preserve" transform="matrix(.36295 0 -0 .36295 -.9948883 171.16277)" font-size="6.86" font-family="ZapfDingbatsITC"><tspan y="-193.0882" x="293.4823">&#x25cf;</tspan></text>
<text xml:space="preserve" transform="matrix(.36295 0 -0 .36295 -.9948883 171.16277)" font-size="6.86" font-family="ZapfDingbatsITC"><tspan y="-190.6186" x="294.4496">&#x25cf;</tspan></text>
<text xml:space="preserve" transform="matrix(.36295 0 -0 .36295 -.9948883 171.16277)" font-size="6.86" font-family="ZapfDingbatsITC"><tspan y="-195.9556" x="295.41">&#x25cf;</tspan></text>
<text xml:space="preserve" transform="matrix(.36295 0 -0 .36295 -.9948883 171.16277)" font-size="6.86" font-family="ZapfDingbatsITC"><tspan y="-193.5066" x="296.3566">&#x25cf;</tspan></text>
<text xml:space="preserve" transform="matrix(.36295 0 -0 .36295 -.9948883 171.16277)" font-size="6.86" font-family="ZapfDingbatsITC"><tspan y="-191.0988" x="297.317">&#x25cf;</tspan></text>
<text xml:space="preserve" transform="matrix(.36295 0 -0 .36295 -.9948883 171.16277)" font-size="6.86" font-family="ZapfDingbatsITC"><tspan y="-188.7183" x="298.2637">&#x25cf;</tspan></text>
<text xml:space="preserve" transform="matrix(.36295 0 -0 .36295 -.9948883 171.16277)" font-size="6.86" font-family="ZapfDingbatsITC"><tspan y="-186.3791" x="299.2035">&#x25cf;</tspan></text>
<text xml:space="preserve" transform="matrix(.36295 0 -0 .36295 -.9948883 171.16277)" font-size="6.86" font-family="ZapfDingbatsITC"><tspan y="-184.0673" x="300.1502">&#x25cf;</tspan></text>
<text xml:space="preserve" transform="matrix(.36295 0 -0 .36295 -.9948883 171.16277)" font-size="6.86" font-family="ZapfDingbatsITC"><tspan y="-181.7966" x="301.09">&#x25cf;</tspan></text>
<text xml:space="preserve" transform="matrix(.36295 0 -0 .36295 -.9948883 171.16277)" font-size="6.86" font-family="ZapfDingbatsITC"><tspan y="-186.9279" x="302.023">&#x25cf;</tspan></text>
<text xml:space="preserve" transform="matrix(.36295 0 -0 .36295 -.9948883 171.16277)" font-size="6.86" font-family="ZapfDingbatsITC"><tspan y="-184.6709" x="302.9628">&#x25cf;</tspan></text>
<text xml:space="preserve" transform="matrix(.36295 0 -0 .36295 -.9948883 171.16277)" font-size="6.86" font-family="ZapfDingbatsITC"><tspan y="-182.4414" x="303.8821">&#x25cf;</tspan></text>
<text xml:space="preserve" transform="matrix(.36295 0 -0 .36295 -.9948883 171.16277)" font-size="6.86" font-family="ZapfDingbatsITC"><tspan y="-180.2531" x="304.815">&#x25cf;</tspan></text>
<text xml:space="preserve" transform="matrix(.36295 0 -0 .36295 -.9948883 171.16277)" font-size="6.86" font-family="ZapfDingbatsITC"><tspan y="-185.254" x="305.7343">&#x25cf;</tspan></text>
<text xml:space="preserve" transform="matrix(.36295 0 -0 .36295 -.9948883 171.16277)" font-size="6.86" font-family="ZapfDingbatsITC"><tspan y="-183.0657" x="306.6535">&#x25cf;</tspan></text>
<text xml:space="preserve" transform="matrix(.36295 0 -0 .36295 -.9948883 171.16277)" font-size="6.86" font-family="ZapfDingbatsITC"><tspan y="-180.9185" x="307.5727">&#x25cf;</tspan></text>
<text xml:space="preserve" transform="matrix(.36295 0 -0 .36295 -.9948883 171.16277)" font-size="6.86" font-family="ZapfDingbatsITC"><tspan y="-185.8097" x="308.4851">&#x25cf;</tspan></text>
<text xml:space="preserve" transform="matrix(.36295 0 -0 .36295 -.9948883 171.16277)" font-size="6.86" font-family="ZapfDingbatsITC"><tspan y="-190.6323" x="309.3975">&#x25cf;</tspan></text>
<text xml:space="preserve" transform="matrix(.36295 0 -0 .36295 -.9948883 171.16277)" font-size="6.86" font-family="ZapfDingbatsITC"><tspan y="-188.4714" x="310.3099">&#x25cf;</tspan></text>
<text xml:space="preserve" transform="matrix(.36295 0 -0 .36295 -.9948883 171.16277)" font-size="6.86" font-family="ZapfDingbatsITC"><tspan y="-193.1979" x="311.2085">&#x25cf;</tspan></text>
<text xml:space="preserve" transform="matrix(.36295 0 -0 .36295 -.9948883 171.16277)" font-size="6.86" font-family="ZapfDingbatsITC"><tspan y="-191.0576" x="312.1072">&#x25cf;</tspan></text>
<text xml:space="preserve" transform="matrix(.36295 0 -0 .36295 -.9948883 171.16277)" font-size="6.86" font-family="ZapfDingbatsITC"><tspan y="-188.9379" x="313.0059">&#x25cf;</tspan></text>
<text xml:space="preserve" transform="matrix(.36295 0 -0 .36295 -.9948883 171.16277)" font-size="6.86" font-family="ZapfDingbatsITC"><tspan y="-186.8387" x="313.8977">&#x25cf;</tspan></text>
<text xml:space="preserve" transform="matrix(.36295 0 -0 .36295 -.9948883 171.16277)" font-size="6.86" font-family="ZapfDingbatsITC"><tspan y="-191.4555" x="314.7895">&#x25cf;</tspan></text>
<text xml:space="preserve" transform="matrix(.36295 0 -0 .36295 -.9948883 171.16277)" font-size="6.86" font-family="ZapfDingbatsITC"><tspan y="-196.0174" x="315.6813">&#x25cf;</tspan></text>
<text xml:space="preserve" transform="matrix(.36295 0 -0 .36295 -.9948883 171.16277)" font-size="6.86" font-family="ZapfDingbatsITC"><tspan y="-193.9251" x="316.5593">&#x25cf;</tspan></text>
<text xml:space="preserve" transform="matrix(.36295 0 -0 .36295 -.9948883 171.16277)" font-size="6.86" font-family="ZapfDingbatsITC"><tspan y="-191.8534" x="317.4511">&#x25cf;</tspan></text>
<text xml:space="preserve" transform="matrix(.36295 0 -0 .36295 -.9948883 171.16277)" font-size="6.86" font-family="ZapfDingbatsITC"><tspan y="-196.3261" x="318.3292">&#x25cf;</tspan></text>
<text xml:space="preserve" transform="matrix(.36295 0 -0 .36295 -.9948883 171.16277)" font-size="6.86" font-family="ZapfDingbatsITC"><tspan y="-200.7371" x="319.2004">&#x25cf;</tspan></text>
<text xml:space="preserve" transform="matrix(.36295 0 -0 .36295 -.9948883 171.16277)" font-size="6.86" font-family="ZapfDingbatsITC"><tspan y="-198.6585" x="320.0785">&#x25cf;</tspan></text>
<text xml:space="preserve" transform="matrix(.36295 0 -0 .36295 -.9948883 171.16277)" font-size="6.86" font-family="ZapfDingbatsITC"><tspan y="-196.6211" x="320.9497">&#x25cf;</tspan></text>
<text xml:space="preserve" transform="matrix(.36295 0 -0 .36295 -.9948883 171.16277)" font-size="6.86" font-family="ZapfDingbatsITC"><tspan y="-200.9429" x="321.8072">&#x25cf;</tspan></text>
<text xml:space="preserve" transform="matrix(.36295 0 -0 .36295 -.9948883 171.16277)" font-size="6.86" font-family="ZapfDingbatsITC"><tspan y="-198.9123" x="322.6785">&#x25cf;</tspan></text>
<text xml:space="preserve" transform="matrix(.36295 0 -0 .36295 -.9948883 171.16277)" font-size="6.86" font-family="ZapfDingbatsITC"><tspan y="-196.9023" x="323.536">&#x25cf;</tspan></text>
<text xml:space="preserve" transform="matrix(.36295 0 -0 .36295 -.9948883 171.16277)" font-size="6.86" font-family="ZapfDingbatsITC"><tspan y="-201.1418" x="324.3935">&#x25cf;</tspan></text>
<text xml:space="preserve" transform="matrix(.36295 0 -0 .36295 -.9948883 171.16277)" font-size="6.86" font-family="ZapfDingbatsITC"><tspan y="-199.1387" x="325.251">&#x25cf;</tspan></text>
<text xml:space="preserve" transform="matrix(.36295 0 -0 .36295 -.9948883 171.16277)" font-size="6.86" font-family="ZapfDingbatsITC"><tspan y="-197.1699" x="326.1016">&#x25cf;</tspan></text>
<text xml:space="preserve" transform="matrix(.36295 0 -0 .36295 -.9948883 171.16277)" font-size="6.86" font-family="ZapfDingbatsITC"><tspan y="-195.2079" x="326.9591">&#x25cf;</tspan></text>
<text xml:space="preserve" transform="matrix(.36295 0 -0 .36295 -.9948883 171.16277)" font-size="6.86" font-family="ZapfDingbatsITC"><tspan y="-193.2871" x="327.8097">&#x25cf;</tspan></text>
<text xml:space="preserve" transform="matrix(.36295 0 -0 .36295 -.9948883 171.16277)" font-size="6.86" font-family="ZapfDingbatsITC"><tspan y="-191.38" x="328.6467">&#x25cf;</tspan></text>
<text xml:space="preserve" transform="matrix(.36295 0 -0 .36295 -.9948883 171.16277)" font-size="6.86" font-family="ZapfDingbatsITC"><tspan y="-189.5004" x="329.4973">&#x25cf;</tspan></text>
<text xml:space="preserve" transform="matrix(.36295 0 -0 .36295 -.9948883 171.16277)" font-size="6.86" font-family="ZapfDingbatsITC"><tspan y="-187.6413" x="330.3342">&#x25cf;</tspan></text>
<text xml:space="preserve" transform="matrix(.36295 0 -0 .36295 -.9948883 171.16277)" font-size="6.86" font-family="ZapfDingbatsITC"><tspan y="-185.8097" x="331.1711">&#x25cf;</tspan></text>
<text xml:space="preserve" transform="matrix(.36295 0 -0 .36295 -.9948883 171.16277)" font-size="6.86" font-family="ZapfDingbatsITC"><tspan y="-189.8914" x="332.0012">&#x25cf;</tspan></text>
<text xml:space="preserve" transform="matrix(.36295 0 -0 .36295 -.9948883 171.16277)" font-size="6.86" font-family="ZapfDingbatsITC"><tspan y="-188.0598" x="332.8381">&#x25cf;</tspan></text>
<text xml:space="preserve" transform="matrix(.36295 0 -0 .36295 -.9948883 171.16277)" font-size="6.86" font-family="ZapfDingbatsITC"><tspan y="-192.0866" x="333.6682">&#x25cf;</tspan></text>
<text xml:space="preserve" transform="matrix(.36295 0 -0 .36295 -.9948883 171.16277)" font-size="6.86" font-family="ZapfDingbatsITC"><tspan y="-190.2687" x="334.4982">&#x25cf;</tspan></text>
<text xml:space="preserve" transform="matrix(.36295 0 -0 .36295 -.9948883 171.16277)" font-size="6.86" font-family="ZapfDingbatsITC"><tspan y="-194.2269" x="335.3283">&#x25cf;</tspan></text>
<text xml:space="preserve" transform="matrix(.36295 0 -0 .36295 -.9948883 171.16277)" font-size="6.86" font-family="ZapfDingbatsITC"><tspan y="-192.4159" x="336.1515">&#x25cf;</tspan></text>
<text xml:space="preserve" transform="matrix(.36295 0 -0 .36295 -.9948883 171.16277)" font-size="6.86" font-family="ZapfDingbatsITC"><tspan y="-190.6254" x="336.9747">&#x25cf;</tspan></text>
<text xml:space="preserve" transform="matrix(.36295 0 -0 .36295 -.9948883 171.16277)" font-size="6.86" font-family="ZapfDingbatsITC"><tspan y="-188.8555" x="337.7979">&#x25cf;</tspan></text>
<text xml:space="preserve" transform="matrix(.36295 0 -0 .36295 -.9948883 171.16277)" font-size="6.86" font-family="ZapfDingbatsITC"><tspan y="-192.7383" x="338.6211">&#x25cf;</tspan></text>
<text xml:space="preserve" transform="matrix(.36295 0 -0 .36295 -.9948883 171.16277)" font-size="6.86" font-family="ZapfDingbatsITC"><tspan y="-190.9753" x="339.4443">&#x25cf;</tspan></text>
<text xml:space="preserve" transform="matrix(.36295 0 -0 .36295 -.9948883 171.16277)" font-size="6.86" font-family="ZapfDingbatsITC"><tspan y="-189.2328" x="340.2538">&#x25cf;</tspan></text>
<text xml:space="preserve" transform="matrix(.36295 0 -0 .36295 -.9948883 171.16277)" font-size="6.86" font-family="ZapfDingbatsITC"><tspan y="-193.0401" x="341.0633">&#x25cf;</tspan></text>
<text xml:space="preserve" transform="matrix(.36295 0 -0 .36295 -.9948883 171.16277)" font-size="6.86" font-family="ZapfDingbatsITC"><tspan y="-191.3114" x="341.8727">&#x25cf;</tspan></text>
<text xml:space="preserve" transform="matrix(.36295 0 -0 .36295 -.9948883 171.16277)" font-size="6.86" font-family="ZapfDingbatsITC"><tspan y="-189.5896" x="342.6822">&#x25cf;</tspan></text>
<text xml:space="preserve" transform="matrix(.36295 0 -0 .36295 -.9948883 171.16277)" font-size="6.86" font-family="ZapfDingbatsITC"><tspan y="-193.342" x="343.4848">&#x25cf;</tspan></text>
<text xml:space="preserve" transform="matrix(.36295 0 -0 .36295 -.9948883 171.16277)" font-size="6.86" font-family="ZapfDingbatsITC"><tspan y="-197.0601" x="344.2875">&#x25cf;</tspan></text>
<text xml:space="preserve" transform="matrix(.36295 0 -0 .36295 -.9948883 171.16277)" font-size="6.86" font-family="ZapfDingbatsITC"><tspan y="-200.7302" x="345.0901">&#x25cf;</tspan></text>
<text xml:space="preserve" transform="matrix(.36295 0 -0 .36295 -.9948883 171.16277)" font-size="6.86" font-family="ZapfDingbatsITC"><tspan y="-199.0015" x="345.8927">&#x25cf;</tspan></text>
<text xml:space="preserve" transform="matrix(.36295 0 -0 .36295 -.9948883 171.16277)" font-size="6.86" font-family="ZapfDingbatsITC"><tspan y="-197.2933" x="346.6953">&#x25cf;</tspan></text>
<text xml:space="preserve" transform="matrix(.36295 0 -0 .36295 -.9948883 171.16277)" font-size="6.86" font-family="ZapfDingbatsITC"><tspan y="-200.9017" x="347.4842">&#x25cf;</tspan></text>
<text xml:space="preserve" transform="matrix(.36295 0 -0 .36295 -.9948883 171.16277)" font-size="6.86" font-family="ZapfDingbatsITC"><tspan y="-204.4689" x="348.2731">&#x25cf;</tspan></text>
<text xml:space="preserve" transform="matrix(.36295 0 -0 .36295 -.9948883 171.16277)" font-size="6.86" font-family="ZapfDingbatsITC"><tspan y="-202.7608" x="349.062">&#x25cf;</tspan></text>
<text xml:space="preserve" transform="matrix(.36295 0 -0 .36295 -.9948883 171.16277)" font-size="6.86" font-family="ZapfDingbatsITC"><tspan y="-206.2937" x="349.8509">&#x25cf;</tspan></text>
<text xml:space="preserve" transform="matrix(.36295 0 -0 .36295 -.9948883 171.16277)" font-size="6.86" font-family="ZapfDingbatsITC"><tspan y="-204.5855" x="350.633">&#x25cf;</tspan></text>
<text xml:space="preserve" transform="matrix(.36295 0 -0 .36295 -.9948883 171.16277)" font-size="6.86" font-family="ZapfDingbatsITC"><tspan y="-202.9048" x="351.4219">&#x25cf;</tspan></text>
<text xml:space="preserve" transform="matrix(.36295 0 -0 .36295 -.9948883 171.16277)" font-size="6.86" font-family="ZapfDingbatsITC"><tspan y="-201.2378" x="352.2039">&#x25cf;</tspan></text>
<text xml:space="preserve" transform="matrix(.36295 0 -0 .36295 -.9948883 171.16277)" font-size="6.86" font-family="ZapfDingbatsITC"><tspan y="-199.5777" x="352.9859">&#x25cf;</tspan></text>
<text xml:space="preserve" transform="matrix(.36295 0 -0 .36295 -.9948883 171.16277)" font-size="6.86" font-family="ZapfDingbatsITC"><tspan y="-197.945" x="353.7543">&#x25cf;</tspan></text>
<text xml:space="preserve" transform="matrix(.36295 0 -0 .36295 -.9948883 171.16277)" font-size="6.86" font-family="ZapfDingbatsITC"><tspan y="-196.3261" x="354.5363">&#x25cf;</tspan></text>
<text xml:space="preserve" transform="matrix(.36295 0 -0 .36295 -.9948883 171.16277)" font-size="6.86" font-family="ZapfDingbatsITC"><tspan y="-199.7561" x="355.3046">&#x25cf;</tspan></text>
<text xml:space="preserve" transform="matrix(.36295 0 -0 .36295 -.9948883 171.16277)" font-size="6.86" font-family="ZapfDingbatsITC"><tspan y="-198.144" x="356.0729">&#x25cf;</tspan></text>
<text xml:space="preserve" transform="matrix(.36295 0 -0 .36295 -.9948883 171.16277)" font-size="6.86" font-family="ZapfDingbatsITC"><tspan y="-196.5456" x="356.8413">&#x25cf;</tspan></text>
<text xml:space="preserve" transform="matrix(.36295 0 -0 .36295 -.9948883 171.16277)" font-size="6.86" font-family="ZapfDingbatsITC"><tspan y="-194.9678" x="357.6096">&#x25cf;</tspan></text>
<text xml:space="preserve" transform="matrix(.36295 0 -0 .36295 -.9948883 171.16277)" font-size="6.86" font-family="ZapfDingbatsITC"><tspan y="-198.3498" x="358.3779">&#x25cf;</tspan></text>
<text xml:space="preserve" transform="matrix(.36295 0 -0 .36295 -.9948883 171.16277)" font-size="6.86" font-family="ZapfDingbatsITC"><tspan y="-201.6906" x="359.1394">&#x25cf;</tspan></text>
<text xml:space="preserve" transform="matrix(.36295 0 -0 .36295 -.9948883 171.16277)" font-size="6.86" font-family="ZapfDingbatsITC"><tspan y="-200.1128" x="359.9008">&#x25cf;</tspan></text>
<text xml:space="preserve" transform="matrix(.36295 0 -0 .36295 -.9948883 171.16277)" font-size="6.86" font-family="ZapfDingbatsITC"><tspan y="-198.5419" x="360.6623">&#x25cf;</tspan></text>
<text xml:space="preserve" transform="matrix(.36295 0 -0 .36295 -.9948883 171.16277)" font-size="6.86" font-family="ZapfDingbatsITC"><tspan y="-196.9915" x="361.4237">&#x25cf;</tspan></text>
<text xml:space="preserve" transform="matrix(.36295 0 -0 .36295 -.9948883 171.16277)" font-size="6.86" font-family="ZapfDingbatsITC"><tspan y="-200.2706" x="362.1852">&#x25cf;</tspan></text>
<text xml:space="preserve" transform="matrix(.36295 0 -0 .36295 -.9948883 171.16277)" font-size="6.86" font-family="ZapfDingbatsITC"><tspan y="-198.7339" x="362.9329">&#x25cf;</tspan></text>
<text xml:space="preserve" transform="matrix(.36295 0 -0 .36295 -.9948883 171.16277)" font-size="6.86" font-family="ZapfDingbatsITC"><tspan y="-197.1973" x="363.6807">&#x25cf;</tspan></text>
<text xml:space="preserve" transform="matrix(.36295 0 -0 .36295 -.9948883 171.16277)" font-size="6.86" font-family="ZapfDingbatsITC"><tspan y="-195.6881" x="364.4284">&#x25cf;</tspan></text>
<text xml:space="preserve" transform="matrix(.36295 0 -0 .36295 -.9948883 171.16277)" font-size="6.86" font-family="ZapfDingbatsITC"><tspan y="-198.9192" x="365.1762">&#x25cf;</tspan></text>
<text xml:space="preserve" transform="matrix(.36295 0 -0 .36295 -.9948883 171.16277)" font-size="6.86" font-family="ZapfDingbatsITC"><tspan y="-197.41" x="365.9239">&#x25cf;</tspan></text>
<text xml:space="preserve" transform="matrix(.36295 0 -0 .36295 -.9948883 171.16277)" font-size="6.86" font-family="ZapfDingbatsITC"><tspan y="-200.5999" x="366.6716">&#x25cf;</tspan></text>
<text xml:space="preserve" transform="matrix(.36295 0 -0 .36295 -.9948883 171.16277)" font-size="6.86" font-family="ZapfDingbatsITC"><tspan y="-199.0907" x="367.4125">&#x25cf;</tspan></text>
<text xml:space="preserve" transform="matrix(.36295 0 -0 .36295 -.9948883 171.16277)" font-size="6.86" font-family="ZapfDingbatsITC"><tspan y="-197.602" x="368.1534">&#x25cf;</tspan></text>
<text xml:space="preserve" transform="matrix(.36295 0 -0 .36295 -.9948883 171.16277)" font-size="6.86" font-family="ZapfDingbatsITC"><tspan y="-200.7508" x="368.8943">&#x25cf;</tspan></text>
<text xml:space="preserve" transform="matrix(.36295 0 -0 .36295 -.9948883 171.16277)" font-size="6.86" font-family="ZapfDingbatsITC"><tspan y="-199.2622" x="369.6352">&#x25cf;</tspan></text>
<text xml:space="preserve" transform="matrix(.36295 0 -0 .36295 -.9948883 171.16277)" font-size="6.86" font-family="ZapfDingbatsITC"><tspan y="-197.7941" x="370.376">&#x25cf;</tspan></text>
<text xml:space="preserve" transform="matrix(.36295 0 -0 .36295 -.9948883 171.16277)" font-size="6.86" font-family="ZapfDingbatsITC"><tspan y="-200.8948" x="371.1032">&#x25cf;</tspan></text>
<text xml:space="preserve" transform="matrix(.36295 0 -0 .36295 -.9948883 171.16277)" font-size="6.86" font-family="ZapfDingbatsITC"><tspan y="-199.4337" x="371.8441">&#x25cf;</tspan></text>
<text xml:space="preserve" transform="matrix(.36295 0 -0 .36295 -.9948883 171.16277)" font-size="6.86" font-family="ZapfDingbatsITC"><tspan y="-197.9862" x="372.5712">&#x25cf;</tspan></text>
<text xml:space="preserve" transform="matrix(.36295 0 -0 .36295 -.9948883 171.16277)" font-size="6.86" font-family="ZapfDingbatsITC"><tspan y="-196.5456" x="373.2984">&#x25cf;</tspan></text>
<text xml:space="preserve" transform="matrix(.36295 0 -0 .36295 -.9948883 171.16277)" font-size="6.86" font-family="ZapfDingbatsITC"><tspan y="-195.1256" x="374.0256">&#x25cf;</tspan></text>
<text xml:space="preserve" transform="matrix(.36295 0 -0 .36295 -.9948883 171.16277)" font-size="6.86" font-family="ZapfDingbatsITC"><tspan y="-193.7056" x="374.7459">&#x25cf;</tspan></text>
<text xml:space="preserve" transform="matrix(.36295 0 -0 .36295 -.9948883 171.16277)" font-size="6.86" font-family="ZapfDingbatsITC"><tspan y="-196.7445" x="375.473">&#x25cf;</tspan></text>
<text xml:space="preserve" transform="matrix(.36295 0 -0 .36295 -.9948883 171.16277)" font-size="6.86" font-family="ZapfDingbatsITC"><tspan y="-199.7561" x="376.1933">&#x25cf;</tspan></text>
<text xml:space="preserve" transform="matrix(.36295 0 -0 .36295 -.9948883 171.16277)" font-size="6.86" font-family="ZapfDingbatsITC"><tspan y="-198.3429" x="376.9205">&#x25cf;</tspan></text>
<text xml:space="preserve" transform="matrix(.36295 0 -0 .36295 -.9948883 171.16277)" font-size="6.86" font-family="ZapfDingbatsITC"><tspan y="-196.9298" x="377.6408">&#x25cf;</tspan></text>
<text xml:space="preserve" transform="matrix(.36295 0 -0 .36295 -.9948883 171.16277)" font-size="6.86" font-family="ZapfDingbatsITC"><tspan y="-199.9001" x="378.3611">&#x25cf;</tspan></text>
<text xml:space="preserve" transform="matrix(.36295 0 -0 .36295 -.9948883 171.16277)" font-size="6.86" font-family="ZapfDingbatsITC"><tspan y="-198.5076" x="379.0745">&#x25cf;</tspan></text>
<text xml:space="preserve" transform="matrix(.36295 0 -0 .36295 -.9948883 171.16277)" font-size="6.86" font-family="ZapfDingbatsITC"><tspan y="-197.115" x="379.7948">&#x25cf;</tspan></text>
<text xml:space="preserve" transform="matrix(.36295 0 -0 .36295 -.9948883 171.16277)" font-size="6.86" font-family="ZapfDingbatsITC"><tspan y="-195.743" x="380.5083">&#x25cf;</tspan></text>
<text xml:space="preserve" transform="matrix(.36295 0 -0 .36295 -.9948883 171.16277)" font-size="6.86" font-family="ZapfDingbatsITC"><tspan y="-198.6653" x="381.2286">&#x25cf;</tspan></text>
<text xml:space="preserve" transform="matrix(.36295 0 -0 .36295 -.9948883 171.16277)" font-size="6.86" font-family="ZapfDingbatsITC"><tspan y="-201.5671" x="381.942">&#x25cf;</tspan></text>
<text xml:space="preserve" transform="matrix(.36295 0 -0 .36295 -.9948883 171.16277)" font-size="6.86" font-family="ZapfDingbatsITC"><tspan y="-204.4483" x="382.6554">&#x25cf;</tspan></text>
<text xml:space="preserve" transform="matrix(.36295 0 -0 .36295 -.9948883 171.16277)" font-size="6.86" font-family="ZapfDingbatsITC"><tspan y="-203.0695" x="383.3689">&#x25cf;</tspan></text>
<text xml:space="preserve" transform="matrix(.36295 0 -0 .36295 -.9948883 171.16277)" font-size="6.86" font-family="ZapfDingbatsITC"><tspan y="-201.6975" x="384.0686">&#x25cf;</tspan></text>
<text xml:space="preserve" transform="matrix(.36295 0 -0 .36295 -.9948883 171.16277)" font-size="6.86" font-family="ZapfDingbatsITC"><tspan y="-200.3392" x="384.782">&#x25cf;</tspan></text>
<text xml:space="preserve" transform="matrix(.36295 0 -0 .36295 -.9948883 171.16277)" font-size="6.86" font-family="ZapfDingbatsITC"><tspan y="-199.0015" x="385.4818">&#x25cf;</tspan></text>
<text xml:space="preserve" transform="matrix(.36295 0 -0 .36295 -.9948883 171.16277)" font-size="6.86" font-family="ZapfDingbatsITC"><tspan y="-201.8209" x="386.1952">&#x25cf;</tspan></text>
<text xml:space="preserve" transform="matrix(.36295 0 -0 .36295 -.9948883 171.16277)" font-size="6.86" font-family="ZapfDingbatsITC"><tspan y="-204.6198" x="386.8949">&#x25cf;</tspan></text>
<text xml:space="preserve" transform="matrix(.36295 0 -0 .36295 -.9948883 171.16277)" font-size="6.86" font-family="ZapfDingbatsITC"><tspan y="-203.2821" x="387.5946">&#x25cf;</tspan></text>
<text xml:space="preserve" transform="matrix(.36295 0 -0 .36295 -.9948883 171.16277)" font-size="6.86" font-family="ZapfDingbatsITC"><tspan y="-201.9444" x="388.2875">&#x25cf;</tspan></text>
<text xml:space="preserve" transform="matrix(.36295 0 -0 .36295 -.9948883 171.16277)" font-size="6.86" font-family="ZapfDingbatsITC"><tspan y="-204.7159" x="388.9872">&#x25cf;</tspan></text>
<text xml:space="preserve" transform="matrix(.36295 0 -0 .36295 -.9948883 171.16277)" font-size="6.86" font-family="ZapfDingbatsITC"><tspan y="-203.385" x="389.6869">&#x25cf;</tspan></text>
<text xml:space="preserve" transform="matrix(.36295 0 -0 .36295 -.9948883 171.16277)" font-size="6.86" font-family="ZapfDingbatsITC"><tspan y="-202.0679" x="390.3798">&#x25cf;</tspan></text>
<text xml:space="preserve" transform="matrix(.36295 0 -0 .36295 -.9948883 171.16277)" font-size="6.86" font-family="ZapfDingbatsITC"><tspan y="-204.7982" x="391.0727">&#x25cf;</tspan></text>
<text xml:space="preserve" transform="matrix(.36295 0 -0 .36295 -.9948883 171.16277)" font-size="6.86" font-family="ZapfDingbatsITC"><tspan y="-203.4879" x="391.7655">&#x25cf;</tspan></text>
<text xml:space="preserve" transform="matrix(.36295 0 -0 .36295 -.9948883 171.16277)" font-size="6.86" font-family="ZapfDingbatsITC"><tspan y="-202.1777" x="392.4584">&#x25cf;</tspan></text>
<text xml:space="preserve" transform="matrix(.36295 0 -0 .36295 -.9948883 171.16277)" font-size="6.86" font-family="ZapfDingbatsITC"><tspan y="-200.888" x="393.1512">&#x25cf;</tspan></text>
<text xml:space="preserve" transform="matrix(.36295 0 -0 .36295 -.9948883 171.16277)" font-size="6.86" font-family="ZapfDingbatsITC"><tspan y="-203.5771" x="393.8441">&#x25cf;</tspan></text>
<text xml:space="preserve" transform="matrix(.36295 0 -0 .36295 -.9948883 171.16277)" font-size="6.86" font-family="ZapfDingbatsITC"><tspan y="-202.2874" x="394.5232">&#x25cf;</tspan></text>
<text xml:space="preserve" transform="matrix(.36295 0 -0 .36295 -.9948883 171.16277)" font-size="6.86" font-family="ZapfDingbatsITC"><tspan y="-204.956" x="395.2161">&#x25cf;</tspan></text>
<text xml:space="preserve" transform="matrix(.36295 0 -0 .36295 -.9948883 171.16277)" font-size="6.86" font-family="ZapfDingbatsITC"><tspan y="-203.6731" x="395.8952">&#x25cf;</tspan></text>
<text xml:space="preserve" transform="matrix(.36295 0 -0 .36295 -.9948883 171.16277)" font-size="6.86" font-family="ZapfDingbatsITC"><tspan y="-206.3142" x="396.5744">&#x25cf;</tspan></text>
<text xml:space="preserve" transform="matrix(.36295 0 -0 .36295 -.9948883 171.16277)" font-size="6.86" font-family="ZapfDingbatsITC"><tspan y="-205.0314" x="397.2535">&#x25cf;</tspan></text>
<text xml:space="preserve" transform="matrix(.36295 0 -0 .36295 -.9948883 171.16277)" font-size="6.86" font-family="ZapfDingbatsITC"><tspan y="-203.7623" x="397.9327">&#x25cf;</tspan></text>
<text xml:space="preserve" transform="matrix(.36295 0 -0 .36295 -.9948883 171.16277)" font-size="6.86" font-family="ZapfDingbatsITC"><tspan y="-206.3691" x="398.6118">&#x25cf;</tspan></text>
<text xml:space="preserve" transform="matrix(.36295 0 -0 .36295 -.9948883 171.16277)" font-size="6.86" font-family="ZapfDingbatsITC"><tspan y="-208.9622" x="399.2909">&#x25cf;</tspan></text>
<text xml:space="preserve" transform="matrix(.36295 0 -0 .36295 -.9948883 171.16277)" font-size="6.86" font-family="ZapfDingbatsITC"><tspan y="-211.5347" x="399.9632">&#x25cf;</tspan></text>
<text xml:space="preserve" transform="matrix(.36295 0 -0 .36295 -.9948883 171.16277)" font-size="6.86" font-family="ZapfDingbatsITC"><tspan y="-214.0866" x="400.6355">&#x25cf;</tspan></text>
<text xml:space="preserve" transform="matrix(.36295 0 -0 .36295 -.9948883 171.16277)" font-size="6.86" font-family="ZapfDingbatsITC"><tspan y="-216.618" x="401.3146">&#x25cf;</tspan></text>
<text xml:space="preserve" transform="matrix(.36295 0 -0 .36295 -.9948883 171.16277)" font-size="6.86" font-family="ZapfDingbatsITC"><tspan y="-219.1356" x="401.9869">&#x25cf;</tspan></text>
<text xml:space="preserve" transform="matrix(.36295 0 -0 .36295 -.9948883 171.16277)" font-size="6.86" font-family="ZapfDingbatsITC"><tspan y="-221.6258" x="402.6592">&#x25cf;</tspan></text>
<text xml:space="preserve" transform="matrix(.36295 0 -0 .36295 -.9948883 171.16277)" font-size="6.86" font-family="ZapfDingbatsITC"><tspan y="-224.1091" x="403.3315">&#x25cf;</tspan></text>
<text xml:space="preserve" transform="matrix(.36295 0 -0 .36295 -.9948883 171.16277)" font-size="6.86" font-family="ZapfDingbatsITC"><tspan y="-226.5581" x="403.99">&#x25cf;</tspan></text>
<text xml:space="preserve" transform="matrix(.36295 0 -0 .36295 -.9948883 171.16277)" font-size="6.86" font-family="ZapfDingbatsITC"><tspan y="-225.2547" x="404.6623">&#x25cf;</tspan></text>
<text xml:space="preserve" transform="matrix(.36295 0 -0 .36295 -.9948883 171.16277)" font-size="6.86" font-family="ZapfDingbatsITC"><tspan y="-223.965" x="405.3209">&#x25cf;</tspan></text>
<text xml:space="preserve" transform="matrix(.36295 0 -0 .36295 -.9948883 171.16277)" font-size="6.86" font-family="ZapfDingbatsITC"><tspan y="-222.6753" x="405.9932">&#x25cf;</tspan></text>
<text xml:space="preserve" transform="matrix(.36295 0 -0 .36295 -.9948883 171.16277)" font-size="6.86" font-family="ZapfDingbatsITC"><tspan y="-221.4062" x="406.6517">&#x25cf;</tspan></text>
<text xml:space="preserve" transform="matrix(.36295 0 -0 .36295 -.9948883 171.16277)" font-size="6.86" font-family="ZapfDingbatsITC"><tspan y="-223.8278" x="407.3103">&#x25cf;</tspan></text>
<text xml:space="preserve" transform="matrix(.36295 0 -0 .36295 -.9948883 171.16277)" font-size="6.86" font-family="ZapfDingbatsITC"><tspan y="-222.5587" x="407.9688">&#x25cf;</tspan></text>
<text xml:space="preserve" transform="matrix(.36295 0 -0 .36295 -.9948883 171.16277)" font-size="6.86" font-family="ZapfDingbatsITC"><tspan y="-224.9597" x="408.6274">&#x25cf;</tspan></text>
<text xml:space="preserve" transform="matrix(.36295 0 -0 .36295 -.9948883 171.16277)" font-size="6.86" font-family="ZapfDingbatsITC"><tspan y="-227.3401" x="409.286">&#x25cf;</tspan></text>
<text xml:space="preserve" transform="matrix(.36295 0 -0 .36295 -.9948883 171.16277)" font-size="6.86" font-family="ZapfDingbatsITC"><tspan y="-226.071" x="409.9377">&#x25cf;</tspan></text>
<text xml:space="preserve" transform="matrix(.36295 0 -0 .36295 -.9948883 171.16277)" font-size="6.86" font-family="ZapfDingbatsITC"><tspan y="-224.8088" x="410.5962">&#x25cf;</tspan></text>
<text xml:space="preserve" transform="matrix(.36295 0 -0 .36295 -.9948883 171.16277)" font-size="6.86" font-family="ZapfDingbatsITC"><tspan y="-223.5603" x="411.2479">&#x25cf;</tspan></text>
<text xml:space="preserve" transform="matrix(.36295 0 -0 .36295 -.9948883 171.16277)" font-size="6.86" font-family="ZapfDingbatsITC"><tspan y="-225.9201" x="411.9065">&#x25cf;</tspan></text>
<text xml:space="preserve" transform="matrix(.36295 0 -0 .36295 -.9948883 171.16277)" font-size="6.86" font-family="ZapfDingbatsITC"><tspan y="-224.6716" x="412.5582">&#x25cf;</tspan></text>
<text xml:space="preserve" transform="matrix(.36295 0 -0 .36295 -.9948883 171.16277)" font-size="6.86" font-family="ZapfDingbatsITC"><tspan y="-227.004" x="413.2099">&#x25cf;</tspan></text>
<text xml:space="preserve" transform="matrix(.36295 0 -0 .36295 -.9948883 171.16277)" font-size="6.86" font-family="ZapfDingbatsITC"><tspan y="-229.3227" x="413.8616">&#x25cf;</tspan></text>
<text xml:space="preserve" transform="matrix(.36295 0 -0 .36295 -.9948883 171.16277)" font-size="6.86" font-family="ZapfDingbatsITC"><tspan y="-228.081" x="414.5133">&#x25cf;</tspan></text>
<text xml:space="preserve" transform="matrix(.36295 0 -0 .36295 -.9948883 171.16277)" font-size="6.86" font-family="ZapfDingbatsITC"><tspan y="-230.3723" x="415.1513">&#x25cf;</tspan></text>
<text xml:space="preserve" transform="matrix(.36295 0 -0 .36295 -.9948883 171.16277)" font-size="6.86" font-family="ZapfDingbatsITC"><tspan y="-229.1306" x="415.803">&#x25cf;</tspan></text>
<text xml:space="preserve" transform="matrix(.36295 0 -0 .36295 -.9948883 171.16277)" font-size="6.86" font-family="ZapfDingbatsITC"><tspan y="-231.4081" x="416.4409">&#x25cf;</tspan></text>
<text xml:space="preserve" transform="matrix(.36295 0 -0 .36295 -.9948883 171.16277)" font-size="6.86" font-family="ZapfDingbatsITC"><tspan y="-230.1665" x="417.0926">&#x25cf;</tspan></text>
<text xml:space="preserve" transform="matrix(.36295 0 -0 .36295 -.9948883 171.16277)" font-size="6.86" font-family="ZapfDingbatsITC"><tspan y="-228.9454" x="417.7306">&#x25cf;</tspan></text>
<text xml:space="preserve" transform="matrix(.36295 0 -0 .36295 -.9948883 171.16277)" font-size="6.86" font-family="ZapfDingbatsITC"><tspan y="-231.1955" x="418.3686">&#x25cf;</tspan></text>
<text xml:space="preserve" transform="matrix(.36295 0 -0 .36295 -.9948883 171.16277)" font-size="6.86" font-family="ZapfDingbatsITC"><tspan y="-229.9744" x="419.0066">&#x25cf;</tspan></text>
<text xml:space="preserve" transform="matrix(.36295 0 -0 .36295 -.9948883 171.16277)" font-size="6.86" font-family="ZapfDingbatsITC"><tspan y="-228.767" x="419.6446">&#x25cf;</tspan></text>
<text xml:space="preserve" transform="matrix(.36295 0 -0 .36295 -.9948883 171.16277)" font-size="6.86" font-family="ZapfDingbatsITC"><tspan y="-230.9965" x="420.2825">&#x25cf;</tspan></text>
<text xml:space="preserve" transform="matrix(.36295 0 -0 .36295 -.9948883 171.16277)" font-size="6.86" font-family="ZapfDingbatsITC"><tspan y="-229.7892" x="420.9205">&#x25cf;</tspan></text>
<text xml:space="preserve" transform="matrix(.36295 0 -0 .36295 -.9948883 171.16277)" font-size="6.86" font-family="ZapfDingbatsITC"><tspan y="-232.0118" x="421.5516">&#x25cf;</tspan></text>
<text xml:space="preserve" transform="matrix(.36295 0 -0 .36295 -.9948883 171.16277)" font-size="6.86" font-family="ZapfDingbatsITC"><tspan y="-230.8044" x="422.1896">&#x25cf;</tspan></text>
<text xml:space="preserve" transform="matrix(.36295 0 -0 .36295 -.9948883 171.16277)" font-size="6.86" font-family="ZapfDingbatsITC"><tspan y="-233.0065" x="422.8207">&#x25cf;</tspan></text>
<text xml:space="preserve" transform="matrix(.36295 0 -0 .36295 -.9948883 171.16277)" font-size="6.86" font-family="ZapfDingbatsITC"><tspan y="-235.1743" x="423.4519">&#x25cf;</tspan></text>
<text xml:space="preserve" transform="matrix(.36295 0 -0 .36295 -.9948883 171.16277)" font-size="6.86" font-family="ZapfDingbatsITC"><tspan y="-233.9738" x="424.083">&#x25cf;</tspan></text>
<text xml:space="preserve" transform="matrix(.36295 0 -0 .36295 -.9948883 171.16277)" font-size="6.86" font-family="ZapfDingbatsITC"><tspan y="-236.1347" x="424.7141">&#x25cf;</tspan></text>
<text xml:space="preserve" transform="matrix(.36295 0 -0 .36295 -.9948883 171.16277)" font-size="6.86" font-family="ZapfDingbatsITC"><tspan y="-234.9479" x="425.3452">&#x25cf;</tspan></text>
<text xml:space="preserve" transform="matrix(.36295 0 -0 .36295 -.9948883 171.16277)" font-size="6.86" font-family="ZapfDingbatsITC"><tspan y="-237.0882" x="425.9763">&#x25cf;</tspan></text>
<text xml:space="preserve" transform="matrix(.36295 0 -0 .36295 -.9948883 171.16277)" font-size="6.86" font-family="ZapfDingbatsITC"><tspan y="-239.2148" x="426.6075">&#x25cf;</tspan></text>
<text xml:space="preserve" transform="matrix(.36295 0 -0 .36295 -.9948883 171.16277)" font-size="6.86" font-family="ZapfDingbatsITC"><tspan y="-241.3345" x="427.2386">&#x25cf;</tspan></text>
<text xml:space="preserve" transform="matrix(.36295 0 -0 .36295 -.9948883 171.16277)" font-size="6.86" font-family="ZapfDingbatsITC"><tspan y="-240.134" x="427.856">&#x25cf;</tspan></text>
<text xml:space="preserve" transform="matrix(.36295 0 -0 .36295 -.9948883 171.16277)" font-size="6.86" font-family="ZapfDingbatsITC"><tspan y="-238.9473" x="428.4871">&#x25cf;</tspan></text>
<text xml:space="preserve" transform="matrix(.36295 0 -0 .36295 -.9948883 171.16277)" font-size="6.86" font-family="ZapfDingbatsITC"><tspan y="-241.0396" x="429.1045">&#x25cf;</tspan></text>
<text xml:space="preserve" transform="matrix(.36295 0 -0 .36295 -.9948883 171.16277)" font-size="6.86" font-family="ZapfDingbatsITC"><tspan y="-239.8596" x="429.7219">&#x25cf;</tspan></text>
<text xml:space="preserve" transform="matrix(.36295 0 -0 .36295 -.9948883 171.16277)" font-size="6.86" font-family="ZapfDingbatsITC"><tspan y="-241.9382" x="430.3393">&#x25cf;</tspan></text>
<text xml:space="preserve" transform="matrix(.36295 0 -0 .36295 -.9948883 171.16277)" font-size="6.86" font-family="ZapfDingbatsITC"><tspan y="-240.7583" x="430.9567">&#x25cf;</tspan></text>
<text xml:space="preserve" transform="matrix(.36295 0 -0 .36295 -.9948883 171.16277)" font-size="6.86" font-family="ZapfDingbatsITC"><tspan y="-242.8163" x="431.5741">&#x25cf;</tspan></text>
<text xml:space="preserve" transform="matrix(.36295 0 -0 .36295 -.9948883 171.16277)" font-size="6.86" font-family="ZapfDingbatsITC"><tspan y="-241.6364" x="432.1915">&#x25cf;</tspan></text>
<text xml:space="preserve" transform="matrix(.36295 0 -0 .36295 -.9948883 171.16277)" font-size="6.86" font-family="ZapfDingbatsITC"><tspan y="-240.477" x="432.8089">&#x25cf;</tspan></text>
<text xml:space="preserve" transform="matrix(.36295 0 -0 .36295 -.9948883 171.16277)" font-size="6.86" font-family="ZapfDingbatsITC"><tspan y="-242.5145" x="433.4194">&#x25cf;</tspan></text>
<text xml:space="preserve" transform="matrix(.36295 0 -0 .36295 -.9948883 171.16277)" font-size="6.86" font-family="ZapfDingbatsITC"><tspan y="-244.545" x="434.0368">&#x25cf;</tspan></text>
<text xml:space="preserve" transform="matrix(.36295 0 -0 .36295 -.9948883 171.16277)" font-size="6.86" font-family="ZapfDingbatsITC"><tspan y="-246.5619" x="434.6474">&#x25cf;</tspan></text>
<text xml:space="preserve" transform="matrix(.36295 0 -0 .36295 -.9948883 171.16277)" font-size="6.86" font-family="ZapfDingbatsITC"><tspan y="-248.565" x="435.2648">&#x25cf;</tspan></text>
<text xml:space="preserve" transform="matrix(.36295 0 -0 .36295 -.9948883 171.16277)" font-size="6.86" font-family="ZapfDingbatsITC"><tspan y="-247.3919" x="435.8753">&#x25cf;</tspan></text>
<text xml:space="preserve" transform="matrix(.36295 0 -0 .36295 -.9948883 171.16277)" font-size="6.86" font-family="ZapfDingbatsITC"><tspan y="-246.2326" x="436.4859">&#x25cf;</tspan></text>
<text xml:space="preserve" transform="matrix(.36295 0 -0 .36295 -.9948883 171.16277)" font-size="6.86" font-family="ZapfDingbatsITC"><tspan y="-248.2151" x="437.0964">&#x25cf;</tspan></text>
<text xml:space="preserve" transform="matrix(.36295 0 -0 .36295 -.9948883 171.16277)" font-size="6.86" font-family="ZapfDingbatsITC"><tspan y="-247.0626" x="437.7069">&#x25cf;</tspan></text>
<text xml:space="preserve" transform="matrix(.36295 0 -0 .36295 -.9948883 171.16277)" font-size="6.86" font-family="ZapfDingbatsITC"><tspan y="-245.9033" x="438.3175">&#x25cf;</tspan></text>
<text xml:space="preserve" transform="matrix(.36295 0 -0 .36295 -.9948883 171.16277)" font-size="6.86" font-family="ZapfDingbatsITC"><tspan y="-247.8721" x="438.928">&#x25cf;</tspan></text>
<text xml:space="preserve" transform="matrix(.36295 0 -0 .36295 -.9948883 171.16277)" font-size="6.86" font-family="ZapfDingbatsITC"><tspan y="-246.7334" x="439.5248">&#x25cf;</tspan></text>
<text xml:space="preserve" transform="matrix(.36295 0 -0 .36295 -.9948883 171.16277)" font-size="6.86" font-family="ZapfDingbatsITC"><tspan y="-245.5946" x="440.1354">&#x25cf;</tspan></text>
<text xml:space="preserve" transform="matrix(.36295 0 -0 .36295 -.9948883 171.16277)" font-size="6.86" font-family="ZapfDingbatsITC"><tspan y="-244.4558" x="440.7322">&#x25cf;</tspan></text>
<text xml:space="preserve" transform="matrix(.36295 0 -0 .36295 -.9948883 171.16277)" font-size="6.86" font-family="ZapfDingbatsITC"><tspan y="-243.3377" x="441.3427">&#x25cf;</tspan></text>
<text xml:space="preserve" transform="matrix(.36295 0 -0 .36295 -.9948883 171.16277)" font-size="6.86" font-family="ZapfDingbatsITC"><tspan y="-242.2195" x="441.9396">&#x25cf;</tspan></text>
<text xml:space="preserve" transform="matrix(.36295 0 -0 .36295 -.9948883 171.16277)" font-size="6.86" font-family="ZapfDingbatsITC"><tspan y="-244.1609" x="442.5364">&#x25cf;</tspan></text>
<text xml:space="preserve" transform="matrix(.36295 0 -0 .36295 -.9948883 171.16277)" font-size="6.86" font-family="ZapfDingbatsITC"><tspan y="-246.0885" x="443.1332">&#x25cf;</tspan></text>
<text xml:space="preserve" transform="matrix(.36295 0 -0 .36295 -.9948883 171.16277)" font-size="6.86" font-family="ZapfDingbatsITC"><tspan y="-244.9772" x="443.73">&#x25cf;</tspan></text>
<text xml:space="preserve" transform="matrix(.36295 0 -0 .36295 -.9948883 171.16277)" font-size="6.86" font-family="ZapfDingbatsITC"><tspan y="-246.8843" x="444.3268">&#x25cf;</tspan></text>
<text xml:space="preserve" transform="matrix(.36295 0 -0 .36295 -.9948883 171.16277)" font-size="6.86" font-family="ZapfDingbatsITC"><tspan y="-248.7914" x="444.9237">&#x25cf;</tspan></text>
<text xml:space="preserve" transform="matrix(.36295 0 -0 .36295 -.9948883 171.16277)" font-size="6.86" font-family="ZapfDingbatsITC"><tspan y="-250.6916" x="445.5205">&#x25cf;</tspan></text>
<text xml:space="preserve" transform="matrix(.36295 0 -0 .36295 -.9948883 171.16277)" font-size="6.86" font-family="ZapfDingbatsITC"><tspan y="-249.5734" x="446.1173">&#x25cf;</tspan></text>
<text xml:space="preserve" transform="matrix(.36295 0 -0 .36295 -.9948883 171.16277)" font-size="6.86" font-family="ZapfDingbatsITC"><tspan y="-248.4621" x="446.7073">&#x25cf;</tspan></text>
<text xml:space="preserve" transform="matrix(.36295 0 -0 .36295 -.9948883 171.16277)" font-size="6.86" font-family="ZapfDingbatsITC"><tspan y="-247.3508" x="447.3041">&#x25cf;</tspan></text>
<text xml:space="preserve" transform="matrix(.36295 0 -0 .36295 -.9948883 171.16277)" font-size="6.86" font-family="ZapfDingbatsITC"><tspan y="-246.26" x="447.894">&#x25cf;</tspan></text>
<text xml:space="preserve" transform="matrix(.36295 0 -0 .36295 -.9948883 171.16277)" font-size="6.86" font-family="ZapfDingbatsITC"><tspan y="-245.1624" x="448.484">&#x25cf;</tspan></text>
<text xml:space="preserve" transform="matrix(.36295 0 -0 .36295 -.9948883 171.16277)" font-size="6.86" font-family="ZapfDingbatsITC"><tspan y="-247.0421" x="449.0808">&#x25cf;</tspan></text>
<text xml:space="preserve" transform="matrix(.36295 0 -0 .36295 -.9948883 171.16277)" font-size="6.86" font-family="ZapfDingbatsITC"><tspan y="-245.9513" x="449.6708">&#x25cf;</tspan></text>
<text xml:space="preserve" transform="matrix(.36295 0 -0 .36295 -.9948883 171.16277)" font-size="6.86" font-family="ZapfDingbatsITC"><tspan y="-244.8743" x="450.2607">&#x25cf;</tspan></text>
<text xml:space="preserve" transform="matrix(.36295 0 -0 .36295 -.9948883 171.16277)" font-size="6.86" font-family="ZapfDingbatsITC"><tspan y="-243.7973" x="450.8507">&#x25cf;</tspan></text>
<text xml:space="preserve" transform="matrix(.36295 0 -0 .36295 -.9948883 171.16277)" font-size="6.86" font-family="ZapfDingbatsITC"><tspan y="-245.6563" x="451.4338">&#x25cf;</tspan></text>
<text xml:space="preserve" transform="matrix(.36295 0 -0 .36295 -.9948883 171.16277)" font-size="6.86" font-family="ZapfDingbatsITC"><tspan y="-244.5862" x="452.0238">&#x25cf;</tspan></text>
<text xml:space="preserve" transform="matrix(.36295 0 -0 .36295 -.9948883 171.16277)" font-size="6.86" font-family="ZapfDingbatsITC"><tspan y="-246.4247" x="452.6137">&#x25cf;</tspan></text>
<text xml:space="preserve" transform="matrix(.36295 0 -0 .36295 -.9948883 171.16277)" font-size="6.86" font-family="ZapfDingbatsITC"><tspan y="-245.3545" x="453.2037">&#x25cf;</tspan></text>
<text xml:space="preserve" transform="matrix(.36295 0 -0 .36295 -.9948883 171.16277)" font-size="6.86" font-family="ZapfDingbatsITC"><tspan y="-244.2912" x="453.7868">&#x25cf;</tspan></text>
<text xml:space="preserve" transform="matrix(.36295 0 -0 .36295 -.9948883 171.16277)" font-size="6.86" font-family="ZapfDingbatsITC"><tspan y="-243.2416" x="454.3767">&#x25cf;</tspan></text>
<text xml:space="preserve" transform="matrix(.36295 0 -0 .36295 -.9948883 171.16277)" font-size="6.86" font-family="ZapfDingbatsITC"><tspan y="-242.192" x="454.9598">&#x25cf;</tspan></text>
<text xml:space="preserve" transform="matrix(.36295 0 -0 .36295 -.9948883 171.16277)" font-size="6.86" font-family="ZapfDingbatsITC"><tspan y="-241.1493" x="455.5429">&#x25cf;</tspan></text>
<text xml:space="preserve" transform="matrix(.36295 0 -0 .36295 -.9948883 171.16277)" font-size="6.86" font-family="ZapfDingbatsITC"><tspan y="-242.9672" x="456.126">&#x25cf;</tspan></text>
<text xml:space="preserve" transform="matrix(.36295 0 -0 .36295 -.9948883 171.16277)" font-size="6.86" font-family="ZapfDingbatsITC"><tspan y="-241.9245" x="456.7091">&#x25cf;</tspan></text>
<text xml:space="preserve" transform="matrix(.36295 0 -0 .36295 -.9948883 171.16277)" font-size="6.86" font-family="ZapfDingbatsITC"><tspan y="-243.7355" x="457.2991">&#x25cf;</tspan></text>
<text xml:space="preserve" transform="matrix(.36295 0 -0 .36295 -.9948883 171.16277)" font-size="6.86" font-family="ZapfDingbatsITC"><tspan y="-242.6928" x="457.8685">&#x25cf;</tspan></text>
<text xml:space="preserve" transform="matrix(.36295 0 -0 .36295 -.9948883 171.16277)" font-size="6.86" font-family="ZapfDingbatsITC"><tspan y="-241.6638" x="458.4516">&#x25cf;</tspan></text>
<text xml:space="preserve" transform="matrix(.36295 0 -0 .36295 -.9948883 171.16277)" font-size="6.86" font-family="ZapfDingbatsITC"><tspan y="-240.6417" x="459.0347">&#x25cf;</tspan></text>
<text xml:space="preserve" transform="matrix(.36295 0 -0 .36295 -.9948883 171.16277)" font-size="6.86" font-family="ZapfDingbatsITC"><tspan y="-239.6195" x="459.6178">&#x25cf;</tspan></text>
<text xml:space="preserve" transform="matrix(.36295 0 -0 .36295 -.9948883 171.16277)" font-size="6.86" font-family="ZapfDingbatsITC"><tspan y="-241.41" x="460.1872">&#x25cf;</tspan></text>
<text xml:space="preserve" transform="matrix(.36295 0 -0 .36295 -.9948883 171.16277)" font-size="6.86" font-family="ZapfDingbatsITC"><tspan y="-240.3879" x="460.7703">&#x25cf;</tspan></text>
<text xml:space="preserve" transform="matrix(.36295 0 -0 .36295 -.9948883 171.16277)" font-size="6.86" font-family="ZapfDingbatsITC"><tspan y="-239.3863" x="461.3396">&#x25cf;</tspan></text>
<text xml:space="preserve" transform="matrix(.36295 0 -0 .36295 -.9948883 171.16277)" font-size="6.86" font-family="ZapfDingbatsITC"><tspan y="-238.3779" x="461.9227">&#x25cf;</tspan></text>
<text xml:space="preserve" transform="matrix(.36295 0 -0 .36295 -.9948883 171.16277)" font-size="6.86" font-family="ZapfDingbatsITC"><tspan y="-237.3763" x="462.4921">&#x25cf;</tspan></text>
<text xml:space="preserve" transform="matrix(.36295 0 -0 .36295 -.9948883 171.16277)" font-size="6.86" font-family="ZapfDingbatsITC"><tspan y="-239.1462" x="463.0615">&#x25cf;</tspan></text>
<text xml:space="preserve" transform="matrix(.36295 0 -0 .36295 -.9948883 171.16277)" font-size="6.86" font-family="ZapfDingbatsITC"><tspan y="-238.1584" x="463.6309">&#x25cf;</tspan></text>
<text xml:space="preserve" transform="matrix(.36295 0 -0 .36295 -.9948883 171.16277)" font-size="6.86" font-family="ZapfDingbatsITC"><tspan y="-237.1705" x="464.2003">&#x25cf;</tspan></text>
<text xml:space="preserve" transform="matrix(.36295 0 -0 .36295 -.9948883 171.16277)" font-size="6.86" font-family="ZapfDingbatsITC"><tspan y="-236.1895" x="464.7696">&#x25cf;</tspan></text>
<text xml:space="preserve" transform="matrix(.36295 0 -0 .36295 -.9948883 171.16277)" font-size="6.86" font-family="ZapfDingbatsITC"><tspan y="-235.2086" x="465.339">&#x25cf;</tspan></text>
<text xml:space="preserve" transform="matrix(.36295 0 -0 .36295 -.9948883 171.16277)" font-size="6.86" font-family="ZapfDingbatsITC"><tspan y="-234.2413" x="465.9084">&#x25cf;</tspan></text>
<text xml:space="preserve" transform="matrix(.36295 0 -0 .36295 -.9948883 171.16277)" font-size="6.86" font-family="ZapfDingbatsITC"><tspan y="-233.274" x="466.4778">&#x25cf;</tspan></text>
<text xml:space="preserve" transform="matrix(.36295 0 -0 .36295 -.9948883 171.16277)" font-size="6.86" font-family="ZapfDingbatsITC"><tspan y="-235.0233" x="467.0472">&#x25cf;</tspan></text>
<text xml:space="preserve" transform="matrix(.36295 0 -0 .36295 -.9948883 171.16277)" font-size="6.86" font-family="ZapfDingbatsITC"><tspan y="-234.0561" x="467.6097">&#x25cf;</tspan></text>
<text xml:space="preserve" transform="matrix(.36295 0 -0 .36295 -.9948883 171.16277)" font-size="6.86" font-family="ZapfDingbatsITC"><tspan y="-233.1094" x="468.1791">&#x25cf;</tspan></text>
<text xml:space="preserve" transform="matrix(.36295 0 -0 .36295 -.9948883 171.16277)" font-size="6.86" font-family="ZapfDingbatsITC"><tspan y="-234.8381" x="468.7416">&#x25cf;</tspan></text>
<text xml:space="preserve" transform="matrix(.36295 0 -0 .36295 -.9948883 171.16277)" font-size="6.86" font-family="ZapfDingbatsITC"><tspan y="-233.8777" x="469.311">&#x25cf;</tspan></text>
<text xml:space="preserve" transform="matrix(.36295 0 -0 .36295 -.9948883 171.16277)" font-size="6.86" font-family="ZapfDingbatsITC"><tspan y="-232.931" x="469.8735">&#x25cf;</tspan></text>
<text xml:space="preserve" transform="matrix(.36295 0 -0 .36295 -.9948883 171.16277)" font-size="6.86" font-family="ZapfDingbatsITC"><tspan y="-234.6529" x="470.436">&#x25cf;</tspan></text>
<text xml:space="preserve" transform="matrix(.36295 0 -0 .36295 -.9948883 171.16277)" font-size="6.86" font-family="ZapfDingbatsITC"><tspan y="-233.7131" x="470.9985">&#x25cf;</tspan></text>
<text xml:space="preserve" transform="matrix(.36295 0 -0 .36295 -.9948883 171.16277)" font-size="6.86" font-family="ZapfDingbatsITC"><tspan y="-232.7664" x="471.561">&#x25cf;</tspan></text>
<text xml:space="preserve" transform="matrix(.36295 0 -0 .36295 -.9948883 171.16277)" font-size="6.86" font-family="ZapfDingbatsITC"><tspan y="-234.4745" x="472.1236">&#x25cf;</tspan></text>
<text xml:space="preserve" transform="matrix(.36295 0 -0 .36295 -.9948883 171.16277)" font-size="6.86" font-family="ZapfDingbatsITC"><tspan y="-233.5347" x="472.6861">&#x25cf;</tspan></text>
<text xml:space="preserve" transform="matrix(.36295 0 -0 .36295 -.9948883 171.16277)" font-size="6.86" font-family="ZapfDingbatsITC"><tspan y="-232.6018" x="473.2486">&#x25cf;</tspan></text>
<text xml:space="preserve" transform="matrix(.36295 0 -0 .36295 -.9948883 171.16277)" font-size="6.86" font-family="ZapfDingbatsITC"><tspan y="-231.6688" x="473.8111">&#x25cf;</tspan></text>
<text xml:space="preserve" transform="matrix(.36295 0 -0 .36295 -.9948883 171.16277)" font-size="6.86" font-family="ZapfDingbatsITC"><tspan y="-230.7358" x="474.3736">&#x25cf;</tspan></text>
<text xml:space="preserve" transform="matrix(.36295 0 -0 .36295 -.9948883 171.16277)" font-size="6.86" font-family="ZapfDingbatsITC"><tspan y="-229.8166" x="474.9224">&#x25cf;</tspan></text>
<text xml:space="preserve" transform="matrix(.36295 0 -0 .36295 -.9948883 171.16277)" font-size="6.86" font-family="ZapfDingbatsITC"><tspan y="-228.8974" x="475.485">&#x25cf;</tspan></text>
<text xml:space="preserve" transform="matrix(.36295 0 -0 .36295 -.9948883 171.16277)" font-size="6.86" font-family="ZapfDingbatsITC"><tspan y="-227.985" x="476.0338">&#x25cf;</tspan></text>
<text xml:space="preserve" transform="matrix(.36295 0 -0 .36295 -.9948883 171.16277)" font-size="6.86" font-family="ZapfDingbatsITC"><tspan y="-227.0863" x="476.5963">&#x25cf;</tspan></text>
<text xml:space="preserve" transform="matrix(.36295 0 -0 .36295 -.9948883 171.16277)" font-size="6.86" font-family="ZapfDingbatsITC"><tspan y="-228.767" x="477.1451">&#x25cf;</tspan></text>
<text xml:space="preserve" transform="matrix(.36295 0 -0 .36295 -.9948883 171.16277)" font-size="6.86" font-family="ZapfDingbatsITC"><tspan y="-227.8684" x="477.6939">&#x25cf;</tspan></text>
<text xml:space="preserve" transform="matrix(.36295 0 -0 .36295 -.9948883 171.16277)" font-size="6.86" font-family="ZapfDingbatsITC"><tspan y="-226.9697" x="478.2427">&#x25cf;</tspan></text>
<text xml:space="preserve" transform="matrix(.36295 0 -0 .36295 -.9948883 171.16277)" font-size="6.86" font-family="ZapfDingbatsITC"><tspan y="-226.071" x="478.8052">&#x25cf;</tspan></text>
<text xml:space="preserve" transform="matrix(.36295 0 -0 .36295 -.9948883 171.16277)" font-size="6.86" font-family="ZapfDingbatsITC"><tspan y="-225.1792" x="479.354">&#x25cf;</tspan></text>
<text xml:space="preserve" transform="matrix(.36295 0 -0 .36295 -.9948883 171.16277)" font-size="6.86" font-family="ZapfDingbatsITC"><tspan y="-226.8462" x="479.9028">&#x25cf;</tspan></text>
<text xml:space="preserve" transform="matrix(.36295 0 -0 .36295 -.9948883 171.16277)" font-size="6.86" font-family="ZapfDingbatsITC"><tspan y="-225.9544" x="480.4516">&#x25cf;</tspan></text>
<text xml:space="preserve" transform="matrix(.36295 0 -0 .36295 -.9948883 171.16277)" font-size="6.86" font-family="ZapfDingbatsITC"><tspan y="-227.6145" x="480.9935">&#x25cf;</tspan></text>
<text xml:space="preserve" transform="matrix(.36295 0 -0 .36295 -.9948883 171.16277)" font-size="6.86" font-family="ZapfDingbatsITC"><tspan y="-226.7227" x="481.5423">&#x25cf;</tspan></text>
<text xml:space="preserve" transform="matrix(.36295 0 -0 .36295 -.9948883 171.16277)" font-size="6.86" font-family="ZapfDingbatsITC"><tspan y="-228.376" x="482.0911">&#x25cf;</tspan></text>
<text xml:space="preserve" transform="matrix(.36295 0 -0 .36295 -.9948883 171.16277)" font-size="6.86" font-family="ZapfDingbatsITC"><tspan y="-230.0155" x="482.6399">&#x25cf;</tspan></text>
<text xml:space="preserve" transform="matrix(.36295 0 -0 .36295 -.9948883 171.16277)" font-size="6.86" font-family="ZapfDingbatsITC"><tspan y="-229.1237" x="483.1819">&#x25cf;</tspan></text>
<text xml:space="preserve" transform="matrix(.36295 0 -0 .36295 -.9948883 171.16277)" font-size="6.86" font-family="ZapfDingbatsITC"><tspan y="-228.2457" x="483.7307">&#x25cf;</tspan></text>
<text xml:space="preserve" transform="matrix(.36295 0 -0 .36295 -.9948883 171.16277)" font-size="6.86" font-family="ZapfDingbatsITC"><tspan y="-227.3744" x="484.2726">&#x25cf;</tspan></text>
<text xml:space="preserve" transform="matrix(.36295 0 -0 .36295 -.9948883 171.16277)" font-size="6.86" font-family="ZapfDingbatsITC"><tspan y="-226.5032" x="484.8146">&#x25cf;</tspan></text>
<text xml:space="preserve" transform="matrix(.36295 0 -0 .36295 -.9948883 171.16277)" font-size="6.86" font-family="ZapfDingbatsITC"><tspan y="-228.1222" x="485.3634">&#x25cf;</tspan></text>
<text xml:space="preserve" transform="matrix(.36295 0 -0 .36295 -.9948883 171.16277)" font-size="6.86" font-family="ZapfDingbatsITC"><tspan y="-229.7343" x="485.9053">&#x25cf;</tspan></text>
<text xml:space="preserve" transform="matrix(.36295 0 -0 .36295 -.9948883 171.16277)" font-size="6.86" font-family="ZapfDingbatsITC"><tspan y="-228.8631" x="486.4472">&#x25cf;</tspan></text>
<text xml:space="preserve" transform="matrix(.36295 0 -0 .36295 -.9948883 171.16277)" font-size="6.86" font-family="ZapfDingbatsITC"><tspan y="-228.0056" x="486.9892">&#x25cf;</tspan></text>
<text xml:space="preserve" transform="matrix(.36295 0 -0 .36295 -.9948883 171.16277)" font-size="6.86" font-family="ZapfDingbatsITC"><tspan y="-227.1343" x="487.5311">&#x25cf;</tspan></text>
<text xml:space="preserve" transform="matrix(.36295 0 -0 .36295 -.9948883 171.16277)" font-size="6.86" font-family="ZapfDingbatsITC"><tspan y="-226.2837" x="488.0731">&#x25cf;</tspan></text>
<text xml:space="preserve" transform="matrix(.36295 0 -0 .36295 -.9948883 171.16277)" font-size="6.86" font-family="ZapfDingbatsITC"><tspan y="-225.4262" x="488.615">&#x25cf;</tspan></text>
<text xml:space="preserve" transform="matrix(.36295 0 -0 .36295 -.9948883 171.16277)" font-size="6.86" font-family="ZapfDingbatsITC"><tspan y="-227.0246" x="489.1569">&#x25cf;</tspan></text>
<text xml:space="preserve" transform="matrix(.36295 0 -0 .36295 -.9948883 171.16277)" font-size="6.86" font-family="ZapfDingbatsITC"><tspan y="-228.6161" x="489.6989">&#x25cf;</tspan></text>
<text xml:space="preserve" transform="matrix(.36295 0 -0 .36295 -.9948883 171.16277)" font-size="6.86" font-family="ZapfDingbatsITC"><tspan y="-230.1939" x="490.2271">&#x25cf;</tspan></text>
</g>
<g clip-path="url(#clip_4)">
<path transform="matrix(.36295,0,0,-.36295,175.544,146.72898)" stroke-width=".75" stroke-linecap="round" stroke-linejoin="round" fill="none" stroke="#000000" d="M0 0H61.88"/>
<path transform="matrix(.36295,0,0,-.36295,175.544,146.72898)" stroke-width=".75" stroke-linecap="round" stroke-linejoin="round" fill="none" stroke="#000000" d="M0 0V-6.6"/>
<text xml:space="preserve" transform="matrix(.36295 0 -0 .36295 -.9948883 171.16277)" font-size="11" font-family="Helvetica"><tspan y="-43.56" x="480.29 486.406">20</tspan></text>
<path transform="matrix(.36295,0,0,-.36295,18.647973,142.0687)" stroke-width=".75" stroke-linecap="round" stroke-linejoin="round" fill="none" stroke="#000000" d="M0 0V300.83"/>
<path transform="matrix(.36295,0,0,-.36295,18.647973,142.0687)" stroke-width=".75" stroke-linecap="round" stroke-linejoin="round" fill="none" stroke="#000000" d="M0 0H-6.6"/>
<path transform="matrix(.36295,0,0,-.36295,18.647973,123.87401)" stroke-width=".75" stroke-linecap="round" stroke-linejoin="round" fill="none" stroke="#000000" d="M0 0H-6.6"/>
<path transform="matrix(.36295,0,0,-.36295,18.647973,105.6757)" stroke-width=".75" stroke-linecap="round" stroke-linejoin="round" fill="none" stroke="#000000" d="M0 0H-6.6"/>
<path transform="matrix(.36295,0,0,-.36295,18.647973,87.4774)" stroke-width=".75" stroke-linecap="round" stroke-linejoin="round" fill="none" stroke="#000000" d="M0 0H-6.6"/>
<path transform="matrix(.36295,0,0,-.36295,18.647973,69.2791)" stroke-width=".75" stroke-linecap="round" stroke-linejoin="round" fill="none" stroke="#000000" d="M0 0H-6.6"/>
<path transform="matrix(.36295,0,0,-.36295,18.647973,51.080797)" stroke-width=".75" stroke-linecap="round" stroke-linejoin="round" fill="none" stroke="#000000" d="M0 0H-6.6"/>
<path transform="matrix(.36295,0,0,-.36295,18.647973,32.8824)" stroke-width=".75" stroke-linecap="round" stroke-linejoin="round" fill="none" stroke="#000000" d="M0 0H-6.6"/>
<text xml:space="preserve" transform="matrix(0 -.36295 .36295 0 -.9948883 171.16277)" font-size="11" font-family="Helvetica"><tspan y="38.28" x="69.45 75.565998 78.62399 84.73999 119.59019 125.706188 128.76419 134.88019 169.73038 175.84638 178.90438 185.02037 219.86948 225.98548 229.04347 235.15947 270.00968 276.12568 279.1837 285.29969 320.14988 326.26588 329.32389 335.43989 370.29008 376.40608 379.46409 385.58009">0.200.250.300.350.400.450.50</tspan></text>
<path transform="matrix(.36295,0,0,-.36295,18.647973,146.72898)" stroke-width=".75" stroke-linecap="round" stroke-linejoin="round" fill="none" stroke="#000000" d="M0 0H494.16V346.56H0V0"/>
<text xml:space="preserve" transform="matrix(.36295 0 -0 .36295 -.9948883 171.16277)" font-size="13" font-family="Helvetica" font-weight="bold"><tspan y="-444.19" x="157.45 160.54399 169.93 173.54399 180.77199 192.329 199.55699 207.49999 211.82898 219.05698 222.15097 225.76497 233.70796 240.93596 245.26496 249.59395 253.20795 261.15095 269.09394 272.70796 279.93595 287.16395 294.39195 299.44895 306.67695 314.61994 321.84794 329.07594 332.68995 340.63294 347.86094 355.08894 360.14595 363.75996 370.98796 378.21595 385.44395 392.67195 396.28596 403.51396 410.74195 417.96995 425.19795 433.14094 441.08393">'Clemente' batting averages over 1970 season:</tspan></text>
<text xml:space="preserve" transform="matrix(.36295 0 -0 .36295 -.9948883 171.16277)" font-size="13" font-family="Helvetica" font-weight="bold"><tspan y="-428.356" x="139.614 143.228 150.456 157.68399 164.91199 168.52599 175.75399 180.08298 184.41197 191.63997 196.69698 200.31098 207.53897 214.76697 218.38097 225.60897 229.93796 233.55196 241.49495 248.72295 253.05194 260.27995 264.60896 268.22297 271.83699 279.06498 286.29298 293.52098 297.13499 301.464 309.40699 314.464 318.078 323.135 330.363 341.92 349.148 352.76203 360.70503 368.648 375.876 380.933 384.54704 388.87605 392.49006 396.10408 403.33207 410.56007 417.78807 421.40208 429.34507 436.57307 443.80107 448.85807 456.08607 459.70008">.400 after 45 at bats; .346 for remainder ; .352 overall</tspan></text>
<text xml:space="preserve" transform="matrix(.36295 0 -0 .36295 -.9948883 171.16277)" font-size="11" font-family="Helvetica"><tspan y="-17.16" x="215 222.942 229.058 238.221 244.33699 250.45299 254.11598 257.17399 264.511 267.569 270.627 277.96403 284.08003 287.13804 292.63804 295.69606 299.35905 304.85905 310.97505 317.09104 323.20704 326.87004 332.98603 336.04405 339.70704 345.82304 351.93904 354.99705 358.05506 363.55506 369.05506 375.17106 377.61305 383.72904">Number At Bats (square root scale)</tspan></text>
<text xml:space="preserve" transform="matrix(0 -.36295 .36295 0 -.9948883 171.16277)" font-size="11" font-family="Helvetica"><tspan y="11.88" x="202.38 209.71701 215.83301 218.891 221.949 224.391 230.507 236.623 239.681 245.797 251.297 257.413 261.076 267.192 273.30799">Batting average</tspan></text>
</g>
<g clip-path="url(#clip_5)">
<path transform="matrix(.36295,0,0,-.36295,26.077599,171.16277)" stroke-width="1.5" stroke-linecap="round" stroke-linejoin="round" fill="none" stroke="#00cd00" d="M0 0 6.86 380.99 13.78 213.86 19.62 130.29 24.76 80.16 29.41 46.73 33.69 22.85 37.67 130.29 41.41 213.86 44.94 180.43 48.31 153.08 51.52 213.86 54.6 188.15 57.57 166.11 60.43 213.86 63.2 255.64 65.88 292.51 68.48 269.57 71.02 301.82 73.48 280.71 75.89 309.36 78.24 335.41 80.54 359.19 82.78 339.21 84.99 360.93 87.14 342.42 89.26 325.28 91.34 309.36 93.38 294.54 95.38 280.71 97.36 267.77 99.3 255.64 101.21 274.63 103.09 263.02 104.95 280.71 106.77 269.57 108.58 286.13 110.36 301.82 112.11 291 113.85 280.71 115.56 295.39 117.25 285.49 118.92 276.05 120.57 289.83 122.2 280.71 123.82 293.79 125.42 306.31 127 297.42 128.56 288.9 130.11 280.71 131.64 272.85 133.16 265.28 134.67 258.01 136.15 251 137.63 262.48 139.09 255.64 140.54 249.04 141.98 259.96 143.4 253.52 144.82 247.29 146.22 241.26 147.61 235.42 148.98 229.78 150.35 224.3 151.71 219 153.05 213.86 154.39 223.84 155.72 218.77 157.03 213.86 158.34 209.08 159.64 204.44 160.92 199.93 162.2 209.28 163.47 218.38 164.74 227.23 165.99 222.66 167.24 218.2 168.47 213.86 169.7 209.63 170.92 205.5 172.14 201.48 173.35 209.78 174.55 205.8 175.74 201.92 176.92 198.13 178.1 194.43 179.27 202.33 180.44 198.67 181.59 206.35 182.75 202.72 183.89 199.17 185.03 206.59 186.16 203.08 187.29 199.64 188.41 196.27 189.53 192.97 190.63 189.74 191.74 186.57 192.84 193.6 193.93 190.46 195.01 197.31 196.1 204.03 197.17 200.88 198.24 197.79 199.31 194.76 200.37 191.79 201.42 188.87 202.48 186 203.52 183.19 204.56 180.43 205.6 186.76 206.63 184.01 207.66 181.32 208.68 178.67 209.7 176.07 210.71 173.52 211.72 179.58 212.73 185.53 213.73 182.96 214.72 180.43 215.72 177.95 216.7 175.5 217.69 173.1 218.67 178.82 219.65 184.44 220.62 189.98 221.59 195.44 222.55 192.97 223.51 198.31 224.47 195.86 225.42 193.45 226.37 191.07 227.32 188.73 228.26 186.42 229.2 184.15 230.14 189.28 231.07 187.02 232 184.79 232.92 182.6 233.85 187.6 234.77 185.41 235.68 183.26 236.59 188.15 237.5 192.97 238.41 190.81 239.31 195.54 240.21 193.39 241.11 191.27 242 189.18 242.9 193.8 243.78 198.36 244.67 196.27 245.55 194.2 246.43 198.67 247.31 203.08 248.18 201 249.05 198.96 249.92 203.28 250.78 201.25 251.65 199.24 252.51 203.48 253.36 201.48 254.22 199.5 255.07 197.55 255.92 195.63 256.77 193.72 257.61 191.84 258.45 189.98 259.29 188.15 260.13 192.23 260.96 190.4 261.8 194.43 262.62 192.61 263.45 196.57 264.28 194.76 265.1 192.97 265.92 191.2 266.74 195.08 267.55 193.32 268.37 191.58 269.18 195.39 269.98 193.66 270.79 191.94 271.6 195.69 272.4 199.4 273.2 203.08 274 201.35 274.79 199.64 275.58 203.25 276.38 206.82 277.16 205.11 277.95 208.64 278.74 206.93 279.52 205.24 280.3 203.57 281.08 201.92 281.86 200.29 282.63 198.67 283.41 202.1 284.18 200.49 284.95 198.89 285.71 197.31 286.48 200.69 287.24 204.03 288.01 202.45 288.77 200.88 289.52 199.33 290.28 202.61 291.03 201.06 291.79 199.53 292.54 198.02 293.29 201.25 294.03 199.74 294.78 202.93 295.52 201.42 296.27 199.93 297.01 203.08 297.75 201.59 298.48 200.12 299.22 203.22 299.95 201.76 300.68 200.31 301.41 198.87 302.14 197.44 302.87 196.03 303.59 199.07 304.32 202.08 305.04 200.66 305.76 199.26 306.48 202.23 307.2 200.84 307.91 199.45 308.63 198.08 309.34 201 310.05 203.9 310.76 206.78 311.47 205.4 312.18 204.03 312.88 202.67 313.59 201.32 314.29 204.15 314.99 206.95 315.69 205.61 316.39 204.27 317.09 207.04 317.78 205.71 318.47 204.39 319.17 207.12 319.86 205.8 320.55 204.5 321.24 203.21 321.92 205.9 322.61 204.61 323.29 207.28 323.98 205.99 324.66 208.64 325.34 207.36 326.02 206.09 326.69 208.7 327.37 211.29 328.05 213.86 328.72 216.41 329.39 218.94 330.06 221.46 330.73 223.95 331.4 226.43 332.07 228.88 332.73 227.58 333.4 226.29 334.06 225 334.73 223.73 335.39 226.15 336.05 224.88 336.71 227.28 337.36 229.66 338.02 228.39 338.67 227.13 339.33 225.88 339.98 228.24 340.63 226.99 341.28 229.32 341.93 231.64 342.58 230.4 343.23 232.69 343.87 231.45 344.52 233.73 345.16 232.49 345.8 231.27 346.45 233.52 347.09 232.3 347.73 231.09 348.36 233.32 349 232.11 349.64 234.32 350.27 233.12 350.9 235.32 351.54 237.49 352.17 236.29 352.8 238.45 353.43 237.26 354.06 239.4 354.69 241.53 355.31 243.64 355.94 242.45 356.56 241.26 357.18 243.35 357.81 242.17 358.43 244.25 359.05 243.07 359.67 245.13 360.29 243.95 360.9 242.79 361.52 244.83 362.13 246.86 362.75 248.88 363.36 250.88 363.97 249.71 364.59 248.55 365.2 250.53 365.81 249.37 366.41 248.22 367.02 250.19 367.63 249.04 368.23 247.9 368.84 246.77 369.44 245.64 370.05 244.53 370.65 246.47 371.25 248.4 371.85 247.29 372.45 249.2 373.05 251.11 373.64 253.01 374.24 251.89 374.84 250.78 375.43 249.67 376.02 248.57 376.62 247.48 377.21 249.36 377.8 248.27 378.39 247.19 378.98 246.11 379.57 247.97 380.16 246.9 380.74 248.74 381.33 247.67 381.92 246.61 382.5 245.56 383.08 244.51 383.67 243.47 384.25 245.29 384.83 244.25 385.41 246.05 385.99 245.02 386.57 243.99 387.15 242.97 387.72 241.95 388.3 243.74 388.87 242.72 389.45 241.71 390.02 240.71 390.6 239.71 391.17 241.48 391.74 240.49 392.31 239.5 392.88 238.52 393.45 237.54 394.02 236.57 394.58 235.6 395.15 237.35 395.72 236.38 396.28 235.42 396.85 237.16 397.41 236.2 397.97 235.25 398.54 236.97 399.1 236.02 399.66 235.08 400.22 236.79 400.78 235.85 401.34 234.91 401.89 233.98 402.45 233.06 403.01 232.14 403.56 231.22 404.12 230.31 404.67 229.41 405.22 231.09 405.78 230.19 406.33 229.29 406.88 228.39 407.43 227.5 407.98 229.17 408.53 228.28 409.08 229.94 409.63 229.05 410.17 230.7 410.72 232.34 411.27 231.45 411.81 230.57 412.36 229.7 412.9 228.83 413.44 230.45 413.98 232.06 414.53 231.19 415.07 230.33 415.61 229.46 416.15 228.61 416.69 227.75 417.22 229.35 417.76 230.94 418.3 232.52"/>
<text fill="#ff0000" xml:space="preserve" transform="matrix(.36295 0 -0 .36295 -.9948883 171.16277)" font-size="11" font-family="Helvetica"><tspan y="-76.48" x="96.3">5</tspan></text>
<text fill="#ff0000" xml:space="preserve" transform="matrix(.36295 0 -0 .36295 -.9948883 171.16277)" font-size="11" font-family="Helvetica"><tspan y="-76.392" x="113.416 119.532 141.95549 148.07149 190.67559 196.79158">102045</tspan></text>
<text fill="#ff0000" xml:space="preserve" transform="matrix(.36295 0 -0 .36295 -.9948883 171.16277)" font-size="11" font-family="Helvetica"><tspan y="-76.392" x="259.331 265.447 271.563">100</tspan></text>
<text fill="#ff0000" xml:space="preserve" transform="matrix(.36295 0 -0 .36295 -.9948883 171.16277)" font-size="11" font-family="Helvetica"><tspan y="-76.392" x="349.586 355.702 361.818 418.8464 424.9624 431.0784 477.2256 483.34159 489.45759">200300400</tspan></text>
<text xml:space="preserve" transform="matrix(.36295 0 -0 .36295 -.9948883 171.16277)" font-size="11" font-family="Helvetica"><tspan y="-228.819" x="497.481 500.539 506.655 512.771">.352</tspan></text>
<text xml:space="preserve" transform="matrix(.36295 0 -0 .36295 -.9948883 171.16277)" font-size="6.86" font-family="ZapfDingbatsITC"><tspan y="-278.33" x="194.08">&#x25cf;</tspan></text>
<text xml:space="preserve" transform="matrix(.36295 0 -0 .36295 -.9948883 171.16277)" font-size="11" font-family="Helvetica"><tspan y="-229.97" x="160 163.058 169.174 175.29 181.40599 184.46399 190.57999 193.63799 196.69599 202.81198">.400 after</tspan></text>
<text xml:space="preserve" transform="matrix(.36295 0 -0 .36295 -.9948883 171.16277)" font-size="11" font-family="Helvetica"><tspan y="-216.77" x="159.076 165.192 171.308 174.366 180.482 183.54 186.59799 192.71399 198.82999 201.88799">45 at bats</tspan></text>
<path transform="matrix(.36295,0,0,-.36295,68.36491,80.8245)" stroke-width="2.25" stroke-linecap="round" stroke-linejoin="round" fill="none" stroke="#000000" d="M0 0 3.28 24.9"/>
<path transform="matrix(.36295,0,0,-.36295,70.255809,73.47839)" stroke-width="2.25" stroke-linecap="round" stroke-linejoin="round" fill="none" stroke="#000000" d="M0 0-1.93 4.66-5 .66"/>
<text fill="#0000ff" xml:space="preserve" transform="matrix(.36295 0 -0 .36295 -.9948883 171.16277)" font-size="11" font-family="Helvetica"><tspan y="-137.26" x="279.08 282.138 288.254 294.37 300.486 303.544 307.207 313.323 322.486 328.602 331.04399 337.15998 343.27598 349.39198">.346 remainder</tspan></text>
<text fill="#0000ff" xml:space="preserve" transform="matrix(.36295 0 -0 .36295 -.9948883 171.16277)" font-size="11" font-family="Helvetica"><tspan y="-124.06" x="292.225 298.341 301.39903 304.45704 309.95704 316.07304 322.18904 327.68904 333.80503">of season</tspan></text>
<path transform="matrix(.36295,0,0,-.36295,112.1657,115.49713)" stroke-width="2.25" stroke-linecap="round" stroke-linejoin="round" fill="none" stroke="#0000ff" d="M0 0 .62 19.54"/>
<path transform="matrix(.36295,0,0,-.36295,113.25451,110.01658)" stroke-width="2.25" stroke-linecap="round" stroke-linejoin="round" fill="none" stroke="#0000ff" d="M0 0-2.38 4.44-5.04 .16"/>
</g>
<g clip-path="url(#clip_6)">
<path transform="matrix(.7259,0,0,-.7259,52.187509,177.32276)" stroke-width=".398" stroke-linecap="butt" stroke-miterlimit="10" stroke-linejoin="miter" fill="none" stroke="#000000" d="M0 0H233.779"/>
</g>
</g>
</svg>
