<?xml version="1.0" encoding="UTF-8" standalone="no"?>
<svg
   xmlns:dc="http://purl.org/dc/elements/1.1/"
   xmlns:cc="http://creativecommons.org/ns#"
   xmlns:rdf="http://www.w3.org/1999/02/22-rdf-syntax-ns#"
   xmlns:svg="http://www.w3.org/2000/svg"
   xmlns="http://www.w3.org/2000/svg"
   viewBox="0 0 960 624"
   height="624"
   width="960"
   xml:space="preserve"
   id="svg2"
   version="1.1"><metadata
     id="metadata8"><rdf:RDF><cc:Work
         rdf:about=""><dc:format>image/svg+xml</dc:format><dc:type
           rdf:resource="http://purl.org/dc/dcmitype/StillImage" /></cc:Work></rdf:RDF></metadata><defs
     id="defs6" /><g
     transform="matrix(1.3333333,0,0,-1.3333333,0,624)"
     id="g10"><g
       id="g12"><path
         id="path14"
         style="fill:none;stroke:#0000ff;stroke-width:3.20000005;stroke-linecap:square;stroke-linejoin:miter;stroke-miterlimit:3.25;stroke-dasharray:none;stroke-opacity:1"
         d="m 15.34,234.434 h 103.488 l 1.805,0.004 h 26.172 l 1.824,0.003 h 9.012 l 1.703,0.004 h 5.113 l 1.707,0.004 h 1.703 l 1.703,0.004 h 1.672 l 1.672,0.004 h 1.672 l 1.672,0.004 h 1.668 l 1.672,0.004 h 0.836 l 0.836,0.004 h 1.671 l 0.227,0.004 h 1.586 l 1.812,0.004 0.227,0.003 h 0.68 l 0.906,0.004 1.816,0.004 h 0.907 l 2.718,0.012 h 0.907 l 2.718,0.012 h 0.426 l 0.422,0.004 0.844,0.004 1.695,0.007 h 0.422 l 0.422,0.004 0.847,0.004 1.692,0.008 h 0.211 l 0.211,0.004 h 0.422 l 0.847,0.008 1.692,0.007 3.382,0.024 0.231,0.004 h 0.23 l 0.457,0.004 0.918,0.008 1.832,0.015 h 0.231 l 0.23,0.004 0.457,0.004 0.918,0.008 1.832,0.019 h 0.231 l 0.23,0.004 0.457,0.004 0.918,0.012 1.832,0.019 3.668,0.047 0.227,0.004 0.223,0.004 0.453,0.008 0.898,0.012 1.801,0.027 0.226,0.004 0.223,0.004 0.449,0.008 0.903,0.015 1.8,0.031 0.223,0.004 0.227,0.008 0.449,0.008 0.902,0.016 1.801,0.039 3.598,0.082 0.211,0.008 0.211,0.003 0.418,0.012 0.839,0.02 1.68,0.047 0.211,0.003 0.211,0.008 0.418,0.012 0.84,0.023 1.679,0.051 0.207,0.008 0.211,0.008 0.422,0.012 0.84,0.031 1.676,0.054 3.359,0.129 0.227,0.008 0.23,0.012 0.453,0.019 0.911,0.036 1.824,0.082 0.226,0.011 0.227,0.008 0.457,0.024 0.91,0.043 1.82,0.089 0.454,0.024 0.457,0.023 2.73,0.153 3.645,0.222 0.211,0.016 0.214,0.016 0.422,0.027 0.852,0.058 1.699,0.118 3.398,0.258 0.215,0.019 0.211,0.016 0.426,0.035 0.848,0.07 1.703,0.145 3.398,0.316 0.231,0.023 0.23,0.02 0.461,0.047 0.918,0.094 1.844,0.191 3.683,0.418 0.922,0.109 0.918,0.114 1.844,0.234 3.684,0.5 0.453,0.063 0.449,0.066 0.906,0.133 1.809,0.273 3.617,0.586 0.227,0.039 0.222,0.035 1.36,0.235 1.808,0.324 3.613,0.684 0.211,0.039 0.633,0.129 0.844,0.167 1.687,0.348 3.375,0.731 6.747,1.601 0.23,0.059 0.227,0.058 0.461,0.114 0.914,0.238 1.828,0.48 3.656,1 7.316,2.168 13.664,4.575 13.391,4.988 14.531,5.637 13.559,5.05 0.461,0.164 0.457,0.161 0.918,0.32 1.84,0.629 3.672,1.215 0.461,0.148 0.457,0.145 0.917,0.289 1.84,0.566 3.672,1.07 0.453,0.125 0.45,0.125 0.902,0.246 1.805,0.473 0.222,0.059 0.227,0.058 0.449,0.114 0.902,0.222 1.805,0.43 0.227,0.051 0.222,0.051 0.453,0.101 0.903,0.199 1.801,0.383 3.609,0.684 0.207,0.035 0.211,0.039 0.422,0.07 0.84,0.137 1.683,0.262 0.211,0.027 0.207,0.031 0.422,0.059 0.84,0.117 1.683,0.207 0.211,0.027 0.211,0.024 0.418,0.047 0.844,0.09 0.207,0.019 0.211,0.02 0.422,0.043 0.84,0.078 0.211,0.015 0.211,0.02 0.422,0.031 0.839,0.067 0.211,0.015 0.211,0.012 0.418,0.027 0.844,0.051 0.227,0.016 0.226,0.011 0.457,0.024 0.227,0.008 0.23,0.011 0.453,0.02 0.231,0.008 0.226,0.007 0.231,0.008 0.453,0.016 0.23,0.008 0.453,0.008 0.231,0.007 0.226,0.004 0.231,0.004 0.227,0.004 h 0.226 l 0.231,0.004 0.226,0.004 h 1.598 l 0.226,-0.004 h 0.227 l 0.23,-0.004 0.227,-0.004 0.23,-0.004 0.454,-0.008 0.23,-0.007 0.227,-0.004 0.226,-0.008 0.231,-0.004 0.226,-0.008 0.457,-0.015 0.227,-0.008 0.23,-0.012 0.453,-0.019 0.231,-0.012 0.226,-0.008 0.457,-0.023 0.227,-0.016 0.23,-0.012 0.454,-0.027 0.23,-0.016 0.227,-0.011 0.457,-0.032 0.91,-0.07 0.215,-0.016 0.211,-0.019 0.425,-0.035 0.852,-0.078 0.215,-0.02 0.211,-0.02 0.425,-0.043 0.852,-0.089 0.215,-0.024 0.211,-0.023 1.277,-0.153 1.703,-0.226 0.215,-0.027 0.211,-0.032 0.426,-0.062 0.851,-0.129 1.704,-0.274 3.406,-0.621 0.207,-0.039 0.211,-0.043 0.414,-0.082 0.836,-0.172 1.668,-0.363 3.34,-0.781 0.207,-0.051 0.211,-0.051 0.418,-0.105 0.832,-0.211 1.671,-0.442 3.336,-0.933 0.907,-0.266 0.906,-0.269 1.812,-0.555 3.621,-1.156 7.247,-2.496 13.519,-5.075 14.656,-5.683 13.688,-5.051 0.207,-0.07 0.211,-0.074 0.418,-0.149 0.84,-0.289 1.675,-0.578 3.356,-1.125 6.711,-2.133 0.226,-0.07 0.227,-0.067 0.457,-0.136 0.906,-0.274 1.821,-0.535 3.64,-1.031 0.906,-0.25 0.911,-0.246 1.82,-0.481 3.637,-0.922 0.214,-0.05 0.211,-0.051 0.426,-0.106 0.848,-0.203 1.699,-0.398 3.395,-0.762 0.21,-0.047 0.215,-0.047 0.422,-0.089 0.852,-0.184 1.695,-0.352 3.399,-0.668 0.46,-0.086 0.457,-0.085 0.922,-0.172 1.84,-0.328 3.68,-0.625 0.23,-0.036 0.231,-0.039 0.457,-0.07 0.922,-0.145 1.84,-0.281 3.679,-0.527 0.227,-0.027 0.226,-0.032 0.45,-0.062 0.906,-0.117 1.805,-0.231 3.613,-0.43 0.226,-0.027 0.227,-0.023 0.449,-0.051 0.903,-0.102 1.808,-0.187 3.613,-0.356 0.422,-0.039 0.418,-0.039 0.844,-0.074 1.684,-0.148 3.371,-0.27 0.211,-0.02 1.476,-0.109 1.684,-0.117 3.371,-0.223 0.226,-0.015 0.231,-0.012 1.371,-0.082 1.824,-0.106 0.231,-0.011 0.226,-0.016 3.199,-0.164 0.227,-0.012 0.23,-0.011 0.457,-0.02 0.915,-0.043 1.824,-0.082 3.656,-0.152 0.211,-0.008 0.215,-0.008 0.426,-0.016 0.855,-0.031 1.703,-0.058 0.215,-0.008 0.211,-0.008 0.43,-0.016 0.851,-0.027 1.707,-0.051 0.211,-0.008 0.215,-0.003 0.426,-0.016 0.851,-0.024 1.707,-0.046 3.411,-0.086 0.21,-0.004 0.208,-0.004 0.418,-0.008 0.835,-0.019 1.676,-0.036 0.207,-0.004 0.211,-0.003 0.418,-0.012 2.508,-0.047 0.207,-0.004 0.211,-0.004 0.418,-0.004 0.836,-0.015 1.672,-0.028 3.343,-0.051 h 0.227 l 0.68,-0.011 0.91,-0.012 1.812,-0.019 0.453,-0.008 0.454,-0.004 0.91,-0.012 1.812,-0.016 0.453,-0.007 0.454,-0.004 0.91,-0.008 1.812,-0.016 3.629,-0.027 0.211,-0.004 h 0.211 l 0.426,-0.004 0.844,-0.008 1.695,-0.008 0.211,-0.003 h 0.211 l 0.425,-0.004 0.844,-0.004 1.696,-0.008 0.21,-0.004 h 0.211 l 0.422,-0.004 2.543,-0.012 3.383,-0.011 0.238,-0.004 h 0.707 l 2.836,-0.012 h 0.473 l 0.473,-0.004 h 0.945 l 1.891,-0.008 h 0.945 l 0.941,-0.004 1.891,-0.003 h 0.473 l 0.472,-0.004 h 1.418 l 0.473,-0.004 h 0.945" /><path
         id="path16"
         style="fill:none;stroke:#ff0000;stroke-width:3.20000005;stroke-linecap:square;stroke-linejoin:miter;stroke-miterlimit:3.25;stroke-dasharray:none;stroke-opacity:1"
         d="m 15.34,234.434 h 272.762 l 0.921,0.004 h 15.504 l 0.907,0.003 h 5.421 l 0.211,0.004 h 3.586 l 0.422,0.004 h 0.844 l 1.687,0.004 h 1.899 l 0.211,0.004 h 1.687 l 0.422,0.004 h 0.844 l 1.684,0.008 h 0.918 l 0.914,0.004 h 0.226 l 0.231,0.004 h 0.457 l 0.914,0.003 h 0.457 l 0.457,0.004 0.914,0.004 1.828,0.012 h 0.457 l 0.457,0.004 0.918,0.004 0.227,0.004 h 0.23 l 1.371,0.011 h 0.227 l 0.23,0.004 3.199,0.028 0.43,0.007 1.277,0.012 0.43,0.008 0.426,0.004 0.855,0.012 0.211,0.004 h 0.215 l 0.426,0.007 0.855,0.012 1.707,0.031 0.215,0.004 0.211,0.004 0.43,0.008 0.851,0.016 0.215,0.004 0.211,0.003 0.43,0.012 0.851,0.02 0.43,0.007 0.426,0.012 0.852,0.02 1.71,0.047 0.207,0.007 0.211,0.008 0.418,0.012 0.836,0.027 1.676,0.059 0.207,0.008 0.211,0.008 0.418,0.015 0.836,0.035 1.676,0.074 0.211,0.012 0.207,0.008 0.418,0.02 0.84,0.043 1.671,0.093 0.211,0.012 0.207,0.012 0.418,0.027 0.84,0.051 1.672,0.117 0.227,0.016 0.23,0.015 0.453,0.035 0.906,0.075 1.817,0.152 0.226,0.023 0.227,0.02 0.457,0.043 0.906,0.09 1.817,0.191 0.226,0.028 0.227,0.023 0.457,0.055 0.906,0.109 1.817,0.238 0.453,0.063 0.457,0.066 0.906,0.133 1.816,0.293 0.422,0.07 0.426,0.075 0.848,0.152 1.695,0.32 0.422,0.086 0.426,0.09 0.847,0.18 1.696,0.382 0.843,0.204 0.848,0.214 1.695,0.45 3.391,1.015 0.461,0.149 0.457,0.152 0.918,0.316 1.84,0.665 0.226,0.085 0.231,0.09 0.461,0.176 0.918,0.367 1.836,0.774 0.23,0.097 0.231,0.102 0.457,0.207 0.917,0.422 1.84,0.887 3.672,1.953 0.453,0.257 0.45,0.262 0.902,0.531 1.805,1.114 3.605,2.41 0.227,0.16 0.222,0.16 0.453,0.324 0.903,0.657 1.801,1.363 3.609,2.906 0.207,0.176 0.211,0.18 0.422,0.355 0.84,0.727 1.683,1.488 3.363,3.113 6.731,6.707 14.59,15.61 0.215,0.222 0.211,0.227 0.425,0.449 0.852,0.895 1.703,1.761 3.406,3.411 0.215,0.207 0.211,0.203 0.426,0.41 0.851,0.808 1.704,1.575 3.406,2.949 0.207,0.172 0.211,0.168 0.414,0.336 0.836,0.656 1.668,1.254 0.211,0.152 0.207,0.149 0.418,0.293 0.836,0.574 1.668,1.07 0.207,0.129 0.211,0.125 0.418,0.25 0.832,0.477 0.21,0.113 0.208,0.113 0.417,0.223 0.836,0.426 0.207,0.101 0.211,0.098 0.414,0.199 0.836,0.371 0.207,0.086 0.211,0.086 0.418,0.172 0.832,0.312 0.227,0.082 0.226,0.079 0.454,0.152 0.226,0.074 0.227,0.07 0.453,0.133 0.453,0.125 0.68,0.176 0.679,0.152 0.227,0.047 0.68,0.129 0.226,0.035 0.227,0.039 0.449,0.063 0.227,0.031 0.226,0.027 0.453,0.047 0.453,0.039 0.453,0.032 0.227,0.011 0.453,0.016 0.453,0.008 h 0.453 l 0.227,-0.004 0.68,-0.024 0.226,-0.015 0.227,-0.012 0.679,-0.059 0.227,-0.023 0.227,-0.027 0.222,-0.028 0.453,-0.062 0.227,-0.035 0.453,-0.075 0.453,-0.085 0.453,-0.094 0.453,-0.102 0.454,-0.109 0.21,-0.055 0.633,-0.176 0.848,-0.257 0.422,-0.141 0.422,-0.149 0.843,-0.316 0.211,-0.082 0.211,-0.086 0.426,-0.176 0.844,-0.375 1.691,-0.828 0.422,-0.226 0.422,-0.231 0.844,-0.48 1.691,-1.039 0.422,-0.274 0.422,-0.281 0.844,-0.578 1.691,-1.227 0.231,-0.175 0.226,-0.172 0.461,-0.356 0.914,-0.722 1.832,-1.524 3.664,-3.285 7.328,-7.317 13.688,-14.671 0.207,-0.219 0.211,-0.223 0.418,-0.441 0.84,-0.875 1.675,-1.735 3.356,-3.378 0.211,-0.204 0.211,-0.207 0.418,-0.41 0.84,-0.812 1.675,-1.59 3.356,-3.051 0.226,-0.203 0.227,-0.195 0.457,-0.399 0.906,-0.777 1.821,-1.516 3.64,-2.847 0.227,-0.168 0.226,-0.172 0.453,-0.332 0.911,-0.657 1.82,-1.265 3.637,-2.34 0.214,-0.129 0.211,-0.125 0.426,-0.254 0.848,-0.496 1.699,-0.953 0.211,-0.113 0.211,-0.117 0.426,-0.223 0.847,-0.445 1.7,-0.844 0.21,-0.106 0.215,-0.101 0.422,-0.199 0.852,-0.391 1.695,-0.746 3.399,-1.356 0.23,-0.082 0.23,-0.086 0.457,-0.164 0.922,-0.324 1.84,-0.609 0.231,-0.074 0.23,-0.071 0.457,-0.14 0.922,-0.278 1.84,-0.515 0.23,-0.063 0.231,-0.059 0.457,-0.121 0.922,-0.234 1.84,-0.434 0.921,-0.203 0.918,-0.195 1.84,-0.359 0.453,-0.086 0.45,-0.082 0.906,-0.157 1.805,-0.296 0.453,-0.071 0.449,-0.066 0.902,-0.129 1.809,-0.242 0.226,-0.028 0.227,-0.031 0.449,-0.055 0.903,-0.105 1.808,-0.199 0.227,-0.024 0.222,-0.019 0.453,-0.047 0.903,-0.086 1.808,-0.16 0.211,-0.016 0.211,-0.019 0.418,-0.032 0.844,-0.066 1.684,-0.121 0.211,-0.012 0.21,-0.015 0.422,-0.028 0.844,-0.051 1.684,-0.097 0.422,-0.024 0.421,-0.019 0.844,-0.043 1.684,-0.078 0.211,-0.008 0.211,-0.012 0.421,-0.015 0.84,-0.036 1.688,-0.062 0.226,-0.008 0.231,-0.008 0.457,-0.011 0.914,-0.032 0.227,-0.008 0.226,-0.003 0.457,-0.016 0.914,-0.023 0.231,-0.008 0.226,-0.004 1.371,-0.035 1.828,-0.039 0.227,-0.004 0.23,-0.004 0.457,-0.012 0.915,-0.016 0.226,-0.003 0.231,-0.004 0.453,-0.008 0.914,-0.016 h 0.23 l 0.227,-0.004 0.457,-0.008 2.742,-0.035 0.211,-0.004 h 0.215 l 0.426,-0.007 0.855,-0.008 h 0.211 l 0.215,-0.004 1.277,-0.012 h 0.215 l 0.211,-0.004 0.43,-0.004 0.851,-0.007 1.707,-0.012 h 0.426 l 0.426,-0.004 0.851,-0.004 0.215,-0.004 h 0.211 l 0.43,-0.004 0.851,-0.004 h 0.426 l 0.426,-0.004 0.855,-0.004 1.704,-0.007 h 0.836 l 0.835,-0.004 h 0.422 l 0.418,-0.004 h 1.043 l 0.211,-0.004 h 1.254 l 1.672,-0.004 H 654 l 0.211,-0.004 h 1.672 l 0.418,-0.004 h 2.508 l 1.671,-0.004 h 2.043 l 0.227,-0.004 h 5.441 l 0.454,-0.003 h 15.664 l 0.847,-0.004 h 18.504" /><path
         id="path18"
         style="fill:none;stroke:#00ff00;stroke-width:3.20000005;stroke-linecap:square;stroke-linejoin:miter;stroke-miterlimit:3.25;stroke-dasharray:none;stroke-opacity:1"
         d="m 15.34,234.434 h 369.043 l 0.426,0.004 h 6.777 l 0.215,0.003 h 2.328 l 0.23,0.004 h 1.149 l 0.457,0.004 h 0.922 l 0.226,0.004 h 0.692 l 0.226,0.004 h 0.231 l 0.461,0.004 h 0.457 l 0.461,0.004 0.23,0.004 h 0.227 l 0.461,0.004 0.23,0.004 h 0.231 l 0.457,0.003 0.461,0.008 0.457,0.004 0.46,0.008 0.457,0.004 0.922,0.016 0.227,0.003 0.23,0.004 0.461,0.012 0.227,0.004 0.23,0.008 0.461,0.008 0.231,0.007 0.226,0.008 0.461,0.012 0.231,0.008 0.226,0.008 0.461,0.015 0.918,0.039 0.227,0.008 0.226,0.012 0.45,0.023 0.226,0.012 0.223,0.012 0.453,0.027 0.226,0.012 0.223,0.015 0.453,0.032 0.903,0.07 0.222,0.019 0.227,0.02 0.449,0.043 0.453,0.047 0.449,0.047 0.454,0.054 0.449,0.059 0.902,0.129 0.227,0.035 0.222,0.035 0.453,0.078 0.223,0.039 0.227,0.043 0.453,0.09 0.222,0.047 0.227,0.047 0.449,0.101 0.903,0.227 0.453,0.125 0.449,0.133 0.226,0.07 0.223,0.074 0.453,0.153 0.227,0.082 0.222,0.082 0.454,0.172 0.902,0.382 0.207,0.094 0.211,0.102 0.422,0.207 0.84,0.445 0.211,0.121 0.21,0.125 0.422,0.258 0.84,0.559 0.211,0.148 0.207,0.152 0.422,0.321 0.84,0.687 0.211,0.184 0.211,0.187 0.422,0.391 0.839,0.84 0.211,0.222 0.211,0.231 0.418,0.473 0.844,1.015 0.207,0.27 0.211,0.273 0.422,0.567 0.84,1.214 0.211,0.321 0.211,0.328 0.422,0.676 0.839,1.437 1.684,3.246 0.227,0.481 0.226,0.492 0.457,1.008 0.91,2.14 0.231,0.563 0.226,0.57 0.457,1.176 0.91,2.484 0.231,0.649 0.226,0.66 0.458,1.351 0.91,2.848 1.824,6.242 0.23,0.836 0.227,0.844 0.457,1.723 0.91,3.589 1.824,7.715 3.649,17.411 0.215,1.085 0.211,1.094 0.425,2.203 0.852,4.485 1.703,9.203 3.406,18.859 0.215,1.176 0.211,1.176 0.426,2.34 0.851,4.644 1.704,9.043 0.21,1.098 0.215,1.094 0.426,2.16 0.852,4.207 1.703,7.89 0.207,0.914 0.211,0.899 0.414,1.758 0.836,3.343 0.207,0.797 0.211,0.782 0.418,1.519 0.832,2.84 0.211,0.664 0.207,0.648 0.418,1.246 0.207,0.594 0.211,0.574 0.418,1.094 0.207,0.52 0.211,0.5 0.414,0.937 0.211,0.442 0.207,0.418 0.418,0.777 0.207,0.359 0.211,0.336 0.207,0.317 0.211,0.293 0.207,0.277 0.21,0.25 0.207,0.23 0.208,0.211 0.21,0.188 0.208,0.168 0.21,0.144 0.207,0.125 0.207,0.102 0.211,0.078 0.207,0.059 0.211,0.035 0.207,0.015 0.211,-0.007 0.207,-0.032 0.207,-0.05 0.211,-0.075 0.207,-0.097 0.211,-0.117 0.207,-0.137 0.207,-0.16 0.211,-0.184 0.207,-0.203 0.211,-0.227 0.207,-0.246 0.211,-0.265 0.414,-0.602 0.227,-0.359 0.226,-0.387 0.454,-0.84 0.226,-0.457 0.227,-0.48 0.453,-1.035 0.226,-0.551 0.227,-0.575 0.453,-1.214 0.906,-2.688 0.227,-0.726 0.226,-0.746 0.454,-1.555 0.902,-3.332 1.812,-7.512 0.227,-1.012 0.227,-1.023 0.453,-2.09 0.906,-4.336 1.812,-9.195 3.622,-19.688 0.421,-2.343 0.422,-2.352 0.848,-4.688 1.687,-9.289 0.211,-1.148 0.211,-1.141 0.426,-2.273 0.844,-4.488 1.691,-8.688 0.211,-1.055 0.211,-1.046 0.422,-2.075 0.844,-4.05 1.691,-7.692 0.211,-0.922 0.211,-0.91 0.422,-1.793 0.844,-3.472 1.691,-6.477 0.231,-0.828 0.226,-0.817 0.461,-1.593 0.914,-3.055 0.231,-0.734 0.226,-0.723 0.461,-1.41 0.914,-2.684 0.231,-0.644 0.226,-0.629 0.461,-1.231 0.914,-2.324 1.832,-4.152 0.231,-0.473 0.226,-0.465 0.461,-0.898 0.914,-1.684 0.231,-0.398 0.226,-0.391 0.461,-0.754 0.914,-1.41 0.231,-0.328 0.226,-0.324 0.461,-0.629 0.914,-1.16 0.231,-0.274 0.226,-0.265 0.461,-0.512 0.914,-0.949 0.215,-0.207 0.215,-0.203 0.426,-0.391 0.855,-0.719 0.215,-0.172 0.215,-0.164 0.426,-0.316 0.855,-0.582 0.215,-0.137 0.215,-0.133 0.426,-0.254 0.855,-0.468 0.215,-0.11 0.215,-0.105 0.426,-0.203 0.855,-0.371 0.215,-0.09 0.211,-0.082 0.43,-0.16 0.214,-0.075 0.211,-0.074 0.43,-0.144 0.215,-0.067 0.211,-0.066 0.429,-0.125 0.856,-0.227 0.215,-0.051 0.211,-0.05 0.429,-0.098 0.215,-0.047 0.211,-0.043 0.43,-0.086 0.215,-0.039 0.211,-0.039 0.429,-0.074 0.856,-0.133 0.207,-0.031 0.211,-0.028 0.418,-0.058 0.211,-0.024 0.211,-0.027 0.418,-0.047 0.211,-0.023 0.207,-0.024 0.421,-0.039 0.836,-0.074 0.211,-0.02 0.211,-0.015 0.418,-0.031 0.211,-0.016 0.211,-0.012 0.418,-0.027 0.211,-0.012 0.207,-0.015 0.422,-0.024 0.836,-0.039 0.211,-0.012 0.211,-0.007 0.418,-0.016 0.211,-0.008 0.207,-0.008 0.422,-0.015 0.207,-0.008 0.211,-0.004 0.417,-0.016 0.84,-0.019 0.211,-0.004 0.207,-0.008 0.422,-0.008 0.207,-0.004 0.211,-0.004 0.418,-0.007 0.422,-0.008 0.418,-0.004 0.211,-0.004 0.207,-0.004 0.422,-0.004 0.453,-0.008 0.457,-0.004 0.227,-0.003 h 0.226 l 0.453,-0.004 0.231,-0.004 h 0.226 l 0.453,-0.004 h 0.227 l 0.23,-0.004 h 0.454 l 0.226,-0.004 h 0.231 l 0.453,-0.004 h 0.453 l 0.457,-0.004 h 0.91 l 0.227,-0.004 h 1.136 l 0.453,-0.004 h 2.278 l 0.453,-0.003 h 6.609 L 566,234.434 h 137.66" /><path
         id="path20"
         style="fill:none;stroke:#666666;stroke-width:0.40000001;stroke-linecap:butt;stroke-linejoin:miter;stroke-miterlimit:3.25;stroke-dasharray:none;stroke-opacity:1"
         d="m 15.34,234.434 v 2.402" /><path
         id="path22"
         style="fill:none;stroke:#666666;stroke-width:0.40000001;stroke-linecap:butt;stroke-linejoin:miter;stroke-miterlimit:3.25;stroke-dasharray:none;stroke-opacity:1"
         d="m 49.758,234.434 v 2.402" /><path
         id="path24"
         style="fill:none;stroke:#666666;stroke-width:0.40000001;stroke-linecap:butt;stroke-linejoin:miter;stroke-miterlimit:3.25;stroke-dasharray:none;stroke-opacity:1"
         d="m 84.172,234.434 v 4" /><text
         id="text28"
         style="font-variant:normal;font-weight:normal;font-size:20px;font-family:MathematicaSans;-inkscape-font-specification:MathematicaSans;writing-mode:lr-tb;fill:#666666;fill-opacity:1;fill-rule:nonzero;stroke:none"
         transform="matrix(1,0,0,-1,72.172,210.43481)"><tspan
           id="tspan26"
           y="0"
           x="0">-</tspan></text>
<text
         id="text32"
         style="font-variant:normal;font-weight:normal;font-size:20px;font-family:Arial;-inkscape-font-specification:ArialMT;writing-mode:lr-tb;fill:#666666;fill-opacity:1;fill-rule:nonzero;stroke:none"
         transform="matrix(1,0,0,-1,85.152,210.43481)"><tspan
           id="tspan30"
           y="0"
           x="0">4</tspan></text>
<path
         id="path34"
         style="fill:none;stroke:#666666;stroke-width:0.40000001;stroke-linecap:butt;stroke-linejoin:miter;stroke-miterlimit:3.25;stroke-dasharray:none;stroke-opacity:1"
         d="m 118.59,234.434 v 2.402" /><path
         id="path36"
         style="fill:none;stroke:#666666;stroke-width:0.40000001;stroke-linecap:butt;stroke-linejoin:miter;stroke-miterlimit:3.25;stroke-dasharray:none;stroke-opacity:1"
         d="m 153.004,234.434 v 2.402" /><path
         id="path38"
         style="fill:none;stroke:#666666;stroke-width:0.40000001;stroke-linecap:butt;stroke-linejoin:miter;stroke-miterlimit:3.25;stroke-dasharray:none;stroke-opacity:1"
         d="m 187.422,234.434 v 2.402" /><path
         id="path40"
         style="fill:none;stroke:#666666;stroke-width:0.40000001;stroke-linecap:butt;stroke-linejoin:miter;stroke-miterlimit:3.25;stroke-dasharray:none;stroke-opacity:1"
         d="m 221.836,234.434 v 4" /><text
         id="text44"
         style="font-variant:normal;font-weight:normal;font-size:20px;font-family:MathematicaSans;-inkscape-font-specification:MathematicaSans;writing-mode:lr-tb;fill:#666666;fill-opacity:1;fill-rule:nonzero;stroke:none"
         transform="matrix(1,0,0,-1,209.836,210.43481)"><tspan
           id="tspan42"
           y="0"
           x="0">-</tspan></text>
<text
         id="text48"
         style="font-variant:normal;font-weight:normal;font-size:20px;font-family:Arial;-inkscape-font-specification:ArialMT;writing-mode:lr-tb;fill:#666666;fill-opacity:1;fill-rule:nonzero;stroke:none"
         transform="matrix(1,0,0,-1,222.816,210.43481)"><tspan
           id="tspan46"
           y="0"
           x="0">2</tspan></text>
<path
         id="path50"
         style="fill:none;stroke:#666666;stroke-width:0.40000001;stroke-linecap:butt;stroke-linejoin:miter;stroke-miterlimit:3.25;stroke-dasharray:none;stroke-opacity:1"
         d="m 256.254,234.434 v 2.402" /><path
         id="path52"
         style="fill:none;stroke:#666666;stroke-width:0.40000001;stroke-linecap:butt;stroke-linejoin:miter;stroke-miterlimit:3.25;stroke-dasharray:none;stroke-opacity:1"
         d="m 290.668,234.434 v 2.402" /><path
         id="path54"
         style="fill:none;stroke:#666666;stroke-width:0.40000001;stroke-linecap:butt;stroke-linejoin:miter;stroke-miterlimit:3.25;stroke-dasharray:none;stroke-opacity:1"
         d="m 325.086,234.434 v 2.402" /><path
         id="path56"
         style="fill:none;stroke:#666666;stroke-width:0.40000001;stroke-linecap:butt;stroke-linejoin:miter;stroke-miterlimit:3.25;stroke-dasharray:none;stroke-opacity:1"
         d="m 359.5,234.434 v 4" /><path
         id="path58"
         style="fill:none;stroke:#666666;stroke-width:0.40000001;stroke-linecap:butt;stroke-linejoin:miter;stroke-miterlimit:3.25;stroke-dasharray:none;stroke-opacity:1"
         d="m 393.914,234.434 v 2.402" /><path
         id="path60"
         style="fill:none;stroke:#666666;stroke-width:0.40000001;stroke-linecap:butt;stroke-linejoin:miter;stroke-miterlimit:3.25;stroke-dasharray:none;stroke-opacity:1"
         d="m 428.332,234.434 v 2.402" /><path
         id="path62"
         style="fill:none;stroke:#666666;stroke-width:0.40000001;stroke-linecap:butt;stroke-linejoin:miter;stroke-miterlimit:3.25;stroke-dasharray:none;stroke-opacity:1"
         d="m 462.746,234.434 v 2.402" /><path
         id="path64"
         style="fill:none;stroke:#666666;stroke-width:0.40000001;stroke-linecap:butt;stroke-linejoin:miter;stroke-miterlimit:3.25;stroke-dasharray:none;stroke-opacity:1"
         d="m 497.164,234.434 v 4" /><text
         id="text68"
         style="font-variant:normal;font-weight:normal;font-size:20px;font-family:Arial;-inkscape-font-specification:ArialMT;writing-mode:lr-tb;fill:#666666;fill-opacity:1;fill-rule:nonzero;stroke:none"
         transform="matrix(1,0,0,-1,491.664,210.43481)"><tspan
           id="tspan66"
           y="0"
           x="0">2</tspan></text>
<path
         id="path70"
         style="fill:none;stroke:#666666;stroke-width:0.40000001;stroke-linecap:butt;stroke-linejoin:miter;stroke-miterlimit:3.25;stroke-dasharray:none;stroke-opacity:1"
         d="m 531.578,234.434 v 2.402" /><path
         id="path72"
         style="fill:none;stroke:#666666;stroke-width:0.40000001;stroke-linecap:butt;stroke-linejoin:miter;stroke-miterlimit:3.25;stroke-dasharray:none;stroke-opacity:1"
         d="m 565.996,234.434 v 2.402" /><path
         id="path74"
         style="fill:none;stroke:#666666;stroke-width:0.40000001;stroke-linecap:butt;stroke-linejoin:miter;stroke-miterlimit:3.25;stroke-dasharray:none;stroke-opacity:1"
         d="m 600.41,234.434 v 2.402" /><path
         id="path76"
         style="fill:none;stroke:#666666;stroke-width:0.40000001;stroke-linecap:butt;stroke-linejoin:miter;stroke-miterlimit:3.25;stroke-dasharray:none;stroke-opacity:1"
         d="m 634.828,234.434 v 4" /><text
         id="text80"
         style="font-variant:normal;font-weight:normal;font-size:20px;font-family:Arial;-inkscape-font-specification:ArialMT;writing-mode:lr-tb;fill:#666666;fill-opacity:1;fill-rule:nonzero;stroke:none"
         transform="matrix(1,0,0,-1,629.328,210.43481)"><tspan
           id="tspan78"
           y="0"
           x="0">4</tspan></text>
<path
         id="path82"
         style="fill:none;stroke:#666666;stroke-width:0.40000001;stroke-linecap:butt;stroke-linejoin:miter;stroke-miterlimit:3.25;stroke-dasharray:none;stroke-opacity:1"
         d="m 669.242,234.434 v 2.402" /><path
         id="path84"
         style="fill:none;stroke:#666666;stroke-width:0.40000001;stroke-linecap:butt;stroke-linejoin:miter;stroke-miterlimit:3.25;stroke-dasharray:none;stroke-opacity:1"
         d="m 703.66,234.434 v 2.402" /><path
         id="path86"
         style="fill:none;stroke:#666666;stroke-width:0.40000001;stroke-linecap:butt;stroke-linejoin:miter;stroke-miterlimit:3.25;stroke-dasharray:none;stroke-opacity:1"
         d="M 1,234.434 H 718" /><path
         id="path88"
         style="fill:none;stroke:#666666;stroke-width:0.40000001;stroke-linecap:butt;stroke-linejoin:miter;stroke-miterlimit:3.25;stroke-dasharray:none;stroke-opacity:1"
         d="m 359.5,12.871 h 4" /><text
         id="text92"
         style="font-variant:normal;font-weight:normal;font-size:20px;font-family:MathematicaSans;-inkscape-font-specification:MathematicaSans;writing-mode:lr-tb;fill:#666666;fill-opacity:1;fill-rule:nonzero;stroke:none"
         transform="matrix(1,0,0,-1,329.5,6.86963)"><tspan
           id="tspan90"
           y="0"
           x="0">-</tspan></text>
<text
         id="text96"
         style="font-variant:normal;font-weight:normal;font-size:20px;font-family:Arial;-inkscape-font-specification:ArialMT;writing-mode:lr-tb;fill:#666666;fill-opacity:1;fill-rule:nonzero;stroke:none"
         transform="matrix(1,0,0,-1,342.48,6.86963)"><tspan
           id="tspan94"
           y="0"
           x="0">2</tspan></text>
<path
         id="path98"
         style="fill:none;stroke:#666666;stroke-width:0.40000001;stroke-linecap:butt;stroke-linejoin:miter;stroke-miterlimit:3.25;stroke-dasharray:none;stroke-opacity:1"
         d="m 359.5,35.027 h 2.398" /><path
         id="path100"
         style="fill:none;stroke:#666666;stroke-width:0.40000001;stroke-linecap:butt;stroke-linejoin:miter;stroke-miterlimit:3.25;stroke-dasharray:none;stroke-opacity:1"
         d="m 359.5,57.184 h 2.398" /><path
         id="path102"
         style="fill:none;stroke:#666666;stroke-width:0.40000001;stroke-linecap:butt;stroke-linejoin:miter;stroke-miterlimit:3.25;stroke-dasharray:none;stroke-opacity:1"
         d="m 359.5,79.34 h 2.398" /><path
         id="path104"
         style="fill:none;stroke:#666666;stroke-width:0.40000001;stroke-linecap:butt;stroke-linejoin:miter;stroke-miterlimit:3.25;stroke-dasharray:none;stroke-opacity:1"
         d="m 359.5,101.496 h 2.398" /><path
         id="path106"
         style="fill:none;stroke:#666666;stroke-width:0.40000001;stroke-linecap:butt;stroke-linejoin:miter;stroke-miterlimit:3.25;stroke-dasharray:none;stroke-opacity:1"
         d="m 359.5,123.652 h 4" /><text
         id="text110"
         style="font-variant:normal;font-weight:normal;font-size:20px;font-family:MathematicaSans;-inkscape-font-specification:MathematicaSans;writing-mode:lr-tb;fill:#666666;fill-opacity:1;fill-rule:nonzero;stroke:none"
         transform="matrix(1,0,0,-1,329.5,117.65222)"><tspan
           id="tspan108"
           y="0"
           x="0">-</tspan></text>
<text
         id="text114"
         style="font-variant:normal;font-weight:normal;font-size:20px;font-family:Arial;-inkscape-font-specification:ArialMT;writing-mode:lr-tb;fill:#666666;fill-opacity:1;fill-rule:nonzero;stroke:none"
         transform="matrix(1,0,0,-1,342.48,117.65222)"><tspan
           id="tspan112"
           y="0"
           x="0">1</tspan></text>
<path
         id="path116"
         style="fill:none;stroke:#666666;stroke-width:0.40000001;stroke-linecap:butt;stroke-linejoin:miter;stroke-miterlimit:3.25;stroke-dasharray:none;stroke-opacity:1"
         d="m 359.5,145.809 h 2.398" /><path
         id="path118"
         style="fill:none;stroke:#666666;stroke-width:0.40000001;stroke-linecap:butt;stroke-linejoin:miter;stroke-miterlimit:3.25;stroke-dasharray:none;stroke-opacity:1"
         d="m 359.5,167.965 h 2.398" /><path
         id="path120"
         style="fill:none;stroke:#666666;stroke-width:0.40000001;stroke-linecap:butt;stroke-linejoin:miter;stroke-miterlimit:3.25;stroke-dasharray:none;stroke-opacity:1"
         d="m 359.5,190.121 h 2.398" /><path
         id="path122"
         style="fill:none;stroke:#666666;stroke-width:0.40000001;stroke-linecap:butt;stroke-linejoin:miter;stroke-miterlimit:3.25;stroke-dasharray:none;stroke-opacity:1"
         d="m 359.5,212.277 h 2.398" /><path
         id="path124"
         style="fill:none;stroke:#666666;stroke-width:0.40000001;stroke-linecap:butt;stroke-linejoin:miter;stroke-miterlimit:3.25;stroke-dasharray:none;stroke-opacity:1"
         d="m 359.5,234.434 h 4" /><path
         id="path126"
         style="fill:none;stroke:#666666;stroke-width:0.40000001;stroke-linecap:butt;stroke-linejoin:miter;stroke-miterlimit:3.25;stroke-dasharray:none;stroke-opacity:1"
         d="m 359.5,256.59 h 2.398" /><path
         id="path128"
         style="fill:none;stroke:#666666;stroke-width:0.40000001;stroke-linecap:butt;stroke-linejoin:miter;stroke-miterlimit:3.25;stroke-dasharray:none;stroke-opacity:1"
         d="m 359.5,278.746 h 2.398" /><path
         id="path130"
         style="fill:none;stroke:#666666;stroke-width:0.40000001;stroke-linecap:butt;stroke-linejoin:miter;stroke-miterlimit:3.25;stroke-dasharray:none;stroke-opacity:1"
         d="m 359.5,300.906 h 2.398" /><path
         id="path132"
         style="fill:none;stroke:#666666;stroke-width:0.40000001;stroke-linecap:butt;stroke-linejoin:miter;stroke-miterlimit:3.25;stroke-dasharray:none;stroke-opacity:1"
         d="m 359.5,323.062 h 2.398" /><path
         id="path134"
         style="fill:none;stroke:#666666;stroke-width:0.40000001;stroke-linecap:butt;stroke-linejoin:miter;stroke-miterlimit:3.25;stroke-dasharray:none;stroke-opacity:1"
         d="m 359.5,345.219 h 4" /><text
         id="text138"
         style="font-variant:normal;font-weight:normal;font-size:20px;font-family:Arial;-inkscape-font-specification:ArialMT;writing-mode:lr-tb;fill:#666666;fill-opacity:1;fill-rule:nonzero;stroke:none"
         transform="matrix(1,0,0,-1,342.5,339.21741)"><tspan
           id="tspan136"
           y="0"
           x="0">1</tspan></text>
<path
         id="path140"
         style="fill:none;stroke:#666666;stroke-width:0.40000001;stroke-linecap:butt;stroke-linejoin:miter;stroke-miterlimit:3.25;stroke-dasharray:none;stroke-opacity:1"
         d="m 359.5,367.375 h 2.398" /><path
         id="path142"
         style="fill:none;stroke:#666666;stroke-width:0.40000001;stroke-linecap:butt;stroke-linejoin:miter;stroke-miterlimit:3.25;stroke-dasharray:none;stroke-opacity:1"
         d="m 359.5,389.531 h 2.398" /><path
         id="path144"
         style="fill:none;stroke:#666666;stroke-width:0.40000001;stroke-linecap:butt;stroke-linejoin:miter;stroke-miterlimit:3.25;stroke-dasharray:none;stroke-opacity:1"
         d="m 359.5,411.688 h 2.398" /><path
         id="path146"
         style="fill:none;stroke:#666666;stroke-width:0.40000001;stroke-linecap:butt;stroke-linejoin:miter;stroke-miterlimit:3.25;stroke-dasharray:none;stroke-opacity:1"
         d="m 359.5,433.844 h 2.398" /><path
         id="path148"
         style="fill:none;stroke:#666666;stroke-width:0.40000001;stroke-linecap:butt;stroke-linejoin:miter;stroke-miterlimit:3.25;stroke-dasharray:none;stroke-opacity:1"
         d="m 359.5,456 h 4" /><text
         id="text152"
         style="font-variant:normal;font-weight:normal;font-size:20px;font-family:Arial;-inkscape-font-specification:ArialMT;writing-mode:lr-tb;fill:#666666;fill-opacity:1;fill-rule:nonzero;stroke:none"
         transform="matrix(1,0,0,-1,342.5,450)"><tspan
           id="tspan150"
           y="0"
           x="0">2</tspan></text>
<path
         id="path154"
         style="fill:none;stroke:#666666;stroke-width:0.40000001;stroke-linecap:butt;stroke-linejoin:miter;stroke-miterlimit:3.25;stroke-dasharray:none;stroke-opacity:1"
         d="M 359.5,12.871 V 456" /></g></g></svg>