<svg xmlns="http://www.w3.org/2000/svg" xmlns:xlink="http://www.w3.org/1999/xlink" xmlns:inkscape="http://www.inkscape.org/namespaces/inkscape" version="1.1" width="142.4437" height="141.47214" viewBox="0 0 142.4437 141.47214">
<defs>
<clipPath id="clip_0">
<path transform="matrix(1,0,0,-1,-209.682,200.5915)" d="M209.682 59.11936H352.1257V200.5915H209.682Z" clip-rule="evenodd"/>
</clipPath>
<clipPath id="clip_1">
<path transform="matrix(1,0,0,-1,-209.682,200.5915)" d="M0 0H362.835V272.126H0Z"/>
</clipPath>
<clipPath id="clip_2">
<path transform="matrix(1,0,0,-1,-209.682,200.5915)" d="M218.2628 79.7188H350.9732V198.6052H218.2628Z"/>
</clipPath>
<clipPath id="clip_3">
<path transform="matrix(1,0,0,-1,-209.682,200.5915)" d="M199.37 56.218H360.65V217.498H199.37Z"/>
</clipPath>
<clipPath id="clip_4">
<path transform="matrix(1,0,0,-1,-209.682,200.5915)" d="M218.2628 79.7188H350.9732V198.6052H218.2628Z"/>
</clipPath>
<clipPath id="clip_5">
<path transform="matrix(1,0,0,-1,-209.682,200.5915)" d="M0 0H362.835V272.126H0Z"/>
</clipPath>
</defs>
<g clip-path="url(#clip_0)">
<g clip-path="url(#clip_1)">
<path transform="matrix(1,0,0,-1,-209.682,200.5915)" d="M0 0H362.835V272.126H0Z" fill="#ffffff"/>
<path transform="matrix(1,0,0,-1,25.784989,197.1045)" stroke-width=".3985" stroke-linecap="butt" stroke-miterlimit="10" stroke-linejoin="miter" fill="none" stroke="#adade0" d="M8.26909 .79701H11.65642V3.18806H8.26909Z"/>
<path transform="matrix(1,0,0,-1,-209.682,200.5915)" d="M239.4671 3.98698 237.467 5.48702 239.4671 6.98703" fill="#d6d6f0"/>
<path transform="matrix(1,0,0,-1,-209.682,200.5915)" d="M251.4672 3.98698 253.4672 5.48702 251.4672 6.98703" fill="#d6d6f0"/>
<path transform="matrix(1,0,0,-1,46.705995,197.1045)" stroke-width=".3985" stroke-linecap="butt" stroke-miterlimit="10" stroke-linejoin="miter" fill="none" stroke="#adade0" d="M6.97394 0H10.36127V2.39105H6.97394ZM7.80008 2.40001V3.20003H11.20012V.8H10.4001M8.6001 3.20003V4.00005H12.00015V1.60002H11.20012"/>
<path transform="matrix(1,0,0,-1,-209.682,200.5915)" d="M260.3881 3.98698 258.388 5.48702 260.3881 6.98703M272.3882 3.98698 274.3882 5.48702 272.3882 6.98703" fill="#d6d6f0"/>
<path transform="matrix(1,0,0,-1,67.62799,197.1045)" stroke-width=".59776" stroke-linecap="butt" stroke-miterlimit="10" stroke-linejoin="miter" fill="none" stroke="#adade0" d="M9.00009 3.00003H12.00015"/>
<path transform="matrix(1,0,0,-1,-209.682,200.5915)" d="M281.3101 3.98698 279.31 5.48702 281.3101 6.98703M293.3102 3.98698 295.3102 5.48702 293.3102 6.98703" fill="#d6d6f0"/>
<path transform="matrix(1,0,0,-1,67.62799,197.1045)" stroke-width=".59776" stroke-linecap="butt" stroke-miterlimit="10" stroke-linejoin="miter" fill="none" stroke="#d6d6f0" d="M8.00009 4.00005H11.00012M9.00009 2.00002H12.00015M8.00009 1H11.00012M9.00009 0H12.00015"/>
<path transform="matrix(1,0,0,-1,88.54999,197.1045)" stroke-width=".59776" stroke-linecap="butt" stroke-miterlimit="10" stroke-linejoin="miter" fill="none" stroke="#adade0" d="M8.00009 4.00005H11.00012M9.00009 3.00003H12.00015M9.00009 2.00002H12.00015"/>
<path transform="matrix(1,0,0,-1,-209.682,200.5915)" d="M302.2321 3.98698 300.232 5.48702 302.2321 6.98703M314.2322 3.98698 316.2322 5.48702 314.2322 6.98703" fill="#d6d6f0"/>
<path transform="matrix(1,0,0,-1,88.54999,197.1045)" stroke-width=".59776" stroke-linecap="butt" stroke-miterlimit="10" stroke-linejoin="miter" fill="none" stroke="#d6d6f0" d="M8.00009 1H11.00012M9.00009 0H12.00015"/>
<path transform="matrix(1,0,0,-1,109.47101,197.1045)" stroke-width=".59776" stroke-linecap="butt" stroke-miterlimit="10" stroke-linejoin="miter" fill="none" stroke="#adade0" d="M8.00009 4.00005H11.00012M9.00009 3.00003H12.00015M9.00009 2.00002H12.00015M8.00009 1H11.00012M9.00009 0H12.00015"/>
<path transform="matrix(1,0,0,-1,130.393,197.1045)" stroke-width=".59776" stroke-linecap="butt" stroke-miterlimit="10" stroke-linejoin="miter" fill="none" stroke="#adade0" d="M10.4001 1.60002 12.00015 0"/>
<path transform="matrix(1,0,0,-1,130.393,197.1045)" stroke-width=".3985" stroke-linecap="butt" stroke-miterlimit="10" stroke-linejoin="miter" fill="none" stroke="#adade0" d="M10.66016 2.49069C10.66016 3.15096 10.1249 3.68622 9.46463 3.68622 8.80435 3.68622 8.26909 3.15096 8.26909 2.49069 8.26909 1.83041 8.80435 1.29515 9.46463 1.29515 10.1249 1.29515 10.66016 1.83041 10.66016 2.49069ZM9.46463 2.49069"/>
<path transform="matrix(1,0,0,-1,130.393,197.1045)" stroke-width=".3985" stroke-linecap="round" stroke-miterlimit="10" stroke-linejoin="miter" fill="none" stroke="#adade0" d="M4.00005 0C5.08101 0 6.00006 .9 6.00006 2.00002 6.00006 3.10002 5.10005 4.00005 4.00005 4.00005 2.90001 4.00005 2.00002 3.10002 2.00002 2.00002M3.20003 2.60002 2.00002 1.60002 .8 2.60002M16.0002 0C14.90016 0 14.00017 .9 14.00017 2.00002 14.00017 3.10002 14.90016 4.00005 16.0002 4.00005 17.1002 4.00005 18.00021 3.10002 18.00021 2.00002M19.20023 2.60002 18.00021 1.60002 16.8002 2.60002"/>
<text fill="#3333b2" xml:space="preserve" transform="matrix(1 0 -0 1 -209.682 200.5915)" font-size="17.2154" font-family="URWPalladioL"><tspan y="-248.782" x="8.504 21.00238 29.248558 38.82032 48.839685 57.08586 68.68904 78.41574 86.66192 93.462009 100.76134 111.14223 122.74541 133.26403 143.64492 149.06777 154.80049 163.04666 168.65888">KeynesversusBuffett</tspan></text>
<text fill="#3333b2" xml:space="preserve" transform="matrix(1 0 -0 1 -209.682 200.5915)" font-size="9.9626" font-family="URWPalladioL"><tspan y="-232.842" x="8.504 15.567484 23.318387 29.335797">CAPM</tspan></text>
<text xml:space="preserve" transform="matrix(1 0 -0 1 -209.682 200.5915)" font-size="7.9701" font-family="URWPalladioL"><tspan y="-209.145" x="35.906 40.337377 44.155054 48.58643 53.22503 57.042707 62.41455 69.23695 73.222 77.20705 79.19957 83.184619 89.162189 95.98459 99.969638 101.96216 105.947208 111.924777 118.96237 122.94742 126.09561 130.527 134.34467">keynes=15.08+1.83market</tspan></text>
<text xml:space="preserve" transform="matrix(1 0 -0 1 -209.682 200.5915)" font-size="7.9701" font-family="URWPalladioL"><tspan y="-200.095" x="35.906 40.313467 45.119436 47.630014 50.284059 54.101736 56.699987 61.29076 68.11317 72.09821 76.08326 78.07578 82.06083 88.0384 94.8608 98.84585 100.83837 104.82342 108.808467 114.78603 121.82363 125.80868 128.95687 133.38825 137.20592">buffett=18.06+0.486market</tspan></text>
<path transform="matrix(1,0,0,-1,-153.17902,11.781509)" stroke-width=".398" stroke-linecap="butt" stroke-miterlimit="10" stroke-linejoin="miter" fill="none" stroke="#000000" d="M0 0H86.364"/>
<path transform="matrix(1,0,0,-1,-153.17902,13.774506)" stroke-width=".398" stroke-linecap="butt" stroke-miterlimit="10" stroke-linejoin="miter" fill="none" stroke="#000000" d="M0 0H86.364"/>
<text xml:space="preserve" transform="matrix(1 0 -0 1 -209.682 200.5915)" font-size="5.9776" font-family="URWPalladioL"><tspan y="-181.736" x="62.633 66.070117 68.93339 71.92219 86.39396 90.733699 93.59697 96.92052 100.39948 103.25678 117.74648 123.40129 126.39009 128.75124 132.07479 134.93805">YearKeynesMarket</tspan></text>
<path transform="matrix(1,0,0,-1,-153.17902,21.1465)" stroke-width=".398" stroke-linecap="butt" stroke-miterlimit="10" stroke-linejoin="miter" fill="none" stroke="#000000" d="M0 0H86.364"/>
<text xml:space="preserve" transform="matrix(1 0 -0 1 -209.682 200.5915)" font-size="5.9776" font-family="URWPalladioL"><tspan y="-174.364" x="62.481 65.4698 68.4586 71.4474 91.35879 93.34933 96.33813 97.83253 123.58403 126.57283 128.06723">1928-3.47.9</tspan></text>
<text xml:space="preserve" transform="matrix(1 0 -0 1 -209.682 200.5915)" font-size="5.9776" font-family="URWPalladioL"><tspan y="-167.39" x="62.481 65.4698 68.4586 71.4474 92.35705 95.34585 96.84025 123.58403 126.57283 128.06723">19290.86.6</tspan></text>
<text xml:space="preserve" transform="matrix(1 0 -0 1 -209.682 200.5915)" font-size="5.9776" font-family="URWPalladioL"><tspan y="-160.416" x="62.481 65.4698 68.4586 71.4474 89.86439 91.85493 94.84373 97.83253 99.32693 121.09137 123.08191 126.07071 129.05951 130.55391">1930-32.4-20.3</tspan></text>
<text xml:space="preserve" transform="matrix(1 0 -0 1 -209.682 200.5915)" font-size="5.9776" font-family="URWPalladioL"><tspan y="-153.442" x="62.481 65.4698 68.4586 71.4474 89.86439 91.85493 94.84373 97.83253 99.32693 121.09137 123.08191 126.07071 129.05951 130.55391">1931-24.6-25.0</tspan></text>
<text xml:space="preserve" transform="matrix(1 0 -0 1 -209.682 200.5915)" font-size="5.9776" font-family="URWPalladioL"><tspan y="-146.468" x="62.481 65.4698 68.4586 71.4474 90.86265 93.85145 96.84025 98.33465 122.58577 124.57631 127.56511 129.05951">193244.8-5.8</tspan></text>
<text xml:space="preserve" transform="matrix(1 0 -0 1 -209.682 200.5915)" font-size="5.9776" font-family="URWPalladioL"><tspan y="-139.495" x="62.481 65.4698 68.4586 71.4474 90.86265 93.85145 96.84025 98.33465 122.08963 125.07843 128.06723 129.56163">193335.121.5</tspan></text>
<text xml:space="preserve" transform="matrix(1 0 -0 1 -209.682 200.5915)" font-size="5.9776" font-family="URWPalladioL"><tspan y="-132.521" x="62.481 65.4698 68.4586 71.4474 90.86265 93.85145 96.84025 98.33465 122.58577 124.57631 127.56511 129.05951">193433.1-0.7</tspan></text>
<text xml:space="preserve" transform="matrix(1 0 -0 1 -209.682 200.5915)" font-size="5.9776" font-family="URWPalladioL"><tspan y="-125.547" x="62.481 65.4698 68.4586 71.4474 90.86265 93.85145 96.84025 98.33465 123.58403 126.57283 128.06723">193544.35.3</tspan></text>
<text xml:space="preserve" transform="matrix(1 0 -0 1 -209.682 200.5915)" font-size="5.9776" font-family="URWPalladioL"><tspan y="-118.573" x="62.481 65.4698 68.4586 71.4474 90.86265 93.85145 96.84025 98.33465 122.08963 125.07843 128.06723 129.56163">193656.010.2</tspan></text>
<text xml:space="preserve" transform="matrix(1 0 -0 1 -209.682 200.5915)" font-size="5.9776" font-family="URWPalladioL"><tspan y="-111.599" x="62.481 65.4698 68.4586 71.4474 92.35705 95.34585 96.84025 122.58577 124.57631 127.56511 129.05951">19378.5-0.5</tspan></text>
<text xml:space="preserve" transform="matrix(1 0 -0 1 -209.682 200.5915)" font-size="5.9776" font-family="URWPalladioL"><tspan y="-104.625" x="62.481 65.4698 68.4586 71.4474 89.86439 91.85493 94.84373 97.83253 99.32693 121.09137 123.08191 126.07071 129.05951 130.55391">1938-40.1-16.1</tspan></text>
<text xml:space="preserve" transform="matrix(1 0 -0 1 -209.682 200.5915)" font-size="5.9776" font-family="URWPalladioL"><tspan y="-97.651" x="62.481 65.4698 68.4586 71.4474 90.86265 93.85145 96.84025 98.33465 122.58577 124.57631 127.56511 129.05951">193912.9-7.2</tspan></text>
<text xml:space="preserve" transform="matrix(1 0 -0 1 -209.682 200.5915)" font-size="5.9776" font-family="URWPalladioL"><tspan y="-90.678" x="62.481 65.4698 68.4586 71.4474 89.86439 91.85493 94.84373 97.83253 99.32693 121.09137 123.08191 126.07071 129.05951 130.55391">1940-15.6-12.9</tspan></text>
<text xml:space="preserve" transform="matrix(1 0 -0 1 -209.682 200.5915)" font-size="5.9776" font-family="URWPalladioL"><tspan y="-83.704" x="62.481 65.4698 68.4586 71.4474 90.86265 93.85145 96.84025 98.33465 122.08963 125.07843 128.06723 129.56163">194133.512.5</tspan></text>
<text xml:space="preserve" transform="matrix(1 0 -0 1 -209.682 200.5915)" font-size="5.9776" font-family="URWPalladioL"><tspan y="-76.73" x="62.481 65.4698 68.4586 71.4474 91.35879 93.34933 96.33813 97.83253 123.58403 126.57283 128.06723">1942-0.90.8</tspan></text>
<text xml:space="preserve" transform="matrix(1 0 -0 1 -209.682 200.5915)" font-size="5.9776" font-family="URWPalladioL"><tspan y="-69.756" x="62.481 65.4698 68.4586 71.4474 90.86265 93.85145 96.84025 98.33465 122.08963 125.07843 128.06723 129.56163">194353.915.6</tspan></text>
<text xml:space="preserve" transform="matrix(1 0 -0 1 -209.682 200.5915)" font-size="5.9776" font-family="URWPalladioL"><tspan y="-62.782" x="62.481 65.4698 68.4586 71.4474 90.86265 93.85145 96.84025 98.33465 123.58403 126.57283 128.06723">194414.55.4</tspan></text>
<text xml:space="preserve" transform="matrix(1 0 -0 1 -209.682 200.5915)" font-size="5.9776" font-family="URWPalladioL"><tspan y="-55.808" x="62.481 65.4698 68.4586 71.4474 90.86265 93.85145 96.84025 98.33465 123.58403 126.57283 128.06723">194514.60.8</tspan></text>
<path transform="matrix(1,0,0,-1,-153.17902,147.07451)" stroke-width=".398" stroke-linecap="butt" stroke-miterlimit="10" stroke-linejoin="miter" fill="none" stroke="#000000" d="M0 0H86.364"/>
<path transform="matrix(1,0,0,-1,-153.17902,149.0675)" stroke-width=".398" stroke-linecap="butt" stroke-miterlimit="10" stroke-linejoin="miter" fill="none" stroke="#000000" d="M0 0H86.364"/>
<text xml:space="preserve" transform="matrix(1 0 -0 1 -209.682 200.5915)" font-size="9.9626" font-family="URWPalladioL"><tspan y="-33.109" x="35.906 43.138849 46.037965 51.836198 57.375406 60.145009 66.859798 73.92328 79.36286 82.26198 85.161098 89.93318 95.47239 102.73512 109.79861 114.77991 123.57688 129.0862 133.02143 135.92053 142.00768 147.54688">King&#x2019;sCollegeCambridge</tspan></text>
</g>
<g clip-path="url(#clip_2)">
<path transform="matrix(.32,0,0,-.32,-10.312012,144.3735)" stroke-width=".75" stroke-linecap="round" stroke-linejoin="round" fill="none" stroke="#0000ff" d="M74.4 124.63 96.99 125.24 119.58 100.1 142.16 87.2 164.75 104.92 187.34 125.02 209.93 150.63 232.52 196.25 255.11 279.47 277.69 299.17 300.28 198.31 322.87 217.75 345.46 191.21 368.05 239.3 390.64 237.58 413.22 339.95 435.81 382.34 458.4 431.2"/>
</g>
<g clip-path="url(#clip_3)">
<path transform="matrix(.32,0,0,-.32,-10.312012,144.3735)" stroke-width=".75" stroke-linecap="round" stroke-linejoin="round" fill="none" stroke="#000000" d="M164.75 73.44H390.64"/>
<path transform="matrix(.32,0,0,-.32,-10.312012,144.3735)" stroke-width=".75" stroke-linecap="round" stroke-linejoin="round" fill="none" stroke="#000000" d="M164.75 73.44V66.24"/>
<path transform="matrix(.32,0,0,-.32,-10.312012,144.3735)" stroke-width=".75" stroke-linecap="round" stroke-linejoin="round" fill="none" stroke="#000000" d="M277.69 73.44V66.24"/>
<path transform="matrix(.32,0,0,-.32,-10.312012,144.3735)" stroke-width=".75" stroke-linecap="round" stroke-linejoin="round" fill="none" stroke="#000000" d="M390.64 73.44V66.24"/>
<text xml:space="preserve" transform="matrix(.32 0 -0 .32 -10.312012 144.3735)" font-size="12" font-family="Helvetica"><tspan y="-47.52" x="161.42">5</tspan></text>
<text xml:space="preserve" transform="matrix(.32 0 -0 .32 -10.312012 144.3735)" font-size="12" font-family="Helvetica"><tspan y="-47.52" x="271.02 277.692">10</tspan></text>
<text xml:space="preserve" transform="matrix(.32 0 -0 .32 -10.312012 144.3735)" font-size="12" font-family="Helvetica"><tspan y="-47.52" x="383.96 390.632">15</tspan></text>
<path transform="matrix(.32,0,0,-.32,-10.312012,144.3735)" stroke-width=".75" stroke-linecap="round" stroke-linejoin="round" fill="none" stroke="#000000" d="M59.04 127.34V366.4"/>
<path transform="matrix(.32,0,0,-.32,-10.312012,144.3735)" stroke-width=".75" stroke-linecap="round" stroke-linejoin="round" fill="none" stroke="#000000" d="M59.04 127.34H51.84"/>
<path transform="matrix(.32,0,0,-.32,-10.312012,144.3735)" stroke-width=".75" stroke-linecap="round" stroke-linejoin="round" fill="none" stroke="#000000" d="M59.04 207.03H51.84"/>
<path transform="matrix(.32,0,0,-.32,-10.312012,144.3735)" stroke-width=".75" stroke-linecap="round" stroke-linejoin="round" fill="none" stroke="#000000" d="M59.04 286.72H51.84"/>
<path transform="matrix(.32,0,0,-.32,-10.312012,144.3735)" stroke-width=".75" stroke-linecap="round" stroke-linejoin="round" fill="none" stroke="#000000" d="M59.04 366.4H51.84"/>
<text xml:space="preserve" transform="matrix(0 -.32 .32 0 -10.312012 144.3735)" font-size="12" font-family="Helvetica"><tspan y="41.76" x="124">1</tspan></text>
<text xml:space="preserve" transform="matrix(0 -.32 .32 0 -10.312012 144.3735)" font-size="12" font-family="Helvetica"><tspan y="41.76" x="203.69">2</tspan></text>
<text xml:space="preserve" transform="matrix(0 -.32 .32 0 -10.312012 144.3735)" font-size="12" font-family="Helvetica"><tspan y="41.76" x="283.38">3</tspan></text>
<text xml:space="preserve" transform="matrix(0 -.32 .32 0 -10.312012 144.3735)" font-size="12" font-family="Helvetica"><tspan y="41.76" x="363.07">4</tspan></text>
<path transform="matrix(.32,0,0,-.32,-10.312012,144.3735)" stroke-width=".75" stroke-linecap="round" stroke-linejoin="round" fill="none" stroke="#000000" d="M59.04 73.44H473.76V444.96H59.04V73.44"/>
<text xml:space="preserve" transform="matrix(.32 0 -0 .32 -10.312012 144.3735)" font-size="14" font-family="Helvetica" font-weight="bold"><tspan y="-469.45" x="184.14 194.038 201.61199 209.39598 217.94998 225.73398 233.51798 237.40998 245.19397 253.74797 262.30198 266.19398 276.30198 284.08598 288.74797 296.53196 300.42396 305.86997 313.65397 318.31596 326.86994 332.31596 340.86994">Keynes and Rate returns</tspan></text>
<text xml:space="preserve" transform="matrix(.32 0 -0 .32 -10.312012 144.3735)" font-size="12" font-family="Helvetica"><tspan y="-18.72" x="249.27 256.674 263.346 267.522 270.186 276.858">Period</tspan></text>
</g>
<g clip-path="url(#clip_4)">
<path transform="matrix(.32,0,0,-.32,-10.312012,144.3735)" stroke-width=".75" stroke-linecap="round" stroke-linejoin="round" fill="none" stroke="#ff0000" d="M74.4 130.69 96.99 135.09 119.58 137.27 142.16 140.5 164.75 141.89 187.34 142.46 209.93 143.12 232.52 143.6 255.11 144.17 277.69 144.75 300.28 145.34 322.87 146.6 345.46 147.59 368.05 148.59 390.64 149.6 413.22 150.62 435.81 151.65 458.4 152.69"/>
<path transform="matrix(.32,0,0,-.32,-10.312012,144.3735)" stroke-width=".75" stroke-linecap="round" stroke-dasharray="0,4" stroke-linejoin="round" fill="none" stroke="#d3d3d3" d="M164.75 73.44V444.96"/>
<path transform="matrix(.32,0,0,-.32,-10.312012,144.3735)" stroke-width=".75" stroke-linecap="round" stroke-dasharray="0,4" stroke-linejoin="round" fill="none" stroke="#d3d3d3" d="M277.69 73.44V444.96"/>
<path transform="matrix(.32,0,0,-.32,-10.312012,144.3735)" stroke-width=".75" stroke-linecap="round" stroke-dasharray="0,4" stroke-linejoin="round" fill="none" stroke="#d3d3d3" d="M390.64 73.44V444.96"/>
<path transform="matrix(.32,0,0,-.32,-10.312012,144.3735)" stroke-width=".75" stroke-linecap="round" stroke-dasharray="0,4" stroke-linejoin="round" fill="none" stroke="#d3d3d3" d="M59.04 127.34H473.76"/>
<path transform="matrix(.32,0,0,-.32,-10.312012,144.3735)" stroke-width=".75" stroke-linecap="round" stroke-dasharray="0,4" stroke-linejoin="round" fill="none" stroke="#d3d3d3" d="M59.04 207.03H473.76"/>
<path transform="matrix(.32,0,0,-.32,-10.312012,144.3735)" stroke-width=".75" stroke-linecap="round" stroke-dasharray="0,4" stroke-linejoin="round" fill="none" stroke="#d3d3d3" d="M59.04 286.72H473.76"/>
<path transform="matrix(.32,0,0,-.32,-10.312012,144.3735)" stroke-width=".75" stroke-linecap="round" stroke-dasharray="0,4" stroke-linejoin="round" fill="none" stroke="#d3d3d3" d="M59.04 366.4H473.76"/>
<path transform="matrix(.32,0,0,-.32,-10.312012,144.3735)" stroke-width=".75" stroke-linecap="round" stroke-linejoin="round" fill="none" stroke="#000000" d="M385.86 444.96H473.76V401.76H385.86Z"/>
<path transform="matrix(.32,0,0,-.32,-10.312012,144.3735)" stroke-width=".75" stroke-linecap="round" stroke-linejoin="round" fill="none" stroke="#0000ff" d="M396.66 430.56H418.26"/>
<path transform="matrix(.32,0,0,-.32,-10.312012,144.3735)" stroke-width=".75" stroke-linecap="round" stroke-linejoin="round" fill="none" stroke="#ff0000" d="M396.66 416.16H418.26"/>
<text xml:space="preserve" transform="matrix(.32 0 -0 .32 -10.312012 144.3735)" font-size="12" font-family="Helvetica"><tspan y="-426.25" x="429.06 436.58399 443.016 449.016 455.688 462.36">Keynes</tspan></text>
<text xml:space="preserve" transform="matrix(.32 0 -0 .32 -10.312012 144.3735)" font-size="12" font-family="Helvetica"><tspan y="-411.85" x="429.06 437.724 444.396 447.732">Rate</tspan></text>
</g>
<g clip-path="url(#clip_5)">
<text fill="#ff0000" xml:space="preserve" transform="matrix(1 0 -0 1 -209.682 200.5915)" font-size="9.9626" font-family="URWPalladioL"><tspan y="-30.558" x="199.37 206.60285 211.37493 216.91413 222.71236 227.48444 234.19922 239.8281 246.54288 253.60636 258.58766 262.8118">KeynesvsCash</tspan></text>
</g>
</g>
</svg>
