<svg xmlns="http://www.w3.org/2000/svg" xmlns:xlink="http://www.w3.org/1999/xlink" xmlns:inkscape="http://www.inkscape.org/namespaces/inkscape" version="1.1" width="150.00252" height="157.38613" viewBox="0 0 150.00252 157.38613">
<defs>
<clipPath id="clip_0">
<path transform="matrix(1,0,0,-1,-204.1632,215.8814)" d="M204.1632 58.49527H354.1657V215.8814H204.1632Z" clip-rule="evenodd"/>
</clipPath>
<clipPath id="clip_1">
<path transform="matrix(1,0,0,-1,-204.1632,215.8814)" d="M0 0H362.835V272.126H0Z"/>
</clipPath>
<clipPath id="clip_2">
<path transform="matrix(1,0,0,-1,-204.1632,215.8814)" d="M54.7988 79.7188H187.5092V198.6052H54.7988Z"/>
</clipPath>
<clipPath id="clip_3">
<path transform="matrix(1,0,0,-1,-204.1632,215.8814)" d="M35.906 56.218H197.186V217.498H35.906Z"/>
</clipPath>
<clipPath id="clip_4">
<path transform="matrix(1,0,0,-1,-204.1632,215.8814)" d="M54.7988 79.7188H187.5092V198.6052H54.7988Z"/>
</clipPath>
<clipPath id="clip_5">
<path transform="matrix(1,0,0,-1,-204.1632,215.8814)" d="M0 0H362.835V272.126H0Z"/>
</clipPath>
<clipPath id="clip_6">
<path transform="matrix(1,0,0,-1,-204.1632,215.8814)" d="M218.2628 79.7188H350.9732V198.6052H218.2628Z"/>
</clipPath>
<clipPath id="clip_7">
<path transform="matrix(1,0,0,-1,-204.1632,215.8814)" d="M199.37 56.218H360.65V217.498H199.37Z"/>
</clipPath>
<clipPath id="clip_8">
<path transform="matrix(1,0,0,-1,-204.1632,215.8814)" d="M218.2628 79.7188H350.9732V198.6052H218.2628Z"/>
</clipPath>
<clipPath id="clip_9">
<path transform="matrix(1,0,0,-1,-204.1632,215.8814)" d="M0 0H362.835V272.126H0Z"/>
</clipPath>
</defs>
<g clip-path="url(#clip_0)">
<g clip-path="url(#clip_1)">
<path transform="matrix(1,0,0,-1,-204.1632,215.8814)" d="M0 0H362.835V272.126H0Z" fill="#ffffff"/>
<path transform="matrix(1,0,0,-1,31.303803,212.3944)" stroke-width=".3985" stroke-linecap="butt" stroke-miterlimit="10" stroke-linejoin="miter" fill="none" stroke="#adade0" d="M8.26909 .79701H11.65642V3.18806H8.26909Z"/>
<path transform="matrix(1,0,0,-1,-204.1632,215.8814)" d="M239.4671 3.98698 237.467 5.48702 239.4671 6.98703" fill="#d6d6f0"/>
<path transform="matrix(1,0,0,-1,-204.1632,215.8814)" d="M251.4672 3.98698 253.4672 5.48702 251.4672 6.98703" fill="#d6d6f0"/>
<path transform="matrix(1,0,0,-1,52.224809,212.3944)" stroke-width=".3985" stroke-linecap="butt" stroke-miterlimit="10" stroke-linejoin="miter" fill="none" stroke="#adade0" d="M6.97394 0H10.36127V2.39105H6.97394ZM7.80008 2.40001V3.20003H11.20012V.8H10.4001M8.6001 3.20003V4.00005H12.00015V1.60002H11.20012"/>
<path transform="matrix(1,0,0,-1,-204.1632,215.8814)" d="M260.3881 3.98698 258.388 5.48702 260.3881 6.98703M272.3882 3.98698 274.3882 5.48702 272.3882 6.98703" fill="#d6d6f0"/>
<path transform="matrix(1,0,0,-1,73.146808,212.3944)" stroke-width=".59776" stroke-linecap="butt" stroke-miterlimit="10" stroke-linejoin="miter" fill="none" stroke="#adade0" d="M9.00009 3.00003H12.00015"/>
<path transform="matrix(1,0,0,-1,-204.1632,215.8814)" d="M281.3101 3.98698 279.31 5.48702 281.3101 6.98703M293.3102 3.98698 295.3102 5.48702 293.3102 6.98703" fill="#d6d6f0"/>
<path transform="matrix(1,0,0,-1,73.146808,212.3944)" stroke-width=".59776" stroke-linecap="butt" stroke-miterlimit="10" stroke-linejoin="miter" fill="none" stroke="#d6d6f0" d="M8.00009 4.00005H11.00012M9.00009 2.00002H12.00015M8.00009 1H11.00012M9.00009 0H12.00015"/>
<path transform="matrix(1,0,0,-1,94.0688,212.3944)" stroke-width=".59776" stroke-linecap="butt" stroke-miterlimit="10" stroke-linejoin="miter" fill="none" stroke="#adade0" d="M8.00009 4.00005H11.00012M9.00009 3.00003H12.00015M9.00009 2.00002H12.00015"/>
<path transform="matrix(1,0,0,-1,-204.1632,215.8814)" d="M302.2321 3.98698 300.232 5.48702 302.2321 6.98703M314.2322 3.98698 316.2322 5.48702 314.2322 6.98703" fill="#d6d6f0"/>
<path transform="matrix(1,0,0,-1,94.0688,212.3944)" stroke-width=".59776" stroke-linecap="butt" stroke-miterlimit="10" stroke-linejoin="miter" fill="none" stroke="#d6d6f0" d="M8.00009 1H11.00012M9.00009 0H12.00015"/>
<path transform="matrix(1,0,0,-1,114.98982,212.3944)" stroke-width=".59776" stroke-linecap="butt" stroke-miterlimit="10" stroke-linejoin="miter" fill="none" stroke="#adade0" d="M8.00009 4.00005H11.00012M9.00009 3.00003H12.00015M9.00009 2.00002H12.00015M8.00009 1H11.00012M9.00009 0H12.00015"/>
<path transform="matrix(1,0,0,-1,135.91182,212.3944)" stroke-width=".59776" stroke-linecap="butt" stroke-miterlimit="10" stroke-linejoin="miter" fill="none" stroke="#adade0" d="M10.4001 1.60002 12.00015 0"/>
<path transform="matrix(1,0,0,-1,135.91182,212.3944)" stroke-width=".3985" stroke-linecap="butt" stroke-miterlimit="10" stroke-linejoin="miter" fill="none" stroke="#adade0" d="M10.66016 2.49069C10.66016 3.15096 10.1249 3.68622 9.46463 3.68622 8.80435 3.68622 8.26909 3.15096 8.26909 2.49069 8.26909 1.83041 8.80435 1.29515 9.46463 1.29515 10.1249 1.29515 10.66016 1.83041 10.66016 2.49069ZM9.46463 2.49069"/>
<path transform="matrix(1,0,0,-1,135.91182,212.3944)" stroke-width=".3985" stroke-linecap="round" stroke-miterlimit="10" stroke-linejoin="miter" fill="none" stroke="#adade0" d="M4.00005 0C5.08101 0 6.00006 .9 6.00006 2.00002 6.00006 3.10002 5.10005 4.00005 4.00005 4.00005 2.90001 4.00005 2.00002 3.10002 2.00002 2.00002M3.20003 2.60002 2.00002 1.60002 .8 2.60002M16.0002 0C14.90016 0 14.00017 .9 14.00017 2.00002 14.00017 3.10002 14.90016 4.00005 16.0002 4.00005 17.1002 4.00005 18.00021 3.10002 18.00021 2.00002M19.20023 2.60002 18.00021 1.60002 16.8002 2.60002"/>
<text fill="#3333b2" xml:space="preserve" transform="matrix(1 0 -0 1 -204.1632 215.8814)" font-size="17.2154" font-family="URWPalladioL"><tspan y="-248.782" x="8.504 21.00238 29.248558 38.82032 48.839685 57.08586">Keynes</tspan></text>
<text fill="#3333b2" xml:space="preserve" transform="matrix(1 0 -0 1 -204.1632 215.8814)" font-size="9.9626" font-family="URWPalladioL"><tspan y="-232.842" x="8.504 16.334603 22.322125 25.569931 28.469048 37.26602 42.247323 47.63709 53.724237 58.705537 64.24474 69.01683 75.73162 82.386638 87.15872 92.66804 97.64934 100.548458 105.529758 111.32799 115.75138 118.6505 124.44873">OptimalBayesRebalancing</tspan></text>
</g>
<g clip-path="url(#clip_2)">
<path transform="matrix(.32,0,0,-.32,-168.2572,159.66339)" stroke-width=".75" stroke-linecap="round" stroke-linejoin="round" fill="none" stroke="#0000ff" d="M74.4 178.86 82.08 187.85 89.76 197.36 97.44 207.38 105.12 217.88 112.8 228.83 120.48 240.19 128.16 251.91 135.84 263.93 143.52 276.2 151.2 288.65 158.88 301.19 166.56 313.73 174.24 326.2 181.92 338.49 189.6 350.49 197.28 362.1 204.96 373.2 212.64 383.68 220.32 393.42 228 402.31 235.68 410.21 243.36 417.03 251.04 422.64 258.72 426.93 266.4 429.82 274.08 431.2 281.76 431 289.44 429.14 297.12 425.58 304.8 420.28 312.48 413.21 320.16 404.39 327.84 393.82 335.52 381.55 343.2 367.66 350.88 352.24 358.56 335.4 366.24 317.29 373.92 298.09 381.6 277.99 389.28 257.22 396.96 236.03 404.64 214.69 412.32 193.48 420 172.72 427.68 152.74 435.36 133.86 443.04 116.42 450.72 100.76 458.4 87.2"/>
</g>
<g clip-path="url(#clip_3)">
<path transform="matrix(.32,0,0,-.32,-168.2572,159.66339)" stroke-width=".75" stroke-linecap="round" stroke-linejoin="round" fill="none" stroke="#000000" d="M74.4 73.44H458.4"/>
<path transform="matrix(.32,0,0,-.32,-168.2572,159.66339)" stroke-width=".75" stroke-linecap="round" stroke-linejoin="round" fill="none" stroke="#000000" d="M74.4 73.44V66.24"/>
<path transform="matrix(.32,0,0,-.32,-168.2572,159.66339)" stroke-width=".75" stroke-linecap="round" stroke-linejoin="round" fill="none" stroke="#000000" d="M151.2 73.44V66.24"/>
<path transform="matrix(.32,0,0,-.32,-168.2572,159.66339)" stroke-width=".75" stroke-linecap="round" stroke-linejoin="round" fill="none" stroke="#000000" d="M228 73.44V66.24"/>
<path transform="matrix(.32,0,0,-.32,-168.2572,159.66339)" stroke-width=".75" stroke-linecap="round" stroke-linejoin="round" fill="none" stroke="#000000" d="M304.8 73.44V66.24"/>
<path transform="matrix(.32,0,0,-.32,-168.2572,159.66339)" stroke-width=".75" stroke-linecap="round" stroke-linejoin="round" fill="none" stroke="#000000" d="M381.6 73.44V66.24"/>
<path transform="matrix(.32,0,0,-.32,-168.2572,159.66339)" stroke-width=".75" stroke-linecap="round" stroke-linejoin="round" fill="none" stroke="#000000" d="M458.4 73.44V66.24"/>
<text xml:space="preserve" transform="matrix(.32 0 -0 .32 -168.2572 159.66339)" font-size="12" font-family="Helvetica"><tspan y="-47.52" x="66.06 72.731998 76.06799">0.0</tspan></text>
<text xml:space="preserve" transform="matrix(.32 0 -0 .32 -168.2572 159.66339)" font-size="12" font-family="Helvetica"><tspan y="-47.52" x="142.86 149.532 152.868">0.5</tspan></text>
<text xml:space="preserve" transform="matrix(.32 0 -0 .32 -168.2572 159.66339)" font-size="12" font-family="Helvetica"><tspan y="-47.52" x="219.66 226.332 229.668">1.0</tspan></text>
<text xml:space="preserve" transform="matrix(.32 0 -0 .32 -168.2572 159.66339)" font-size="12" font-family="Helvetica"><tspan y="-47.52" x="296.46 303.132 306.468">1.5</tspan></text>
<text xml:space="preserve" transform="matrix(.32 0 -0 .32 -168.2572 159.66339)" font-size="12" font-family="Helvetica"><tspan y="-47.52" x="373.26 379.932 383.268">2.0</tspan></text>
<text xml:space="preserve" transform="matrix(.32 0 -0 .32 -168.2572 159.66339)" font-size="12" font-family="Helvetica"><tspan y="-47.52" x="450.06 456.732 460.068">2.5</tspan></text>
<path transform="matrix(.32,0,0,-.32,-168.2572,159.66339)" stroke-width=".75" stroke-linecap="round" stroke-linejoin="round" fill="none" stroke="#000000" d="M59.04 94.58V414.26"/>
<path transform="matrix(.32,0,0,-.32,-168.2572,159.66339)" stroke-width=".75" stroke-linecap="round" stroke-linejoin="round" fill="none" stroke="#000000" d="M59.04 94.58H51.84"/>
<path transform="matrix(.32,0,0,-.32,-168.2572,159.66339)" stroke-width=".75" stroke-linecap="round" stroke-linejoin="round" fill="none" stroke="#000000" d="M59.04 158.52H51.84"/>
<path transform="matrix(.32,0,0,-.32,-168.2572,159.66339)" stroke-width=".75" stroke-linecap="round" stroke-linejoin="round" fill="none" stroke="#000000" d="M59.04 222.45H51.84"/>
<path transform="matrix(.32,0,0,-.32,-168.2572,159.66339)" stroke-width=".75" stroke-linecap="round" stroke-linejoin="round" fill="none" stroke="#000000" d="M59.04 286.39H51.84"/>
<path transform="matrix(.32,0,0,-.32,-168.2572,159.66339)" stroke-width=".75" stroke-linecap="round" stroke-linejoin="round" fill="none" stroke="#000000" d="M59.04 350.32H51.84"/>
<path transform="matrix(.32,0,0,-.32,-168.2572,159.66339)" stroke-width=".75" stroke-linecap="round" stroke-linejoin="round" fill="none" stroke="#000000" d="M59.04 414.26H51.84"/>
<text xml:space="preserve" transform="matrix(0 -.32 .32 0 -168.2572 159.66339)" font-size="12" font-family="Helvetica"><tspan y="41.76" x="91.25">0</tspan></text>
<text xml:space="preserve" transform="matrix(0 -.32 .32 0 -168.2572 159.66339)" font-size="12" font-family="Helvetica"><tspan y="41.76" x="155.18">1</tspan></text>
<text xml:space="preserve" transform="matrix(0 -.32 .32 0 -168.2572 159.66339)" font-size="12" font-family="Helvetica"><tspan y="41.76" x="219.12">2</tspan></text>
<text xml:space="preserve" transform="matrix(0 -.32 .32 0 -168.2572 159.66339)" font-size="12" font-family="Helvetica"><tspan y="41.76" x="283.05">3</tspan></text>
<text xml:space="preserve" transform="matrix(0 -.32 .32 0 -168.2572 159.66339)" font-size="12" font-family="Helvetica"><tspan y="41.76" x="346.99">4</tspan></text>
<text xml:space="preserve" transform="matrix(0 -.32 .32 0 -168.2572 159.66339)" font-size="12" font-family="Helvetica"><tspan y="41.76" x="410.92">5</tspan></text>
<path transform="matrix(.32,0,0,-.32,-168.2572,159.66339)" stroke-width=".75" stroke-linecap="round" stroke-linejoin="round" fill="none" stroke="#000000" d="M59.04 73.44H473.76V444.96H59.04V73.44"/>
<text xml:space="preserve" transform="matrix(.32 0 -0 .32 -168.2572 159.66339)" font-size="14" font-family="Helvetica" font-weight="bold"><tspan y="-469.45" x="188.03 199.692 203.584 211.368 215.26 223.814 228.476 232.368 242.26599 249.83998 257.624 266.17799 273.96199 281.74598 285.63798 293.42198 301.97596 310.52995 314.42195 324.52995 332.31394 336.97593">Mix of Keynes and Rate</tspan></text>
<text xml:space="preserve" transform="matrix(.32 0 -0 .32 -168.2572 159.66339)" font-size="12" font-family="Helvetica"><tspan y="-18.72" x="187.03 194.362 198.238 204.91 210.91 214.246 216.91 223.582 230.254 233.59 240.262 243.59799 246.93399 254.458 260.89 266.89 273.562 280.234 286.234 289.57 292.234 298.906 302.242 309.646 316.318 320.794 324.13 327.10603 333.778 336.44203 339.10603">Fraction of Keynes in Portfolio</tspan></text>
</g>
<g clip-path="url(#clip_4)">
<text fill="#ff0000" xml:space="preserve" transform="matrix(.32 0 -0 .32 -168.2572 159.66339)" font-size="3.74" font-family="ZapfDingbatsITC"><tspan y="-177.56" x="72.92">&#x25cf;</tspan></text>
<text fill="#ff0000" xml:space="preserve" transform="matrix(.32 0 -0 .32 -168.2572 159.66339)" font-size="3.74" font-family="ZapfDingbatsITC"><tspan y="-177.56" x="72.92">&#x25cf;</tspan></text>
<text fill="#ff0000" xml:space="preserve" transform="matrix(.32 0 -0 .32 -168.2572 159.66339)" font-size="3.74" font-family="ZapfDingbatsITC"><tspan y="-186.55" x="80.6">&#x25cf;</tspan></text>
<text fill="#ff0000" xml:space="preserve" transform="matrix(.32 0 -0 .32 -168.2572 159.66339)" font-size="3.74" font-family="ZapfDingbatsITC"><tspan y="-186.55" x="80.6">&#x25cf;</tspan></text>
<text fill="#ff0000" xml:space="preserve" transform="matrix(.32 0 -0 .32 -168.2572 159.66339)" font-size="3.74" font-family="ZapfDingbatsITC"><tspan y="-196.06" x="88.28">&#x25cf;</tspan></text>
<text fill="#ff0000" xml:space="preserve" transform="matrix(.32 0 -0 .32 -168.2572 159.66339)" font-size="3.74" font-family="ZapfDingbatsITC"><tspan y="-196.06" x="88.28">&#x25cf;</tspan></text>
<text fill="#ff0000" xml:space="preserve" transform="matrix(.32 0 -0 .32 -168.2572 159.66339)" font-size="3.74" font-family="ZapfDingbatsITC"><tspan y="-206.08" x="95.96">&#x25cf;</tspan></text>
<text fill="#ff0000" xml:space="preserve" transform="matrix(.32 0 -0 .32 -168.2572 159.66339)" font-size="3.74" font-family="ZapfDingbatsITC"><tspan y="-206.08" x="95.96">&#x25cf;</tspan></text>
<text fill="#ff0000" xml:space="preserve" transform="matrix(.32 0 -0 .32 -168.2572 159.66339)" font-size="3.74" font-family="ZapfDingbatsITC"><tspan y="-216.58" x="103.64">&#x25cf;</tspan></text>
<text fill="#ff0000" xml:space="preserve" transform="matrix(.32 0 -0 .32 -168.2572 159.66339)" font-size="3.74" font-family="ZapfDingbatsITC"><tspan y="-216.58" x="103.64">&#x25cf;</tspan></text>
<text fill="#ff0000" xml:space="preserve" transform="matrix(.32 0 -0 .32 -168.2572 159.66339)" font-size="3.74" font-family="ZapfDingbatsITC"><tspan y="-227.53" x="111.32">&#x25cf;</tspan></text>
<text fill="#ff0000" xml:space="preserve" transform="matrix(.32 0 -0 .32 -168.2572 159.66339)" font-size="3.74" font-family="ZapfDingbatsITC"><tspan y="-227.53" x="111.32">&#x25cf;</tspan></text>
<text fill="#ff0000" xml:space="preserve" transform="matrix(.32 0 -0 .32 -168.2572 159.66339)" font-size="3.74" font-family="ZapfDingbatsITC"><tspan y="-238.89" x="119">&#x25cf;</tspan></text>
<text fill="#ff0000" xml:space="preserve" transform="matrix(.32 0 -0 .32 -168.2572 159.66339)" font-size="3.74" font-family="ZapfDingbatsITC"><tspan y="-238.89" x="119">&#x25cf;</tspan></text>
<text fill="#ff0000" xml:space="preserve" transform="matrix(.32 0 -0 .32 -168.2572 159.66339)" font-size="3.74" font-family="ZapfDingbatsITC"><tspan y="-250.61" x="126.68">&#x25cf;</tspan></text>
<text fill="#ff0000" xml:space="preserve" transform="matrix(.32 0 -0 .32 -168.2572 159.66339)" font-size="3.74" font-family="ZapfDingbatsITC"><tspan y="-250.61" x="126.68">&#x25cf;</tspan></text>
<text fill="#ff0000" xml:space="preserve" transform="matrix(.32 0 -0 .32 -168.2572 159.66339)" font-size="3.74" font-family="ZapfDingbatsITC"><tspan y="-262.64" x="134.36">&#x25cf;</tspan></text>
<text fill="#ff0000" xml:space="preserve" transform="matrix(.32 0 -0 .32 -168.2572 159.66339)" font-size="3.74" font-family="ZapfDingbatsITC"><tspan y="-262.64" x="134.36">&#x25cf;</tspan></text>
<text fill="#ff0000" xml:space="preserve" transform="matrix(.32 0 -0 .32 -168.2572 159.66339)" font-size="3.74" font-family="ZapfDingbatsITC"><tspan y="-274.91" x="142.04">&#x25cf;</tspan></text>
<text fill="#ff0000" xml:space="preserve" transform="matrix(.32 0 -0 .32 -168.2572 159.66339)" font-size="3.74" font-family="ZapfDingbatsITC"><tspan y="-274.91" x="142.04">&#x25cf;</tspan></text>
<text fill="#ff0000" xml:space="preserve" transform="matrix(.32 0 -0 .32 -168.2572 159.66339)" font-size="3.74" font-family="ZapfDingbatsITC"><tspan y="-287.35" x="149.72">&#x25cf;</tspan></text>
<text fill="#ff0000" xml:space="preserve" transform="matrix(.32 0 -0 .32 -168.2572 159.66339)" font-size="3.74" font-family="ZapfDingbatsITC"><tspan y="-287.35" x="149.72">&#x25cf;</tspan></text>
<text fill="#ff0000" xml:space="preserve" transform="matrix(.32 0 -0 .32 -168.2572 159.66339)" font-size="3.74" font-family="ZapfDingbatsITC"><tspan y="-299.89" x="157.4">&#x25cf;</tspan></text>
<text fill="#ff0000" xml:space="preserve" transform="matrix(.32 0 -0 .32 -168.2572 159.66339)" font-size="3.74" font-family="ZapfDingbatsITC"><tspan y="-299.89" x="157.4">&#x25cf;</tspan></text>
<text fill="#ff0000" xml:space="preserve" transform="matrix(.32 0 -0 .32 -168.2572 159.66339)" font-size="3.74" font-family="ZapfDingbatsITC"><tspan y="-312.44" x="165.08">&#x25cf;</tspan></text>
<text fill="#ff0000" xml:space="preserve" transform="matrix(.32 0 -0 .32 -168.2572 159.66339)" font-size="3.74" font-family="ZapfDingbatsITC"><tspan y="-312.44" x="165.08">&#x25cf;</tspan></text>
<text fill="#ff0000" xml:space="preserve" transform="matrix(.32 0 -0 .32 -168.2572 159.66339)" font-size="3.74" font-family="ZapfDingbatsITC"><tspan y="-324.9" x="172.76">&#x25cf;</tspan></text>
<text fill="#ff0000" xml:space="preserve" transform="matrix(.32 0 -0 .32 -168.2572 159.66339)" font-size="3.74" font-family="ZapfDingbatsITC"><tspan y="-324.9" x="172.76">&#x25cf;</tspan></text>
<text fill="#ff0000" xml:space="preserve" transform="matrix(.32 0 -0 .32 -168.2572 159.66339)" font-size="3.74" font-family="ZapfDingbatsITC"><tspan y="-337.19" x="180.44">&#x25cf;</tspan></text>
<text fill="#ff0000" xml:space="preserve" transform="matrix(.32 0 -0 .32 -168.2572 159.66339)" font-size="3.74" font-family="ZapfDingbatsITC"><tspan y="-337.19" x="180.44">&#x25cf;</tspan></text>
<text fill="#ff0000" xml:space="preserve" transform="matrix(.32 0 -0 .32 -168.2572 159.66339)" font-size="3.74" font-family="ZapfDingbatsITC"><tspan y="-349.19" x="188.12">&#x25cf;</tspan></text>
<text fill="#ff0000" xml:space="preserve" transform="matrix(.32 0 -0 .32 -168.2572 159.66339)" font-size="3.74" font-family="ZapfDingbatsITC"><tspan y="-349.19" x="188.12">&#x25cf;</tspan></text>
<text fill="#ff0000" xml:space="preserve" transform="matrix(.32 0 -0 .32 -168.2572 159.66339)" font-size="3.74" font-family="ZapfDingbatsITC"><tspan y="-360.8" x="195.8">&#x25cf;</tspan></text>
<text fill="#ff0000" xml:space="preserve" transform="matrix(.32 0 -0 .32 -168.2572 159.66339)" font-size="3.74" font-family="ZapfDingbatsITC"><tspan y="-360.8" x="195.8">&#x25cf;</tspan></text>
<text fill="#ff0000" xml:space="preserve" transform="matrix(.32 0 -0 .32 -168.2572 159.66339)" font-size="3.74" font-family="ZapfDingbatsITC"><tspan y="-371.9" x="203.48">&#x25cf;</tspan></text>
<text fill="#ff0000" xml:space="preserve" transform="matrix(.32 0 -0 .32 -168.2572 159.66339)" font-size="3.74" font-family="ZapfDingbatsITC"><tspan y="-371.9" x="203.48">&#x25cf;</tspan></text>
<text fill="#ff0000" xml:space="preserve" transform="matrix(.32 0 -0 .32 -168.2572 159.66339)" font-size="3.74" font-family="ZapfDingbatsITC"><tspan y="-382.38" x="211.16">&#x25cf;</tspan></text>
<text fill="#ff0000" xml:space="preserve" transform="matrix(.32 0 -0 .32 -168.2572 159.66339)" font-size="3.74" font-family="ZapfDingbatsITC"><tspan y="-382.38" x="211.16">&#x25cf;</tspan></text>
<text fill="#ff0000" xml:space="preserve" transform="matrix(.32 0 -0 .32 -168.2572 159.66339)" font-size="3.74" font-family="ZapfDingbatsITC"><tspan y="-392.13" x="218.84">&#x25cf;</tspan></text>
<text fill="#ff0000" xml:space="preserve" transform="matrix(.32 0 -0 .32 -168.2572 159.66339)" font-size="3.74" font-family="ZapfDingbatsITC"><tspan y="-392.13" x="218.84">&#x25cf;</tspan></text>
<text fill="#ff0000" xml:space="preserve" transform="matrix(.32 0 -0 .32 -168.2572 159.66339)" font-size="3.74" font-family="ZapfDingbatsITC"><tspan y="-401.01" x="226.52">&#x25cf;</tspan></text>
<text fill="#ff0000" xml:space="preserve" transform="matrix(.32 0 -0 .32 -168.2572 159.66339)" font-size="3.74" font-family="ZapfDingbatsITC"><tspan y="-401.01" x="226.52">&#x25cf;</tspan></text>
<text fill="#ff0000" xml:space="preserve" transform="matrix(.32 0 -0 .32 -168.2572 159.66339)" font-size="3.74" font-family="ZapfDingbatsITC"><tspan y="-408.92" x="234.2">&#x25cf;</tspan></text>
<text fill="#ff0000" xml:space="preserve" transform="matrix(.32 0 -0 .32 -168.2572 159.66339)" font-size="3.74" font-family="ZapfDingbatsITC"><tspan y="-408.92" x="234.2">&#x25cf;</tspan></text>
<text fill="#ff0000" xml:space="preserve" transform="matrix(.32 0 -0 .32 -168.2572 159.66339)" font-size="3.74" font-family="ZapfDingbatsITC"><tspan y="-415.73" x="241.88">&#x25cf;</tspan></text>
<text fill="#ff0000" xml:space="preserve" transform="matrix(.32 0 -0 .32 -168.2572 159.66339)" font-size="3.74" font-family="ZapfDingbatsITC"><tspan y="-415.73" x="241.88">&#x25cf;</tspan></text>
<text fill="#ff0000" xml:space="preserve" transform="matrix(.32 0 -0 .32 -168.2572 159.66339)" font-size="3.74" font-family="ZapfDingbatsITC"><tspan y="-421.34" x="249.56">&#x25cf;</tspan></text>
<text fill="#ff0000" xml:space="preserve" transform="matrix(.32 0 -0 .32 -168.2572 159.66339)" font-size="3.74" font-family="ZapfDingbatsITC"><tspan y="-421.34" x="249.56">&#x25cf;</tspan></text>
<text fill="#ff0000" xml:space="preserve" transform="matrix(.32 0 -0 .32 -168.2572 159.66339)" font-size="3.74" font-family="ZapfDingbatsITC"><tspan y="-425.64" x="257.24">&#x25cf;</tspan></text>
<text fill="#ff0000" xml:space="preserve" transform="matrix(.32 0 -0 .32 -168.2572 159.66339)" font-size="3.74" font-family="ZapfDingbatsITC"><tspan y="-425.64" x="257.24">&#x25cf;</tspan></text>
<text fill="#ff0000" xml:space="preserve" transform="matrix(.32 0 -0 .32 -168.2572 159.66339)" font-size="3.74" font-family="ZapfDingbatsITC"><tspan y="-428.52" x="264.92">&#x25cf;</tspan></text>
<text fill="#ff0000" xml:space="preserve" transform="matrix(.32 0 -0 .32 -168.2572 159.66339)" font-size="3.74" font-family="ZapfDingbatsITC"><tspan y="-428.52" x="264.92">&#x25cf;</tspan></text>
<text fill="#ff0000" xml:space="preserve" transform="matrix(.32 0 -0 .32 -168.2572 159.66339)" font-size="3.74" font-family="ZapfDingbatsITC"><tspan y="-429.9" x="272.6">&#x25cf;</tspan></text>
<text fill="#ff0000" xml:space="preserve" transform="matrix(.32 0 -0 .32 -168.2572 159.66339)" font-size="3.74" font-family="ZapfDingbatsITC"><tspan y="-429.9" x="272.6">&#x25cf;</tspan></text>
<text fill="#ff0000" xml:space="preserve" transform="matrix(.32 0 -0 .32 -168.2572 159.66339)" font-size="3.74" font-family="ZapfDingbatsITC"><tspan y="-429.7" x="280.28">&#x25cf;</tspan></text>
<text fill="#ff0000" xml:space="preserve" transform="matrix(.32 0 -0 .32 -168.2572 159.66339)" font-size="3.74" font-family="ZapfDingbatsITC"><tspan y="-429.7" x="280.28">&#x25cf;</tspan></text>
<text fill="#ff0000" xml:space="preserve" transform="matrix(.32 0 -0 .32 -168.2572 159.66339)" font-size="3.74" font-family="ZapfDingbatsITC"><tspan y="-427.85" x="287.96">&#x25cf;</tspan></text>
<text fill="#ff0000" xml:space="preserve" transform="matrix(.32 0 -0 .32 -168.2572 159.66339)" font-size="3.74" font-family="ZapfDingbatsITC"><tspan y="-427.85" x="287.96">&#x25cf;</tspan></text>
<text fill="#ff0000" xml:space="preserve" transform="matrix(.32 0 -0 .32 -168.2572 159.66339)" font-size="3.74" font-family="ZapfDingbatsITC"><tspan y="-424.29" x="295.64">&#x25cf;</tspan></text>
<text fill="#ff0000" xml:space="preserve" transform="matrix(.32 0 -0 .32 -168.2572 159.66339)" font-size="3.74" font-family="ZapfDingbatsITC"><tspan y="-424.29" x="295.64">&#x25cf;</tspan></text>
<text fill="#ff0000" xml:space="preserve" transform="matrix(.32 0 -0 .32 -168.2572 159.66339)" font-size="3.74" font-family="ZapfDingbatsITC"><tspan y="-418.98" x="303.32">&#x25cf;</tspan></text>
<text fill="#ff0000" xml:space="preserve" transform="matrix(.32 0 -0 .32 -168.2572 159.66339)" font-size="3.74" font-family="ZapfDingbatsITC"><tspan y="-418.98" x="303.32">&#x25cf;</tspan></text>
<text fill="#ff0000" xml:space="preserve" transform="matrix(.32 0 -0 .32 -168.2572 159.66339)" font-size="3.74" font-family="ZapfDingbatsITC"><tspan y="-411.92" x="311">&#x25cf;</tspan></text>
<text fill="#ff0000" xml:space="preserve" transform="matrix(.32 0 -0 .32 -168.2572 159.66339)" font-size="3.74" font-family="ZapfDingbatsITC"><tspan y="-411.92" x="311">&#x25cf;</tspan></text>
<text fill="#ff0000" xml:space="preserve" transform="matrix(.32 0 -0 .32 -168.2572 159.66339)" font-size="3.74" font-family="ZapfDingbatsITC"><tspan y="-403.09" x="318.68">&#x25cf;</tspan></text>
<text fill="#ff0000" xml:space="preserve" transform="matrix(.32 0 -0 .32 -168.2572 159.66339)" font-size="3.74" font-family="ZapfDingbatsITC"><tspan y="-403.09" x="318.68">&#x25cf;</tspan></text>
<text fill="#ff0000" xml:space="preserve" transform="matrix(.32 0 -0 .32 -168.2572 159.66339)" font-size="3.74" font-family="ZapfDingbatsITC"><tspan y="-392.52" x="326.36">&#x25cf;</tspan></text>
<text fill="#ff0000" xml:space="preserve" transform="matrix(.32 0 -0 .32 -168.2572 159.66339)" font-size="3.74" font-family="ZapfDingbatsITC"><tspan y="-392.52" x="326.36">&#x25cf;</tspan></text>
<text fill="#ff0000" xml:space="preserve" transform="matrix(.32 0 -0 .32 -168.2572 159.66339)" font-size="3.74" font-family="ZapfDingbatsITC"><tspan y="-380.26" x="334.04">&#x25cf;</tspan></text>
<text fill="#ff0000" xml:space="preserve" transform="matrix(.32 0 -0 .32 -168.2572 159.66339)" font-size="3.74" font-family="ZapfDingbatsITC"><tspan y="-380.26" x="334.04">&#x25cf;</tspan></text>
<text fill="#ff0000" xml:space="preserve" transform="matrix(.32 0 -0 .32 -168.2572 159.66339)" font-size="3.74" font-family="ZapfDingbatsITC"><tspan y="-366.37" x="341.72">&#x25cf;</tspan></text>
<text fill="#ff0000" xml:space="preserve" transform="matrix(.32 0 -0 .32 -168.2572 159.66339)" font-size="3.74" font-family="ZapfDingbatsITC"><tspan y="-366.37" x="341.72">&#x25cf;</tspan></text>
<text fill="#ff0000" xml:space="preserve" transform="matrix(.32 0 -0 .32 -168.2572 159.66339)" font-size="3.74" font-family="ZapfDingbatsITC"><tspan y="-350.94" x="349.4">&#x25cf;</tspan></text>
<text fill="#ff0000" xml:space="preserve" transform="matrix(.32 0 -0 .32 -168.2572 159.66339)" font-size="3.74" font-family="ZapfDingbatsITC"><tspan y="-350.94" x="349.4">&#x25cf;</tspan></text>
<text fill="#ff0000" xml:space="preserve" transform="matrix(.32 0 -0 .32 -168.2572 159.66339)" font-size="3.74" font-family="ZapfDingbatsITC"><tspan y="-334.1" x="357.08">&#x25cf;</tspan></text>
<text fill="#ff0000" xml:space="preserve" transform="matrix(.32 0 -0 .32 -168.2572 159.66339)" font-size="3.74" font-family="ZapfDingbatsITC"><tspan y="-334.1" x="357.08">&#x25cf;</tspan></text>
<text fill="#ff0000" xml:space="preserve" transform="matrix(.32 0 -0 .32 -168.2572 159.66339)" font-size="3.74" font-family="ZapfDingbatsITC"><tspan y="-316" x="364.76">&#x25cf;</tspan></text>
<text fill="#ff0000" xml:space="preserve" transform="matrix(.32 0 -0 .32 -168.2572 159.66339)" font-size="3.74" font-family="ZapfDingbatsITC"><tspan y="-316" x="364.76">&#x25cf;</tspan></text>
<text fill="#ff0000" xml:space="preserve" transform="matrix(.32 0 -0 .32 -168.2572 159.66339)" font-size="3.74" font-family="ZapfDingbatsITC"><tspan y="-296.8" x="372.44">&#x25cf;</tspan></text>
<text fill="#ff0000" xml:space="preserve" transform="matrix(.32 0 -0 .32 -168.2572 159.66339)" font-size="3.74" font-family="ZapfDingbatsITC"><tspan y="-296.8" x="372.44">&#x25cf;</tspan></text>
<text fill="#ff0000" xml:space="preserve" transform="matrix(.32 0 -0 .32 -168.2572 159.66339)" font-size="3.74" font-family="ZapfDingbatsITC"><tspan y="-276.7" x="380.12">&#x25cf;</tspan></text>
<text fill="#ff0000" xml:space="preserve" transform="matrix(.32 0 -0 .32 -168.2572 159.66339)" font-size="3.74" font-family="ZapfDingbatsITC"><tspan y="-276.7" x="380.12">&#x25cf;</tspan></text>
<text fill="#ff0000" xml:space="preserve" transform="matrix(.32 0 -0 .32 -168.2572 159.66339)" font-size="3.74" font-family="ZapfDingbatsITC"><tspan y="-255.93" x="387.8">&#x25cf;</tspan></text>
<text fill="#ff0000" xml:space="preserve" transform="matrix(.32 0 -0 .32 -168.2572 159.66339)" font-size="3.74" font-family="ZapfDingbatsITC"><tspan y="-255.93" x="387.8">&#x25cf;</tspan></text>
<text fill="#ff0000" xml:space="preserve" transform="matrix(.32 0 -0 .32 -168.2572 159.66339)" font-size="3.74" font-family="ZapfDingbatsITC"><tspan y="-234.73" x="395.48">&#x25cf;</tspan></text>
<text fill="#ff0000" xml:space="preserve" transform="matrix(.32 0 -0 .32 -168.2572 159.66339)" font-size="3.74" font-family="ZapfDingbatsITC"><tspan y="-234.73" x="395.48">&#x25cf;</tspan></text>
<text fill="#ff0000" xml:space="preserve" transform="matrix(.32 0 -0 .32 -168.2572 159.66339)" font-size="3.74" font-family="ZapfDingbatsITC"><tspan y="-213.39" x="403.16">&#x25cf;</tspan></text>
<text fill="#ff0000" xml:space="preserve" transform="matrix(.32 0 -0 .32 -168.2572 159.66339)" font-size="3.74" font-family="ZapfDingbatsITC"><tspan y="-213.39" x="403.16">&#x25cf;</tspan></text>
<text fill="#ff0000" xml:space="preserve" transform="matrix(.32 0 -0 .32 -168.2572 159.66339)" font-size="3.74" font-family="ZapfDingbatsITC"><tspan y="-192.18" x="410.84">&#x25cf;</tspan></text>
<text fill="#ff0000" xml:space="preserve" transform="matrix(.32 0 -0 .32 -168.2572 159.66339)" font-size="3.74" font-family="ZapfDingbatsITC"><tspan y="-192.18" x="410.84">&#x25cf;</tspan></text>
<text fill="#ff0000" xml:space="preserve" transform="matrix(.32 0 -0 .32 -168.2572 159.66339)" font-size="3.74" font-family="ZapfDingbatsITC"><tspan y="-171.43" x="418.52">&#x25cf;</tspan></text>
<text fill="#ff0000" xml:space="preserve" transform="matrix(.32 0 -0 .32 -168.2572 159.66339)" font-size="3.74" font-family="ZapfDingbatsITC"><tspan y="-171.43" x="418.52">&#x25cf;</tspan></text>
<text fill="#ff0000" xml:space="preserve" transform="matrix(.32 0 -0 .32 -168.2572 159.66339)" font-size="3.74" font-family="ZapfDingbatsITC"><tspan y="-151.44" x="426.2">&#x25cf;</tspan></text>
<text fill="#ff0000" xml:space="preserve" transform="matrix(.32 0 -0 .32 -168.2572 159.66339)" font-size="3.74" font-family="ZapfDingbatsITC"><tspan y="-151.44" x="426.2">&#x25cf;</tspan></text>
<text fill="#ff0000" xml:space="preserve" transform="matrix(.32 0 -0 .32 -168.2572 159.66339)" font-size="3.74" font-family="ZapfDingbatsITC"><tspan y="-132.56" x="433.88">&#x25cf;</tspan></text>
<text fill="#ff0000" xml:space="preserve" transform="matrix(.32 0 -0 .32 -168.2572 159.66339)" font-size="3.74" font-family="ZapfDingbatsITC"><tspan y="-132.56" x="433.88">&#x25cf;</tspan></text>
<text fill="#ff0000" xml:space="preserve" transform="matrix(.32 0 -0 .32 -168.2572 159.66339)" font-size="3.74" font-family="ZapfDingbatsITC"><tspan y="-115.12" x="441.56">&#x25cf;</tspan></text>
<text fill="#ff0000" xml:space="preserve" transform="matrix(.32 0 -0 .32 -168.2572 159.66339)" font-size="3.74" font-family="ZapfDingbatsITC"><tspan y="-115.12" x="441.56">&#x25cf;</tspan></text>
<text fill="#ff0000" xml:space="preserve" transform="matrix(.32 0 -0 .32 -168.2572 159.66339)" font-size="3.74" font-family="ZapfDingbatsITC"><tspan y="-99.46" x="449.24">&#x25cf;</tspan></text>
<text fill="#ff0000" xml:space="preserve" transform="matrix(.32 0 -0 .32 -168.2572 159.66339)" font-size="3.74" font-family="ZapfDingbatsITC"><tspan y="-99.46" x="449.24">&#x25cf;</tspan></text>
<text fill="#ff0000" xml:space="preserve" transform="matrix(.32 0 -0 .32 -168.2572 159.66339)" font-size="3.74" font-family="ZapfDingbatsITC"><tspan y="-85.9" x="456.92">&#x25cf;</tspan></text>
<text fill="#ff0000" xml:space="preserve" transform="matrix(.32 0 -0 .32 -168.2572 159.66339)" font-size="3.74" font-family="ZapfDingbatsITC"><tspan y="-85.9" x="456.92">&#x25cf;</tspan></text>
<path transform="matrix(.32,0,0,-.32,-168.2572,159.66339)" stroke-width=".75" stroke-linecap="round" stroke-linejoin="round" fill="none" stroke="#00ff00" d="M59.04 304.6H473.76"/>
<text xml:space="preserve" transform="matrix(.32 0 -0 .32 -168.2572 159.66339)" font-size="12" font-family="Helvetica"><tspan y="-312.01" x="77.9 86.564 93.23601 96.57201 103.244 107.54001 114.212009 117.548007 120.884 124.880008 131.552 141.548 144.884 152.888 159.2 164.95999 171.63199 177.63199 180.96799 188.37198 195.04398 199.51998 202.85597 205.83197 212.50397 215.16797 217.83197">Return from Bayes Portfolio</tspan></text>
<path transform="matrix(.32,0,0,-.32,-168.2572,159.66339)" stroke-width=".75" stroke-linecap="round" stroke-dasharray="0,4" stroke-linejoin="round" fill="none" stroke="#d3d3d3" d="M74.4 73.44V444.96"/>
<path transform="matrix(.32,0,0,-.32,-168.2572,159.66339)" stroke-width=".75" stroke-linecap="round" stroke-dasharray="0,4" stroke-linejoin="round" fill="none" stroke="#d3d3d3" d="M151.2 73.44V444.96"/>
<path transform="matrix(.32,0,0,-.32,-168.2572,159.66339)" stroke-width=".75" stroke-linecap="round" stroke-dasharray="0,4" stroke-linejoin="round" fill="none" stroke="#d3d3d3" d="M228 73.44V444.96"/>
<path transform="matrix(.32,0,0,-.32,-168.2572,159.66339)" stroke-width=".75" stroke-linecap="round" stroke-dasharray="0,4" stroke-linejoin="round" fill="none" stroke="#d3d3d3" d="M304.8 73.44V444.96"/>
<path transform="matrix(.32,0,0,-.32,-168.2572,159.66339)" stroke-width=".75" stroke-linecap="round" stroke-dasharray="0,4" stroke-linejoin="round" fill="none" stroke="#d3d3d3" d="M381.6 73.44V444.96"/>
<path transform="matrix(.32,0,0,-.32,-168.2572,159.66339)" stroke-width=".75" stroke-linecap="round" stroke-dasharray="0,4" stroke-linejoin="round" fill="none" stroke="#d3d3d3" d="M458.4 73.44V444.96"/>
<path transform="matrix(.32,0,0,-.32,-168.2572,159.66339)" stroke-width=".75" stroke-linecap="round" stroke-dasharray="0,4" stroke-linejoin="round" fill="none" stroke="#d3d3d3" d="M59.04 94.58H473.76"/>
<path transform="matrix(.32,0,0,-.32,-168.2572,159.66339)" stroke-width=".75" stroke-linecap="round" stroke-dasharray="0,4" stroke-linejoin="round" fill="none" stroke="#d3d3d3" d="M59.04 158.52H473.76"/>
<path transform="matrix(.32,0,0,-.32,-168.2572,159.66339)" stroke-width=".75" stroke-linecap="round" stroke-dasharray="0,4" stroke-linejoin="round" fill="none" stroke="#d3d3d3" d="M59.04 222.45H473.76"/>
<path transform="matrix(.32,0,0,-.32,-168.2572,159.66339)" stroke-width=".75" stroke-linecap="round" stroke-dasharray="0,4" stroke-linejoin="round" fill="none" stroke="#d3d3d3" d="M59.04 286.39H473.76"/>
<path transform="matrix(.32,0,0,-.32,-168.2572,159.66339)" stroke-width=".75" stroke-linecap="round" stroke-dasharray="0,4" stroke-linejoin="round" fill="none" stroke="#d3d3d3" d="M59.04 350.32H473.76"/>
<path transform="matrix(.32,0,0,-.32,-168.2572,159.66339)" stroke-width=".75" stroke-linecap="round" stroke-dasharray="0,4" stroke-linejoin="round" fill="none" stroke="#d3d3d3" d="M59.04 414.26H473.76"/>
</g>
<g clip-path="url(#clip_5)">
<text xml:space="preserve" transform="matrix(1 0 -0 1 -204.1632 215.8814)" font-size="9.9626" font-family="URWPalladioL"><tspan y="-30.558" x="35.906 43.736604 49.724126 52.97193 55.871049 64.66802 69.64932 75.039089 80.020389 82.9195 85.81862 91.2582 95.681598 100.662899 103.910709 106.80982 112.249408">Optimalallocation</tspan></text>
<text xml:space="preserve" transform="matrix(1 0 -0 1 -204.1632 215.8814)" font-size="9.9626" font-family="PazoMath" font-style="italic"><tspan y="-30.558" x="120.662">w</tspan></text>
</g>
<g clip-path="url(#clip_6)">
<path transform="matrix(.32,0,0,-.32,-4.7931978,159.66339)" stroke-width=".75" stroke-linecap="round" stroke-linejoin="round" fill="none" stroke="#0000ff" d="M74.4 124.63 96.99 125.24 119.58 100.1 142.16 87.2 164.75 104.92 187.34 125.02 209.93 150.63 232.52 196.25 255.11 279.47 277.69 299.17 300.28 198.31 322.87 217.75 345.46 191.21 368.05 239.3 390.64 237.58 413.22 339.95 435.81 382.34 458.4 431.2"/>
</g>
<g clip-path="url(#clip_7)">
<path transform="matrix(.32,0,0,-.32,-4.7931978,159.66339)" stroke-width=".75" stroke-linecap="round" stroke-linejoin="round" fill="none" stroke="#000000" d="M164.75 73.44H390.64"/>
<path transform="matrix(.32,0,0,-.32,-4.7931978,159.66339)" stroke-width=".75" stroke-linecap="round" stroke-linejoin="round" fill="none" stroke="#000000" d="M164.75 73.44V66.24"/>
<path transform="matrix(.32,0,0,-.32,-4.7931978,159.66339)" stroke-width=".75" stroke-linecap="round" stroke-linejoin="round" fill="none" stroke="#000000" d="M277.69 73.44V66.24"/>
<path transform="matrix(.32,0,0,-.32,-4.7931978,159.66339)" stroke-width=".75" stroke-linecap="round" stroke-linejoin="round" fill="none" stroke="#000000" d="M390.64 73.44V66.24"/>
<text xml:space="preserve" transform="matrix(.32 0 -0 .32 -4.7931978 159.66339)" font-size="12" font-family="Helvetica"><tspan y="-47.52" x="161.42">5</tspan></text>
<text xml:space="preserve" transform="matrix(.32 0 -0 .32 -4.7931978 159.66339)" font-size="12" font-family="Helvetica"><tspan y="-47.52" x="271.02 277.692">10</tspan></text>
<text xml:space="preserve" transform="matrix(.32 0 -0 .32 -4.7931978 159.66339)" font-size="12" font-family="Helvetica"><tspan y="-47.52" x="383.96 390.632">15</tspan></text>
<path transform="matrix(.32,0,0,-.32,-4.7931978,159.66339)" stroke-width=".75" stroke-linecap="round" stroke-linejoin="round" fill="none" stroke="#000000" d="M59.04 127.34V366.4"/>
<path transform="matrix(.32,0,0,-.32,-4.7931978,159.66339)" stroke-width=".75" stroke-linecap="round" stroke-linejoin="round" fill="none" stroke="#000000" d="M59.04 127.34H51.84"/>
<path transform="matrix(.32,0,0,-.32,-4.7931978,159.66339)" stroke-width=".75" stroke-linecap="round" stroke-linejoin="round" fill="none" stroke="#000000" d="M59.04 207.03H51.84"/>
<path transform="matrix(.32,0,0,-.32,-4.7931978,159.66339)" stroke-width=".75" stroke-linecap="round" stroke-linejoin="round" fill="none" stroke="#000000" d="M59.04 286.72H51.84"/>
<path transform="matrix(.32,0,0,-.32,-4.7931978,159.66339)" stroke-width=".75" stroke-linecap="round" stroke-linejoin="round" fill="none" stroke="#000000" d="M59.04 366.4H51.84"/>
<text xml:space="preserve" transform="matrix(0 -.32 .32 0 -4.7931978 159.66339)" font-size="12" font-family="Helvetica"><tspan y="41.76" x="124">1</tspan></text>
<text xml:space="preserve" transform="matrix(0 -.32 .32 0 -4.7931978 159.66339)" font-size="12" font-family="Helvetica"><tspan y="41.76" x="203.69">2</tspan></text>
<text xml:space="preserve" transform="matrix(0 -.32 .32 0 -4.7931978 159.66339)" font-size="12" font-family="Helvetica"><tspan y="41.76" x="283.38">3</tspan></text>
<text xml:space="preserve" transform="matrix(0 -.32 .32 0 -4.7931978 159.66339)" font-size="12" font-family="Helvetica"><tspan y="41.76" x="363.07">4</tspan></text>
<path transform="matrix(.32,0,0,-.32,-4.7931978,159.66339)" stroke-width=".75" stroke-linecap="round" stroke-linejoin="round" fill="none" stroke="#000000" d="M59.04 73.44H473.76V444.96H59.04V73.44"/>
<text xml:space="preserve" transform="matrix(.32 0 -0 .32 -4.7931978 159.66339)" font-size="14" font-family="Helvetica" font-weight="bold"><tspan y="-469.45" x="126.57 136.678 145.232 149.124 156.90799 164.69199 169.92798 177.71198 185.49597 189.38797 193.27997 202.05797 210.61197 216.33797 220.99997 225.38198 233.93598 237.82798 241.71997 250.27397 258.05799 261.94999 272.84199 276.73399 281.39598 289.94996 293.84196 303.73997 311.31398 319.09797 327.65196 335.43595 343.21995 347.11195 354.89595 363.44993 372.0039 375.8959 386.0039 393.7879 398.4499">Universal Portfolios with Keynes and Rate</tspan></text>
<text xml:space="preserve" transform="matrix(.32 0 -0 .32 -4.7931978 159.66339)" font-size="12" font-family="Helvetica"><tspan y="-18.72" x="249.27 256.674 263.346 267.522 270.186 276.858">Period</tspan></text>
</g>
<g clip-path="url(#clip_8)">
<path transform="matrix(.32,0,0,-.32,-4.7931978,159.66339)" stroke-width=".75" stroke-linecap="round" stroke-linejoin="round" fill="none" stroke="#ff0000" d="M74.4 130.69 96.99 135.09 119.58 137.27 142.16 140.5 164.75 141.89 187.34 142.46 209.93 143.12 232.52 143.6 255.11 144.17 277.69 144.75 300.28 145.34 322.87 146.6 345.46 147.59 368.05 148.59 390.64 149.6 413.22 150.62 435.81 151.65 458.4 152.69"/>
<path transform="matrix(.32,0,0,-.32,-4.7931978,159.66339)" stroke-width=".75" stroke-linecap="round" stroke-linejoin="round" fill="none" stroke="#00ff00" d="M74.4 127.66 96.99 130.12 119.58 118.11 142.16 111.67 164.75 124.38 187.34 136.89 209.93 151.45 232.52 175.01 255.11 213.8 277.69 222.36 300.28 181.96 322.87 192.09 345.46 180.41 368.05 204.68 390.64 204.6 413.22 252.17 435.81 270.47 458.4 290.85"/>
<path transform="matrix(.32,0,0,-.32,-4.7931978,159.66339)" stroke-width=".75" stroke-linecap="round" stroke-linejoin="round" fill="none" stroke="#000000" d="M59.04 444.96H163.87V387.36H59.04Z"/>
<path transform="matrix(.32,0,0,-.32,-4.7931978,159.66339)" stroke-width=".75" stroke-linecap="round" stroke-linejoin="round" fill="none" stroke="#0000ff" d="M69.84 430.56H91.44"/>
<path transform="matrix(.32,0,0,-.32,-4.7931978,159.66339)" stroke-width=".75" stroke-linecap="round" stroke-linejoin="round" fill="none" stroke="#ff0000" d="M69.84 416.16H91.44"/>
<path transform="matrix(.32,0,0,-.32,-4.7931978,159.66339)" stroke-width=".75" stroke-linecap="round" stroke-linejoin="round" fill="none" stroke="#00ff00" d="M69.84 401.76H91.44"/>
<text xml:space="preserve" transform="matrix(.32 0 -0 .32 -4.7931978 159.66339)" font-size="12" font-family="Helvetica"><tspan y="-426.25" x="102.24 109.76399 116.19599 122.19599 128.868 135.54">Keynes</tspan></text>
<text xml:space="preserve" transform="matrix(.32 0 -0 .32 -4.7931978 159.66339)" font-size="12" font-family="Helvetica"><tspan y="-411.85" x="102.24 110.904 117.576007 120.912">Rate</tspan></text>
<text xml:space="preserve" transform="matrix(.32 0 -0 .32 -4.7931978 159.66339)" font-size="12" font-family="Helvetica"><tspan y="-397.45" x="102.24 106.5 113.172 119.843997 122.507999 128.208 134.87999 138.87599 144.87599 151.54799 154.21199">"universal"</tspan></text>
<path transform="matrix(.32,0,0,-.32,-4.7931978,159.66339)" stroke-width=".75" stroke-linecap="round" stroke-dasharray="0,4" stroke-linejoin="round" fill="none" stroke="#d3d3d3" d="M164.75 73.44V444.96"/>
<path transform="matrix(.32,0,0,-.32,-4.7931978,159.66339)" stroke-width=".75" stroke-linecap="round" stroke-dasharray="0,4" stroke-linejoin="round" fill="none" stroke="#d3d3d3" d="M277.69 73.44V444.96"/>
<path transform="matrix(.32,0,0,-.32,-4.7931978,159.66339)" stroke-width=".75" stroke-linecap="round" stroke-dasharray="0,4" stroke-linejoin="round" fill="none" stroke="#d3d3d3" d="M390.64 73.44V444.96"/>
<path transform="matrix(.32,0,0,-.32,-4.7931978,159.66339)" stroke-width=".75" stroke-linecap="round" stroke-dasharray="0,4" stroke-linejoin="round" fill="none" stroke="#d3d3d3" d="M59.04 127.34H473.76"/>
<path transform="matrix(.32,0,0,-.32,-4.7931978,159.66339)" stroke-width=".75" stroke-linecap="round" stroke-dasharray="0,4" stroke-linejoin="round" fill="none" stroke="#d3d3d3" d="M59.04 207.03H473.76"/>
<path transform="matrix(.32,0,0,-.32,-4.7931978,159.66339)" stroke-width=".75" stroke-linecap="round" stroke-dasharray="0,4" stroke-linejoin="round" fill="none" stroke="#d3d3d3" d="M59.04 286.72H473.76"/>
<path transform="matrix(.32,0,0,-.32,-4.7931978,159.66339)" stroke-width=".75" stroke-linecap="round" stroke-dasharray="0,4" stroke-linejoin="round" fill="none" stroke="#d3d3d3" d="M59.04 366.4H473.76"/>
</g>
<g clip-path="url(#clip_9)">
<text xml:space="preserve" transform="matrix(1 0 -0 1 -204.1632 215.8814)" font-size="9.9626" font-family="URWPalladioL"><tspan y="-30.558" x="199.37 206.60285 211.37493 216.91413 222.71236 227.48444 234.19922 239.8281 246.54288 254.29378 260.092 262.99113 268.62 273.3921 277.32734 281.55149 286.53279 291.92256 297.55143 304.26625 311.3297 316.311 320.53517">KeynesvsUniversalvsCash</tspan></text>
</g>
</g>
</svg>
