<svg xmlns="http://www.w3.org/2000/svg" xmlns:xlink="http://www.w3.org/1999/xlink" version="1.1" width="360pt" height="223pt" viewBox="0 0 360 223">
<g>
<path stroke-width="2" stroke-linecap="square" stroke-miterlimit="3.25" stroke-linejoin="miter" fill="none" stroke="#5e81b5" d="M16.035 209.383 16.133 208.223 16.227 207.074 16.418 204.82 16.805 200.473 17.574 192.355 17.668 191.391 17.766 190.438 17.957 188.562 18.344 184.934 19.109 178.121 19.207 177.309 19.305 176.504 19.496 174.918 19.879 171.844 20.648 166.043 22.188 155.664 22.293 155.016 22.395 154.371 22.605 153.098 23.02 150.629 23.855 145.949 23.957 145.387 24.062 144.828 24.27 143.73 24.688 141.59 25.523 137.52 25.625 137.031 25.73 136.543 25.938 135.582 26.355 133.711 27.188 130.137 28.855 123.621 28.953 123.262 29.051 122.906 29.246 122.207 29.637 120.832 30.414 118.188 31.969 113.289 32.066 112.996 32.164 112.707 32.359 112.137 32.75 111.016 33.527 108.848 35.086 104.809 35.18 104.57 35.273 104.336 35.465 103.871 35.848 102.957 36.609 101.184 38.137 97.852 38.234 97.652 38.328 97.453 38.52 97.059 38.902 96.285 39.664 94.777 41.191 91.934 41.293 91.75 41.398 91.562 41.605 91.199 42.02 90.48 42.848 89.082 44.5 86.441 44.605 86.281 44.707 86.125 44.914 85.812 45.328 85.195 46.156 83.992 47.812 81.715 48.008 81.457 48.199 81.203 48.586 80.703 49.359 79.727 50.902 77.859 51 77.75 51.098 77.637 51.289 77.414 51.676 76.969 52.449 76.105 53.992 74.453 54.203 74.234 54.414 74.02 54.832 73.594 55.668 72.766 57.344 71.176 60.691 68.262 60.797 68.18 60.898 68.094 61.105 67.926 61.516 67.598 62.336 66.949 63.98 65.699 67.27 63.391 67.363 63.328 67.461 63.262 67.652 63.137 68.035 62.883 68.801 62.391 70.336 61.434 73.402 59.637 80.055 56.219 86.266 53.508 92.352 51.203 98.957 49.027 105.121 47.242 111.801 45.531 118.359 44.039 124.477 42.789 131.109 41.566 137.305 40.531 144.012 39.512 150.602 38.602 156.746 37.816 163.41 37.035 169.629 36.363 175.727 35.746 182.344 35.129 188.52 34.586 195.211 34.043 201.781 33.543 207.906 33.102 214.551 32.656 220.754 32.262 226.836 31.898 233.434 31.523 239.59 31.195 246.266 30.855 252.496 30.555 258.605 30.273 265.234 29.984 271.418 29.727 278.121 29.461 284.703 29.211 290.84 28.988 297.496 28.758 303.711 28.551 309.805 28.355 316.414 28.156 322.578 27.973H322.688L322.793 27.969 323.012 27.961 324.301 27.926 326.023 27.875 326.129 27.871H326.238L326.453 27.863 327.742 27.828 327.852 27.824 327.957 27.82 328.172 27.816 328.605 27.805 328.711 27.801 328.82 27.797 329.035 27.793 329.141 27.789 329.25 27.785 329.355 27.781H329.465"/>
<path stroke-width=".5" stroke-linecap="butt" stroke-miterlimit="3.25" stroke-linejoin="miter" fill="none" stroke="#000000" d="M16.035 209.383V205.527"/>
<path stroke-width=".5" stroke-linecap="butt" stroke-miterlimit="3.25" stroke-linejoin="miter" fill="none" stroke="#000000" d="M31.707 209.383V207.07"/>
<path stroke-width=".5" stroke-linecap="butt" stroke-miterlimit="3.25" stroke-linejoin="miter" fill="none" stroke="#000000" d="M47.379 209.383V207.07"/>
<path stroke-width=".5" stroke-linecap="butt" stroke-miterlimit="3.25" stroke-linejoin="miter" fill="none" stroke="#000000" d="M63.051 209.383V207.07"/>
<path stroke-width=".5" stroke-linecap="butt" stroke-miterlimit="3.25" stroke-linejoin="miter" fill="none" stroke="#000000" d="M78.723 209.383V207.07"/>
<path stroke-width=".5" stroke-linecap="butt" stroke-miterlimit="3.25" stroke-linejoin="miter" fill="none" stroke="#000000" d="M94.391 209.383V205.527"/>
<text xml:space="preserve" transform="matrix(1 0 0 1 0 0)" font-size="9" font-family="CairoFont-0"><tspan y="220.52346" x="83.13011 88.13411 90.627109 95.6311 100.6351">0.005</tspan></text>
<path stroke-width=".5" stroke-linecap="butt" stroke-miterlimit="3.25" stroke-linejoin="miter" fill="none" stroke="#000000" d="M110.062 209.383V207.07"/>
<path stroke-width=".5" stroke-linecap="butt" stroke-miterlimit="3.25" stroke-linejoin="miter" fill="none" stroke="#000000" d="M125.734 209.383V207.07"/>
<path stroke-width=".5" stroke-linecap="butt" stroke-miterlimit="3.25" stroke-linejoin="miter" fill="none" stroke="#000000" d="M141.406 209.383V207.07"/>
<path stroke-width=".5" stroke-linecap="butt" stroke-miterlimit="3.25" stroke-linejoin="miter" fill="none" stroke="#000000" d="M157.078 209.383V207.07"/>
<path stroke-width=".5" stroke-linecap="butt" stroke-miterlimit="3.25" stroke-linejoin="miter" fill="none" stroke="#000000" d="M172.75 209.383V205.527"/>
<text xml:space="preserve" transform="matrix(1 0 0 1 0 0)" font-size="9" font-family="CairoFont-0"><tspan y="220.52346" x="161.48746 166.49146 168.98445 173.98845 178.99245">0.010</tspan></text>
<path stroke-width=".5" stroke-linecap="butt" stroke-miterlimit="3.25" stroke-linejoin="miter" fill="none" stroke="#000000" d="M188.422 209.383V207.07"/>
<path stroke-width=".5" stroke-linecap="butt" stroke-miterlimit="3.25" stroke-linejoin="miter" fill="none" stroke="#000000" d="M204.094 209.383V207.07"/>
<path stroke-width=".5" stroke-linecap="butt" stroke-miterlimit="3.25" stroke-linejoin="miter" fill="none" stroke="#000000" d="M219.766 209.383V207.07"/>
<path stroke-width=".5" stroke-linecap="butt" stroke-miterlimit="3.25" stroke-linejoin="miter" fill="none" stroke="#000000" d="M235.434 209.383V207.07"/>
<path stroke-width=".5" stroke-linecap="butt" stroke-miterlimit="3.25" stroke-linejoin="miter" fill="none" stroke="#000000" d="M251.105 209.383V205.527"/>
<text xml:space="preserve" transform="matrix(1 0 0 1 0 0)" font-size="9" font-family="CairoFont-0"><tspan y="220.52346" x="239.8448 244.8488 247.3418 252.3458 257.3498">0.015</tspan></text>
<path stroke-width=".5" stroke-linecap="butt" stroke-miterlimit="3.25" stroke-linejoin="miter" fill="none" stroke="#000000" d="M266.777 209.383V207.07"/>
<path stroke-width=".5" stroke-linecap="butt" stroke-miterlimit="3.25" stroke-linejoin="miter" fill="none" stroke="#000000" d="M282.449 209.383V207.07"/>
<path stroke-width=".5" stroke-linecap="butt" stroke-miterlimit="3.25" stroke-linejoin="miter" fill="none" stroke="#000000" d="M298.121 209.383V207.07"/>
<path stroke-width=".5" stroke-linecap="butt" stroke-miterlimit="3.25" stroke-linejoin="miter" fill="none" stroke="#000000" d="M313.793 209.383V207.07"/>
<path stroke-width=".5" stroke-linecap="butt" stroke-miterlimit="3.25" stroke-linejoin="miter" fill="none" stroke="#000000" d="M329.465 209.383V205.527"/>
<text xml:space="preserve" transform="matrix(1 0 0 1 0 0)" font-size="9" font-family="CairoFont-0"><tspan y="220.52346" x="318.20216 323.20616 325.69917 330.70317 335.70716">0.020</tspan></text>
<path stroke-width=".5" stroke-linecap="butt" stroke-miterlimit="3.25" stroke-linejoin="miter" fill="none" stroke="#000000" d="M9.504 209.383H335.992"/>
<text xml:space="preserve" transform="matrix(1 0 0 1 0 0)" font-size="9" font-family="CairoFont-0"><tspan y="212.50002" x="343.99415">p</tspan></text>
<text xml:space="preserve" transform="matrix(1 0 0 1 0 0)" font-size="9" font-family="CairoFont-1"><tspan y="212.50002" x="348.99815">(</tspan></text>
<text xml:space="preserve" transform="matrix(1 0 0 1 0 0)" font-size="9" font-family="CairoFont-0"><tspan y="212.50002" x="351.99516">b</tspan></text>
<text xml:space="preserve" transform="matrix(1 0 0 1 0 0)" font-size="9" font-family="CairoFont-1"><tspan y="212.50002" x="356.99916">)</tspan></text>
<path stroke-width=".5" stroke-linecap="butt" stroke-miterlimit="3.25" stroke-linejoin="miter" fill="none" stroke="#000000" d="M16.035 218.906H18.348"/>
<path stroke-width=".5" stroke-linecap="butt" stroke-miterlimit="3.25" stroke-linejoin="miter" fill="none" stroke="#000000" d="M16.035 209.383H19.891"/>
<path stroke-width=".5" stroke-linecap="butt" stroke-miterlimit="3.25" stroke-linejoin="miter" fill="none" stroke="#000000" d="M16.035 199.859H18.348"/>
<path stroke-width=".5" stroke-linecap="butt" stroke-miterlimit="3.25" stroke-linejoin="miter" fill="none" stroke="#000000" d="M16.035 190.332H18.348"/>
<path stroke-width=".5" stroke-linecap="butt" stroke-miterlimit="3.25" stroke-linejoin="miter" fill="none" stroke="#000000" d="M16.035 180.809H18.348"/>
<path stroke-width=".5" stroke-linecap="butt" stroke-miterlimit="3.25" stroke-linejoin="miter" fill="none" stroke="#000000" d="M16.035 171.281H19.891"/>
<text xml:space="preserve" transform="matrix(1 0 0 1 0 0)" font-size="9" font-family="CairoFont-0"><tspan y="174.39968" x=".522274 5.5262749 8.019275">0.2</tspan></text>
<path stroke-width=".5" stroke-linecap="butt" stroke-miterlimit="3.25" stroke-linejoin="miter" fill="none" stroke="#000000" d="M16.035 161.758H18.348"/>
<path stroke-width=".5" stroke-linecap="butt" stroke-miterlimit="3.25" stroke-linejoin="miter" fill="none" stroke="#000000" d="M16.035 152.23H18.348"/>
<path stroke-width=".5" stroke-linecap="butt" stroke-miterlimit="3.25" stroke-linejoin="miter" fill="none" stroke="#000000" d="M16.035 142.707H18.348"/>
<path stroke-width=".5" stroke-linecap="butt" stroke-miterlimit="3.25" stroke-linejoin="miter" fill="none" stroke="#000000" d="M16.035 133.184H19.891"/>
<text xml:space="preserve" transform="matrix(1 0 0 1 0 0)" font-size="9" font-family="CairoFont-0"><tspan y="136.29933" x=".522274 5.5262749 8.019275">0.4</tspan></text>
<path stroke-width=".5" stroke-linecap="butt" stroke-miterlimit="3.25" stroke-linejoin="miter" fill="none" stroke="#000000" d="M16.035 123.656H18.348"/>
<path stroke-width=".5" stroke-linecap="butt" stroke-miterlimit="3.25" stroke-linejoin="miter" fill="none" stroke="#000000" d="M16.035 114.133H18.348"/>
<path stroke-width=".5" stroke-linecap="butt" stroke-miterlimit="3.25" stroke-linejoin="miter" fill="none" stroke="#000000" d="M16.035 104.605H18.348"/>
<path stroke-width=".5" stroke-linecap="butt" stroke-miterlimit="3.25" stroke-linejoin="miter" fill="none" stroke="#000000" d="M16.035 95.082H19.891"/>
<text xml:space="preserve" transform="matrix(1 0 0 1 0 0)" font-size="9" font-family="CairoFont-0"><tspan y="98.199" x=".522274 5.5262749 8.019275">0.6</tspan></text>
<path stroke-width=".5" stroke-linecap="butt" stroke-miterlimit="3.25" stroke-linejoin="miter" fill="none" stroke="#000000" d="M16.035 85.559H18.348"/>
<path stroke-width=".5" stroke-linecap="butt" stroke-miterlimit="3.25" stroke-linejoin="miter" fill="none" stroke="#000000" d="M16.035 76.031H18.348"/>
<path stroke-width=".5" stroke-linecap="butt" stroke-miterlimit="3.25" stroke-linejoin="miter" fill="none" stroke="#000000" d="M16.035 66.508H18.348"/>
<path stroke-width=".5" stroke-linecap="butt" stroke-miterlimit="3.25" stroke-linejoin="miter" fill="none" stroke="#000000" d="M16.035 56.98H19.891"/>
<text xml:space="preserve" transform="matrix(1 0 0 1 0 0)" font-size="9" font-family="CairoFont-0"><tspan y="60.09866" x=".522274 5.5262749 8.019275">0.8</tspan></text>
<path stroke-width=".5" stroke-linecap="butt" stroke-miterlimit="3.25" stroke-linejoin="miter" fill="none" stroke="#000000" d="M16.035 47.457H18.348"/>
<path stroke-width=".5" stroke-linecap="butt" stroke-miterlimit="3.25" stroke-linejoin="miter" fill="none" stroke="#000000" d="M16.035 37.93H18.348"/>
<path stroke-width=".5" stroke-linecap="butt" stroke-miterlimit="3.25" stroke-linejoin="miter" fill="none" stroke="#000000" d="M16.035 28.406H18.348"/>
<path stroke-width=".5" stroke-linecap="butt" stroke-miterlimit="3.25" stroke-linejoin="miter" fill="none" stroke="#000000" d="M16.035 18.883H19.891"/>
<text xml:space="preserve" transform="matrix(1 0 0 1 0 0)" font-size="9" font-family="CairoFont-0"><tspan y="21.998322" x=".522274 5.5262749 8.019275">1.0</tspan></text>
<path stroke-width=".5" stroke-linecap="butt" stroke-miterlimit="3.25" stroke-linejoin="miter" fill="none" stroke="#000000" d="M16.035 219.473V17.691"/>
<text xml:space="preserve" transform="matrix(1 0 0 1 0 0)" font-size="9" font-family="CairoFont-2"><tspan y="8.140625" x="0">p</tspan></text>
<text xml:space="preserve" transform="matrix(1 0 0 1 0 0)" font-size="9" font-family="CairoFont-1"><tspan y="8.140625" x="6.660001">(</tspan></text>
<text xml:space="preserve" transform="matrix(1 0 0 1 0 0)" font-size="9" font-family="CairoFont-2"><tspan y="8.140625" x="9.657001">a</tspan></text>
<path d="M19.867 4.59V1.496H19.055V11.191H19.867ZM19.867 4.59" fill-rule="evenodd"/>
<text xml:space="preserve" transform="matrix(1 0 0 1 0 0)" font-size="9" font-family="CairoFont-2"><tspan y="8.140625" x="24.067009">b</tspan></text>
<text xml:space="preserve" transform="matrix(1 0 0 1 0 0)" font-size="9" font-family="CairoFont-1"><tspan y="8.140625" x="29.07101">)</tspan></text>
</g>
</svg>
