<svg xmlns="http://www.w3.org/2000/svg" xmlns:xlink="http://www.w3.org/1999/xlink" version="1.1" width="412pt" height="73pt" viewBox="0 0 412 73">
<defs>
<clipPath id="clip_0">
<path transform="matrix(1,0,0,-1,0,73)" d="M0 0H412V73H0Z"/>
</clipPath>
</defs>
<g clip-path="url(#clip_0)">
<path transform="matrix(1,0,0,-1,0,73)" d="M0 73H412V0H0Z" fill="#ffffff"/>
</g>
<path transform="matrix(1,0,0,-1,0,73)" d="M33.27166 64.63384C35.9201 62.03813 37.987 58.47856 39.47235 53.95513 40.9577 49.43169 41.70037 44.13774 41.70037 38.07329 41.70037 31.96197 40.9577 26.64458 39.47235 22.12114 37.987 17.59771 35.9201 14.03814 33.27166 11.44243L32.70916 12.06646C35.08221 14.72075 36.87518 18.28618 38.08807 22.76275 39.30096 27.23931 39.90741 32.33697 39.90741 38.05572 39.90741 43.74516 39.30096 48.82964 38.08807 53.30913 36.87518 57.78862 35.08221 61.35552 32.70916 64.00982ZM11.97283 64.63384 12.53534 64.00982C10.16229 61.35552 8.36932 57.78862 7.156429 53.30913 5.943539 48.82964 5.337093 43.74516 5.337093 38.05572 5.337093 32.33697 5.943539 27.23931 7.156429 22.76275 8.36932 18.28618 10.16229 14.72075 12.53534 12.06646L11.97283 11.44243C9.324398 14.03814 7.257503 17.59771 5.772152 22.12114 4.2868 26.64458 3.544124 31.96197 3.544124 38.07329 3.544124 44.13774 4.2868 49.43169 5.772152 53.95513 7.257503 58.47856 9.324398 62.03813 11.97283 64.63384Z" fill-rule="evenodd"/>
<text xml:space="preserve" transform="matrix(1 0 -0 1 14.13787 91)" font-size="18" font-family="CambriaMath"><tspan y="-73" x="0">&#x1d703;</tspan></text>
<text xml:space="preserve" transform="matrix(1 0 -0 1 23.13787 95)" font-size="13" font-family="CambriaMath"><tspan y="-73" x="0">"</tspan></text>
<text xml:space="preserve" transform="matrix(1 0 -0 1 20.13787 112)" font-size="18" font-family="CambriaMath"><tspan y="-73" x="0">&#x22ee;</tspan></text>
<text xml:space="preserve" transform="matrix(1 0 -0 1 13.13787 133)" font-size="18" font-family="CambriaMath"><tspan y="-73" x="0">&#x1d703;</tspan></text>
<text xml:space="preserve" transform="matrix(1 0 -0 1 22.13787 137)" font-size="13" font-family="CambriaMath"><tspan y="-73" x="0">$</tspan></text>
<path transform="matrix(1,0,0,-1,0,73)" d="M221.2372 64.63384C223.8856 62.03813 225.9525 58.47856 227.4379 53.95513 228.9232 49.43169 229.6659 44.13774 229.6659 38.07329 229.6659 31.96197 228.9232 26.64458 227.4379 22.12114 225.9525 17.59771 223.8856 14.03814 221.2372 11.44243L220.6747 12.06646C223.0477 14.72075 224.8407 18.28618 226.0536 22.76275 227.2665 27.23931 227.8729 32.33697 227.8729 38.05572 227.8729 43.74516 227.2665 48.82964 226.0536 53.30913 224.8407 57.78862 223.0477 61.35552 220.6747 64.00982ZM196.9383 64.63384 197.5008 64.00982C195.1278 61.35552 193.3348 57.78862 192.1219 53.30913 190.909 48.82964 190.3026 43.74516 190.3026 38.05572 190.3026 32.33697 190.909 27.23931 192.1219 22.76275 193.3348 18.28618 195.1278 14.72075 197.5008 12.06646L196.9383 11.44243C194.2899 14.03814 192.223 17.59771 190.7377 22.12114 189.2523 26.64458 188.5096 31.96197 188.5096 38.07329 188.5096 44.13774 189.2523 49.43169 190.7377 53.95513 192.223 58.47856 194.2899 62.03813 196.9383 64.63384Z" fill-rule="evenodd"/>
<text xml:space="preserve" transform="matrix(1 0 -0 1 199.1034 91)" font-size="18" font-family="CambriaMath"><tspan y="-73" x="0">&#x1d713;</tspan></text>
<text xml:space="preserve" transform="matrix(1 0 -0 1 211.1034 95)" font-size="13" font-family="CambriaMath"><tspan y="-73" x="0">"</tspan></text>
<text xml:space="preserve" transform="matrix(1 0 -0 1 206.1034 112)" font-size="18" font-family="CambriaMath"><tspan y="-73" x="0">&#x22ee;</tspan></text>
<text xml:space="preserve" transform="matrix(1 0 -0 1 198.1034 133)" font-size="18" font-family="CambriaMath"><tspan y="-73" x="0">&#x1d713;</tspan></text>
<text xml:space="preserve" transform="matrix(1 0 -0 1 210.1034 137)" font-size="13" font-family="CambriaMath"><tspan y="-73" x="0">&#x0026;</tspan></text>
<text xml:space="preserve" transform="matrix(1 0 -0 1 85.51717 114)" font-size="18" font-family="CambriaMath"><tspan y="-73" x="0">&#x1d713;</tspan></text>
<path transform="matrix(1,0,0,-1,0,73)" d="M116.0885 45.72712C117.7994 45.27595 119.1134 44.30183 120.0303 42.80476 120.9473 41.30769 121.4058 39.50154 121.4058 37.3863 121.4058 35.26521 120.9488 33.45906 120.0347 31.96785 119.1207 30.47664 117.8053 29.50545 116.0885 29.05427L115.8775 29.73103C117.231 30.1822 118.2374 31.07283 118.8966 32.40291 119.5557 33.73298 119.8853 35.42341 119.8853 37.4742 119.8853 39.45466 119.5572 41.09968 118.901 42.40925 118.2447 43.71882 117.2281 44.5992 115.8512 45.05037ZM105.4166 45.72712 105.6539 45.05037C104.2828 44.5992 103.2677 43.71882 102.6085 42.40925 101.9493 41.09968 101.6197 39.45466 101.6197 37.4742 101.6197 35.42341 101.9493 33.73298 102.6085 32.40291 103.2677 31.07283 104.274 30.1822 105.6275 29.73103L105.4166 29.05427C103.6998 29.50545 102.3844 30.47664 101.4703 31.96785 100.5562 33.45906 100.0992 35.26521 100.0992 37.3863 100.0992 39.50154 100.5577 41.30769 101.4747 42.80476 102.3917 44.30183 103.7056 45.27595 105.4166 45.72712Z" fill-rule="evenodd"/>
<text xml:space="preserve" transform="matrix(1 0 -0 1 105.5172 114)" font-size="18" font-family="CambriaMath"><tspan y="-73" x="0">&#x03b8;</tspan></text>
<text xml:space="preserve" transform="matrix(1 0 -0 1 280.8131 114)" font-size="18" font-family="CambriaMath"><tspan y="-73" x="0">&#x1d439;</tspan></text>
<path transform="matrix(1,0,0,-1,0,73)" d="M313.3844 45.72712C315.0954 45.27595 316.4093 44.30183 317.3263 42.80476 318.2433 41.30769 318.7018 39.50154 318.7018 37.3863 318.7018 35.26521 318.2448 33.45906 317.3307 31.96785 316.4167 30.47664 315.1012 29.50545 313.3844 29.05427L313.1735 29.73103C314.527 30.1822 315.5334 31.07283 316.1925 32.40291 316.8517 33.73298 317.1813 35.42341 317.1813 37.4742 317.1813 39.45466 316.8532 41.09968 316.1969 42.40925 315.5407 43.71882 314.5241 44.5992 313.1471 45.05037ZM299.7126 45.72712 299.9499 45.05037C298.5788 44.5992 297.5636 43.71882 296.9044 42.40925 296.2453 41.09968 295.9157 39.45466 295.9157 37.4742 295.9157 35.42341 296.2453 33.73298 296.9044 32.40291 297.5636 31.07283 298.57 30.1822 299.9235 29.73103L299.7126 29.05427C297.9958 29.50545 296.6803 30.47664 295.7663 31.96785 294.8522 33.45906 294.3952 35.26521 294.3952 37.3863 294.3952 39.50154 294.8537 41.30769 295.7707 42.80476 296.6877 44.30183 298.0016 45.27595 299.7126 45.72712Z" fill-rule="evenodd"/>
<text xml:space="preserve" transform="matrix(1 0 -0 1 299.8131 114)" font-size="18" font-family="CambriaMath"><tspan y="-73" x="0">&#x1d713;</tspan></text>
<text xml:space="preserve" transform="matrix(1 0 -0 1 367.6464 114)" font-size="18" font-family="CambriaMath"><tspan y="-73" x="0">&#x1d43f;</tspan></text>
<text xml:space="preserve" transform="matrix(1 0 -0 1 377.6464 114)" font-size="18" font-family="CambriaMath"><tspan y="-73" x="0">(</tspan></text>
<text xml:space="preserve" transform="matrix(1 0 -0 1 385.6464 114)" font-size="18" font-family="CambriaMath"><tspan y="-73" x="0">&#x1d703;</tspan></text>
<text xml:space="preserve" transform="matrix(1 0 -0 1 395.6464 114)" font-size="18" font-family="CambriaMath"><tspan y="-73" x="0">)</tspan></text>
<path transform="matrix(1,0,0,-1,0,73)" d="M46.5 37.99992 79.34898 37.99999V38.99999L46.5 38.99992ZM78.34898 35.49999 84.34898 38.5 78.34897 41.49999Z" fill="#4472c4"/>
<path transform="matrix(1,0,0,-1,0,73)" d="M126.5052 38.99997 183.5428 38.40663 183.5324 37.40668 126.4948 38.00003ZM182.5689 40.9169 188.5373 37.85465 182.5064 34.91722Z" fill="#4472c4"/>
<path transform="matrix(1,0,0,-1,0,73)" d="M233.5 37.99992 274.2913 37.99999V38.99999L233.5 38.99992ZM273.2913 35.49999 279.2913 38.5 273.2913 41.49999Z" fill="#4472c4"/>
<path transform="matrix(1,0,0,-1,0,73)" d="M323.5 37.99992 361.2469 37.99999V38.99999L323.5 38.99992ZM360.2469 35.49999 366.2469 38.5 360.2468 41.49999Z" fill="#4472c4"/>
<text xml:space="preserve" transform="matrix(1 0 -0 1 260.9444 92)" font-size="14" font-family="Calibri"><tspan y="-73" x="0 7.9996006 13.997201 17.992802 23.990403 30.996005 35.999608 41.00321 48.00881 55.01441 62.020009 67.02361">DL Surrogate</tspan></text>
<text xml:space="preserve" transform="matrix(1 0 -0 1 66.8437 91)" font-size="14" font-family="Calibri"><tspan y="-73" x="0 7.9996006 13.997201 17.992802 24.998402 30.002003 37.007604 40.0092 47.0148 53.0124 58.016004 61.0176 68.0232">DL Projection</tspan></text>
</svg>
