<svg xmlns="http://www.w3.org/2000/svg" xmlns:xlink="http://www.w3.org/1999/xlink" version="1.1" width="412pt" height="71pt" viewBox="0 0 412 71">
<defs>
<clipPath id="clip_0">
<path transform="matrix(1,0,0,-1,0,71)" d="M0 0H412V71H0Z"/>
</clipPath>
</defs>
<g clip-path="url(#clip_0)">
<path transform="matrix(1,0,0,-1,0,71)" d="M0 71H412V0H0Z" fill="#ffffff"/>
</g>
<path transform="matrix(1,0,0,-1,0,71)" d="M33.27166 64.3084C35.9201 61.7127 37.987 58.15313 39.47235 53.6297 40.9577 49.10626 41.70037 43.81231 41.70037 37.74786 41.70037 31.63653 40.9577 26.31915 39.47235 21.79571 37.987 17.27227 35.9201 13.7127 33.27166 11.117L32.70916 11.74102C35.08221 14.39532 36.87518 17.96075 38.08807 22.43731 39.30096 26.91388 39.90741 32.01153 39.90741 37.73028 39.90741 43.41973 39.30096 48.5042 38.08807 52.9837 36.87518 57.46319 35.08221 61.03008 32.70916 63.68438ZM11.97283 64.3084 12.53534 63.68438C10.16229 61.03008 8.36932 57.46319 7.156429 52.9837 5.943539 48.5042 5.337093 43.41973 5.337093 37.73028 5.337093 32.01153 5.943539 26.91388 7.156429 22.43731 8.36932 17.96075 10.16229 14.39532 12.53534 11.74102L11.97283 11.117C9.324398 13.7127 7.257503 17.27227 5.772152 21.79571 4.2868 26.31915 3.544124 31.63653 3.544124 37.74786 3.544124 43.81231 4.2868 49.10626 5.772152 53.6297 7.257503 58.15313 9.324398 61.7127 11.97283 64.3084Z" fill-rule="evenodd"/>
<text xml:space="preserve" transform="matrix(1 0 -0 1 14.13787 87)" font-size="18" font-family="CambriaMath"><tspan y="-71" x="0">&#x1d703;</tspan></text>
<text xml:space="preserve" transform="matrix(1 0 -0 1 23.13787 91)" font-size="13" font-family="CambriaMath"><tspan y="-71" x="0">"</tspan></text>
<text xml:space="preserve" transform="matrix(1 0 -0 1 20.13787 108)" font-size="18" font-family="CambriaMath"><tspan y="-71" x="0">&#x22ee;</tspan></text>
<text xml:space="preserve" transform="matrix(1 0 -0 1 13.13787 129)" font-size="18" font-family="CambriaMath"><tspan y="-71" x="0">&#x1d703;</tspan></text>
<text xml:space="preserve" transform="matrix(1 0 -0 1 22.13787 133)" font-size="13" font-family="CambriaMath"><tspan y="-71" x="0">$</tspan></text>
<path transform="matrix(1,0,0,-1,0,71)" d="M221.2372 64.3084C223.8856 61.7127 225.9525 58.15313 227.4379 53.6297 228.9232 49.10626 229.6659 43.81231 229.6659 37.74786 229.6659 31.63653 228.9232 26.31915 227.4379 21.79571 225.9525 17.27227 223.8856 13.7127 221.2372 11.117L220.6747 11.74102C223.0477 14.39532 224.8407 17.96075 226.0536 22.43731 227.2665 26.91388 227.8729 32.01153 227.8729 37.73028 227.8729 43.41973 227.2665 48.5042 226.0536 52.9837 224.8407 57.46319 223.0477 61.03008 220.6747 63.68438ZM196.9383 64.3084 197.5008 63.68438C195.1278 61.03008 193.3348 57.46319 192.1219 52.9837 190.909 48.5042 190.3026 43.41973 190.3026 37.73028 190.3026 32.01153 190.909 26.91388 192.1219 22.43731 193.3348 17.96075 195.1278 14.39532 197.5008 11.74102L196.9383 11.117C194.2899 13.7127 192.223 17.27227 190.7377 21.79571 189.2523 26.31915 188.5096 31.63653 188.5096 37.74786 188.5096 43.81231 189.2523 49.10626 190.7377 53.6297 192.223 58.15313 194.2899 61.7127 196.9383 64.3084Z" fill-rule="evenodd"/>
<text xml:space="preserve" transform="matrix(1 0 -0 1 199.1034 87)" font-size="18" font-family="CambriaMath"><tspan y="-71" x="0">&#x1d713;</tspan></text>
<text xml:space="preserve" transform="matrix(1 0 -0 1 211.1034 91)" font-size="13" font-family="CambriaMath"><tspan y="-71" x="0">"</tspan></text>
<text xml:space="preserve" transform="matrix(1 0 -0 1 206.1034 108)" font-size="18" font-family="CambriaMath"><tspan y="-71" x="0">&#x22ee;</tspan></text>
<text xml:space="preserve" transform="matrix(1 0 -0 1 198.1034 129)" font-size="18" font-family="CambriaMath"><tspan y="-71" x="0">&#x1d713;</tspan></text>
<text xml:space="preserve" transform="matrix(1 0 -0 1 210.1034 133)" font-size="13" font-family="CambriaMath"><tspan y="-71" x="0">&#x0026;</tspan></text>
<text xml:space="preserve" transform="matrix(1 0 -0 1 85.51717 110)" font-size="18" font-family="CambriaMath"><tspan y="-71" x="0">&#x1d713;</tspan></text>
<path transform="matrix(1,0,0,-1,0,71)" d="M116.0885 45.40169C117.7994 44.95052 119.1134 43.9764 120.0303 42.47933 120.9473 40.98226 121.4058 39.1761 121.4058 37.06087 121.4058 34.93978 120.9488 33.13363 120.0347 31.64241 119.1207 30.1512 117.8053 29.18001 116.0885 28.72884L115.8775 29.4056C117.231 29.85677 118.2374 30.74739 118.8966 32.07747 119.5557 33.40755 119.8853 35.09798 119.8853 37.14876 119.8853 39.12923 119.5572 40.77425 118.901 42.08382 118.2447 43.39339 117.2281 44.27376 115.8512 44.72493ZM105.4166 45.40169 105.6539 44.72493C104.2828 44.27376 103.2677 43.39339 102.6085 42.08382 101.9493 40.77425 101.6197 39.12923 101.6197 37.14876 101.6197 35.09798 101.9493 33.40755 102.6085 32.07747 103.2677 30.74739 104.274 29.85677 105.6275 29.4056L105.4166 28.72884C103.6998 29.18001 102.3844 30.1512 101.4703 31.64241 100.5562 33.13363 100.0992 34.93978 100.0992 37.06087 100.0992 39.1761 100.5577 40.98226 101.4747 42.47933 102.3917 43.9764 103.7056 44.95052 105.4166 45.40169Z" fill-rule="evenodd"/>
<text xml:space="preserve" transform="matrix(1 0 -0 1 105.5172 110)" font-size="18" font-family="CambriaMath"><tspan y="-71" x="0">&#x03b8;</tspan></text>
<text xml:space="preserve" transform="matrix(1 0 -0 1 280.8131 110)" font-size="18" font-family="CambriaMath"><tspan y="-71" x="0">&#x1d719;</tspan></text>
<path transform="matrix(1,0,0,-1,0,71)" d="M314.3844 45.40169C316.0954 44.95052 317.4093 43.9764 318.3263 42.47933 319.2433 40.98226 319.7018 39.1761 319.7018 37.06087 319.7018 34.93978 319.2448 33.13363 318.3307 31.64241 317.4167 30.1512 316.1012 29.18001 314.3844 28.72884L314.1735 29.4056C315.527 29.85677 316.5334 30.74739 317.1925 32.07747 317.8517 33.40755 318.1813 35.09798 318.1813 37.14876 318.1813 39.12923 317.8532 40.77425 317.1969 42.08382 316.5407 43.39339 315.5241 44.27376 314.1471 44.72493ZM300.7126 45.40169 300.9499 44.72493C299.5788 44.27376 298.5636 43.39339 297.9044 42.08382 297.2453 40.77425 296.9157 39.12923 296.9157 37.14876 296.9157 35.09798 297.2453 33.40755 297.9044 32.07747 298.5636 30.74739 299.57 29.85677 300.9235 29.4056L300.7126 28.72884C298.9958 29.18001 297.6803 30.1512 296.7663 31.64241 295.8522 33.13363 295.3952 34.93978 295.3952 37.06087 295.3952 39.1761 295.8537 40.98226 296.7707 42.47933 297.6877 43.9764 299.0016 44.95052 300.7126 45.40169Z" fill-rule="evenodd"/>
<text xml:space="preserve" transform="matrix(1 0 -0 1 300.8131 110)" font-size="18" font-family="CambriaMath"><tspan y="-71" x="0">&#x1d713;</tspan></text>
<text xml:space="preserve" transform="matrix(1 0 -0 1 367.6464 110)" font-size="18" font-family="CambriaMath"><tspan y="-71" x="0">&#x1d43f;</tspan></text>
<text xml:space="preserve" transform="matrix(1 0 -0 1 377.6464 110)" font-size="18" font-family="CambriaMath"><tspan y="-71" x="0">(</tspan></text>
<text xml:space="preserve" transform="matrix(1 0 -0 1 385.6464 110)" font-size="18" font-family="CambriaMath"><tspan y="-71" x="0">&#x1d703;</tspan></text>
<text xml:space="preserve" transform="matrix(1 0 -0 1 395.6464 110)" font-size="18" font-family="CambriaMath"><tspan y="-71" x="0">)</tspan></text>
<path transform="matrix(1,0,0,-1,0,71)" d="M46.5 37.99992 79.34898 37.99999V38.99999L46.5 38.99992ZM78.34898 35.49999 84.34898 38.5 78.34897 41.49999Z" fill="#4472c4"/>
<path transform="matrix(1,0,0,-1,0,71)" d="M126.5052 38.99997 183.5428 38.40663 183.5324 37.40668 126.4948 38.00003ZM182.5689 40.9169 188.5373 37.85465 182.5064 34.91722Z" fill="#4472c4"/>
<path transform="matrix(1,0,0,-1,0,71)" d="M233.5 37.99992 274.2913 37.99999V38.99999L233.5 38.99992ZM273.2913 35.49999 279.2913 38.5 273.2913 41.49999Z" fill="#4472c4"/>
<path transform="matrix(1,0,0,-1,0,71)" d="M324.5 37.99992 361.3078 37.99999V38.99999L324.5 38.99992ZM360.3078 35.49999 366.3078 38.5 360.3078 41.49999Z" fill="#4472c4"/>
<text xml:space="preserve" transform="matrix(1 0 -0 1 260.187 92)" font-size="14" font-family="Calibri"><tspan y="-71" x="0 9.000601 15.999201 18.993802 24.998402 31.997004 36.993608 41.990209 48.988809 55.987409 62.986009 67.982608">GP Surrogate</tspan></text>
<text xml:space="preserve" transform="matrix(1 0 -0 1 64.66732 92)" font-size="14" font-family="Calibri"><tspan y="-71" x="0 7.9996006 13.997201 17.992802 24.998402 30.002003 37.007604 40.0092 47.0148 53.0124 58.016004 61.0176 68.0232">DL Projection</tspan></text>
</svg>
