<svg xmlns="http://www.w3.org/2000/svg" xmlns:xlink="http://www.w3.org/1999/xlink" version="1.1" width="180pt" height="130pt" viewBox="0 0 180 130">
<g>
<path transform="matrix(1,0,0,-1,0,130)" stroke-width="2" stroke-linecap="square" stroke-miterlimit="3.25" stroke-linejoin="miter" fill="none" stroke="#ff0000" d="M.25 14.035H19.047L19.207 14.078H19.367L19.523 14.082 19.684 14.086H19.844L20.004 14.09H20.164L20.32 14.094H20.48L20.641 14.098H20.801L20.961 14.102H21.277L21.438 14.105H23.508L23.668 14.102H25.582L25.738 14.105H25.898L26.059 14.109H26.219L26.379 14.113 26.535 14.117 27.176 14.133 27.332 14.141 27.492 14.148 27.652 14.152 27.973 14.168 28.129 14.176 28.289 14.188 28.449 14.195 28.77 14.219 28.926 14.23 29.246 14.254 29.406 14.27 29.562 14.281 30.203 14.344 30.359 14.359 30.52 14.375 30.68 14.395 30.84 14.41 31 14.43 31.156 14.449 31.316 14.465 31.797 14.523 31.953 14.539 32.594 14.617 32.75 14.633 32.91 14.652 33.07 14.668 33.23 14.688 33.391 14.703 33.547 14.719 34.027 14.766 34.188 14.777 34.344 14.793 34.824 14.828 34.98 14.84 35.301 14.863 35.621 14.879 35.777 14.891 36.418 14.922 36.574 14.93 37.215 14.961 37.371 14.969 37.531 14.977 37.691 14.988 37.852 14.996 38.012 15.008 38.168 15.016 38.488 15.039 38.648 15.055 38.809 15.066 38.965 15.082 39.125 15.098 39.285 15.117 39.445 15.133 39.605 15.152 39.762 15.176 40.242 15.246 40.398 15.273 40.559 15.301 41.039 15.395 41.195 15.43 41.516 15.5 41.836 15.578 41.992 15.617 42.633 15.789 42.789 15.836 42.949 15.879 43.43 16.02 43.586 16.066 43.746 16.113 43.906 16.164 44.227 16.258 44.383 16.309 44.543 16.355 44.703 16.406 44.863 16.453 45.023 16.504 45.18 16.555 45.34 16.605 45.5 16.652 45.66 16.703 45.816 16.758 46.137 16.859 46.457 16.969 46.613 17.023 47.094 17.199 47.254 17.262 47.41 17.324 47.57 17.387 47.73 17.453 48.051 17.594 48.207 17.664 48.367 17.738 48.848 17.973 49.004 18.055 49.484 18.312 49.645 18.402 49.801 18.492 49.961 18.586 50.121 18.676 50.281 18.773 50.441 18.867 50.598 18.965 50.758 19.062 50.918 19.164 51.078 19.262 51.234 19.363 51.395 19.465 51.715 19.676 51.875 19.777 52.031 19.887 52.191 19.992 52.672 20.32 52.828 20.434 52.988 20.547 53.469 20.898 53.625 21.02 53.945 21.27 54.266 21.527 54.422 21.664 54.582 21.797 54.902 22.078 55.062 22.223 55.219 22.371 55.539 22.676 55.699 22.832 55.859 22.992 56.016 23.156 56.336 23.492 56.496 23.664 56.652 23.84 56.973 24.199 57.133 24.383 57.293 24.57 57.449 24.758 57.93 25.344 58.09 25.543 58.246 25.746 58.566 26.16 58.887 26.582 59.043 26.797 59.523 27.453 59.684 27.68 59.84 27.902 60 28.133 60.16 28.359 60.32 28.59 60.48 28.824 60.637 29.059 60.797 29.297 60.957 29.531 61.117 29.773 61.277 30.012 61.434 30.254 61.914 30.98 62.07 31.227 62.711 32.211 62.867 32.457 63.027 32.707 63.348 33.199 63.508 33.449 63.664 33.695 63.824 33.941 63.984 34.191 64.305 34.684 64.461 34.93 65.102 35.914 65.258 36.156 65.418 36.402 65.738 36.887 65.898 37.125 66.055 37.367 66.535 38.082 66.695 38.316 66.852 38.551 67.172 39.02 67.332 39.25 67.488 39.48 67.648 39.711 67.969 40.164 68.129 40.395 68.285 40.621 68.445 40.848 68.605 41.078 68.766 41.305 68.926 41.535 69.082 41.766 69.402 42.234 69.562 42.473 69.723 42.715 69.879 42.957 70.039 43.207 70.199 43.461 70.359 43.719 70.52 43.984 70.676 44.254 70.836 44.531 70.996 44.812 71.156 45.102 71.316 45.398 71.473 45.703 71.633 46.012 71.793 46.332 71.953 46.656 72.113 46.988 72.27 47.328 72.43 47.676 72.59 48.027 72.75 48.387 72.906 48.75 73.066 49.121 73.227 49.496 73.387 49.875 73.547 50.262 73.703 50.648 73.863 51.035 74.023 51.43 74.184 51.82 74.344 52.215 74.5 52.609 74.82 53.398 75.141 54.18 75.297 54.566 75.457 54.953 75.777 55.711 75.938 56.082 76.094 56.449 76.254 56.812 76.414 57.168 76.574 57.52 76.734 57.863 76.891 58.203 77.051 58.535 77.211 58.863 77.371 59.18 77.531 59.492 77.688 59.797 77.848 60.094 78.008 60.387 78.168 60.668 78.324 60.945 78.484 61.215 78.645 61.477 78.805 61.73 78.965 61.977 79.121 62.215 79.281 62.449 79.441 62.676 79.602 62.895 79.762 63.109 79.918 63.312 80.078 63.516 80.238 63.707 80.398 63.895 80.559 64.078 80.715 64.254 80.875 64.426 81.035 64.594 81.355 64.914 81.512 65.066 81.672 65.215 81.832 65.359 82.152 65.641 82.309 65.773 82.469 65.906 82.789 66.164 82.949 66.285 83.105 66.406 83.266 66.527 83.586 66.762 83.742 66.875 84.223 67.203 84.383 67.309 84.539 67.41 84.699 67.516 84.859 67.613 85.02 67.715 85.18 67.809 85.336 67.906 85.496 68 85.816 68.18 85.977 68.266 86.133 68.352 86.293 68.438 86.453 68.52 86.773 68.676 86.93 68.75 87.41 68.961 87.57 69.027 87.727 69.09 88.207 69.266 88.367 69.316 88.523 69.367 88.684 69.414 88.844 69.457 89.004 69.496 89.16 69.535 89.48 69.598 89.641 69.621 89.801 69.641 89.957 69.66 90.117 69.672 90.277 69.68H90.438L90.598 69.676 90.754 69.668 90.914 69.652 91.074 69.633 91.395 69.57 91.551 69.527 91.711 69.48 91.871 69.426 92.031 69.363 92.191 69.293 92.348 69.219 92.508 69.133 92.668 69.039 92.828 68.941 92.988 68.836 93.145 68.719 93.305 68.598 93.465 68.469 93.625 68.336 93.785 68.191 93.941 68.043 94.102 67.891 94.262 67.73 94.422 67.562 94.582 67.391 94.738 67.215 94.898 67.035 95.059 66.852 95.219 66.66 95.375 66.469 95.535 66.273 95.855 65.875 96.016 65.672 96.172 65.465 96.492 65.051 96.812 64.629 96.969 64.422 97.129 64.207 97.609 63.574 97.766 63.359 98.086 62.938 98.246 62.723 98.406 62.512 98.562 62.297 98.723 62.086 99.203 61.441 99.359 61.227 99.84 60.57 100 60.348 100.156 60.121 100.477 59.668 100.637 59.438 100.793 59.203 101.113 58.727 101.273 58.484 101.434 58.238 101.59 57.988 101.75 57.734 102.07 57.219 102.23 56.957 102.387 56.688 102.707 56.148 103.027 55.594 103.184 55.312 103.344 55.031 103.664 54.461 103.824 54.172 103.98 53.879 104.141 53.59 104.621 52.711 104.777 52.418 105.418 51.246 105.574 50.957 105.734 50.664 106.055 50.086 106.211 49.797 106.371 49.508 106.852 48.652 107.008 48.371 107.488 47.527 107.648 47.25 107.805 46.969 107.965 46.691 108.125 46.418 108.445 45.863 108.602 45.59 108.922 45.043 109.082 44.766 109.242 44.492 109.398 44.223 109.879 43.402 110.039 43.133 110.195 42.859 110.355 42.586 110.836 41.777 110.992 41.508 111.312 40.969 111.473 40.703 111.629 40.434 111.789 40.168 111.949 39.906 112.109 39.641 112.27 39.379 112.426 39.117 112.586 38.855 112.906 38.34 113.066 38.086 113.223 37.832 113.543 37.324 113.863 36.824 114.02 36.574 114.18 36.324 114.5 35.832 114.66 35.582 114.816 35.336 115.137 34.844 115.297 34.594 115.457 34.348 115.613 34.098 115.773 33.848 116.254 33.086 116.41 32.828 116.73 32.312 116.891 32.047 117.047 31.785 117.207 31.52 117.367 31.25 117.527 30.984 117.688 30.711 117.844 30.441 118.484 29.348 118.641 29.074 119.121 28.266 119.281 28 119.438 27.734 119.758 27.219 119.918 26.969 120.078 26.723 120.234 26.48 120.395 26.242 120.715 25.789 120.875 25.574 121.031 25.363 121.191 25.16 121.352 24.965 121.512 24.777 121.672 24.598 121.828 24.426 121.988 24.258 122.148 24.102 122.309 23.949 122.465 23.805 122.625 23.668 122.785 23.535 122.945 23.41 123.105 23.293 123.262 23.176 123.422 23.066 123.742 22.863 123.902 22.766 124.059 22.668 124.219 22.574 124.539 22.395 124.699 22.309 124.855 22.219 125.016 22.129 125.176 22.043 125.496 21.863 125.652 21.77 125.973 21.582 126.293 21.387 126.449 21.285 126.77 21.074 126.93 20.965 127.09 20.852 127.246 20.738 127.406 20.625 127.566 20.504 127.727 20.387 127.883 20.266 128.523 19.766 128.68 19.641 129 19.383 129.32 19.133 129.477 19.004 129.637 18.879 129.797 18.758 129.957 18.633 130.117 18.512 130.273 18.395 130.594 18.16 130.754 18.047 130.914 17.938 131.07 17.828 131.23 17.723 131.551 17.52 131.711 17.422 131.867 17.328 132.188 17.148 132.348 17.062 132.508 16.98 132.664 16.902 132.824 16.824 132.984 16.75 133.145 16.68 133.301 16.609 133.461 16.547 133.621 16.48 133.941 16.363 134.098 16.309 134.258 16.254 134.578 16.152 134.738 16.105 134.895 16.059 135.375 15.93 135.535 15.891 135.691 15.852 135.852 15.816 136.012 15.777 136.332 15.707 136.488 15.672 136.648 15.641 136.809 15.605 137.129 15.543 137.285 15.512 137.605 15.449 137.766 15.422 137.926 15.391 138.082 15.363 138.242 15.336 138.402 15.305 138.562 15.277 138.719 15.254 139.039 15.199 139.199 15.176 139.359 15.148 139.516 15.125 139.836 15.078 139.996 15.059 140.156 15.035 140.312 15.016 140.953 14.938 141.109 14.922 141.27 14.902 141.75 14.855 141.906 14.84 142.547 14.777 142.703 14.766 142.863 14.75 143.023 14.738 143.344 14.707 143.5 14.695 143.66 14.68 143.82 14.668 143.98 14.652 144.137 14.641 144.297 14.625 144.457 14.613 144.617 14.598 144.777 14.586 144.934 14.57 145.094 14.559 145.254 14.543 145.414 14.531 145.574 14.516 145.73 14.504 146.051 14.48 146.211 14.465 146.371 14.453 146.527 14.441 147.008 14.406 147.168 14.398 147.324 14.387 147.484 14.375 147.805 14.359 147.965 14.348 148.121 14.34 148.762 14.309 148.918 14.301 149.078 14.297 149.238 14.289 149.398 14.285 149.555 14.281 149.715 14.277 149.875 14.27 150.035 14.266H150.195L150.352 14.262 150.512 14.258H150.672L150.832 14.254H150.992L151.148 14.25H152.266L152.426 14.254H152.902L153.062 14.258H154.656L154.816 14.254H154.973L155.293 14.246H155.453L155.613 14.242 155.77 14.238 156.09 14.23 156.25 14.223 156.41 14.219 156.566 14.215 156.727 14.207 156.887 14.203 157.207 14.188 157.363 14.184 157.684 14.168 157.844 14.164 158.004 14.156 158.16 14.148 158.32 14.145 158.641 14.129 158.801 14.125 158.957 14.117 159.117 14.113 159.277 14.105 159.598 14.098 159.754 14.094 159.914 14.086 160.234 14.078 160.391 14.035H179.75"/>
<path transform="matrix(1,0,0,-1,0,130)" stroke-width=".5" stroke-linecap="butt" stroke-miterlimit="3.25" stroke-linejoin="miter" fill="none" stroke="#000000" d="M.25 14.035V15.312"/>
<path transform="matrix(1,0,0,-1,0,130)" stroke-width=".5" stroke-linecap="butt" stroke-miterlimit="3.25" stroke-linejoin="miter" fill="none" stroke="#000000" d="M9.227 14.035V15.312"/>
<path transform="matrix(1,0,0,-1,0,130)" stroke-width=".5" stroke-linecap="butt" stroke-miterlimit="3.25" stroke-linejoin="miter" fill="none" stroke="#000000" d="M18.199 14.035V16.16"/>
<text xml:space="preserve" transform="matrix(1 0 -0 1 0 130)" font-size="9" font-family="MathematicaSans"><tspan y="-2.888094" x="9.315723">-</tspan></text>
<text xml:space="preserve" transform="matrix(1 0 -0 1 0 130)" font-size="9" font-family="ArialMT"><tspan y="-2.888094" x="14.562723 19.566723 22.059723">0.4</tspan></text>
<path transform="matrix(1,0,0,-1,0,130)" stroke-width=".5" stroke-linecap="butt" stroke-miterlimit="3.25" stroke-linejoin="miter" fill="none" stroke="#000000" d="M27.176 14.035V15.312"/>
<path transform="matrix(1,0,0,-1,0,130)" stroke-width=".5" stroke-linecap="butt" stroke-miterlimit="3.25" stroke-linejoin="miter" fill="none" stroke="#000000" d="M36.148 14.035V15.312"/>
<path transform="matrix(1,0,0,-1,0,130)" stroke-width=".5" stroke-linecap="butt" stroke-miterlimit="3.25" stroke-linejoin="miter" fill="none" stroke="#000000" d="M45.125 14.035V15.312"/>
<path transform="matrix(1,0,0,-1,0,130)" stroke-width=".5" stroke-linecap="butt" stroke-miterlimit="3.25" stroke-linejoin="miter" fill="none" stroke="#000000" d="M54.102 14.035V16.16"/>
<text xml:space="preserve" transform="matrix(1 0 -0 1 0 130)" font-size="9" font-family="MathematicaSans"><tspan y="-2.888094" x="45.21572">-</tspan></text>
<text xml:space="preserve" transform="matrix(1 0 -0 1 0 130)" font-size="9" font-family="ArialMT"><tspan y="-2.888094" x="50.462724 55.466726 57.959726">0.2</tspan></text>
<path transform="matrix(1,0,0,-1,0,130)" stroke-width=".5" stroke-linecap="butt" stroke-miterlimit="3.25" stroke-linejoin="miter" fill="none" stroke="#000000" d="M63.074 14.035V15.312"/>
<path transform="matrix(1,0,0,-1,0,130)" stroke-width=".5" stroke-linecap="butt" stroke-miterlimit="3.25" stroke-linejoin="miter" fill="none" stroke="#000000" d="M72.051 14.035V15.312"/>
<path transform="matrix(1,0,0,-1,0,130)" stroke-width=".5" stroke-linecap="butt" stroke-miterlimit="3.25" stroke-linejoin="miter" fill="none" stroke="#000000" d="M81.023 14.035V15.312"/>
<path transform="matrix(1,0,0,-1,0,130)" stroke-width=".5" stroke-linecap="butt" stroke-miterlimit="3.25" stroke-linejoin="miter" fill="none" stroke="#000000" d="M90 14.035V16.16"/>
<text xml:space="preserve" transform="matrix(1 0 -0 1 0 130)" font-size="9" font-family="ArialMT"><tspan y="-2.888094" x="83.74365 88.74765 91.24065">0.0</tspan></text>
<path transform="matrix(1,0,0,-1,0,130)" stroke-width=".5" stroke-linecap="butt" stroke-miterlimit="3.25" stroke-linejoin="miter" fill="none" stroke="#000000" d="M98.977 14.035V15.312"/>
<path transform="matrix(1,0,0,-1,0,130)" stroke-width=".5" stroke-linecap="butt" stroke-miterlimit="3.25" stroke-linejoin="miter" fill="none" stroke="#000000" d="M107.949 14.035V15.312"/>
<path transform="matrix(1,0,0,-1,0,130)" stroke-width=".5" stroke-linecap="butt" stroke-miterlimit="3.25" stroke-linejoin="miter" fill="none" stroke="#000000" d="M116.926 14.035V15.312"/>
<path transform="matrix(1,0,0,-1,0,130)" stroke-width=".5" stroke-linecap="butt" stroke-miterlimit="3.25" stroke-linejoin="miter" fill="none" stroke="#000000" d="M125.898 14.035V16.16"/>
<text xml:space="preserve" transform="matrix(1 0 -0 1 0 130)" font-size="9" font-family="ArialMT"><tspan y="-2.888094" x="119.643657 124.64765 127.140659">0.2</tspan></text>
<path transform="matrix(1,0,0,-1,0,130)" stroke-width=".5" stroke-linecap="butt" stroke-miterlimit="3.25" stroke-linejoin="miter" fill="none" stroke="#000000" d="M134.875 14.035V15.312"/>
<path transform="matrix(1,0,0,-1,0,130)" stroke-width=".5" stroke-linecap="butt" stroke-miterlimit="3.25" stroke-linejoin="miter" fill="none" stroke="#000000" d="M143.852 14.035V15.312"/>
<path transform="matrix(1,0,0,-1,0,130)" stroke-width=".5" stroke-linecap="butt" stroke-miterlimit="3.25" stroke-linejoin="miter" fill="none" stroke="#000000" d="M152.824 14.035V15.312"/>
<path transform="matrix(1,0,0,-1,0,130)" stroke-width=".5" stroke-linecap="butt" stroke-miterlimit="3.25" stroke-linejoin="miter" fill="none" stroke="#000000" d="M161.801 14.035V16.16"/>
<text xml:space="preserve" transform="matrix(1 0 -0 1 0 130)" font-size="9" font-family="ArialMT"><tspan y="-2.888094" x="155.54366 160.54766 163.04065">0.4</tspan></text>
<path transform="matrix(1,0,0,-1,0,130)" stroke-width=".5" stroke-linecap="butt" stroke-miterlimit="3.25" stroke-linejoin="miter" fill="none" stroke="#000000" d="M170.773 14.035V15.312"/>
<path transform="matrix(1,0,0,-1,0,130)" stroke-width=".5" stroke-linecap="butt" stroke-miterlimit="3.25" stroke-linejoin="miter" fill="none" stroke="#000000" d="M179.75 14.035V15.312"/>
<path transform="matrix(1,0,0,-1,0,130)" stroke-width=".5" stroke-linecap="butt" stroke-miterlimit="3.25" stroke-linejoin="miter" fill="none" stroke="#000000" d="M.25 14.035H179.75"/>
<path transform="matrix(1,0,0,-1,0,130)" stroke-width=".5" stroke-linecap="butt" stroke-miterlimit="3.25" stroke-linejoin="miter" fill="none" stroke="#000000" d="M90 14.035H92.125"/>
<path transform="matrix(1,0,0,-1,0,130)" stroke-width=".5" stroke-linecap="butt" stroke-miterlimit="3.25" stroke-linejoin="miter" fill="none" stroke="#000000" d="M90 20.969H91.277"/>
<path transform="matrix(1,0,0,-1,0,130)" stroke-width=".5" stroke-linecap="butt" stroke-miterlimit="3.25" stroke-linejoin="miter" fill="none" stroke="#000000" d="M90 27.902H91.277"/>
<path transform="matrix(1,0,0,-1,0,130)" stroke-width=".5" stroke-linecap="butt" stroke-miterlimit="3.25" stroke-linejoin="miter" fill="none" stroke="#000000" d="M90 34.836H91.277"/>
<path transform="matrix(1,0,0,-1,0,130)" stroke-width=".5" stroke-linecap="butt" stroke-miterlimit="3.25" stroke-linejoin="miter" fill="none" stroke="#000000" d="M90 41.77H92.125"/>
<text xml:space="preserve" transform="matrix(1 0 -0 1 0 130)" font-size="9" font-family="ArialMT"><tspan y="-38.64971" x="81.99414">2</tspan></text>
<path transform="matrix(1,0,0,-1,0,130)" stroke-width=".5" stroke-linecap="butt" stroke-miterlimit="3.25" stroke-linejoin="miter" fill="none" stroke="#000000" d="M90 48.703H91.277"/>
<path transform="matrix(1,0,0,-1,0,130)" stroke-width=".5" stroke-linecap="butt" stroke-miterlimit="3.25" stroke-linejoin="miter" fill="none" stroke="#000000" d="M90 55.637H91.277"/>
<path transform="matrix(1,0,0,-1,0,130)" stroke-width=".5" stroke-linecap="butt" stroke-miterlimit="3.25" stroke-linejoin="miter" fill="none" stroke="#000000" d="M90 62.57H91.277"/>
<path transform="matrix(1,0,0,-1,0,130)" stroke-width=".5" stroke-linecap="butt" stroke-miterlimit="3.25" stroke-linejoin="miter" fill="none" stroke="#000000" d="M90 69.504H92.125"/>
<text xml:space="preserve" transform="matrix(1 0 -0 1 0 130)" font-size="9" font-family="ArialMT"><tspan y="-66.38399" x="81.99414">4</tspan></text>
<path transform="matrix(1,0,0,-1,0,130)" stroke-width=".5" stroke-linecap="butt" stroke-miterlimit="3.25" stroke-linejoin="miter" fill="none" stroke="#000000" d="M90 76.438H91.277"/>
<path transform="matrix(1,0,0,-1,0,130)" stroke-width=".5" stroke-linecap="butt" stroke-miterlimit="3.25" stroke-linejoin="miter" fill="none" stroke="#000000" d="M90 83.371H91.277"/>
<path transform="matrix(1,0,0,-1,0,130)" stroke-width=".5" stroke-linecap="butt" stroke-miterlimit="3.25" stroke-linejoin="miter" fill="none" stroke="#000000" d="M90 90.305H91.277"/>
<path transform="matrix(1,0,0,-1,0,130)" stroke-width=".5" stroke-linecap="butt" stroke-miterlimit="3.25" stroke-linejoin="miter" fill="none" stroke="#000000" d="M90 97.238H92.125"/>
<text xml:space="preserve" transform="matrix(1 0 -0 1 0 130)" font-size="9" font-family="ArialMT"><tspan y="-94.11826" x="81.99414">6</tspan></text>
<path transform="matrix(1,0,0,-1,0,130)" stroke-width=".5" stroke-linecap="butt" stroke-miterlimit="3.25" stroke-linejoin="miter" fill="none" stroke="#000000" d="M90 104.172H91.277"/>
<path transform="matrix(1,0,0,-1,0,130)" stroke-width=".5" stroke-linecap="butt" stroke-miterlimit="3.25" stroke-linejoin="miter" fill="none" stroke="#000000" d="M90 111.105H91.277"/>
<path transform="matrix(1,0,0,-1,0,130)" stroke-width=".5" stroke-linecap="butt" stroke-miterlimit="3.25" stroke-linejoin="miter" fill="none" stroke="#000000" d="M90 118.039H91.277"/>
<path transform="matrix(1,0,0,-1,0,130)" stroke-width=".5" stroke-linecap="butt" stroke-miterlimit="3.25" stroke-linejoin="miter" fill="none" stroke="#000000" d="M90 124.973H92.125"/>
<text xml:space="preserve" transform="matrix(1 0 -0 1 0 130)" font-size="9" font-family="ArialMT"><tspan y="-121.85254" x="81.99414">8</tspan></text>
<path transform="matrix(1,0,0,-1,0,130)" stroke-width=".5" stroke-linecap="butt" stroke-miterlimit="3.25" stroke-linejoin="miter" fill="none" stroke="#000000" d="M90 14.035V124.973"/>
</g>
</svg>
