<svg xmlns="http://www.w3.org/2000/svg" xmlns:xlink="http://www.w3.org/1999/xlink" version="1.1" width="519pt" height="171pt" viewBox="0 0 519 171">
<g>
<path d="M23.758 21.746H365.758V134.43H23.758Z" fill="#ffffff"/>
<text xml:space="preserve" transform="matrix(0 -1 1 0 0 0)" font-size="12.520231" font-family="NimbusRoman" font-weight="bold"><tspan y="38.386137" x="-95.21965 -91.73903 -85.99224 -80.24545 -74.68647 -69.12749">layer1</tspan></text>
<path transform="matrix(0,-1,1,0,0,0)" d="M-47.445 92.949H-84.347V116.672H-47.445Z" fill="#fff26e"/>
<path transform="matrix(0,-1,1,0,0,0)" stroke-width=".65896" stroke-linecap="butt" stroke-miterlimit="4" stroke-linejoin="miter" fill="none" stroke="#ffdb13" d="M-47.445 92.949H-84.347V116.672H-47.445Z"/>
<text xml:space="preserve" transform="matrix(0 -1 1 0 0 0)" font-size="9.225434" font-family="NimbusRoman" font-weight="bold"><tspan y="102.30521" x="-72.15607 -67.026729 -62.506265">dot</tspan></text>
<text xml:space="preserve" transform="matrix(0 -1 1 0 0 0)" font-size="9.225434" font-family="NimbusRoman"><tspan y="111.53064" x="-79.07514 -76.003078 -71.39036 -66.77764 -62.164926 -59.858568 -55.24585">[200,4]</tspan></text>
<path transform="matrix(0,-1,1,0,0,0)" d="M-71.828 140.395H-108.726V164.11801H-71.828Z" fill="#fff26e"/>
<path transform="matrix(0,-1,1,0,0,0)" stroke-width=".65896" stroke-linecap="butt" stroke-miterlimit="4" stroke-linejoin="miter" fill="none" stroke="#ffdb13" d="M-71.828 140.395H-108.726V164.11801H-71.828Z"/>
<text xml:space="preserve" transform="matrix(0 -1 1 0 0 0)" font-size="9.225434" font-family="NimbusRoman" font-weight="bold"><tspan y="149.75029" x="-97.52601 -92.91329 -87.78395">add</tspan></text>
<text xml:space="preserve" transform="matrix(0 -1 1 0 0 0)" font-size="9.225434" font-family="NimbusRoman"><tspan y="158.97573" x="-103.45664 -100.384578 -95.77186 -91.15914 -86.546428 -84.24007 -79.62735">[200,4]</tspan></text>
<path transform="matrix(0,-1,1,0,0,0)" stroke-width=".65896" stroke-linecap="butt" stroke-miterlimit="4" stroke-linejoin="miter" fill="none" stroke="#000000" d="M-71.926 116.867C-74.727 122.18-78.125 128.605-81.23 134.477"/>
<path transform="matrix(0,-1,1,0,0,0)" d="M-79.199 135.574-84.32 140.328-83.281 133.422ZM-79.199 135.574"/>
<path transform="matrix(0,-1,1,0,0,0)" stroke-width=".65896" stroke-linecap="butt" stroke-miterlimit="4" stroke-linejoin="miter" fill="none" stroke="#000000" d="M-79.199 135.574-84.32 140.328-83.281 133.422ZM-79.199 135.574"/>
<path transform="matrix(0,-1,1,0,0,0)" d="M-71.828 187.84H-108.726V211.56299H-71.828Z" fill="#fff26e"/>
<path transform="matrix(0,-1,1,0,0,0)" stroke-width=".65896" stroke-linecap="butt" stroke-miterlimit="4" stroke-linejoin="miter" fill="none" stroke="#ffdb13" d="M-71.828 187.84H-108.726V211.56299H-71.828Z"/>
<text xml:space="preserve" transform="matrix(0 -1 1 0 0 0)" font-size="9.225434" font-family="NimbusRoman" font-weight="bold"><tspan y="197.19538" x="-97.19653 -92.06719 -88.02645">neg</tspan></text>
<text xml:space="preserve" transform="matrix(0 -1 1 0 0 0)" font-size="9.225434" font-family="NimbusRoman"><tspan y="206.4208" x="-103.45664 -100.384578 -95.77186 -91.15914 -86.546428 -84.24007 -79.62735">[200,4]</tspan></text>
<path transform="matrix(0,-1,1,0,0,0)" stroke-width=".65896" stroke-linecap="butt" stroke-miterlimit="4" stroke-linejoin="miter" fill="none" stroke="#000000" d="M-90.277 164.312C-90.277 169.402-90.277 175.508-90.277 181.176"/>
<path transform="matrix(0,-1,1,0,0,0)" d="M-87.973 181.184-90.277 187.773-92.582 181.184ZM-87.973 181.184"/>
<path transform="matrix(0,-1,1,0,0,0)" stroke-width=".65896" stroke-linecap="butt" stroke-miterlimit="4" stroke-linejoin="miter" fill="none" stroke="#000000" d="M-87.973 181.184-90.277 187.773-92.582 181.184ZM-87.973 181.184"/>
<path transform="matrix(0,-1,1,0,0,0)" d="M-71.828 235.285H-108.726V259.004H-71.828Z" fill="#fff26e"/>
<path transform="matrix(0,-1,1,0,0,0)" stroke-width=".65896" stroke-linecap="butt" stroke-miterlimit="4" stroke-linejoin="miter" fill="none" stroke="#ffdb13" d="M-71.828 235.285H-108.726V259.004H-71.828Z"/>
<text xml:space="preserve" transform="matrix(0 -1 1 0 0 0)" font-size="9.225434" font-family="NimbusRoman" font-weight="bold"><tspan y="244.64046" x="-97.19653 -93.33108 -88.71836">exp</tspan></text>
<text xml:space="preserve" transform="matrix(0 -1 1 0 0 0)" font-size="9.225434" font-family="NimbusRoman"><tspan y="253.86589" x="-103.45664 -100.384578 -95.77186 -91.15914 -86.546428 -84.24007 -79.62735">[200,4]</tspan></text>
<path transform="matrix(0,-1,1,0,0,0)" stroke-width=".65896" stroke-linecap="butt" stroke-miterlimit="4" stroke-linejoin="miter" fill="none" stroke="#000000" d="M-90.277 211.758C-90.277 216.844-90.277 222.953-90.277 228.621"/>
<path transform="matrix(0,-1,1,0,0,0)" d="M-87.973 228.629-90.277 235.219-92.582 228.629ZM-87.973 228.629"/>
<path transform="matrix(0,-1,1,0,0,0)" stroke-width=".65896" stroke-linecap="butt" stroke-miterlimit="4" stroke-linejoin="miter" fill="none" stroke="#000000" d="M-87.973 228.629-90.277 235.219-92.582 228.629ZM-87.973 228.629"/>
<path transform="matrix(0,-1,1,0,0,0)" d="M-60.625 282.727H-97.527V306.44999H-60.625Z" fill="#fff26e"/>
<path transform="matrix(0,-1,1,0,0,0)" stroke-width=".65896" stroke-linecap="butt" stroke-miterlimit="4" stroke-linejoin="miter" fill="none" stroke="#ffdb13" d="M-60.625 282.727H-97.527V306.44999H-60.625Z"/>
<text xml:space="preserve" transform="matrix(0 -1 1 0 0 0)" font-size="9.225434" font-family="NimbusRoman" font-weight="bold"><tspan y="292.08555" x="-86.3237 -81.71098 -76.58164">add</tspan></text>
<text xml:space="preserve" transform="matrix(0 -1 1 0 0 0)" font-size="9.225434" font-family="NimbusRoman"><tspan y="301.31098" x="-92.25433 -89.18227 -84.56955 -79.95683 -75.34412 -73.03776 -68.42504">[200,4]</tspan></text>
<path transform="matrix(0,-1,1,0,0,0)" stroke-width=".65896" stroke-linecap="butt" stroke-miterlimit="4" stroke-linejoin="miter" fill="none" stroke="#000000" d="M-87.512 259.203C-86.258 264.344-84.754 270.531-83.371 276.25"/>
<path transform="matrix(0,-1,1,0,0,0)" d="M-81.125 275.711-81.809 282.664-85.613 276.797ZM-81.125 275.711"/>
<path transform="matrix(0,-1,1,0,0,0)" stroke-width=".65896" stroke-linecap="butt" stroke-miterlimit="4" stroke-linejoin="miter" fill="none" stroke="#000000" d="M-81.125 275.711-81.809 282.664-85.613 276.797ZM-81.125 275.711"/>
<path transform="matrix(0,-1,1,0,0,0)" d="M-42.172 330.172H-79.074008V363.121H-42.172Z" fill="#aabfff"/>
<path transform="matrix(0,-1,1,0,0,0)" stroke-width="1.317919" stroke-linecap="butt" stroke-miterlimit="4" stroke-linejoin="miter" fill="none" stroke="#0053d6" d="M-42.172 330.172H-79.074008V363.121H-42.172Z"/>
<text xml:space="preserve" transform="matrix(0 -1 1 0 0 0)" font-size="9.225434" font-family="NimbusRoman" font-weight="bold"><tspan y="339.53065" x="-73.47399 -68.861278 -63.731935 -60.659864 -55.53052 -50.40118">output</tspan><tspan y="348.75608" x="-66.88439 -61.75505 -59.384115">div</tspan></text>
<text xml:space="preserve" transform="matrix(0 -1 1 0 0 0)" font-size="9.225434" font-family="NimbusRoman"><tspan y="357.9815" x="-73.80347 -70.7314 -66.11868 -61.505968 -56.89325 -54.58689 -49.974176">[200,4]</tspan></text>
<path transform="matrix(0,-1,1,0,0,0)" stroke-width=".65896" stroke-linecap="butt" stroke-miterlimit="4" stroke-linejoin="miter" fill="none" stroke="#000000" d="M-74.984 306.512C-73.125 311.609-70.863 317.832-68.691 323.809"/>
<path transform="matrix(0,-1,1,0,0,0)" d="M-66.469 323.16-66.391 330.141-70.805 324.738ZM-66.469 323.16"/>
<path transform="matrix(0,-1,1,0,0,0)" stroke-width=".65896" stroke-linecap="butt" stroke-miterlimit="4" stroke-linejoin="miter" fill="none" stroke="#000000" d="M-66.469 323.16-66.391 330.141-70.805 324.738ZM-66.469 323.16"/>
<path transform="matrix(0,-1,1,0,0,0)" d="M-71.828 45.504H-108.726V69.227008H-71.828Z" fill="#ffdeaf"/>
<path transform="matrix(0,-1,1,0,0,0)" stroke-width=".65896" stroke-linecap="butt" stroke-miterlimit="4" stroke-linejoin="miter" fill="none" stroke="#ff8a4f" d="M-71.828 45.504H-108.726V69.227008H-71.828Z"/>
<text xml:space="preserve" transform="matrix(0 -1 1 0 0 0)" font-size="9.225434" font-family="NimbusRoman" font-weight="bold"><tspan y="54.860124" x="-92.58382">x</tspan></text>
<text xml:space="preserve" transform="matrix(0 -1 1 0 0 0)" font-size="9.225434" font-family="NimbusRoman"><tspan y="64.085559" x="-103.45665 -100.38458 -95.771869 -91.15915 -86.54643 -84.240077 -79.62736">[200,2]</tspan></text>
<path transform="matrix(0,-1,1,0,0,0)" stroke-width=".65896" stroke-linecap="butt" stroke-miterlimit="4" stroke-linejoin="miter" fill="none" stroke="#000000" d="M-84.246 69.422C-81.449 74.734-78.047 81.16-74.945 87.031"/>
<path transform="matrix(0,-1,1,0,0,0)" d="M-72.895 85.977-71.852 92.883-76.973 88.133ZM-72.895 85.977"/>
<path transform="matrix(0,-1,1,0,0,0)" stroke-width=".65896" stroke-linecap="butt" stroke-miterlimit="4" stroke-linejoin="miter" fill="none" stroke="#000000" d="M-72.895 85.977-71.852 92.883-76.973 88.133ZM-72.895 85.977"/>
<path transform="matrix(0,-1,1,0,0,0)" d="M-24.383 45.504H-59.965V69.227008H-24.383Z" fill="#ffdeaf"/>
<path transform="matrix(0,-1,1,0,0,0)" stroke-width=".65896" stroke-linecap="butt" stroke-miterlimit="4" stroke-linejoin="miter" fill="none" stroke="#ff8a4f" d="M-24.383 45.504H-59.965V69.227008H-24.383Z"/>
<text xml:space="preserve" transform="matrix(0 -1 1 0 0 0)" font-size="9.225434" font-family="NimbusRoman" font-weight="bold"><tspan y="54.860124" x="-45.46821">w</tspan></text>
<text xml:space="preserve" transform="matrix(0 -1 1 0 0 0)" font-size="9.225434" font-family="NimbusRoman"><tspan y="64.085559" x="-51.069368 -47.997297 -43.38458 -41.07822 -36.465505">[2,4]</tspan></text>
<path transform="matrix(0,-1,1,0,0,0)" stroke-width=".65896" stroke-linecap="butt" stroke-miterlimit="4" stroke-linejoin="miter" fill="none" stroke="#000000" d="M-48.039 69.422C-50.738 74.676-54 81.02-56.992 86.848"/>
<path transform="matrix(0,-1,1,0,0,0)" d="M-55.035 88.07-60.098 92.883-59.137 85.965ZM-55.035 88.07"/>
<path transform="matrix(0,-1,1,0,0,0)" stroke-width=".65896" stroke-linecap="butt" stroke-miterlimit="4" stroke-linejoin="miter" fill="none" stroke="#000000" d="M-55.035 88.07-60.098 92.883-59.137 85.965ZM-55.035 88.07"/>
<path transform="matrix(0,-1,1,0,0,0)" d="M-96.207 92.949H-131.793V116.672H-96.207Z" fill="#ffdeaf"/>
<path transform="matrix(0,-1,1,0,0,0)" stroke-width=".65896" stroke-linecap="butt" stroke-miterlimit="4" stroke-linejoin="miter" fill="none" stroke="#ff8a4f" d="M-96.207 92.949H-131.793V116.672H-96.207Z"/>
<text xml:space="preserve" transform="matrix(0 -1 1 0 0 0)" font-size="9.225434" font-family="NimbusRoman" font-weight="bold"><tspan y="102.30521" x="-116.63584">b</tspan></text>
<text xml:space="preserve" transform="matrix(0 -1 1 0 0 0)" font-size="9.225434" font-family="NimbusRoman"><tspan y="111.53064" x="-119.271678 -116.19961 -111.58689">[4]</tspan></text>
<path transform="matrix(0,-1,1,0,0,0)" stroke-width=".65896" stroke-linecap="butt" stroke-miterlimit="4" stroke-linejoin="miter" fill="none" stroke="#000000" d="M-108.137 116.867C-105.434 122.121-102.172 128.465-99.18 134.293"/>
<path transform="matrix(0,-1,1,0,0,0)" d="M-97.039 133.406-96.078 140.328-101.137 135.516ZM-97.039 133.406"/>
<path transform="matrix(0,-1,1,0,0,0)" stroke-width=".65896" stroke-linecap="butt" stroke-miterlimit="4" stroke-linejoin="miter" fill="none" stroke="#000000" d="M-97.039 133.406-96.078 140.328-101.137 135.516ZM-97.039 133.406"/>
<path transform="matrix(0,-1,1,0,0,0)" d="M-24.383 235.285H-59.965V259.004H-24.383Z" fill="#e6d6ff"/>
<path transform="matrix(0,-1,1,0,0,0)" stroke-width=".65896" stroke-linecap="butt" stroke-miterlimit="4" stroke-linejoin="miter" fill="none" stroke="#a261ff" d="M-24.383 235.285H-59.965V259.004H-24.383Z"/>
<text xml:space="preserve" transform="matrix(0 -1 1 0 0 0)" font-size="9.225434" font-family="NimbusRoman" font-weight="bold"><tspan y="248.92369" x="-44.47977">1</tspan></text>
<path transform="matrix(0,-1,1,0,0,0)" stroke-width=".65896" stroke-linecap="butt" stroke-miterlimit="4" stroke-linejoin="miter" fill="none" stroke="#000000" d="M-51.293 259.203C-55.676 264.68-61.008 271.34-65.824 277.363"/>
<path transform="matrix(0,-1,1,0,0,0)" d="M-64.145 278.953-70.062 282.664-67.742 276.074ZM-64.145 278.953"/>
<path transform="matrix(0,-1,1,0,0,0)" stroke-width=".65896" stroke-linecap="butt" stroke-miterlimit="4" stroke-linejoin="miter" fill="none" stroke="#000000" d="M-64.145 278.953-70.062 282.664-67.742 276.074ZM-64.145 278.953"/>
<path transform="matrix(0,-1,1,0,0,0)" stroke-width=".65896" stroke-linecap="butt" stroke-miterlimit="4" stroke-linejoin="miter" fill="none" stroke="#000000" d="M-44.289 259.066C-47.227 274.703-52.605 303.328-56.387 323.445"/>
<path transform="matrix(0,-1,1,0,0,0)" d="M-54.168 324.117-57.652 330.172-58.699 323.266ZM-54.168 324.117"/>
<path transform="matrix(0,-1,1,0,0,0)" stroke-width=".65896" stroke-linecap="butt" stroke-miterlimit="4" stroke-linejoin="miter" fill="none" stroke="#000000" d="M-54.168 324.117-57.652 330.172-58.699 323.266ZM-54.168 324.117"/>
</g>
</svg>
