<svg xmlns="http://www.w3.org/2000/svg" xmlns:xlink="http://www.w3.org/1999/xlink" version="1.1" width="721pt" height="523pt" viewBox="0 0 721 523">
<defs>
<clipPath id="clip_0">
<path transform="matrix(1,0,0,-1,0,523)" d="M66.24 60.48H707.04V523.44H66.24Z"/>
</clipPath>
</defs>
<path transform="matrix(1,0,0,-1,0,523)" d="M0 0H721.44V523.44H0Z" fill="#ffffff"/>
<g clip-path="url(#clip_0)">
<path transform="matrix(1,0,0,-1,0,523)" stroke-width="2.25" stroke-linecap="round" stroke-linejoin="round" fill="none" stroke="#0000ff" d="M89.97 77.63 95.91 99.19 101.84 119.67 107.77 139.13 113.71 157.62 119.64 175.18 125.57 191.86 131.51 207.71 137.44 222.77 143.37 237.07 149.31 250.66 155.24 263.57 161.17 275.83 167.11 287.48 173.04 298.55 178.97 309.07 184.91 319.06 190.84 328.54 196.77 337.56 202.71 346.12 208.64 354.26 214.57 361.99 220.51 369.33 226.44 376.31 232.37 382.93 238.31 389.23 244.24 395.21 250.17 400.89 256.11 406.29 262.04 411.42 267.97 416.29 273.91 420.92 279.84 425.31 285.77 429.49 291.71 433.46 297.64 437.23 303.57 440.81 309.51 444.21 315.44 447.44 321.37 450.51 327.31 453.43 333.24 456.2 339.17 458.83 345.11 461.33 351.04 463.71 356.97 465.97 362.91 468.11 368.84 470.15 374.77 472.08 380.71 473.92 386.64 475.67 392.57 477.33 398.51 478.9 404.44 480.4 410.37 481.82 416.31 483.17 422.24 484.46 428.17 485.68 434.11 486.83 440.04 487.93 445.97 488.98 451.91 489.97 457.84 490.92 463.77 491.81 469.71 492.67 475.64 493.47 481.57 494.24 487.51 494.97 493.44 495.67 499.37 496.33 505.31 496.95 511.24 497.55 517.17 498.11 523.11 498.65 529.04 499.16 534.97 499.64 540.91 500.1 546.84 500.54 552.77 500.96 558.71 501.35 564.64 501.72 570.57 502.08 576.51 502.42 582.44 502.74 588.37 503.05 594.31 503.34 600.24 503.61 606.17 503.87 612.11 504.12 618.04 504.36 623.97 504.58 629.91 504.8 635.84 505 641.77 505.19 647.71 505.37 653.64 505.55 659.57 505.71 665.51 505.87 671.44 506.02 677.37 506.16 683.31 506.29"/>
</g>
<path transform="matrix(1,0,0,-1,0,523)" stroke-width=".75" stroke-linecap="round" stroke-linejoin="round" fill="none" stroke="#000000" d="M84.04 60.48H677.37"/>
<path transform="matrix(1,0,0,-1,0,523)" stroke-width=".75" stroke-linecap="round" stroke-linejoin="round" fill="none" stroke="#000000" d="M84.04 60.48V53.28"/>
<path transform="matrix(1,0,0,-1,0,523)" stroke-width=".75" stroke-linecap="round" stroke-linejoin="round" fill="none" stroke="#000000" d="M202.71 60.48V53.28"/>
<path transform="matrix(1,0,0,-1,0,523)" stroke-width=".75" stroke-linecap="round" stroke-linejoin="round" fill="none" stroke="#000000" d="M321.37 60.48V53.28"/>
<path transform="matrix(1,0,0,-1,0,523)" stroke-width=".75" stroke-linecap="round" stroke-linejoin="round" fill="none" stroke="#000000" d="M440.04 60.48V53.28"/>
<path transform="matrix(1,0,0,-1,0,523)" stroke-width=".75" stroke-linecap="round" stroke-linejoin="round" fill="none" stroke="#000000" d="M558.71 60.48V53.28"/>
<path transform="matrix(1,0,0,-1,0,523)" stroke-width=".75" stroke-linecap="round" stroke-linejoin="round" fill="none" stroke="#000000" d="M677.37 60.48V53.28"/>
<text xml:space="preserve" transform="matrix(1 0 -0 1 0 523)" font-size="24" font-family="Helvetica"><tspan y="-34.56" x="77.37">0</tspan></text>
<text xml:space="preserve" transform="matrix(1 0 -0 1 0 523)" font-size="24" font-family="Helvetica"><tspan y="-34.56" x="189.36 202.70401">20</tspan></text>
<text xml:space="preserve" transform="matrix(1 0 -0 1 0 523)" font-size="24" font-family="Helvetica"><tspan y="-34.56" x="308.03 321.374">40</tspan></text>
<text xml:space="preserve" transform="matrix(1 0 -0 1 0 523)" font-size="24" font-family="Helvetica"><tspan y="-34.56" x="426.7 440.044">60</tspan></text>
<text xml:space="preserve" transform="matrix(1 0 -0 1 0 523)" font-size="24" font-family="Helvetica"><tspan y="-34.56" x="545.36 558.704">80</tspan></text>
<text xml:space="preserve" transform="matrix(1 0 -0 1 0 523)" font-size="24" font-family="Helvetica"><tspan y="-34.56" x="657.36 670.704 684.048">100</tspan></text>
<path transform="matrix(1,0,0,-1,0,523)" stroke-width=".75" stroke-linecap="round" stroke-linejoin="round" fill="none" stroke="#000000" d="M66.24 77.63V508.85"/>
<path transform="matrix(1,0,0,-1,0,523)" stroke-width=".75" stroke-linecap="round" stroke-linejoin="round" fill="none" stroke="#000000" d="M66.24 77.63H59.04"/>
<path transform="matrix(1,0,0,-1,0,523)" stroke-width=".75" stroke-linecap="round" stroke-linejoin="round" fill="none" stroke="#000000" d="M66.24 163.87H59.04"/>
<path transform="matrix(1,0,0,-1,0,523)" stroke-width=".75" stroke-linecap="round" stroke-linejoin="round" fill="none" stroke="#000000" d="M66.24 250.11H59.04"/>
<path transform="matrix(1,0,0,-1,0,523)" stroke-width=".75" stroke-linecap="round" stroke-linejoin="round" fill="none" stroke="#000000" d="M66.24 336.36H59.04"/>
<path transform="matrix(1,0,0,-1,0,523)" stroke-width=".75" stroke-linecap="round" stroke-linejoin="round" fill="none" stroke="#000000" d="M66.24 422.6H59.04"/>
<path transform="matrix(1,0,0,-1,0,523)" stroke-width=".75" stroke-linecap="round" stroke-linejoin="round" fill="none" stroke="#000000" d="M66.24 508.85H59.04"/>
<text xml:space="preserve" transform="matrix(0 -1 1 0 0 523)" font-size="24" font-family="Helvetica"><tspan y="48.96" x="60.95 74.29401 80.966">0.0</tspan></text>
<text xml:space="preserve" transform="matrix(0 -1 1 0 0 523)" font-size="24" font-family="Helvetica"><tspan y="48.96" x="147.19 160.534 167.206">0.2</tspan></text>
<text xml:space="preserve" transform="matrix(0 -1 1 0 0 523)" font-size="24" font-family="Helvetica"><tspan y="48.96" x="233.43 246.77399 253.44599">0.4</tspan></text>
<text xml:space="preserve" transform="matrix(0 -1 1 0 0 523)" font-size="24" font-family="Helvetica"><tspan y="48.96" x="319.68 333.024 339.69599">0.6</tspan></text>
<text xml:space="preserve" transform="matrix(0 -1 1 0 0 523)" font-size="24" font-family="Helvetica"><tspan y="48.96" x="405.92 419.264 425.936">0.8</tspan></text>
<text xml:space="preserve" transform="matrix(0 -1 1 0 0 523)" font-size="24" font-family="Helvetica"><tspan y="48.96" x="492.17 505.514 512.18606">1.0</tspan></text>
<text xml:space="preserve" transform="matrix(1 0 -0 1 0 523)" font-size="24" font-family="Helvetica"><tspan y="-5.76" x="266.28 283.608 296.952 316.944 330.288 343.632 351.624 358.296 371.63999 378.31199 384.98399 397.60798 409.60798 422.95198 436.29597 442.96797 456.31196 469.65596 481.65596 494.99995">Number of hypotheses</tspan></text>
<text xml:space="preserve" transform="matrix(0 -1 1 0 0 523)" font-size="24" font-family="Helvetica"><tspan y="20.16" x="190.09 203.554 216.89801 222.22602 234.22602 247.57 254.242 269.05 282.39399 294.39399 299.722 306.39399 311.722 323.12199 336.46598 343.13798 360.46598 373.80998 380.48197">False Positive Rate</tspan></text>
</svg>
