<svg xmlns="http://www.w3.org/2000/svg" xmlns:xlink="http://www.w3.org/1999/xlink" version="1.1" width="198.95999pt" height="60pt" viewBox="0 0 198.95999 60">
<defs>
<clipPath id="clip_0">
<path transform="matrix(.24,0,0,.24,0,0)" d="M0 0H829.1666V247.55695H0Z" fill-rule="evenodd"/>
</clipPath>
<clipPath id="clip_1">
<path transform="matrix(.24,0,0,.24,0,0)" d="M0 0H826.184V247.55695H0Z" fill-rule="evenodd"/>
</clipPath>
<clipPath id="clip_2">
<path transform="matrix(.24,0,0,.24,0,0)" d="M0 0H829.1666V247.55695H0Z" fill-rule="evenodd"/>
</clipPath>
<clipPath id="clip_3">
<path transform="matrix(.24,0,0,.24,0,0)" d="M0 63.706769H829.1666V99.49813H0Z" fill-rule="evenodd"/>
</clipPath>
<clipPath id="clip_4">
<path transform="matrix(.24,0,0,.24,0,0)" d="M0 63.706769H829.1666V105.46336H0Z" fill-rule="evenodd"/>
</clipPath>
<clipPath id="clip_5">
<path transform="matrix(.24,0,0,.24,0,0)" d="M0 0H829.1666V247.55695H0Z" fill-rule="evenodd"/>
</clipPath>
<clipPath id="clip_6">
<path transform="matrix(.24,0,0,.24,0,0)" d="M0 192.96114H829.1666V240.68296H0Z" fill-rule="evenodd"/>
</clipPath>
<clipPath id="clip_7">
<path transform="matrix(.24,0,0,.24,0,0)" d="M0 192.96114H829.1666V247.55695H0Z" fill-rule="evenodd"/>
</clipPath>
<clipPath id="clip_8">
<path transform="matrix(.24,0,0,.24,0,0)" d="M0 123.77847H829.1666V159.56984H0Z" fill-rule="evenodd"/>
</clipPath>
<clipPath id="clip_9">
<path transform="matrix(.24,0,0,.24,0,0)" d="M0 0H829.1666V247.55695H0Z" fill-rule="evenodd"/>
</clipPath>
<clipPath id="clip_10">
<path transform="matrix(.24,0,0,.24,0,0)" d="M0 81.602458H829.1666V129.32428H0Z" fill-rule="evenodd"/>
</clipPath>
<clipPath id="clip_11">
<path transform="matrix(.24,0,0,.24,0,0)" d="M0 81.602458H829.1666V135.2895H0Z" fill-rule="evenodd"/>
</clipPath>
<clipPath id="clip_12">
<path transform="matrix(.24,0,0,.24,0,0)" d="M0 0H829.1666V247.55695H0Z" fill-rule="evenodd"/>
</clipPath>
<clipPath id="clip_13">
<path transform="matrix(.24,0,0,.24,0,0)" d="M0 34.8826H829.1666V79.62181H0Z" fill-rule="evenodd"/>
</clipPath>
<clipPath id="clip_14">
<path transform="matrix(.24,0,0,.24,0,0)" d="M0 16.986918H829.1666V43.83044H0Z" fill-rule="evenodd"/>
</clipPath>
<clipPath id="clip_15">
<path transform="matrix(.24,0,0,.24,0,0)" d="M0 16.986918H829.1666V82.604419H0Z" fill-rule="evenodd"/>
</clipPath>
<clipPath id="clip_16">
<path transform="matrix(.24,0,0,.24,0,0)" d="M0 123.77847H829.1666V159.56984H0Z" fill-rule="evenodd"/>
</clipPath>
<clipPath id="clip_17">
<path transform="matrix(.24,0,0,.24,0,0)" d="M0 0H829.1666V247.55695H0Z" fill-rule="evenodd"/>
</clipPath>
<clipPath id="clip_18">
<path transform="matrix(.24,0,0,.24,0,0)" d="M0 111.42859H829.1666V159.1504H0Z" fill-rule="evenodd"/>
</clipPath>
<clipPath id="clip_19">
<path transform="matrix(.24,0,0,.24,0,0)" d="M0 111.42859H829.1666V165.11563H0Z" fill-rule="evenodd"/>
</clipPath>
</defs>
<g clip-path="url(#clip_0)">
<path transform="matrix(.7158273,0,0,.7158273,0,0)" d="M0 0H278V85H0Z" fill="#ffffff"/>
</g>
<g clip-path="url(#clip_1)">
<path transform="matrix(.7158273,0,0,.7158273,.35791365,.35791365)" stroke-width="1" stroke-linecap="butt" stroke-miterlimit="10" stroke-linejoin="miter" fill="none" stroke="#000000" d="M28 25 52.3 37.15"/>
<path transform="matrix(.7158273,0,0,.7158273,.35791365,.35791365)" d="M57 39.5H49.17L52.3 37.15V33.24L57 39.5Z"/>
<path transform="matrix(.7158273,0,0,.7158273,.35791365,.35791365)" stroke-width="1" stroke-linecap="butt" stroke-miterlimit="10" stroke-linejoin="miter" fill="none" stroke="#000000" d="M57 39.5H49.17L52.3 37.15V33.24L57 39.5Z"/>
<path transform="matrix(.7158273,0,0,.7158273,.35791365,.35791365)" stroke-width="1" stroke-linecap="butt" stroke-miterlimit="10" stroke-linejoin="miter" fill="none" stroke="#000000" d="M28 60 51.96 52.01"/>
<path transform="matrix(.7158273,0,0,.7158273,.35791365,.35791365)" d="M56.94 50.35 51.41 55.89 51.96 52.01 49.19 49.25 56.94 50.35Z"/>
<path transform="matrix(.7158273,0,0,.7158273,.35791365,.35791365)" stroke-width="1" stroke-linecap="butt" stroke-miterlimit="10" stroke-linejoin="miter" fill="none" stroke="#000000" d="M56.94 50.35 51.41 55.89 51.96 52.01 49.19 49.25 56.94 50.35Z"/>
<path transform="matrix(.7158273,0,0,.7158273,.35791365,.35791365)" stroke-width="1" stroke-linecap="butt" stroke-miterlimit="10" stroke-linejoin="miter" fill="none" stroke="#000000" d="M98 45H161.63"/>
<path transform="matrix(.7158273,0,0,.7158273,.35791365,.35791365)" d="M166.88 45 159.88 48.5 161.63 45 159.88 41.5 166.88 45Z"/>
<path transform="matrix(.7158273,0,0,.7158273,.35791365,.35791365)" stroke-width="1" stroke-linecap="butt" stroke-miterlimit="10" stroke-linejoin="miter" fill="none" stroke="#000000" d="M166.88 45 159.88 48.5 161.63 45 159.88 41.5 166.88 45Z"/>
<path transform="matrix(.7158273,0,0,.7158273,.35791365,.35791365)" stroke-width="1" stroke-linecap="butt" stroke-miterlimit="10" stroke-linejoin="miter" fill="none" stroke="#000000" d="M78 55V75H258V61.37"/>
<path transform="matrix(.7158273,0,0,.7158273,.35791365,.35791365)" d="M258 56.12 261.5 63.12 258 61.37 254.5 63.12 258 56.12Z"/>
<path transform="matrix(.7158273,0,0,.7158273,.35791365,.35791365)" stroke-width="1" stroke-linecap="butt" stroke-miterlimit="10" stroke-linejoin="miter" fill="none" stroke="#000000" d="M258 56.12 261.5 63.12 258 61.37 254.5 63.12 258 56.12Z"/>
<path transform="matrix(.7158273,0,0,.7158273,.35791365,.35791365)" d="M61 35H95C95.39782 35 95.780498 35.07612 96.14803 35.22836 96.51558 35.3806 96.840007 35.59737 97.121318 35.878679 97.40261 36.15998 97.61938 36.484407 97.77162 36.851949 97.92387 37.21949 97.99999 37.602174 98 38V52C97.99999 52.39782 97.92387 52.780504 97.77162 53.148046 97.61938 53.515584 97.40261 53.840009 97.121318 54.121316 96.840007 54.40262 96.51558 54.619394 96.14804 54.771635 95.780498 54.923875 95.39782 54.999998 95 55H61C60.602174 54.999998 60.219488 54.92387 59.851945 54.77163 59.4844 54.61939 59.159978 54.40262 58.878675 54.121316 58.597368 53.840009 58.380594 53.515584 58.22835 53.148046 58.07611 52.780504 57.999998 52.39782 58 52V38C57.999998 37.602174 58.07611 37.21949 58.22835 36.851949 58.380594 36.484407 58.597368 36.15998 58.878675 35.878679 59.159978 35.59737 59.484399 35.3806 59.85194 35.22836 60.219488 35.07612 60.602174 35 61 35Z" fill="#ffffff"/>
<path transform="matrix(.7158273,0,0,.7158273,.35791365,.35791365)" stroke-width="1" stroke-linecap="butt" stroke-miterlimit="4" stroke-linejoin="miter" fill="none" stroke="#000000" d="M61 35H95C95.39782 35 95.780498 35.07612 96.14803 35.22836 96.51558 35.3806 96.840007 35.59737 97.121318 35.878679 97.40261 36.15998 97.61938 36.484407 97.77162 36.851949 97.92387 37.21949 97.99999 37.602174 98 38V52C97.99999 52.39782 97.92387 52.780504 97.77162 53.148046 97.61938 53.515584 97.40261 53.840009 97.121318 54.121316 96.840007 54.40262 96.51558 54.619394 96.14804 54.771635 95.780498 54.923875 95.39782 54.999998 95 55H61C60.602174 54.999998 60.219488 54.92387 59.851945 54.77163 59.4844 54.61939 59.159978 54.40262 58.878675 54.121316 58.597368 53.840009 58.380594 53.515584 58.22835 53.148046 58.07611 52.780504 57.999998 52.39782 58 52V38C57.999998 37.602174 58.07611 37.21949 58.22835 36.851949 58.380594 36.484407 58.597368 36.15998 58.878675 35.878679 59.159978 35.59737 59.484399 35.3806 59.85194 35.22836 60.219488 35.07612 60.602174 35 61 35Z"/>
<path transform="matrix(.7158273,0,0,.7158273,.35791365,.35791365)" stroke-width="1" stroke-linecap="butt" stroke-miterlimit="10" stroke-linejoin="miter" fill="none" stroke="#000000" d="M208 45H228V31.37"/>
<path transform="matrix(.7158273,0,0,.7158273,.35791365,.35791365)" d="M228 26.12 231.5 33.12 228 31.37 224.5 33.12 228 26.12Z"/>
<path transform="matrix(.7158273,0,0,.7158273,.35791365,.35791365)" stroke-width="1" stroke-linecap="butt" stroke-miterlimit="10" stroke-linejoin="miter" fill="none" stroke="#000000" d="M228 26.12 231.5 33.12 228 31.37 224.5 33.12 228 26.12Z"/>
<path transform="matrix(.7158273,0,0,.7158273,.35791365,.35791365)" d="M171 35H205C205.39781 35 205.78047 35.07612 206.14801 35.22836 206.51555 35.3806 206.83997 35.59737 207.12129 35.878679 207.40259 36.15998 207.61936 36.484407 207.7716 36.851949 207.92385 37.21949 207.99999 37.602174 208 38V52C207.99999 52.39782 207.92385 52.780504 207.7716 53.148046 207.61936 53.515584 207.40259 53.840009 207.12129 54.121316 206.83997 54.40262 206.51555 54.619394 206.14801 54.771635 205.78047 54.923875 205.39781 54.999998 205 55H171C170.60218 54.999998 170.21949 54.92387 169.85193 54.77163 169.48439 54.61939 169.15998 54.40262 168.87868 54.121316 168.59737 53.840009 168.38059 53.515584 168.22835 53.148046 168.07611 52.780504 167.99999 52.39782 168 52V38C167.99999 37.602174 168.07611 37.21949 168.22835 36.851949 168.38059 36.484407 168.59737 36.15998 168.87868 35.878679 169.15998 35.59737 169.48439 35.3806 169.85193 35.22836 170.21949 35.07612 170.60218 35 171 35Z" fill="#ffffff"/>
<path transform="matrix(.7158273,0,0,.7158273,.35791365,.35791365)" stroke-width="1" stroke-linecap="butt" stroke-miterlimit="4" stroke-linejoin="miter" fill="none" stroke="#000000" d="M171 35H205C205.39781 35 205.78047 35.07612 206.14801 35.22836 206.51555 35.3806 206.83997 35.59737 207.12129 35.878679 207.40259 36.15998 207.61936 36.484407 207.7716 36.851949 207.92385 37.21949 207.99999 37.602174 208 38V52C207.99999 52.39782 207.92385 52.780504 207.7716 53.148046 207.61936 53.515584 207.40259 53.840009 207.12129 54.121316 206.83997 54.40262 206.51555 54.619394 206.14801 54.771635 205.78047 54.923875 205.39781 54.999998 205 55H171C170.60218 54.999998 170.21949 54.92387 169.85193 54.77163 169.48439 54.61939 169.15998 54.40262 168.87868 54.121316 168.59737 53.840009 168.38059 53.515584 168.22835 53.148046 168.07611 52.780504 167.99999 52.39782 168 52V38C167.99999 37.602174 168.07611 37.21949 168.22835 36.851949 168.38059 36.484407 168.59737 36.15998 168.87868 35.878679 169.15998 35.59737 169.48439 35.3806 169.85193 35.22836 170.21949 35.07612 170.60218 35 171 35Z"/>
<path transform="matrix(.7158273,0,0,.7158273,.35791365,.35791365)" stroke-width="1" stroke-linecap="butt" stroke-miterlimit="10" stroke-linejoin="miter" fill="none" stroke="#000000" d=""/>
<path transform="matrix(.7158273,0,0,.7158273,.35791365,.35791365)" d=""/>
<path transform="matrix(.7158273,0,0,.7158273,.35791365,.35791365)" stroke-width="1" stroke-linecap="butt" stroke-miterlimit="10" stroke-linejoin="miter" fill="none" stroke="#000000" d=""/>
</g>
<g clip-path="url(#clip_2)">
<text xml:space="preserve" transform="matrix(.7158273 0 0 .7158273 3.5791364 13.857969)" font-size="12" font-family="Helvetica"><tspan y="11" x="19.296875"> </tspan></text>
</g>
<g clip-path="url(#clip_3)">
<text xml:space="preserve" transform="matrix(.7158273 0 0 .7158273 3.5791364 13.857969)" font-size="14.52" font-family="Unnamed"><tspan y="11" x="7.6875">x</tspan></text>
</g>
<g clip-path="url(#clip_4)">
<text xml:space="preserve" transform="matrix(.7158273 0 0 .7158273 3.5791364 13.857969)" font-size="10.26" font-family="Unnamed"><tspan y="13" x="14.125">t</tspan></text>
</g>
<g clip-path="url(#clip_5)">
<text xml:space="preserve" transform="matrix(.7158273 0 0 .7158273 1.7895682 36.28909)" font-size="12" font-family="Helvetica"><tspan y="27" x="28"> </tspan></text>
</g>
<g clip-path="url(#clip_6)">
<text xml:space="preserve" transform="matrix(.7158273 0 0 .7158273 1.7895682 36.28909)" font-size="14.52" font-family="Unnamed"><tspan y="27" x="4">h</tspan></text>
</g>
<g clip-path="url(#clip_7)">
<text xml:space="preserve" transform="matrix(.7158273 0 0 .7158273 1.7895682 36.28909)" font-size="10.26" font-family="Unnamed"><tspan y="29" x="11.25">t</tspan></text>
<text xml:space="preserve" transform="matrix(.7158273 0 0 .7158273 1.7895682 36.28909)" font-size="10.26" font-family="Unnamed"><tspan y="29" x="14.21875">&#x2212;</tspan></text>
<text xml:space="preserve" transform="matrix(.7158273 0 0 .7158273 1.7895682 36.28909)" font-size="10.26" font-family="Unnamed"><tspan y="29" x="21.234375">1</tspan></text>
</g>
<g clip-path="url(#clip_8)">
<text xml:space="preserve" transform="matrix(.7158273 0 0 .7158273 40.802156 28.275179)" font-size="14.52" font-family="Unnamed"><tspan y="11" x="17.34375">&#x03c3;</tspan></text>
</g>
<g clip-path="url(#clip_9)">
<text xml:space="preserve" transform="matrix(.7158273 0 0 .7158273 82.67805 21.016243)" font-size="12" font-family="Helvetica"><tspan y="11" x="23.796875"> </tspan></text>
</g>
<g clip-path="url(#clip_10)">
<text xml:space="preserve" transform="matrix(.7158273 0 0 .7158273 82.67805 21.016243)" font-size="14.52" font-family="Unnamed"><tspan y="11" x="12.1875">h</tspan></text>
</g>
<g clip-path="url(#clip_11)">
<text xml:space="preserve" transform="matrix(.7158273 0 0 .7158273 82.67805 21.016243)" font-size="10.26" font-family="Unnamed"><tspan y="13" x="19.4375">t</tspan></text>
</g>
<g clip-path="url(#clip_12)">
<text xml:space="preserve" transform="matrix(.7158273 0 0 .7158273 149.96582 5.5085146)" font-size="12" font-family="Helvetica"><tspan y="13" x="25.21875"> </tspan></text>
</g>
<g clip-path="url(#clip_13)">
<text xml:space="preserve" transform="matrix(.7158273 0 0 .7158273 149.96582 5.5085146)" font-size="14.52" font-family="Unnamed"><tspan y="13" x="13.609375">y</tspan></text>
</g>
<g clip-path="url(#clip_14)">
<text xml:space="preserve" transform="matrix(.7158273 0 0 .7158273 149.96582 5.5085146)" font-size="14.52" font-family="Unnamed"><tspan y="12" x="12.78125">&#x02c6;</tspan></text>
</g>
<g clip-path="url(#clip_15)">
<text xml:space="preserve" transform="matrix(.7158273 0 0 .7158273 149.96582 5.5085146)" font-size="10.26" font-family="Unnamed"><tspan y="17" x="20.90625">t</tspan></text>
</g>
<g clip-path="url(#clip_16)">
<text xml:space="preserve" transform="matrix(.7158273 0 0 .7158273 119.54316 28.275179)" font-size="14.52" font-family="Unnamed"><tspan y="11" x="17.34375">&#x03c3;</tspan></text>
</g>
<g clip-path="url(#clip_17)">
<text xml:space="preserve" transform="matrix(.7158273 0 0 .7158273 172.15647 28.174515)" font-size="12" font-family="Helvetica"><tspan y="11" x="23.796875"> </tspan></text>
</g>
<g clip-path="url(#clip_18)">
<text xml:space="preserve" transform="matrix(.7158273 0 0 .7158273 172.15647 28.174515)" font-size="14.52" font-family="Unnamed"><tspan y="11" x="12.1875">h</tspan></text>
</g>
<g clip-path="url(#clip_19)">
<text xml:space="preserve" transform="matrix(.7158273 0 0 .7158273 172.15647 28.174515)" font-size="10.26" font-family="Unnamed"><tspan y="13" x="19.4375">t</tspan></text>
</g>
</svg>
