<svg xmlns="http://www.w3.org/2000/svg" xmlns:xlink="http://www.w3.org/1999/xlink" version="1.1" width="337.45579pt" height="220.7531pt" viewBox="0 0 337.45579 220.7531">
<defs>
<clipPath id="clip_0">
<path transform="matrix(1,0,0,-1,-426.3066,406.9801)" d="M0 595.92H842V.04306083H0Z" fill-rule="evenodd"/>
</clipPath>
<clipPath id="clip_1">
<path transform="matrix(1,0,0,-1,-426.3066,406.9801)" d="M0 0H841.92V595.92H0Z"/>
</clipPath>
<clipPath id="clip_2">
<path transform="matrix(1,0,0,-1,-426.3066,406.9801)" d="M0 595.92H842V.7627728H0Z" fill-rule="evenodd"/>
</clipPath>
<clipPath id="clip_3">
<path transform="matrix(1,0,0,-1,-426.3066,406.9801)" d="M0 0H841.92V595.92H0Z"/>
</clipPath>
<clipPath id="clip_4">
<path transform="matrix(1,0,0,-1,-426.3066,406.9801)" d="M0 204.7858H842V191.1123H0Z" fill-rule="evenodd"/>
</clipPath>
<clipPath id="clip_5">
<path transform="matrix(1,0,0,-1,-426.3066,406.9801)" d="M0 0H841.92V595.92H0Z"/>
</clipPath>
<clipPath id="clip_6">
<path transform="matrix(1,0,0,-1,-426.3066,406.9801)" d="M0 204.7858H842V188.2337H0Z" fill-rule="evenodd"/>
</clipPath>
<clipPath id="clip_7">
<path transform="matrix(1,0,0,-1,-426.3066,406.9801)" d="M0 0H841.92V595.92H0Z"/>
</clipPath>
<clipPath id="clip_8">
<path transform="matrix(1,0,0,-1,-426.3066,406.9801)" d="M0 595.92H842V.04306083H0Z"/>
</clipPath>
<clipPath id="clip_9">
<path transform="matrix(1,0,0,-1,-426.3066,406.9801)" d="M0 595.92H842V.7627728H0Z"/>
</clipPath>
<clipPath id="clip_10">
<path transform="matrix(1,0,0,-1,-426.3066,406.9801)" d="M426.3974 595.92H440.0709V.7627728H426.3974Z" fill-rule="evenodd"/>
</clipPath>
<clipPath id="clip_11">
<path transform="matrix(1,0,0,-1,-426.3066,406.9801)" d="M0 0H841.92V595.92H0Z"/>
</clipPath>
<clipPath id="clip_12">
<path transform="matrix(1,0,0,-1,-426.3066,406.9801)" d="M0 595.92H842V.04306083H0Z"/>
</clipPath>
<clipPath id="clip_13">
<path transform="matrix(1,0,0,-1,-426.3066,406.9801)" d="M0 595.92H842V.7627728H0Z"/>
</clipPath>
<clipPath id="clip_14">
<path transform="matrix(1,0,0,-1,-426.3066,406.9801)" d="M426.3974 595.92H442.9496V.7627728H426.3974Z" fill-rule="evenodd"/>
</clipPath>
<clipPath id="clip_15">
<path transform="matrix(1,0,0,-1,-426.3066,406.9801)" d="M0 0H841.92V595.92H0Z"/>
</clipPath>
</defs>
<g clip-path="url(#clip_0)">
<g clip-path="url(#clip_1)">
<path transform="matrix(1,0,0,-1,-426.3066,406.9801)" d="M0 595.92H841.9999V.04310134H0Z" fill="#ffffff"/>
<path transform="matrix(1,0,0,-1,-426.3066,406.9801)" d="M0 595.92H841.9999V.7627594H0Z" fill="#ffffff"/>
</g>
</g>
<g clip-path="url(#clip_2)">
<g clip-path="url(#clip_3)">
<path transform="matrix(.7196581,0,0,.7196581,-425.94679,-188.58008)" stroke-width="3" stroke-linecap="butt" stroke-miterlimit="10" stroke-linejoin="miter" fill="none" stroke="#000000" d="M620 540H1049.9"/>
<path transform="matrix(1,0,0,-1,-426.3066,406.9801)" d="M760.7865 206.9448 754.3096 203.7063 755.9288 206.9448 754.3096 210.1833 760.7865 206.9448Z"/>
<path transform="matrix(.7196581,0,0,.7196581,-425.94679,-188.58008)" stroke-width="3" stroke-linecap="butt" stroke-miterlimit="10" stroke-linejoin="miter" fill="none" stroke="#000000" d="M1056.65 540 1047.65 544.5 1049.9 540 1047.65 535.5 1056.65 540Z"/>
<path transform="matrix(.7196581,0,0,.7196581,-425.94679,-188.58008)" stroke-width="3" stroke-linecap="butt" stroke-miterlimit="10" stroke-linejoin="miter" fill="none" stroke="#000000" d="M620 540V310.1"/>
<path transform="matrix(1,0,0,-1,-426.3066,406.9801)" d="M446.5478 377.2519 449.7863 370.7749 446.5478 372.3942 443.3094 370.7749 446.5478 377.2519Z"/>
<path transform="matrix(.7196581,0,0,.7196581,-425.94679,-188.58008)" stroke-width="3" stroke-linecap="butt" stroke-miterlimit="10" stroke-linejoin="miter" fill="none" stroke="#000000" d="M620 303.35 624.5 312.35 620 310.1 615.5 312.35 620 303.35Z"/>
<path transform="matrix(1,0,0,-1,-426.3066,406.9801)" d="M511.3171 278.9106C511.317 278.4381 511.2709 277.9701 511.1787 277.5066 511.0865 277.0432 510.95 276.5932 510.7691 276.1566 510.5884 275.72 510.3667 275.3053 510.1041 274.9124 509.8416 274.5195 509.5433 274.156 509.2092 273.8219 508.875 273.4878 508.5115 273.1894 508.1186 272.9269 507.7257 272.6644 507.311 272.4427 506.8744 272.2619 506.4379 272.081 505.9879 271.9445 505.5244 271.8523 505.061 271.7601 504.593 271.714 504.1205 271.714 503.648 271.714 503.18 271.7601 502.7165 271.8523 502.2531 271.9445 501.803 272.081 501.3664 272.2619 500.9298 272.4427 500.5151 272.6644 500.1222 272.9269 499.7294 273.1894 499.3658 273.4878 499.0317 273.8219 498.6976 274.156 498.3992 274.5195 498.1366 274.9124 497.8742 275.3053 497.6525 275.72 497.4716 276.1566 497.2908 276.5932 497.1543 277.0432 497.0621 277.5066 496.9699 277.9701 496.9239 278.4381 496.9239 278.9106 496.9239 279.3831 496.9699 279.8511 497.0621 280.3146 497.1543 280.778 497.2908 281.2281 497.4716 281.6646 497.6525 282.1012 497.8742 282.5159 498.1367 282.9088 498.3992 283.3017 498.6976 283.6652 499.0317 283.9994 499.3658 284.3335 499.7293 284.6318 500.1222 284.8944 500.5151 285.1569 500.9298 285.3786 501.3664 285.5594 501.803 285.7402 502.253 285.8767 502.7165 285.9689 503.18 286.0611 503.648 286.1072 504.1205 286.1072 504.593 286.1072 505.0609 286.0611 505.5244 285.9689 505.9879 285.8767 506.4379 285.7402 506.8744 285.5594 507.311 285.3786 507.7257 285.1569 508.1186 284.8944 508.5115 284.6318 508.875 284.3335 509.2092 283.9994 509.5433 283.6652 509.8416 283.3017 510.1041 282.9088 510.3667 282.516 510.5884 282.1012 510.7691 281.6647 510.95 281.2281 511.0865 280.7781 511.1787 280.3146 511.2709 279.8511 511.317 279.3831 511.3171 278.9106Z" fill="#00ff00"/>
<path transform="matrix(1,0,0,-1,-426.3066,406.9801)" d="M561.6931 250.1243C561.6931 249.6518 561.647 249.1838 561.5548 248.7203 561.4626 248.2569 561.3261 247.8069 561.1453 247.3703 560.9644 246.9338 560.7428 246.519 560.4802 246.1261 560.2177 245.7332 559.9194 245.3697 559.5852 245.0356 559.2511 244.7014 558.8875 244.4031 558.4946 244.1406 558.1017 243.8781 557.687 243.6564 557.2505 243.4755 556.8139 243.2947 556.3639 243.1582 555.9005 243.066 555.437 242.9738 554.969 242.9277 554.4965 242.9277 554.024 242.9277 553.5559 242.9738 553.0925 243.066 552.629 243.1582 552.179 243.2947 551.7424 243.4755 551.3059 243.6564 550.8912 243.8781 550.4983 244.1406 550.1054 244.4031 549.7419 244.7014 549.4078 245.0356 549.0736 245.3697 548.7753 245.7332 548.5128 246.1261 548.2502 246.519 548.0286 246.9338 547.8477 247.3703 547.6669 247.8069 547.5304 248.2569 547.4382 248.7203 547.346 249.1838 547.2999 249.6518 547.3 250.1243 547.2999 250.5968 547.346 251.0648 547.4382 251.5283 547.5304 251.9917 547.6669 252.4418 547.8477 252.8783 548.0286 253.3149 548.2502 253.7296 548.5128 254.1225 548.7753 254.5154 549.0736 254.8789 549.4078 255.213 549.7419 255.5472 550.1054 255.8455 550.4983 256.108 550.8912 256.3706 551.3059 256.5922 551.7424 256.7731 552.179 256.9539 552.629 257.0904 553.0925 257.1826 553.5559 257.2748 554.024 257.3209 554.4965 257.3209 554.969 257.3209 555.437 257.2748 555.9005 257.1826 556.3639 257.0904 556.8139 256.9539 557.2505 256.7731 557.687 256.5922 558.1018 256.3706 558.4947 256.108 558.8876 255.8455 559.2511 255.5472 559.5852 255.213 559.9194 254.8789 560.2177 254.5154 560.4802 254.1225 560.7428 253.7296 560.9644 253.3149 561.1453 252.8783 561.3261 252.4418 561.4626 251.9917 561.5548 251.5283 561.647 251.0648 561.6931 250.5968 561.6931 250.1243Z" fill="#00ff00"/>
<path transform="matrix(1,0,0,-1,-426.3066,406.9801)" d="M590.4794 278.9106C590.4794 278.4381 590.4333 277.9701 590.3411 277.5066 590.2489 277.0432 590.1125 276.5932 589.9316 276.1566 589.7508 275.72 589.5291 275.3053 589.2666 274.9124 589.004 274.5195 588.7057 274.156 588.3716 273.8219 588.0375 273.4878 587.6739 273.1894 587.281 272.9269 586.8881 272.6644 586.4734 272.4427 586.0368 272.2619 585.6003 272.081 585.1503 271.9445 584.6868 271.8523 584.2233 271.7601 583.7554 271.714 583.2829 271.714 582.8103 271.714 582.3423 271.7601 581.8788 271.8523 581.4154 271.9445 580.9654 272.081 580.5288 272.2619 580.0922 272.4427 579.6775 272.6644 579.2846 272.9269 578.8917 273.1894 578.5282 273.4878 578.1941 273.8219 577.86 274.156 577.5616 274.5195 577.2991 274.9124 577.0365 275.3053 576.8148 275.72 576.634 276.1566 576.4532 276.5932 576.3167 277.0432 576.2245 277.5066 576.1323 277.9701 576.0862 278.4381 576.0863 278.9106 576.0862 279.3831 576.1324 279.8511 576.2246 280.3146 576.3167 280.778 576.4532 281.2281 576.634 281.6646 576.8148 282.1012 577.0365 282.5159 577.2991 282.9088 577.5616 283.3017 577.86 283.6652 578.1941 283.9994 578.5282 284.3335 578.8917 284.6318 579.2846 284.8944 579.6775 285.1569 580.0922 285.3786 580.5288 285.5594 580.9653 285.7402 581.4154 285.8767 581.8788 285.9689 582.3423 286.0611 582.8103 286.1072 583.2829 286.1072 583.7554 286.1072 584.2233 286.0611 584.6868 285.9689 585.1503 285.8767 585.6003 285.7402 586.0368 285.5594 586.4734 285.3786 586.8881 285.1569 587.281 284.8944 587.6739 284.6318 588.0375 284.3335 588.3716 283.9994 588.7057 283.6652 589.004 283.3017 589.2666 282.9088 589.5291 282.516 589.7507 282.1012 589.9316 281.6647 590.1124 281.2281 590.2489 280.7781 590.3411 280.3146 590.4333 279.8511 590.4794 279.3831 590.4794 278.9106Z" fill="#00ff00"/>
<path transform="matrix(1,0,0,-1,-426.3066,406.9801)" d="M568.8897 300.5003C568.8897 300.0278 568.8436 299.5598 568.7514 299.0964 568.6591 298.6329 568.5226 298.1829 568.3418 297.7464 568.161 297.3098 567.9393 296.8951 567.6768 296.5022 567.4143 296.1093 567.1159 295.7458 566.7818 295.4116 566.4477 295.0775 566.0842 294.7791 565.6913 294.5166 565.2983 294.2541 564.8836 294.0324 564.4471 293.8516 564.0105 293.6708 563.5605 293.5342 563.097 293.4421 562.6336 293.3499 562.1656 293.3038 561.6931 293.3038 561.2205 293.3038 560.7525 293.3499 560.289 293.4421 559.8256 293.5342 559.3755 293.6708 558.939 293.8516 558.5024 294.0324 558.0877 294.2541 557.6948 294.5166 557.3019 294.7791 556.9384 295.0775 556.6043 295.4116 556.2702 295.7458 555.9718 296.1093 555.7093 296.5022 555.4467 296.8951 555.2251 297.3098 555.0442 297.7464 554.8634 298.1829 554.727 298.6329 554.6348 299.0964 554.5426 299.5598 554.4965 300.0278 554.4965 300.5003 554.4965 300.9729 554.5426 301.4409 554.6347 301.9044 554.7269 302.3678 554.8634 302.8178 555.0442 303.2544 555.2251 303.6909 555.4468 304.1057 555.7093 304.4986 555.9718 304.8915 556.2702 305.255 556.6043 305.5891 556.9384 305.9233 557.3019 306.2216 557.6949 306.4841 558.0878 306.7466 558.5025 306.9683 558.939 307.1492 559.3756 307.33 559.8256 307.4665 560.2891 307.5586 560.7525 307.6508 561.2205 307.6969 561.6931 307.6969 562.1656 307.6969 562.6336 307.6508 563.097 307.5587 563.5605 307.4665 564.0105 307.33 564.4471 307.1492 564.8837 306.9683 565.2983 306.7466 565.6913 306.4841 566.0842 306.2216 566.4477 305.9233 566.7818 305.5891 567.1159 305.255 567.4143 304.8915 567.6768 304.4986 567.9393 304.1057 568.161 303.6909 568.3418 303.2544 568.5226 302.8178 568.6591 302.3678 568.7513 301.9044 568.8435 301.4409 568.8897 300.9729 568.8897 300.5003Z" fill="#00ff00"/>
<path transform="matrix(1,0,0,-1,-426.3066,406.9801)" d="M554.4965 307.6969C554.4965 307.2244 554.4504 306.7564 554.3582 306.293 554.266 305.8295 554.1295 305.3795 553.9487 304.9429 553.7678 304.5063 553.5462 304.0916 553.2837 303.6987 553.0211 303.3058 552.7228 302.9423 552.3886 302.6082 552.0545 302.274 551.691 301.9757 551.2981 301.7132 550.9052 301.4507 550.4905 301.229 550.0539 301.0482 549.6173 300.8674 549.1673 300.7308 548.7039 300.6386 548.2404 300.5465 547.7725 300.5004 547.3 300.5003 546.8274 300.5004 546.3594 300.5465 545.8959 300.6386 545.4325 300.7308 544.9825 300.8674 544.5459 301.0482 544.1093 301.229 543.6946 301.4507 543.3017 301.7132 542.9088 301.9757 542.5453 302.274 542.2112 302.6082 541.877 302.9423 541.5787 303.3058 541.3161 303.6987 541.0536 304.0916 540.832 304.5063 540.6511 304.9429 540.4703 305.3795 540.3338 305.8295 540.2416 306.293 540.1494 306.7564 540.1033 307.2244 540.1034 307.6969 540.1033 308.1695 540.1494 308.6375 540.2416 309.1009 540.3338 309.5644 540.4703 310.0144 540.6512 310.451 540.832 310.8876 541.0536 311.3023 541.3162 311.6952 541.5787 312.0881 541.877 312.4516 542.2112 312.7857 542.5453 313.1198 542.9088 313.4181 543.3017 313.6807 543.6946 313.9432 544.1093 314.1649 544.5459 314.3457 544.9825 314.5265 545.4325 314.6631 545.8959 314.7552 546.3594 314.8474 546.8274 314.8935 547.3 314.8935 547.7725 314.8935 548.2404 314.8474 548.7039 314.7552 549.1673 314.6631 549.6173 314.5265 550.0539 314.3457 550.4905 314.1649 550.9052 313.9432 551.2981 313.6807 551.691 313.4181 552.0545 313.1198 552.3886 312.7857 552.7228 312.4516 553.0211 312.0881 553.2837 311.6952 553.5462 311.3023 553.7678 310.8876 553.9487 310.451 554.1295 310.0144 554.266 309.5644 554.3582 309.1009 554.4504 308.6375 554.4965 308.1695 554.4965 307.6969Z" fill="#00ff00"/>
<path transform="matrix(1,0,0,-1,-426.3066,406.9801)" d="M662.4452 358.073C662.4452 357.6005 662.3991 357.1325 662.3069 356.669 662.2147 356.2056 662.0782 355.7556 661.8974 355.319 661.7165 354.8824 661.4949 354.4677 661.2323 354.0748 660.9698 353.6819 660.6715 353.3184 660.3374 352.9843 660.0032 352.6501 659.6397 352.3518 659.2468 352.0893 658.8539 351.8268 658.4392 351.6051 658.0026 351.4243 657.566 351.2434 657.116 351.1069 656.6526 351.0147 656.1891 350.9225 655.7212 350.8764 655.2487 350.8764 654.7761 350.8764 654.3081 350.9225 653.8447 351.0147 653.3812 351.1069 652.9312 351.2434 652.4946 351.4243 652.058 351.6051 651.6433 351.8268 651.2504 352.0893 650.8575 352.3518 650.494 352.6501 650.1599 352.9843 649.8257 353.3184 649.5274 353.6819 649.2649 354.0748 649.0023 354.4677 648.7807 354.8824 648.5998 355.319 648.419 355.7556 648.2825 356.2056 648.1903 356.669 648.0982 357.1325 648.0521 357.6005 648.0521 358.073 648.0521 358.5455 648.0982 359.0135 648.1904 359.477 648.2825 359.9405 648.419 360.3905 648.5998 360.827 648.7807 361.2636 649.0023 361.6783 649.2648 362.0712 649.5274 362.4641 649.8257 362.8276 650.1599 363.1617 650.494 363.4959 650.8575 363.7942 651.2504 364.0568 651.6433 364.3193 652.058 364.541 652.4946 364.7218 652.9311 364.9026 653.3812 365.0391 653.8446 365.1313 654.3081 365.2235 654.7761 365.2696 655.2487 365.2696 655.7212 365.2696 656.1891 365.2235 656.6526 365.1313 657.116 365.0391 657.566 364.9026 658.0026 364.7218 658.4392 364.541 658.8539 364.3193 659.2468 364.0568 659.6397 363.7942 660.0032 363.4959 660.3374 363.1617 660.6715 362.8276 660.9698 362.4641 661.2323 362.0712 661.4949 361.6783 661.7165 361.2636 661.8974 360.827 662.0782 360.3905 662.2147 359.9405 662.3069 359.477 662.3991 359.0135 662.4452 358.5455 662.4452 358.073Z" fill="#00ff00"/>
<path transform="matrix(1,0,0,-1,-426.3066,406.9801)" d="M504.1205 250.1243C504.1204 249.6518 504.0743 249.1838 503.9821 248.7203 503.8899 248.2569 503.7534 247.8069 503.5726 247.3703 503.3918 246.9338 503.1701 246.519 502.9075 246.1261 502.645 245.7332 502.3467 245.3697 502.0126 245.0356 501.6785 244.7014 501.3149 244.4031 500.922 244.1406 500.5291 243.8781 500.1144 243.6564 499.6779 243.4755 499.2413 243.2947 498.7913 243.1582 498.3279 243.066 497.8645 242.9738 497.3964 242.9277 496.9239 242.9277 496.4514 242.9277 495.9833 242.9738 495.5199 243.066 495.0564 243.1582 494.6064 243.2947 494.1698 243.4755 493.7333 243.6564 493.3185 243.8781 492.9256 244.1406 492.5327 244.4031 492.1693 244.7014 491.8351 245.0356 491.501 245.3697 491.2026 245.7332 490.9402 246.1261 490.6776 246.519 490.4559 246.9338 490.2751 247.3703 490.0942 247.8069 489.9577 248.2569 489.8655 248.7203 489.7734 249.1838 489.7273 249.6518 489.7273 250.1243 489.7273 250.5968 489.7734 251.0648 489.8655 251.5283 489.9577 251.9917 490.0942 252.4418 490.2751 252.8783 490.4559 253.3149 490.6776 253.7296 490.9401 254.1225 491.2026 254.5154 491.501 254.8789 491.8351 255.213 492.1693 255.5472 492.5327 255.8455 492.9256 256.108 493.3185 256.3706 493.7333 256.5922 494.1698 256.7731 494.6064 256.9539 495.0564 257.0904 495.5199 257.1826 495.9833 257.2748 496.4514 257.3209 496.9239 257.3209 497.3964 257.3209 497.8645 257.2748 498.3279 257.1826 498.7913 257.0904 499.2413 256.9539 499.6779 256.7731 500.1144 256.5922 500.5292 256.3706 500.9221 256.108 501.315 255.8455 501.6785 255.5472 502.0126 255.213 502.3467 254.8789 502.6451 254.5154 502.9076 254.1225 503.1701 253.7296 503.3918 253.3149 503.5726 252.8783 503.7534 252.4418 503.8899 251.9917 503.9821 251.5283 504.0743 251.0648 504.1204 250.5968 504.1205 250.1243Z" fill="#00ff00"/>
<path transform="matrix(1,0,0,-1,-426.3066,406.9801)" d="M568.8897 350.8764C568.8897 350.4039 568.8436 349.9359 568.7514 349.4724 568.6591 349.009 568.5226 348.559 568.3418 348.1224 568.161 347.6859 567.9393 347.2711 567.6768 346.8782 567.4143 346.4854 567.1159 346.1218 566.7818 345.7877 566.4477 345.4536 566.0842 345.1552 565.6913 344.8927 565.2983 344.6302 564.8836 344.4085 564.4471 344.2277 564.0105 344.0468 563.5605 343.9103 563.097 343.8181 562.6336 343.726 562.1656 343.6798 561.6931 343.6798 561.2205 343.6798 560.7525 343.726 560.289 343.8181 559.8256 343.9103 559.3755 344.0468 558.939 344.2277 558.5024 344.4085 558.0877 344.6302 557.6948 344.8927 557.3019 345.1552 556.9384 345.4536 556.6043 345.7877 556.2702 346.1218 555.9718 346.4854 555.7093 346.8782 555.4467 347.2711 555.2251 347.6859 555.0442 348.1224 554.8634 348.559 554.727 349.009 554.6348 349.4724 554.5426 349.9359 554.4965 350.4039 554.4965 350.8764 554.4965 351.349 554.5426 351.817 554.6347 352.2804 554.7269 352.7439 554.8634 353.1939 555.0442 353.6305 555.2251 354.067 555.4468 354.4818 555.7093 354.8747 555.9718 355.2676 556.2702 355.6311 556.6043 355.9652 556.9384 356.2993 557.3019 356.5977 557.6949 356.8602 558.0878 357.1227 558.5025 357.3444 558.939 357.5252 559.3756 357.706 559.8256 357.8425 560.2891 357.9347 560.7525 358.0269 561.2205 358.073 561.6931 358.073 562.1656 358.073 562.6336 358.0269 563.097 357.9347 563.5605 357.8425 564.0105 357.706 564.4471 357.5252 564.8837 357.3444 565.2983 357.1227 565.6913 356.8602 566.0842 356.5977 566.4477 356.2993 566.7818 355.9652 567.1159 355.6311 567.4143 355.2676 567.6768 354.8747 567.9393 354.4818 568.161 354.067 568.3418 353.6305 568.5226 353.1939 568.6591 352.7439 568.7513 352.2804 568.8435 351.817 568.8897 351.349 568.8897 350.8764Z" fill="#ff0000"/>
<path transform="matrix(1,0,0,-1,-426.3066,406.9801)" d="M669.6418 394.0559C669.6418 393.5834 669.5957 393.1154 669.5035 392.6519 669.4113 392.1885 669.2748 391.7385 669.094 391.3019 668.9131 390.8654 668.6915 390.4506 668.4289 390.0577 668.1665 389.6648 667.8681 389.3013 667.534 388.9672 667.1999 388.633 666.8363 388.3347 666.4434 388.0722 666.0505 387.8096 665.6358 387.588 665.1992 387.4071 664.7627 387.2263 664.3127 387.0898 663.8492 386.9976 663.3858 386.9054 662.9177 386.8593 662.4452 386.8593 661.9727 386.8593 661.5047 386.9054 661.0412 386.9976 660.5778 387.0898 660.1277 387.2263 659.6912 387.4071 659.2546 387.588 658.8399 387.8096 658.447 388.0722 658.0541 388.3347 657.6906 388.633 657.3565 388.9672 657.0223 389.3013 656.724 389.6648 656.4615 390.0577 656.1989 390.4506 655.9772 390.8654 655.7964 391.3019 655.6156 391.7385 655.4791 392.1885 655.3869 392.6519 655.2947 393.1154 655.2486 393.5834 655.2487 394.0559 655.2486 394.5284 655.2947 394.9964 655.3869 395.4599 655.4791 395.9233 655.6156 396.3733 655.7964 396.8099 655.9772 397.2465 656.1989 397.6612 656.4614 398.0541 656.724 398.447 657.0223 398.8105 657.3565 399.1447 657.6906 399.4788 658.0541 399.7771 658.447 400.0396 658.8399 400.3022 659.2546 400.5239 659.6911 400.7047 660.1277 400.8855 660.5778 401.022 661.0412 401.1142 661.5047 401.2064 661.9727 401.2525 662.4452 401.2525 662.9177 401.2525 663.3858 401.2064 663.8492 401.1142 664.3127 401.022 664.7627 400.8855 665.1992 400.7047 665.6358 400.5239 666.0505 400.3022 666.4434 400.0397 666.8363 399.7771 667.1999 399.4788 667.534 399.1447 667.8681 398.8105 668.1665 398.447 668.4289 398.0541 668.6915 397.6612 668.9131 397.2465 669.094 396.8099 669.2748 396.3733 669.4113 395.9233 669.5035 395.4599 669.5957 394.9964 669.6418 394.5284 669.6418 394.0559Z" fill="#00ff00"/>
<path transform="matrix(1,0,0,-1,-426.3066,406.9801)" d="M691.2316 372.4662C691.2315 371.9936 691.1854 371.5256 691.0932 371.0622 691.001 370.5987 690.8645 370.1487 690.6837 369.7122 690.5029 369.2756 690.2812 368.8609 690.0186 368.468 689.7561 368.0751 689.4578 367.7115 689.1237 367.3774 688.7895 367.0433 688.426 366.745 688.0331 366.4824 687.6402 366.2199 687.2255 365.9983 686.7889 365.8174 686.3524 365.6366 685.9024 365.5001 685.4389 365.4079 684.9755 365.3157 684.5075 365.2696 684.035 365.2696 683.5624 365.2696 683.0944 365.3157 682.6309 365.4079 682.1675 365.5001 681.7175 365.6366 681.2809 365.8174 680.8444 365.9983 680.4296 366.2199 680.0368 366.4824 679.6439 366.745 679.2803 367.0433 678.9462 367.3774 678.6121 367.7115 678.3137 368.0751 678.0513 368.468 677.7887 368.8609 677.567 369.2756 677.3862 369.7122 677.2053 370.1487 677.0688 370.5987 676.9766 371.0622 676.8844 371.5256 676.8384 371.9936 676.8384 372.4662 676.8384 372.9387 676.8844 373.4067 676.9766 373.8702 677.0688 374.3336 677.2053 374.7836 677.3862 375.2202 677.567 375.6568 677.7887 376.0715 678.0512 376.4644 678.3137 376.8573 678.6121 377.2208 678.9462 377.5549 679.2803 377.8891 679.6438 378.1874 680.0367 378.4499 680.4296 378.7124 680.8444 378.9341 681.2809 379.1149 681.7175 379.2958 682.1675 379.4323 682.6309 379.5245 683.0944 379.6166 683.5624 379.6627 684.035 379.6627 684.5075 379.6627 684.9755 379.6166 685.439 379.5245 685.9024 379.4323 686.3524 379.2958 686.789 379.1149 687.2255 378.9341 687.6403 378.7124 688.0332 378.4499 688.426 378.1874 688.7895 377.8891 689.1237 377.5549 689.4578 377.2208 689.7561 376.8573 690.0186 376.4644 690.2812 376.0715 690.5029 375.6568 690.6837 375.2202 690.8645 374.7836 691.001 374.3336 691.0932 373.8702 691.1854 373.4067 691.2315 372.9387 691.2316 372.4662Z" fill="#00ff00"/>
<path transform="matrix(1,0,0,-1,-426.3066,406.9801)" d="M590.4794 358.073C590.4794 357.6005 590.4333 357.1325 590.3411 356.669 590.2489 356.2056 590.1125 355.7556 589.9316 355.319 589.7508 354.8824 589.5291 354.4677 589.2666 354.0748 589.004 353.6819 588.7057 353.3184 588.3716 352.9843 588.0375 352.6501 587.6739 352.3518 587.281 352.0893 586.8881 351.8268 586.4734 351.6051 586.0368 351.4243 585.6003 351.2434 585.1503 351.1069 584.6868 351.0147 584.2233 350.9225 583.7554 350.8764 583.2829 350.8764 582.8103 350.8764 582.3423 350.9225 581.8788 351.0147 581.4154 351.1069 580.9654 351.2434 580.5288 351.4243 580.0922 351.6051 579.6775 351.8268 579.2846 352.0893 578.8917 352.3518 578.5282 352.6501 578.1941 352.9843 577.86 353.3184 577.5616 353.6819 577.2991 354.0748 577.0365 354.4677 576.8148 354.8824 576.634 355.319 576.4532 355.7556 576.3167 356.2056 576.2245 356.669 576.1323 357.1325 576.0862 357.6005 576.0863 358.073 576.0862 358.5455 576.1324 359.0135 576.2246 359.477 576.3167 359.9405 576.4532 360.3905 576.634 360.827 576.8148 361.2636 577.0365 361.6783 577.2991 362.0712 577.5616 362.4641 577.86 362.8276 578.1941 363.1617 578.5282 363.4959 578.8917 363.7942 579.2846 364.0568 579.6775 364.3193 580.0922 364.541 580.5288 364.7218 580.9653 364.9026 581.4154 365.0391 581.8788 365.1313 582.3423 365.2235 582.8103 365.2696 583.2829 365.2696 583.7554 365.2696 584.2233 365.2235 584.6868 365.1313 585.1503 365.0391 585.6003 364.9026 586.0368 364.7218 586.4734 364.541 586.8881 364.3193 587.281 364.0568 587.6739 363.7942 588.0375 363.4959 588.3716 363.1617 588.7057 362.8276 589.004 362.4641 589.2666 362.0712 589.5291 361.6783 589.7507 361.2636 589.9316 360.827 590.1124 360.3905 590.2489 359.9405 590.3411 359.477 590.4333 359.0135 590.4794 358.5455 590.4794 358.073Z" fill="#ff0000"/>
<path transform="matrix(1,0,0,-1,-426.3066,406.9801)" d="M604.8726 322.0901C604.8726 321.6176 604.8265 321.1496 604.7343 320.6861 604.6421 320.2227 604.5056 319.7727 604.3247 319.3361 604.1439 318.8996 603.9223 318.4848 603.6597 318.0919 603.3972 317.699 603.0989 317.3355 602.7648 317.0014 602.4306 316.6672 602.0671 316.3689 601.6742 316.1064 601.2813 315.8439 600.8666 315.6222 600.43 315.4414 599.9934 315.2605 599.5434 315.124 599.08 315.0318 598.6165 314.9396 598.1486 314.8935 597.676 314.8935 597.2034 314.8935 596.7354 314.9396 596.272 315.0318 595.8085 315.124 595.3585 315.2605 594.922 315.4414 594.4854 315.6222 594.0707 315.8439 593.6778 316.1064 593.2849 316.3689 592.9214 316.6672 592.5873 317.0014 592.2532 317.3355 591.9548 317.699 591.6923 318.0919 591.4298 318.4848 591.2081 318.8996 591.0272 319.3361 590.8464 319.7727 590.7099 320.2227 590.6177 320.6861 590.5255 321.1496 590.4794 321.6176 590.4794 322.0901 590.4794 322.5626 590.5255 323.0306 590.6177 323.4941 590.7099 323.9576 590.8464 324.4076 591.0272 324.8441 591.2081 325.2807 591.4298 325.6954 591.6923 326.0883 591.9548 326.4812 592.2532 326.8447 592.5873 327.1788 592.9214 327.513 593.2849 327.8113 593.6778 328.0738 594.0707 328.3364 594.4854 328.558 594.922 328.7389 595.3585 328.9197 595.8085 329.0562 596.272 329.1484 596.7354 329.2406 597.2034 329.2867 597.676 329.2867 598.1486 329.2867 598.6165 329.2406 599.08 329.1484 599.5434 329.0562 599.9934 328.9197 600.43 328.7389 600.8666 328.558 601.2813 328.3364 601.6742 328.0738 602.0671 327.8113 602.4306 327.513 602.7648 327.1788 603.0989 326.8447 603.3972 326.4812 603.6597 326.0883 603.9222 325.6954 604.1439 325.2807 604.3247 324.8441 604.5055 324.4076 604.6421 323.9576 604.7343 323.4941 604.8265 323.0306 604.8726 322.5626 604.8726 322.0901Z" fill="#ff0000"/>
<path transform="matrix(1,0,0,-1,-426.3066,406.9801)" d="M633.6589 300.5003C633.6589 300.0278 633.6128 299.5598 633.5206 299.0964 633.4284 298.6329 633.2919 298.1829 633.111 297.7464 632.9302 297.3098 632.7085 296.8951 632.446 296.5022 632.1835 296.1093 631.8851 295.7458 631.551 295.4116 631.2169 295.0775 630.8533 294.7791 630.4604 294.5166 630.0675 294.2541 629.6528 294.0324 629.2163 293.8516 628.7797 293.6708 628.3297 293.5342 627.8663 293.4421 627.4028 293.3499 626.9348 293.3038 626.4623 293.3038 625.9898 293.3038 625.5218 293.3499 625.0583 293.4421 624.5949 293.5342 624.1448 293.6708 623.7082 293.8516 623.2717 294.0324 622.8569 294.2541 622.4641 294.5166 622.0712 294.7791 621.7077 295.0775 621.3736 295.4116 621.0394 295.7458 620.7411 296.1093 620.4786 296.5022 620.216 296.8951 619.9943 297.3098 619.8135 297.7464 619.6327 298.1829 619.4961 298.6329 619.404 299.0964 619.3118 299.5598 619.2658 300.0278 619.2658 300.5003 619.2658 300.9729 619.3118 301.4409 619.404 301.9044 619.4961 302.3678 619.6327 302.8178 619.8135 303.2544 619.9943 303.6909 620.216 304.1057 620.4786 304.4986 620.7411 304.8915 621.0394 305.255 621.3736 305.5891 621.7077 305.9233 622.0712 306.2216 622.4641 306.4841 622.8569 306.7466 623.2717 306.9683 623.7082 307.1492 624.1448 307.33 624.5949 307.4665 625.0583 307.5586 625.5218 307.6508 625.9898 307.6969 626.4623 307.6969 626.9348 307.6969 627.4028 307.6508 627.8663 307.5587 628.3297 307.4665 628.7797 307.33 629.2163 307.1492 629.6528 306.9683 630.0675 306.7466 630.4604 306.4841 630.8533 306.2216 631.2169 305.9233 631.551 305.5891 631.8851 305.255 632.1835 304.8915 632.446 304.4986 632.7085 304.1057 632.9302 303.6909 633.111 303.2544 633.2919 302.8178 633.4284 302.3678 633.5206 301.9044 633.6128 301.4409 633.6589 300.9729 633.6589 300.5003Z" fill="#ff0000"/>
<path transform="matrix(1,0,0,-1,-426.3066,406.9801)" d="M626.4623 343.6798C626.4623 343.2073 626.4162 342.7393 626.324 342.2759 626.2318 341.8124 626.0953 341.3624 625.9145 340.9258 625.7336 340.4893 625.512 340.0745 625.2495 339.6816 624.9869 339.2887 624.6886 338.9252 624.3545 338.5911 624.0203 338.2569 623.6568 337.9586 623.2639 337.6961 622.871 337.4336 622.4563 337.2119 622.0197 337.0311 621.5831 336.8502 621.1332 336.7137 620.6697 336.6215 620.2063 336.5293 619.7383 336.4832 619.2658 336.4832 618.7932 336.4832 618.3252 336.5293 617.8618 336.6215 617.3983 336.7137 616.9482 336.8502 616.5117 337.0311 616.0751 337.2119 615.6604 337.4336 615.2675 337.6961 614.8746 337.9586 614.5111 338.2569 614.177 338.5911 613.8428 338.9252 613.5445 339.2887 613.2819 339.6816 613.0194 340.0745 612.7977 340.4893 612.6169 340.9258 612.436 341.3624 612.2996 341.8124 612.2074 342.2758 612.1153 342.7393 612.0692 343.2073 612.0692 343.6798 612.0692 344.1524 612.1153 344.6204 612.2075 345.0838 612.2997 345.5473 612.4361 345.9973 612.617 346.4338 612.7978 346.8704 613.0194 347.2851 613.282 347.678 613.5445 348.0709 613.8428 348.4345 614.177 348.7686 614.5111 349.1027 614.8746 349.4011 615.2675 349.6636 615.6604 349.9261 616.0751 350.1478 616.5117 350.3286 616.9482 350.5094 617.3983 350.646 617.8617 350.7381 618.3252 350.8303 618.7932 350.8764 619.2658 350.8764 619.7383 350.8764 620.2063 350.8303 620.6697 350.7381 621.1332 350.646 621.5832 350.5094 622.0197 350.3286 622.4563 350.1478 622.871 349.9261 623.2639 349.6636 623.6568 349.4011 624.0203 349.1027 624.3545 348.7686 624.6886 348.4345 624.9869 348.0709 625.2495 347.6781 625.512 347.2851 625.7336 346.8704 625.9145 346.4338 626.0953 345.9973 626.2318 345.5473 626.324 345.0838 626.4162 344.6204 626.4623 344.1524 626.4623 343.6798Z" fill="#ff0000"/>
<path transform="matrix(.7196581,0,0,.7196581,-425.94679,-188.58008)" stroke-width="3" stroke-linecap="butt" stroke-miterlimit="10" stroke-linejoin="miter" fill="none" stroke="#000000" d="M730 270 970 510"/>
</g>
</g>
<g clip-path="url(#clip_4)">
<g clip-path="url(#clip_5)">
<path transform="matrix(1,0,0,-1,-426.3066,406.9801)" d="M737.8503 199.2902 737.4324 200.4396C737.1816 201.1293 736.7845 201.9861 735.8649 202.4877L733.1063 201.798 733.169 201.4219C733.378 201.5055 733.6915 201.5473 733.9632 201.5473 735.1126 201.5473 735.656 200.6904 736.0112 199.6873L736.7009 197.7646 735.3425 195.6538C734.6737 194.6297 734.1303 194.4207 733.8796 194.4207 733.3571 194.4207 733.4407 194.8387 732.8973 194.8387 732.3748 194.8387 732.1032 194.3998 732.1032 194.0655 732.1032 193.6057 732.4375 193.0832 733.1899 193.0832 734.3602 193.0832 734.9663 193.9819 735.6351 195.0059L736.9517 197.054 737.7876 194.6924C738.0593 193.9401 738.4564 193.0832 739.3133 193.0832 740.5254 193.0832 741.4658 195.0895 741.7166 195.403L741.424 195.612C740.9852 194.7133 740.4836 194.4207 740.1492 194.4207 739.2088 194.4207 738.7281 197.2421 738.1011 198.5378L739.2506 200.3142C739.5432 200.774 739.773 201.1084 740.4 201.1084 740.7553 201.1084 740.8598 200.9203 741.3196 200.9203 741.8629 200.9203 742.1346 201.401 742.1346 201.798 742.1346 202.2369 741.7793 202.4877 741.1106 202.4877 740.0656 202.4877 739.3342 201.5682 738.7908 200.7322L737.8503 199.2902Z"/>
</g>
</g>
<g clip-path="url(#clip_6)">
<g clip-path="url(#clip_7)">
<path transform="matrix(1,0,0,-1,-426.3066,406.9801)" d="M748.7894 190.3927V190.6143C747.6813 190.6143 747.3858 190.8802 747.3858 191.5155V200.336L747.2529 200.3803 744.6082 199.0358V198.829L745.0071 198.9767C745.2731 199.0801 745.5242 199.154 745.672 199.154 745.9822 199.154 746.1152 198.9324 746.1152 198.43V191.7963C746.1152 190.9836 745.8049 190.6734 744.7116 190.6143V190.3927H748.7894Z"/>
</g>
</g>
<g clip-path="url(#clip_8)">
<g clip-path="url(#clip_9)">
<g clip-path="url(#clip_10)">
<g clip-path="url(#clip_11)">
<path transform="matrix(1,0,0,-1,-426.3066,406.9801)" d="M431.8931 367.2695 430.7437 366.8516C430.054 366.6008 429.1971 366.2037 428.6956 365.2841L429.3852 362.5255 429.7614 362.5882C429.6778 362.7972 429.636 363.1107 429.636 363.3824 429.636 364.5318 430.4929 365.0752 431.496 365.4304L433.4187 366.1201 435.5295 364.7617C436.5535 364.0929 436.7625 363.5495 436.7625 363.2988 436.7625 362.7763 436.3445 362.8599 436.3445 362.3165 436.3445 361.794 436.7834 361.5224 437.1178 361.5224 437.5776 361.5224 438.1001 361.8567 438.1001 362.6091 438.1001 363.7794 437.2014 364.3855 436.1774 365.0543L434.1293 366.3709 436.4908 367.2068C437.2432 367.4785 438.1001 367.8756 438.1001 368.7325 438.1001 369.9446 436.0938 370.885 435.7803 371.1358L435.5713 370.8432C436.4699 370.4044 436.7625 369.9028 436.7625 369.5684 436.7625 368.628 433.9412 368.1473 432.6454 367.5203L430.869 368.6698C430.4093 368.9624 430.0749 369.1922 430.0749 369.8192 430.0749 370.1745 430.263 370.279 430.263 370.7388 430.263 371.2821 429.7823 371.5538 429.3852 371.5538 428.9463 371.5538 428.6956 371.1985 428.6956 370.5298 428.6956 369.4848 429.6151 368.7534 430.4511 368.21L431.8931 367.2695Z"/>
</g>
</g>
</g>
</g>
<g clip-path="url(#clip_12)">
<g clip-path="url(#clip_13)">
<g clip-path="url(#clip_14)">
<g clip-path="url(#clip_15)">
<path transform="matrix(1,0,0,-1,-426.3066,406.9801)" d="M438.7665 379.3906 438.6778 379.1837C439.5052 378.6962 439.6677 378.3859 439.6677 377.7654V374.3081L437.0674 376.7459C435.6786 378.0609 434.5705 378.6371 433.4033 378.6371 431.9406 378.6371 430.803 377.5733 430.803 375.9038 430.803 374.0865 432.0145 373.1409 433.7431 372.8307L433.817 373.1409C432.3691 373.7319 431.8963 374.249 431.8963 375.3128 431.8963 376.5686 432.635 377.3665 433.9795 377.3665 435.2354 377.3665 436.3582 376.8346 437.8209 375.4458L440.6133 372.8159H440.7906V378.5927L438.7665 379.3906Z"/>
</g>
</g>
</g>
</g>
</svg>
