<svg xmlns="http://www.w3.org/2000/svg" xmlns:xlink="http://www.w3.org/1999/xlink" version="1.1" width="721pt" height="523pt" viewBox="0 0 721 523">
<defs>
<clipPath id="clip_0">
<path transform="matrix(1,0,0,-1,0,523)" d="M14.4 14.4H707.04006V509.04H14.4Z"/>
</clipPath>
<clipPath id="clip_1">
<path transform="matrix(1,0,0,-1,0,523)" d="M14.4 14.4H707.04006V509.04H14.4Z"/>
</clipPath>
<clipPath id="clip_2">
<path transform="matrix(1,0,0,-1,0,523)" d="M14.4 14.4H707.04006V509.04H14.4Z"/>
</clipPath>
</defs>
<path transform="matrix(1,0,0,-1,0,523)" d="M0 0H721.44V523.44H0Z" fill="#ffffff"/>
<g clip-path="url(#clip_0)">
</g>
<g clip-path="url(#clip_1)">
<path transform="matrix(1,0,0,-1,0,523)" d="M112.46 283.21C112.46 290.63 118.53 296.71 125.96 296.71 133.38 296.71 139.46 290.63 139.46 283.21 139.46 275.78 133.38 269.71 125.96 269.71 118.53 269.71 112.46 275.78 112.46 283.21" fill="#00cd00"/>
<path transform="matrix(1,0,0,-1,0,523)" d="M525.51 490.72C525.51 498.14 531.58 504.22 539.01 504.22 546.43 504.22 552.51 498.14 552.51 490.72 552.51 483.29 546.43 477.22 539.01 477.22 531.58 477.22 525.51 483.29 525.51 490.72" fill="#00cd00"/>
<path transform="matrix(1,0,0,-1,0,523)" d="M179.59 192.46C179.59 199.88 185.67 205.96 193.09 205.96 200.52 205.96 206.59 199.88 206.59 192.46 206.59 185.03 200.52 178.96 193.09 178.96 185.67 178.96 179.59 185.03 179.59 192.46" fill="#00cd00"/>
<path transform="matrix(1,0,0,-1,0,523)" d="M199.13 219.41C199.13 226.84 205.21 232.91 212.63 232.91 220.06 232.91 226.13 226.84 226.13 219.41 226.13 211.99 220.06 205.91 212.63 205.91 205.21 205.91 199.13 211.99 199.13 219.41" fill="#00cd00"/>
<path transform="matrix(1,0,0,-1,0,523)" d="M26.55 208.13C26.55 215.56 32.63 221.63 40.05 221.63 47.48 221.63 53.55 215.56 53.55 208.13 53.55 200.71 47.48 194.63 40.05 194.63 32.63 194.63 26.55 200.71 26.55 208.13" fill="#00cd00"/>
<path transform="matrix(1,0,0,-1,0,523)" d="M382.71 270.13C382.71 277.56 388.79 283.63 396.21 283.63 403.64 283.63 409.71 277.56 409.71 270.13 409.71 262.71 403.64 256.63 396.21 256.63 388.79 256.63 382.71 262.71 382.71 270.13" fill="#ff0000"/>
<path transform="matrix(1,0,0,-1,0,523)" d="M492.51 274.04C492.51 281.47 498.59 287.54 506.01 287.54 513.44 287.54 519.51 281.47 519.51 274.04 519.51 266.62 513.44 260.54 506.01 260.54 498.59 260.54 492.51 266.62 492.51 274.04" fill="#ff0000"/>
<path transform="matrix(1,0,0,-1,0,523)" d="M334.39 236.55C334.39 243.98 340.46 250.05 347.89 250.05 355.31 250.05 361.39 243.98 361.39 236.55 361.39 229.13 355.31 223.05 347.89 223.05 340.46 223.05 334.39 229.13 334.39 236.55" fill="#ff0000"/>
<path transform="matrix(1,0,0,-1,0,523)" d="M667.89 217.72C667.89 225.15 673.96 231.22 681.39 231.22 688.81 231.22 694.89 225.15 694.89 217.72 694.89 210.3 688.81 204.22 681.39 204.22 673.96 204.22 667.89 210.3 667.89 217.72" fill="#ff0000"/>
<path transform="matrix(1,0,0,-1,0,523)" d="M388.76 207.62C388.76 215.05 394.84 221.12 402.26 221.12 409.69 221.12 415.76 215.05 415.76 207.62 415.76 200.2 409.69 194.12 402.26 194.12 394.84 194.12 388.76 200.2 388.76 207.62" fill="#ff0000"/>
<path transform="matrix(1,0,0,-1,0,523)" d="M224.68 431.62C224.68 439.05 230.75 445.12 238.18 445.12 245.6 445.12 251.68 439.05 251.68 431.62 251.68 424.2 245.6 418.12 238.18 418.12 230.75 418.12 224.68 424.2 224.68 431.62" fill="#00cd00"/>
<path transform="matrix(1,0,0,-1,0,523)" d="M260.78 431.62C260.78 439.05 266.85 445.12 274.28 445.12 281.7 445.12 287.78 439.05 287.78 431.62 287.78 424.2 281.7 418.12 274.28 418.12 266.85 418.12 260.78 424.2 260.78 431.62" fill="#00cd00"/>
<path transform="matrix(1,0,0,-1,0,523)" d="M284.85 32.72C284.85 40.15 290.92 46.22 298.35 46.22 305.77 46.22 311.85 40.15 311.85 32.72 311.85 25.3 305.77 19.22 298.35 19.22 290.92 19.22 284.85 25.3 284.85 32.72" fill="#00cd00"/>
</g>
<path transform="matrix(1,0,0,-1,0,523)" stroke-width=".75" stroke-linecap="round" stroke-linejoin="round" fill="none" stroke="#000000" d="M14.4 14.4H707.04V509.04H14.4V14.4"/>
<g clip-path="url(#clip_2)">
<path transform="matrix(1,0,0,-1,0,523)" stroke-width="15" stroke-linecap="round" stroke-linejoin="round" fill="none" stroke="#000000" d="M40.05 269.11H323.12V207.55H681.39"/>
</g>
</svg>
