<svg xmlns="http://www.w3.org/2000/svg" xmlns:xlink="http://www.w3.org/1999/xlink" version="1.1" width="721pt" height="523pt" viewBox="0 0 721 523">
<defs>
<clipPath id="clip_0">
<path transform="matrix(1,0,0,-1,0,523)" d="M59.04 60.48H721.44V523.44H59.04Z"/>
</clipPath>
<clipPath id="clip_1">
<path transform="matrix(1,0,0,-1,0,523)" d="M59.04 60.48H721.44V523.44H59.04Z"/>
</clipPath>
</defs>
<path transform="matrix(1,0,0,-1,0,523)" d="M0 0H721.44V523.44H0Z" fill="#ffffff"/>
<g clip-path="url(#clip_0)">
<text fill="#add8e6" xml:space="preserve" transform="matrix(1 0 -0 1 0 523)" font-size="7.48" font-family="ZapfDingbats"><tspan y="-345.57" x="99.87">G</tspan></text>
<text xml:space="preserve" transform="matrix(1 0 -0 1 0 523)" font-size="7.48" font-family="ZapfDingbats"><tspan y="-345.57" x="99.87">G</tspan></text>
<text fill="#add8e6" xml:space="preserve" transform="matrix(1 0 -0 1 0 523)" font-size="7.48" font-family="ZapfDingbats"><tspan y="-372.24" x="144.98">G</tspan></text>
<text xml:space="preserve" transform="matrix(1 0 -0 1 0 523)" font-size="7.48" font-family="ZapfDingbats"><tspan y="-372.24" x="144.98">G</tspan></text>
<text fill="#add8e6" xml:space="preserve" transform="matrix(1 0 -0 1 0 523)" font-size="7.48" font-family="ZapfDingbats"><tspan y="-207.44" x="367.17">G</tspan></text>
<text xml:space="preserve" transform="matrix(1 0 -0 1 0 523)" font-size="7.48" font-family="ZapfDingbats"><tspan y="-207.44" x="367.17">G</tspan></text>
<text fill="#add8e6" xml:space="preserve" transform="matrix(1 0 -0 1 0 523)" font-size="7.48" font-family="ZapfDingbats"><tspan y="-172.2" x="397.76">G</tspan></text>
<text xml:space="preserve" transform="matrix(1 0 -0 1 0 523)" font-size="7.48" font-family="ZapfDingbats"><tspan y="-172.2" x="397.76">G</tspan></text>
<text fill="#add8e6" xml:space="preserve" transform="matrix(1 0 -0 1 0 523)" font-size="7.48" font-family="ZapfDingbats"><tspan y="-176.01" x="352.07">G</tspan></text>
<text xml:space="preserve" transform="matrix(1 0 -0 1 0 523)" font-size="7.48" font-family="ZapfDingbats"><tspan y="-176.01" x="352.07">G</tspan></text>
<text fill="#add8e6" xml:space="preserve" transform="matrix(1 0 -0 1 0 523)" font-size="7.48" font-family="ZapfDingbats"><tspan y="-227.45" x="270.52">G</tspan></text>
<text xml:space="preserve" transform="matrix(1 0 -0 1 0 523)" font-size="7.48" font-family="ZapfDingbats"><tspan y="-227.45" x="270.52">G</tspan></text>
<text fill="#add8e6" xml:space="preserve" transform="matrix(1 0 -0 1 0 523)" font-size="7.48" font-family="ZapfDingbats"><tspan y="-148.38" x="471">G</tspan></text>
<text xml:space="preserve" transform="matrix(1 0 -0 1 0 523)" font-size="7.48" font-family="ZapfDingbats"><tspan y="-148.38" x="471">G</tspan></text>
<text fill="#add8e6" xml:space="preserve" transform="matrix(1 0 -0 1 0 523)" font-size="7.48" font-family="ZapfDingbats"><tspan y="-320.8" x="125.92">G</tspan></text>
<text xml:space="preserve" transform="matrix(1 0 -0 1 0 523)" font-size="7.48" font-family="ZapfDingbats"><tspan y="-320.8" x="125.92">G</tspan></text>
<text fill="#add8e6" xml:space="preserve" transform="matrix(1 0 -0 1 0 523)" font-size="7.48" font-family="ZapfDingbats"><tspan y="-359.86" x="81.74">G</tspan></text>
<text xml:space="preserve" transform="matrix(1 0 -0 1 0 523)" font-size="7.48" font-family="ZapfDingbats"><tspan y="-359.86" x="81.74">G</tspan></text>
<text fill="#add8e6" xml:space="preserve" transform="matrix(1 0 -0 1 0 523)" font-size="7.48" font-family="ZapfDingbats"><tspan y="-280.79" x="135.73">G</tspan></text>
<text xml:space="preserve" transform="matrix(1 0 -0 1 0 523)" font-size="7.48" font-family="ZapfDingbats"><tspan y="-280.79" x="135.73">G</tspan></text>
<text fill="#add8e6" xml:space="preserve" transform="matrix(1 0 -0 1 0 523)" font-size="7.48" font-family="ZapfDingbats"><tspan y="-222.68" x="222.38">G</tspan></text>
<text xml:space="preserve" transform="matrix(1 0 -0 1 0 523)" font-size="7.48" font-family="ZapfDingbats"><tspan y="-222.68" x="222.38">G</tspan></text>
<text fill="#add8e6" xml:space="preserve" transform="matrix(1 0 -0 1 0 523)" font-size="7.48" font-family="ZapfDingbats"><tspan y="-364.62" x="135.17">G</tspan></text>
<text xml:space="preserve" transform="matrix(1 0 -0 1 0 523)" font-size="7.48" font-family="ZapfDingbats"><tspan y="-364.62" x="135.17">G</tspan></text>
<text fill="#add8e6" xml:space="preserve" transform="matrix(1 0 -0 1 0 523)" font-size="7.48" font-family="ZapfDingbats"><tspan y="-341.76" x="196.33">G</tspan></text>
<text xml:space="preserve" transform="matrix(1 0 -0 1 0 523)" font-size="7.48" font-family="ZapfDingbats"><tspan y="-341.76" x="196.33">G</tspan></text>
<text fill="#add8e6" xml:space="preserve" transform="matrix(1 0 -0 1 0 523)" font-size="7.48" font-family="ZapfDingbats"><tspan y="-257.93" x="171.22">G</tspan></text>
<text xml:space="preserve" transform="matrix(1 0 -0 1 0 523)" font-size="7.48" font-family="ZapfDingbats"><tspan y="-257.93" x="171.22">G</tspan></text>
<text fill="#add8e6" xml:space="preserve" transform="matrix(1 0 -0 1 0 523)" font-size="7.48" font-family="ZapfDingbats"><tspan y="-229.35" x="277.32">G</tspan></text>
<text xml:space="preserve" transform="matrix(1 0 -0 1 0 523)" font-size="7.48" font-family="ZapfDingbats"><tspan y="-229.35" x="277.32">G</tspan></text>
<text fill="#add8e6" xml:space="preserve" transform="matrix(1 0 -0 1 0 523)" font-size="7.48" font-family="ZapfDingbats"><tspan y="-220.78" x="216.15">G</tspan></text>
<text xml:space="preserve" transform="matrix(1 0 -0 1 0 523)" font-size="7.48" font-family="ZapfDingbats"><tspan y="-220.78" x="216.15">G</tspan></text>
<text fill="#add8e6" xml:space="preserve" transform="matrix(1 0 -0 1 0 523)" font-size="7.48" font-family="ZapfDingbats"><tspan y="-241.74" x="287.13">G</tspan></text>
<text xml:space="preserve" transform="matrix(1 0 -0 1 0 523)" font-size="7.48" font-family="ZapfDingbats"><tspan y="-241.74" x="287.13">G</tspan></text>
<text fill="#add8e6" xml:space="preserve" transform="matrix(1 0 -0 1 0 523)" font-size="7.48" font-family="ZapfDingbats"><tspan y="-300.8" x="151.97">G</tspan></text>
<text xml:space="preserve" transform="matrix(1 0 -0 1 0 523)" font-size="7.48" font-family="ZapfDingbats"><tspan y="-300.8" x="151.97">G</tspan></text>
<text fill="#add8e6" xml:space="preserve" transform="matrix(1 0 -0 1 0 523)" font-size="7.48" font-family="ZapfDingbats"><tspan y="-245.55" x="198.41">G</tspan></text>
<text xml:space="preserve" transform="matrix(1 0 -0 1 0 523)" font-size="7.48" font-family="ZapfDingbats"><tspan y="-245.55" x="198.41">G</tspan></text>
<text fill="#add8e6" xml:space="preserve" transform="matrix(1 0 -0 1 0 523)" font-size="7.48" font-family="ZapfDingbats"><tspan y="-265.55" x="161.6">G</tspan></text>
<text xml:space="preserve" transform="matrix(1 0 -0 1 0 523)" font-size="7.48" font-family="ZapfDingbats"><tspan y="-265.55" x="161.6">G</tspan></text>
<text fill="#add8e6" xml:space="preserve" transform="matrix(1 0 -0 1 0 523)" font-size="7.48" font-family="ZapfDingbats"><tspan y="-297.94" x="169.9">G</tspan></text>
<text xml:space="preserve" transform="matrix(1 0 -0 1 0 523)" font-size="7.48" font-family="ZapfDingbats"><tspan y="-297.94" x="169.9">G</tspan></text>
<text fill="#add8e6" xml:space="preserve" transform="matrix(1 0 -0 1 0 523)" font-size="7.48" font-family="ZapfDingbats"><tspan y="-204.58" x="245.04">G</tspan></text>
<text xml:space="preserve" transform="matrix(1 0 -0 1 0 523)" font-size="7.48" font-family="ZapfDingbats"><tspan y="-204.58" x="245.04">G</tspan></text>
<text fill="#add8e6" xml:space="preserve" transform="matrix(1 0 -0 1 0 523)" font-size="7.48" font-family="ZapfDingbats"><tspan y="-218.87" x="277.13">G</tspan></text>
<text xml:space="preserve" transform="matrix(1 0 -0 1 0 523)" font-size="7.48" font-family="ZapfDingbats"><tspan y="-218.87" x="277.13">G</tspan></text>
<text fill="#add8e6" xml:space="preserve" transform="matrix(1 0 -0 1 0 523)" font-size="7.48" font-family="ZapfDingbats"><tspan y="-212.2" x="337.91">G</tspan></text>
<text xml:space="preserve" transform="matrix(1 0 -0 1 0 523)" font-size="7.48" font-family="ZapfDingbats"><tspan y="-212.2" x="337.91">G</tspan></text>
<text fill="#add8e6" xml:space="preserve" transform="matrix(1 0 -0 1 0 523)" font-size="7.48" font-family="ZapfDingbats"><tspan y="-206.49" x="376.23">G</tspan></text>
<text xml:space="preserve" transform="matrix(1 0 -0 1 0 523)" font-size="7.48" font-family="ZapfDingbats"><tspan y="-206.49" x="376.23">G</tspan></text>
<text fill="#add8e6" xml:space="preserve" transform="matrix(1 0 -0 1 0 523)" font-size="7.48" font-family="ZapfDingbats"><tspan y="-198.87" x="334.89">G</tspan></text>
<text xml:space="preserve" transform="matrix(1 0 -0 1 0 523)" font-size="7.48" font-family="ZapfDingbats"><tspan y="-198.87" x="334.89">G</tspan></text>
<text fill="#add8e6" xml:space="preserve" transform="matrix(1 0 -0 1 0 523)" font-size="7.48" font-family="ZapfDingbats"><tspan y="-202.68" x="328.1">G</tspan></text>
<text xml:space="preserve" transform="matrix(1 0 -0 1 0 523)" font-size="7.48" font-family="ZapfDingbats"><tspan y="-202.68" x="328.1">G</tspan></text>
<text fill="#add8e6" xml:space="preserve" transform="matrix(1 0 -0 1 0 523)" font-size="7.48" font-family="ZapfDingbats"><tspan y="-164.58" x="693.94">G</tspan></text>
<text xml:space="preserve" transform="matrix(1 0 -0 1 0 523)" font-size="7.48" font-family="ZapfDingbats"><tspan y="-164.58" x="693.94">G</tspan></text>
<text fill="#add8e6" xml:space="preserve" transform="matrix(1 0 -0 1 0 523)" font-size="7.48" font-family="ZapfDingbats"><tspan y="-158.86" x="569.16">G</tspan></text>
<text xml:space="preserve" transform="matrix(1 0 -0 1 0 523)" font-size="7.48" font-family="ZapfDingbats"><tspan y="-158.86" x="569.16">G</tspan></text>
<text fill="#add8e6" xml:space="preserve" transform="matrix(1 0 -0 1 0 523)" font-size="7.48" font-family="ZapfDingbats"><tspan y="-189.34" x="329.8">G</tspan></text>
<text xml:space="preserve" transform="matrix(1 0 -0 1 0 523)" font-size="7.48" font-family="ZapfDingbats"><tspan y="-189.34" x="329.8">G</tspan></text>
<text fill="#add8e6" xml:space="preserve" transform="matrix(1 0 -0 1 0 523)" font-size="7.48" font-family="ZapfDingbats"><tspan y="-249.36" x="183.87">G</tspan></text>
<text xml:space="preserve" transform="matrix(1 0 -0 1 0 523)" font-size="7.48" font-family="ZapfDingbats"><tspan y="-249.36" x="183.87">G</tspan></text>
<text fill="#add8e6" xml:space="preserve" transform="matrix(1 0 -0 1 0 523)" font-size="7.48" font-family="ZapfDingbats"><tspan y="-503.7" x="80.61">G</tspan></text>
<text xml:space="preserve" transform="matrix(1 0 -0 1 0 523)" font-size="7.48" font-family="ZapfDingbats"><tspan y="-503.7" x="80.61">G</tspan></text>
<text fill="#add8e6" xml:space="preserve" transform="matrix(1 0 -0 1 0 523)" font-size="7.48" font-family="ZapfDingbats"><tspan y="-239.83" x="258.06">G</tspan></text>
<text xml:space="preserve" transform="matrix(1 0 -0 1 0 523)" font-size="7.48" font-family="ZapfDingbats"><tspan y="-239.83" x="258.06">G</tspan></text>
<text fill="#add8e6" xml:space="preserve" transform="matrix(1 0 -0 1 0 523)" font-size="7.48" font-family="ZapfDingbats"><tspan y="-252.21" x="215.02">G</tspan></text>
<text xml:space="preserve" transform="matrix(1 0 -0 1 0 523)" font-size="7.48" font-family="ZapfDingbats"><tspan y="-252.21" x="215.02">G</tspan></text>
<text fill="#add8e6" xml:space="preserve" transform="matrix(1 0 -0 1 0 523)" font-size="7.48" font-family="ZapfDingbats"><tspan y="-307.46" x="144.98">G</tspan></text>
<text xml:space="preserve" transform="matrix(1 0 -0 1 0 523)" font-size="7.48" font-family="ZapfDingbats"><tspan y="-307.46" x="144.98">G</tspan></text>
<text fill="#add8e6" xml:space="preserve" transform="matrix(1 0 -0 1 0 523)" font-size="7.48" font-family="ZapfDingbats"><tspan y="-248.4" x="235.22">G</tspan></text>
<text xml:space="preserve" transform="matrix(1 0 -0 1 0 523)" font-size="7.48" font-family="ZapfDingbats"><tspan y="-248.4" x="235.22">G</tspan></text>
<text fill="#add8e6" xml:space="preserve" transform="matrix(1 0 -0 1 0 523)" font-size="7.48" font-family="ZapfDingbats"><tspan y="-381.77" x="139.51">G</tspan></text>
<text xml:space="preserve" transform="matrix(1 0 -0 1 0 523)" font-size="7.48" font-family="ZapfDingbats"><tspan y="-381.77" x="139.51">G</tspan></text>
<text fill="#add8e6" xml:space="preserve" transform="matrix(1 0 -0 1 0 523)" font-size="7.48" font-family="ZapfDingbats"><tspan y="-503.7" x="128.37">G</tspan></text>
<text xml:space="preserve" transform="matrix(1 0 -0 1 0 523)" font-size="7.48" font-family="ZapfDingbats"><tspan y="-503.7" x="128.37">G</tspan></text>
<text fill="#add8e6" xml:space="preserve" transform="matrix(1 0 -0 1 0 523)" font-size="7.48" font-family="ZapfDingbats"><tspan y="-332.23" x="170.47">G</tspan></text>
<text xml:space="preserve" transform="matrix(1 0 -0 1 0 523)" font-size="7.48" font-family="ZapfDingbats"><tspan y="-332.23" x="170.47">G</tspan></text>
<text fill="#add8e6" xml:space="preserve" transform="matrix(1 0 -0 1 0 523)" font-size="7.48" font-family="ZapfDingbats"><tspan y="-316.04" x="206.9">G</tspan></text>
<text xml:space="preserve" transform="matrix(1 0 -0 1 0 523)" font-size="7.48" font-family="ZapfDingbats"><tspan y="-316.04" x="206.9">G</tspan></text>
<text fill="#add8e6" xml:space="preserve" transform="matrix(1 0 -0 1 0 523)" font-size="7.48" font-family="ZapfDingbats"><tspan y="-503.7" x="98.73">G</tspan></text>
<text xml:space="preserve" transform="matrix(1 0 -0 1 0 523)" font-size="7.48" font-family="ZapfDingbats"><tspan y="-503.7" x="98.73">G</tspan></text>
<text fill="#add8e6" xml:space="preserve" transform="matrix(1 0 -0 1 0 523)" font-size="7.48" font-family="ZapfDingbats"><tspan y="-259.83" x="321.11">G</tspan></text>
<text xml:space="preserve" transform="matrix(1 0 -0 1 0 523)" font-size="7.48" font-family="ZapfDingbats"><tspan y="-259.83" x="321.11">G</tspan></text>
<text fill="#add8e6" xml:space="preserve" transform="matrix(1 0 -0 1 0 523)" font-size="7.48" font-family="ZapfDingbats"><tspan y="-265.55" x="223.14">G</tspan></text>
<text xml:space="preserve" transform="matrix(1 0 -0 1 0 523)" font-size="7.48" font-family="ZapfDingbats"><tspan y="-265.55" x="223.14">G</tspan></text>
<text fill="#add8e6" xml:space="preserve" transform="matrix(1 0 -0 1 0 523)" font-size="7.48" font-family="ZapfDingbats"><tspan y="-300.8" x="227.29">G</tspan></text>
<text xml:space="preserve" transform="matrix(1 0 -0 1 0 523)" font-size="7.48" font-family="ZapfDingbats"><tspan y="-300.8" x="227.29">G</tspan></text>
<text fill="#add8e6" xml:space="preserve" transform="matrix(1 0 -0 1 0 523)" font-size="7.48" font-family="ZapfDingbats"><tspan y="-503.7" x="131.77">G</tspan></text>
<text xml:space="preserve" transform="matrix(1 0 -0 1 0 523)" font-size="7.48" font-family="ZapfDingbats"><tspan y="-503.7" x="131.77">G</tspan></text>
<text fill="#add8e6" xml:space="preserve" transform="matrix(1 0 -0 1 0 523)" font-size="7.48" font-family="ZapfDingbats"><tspan y="-328.42" x="164.43">G</tspan></text>
<text xml:space="preserve" transform="matrix(1 0 -0 1 0 523)" font-size="7.48" font-family="ZapfDingbats"><tspan y="-328.42" x="164.43">G</tspan></text>
<text fill="#add8e6" xml:space="preserve" transform="matrix(1 0 -0 1 0 523)" font-size="7.48" font-family="ZapfDingbats"><tspan y="-327.47" x="115.35">G</tspan></text>
<text xml:space="preserve" transform="matrix(1 0 -0 1 0 523)" font-size="7.48" font-family="ZapfDingbats"><tspan y="-327.47" x="115.35">G</tspan></text>
<text fill="#add8e6" xml:space="preserve" transform="matrix(1 0 -0 1 0 523)" font-size="7.48" font-family="ZapfDingbats"><tspan y="-258.88" x="264.29">G</tspan></text>
<text xml:space="preserve" transform="matrix(1 0 -0 1 0 523)" font-size="7.48" font-family="ZapfDingbats"><tspan y="-258.88" x="264.29">G</tspan></text>
<text fill="#add8e6" xml:space="preserve" transform="matrix(1 0 -0 1 0 523)" font-size="7.48" font-family="ZapfDingbats"><tspan y="-236.97" x="259.19">G</tspan></text>
<text xml:space="preserve" transform="matrix(1 0 -0 1 0 523)" font-size="7.48" font-family="ZapfDingbats"><tspan y="-236.97" x="259.19">G</tspan></text>
<text fill="#add8e6" xml:space="preserve" transform="matrix(1 0 -0 1 0 523)" font-size="7.48" font-family="ZapfDingbats"><tspan y="-253.17" x="142.34">G</tspan></text>
<text xml:space="preserve" transform="matrix(1 0 -0 1 0 523)" font-size="7.48" font-family="ZapfDingbats"><tspan y="-253.17" x="142.34">G</tspan></text>
<text fill="#add8e6" xml:space="preserve" transform="matrix(1 0 -0 1 0 523)" font-size="7.48" font-family="ZapfDingbats"><tspan y="-195.06" x="280.34">G</tspan></text>
<text xml:space="preserve" transform="matrix(1 0 -0 1 0 523)" font-size="7.48" font-family="ZapfDingbats"><tspan y="-195.06" x="280.34">G</tspan></text>
<text fill="#add8e6" xml:space="preserve" transform="matrix(1 0 -0 1 0 523)" font-size="7.48" font-family="ZapfDingbats"><tspan y="-276.98" x="168.2">G</tspan></text>
<text xml:space="preserve" transform="matrix(1 0 -0 1 0 523)" font-size="7.48" font-family="ZapfDingbats"><tspan y="-276.98" x="168.2">G</tspan></text>
<text fill="#add8e6" xml:space="preserve" transform="matrix(1 0 -0 1 0 523)" font-size="7.48" font-family="ZapfDingbats"><tspan y="-259.83" x="155.74">G</tspan></text>
<text xml:space="preserve" transform="matrix(1 0 -0 1 0 523)" font-size="7.48" font-family="ZapfDingbats"><tspan y="-259.83" x="155.74">G</tspan></text>
<text fill="#add8e6" xml:space="preserve" transform="matrix(1 0 -0 1 0 523)" font-size="7.48" font-family="ZapfDingbats"><tspan y="-492.27" x="155.93">G</tspan></text>
<text xml:space="preserve" transform="matrix(1 0 -0 1 0 523)" font-size="7.48" font-family="ZapfDingbats"><tspan y="-492.27" x="155.93">G</tspan></text>
<text fill="#add8e6" xml:space="preserve" transform="matrix(1 0 -0 1 0 523)" font-size="7.48" font-family="ZapfDingbats"><tspan y="-267.46" x="168.77">G</tspan></text>
<text xml:space="preserve" transform="matrix(1 0 -0 1 0 523)" font-size="7.48" font-family="ZapfDingbats"><tspan y="-267.46" x="168.77">G</tspan></text>
<text fill="#add8e6" xml:space="preserve" transform="matrix(1 0 -0 1 0 523)" font-size="7.48" font-family="ZapfDingbats"><tspan y="-361.76" x="135.92">G</tspan></text>
<text xml:space="preserve" transform="matrix(1 0 -0 1 0 523)" font-size="7.48" font-family="ZapfDingbats"><tspan y="-361.76" x="135.92">G</tspan></text>
<text fill="#add8e6" xml:space="preserve" transform="matrix(1 0 -0 1 0 523)" font-size="7.48" font-family="ZapfDingbats"><tspan y="-334.14" x="192.56">G</tspan></text>
<text xml:space="preserve" transform="matrix(1 0 -0 1 0 523)" font-size="7.48" font-family="ZapfDingbats"><tspan y="-334.14" x="192.56">G</tspan></text>
<text fill="#add8e6" xml:space="preserve" transform="matrix(1 0 -0 1 0 523)" font-size="7.48" font-family="ZapfDingbats"><tspan y="-263.64" x="223.89">G</tspan></text>
<text xml:space="preserve" transform="matrix(1 0 -0 1 0 523)" font-size="7.48" font-family="ZapfDingbats"><tspan y="-263.64" x="223.89">G</tspan></text>
<text fill="#add8e6" xml:space="preserve" transform="matrix(1 0 -0 1 0 523)" font-size="7.48" font-family="ZapfDingbats"><tspan y="-382.72" x="111.57">G</tspan></text>
<text xml:space="preserve" transform="matrix(1 0 -0 1 0 523)" font-size="7.48" font-family="ZapfDingbats"><tspan y="-382.72" x="111.57">G</tspan></text>
<text fill="#add8e6" xml:space="preserve" transform="matrix(1 0 -0 1 0 523)" font-size="7.48" font-family="ZapfDingbats"><tspan y="-293.18" x="133.09">G</tspan></text>
<text xml:space="preserve" transform="matrix(1 0 -0 1 0 523)" font-size="7.48" font-family="ZapfDingbats"><tspan y="-293.18" x="133.09">G</tspan></text>
<text fill="#add8e6" xml:space="preserve" transform="matrix(1 0 -0 1 0 523)" font-size="7.48" font-family="ZapfDingbats"><tspan y="-220.78" x="343.39">G</tspan></text>
<text xml:space="preserve" transform="matrix(1 0 -0 1 0 523)" font-size="7.48" font-family="ZapfDingbats"><tspan y="-220.78" x="343.39">G</tspan></text>
<text fill="#add8e6" xml:space="preserve" transform="matrix(1 0 -0 1 0 523)" font-size="7.48" font-family="ZapfDingbats"><tspan y="-303.65" x="133.85">G</tspan></text>
<text xml:space="preserve" transform="matrix(1 0 -0 1 0 523)" font-size="7.48" font-family="ZapfDingbats"><tspan y="-303.65" x="133.85">G</tspan></text>
<text fill="#add8e6" xml:space="preserve" transform="matrix(1 0 -0 1 0 523)" font-size="7.48" font-family="ZapfDingbats"><tspan y="-278.89" x="208.04">G</tspan></text>
<text xml:space="preserve" transform="matrix(1 0 -0 1 0 523)" font-size="7.48" font-family="ZapfDingbats"><tspan y="-278.89" x="208.04">G</tspan></text>
<text fill="#add8e6" xml:space="preserve" transform="matrix(1 0 -0 1 0 523)" font-size="7.48" font-family="ZapfDingbats"><tspan y="-247.45" x="239.94">G</tspan></text>
<text xml:space="preserve" transform="matrix(1 0 -0 1 0 523)" font-size="7.48" font-family="ZapfDingbats"><tspan y="-247.45" x="239.94">G</tspan></text>
<text fill="#add8e6" xml:space="preserve" transform="matrix(1 0 -0 1 0 523)" font-size="7.48" font-family="ZapfDingbats"><tspan y="-254.12" x="180.29">G</tspan></text>
<text xml:space="preserve" transform="matrix(1 0 -0 1 0 523)" font-size="7.48" font-family="ZapfDingbats"><tspan y="-254.12" x="180.29">G</tspan></text>
<text fill="#add8e6" xml:space="preserve" transform="matrix(1 0 -0 1 0 523)" font-size="7.48" font-family="ZapfDingbats"><tspan y="-246.5" x="160.46">G</tspan></text>
<text xml:space="preserve" transform="matrix(1 0 -0 1 0 523)" font-size="7.48" font-family="ZapfDingbats"><tspan y="-246.5" x="160.46">G</tspan></text>
<text fill="#add8e6" xml:space="preserve" transform="matrix(1 0 -0 1 0 523)" font-size="7.48" font-family="ZapfDingbats"><tspan y="-190.3" x="279.02">G</tspan></text>
<text xml:space="preserve" transform="matrix(1 0 -0 1 0 523)" font-size="7.48" font-family="ZapfDingbats"><tspan y="-190.3" x="279.02">G</tspan></text>
<text fill="#add8e6" xml:space="preserve" transform="matrix(1 0 -0 1 0 523)" font-size="7.48" font-family="ZapfDingbats"><tspan y="-194.11" x="243.15">G</tspan></text>
<text xml:space="preserve" transform="matrix(1 0 -0 1 0 523)" font-size="7.48" font-family="ZapfDingbats"><tspan y="-194.11" x="243.15">G</tspan></text>
<text fill="#add8e6" xml:space="preserve" transform="matrix(1 0 -0 1 0 523)" font-size="7.48" font-family="ZapfDingbats"><tspan y="-247.45" x="164.43">G</tspan></text>
<text xml:space="preserve" transform="matrix(1 0 -0 1 0 523)" font-size="7.48" font-family="ZapfDingbats"><tspan y="-247.45" x="164.43">G</tspan></text>
<text fill="#add8e6" xml:space="preserve" transform="matrix(1 0 -0 1 0 523)" font-size="7.48" font-family="ZapfDingbats"><tspan y="-260.79" x="157.44">G</tspan></text>
<text xml:space="preserve" transform="matrix(1 0 -0 1 0 523)" font-size="7.48" font-family="ZapfDingbats"><tspan y="-260.79" x="157.44">G</tspan></text>
<text fill="#add8e6" xml:space="preserve" transform="matrix(1 0 -0 1 0 523)" font-size="7.48" font-family="ZapfDingbats"><tspan y="-200.77" x="196.33">G</tspan></text>
<text xml:space="preserve" transform="matrix(1 0 -0 1 0 523)" font-size="7.48" font-family="ZapfDingbats"><tspan y="-200.77" x="196.33">G</tspan></text>
<text fill="#add8e6" xml:space="preserve" transform="matrix(1 0 -0 1 0 523)" font-size="7.48" font-family="ZapfDingbats"><tspan y="-187.44" x="320.73">G</tspan></text>
<text xml:space="preserve" transform="matrix(1 0 -0 1 0 523)" font-size="7.48" font-family="ZapfDingbats"><tspan y="-187.44" x="320.73">G</tspan></text>
<text fill="#add8e6" xml:space="preserve" transform="matrix(1 0 -0 1 0 523)" font-size="7.48" font-family="ZapfDingbats"><tspan y="-236.02" x="144.23">G</tspan></text>
<text xml:space="preserve" transform="matrix(1 0 -0 1 0 523)" font-size="7.48" font-family="ZapfDingbats"><tspan y="-236.02" x="144.23">G</tspan></text>
<text fill="#add8e6" xml:space="preserve" transform="matrix(1 0 -0 1 0 523)" font-size="7.48" font-family="ZapfDingbats"><tspan y="-503.7" x="114.78">G</tspan></text>
<text xml:space="preserve" transform="matrix(1 0 -0 1 0 523)" font-size="7.48" font-family="ZapfDingbats"><tspan y="-503.7" x="114.78">G</tspan></text>
<text fill="#add8e6" xml:space="preserve" transform="matrix(1 0 -0 1 0 523)" font-size="7.48" font-family="ZapfDingbats"><tspan y="-503.7" x="212">G</tspan></text>
<text xml:space="preserve" transform="matrix(1 0 -0 1 0 523)" font-size="7.48" font-family="ZapfDingbats"><tspan y="-503.7" x="212">G</tspan></text>
<text fill="#add8e6" xml:space="preserve" transform="matrix(1 0 -0 1 0 523)" font-size="7.48" font-family="ZapfDingbats"><tspan y="-159.81" x="483.08">G</tspan></text>
<text xml:space="preserve" transform="matrix(1 0 -0 1 0 523)" font-size="7.48" font-family="ZapfDingbats"><tspan y="-159.81" x="483.08">G</tspan></text>
<text fill="#add8e6" xml:space="preserve" transform="matrix(1 0 -0 1 0 523)" font-size="7.48" font-family="ZapfDingbats"><tspan y="-124.57" x="622.4">G</tspan></text>
<text xml:space="preserve" transform="matrix(1 0 -0 1 0 523)" font-size="7.48" font-family="ZapfDingbats"><tspan y="-124.57" x="622.4">G</tspan></text>
<text fill="#add8e6" xml:space="preserve" transform="matrix(1 0 -0 1 0 523)" font-size="7.48" font-family="ZapfDingbats"><tspan y="-136.95" x="437.96">G</tspan></text>
<text xml:space="preserve" transform="matrix(1 0 -0 1 0 523)" font-size="7.48" font-family="ZapfDingbats"><tspan y="-136.95" x="437.96">G</tspan></text>
<text fill="#add8e6" xml:space="preserve" transform="matrix(1 0 -0 1 0 523)" font-size="7.48" font-family="ZapfDingbats"><tspan y="-171.24" x="367.36">G</tspan></text>
<text xml:space="preserve" transform="matrix(1 0 -0 1 0 523)" font-size="7.48" font-family="ZapfDingbats"><tspan y="-171.24" x="367.36">G</tspan></text>
<text fill="#add8e6" xml:space="preserve" transform="matrix(1 0 -0 1 0 523)" font-size="7.48" font-family="ZapfDingbats"><tspan y="-119.8" x="529.14">G</tspan></text>
<text xml:space="preserve" transform="matrix(1 0 -0 1 0 523)" font-size="7.48" font-family="ZapfDingbats"><tspan y="-119.8" x="529.14">G</tspan></text>
<text fill="#add8e6" xml:space="preserve" transform="matrix(1 0 -0 1 0 523)" font-size="7.48" font-family="ZapfDingbats"><tspan y="-158.86" x="330.74">G</tspan></text>
<text xml:space="preserve" transform="matrix(1 0 -0 1 0 523)" font-size="7.48" font-family="ZapfDingbats"><tspan y="-158.86" x="330.74">G</tspan></text>
<text fill="#add8e6" xml:space="preserve" transform="matrix(1 0 -0 1 0 523)" font-size="7.48" font-family="ZapfDingbats"><tspan y="-75.03" x="621.83">G</tspan></text>
<text xml:space="preserve" transform="matrix(1 0 -0 1 0 523)" font-size="7.48" font-family="ZapfDingbats"><tspan y="-75.03" x="621.83">G</tspan></text>
<text fill="#add8e6" xml:space="preserve" transform="matrix(1 0 -0 1 0 523)" font-size="7.48" font-family="ZapfDingbats"><tspan y="-138.86" x="368.31">G</tspan></text>
<text xml:space="preserve" transform="matrix(1 0 -0 1 0 523)" font-size="7.48" font-family="ZapfDingbats"><tspan y="-138.86" x="368.31">G</tspan></text>
<text fill="#add8e6" xml:space="preserve" transform="matrix(1 0 -0 1 0 523)" font-size="7.48" font-family="ZapfDingbats"><tspan y="-131.23" x="318.47">G</tspan></text>
<text xml:space="preserve" transform="matrix(1 0 -0 1 0 523)" font-size="7.48" font-family="ZapfDingbats"><tspan y="-131.23" x="318.47">G</tspan></text>
<text fill="#add8e6" xml:space="preserve" transform="matrix(1 0 -0 1 0 523)" font-size="7.48" font-family="ZapfDingbats"><tspan y="-117.9" x="498.94">G</tspan></text>
<text xml:space="preserve" transform="matrix(1 0 -0 1 0 523)" font-size="7.48" font-family="ZapfDingbats"><tspan y="-117.9" x="498.94">G</tspan></text>
<text fill="#add8e6" xml:space="preserve" transform="matrix(1 0 -0 1 0 523)" font-size="7.48" font-family="ZapfDingbats"><tspan y="-165.53" x="377.37">G</tspan></text>
<text xml:space="preserve" transform="matrix(1 0 -0 1 0 523)" font-size="7.48" font-family="ZapfDingbats"><tspan y="-165.53" x="377.37">G</tspan></text>
<text fill="#add8e6" xml:space="preserve" transform="matrix(1 0 -0 1 0 523)" font-size="7.48" font-family="ZapfDingbats"><tspan y="-161.72" x="416.07">G</tspan></text>
<text xml:space="preserve" transform="matrix(1 0 -0 1 0 523)" font-size="7.48" font-family="ZapfDingbats"><tspan y="-161.72" x="416.07">G</tspan></text>
<text fill="#add8e6" xml:space="preserve" transform="matrix(1 0 -0 1 0 523)" font-size="7.48" font-family="ZapfDingbats"><tspan y="-155.05" x="483.65">G</tspan></text>
<text xml:space="preserve" transform="matrix(1 0 -0 1 0 523)" font-size="7.48" font-family="ZapfDingbats"><tspan y="-155.05" x="483.65">G</tspan></text>
<text fill="#add8e6" xml:space="preserve" transform="matrix(1 0 -0 1 0 523)" font-size="7.48" font-family="ZapfDingbats"><tspan y="-149.33" x="476.29">G</tspan></text>
<text xml:space="preserve" transform="matrix(1 0 -0 1 0 523)" font-size="7.48" font-family="ZapfDingbats"><tspan y="-149.33" x="476.29">G</tspan></text>
<text fill="#add8e6" xml:space="preserve" transform="matrix(1 0 -0 1 0 523)" font-size="7.48" font-family="ZapfDingbats"><tspan y="-190.3" x="412.86">G</tspan></text>
<text xml:space="preserve" transform="matrix(1 0 -0 1 0 523)" font-size="7.48" font-family="ZapfDingbats"><tspan y="-190.3" x="412.86">G</tspan></text>
<text fill="#add8e6" xml:space="preserve" transform="matrix(1 0 -0 1 0 523)" font-size="7.48" font-family="ZapfDingbats"><tspan y="-169.34" x="380.2">G</tspan></text>
<text xml:space="preserve" transform="matrix(1 0 -0 1 0 523)" font-size="7.48" font-family="ZapfDingbats"><tspan y="-169.34" x="380.2">G</tspan></text>
<text fill="#add8e6" xml:space="preserve" transform="matrix(1 0 -0 1 0 523)" font-size="7.48" font-family="ZapfDingbats"><tspan y="-147.43" x="354.71">G</tspan></text>
<text xml:space="preserve" transform="matrix(1 0 -0 1 0 523)" font-size="7.48" font-family="ZapfDingbats"><tspan y="-147.43" x="354.71">G</tspan></text>
<text fill="#add8e6" xml:space="preserve" transform="matrix(1 0 -0 1 0 523)" font-size="7.48" font-family="ZapfDingbats"><tspan y="-161.72" x="386.62">G</tspan></text>
<text xml:space="preserve" transform="matrix(1 0 -0 1 0 523)" font-size="7.48" font-family="ZapfDingbats"><tspan y="-161.72" x="386.62">G</tspan></text>
<text fill="#add8e6" xml:space="preserve" transform="matrix(1 0 -0 1 0 523)" font-size="7.48" font-family="ZapfDingbats"><tspan y="-148.38" x="403.23">G</tspan></text>
<text xml:space="preserve" transform="matrix(1 0 -0 1 0 523)" font-size="7.48" font-family="ZapfDingbats"><tspan y="-148.38" x="403.23">G</tspan></text>
<text fill="#add8e6" xml:space="preserve" transform="matrix(1 0 -0 1 0 523)" font-size="7.48" font-family="ZapfDingbats"><tspan y="-156" x="364.15">G</tspan></text>
<text xml:space="preserve" transform="matrix(1 0 -0 1 0 523)" font-size="7.48" font-family="ZapfDingbats"><tspan y="-156" x="364.15">G</tspan></text>
<text fill="#add8e6" xml:space="preserve" transform="matrix(1 0 -0 1 0 523)" font-size="7.48" font-family="ZapfDingbats"><tspan y="-183.63" x="354.34">G</tspan></text>
<text xml:space="preserve" transform="matrix(1 0 -0 1 0 523)" font-size="7.48" font-family="ZapfDingbats"><tspan y="-183.63" x="354.34">G</tspan></text>
<text fill="#add8e6" xml:space="preserve" transform="matrix(1 0 -0 1 0 523)" font-size="7.48" font-family="ZapfDingbats"><tspan y="-213.16" x="308.46">G</tspan></text>
<text xml:space="preserve" transform="matrix(1 0 -0 1 0 523)" font-size="7.48" font-family="ZapfDingbats"><tspan y="-213.16" x="308.46">G</tspan></text>
<text fill="#add8e6" xml:space="preserve" transform="matrix(1 0 -0 1 0 523)" font-size="7.48" font-family="ZapfDingbats"><tspan y="-219.83" x="238.62">G</tspan></text>
<text xml:space="preserve" transform="matrix(1 0 -0 1 0 523)" font-size="7.48" font-family="ZapfDingbats"><tspan y="-219.83" x="238.62">G</tspan></text>
<text fill="#add8e6" xml:space="preserve" transform="matrix(1 0 -0 1 0 523)" font-size="7.48" font-family="ZapfDingbats"><tspan y="-216.97" x="311.11">G</tspan></text>
<text xml:space="preserve" transform="matrix(1 0 -0 1 0 523)" font-size="7.48" font-family="ZapfDingbats"><tspan y="-216.97" x="311.11">G</tspan></text>
<text fill="#add8e6" xml:space="preserve" transform="matrix(1 0 -0 1 0 523)" font-size="7.48" font-family="ZapfDingbats"><tspan y="-253.17" x="190.48">G</tspan></text>
<text xml:space="preserve" transform="matrix(1 0 -0 1 0 523)" font-size="7.48" font-family="ZapfDingbats"><tspan y="-253.17" x="190.48">G</tspan></text>
<text fill="#add8e6" xml:space="preserve" transform="matrix(1 0 -0 1 0 523)" font-size="7.48" font-family="ZapfDingbats"><tspan y="-223.64" x="296.19">G</tspan></text>
<text xml:space="preserve" transform="matrix(1 0 -0 1 0 523)" font-size="7.48" font-family="ZapfDingbats"><tspan y="-223.64" x="296.19">G</tspan></text>
<text fill="#add8e6" xml:space="preserve" transform="matrix(1 0 -0 1 0 523)" font-size="7.48" font-family="ZapfDingbats"><tspan y="-240.78" x="226.91">G</tspan></text>
<text xml:space="preserve" transform="matrix(1 0 -0 1 0 523)" font-size="7.48" font-family="ZapfDingbats"><tspan y="-240.78" x="226.91">G</tspan></text>
</g>
<path transform="matrix(1,0,0,-1,0,523)" stroke-width=".75" stroke-linecap="round" stroke-linejoin="round" fill="none" stroke="#000000" d="M141.72 60.48H708.04"/>
<path transform="matrix(1,0,0,-1,0,523)" stroke-width=".75" stroke-linecap="round" stroke-linejoin="round" fill="none" stroke="#000000" d="M141.72 60.48V53.28"/>
<path transform="matrix(1,0,0,-1,0,523)" stroke-width=".75" stroke-linecap="round" stroke-linejoin="round" fill="none" stroke="#000000" d="M236.1 60.48V53.28"/>
<path transform="matrix(1,0,0,-1,0,523)" stroke-width=".75" stroke-linecap="round" stroke-linejoin="round" fill="none" stroke="#000000" d="M330.49 60.48V53.28"/>
<path transform="matrix(1,0,0,-1,0,523)" stroke-width=".75" stroke-linecap="round" stroke-linejoin="round" fill="none" stroke="#000000" d="M424.88 60.48V53.28"/>
<path transform="matrix(1,0,0,-1,0,523)" stroke-width=".75" stroke-linecap="round" stroke-linejoin="round" fill="none" stroke="#000000" d="M519.27 60.48V53.28"/>
<path transform="matrix(1,0,0,-1,0,523)" stroke-width=".75" stroke-linecap="round" stroke-linejoin="round" fill="none" stroke="#000000" d="M613.66 60.48V53.28"/>
<path transform="matrix(1,0,0,-1,0,523)" stroke-width=".75" stroke-linecap="round" stroke-linejoin="round" fill="none" stroke="#000000" d="M708.04 60.48V53.28"/>
<text xml:space="preserve" transform="matrix(1 0 -0 1 0 523)" font-size="18" font-family="Helvetica"><tspan y="-34.56" x="136.71">5</tspan></text>
<text xml:space="preserve" transform="matrix(1 0 -0 1 0 523)" font-size="18" font-family="Helvetica"><tspan y="-34.56" x="226.1 236.108">10</tspan></text>
<text xml:space="preserve" transform="matrix(1 0 -0 1 0 523)" font-size="18" font-family="Helvetica"><tspan y="-34.56" x="320.48 330.488">15</tspan></text>
<text xml:space="preserve" transform="matrix(1 0 -0 1 0 523)" font-size="18" font-family="Helvetica"><tspan y="-34.56" x="414.87 424.878">20</tspan></text>
<text xml:space="preserve" transform="matrix(1 0 -0 1 0 523)" font-size="18" font-family="Helvetica"><tspan y="-34.56" x="509.26 519.268">25</tspan></text>
<text xml:space="preserve" transform="matrix(1 0 -0 1 0 523)" font-size="18" font-family="Helvetica"><tspan y="-34.56" x="603.65 613.658">30</tspan></text>
<text xml:space="preserve" transform="matrix(1 0 -0 1 0 523)" font-size="18" font-family="Helvetica"><tspan y="-34.56" x="698.04 708.048">35</tspan></text>
<path transform="matrix(1,0,0,-1,0,523)" stroke-width=".75" stroke-linecap="round" stroke-linejoin="round" fill="none" stroke="#000000" d="M59.04 125.26V506.29"/>
<path transform="matrix(1,0,0,-1,0,523)" stroke-width=".75" stroke-linecap="round" stroke-linejoin="round" fill="none" stroke="#000000" d="M59.04 125.26H51.84"/>
<path transform="matrix(1,0,0,-1,0,523)" stroke-width=".75" stroke-linecap="round" stroke-linejoin="round" fill="none" stroke="#000000" d="M59.04 220.52H51.84"/>
<path transform="matrix(1,0,0,-1,0,523)" stroke-width=".75" stroke-linecap="round" stroke-linejoin="round" fill="none" stroke="#000000" d="M59.04 315.77H51.84"/>
<path transform="matrix(1,0,0,-1,0,523)" stroke-width=".75" stroke-linecap="round" stroke-linejoin="round" fill="none" stroke="#000000" d="M59.04 411.03H51.84"/>
<path transform="matrix(1,0,0,-1,0,523)" stroke-width=".75" stroke-linecap="round" stroke-linejoin="round" fill="none" stroke="#000000" d="M59.04 506.29H51.84"/>
<text xml:space="preserve" transform="matrix(0 -1 1 0 0 523)" font-size="18" font-family="Helvetica"><tspan y="41.76" x="115.25 125.258">10</tspan></text>
<text xml:space="preserve" transform="matrix(0 -1 1 0 0 523)" font-size="18" font-family="Helvetica"><tspan y="41.76" x="210.51 220.51799">20</tspan></text>
<text xml:space="preserve" transform="matrix(0 -1 1 0 0 523)" font-size="18" font-family="Helvetica"><tspan y="41.76" x="305.77 315.77799">30</tspan></text>
<text xml:space="preserve" transform="matrix(0 -1 1 0 0 523)" font-size="18" font-family="Helvetica"><tspan y="41.76" x="401.03 411.038">40</tspan></text>
<text xml:space="preserve" transform="matrix(0 -1 1 0 0 523)" font-size="18" font-family="Helvetica"><tspan y="41.76" x="496.29 506.298">50</tspan></text>
<text xml:space="preserve" transform="matrix(1 0 -0 1 0 523)" font-size="18" font-family="Helvetica"><tspan y="-5.76" x="373.73 377.726 386.726 391.73 401.738">lstat</tspan></text>
<text xml:space="preserve" transform="matrix(0 -1 1 0 0 523)" font-size="18" font-family="Helvetica"><tspan y="12.96" x="269.95 284.944 294.952 304.96">medv</tspan></text>
<g clip-path="url(#clip_1)">
<path transform="matrix(1,0,0,-1,0,523)" stroke-width="2.25" stroke-linecap="round" stroke-linejoin="round" fill="none" stroke="#ff0000" d="M83.57 510.9 84.71 505.89 101.7 439.1 102.83 435.18 114.53 398.09 117.74 388.96 118.31 387.39 128.88 360.44 131.33 354.78 134.73 347.28 136.05 344.46 136.81 342.88 138.13 340.16 138.7 339.01 138.88 338.63 142.47 331.6 145.3 326.33 147.19 322.95 147.95 321.62 154.93 310.1 158.71 304.41 158.89 304.13 160.41 301.96 163.43 297.77 164.56 296.26 167.39 292.59 171.17 287.97 171.73 287.31 172.86 285.99 173.43 285.34 174.19 284.49 183.25 275.06 186.83 271.72 193.44 266.09 195.52 264.45 199.29 261.62 201.37 260.14 209.86 254.62 211 253.94 214.96 251.67 217.98 250.03 219.11 249.44 225.34 246.37 226.1 246.02 226.85 245.67 229.87 244.31 230.25 244.15 238.18 240.88 241.58 239.58 242.9 239.09 246.11 237.93 248 237.27 261.02 233.01 262.16 232.66 267.25 231.11 273.48 229.27 280.09 227.36 280.28 227.31 281.98 226.82 283.3 226.44 290.09 224.48 299.16 221.84 311.43 218.14 314.07 217.31 321.43 214.96 323.7 214.22 324.07 214.1 331.06 211.75 332.76 211.16 333.7 210.83 337.85 209.37 340.88 208.29 346.35 206.28 355.03 202.98 357.3 202.09 357.68 201.95 367.11 198.15 370.14 196.91 370.32 196.83 371.27 196.44 379.2 193.09 380.33 192.61 383.16 191.39 389.58 188.59 400.72 183.65 406.19 181.19 415.82 176.85 419.03 175.4 440.93 165.7 473.96 152.49 479.25 150.64 486.04 148.39 486.61 148.21 501.9 143.81 532.11 138.06 572.13 137.3 624.79 146.88 625.36 147.03 696.91 159.93"/>
</g>
</svg>
