<svg xmlns="http://www.w3.org/2000/svg" xmlns:xlink="http://www.w3.org/1999/xlink" version="1.1" width="526pt" height="440.00004pt" viewBox="0 0 526 440.00004">
<defs>
<clipPath id="clip_0">
<path d="M0 .5H526V440H0Z"/>
</clipPath>
<clipPath id="clip_1">
<path d="M0 0H526V441H0Z"/>
</clipPath>
</defs>
<g>
<path d="M0 .5H526.5V440H0Z" fill="#ffffff"/>
<g clip-path="url(#clip_0)">
<g clip-path="url(#clip_1)">
<path transform="matrix(1,0,0,-1,0,0)" d="M75.23-87.5H92.23801V-366.559H75.23Z" fill="#bebebe"/>
<path transform="matrix(1,0,0,-1,0,0)" stroke-width=".75" stroke-linecap="round" stroke-linejoin="round" fill="none" stroke="#000000" d="M75.23-87.5H92.23801V-366.559H75.23Z"/>
<path transform="matrix(1,0,0,-1,0,0)" d="M95.648-87.5H112.66V-134.422H95.648Z" fill="#bebebe"/>
<path transform="matrix(1,0,0,-1,0,0)" stroke-width=".75" stroke-linecap="round" stroke-linejoin="round" fill="none" stroke="#000000" d="M95.648-87.5H112.66V-134.422H95.648Z"/>
<path transform="matrix(1,0,0,-1,0,0)" d="M116.059-87.5H133.071V-117.479999H116.059Z" fill="#bebebe"/>
<path transform="matrix(1,0,0,-1,0,0)" stroke-width=".75" stroke-linecap="round" stroke-linejoin="round" fill="none" stroke="#000000" d="M116.059-87.5H133.071V-117.479999H116.059Z"/>
<path transform="matrix(1,0,0,-1,0,0)" d="M136.469-59.539H153.48099V-87.5H136.469Z" fill="#bebebe"/>
<path transform="matrix(1,0,0,-1,0,0)" stroke-width=".75" stroke-linecap="round" stroke-linejoin="round" fill="none" stroke="#000000" d="M136.469-59.539H153.48099V-87.5H136.469Z"/>
<path transform="matrix(1,0,0,-1,0,0)" d="M156.879-60.898H173.89099V-87.5H156.879Z" fill="#bebebe"/>
<path transform="matrix(1,0,0,-1,0,0)" stroke-width=".75" stroke-linecap="round" stroke-linejoin="round" fill="none" stroke="#000000" d="M156.879-60.898H173.89099V-87.5H156.879Z"/>
<path transform="matrix(1,0,0,-1,0,0)" d="M177.289-61.09H194.301V-87.5H177.289Z" fill="#bebebe"/>
<path transform="matrix(1,0,0,-1,0,0)" stroke-width=".75" stroke-linecap="round" stroke-linejoin="round" fill="none" stroke="#000000" d="M177.289-61.09H194.301V-87.5H177.289Z"/>
<path transform="matrix(1,0,0,-1,0,0)" d="M197.699-61.852H214.711V-87.5H197.699Z" fill="#bebebe"/>
<path transform="matrix(1,0,0,-1,0,0)" stroke-width=".75" stroke-linecap="round" stroke-linejoin="round" fill="none" stroke="#000000" d="M197.699-61.852H214.711V-87.5H197.699Z"/>
<path transform="matrix(1,0,0,-1,0,0)" d="M218.121-62.102H235.129V-87.5H218.121Z" fill="#bebebe"/>
<path transform="matrix(1,0,0,-1,0,0)" stroke-width=".75" stroke-linecap="round" stroke-linejoin="round" fill="none" stroke="#000000" d="M218.121-62.102H235.129V-87.5H218.121Z"/>
<path transform="matrix(1,0,0,-1,0,0)" d="M238.531-62.332H255.539V-87.5H238.531Z" fill="#bebebe"/>
<path transform="matrix(1,0,0,-1,0,0)" stroke-width=".75" stroke-linecap="round" stroke-linejoin="round" fill="none" stroke="#000000" d="M238.531-62.332H255.539V-87.5H238.531Z"/>
<path transform="matrix(1,0,0,-1,0,0)" d="M258.941-62.551H275.949V-87.5H258.941Z" fill="#bebebe"/>
<path transform="matrix(1,0,0,-1,0,0)" stroke-width=".75" stroke-linecap="round" stroke-linejoin="round" fill="none" stroke="#000000" d="M258.941-62.551H275.949V-87.5H258.941Z"/>
<path transform="matrix(1,0,0,-1,0,0)" d="M279.352-62.789H296.36V-87.5H279.352Z" fill="#bebebe"/>
<path transform="matrix(1,0,0,-1,0,0)" stroke-width=".75" stroke-linecap="round" stroke-linejoin="round" fill="none" stroke="#000000" d="M279.352-62.789H296.36V-87.5H279.352Z"/>
<path transform="matrix(1,0,0,-1,0,0)" d="M299.762-63H316.77V-87.5H299.762Z" fill="#bebebe"/>
<path transform="matrix(1,0,0,-1,0,0)" stroke-width=".75" stroke-linecap="round" stroke-linejoin="round" fill="none" stroke="#000000" d="M299.762-63H316.77V-87.5H299.762Z"/>
<path transform="matrix(1,0,0,-1,0,0)" d="M320.172-87.5H337.18V-111.352H320.172Z" fill="#bebebe"/>
<path transform="matrix(1,0,0,-1,0,0)" stroke-width=".75" stroke-linecap="round" stroke-linejoin="round" fill="none" stroke="#000000" d="M320.172-87.5H337.18V-111.352H320.172Z"/>
<path transform="matrix(1,0,0,-1,0,0)" d="M340.59-64.301H357.602V-87.5H340.59Z" fill="#bebebe"/>
<path transform="matrix(1,0,0,-1,0,0)" stroke-width=".75" stroke-linecap="round" stroke-linejoin="round" fill="none" stroke="#000000" d="M340.59-64.301H357.602V-87.5H340.59Z"/>
<path transform="matrix(1,0,0,-1,0,0)" d="M361-64.398H378.012V-87.5H361Z" fill="#bebebe"/>
<path transform="matrix(1,0,0,-1,0,0)" stroke-width=".75" stroke-linecap="round" stroke-linejoin="round" fill="none" stroke="#000000" d="M361-64.398H378.012V-87.5H361Z"/>
<path transform="matrix(1,0,0,-1,0,0)" d="M381.41-87.5H398.418V-109.25H381.41Z" fill="#bebebe"/>
<path transform="matrix(1,0,0,-1,0,0)" stroke-width=".75" stroke-linecap="round" stroke-linejoin="round" fill="none" stroke="#000000" d="M381.41-87.5H398.418V-109.25H381.41Z"/>
<path transform="matrix(1,0,0,-1,0,0)" d="M401.82-66.531H418.832V-87.5H401.82Z" fill="#bebebe"/>
<path transform="matrix(1,0,0,-1,0,0)" stroke-width=".75" stroke-linecap="round" stroke-linejoin="round" fill="none" stroke="#000000" d="M401.82-66.531H418.832V-87.5H401.82Z"/>
<path transform="matrix(1,0,0,-1,0,0)" d="M422.23-67.711H439.238V-87.5H422.23Z" fill="#bebebe"/>
<path transform="matrix(1,0,0,-1,0,0)" stroke-width=".75" stroke-linecap="round" stroke-linejoin="round" fill="none" stroke="#000000" d="M422.23-67.711H439.238V-87.5H422.23Z"/>
<path transform="matrix(1,0,0,-1,0,0)" d="M442.648-69.391H459.66V-87.5H442.648Z" fill="#bebebe"/>
<path transform="matrix(1,0,0,-1,0,0)" stroke-width=".75" stroke-linecap="round" stroke-linejoin="round" fill="none" stroke="#000000" d="M442.648-69.391H459.66V-87.5H442.648Z"/>
<path transform="matrix(1,0,0,-1,0,0)" d="M463.059-70.621H480.07099V-87.5H463.059Z" fill="#bebebe"/>
<path transform="matrix(1,0,0,-1,0,0)" stroke-width=".75" stroke-linecap="round" stroke-linejoin="round" fill="none" stroke="#000000" d="M463.059-70.621H480.07099V-87.5H463.059Z"/>
<path transform="matrix(1,0,0,-1,0,0)" stroke-width=".75" stroke-linecap="round" stroke-linejoin="round" fill="none" stroke="#000000" d="M59.039-338.41V-87.5"/>
<path transform="matrix(1,0,0,-1,0,0)" stroke-width=".75" stroke-linecap="round" stroke-linejoin="round" fill="none" stroke="#000000" d="M59.039-338.41H51.84"/>
<path transform="matrix(1,0,0,-1,0,0)" stroke-width=".75" stroke-linecap="round" stroke-linejoin="round" fill="none" stroke="#000000" d="M59.039-275.68H51.84"/>
<path transform="matrix(1,0,0,-1,0,0)" stroke-width=".75" stroke-linecap="round" stroke-linejoin="round" fill="none" stroke="#000000" d="M59.039-212.949H51.84"/>
<path transform="matrix(1,0,0,-1,0,0)" stroke-width=".75" stroke-linecap="round" stroke-linejoin="round" fill="none" stroke="#000000" d="M59.039-150.219H51.84"/>
<path transform="matrix(1,0,0,-1,0,0)" stroke-width=".75" stroke-linecap="round" stroke-linejoin="round" fill="none" stroke="#000000" d="M59.039-87.5H51.84"/>
<text xml:space="preserve" transform="matrix(0 -1 1 0 0 0)" font-size="12" font-family="NimbusSanL"><tspan y="41.7602" x="-348.5859">&#x2212;</tspan></text>
<text xml:space="preserve" transform="matrix(0 -1 1 0 0 0)" font-size="12" font-family="NimbusSanL"><tspan y="41.7602" x="-341.5779 -334.9059">40</tspan></text>
<text xml:space="preserve" transform="matrix(0 -1 1 0 0 0)" font-size="12" font-family="NimbusSanL"><tspan y="41.7602" x="-285.8499">&#x2212;</tspan></text>
<text xml:space="preserve" transform="matrix(0 -1 1 0 0 0)" font-size="12" font-family="NimbusSanL"><tspan y="41.7602" x="-278.84193 -272.16993">30</tspan></text>
<text xml:space="preserve" transform="matrix(0 -1 1 0 0 0)" font-size="12" font-family="NimbusSanL"><tspan y="41.7602" x="-223.12592">&#x2212;</tspan></text>
<text xml:space="preserve" transform="matrix(0 -1 1 0 0 0)" font-size="12" font-family="NimbusSanL"><tspan y="41.7602" x="-216.11792 -209.44593">20</tspan></text>
<text xml:space="preserve" transform="matrix(0 -1 1 0 0 0)" font-size="12" font-family="NimbusSanL"><tspan y="41.7602" x="-160.38993">&#x2212;</tspan></text>
<text xml:space="preserve" transform="matrix(0 -1 1 0 0 0)" font-size="12" font-family="NimbusSanL"><tspan y="41.7602" x="-153.38193 -146.70993 -90.83793">100</tspan></text>
<text xml:space="preserve" transform="matrix(.70710679 -.70710679 .70710679 .70710679 0 0)" font-size="7.000005" font-family="NimbusSanL"><tspan y="321.25987" x="-248.56601">l</tspan><tspan y="321.25984" x="-247.01201 -243.12 -239.22798">eng</tspan><tspan y="321.2598" x="-235.33597 -233.38997 -229.49796 -225.99796 -222.10594">ths_b</tspan><tspan y="321.25978" x="-218.21393 -214.32192">eh</tspan><tspan y="321.25975" x="-210.4299 -208.87589">in</tspan><tspan y="321.25978" x="-204.9839">d</tspan><tspan y="335.76277" x="-256.88838 -252.99634 -249.10433 -246.77333 -243.27333">horse</tspan><tspan y="335.76274" x="-239.38132 -235.4893">_g</tspan><tspan y="335.7627" x="-231.59729 -227.70526 -223.8133 -221.48229">earP</tspan></text>
<text xml:space="preserve" transform="matrix(.70710679 -.70710679 .70710679 .70710679 0 0)" font-size="7.000005" font-family="NimbusSanL"><tspan y="335.7627" x="-216.81328">&#x2212;</tspan></text>
<text xml:space="preserve" transform="matrix(.70710679 -.70710679 .70710679 .70710679 0 0)" font-size="7.000005" font-family="NimbusSanL"><tspan y="335.7627" x="-212.72528 -210.77925 -206.11028 -202.21826">/E1/</tspan><tspan y="335.76268" x="-200.27225 -195.60324 -190.54923">PC1</tspan><tspan y="350.1947" x="-232.13936">h</tspan><tspan y="350.19468" x="-228.24735 -224.35533 -222.02433 -218.52433">orse</tspan><tspan y="350.19465" x="-214.63231 -210.7403 -206.84828">_ge</tspan><tspan y="350.1946" x="-202.95627 -199.06424 -196.73325 -191.67923 -187.01023 -183.11826">arCP1/</tspan><tspan y="350.19459" x="-181.17223 -176.11823">H1</tspan><tspan y="364.6269" x="-213.62642">h</tspan><tspan y="364.62687" x="-209.7344 -205.84238">or</tspan><tspan y="364.6269" x="-203.51142">s</tspan><tspan y="364.62687" x="-200.01139">e</tspan><tspan y="364.62684" x="-196.11937">_</tspan><tspan y="364.62687" x="-192.22739">g</tspan><tspan y="364.62684" x="-188.33538 -184.44336 -180.55133 -178.22034 -173.55133">earXB</tspan></text>
<text xml:space="preserve" transform="matrix(.70710679 -.70710679 .70710679 .70710679 0 0)" font-size="7.000005" font-family="NimbusSanL"><tspan y="364.62684" x="-168.88233">&#x2212;</tspan></text>
<text xml:space="preserve" transform="matrix(.70710679 -.70710679 .70710679 .70710679 0 0)" font-size="7.000005" font-family="NimbusSanL"><tspan y="364.62684" x="-164.79433 -162.84833">/H</tspan><tspan y="378.99528" x="-187.3234 -183.43137 -179.5394">hor</tspan><tspan y="378.9953" x="-177.20839">s</tspan><tspan y="378.99525" x="-173.70836">e</tspan><tspan y="378.99528" x="-169.81638">_</tspan><tspan y="378.99525" x="-165.92436 -162.03235 -158.14034">gea</tspan><tspan y="378.9952" x="-154.24832 -151.91733 -147.24832">rB2</tspan><tspan y="393.4982" x="-184.75516">h</tspan><tspan y="393.49818" x="-180.86315 -176.97113 -174.64014 -171.14014 -167.24813">orse_</tspan><tspan y="393.49815" x="-163.35611 -159.46408 -155.57212 -151.68009 -149.34909 -144.68009">gearPC</tspan></text>
<text xml:space="preserve" transform="matrix(.70710679 -.70710679 .70710679 .70710679 0 0)" font-size="7.000005" font-family="NimbusSanL"><tspan y="393.4981" x="-139.62609">&#x2212;</tspan></text>
<text xml:space="preserve" transform="matrix(.70710679 -.70710679 .70710679 .70710679 0 0)" font-size="7.000005" font-family="NimbusSanL"><tspan y="393.4981" x="-135.53807 -133.59204">/E</tspan><tspan y="407.9301" x="-159.62104 -155.72902">ho</tspan><tspan y="407.93009" x="-151.837">r</tspan><tspan y="407.9301" x="-149.50603">s</tspan><tspan y="407.93009" x="-146.00601">e</tspan><tspan y="407.93006" x="-142.114 -138.22199">_g</tspan><tspan y="407.93009" x="-134.32999">e</tspan><tspan y="407.93006" x="-130.43798 -126.54596 -124.214969 -119.54596">arSR</tspan><tspan y="422.36235" x="-166.19437">h</tspan><tspan y="422.3623" x="-162.30236 -158.41034 -156.07935 -152.57935 -148.68733">orse_</tspan><tspan y="422.36228" x="-144.79532">g</tspan><tspan y="422.36225" x="-140.9033 -137.01129 -133.11927">ear</tspan><tspan y="422.36228" x="-130.7883">T</tspan><tspan y="422.36225" x="-126.51128 -122.2343 -120.28827">T/V</tspan><tspan y="422.36228" x="-115.61929">/</tspan><tspan y="422.36225" x="-113.67326 -109.00426 -103.95026">SR1</tspan><tspan y="436.79454" x="-137.37094 -133.47891">ho</tspan><tspan y="436.7945" x="-129.5869">r</tspan><tspan y="436.79457" x="-127.255939">s</tspan><tspan y="436.7945" x="-123.755908 -119.86389 -115.97191 -112.079898 -108.18788">e_gea</tspan><tspan y="436.79447" x="-104.29587">r</tspan><tspan y="436.7945" x="-101.96486">H</tspan><tspan y="436.79447" x="-96.91086">/</tspan><tspan y="436.7945" x="-94.96486 -90.29585">XB</tspan><tspan y="451.22645" x="-118.27051 -114.378498">ho</tspan><tspan y="451.2264" x="-110.48648 -108.15549 -104.65549">rse</tspan><tspan y="451.22639" x="-100.76347 -96.87146 -92.97948 -89.08745 -85.19542 -82.864429 -78.19542 -76.249408">_gearB/H</tspan><tspan y="465.66554" x="-111.4196 -107.52757 -103.63556 -101.304569 -97.804569 -93.91254 -90.02051 -86.12848">horse_ge</tspan><tspan y="465.66557" x="-82.23648">a</tspan><tspan y="465.66554" x="-78.34447 -76.01347">rT</tspan><tspan y="465.66557" x="-71.73648">T</tspan></text>
<text xml:space="preserve" transform="matrix(.70710679 -.70710679 .70710679 .70710679 0 0)" font-size="7.000005" font-family="NimbusSanL"><tspan y="465.66554" x="-67.45947">&#x2212;</tspan></text>
<text xml:space="preserve" transform="matrix(.70710679 -.70710679 .70710679 .70710679 0 0)" font-size="7.000005" font-family="NimbusSanL"><tspan y="465.66554" x="-63.37146 -61.42546">/B</tspan><tspan y="480.09779" x="-127.14111 -123.2491">ho</tspan><tspan y="480.09776" x="-119.357089 -117.02609 -113.52609 -109.63406 -105.742038 -101.850009">rse_ge</tspan><tspan y="480.09773" x="-97.95799 -94.06596 -91.73497 -87.45799">arTT</tspan><tspan y="480.09776" x="-83.181 -79.28897">2/</tspan><tspan y="480.09773" x="-77.34294">H</tspan></text>
<text xml:space="preserve" transform="matrix(.70710679 -.70710679 .70710679 .70710679 0 0)" font-size="7.000005" font-family="NimbusSanL"><tspan y="480.09773" x="-72.288928">&#x2212;</tspan></text>
<text xml:space="preserve" transform="matrix(.70710679 -.70710679 .70710679 .70710679 0 0)" font-size="7.000005" font-family="NimbusSanL"><tspan y="480.09779" x="-68.20094">/</tspan><tspan y="480.09773" x="-66.25493 -61.585924">XB</tspan></text>
<text xml:space="preserve" transform="matrix(.70710679 -.70710679 .70710679 .70710679 0 0)" font-size="7.000005" font-family="NimbusSanL"><tspan y="480.09773" x="-56.916917">&#x2212;</tspan></text>
<text xml:space="preserve" transform="matrix(.70710679 -.70710679 .70710679 .70710679 0 0)" font-size="7.000005" font-family="NimbusSanL"><tspan y="480.09773" x="-52.828905">/</tspan><tspan y="480.09776" x="-50.882905 -46.213899">B1</tspan><tspan y="494.52998" x="-83.52086 -79.62883 -75.7368">hor</tspan><tspan y="494.53" x="-73.40585">s</tspan><tspan y="494.52998" x="-69.90581 -66.01378">e_</tspan><tspan y="494.53" x="-62.121797 -58.229768 -54.337739 -50.44571">gear</tspan><tspan y="494.52998" x="-48.11473">T</tspan><tspan y="494.53" x="-43.837739">T</tspan><tspan y="494.52998" x="-39.56073 -37.61473 -32.945726">/SR</tspan><tspan y="508.9619" x="-64.035358 -60.143327 -56.251298 -53.920335 -50.420305 -46.528276 -42.636278 -38.744249 -34.852235 -30.960206 -28.629212 -24.352234 -20.07521 -18.129212">horse_gearTT/P</tspan><tspan y="523.3941" x="-73.142688 -69.250659 -65.35863 -63.02765 -59.527635 -55.635606 -51.74359 -47.851564 -43.959535">horse_gea</tspan><tspan y="523.39419" x="-40.067537">r</tspan><tspan y="523.3941" x="-37.736558 -33.459535 -29.18254 -25.290528 -23.344529">TT1/B</tspan></text>
<text xml:space="preserve" transform="matrix(.70710679 -.70710679 .70710679 .70710679 0 0)" font-size="7.000005" font-family="NimbusSanL"><tspan y="523.3941" x="-18.675522">&#x2212;</tspan></text>
<text xml:space="preserve" transform="matrix(.70710679 -.70710679 .70710679 .70710679 0 0)" font-size="7.000005" font-family="NimbusSanL"><tspan y="523.3941" x="-14.587509">/</tspan><tspan y="523.39419" x="-12.64151 -7.9725039 -2.9184876">SR1</tspan><tspan y="537.82608" x="-42.953859 -39.06183 -35.1698 -32.83882 -29.338807 -25.446778 -21.554749 -17.66272 -13.770721 -9.878693 -7.5477297 -2.8787232 -.9326782 4.121338 6.067322 10.736328">horse_gearB/H/XB</tspan><tspan y="552.26516" x="-21.515534 -17.623505 -13.731476 -11.400513 -7.900482 -4.0084536 -.11645508 3.7755738 7.6676027 11.559631 13.890625 18.5596 20.505616 25.174622">horse_gearB/XB</tspan><tspan y="566.6974" x="-2.7998353 1.0921936 4.9842226 7.315216 10.815216 14.707245 18.599274 22.491303 26.383332 30.27536">horse_gear</tspan><tspan y="566.6973" x="32.606325">H</tspan><tspan y="566.6974" x="37.66037 39.606355">/P</tspan><tspan y="581.1295" x="9.686188 13.578217 17.470246 19.801209 23.301239 27.193268 31.085267 34.977296 38.869325 42.761323 45.092317 50.14633 54.81534">horse_gearCP1</tspan><tspan y="595.4907" x="28.394989 32.287019 36.179048 38.51004 42.01004 45.90207 49.794099 53.686128 57.578126 61.470155 63.801118 68.47012">horse_gearXB</tspan></text>
</g>
</g>
</g>
</svg>
