<svg xmlns="http://www.w3.org/2000/svg" xmlns:xlink="http://www.w3.org/1999/xlink" version="1.1" width="721pt" height="261pt" viewBox="0 0 721 261">
<defs>
<clipPath id="clip_0">
<path transform="matrix(1,0,0,-1,0,261)" d="M57.6 60.48H721.44V261.72H57.6Z"/>
</clipPath>
</defs>
<path transform="matrix(1,0,0,-1,0,261)" d="M0 0H721.44V261.72H0Z" fill="#ffffff"/>
<g clip-path="url(#clip_0)">
<path transform="matrix(1,0,0,-1,0,261)" stroke-width="2.25" stroke-linecap="round" stroke-linejoin="round" fill="none" stroke="#ff0000" d="M82.19 68.57H83.57L84.03 68.35 84.49 67.99 84.95 68.01 85.41 68.43 86.79 68.47 87.26 68.36 87.72 68.08 88.18 68.39 88.64 68.17 90.48 68.55 90.94 68.41 91.4 68.73 91.86 68.97 93.25 68.93 93.71 68.7 94.17 68.38 94.63 67.98 95.09 68.22 96.47 67.98 96.93 68.3 97.39 68.51 97.85 68.61 98.31 68.82 99.7 68.68 100.16 68.77 100.62 69.21 101.08 69.93 101.54 70.11 103.38 70.13 103.84 70.19 104.3 70.22 104.76 70.05 106.15 70.17 106.61 70.05 107.07 70.09 107.53 70.05 107.99 70.03 109.37 69.93 109.83 70.24 110.29 70 110.75 70.24 111.22 70.46 112.6 70.34 113.06 70.45 113.52 70.66 113.98 70.41 114.44 70.34 115.82 70.57 116.28 70.6 116.74 70.84 117.21 70.62 117.67 70.96 119.05 70.49 119.51 70.4 119.97 70.22 120.43 68.92 120.89 69.27 122.27 69.55 122.73 69.5 123.2 69.21 123.66 69.3 125.5 69.18 125.96 69.69 126.42 69.84 126.88 69.82 127.34 70.33 128.72 70.45 129.19 70.27 129.65 70.24 130.11 70.3 130.57 69.95 131.95 70.15 132.41 70.19 132.87 70.07 133.33 69.86 133.79 70.08 135.18 70 135.64 70.05 136.1 70.04 136.56 69.95 137.02 70.21 138.4 70.46 138.86 70.32 139.32 70.04 139.78 69.94 140.24 69.21 141.63 68.87 142.09 68.83 142.55 69.19 143.01 69.21 143.47 69.48 144.85 69.39 145.31 69.35 145.77 69.24H146.23L146.69 69.16 148.54 69.03 149 69.11 149.46 69.82 149.92 70.03 151.3 70.13 151.76 70.11 152.22 69.93 152.68 69.62 153.15 69.95 154.53 70.07 154.99 69.76 155.45 69.64 155.91 69.55 156.37 69.61 157.75 69.21 158.21 69.23 158.67 69.44 159.14 69.76 159.6 69.89 160.98 69.87 161.44 69.8 161.9 69.34 162.36 69.21H162.82L164.2 68.84 164.66 68.65 165.13 68.92 165.59 68.76 167.43 68.66 167.89 68.51 168.35 68.25 168.81 68.45 169.27 68.23 170.65 68.44 171.12 68.41 171.58 68.36 172.04 68.38 172.5 68.57 173.88 68.53 174.34 68.23 174.8 68.22 175.26 68.08 175.72 68.33 177.11 67.93 177.57 68.01 178.03 68.25 178.49 68.42 178.95 68.55 180.33 68.56 180.79 68.64 181.25 69.11 181.71 68.86 182.17 70.27 183.56 70.53 184.02 70.97 184.48 70.86 184.94 71.2 185.4 71.02H186.78L187.24 70.82 187.7 70.69 188.16 70.46 188.62 69.93 190.01 68.67 190.47 69.66 190.93 69.16 191.39 69.96 191.85 70.39 193.23 70.38 193.69 69.81 194.15 70.04 194.61 70.32 195.08 69.85 196.92 70.14 197.38 70.48 197.84 70 198.3 70.17 199.68 70.48 200.14 70.44 200.6 70.59 201.07 71.02 201.53 70.65 202.91 70.89 203.37 70.67 203.83 70.59 204.29 70.56 204.75 71.19 206.13 71.1 206.59 71.06 207.06 71.33 207.52 71.86 207.98 71.41 209.36 72.08 209.82 72.22 210.28 72.7 210.74 72.77 211.2 72.86 212.58 72.91 213.05 72.94 213.51 73.15 213.97 73.86 214.43 73.94 215.81 74.26 216.27 74.07 216.73 74.25 217.19 74.1 217.65 74.76 219.04 74.74 219.5 74.52 219.96 74.74 220.42 74.44 220.88 74.28 222.26 74.63 222.72 74.68 223.18 74.6 223.64 74.42 224.1 76.07 225.49 76.65 225.95 76.47 226.41 76.35 226.87 76.07 227.33 76.06 228.71 75.88 229.17 76.09 229.63 76.04 230.09 76.57 230.55 76.73 231.94 76.94 232.4 76.41 232.86 76.55 233.78 76.61 235.16 76.78 235.62 77.2 236.08 77.78 236.54 77.75 237.01 77.51 238.39 78.46 238.85 77.71 239.31 78.33 239.77 77.79 240.23 77.67 241.61 77.58 242.07 77.88 242.53 77.95 243 78.09 243.46 77.52 244.84 77.55 245.3 77.93 245.76 77.91 246.22 77.9 248.06 77.79 248.52 78.04 248.99 78.4 249.45 78.17 251.29 77.41 251.75 77.91 252.21 77.45 252.67 76.28 253.13 76.23 254.51 75.5 254.98 75.9 255.44 76.04 255.9 74.77 256.36 73.94 258.2 74.05 258.66 73.43 259.12 74.13 259.58 74.53 260.97 74.61 261.43 74.64 261.89 74.77 262.35 74.72 262.81 74.5 264.19 75.21 264.65 75.02 265.11 74.5 265.57 74.47 266.03 74.31 267.42 72.86 267.88 72.05 268.34 72.58 268.8 71.95 269.26 72.62 271.1 72.91 271.56 73.81 272.02 75.69 272.48 75.66 273.87 76.38 274.33 76.67 274.79 76.81 275.25 77.16 275.71 77.23 277.09 76.92 277.55 76.79 278.01 77.61 278.47 77.85H278.94L280.32 77.47 280.78 77.21 281.24 77.22 281.7 77.14 282.16 77.31 283.54 77.25 284 77.29 284.46 77.13 284.93 77.91 285.39 78.08 286.77 78.3 287.23 78.51 287.69 78.65 288.15 78.74 289.99 78.96 290.45 79.15 290.92 79.76 291.38 80.05 291.84 79.68 293.22 80.43 293.68 79.73 294.14 79.6 294.6 79.79 295.06 79.9 296.44 80.01 296.91 80.11H297.37L297.83 80.57 298.29 80.71 299.67 80.88 300.13 80.91 300.59 80.29 301.05 80.44 301.51 80.49 302.9 80.31 303.36 80.59 303.82 80.39 304.28 80.89 304.74 80.14 306.12 80.01 306.58 79.81 307.04 79.48 307.5 79.42 307.96 79.31 309.35 79.68 309.81 79.74 310.27 80.16 310.73 80.34 311.19 82.42 312.57 83.5 313.03 84.47H313.49L313.95 85.33 314.41 85.79 315.8 86.3 316.26 86.22 316.72 87.01 317.18 86.83 317.64 87.15 319.48 87.45 319.94 87.74 320.4 88.14 320.87 87.87 322.25 87.81 322.71 87.75 323.17 87.62 323.63 87.39 324.09 87.97 325.47 87.55 325.93 87.87 326.39 88.3 326.86 88.11 327.32 88.54 328.7 88.44 329.16 88.65 329.62 88.37 330.08 88.59 330.54 87.74 331.92 86.9 332.38 87.45 332.85 87.59 333.31 87.9 333.77 87.92 335.61 87.66 336.07 88.11 336.53 88.8 336.99 89.85 338.37 91.43 338.84 92.17 339.3 92.39 339.76 92.5 340.22 92.2 341.6 92.71 342.06 92.42 342.52 92.97 342.98 93.26 343.44 92.76 344.83 93.91 345.29 94.76 345.75 95.45 346.21 94.78 346.67 94.92 348.05 95.61 348.51 95.37 348.97 94.62 349.43 94.97 349.89 96.01 351.28 96.82 351.74 96.84 352.2 97.12 352.66 96.69 353.12 98.93 354.5 99.81 354.96 99.65 355.42 99.44 355.88 98.32 356.34 99.05 357.73 99.33 358.19 99.76 358.65 99.82 359.11 98.97 359.57 98.77 360.95 99.2 361.41 98.93 361.87 98.82 362.33 98.56 362.8 99.93 364.64 99.54 365.1 99.67 365.56 99.09 366.02 98.96 367.4 96.62 367.86 97.98 368.32 97.55 368.79 97.91 369.25 99.66 370.63 100.09 371.09 100.74 371.55 99.93 372.01 101.35 372.47 101.25 373.85 100.61 374.31 100.52 374.78 102.37 375.24 102.39 375.7 103.19 377.08 103.74 377.54 103.76 378 104 378.46 102.93 378.92 103.21 380.3 102.78 380.77 102.55 381.23 101.8 381.69 101.65 382.15 102.02 383.53 101.89 383.99 102.28 384.45 102.02 384.91 102.81 385.37 102.99 386.76 103.36 387.22 105.24 387.68 105.74 388.14 106.78 388.6 105.55 389.98 105.39 390.44 105.85 390.9 104.51 391.36 104.14 391.82 103 393.21 104.49 393.67 105.93 394.13 104.25 394.59 105.9 395.05 111.72 396.43 117.96 396.89 115.2 397.35 117.41 397.81 121.03 398.27 121.08 399.66 122.32 400.12 121.75 400.58 122.05 401.5 122.56 402.88 122.16 403.34 122.25 403.8 121.96 404.26 120.87 404.73 116.62 406.11 119.34 406.57 120.95 407.03 121.41 407.49 123.12 407.95 122.4 409.33 119.24 409.79 119.41 410.25 121.19 410.72 124.36 411.18 126.49 412.56 126.4 413.02 129.94 413.48 130.71 413.94 131.57 414.4 131.25 416.24 135.38 416.71 140.86 417.17 130.18 417.63 134.86 419.47 129.81 419.93 129.09 420.39 129.91 420.85 128.69 422.23 129.16 422.7 132.29 423.16 130.97 423.62 129.69 424.08 129.23 425.92 128.79 426.38 126.79 426.84 128.85 427.3 131.03 428.69 129.38 429.15 130.61 429.61 133.19 430.07 132.36 430.53 133.83 431.91 134.55 432.37 133.12 432.83 134.3 433.29 136.28 433.75 137.84 435.14 136.79 435.6 140.2 436.06 139.99 436.52 140.32 436.98 141.1 438.36 136.34 438.82 132.42 439.28 133.08 439.74 133.44 440.2 131.48 442.05 132.6 442.51 134.91 442.97 130.61 443.43 124.49 444.81 128.21 445.27 130.1 445.73 129.37 446.19 128.26 446.66 125.58 448.04 124.41 448.5 124.92 448.96 127.12 449.42 125.1 449.88 126.33 451.26 126.28 451.72 128.34 452.18 128.25 452.65 128.78 453.11 129.9 454.49 131.54 454.95 132.97 455.41 130.58 455.87 132.25 456.33 133.13 457.71 130.67 458.17 132.65 458.64 132.42 459.1 132.16 459.56 133.16 460.94 133.12 461.4 129.09 461.86 126.63 462.32 126.79 462.78 127.36 464.16 126.88 464.63 124.11 465.09 125.25 465.55 123.95 467.39 123.71 467.85 125.63 468.31 126.61 468.77 126.81 469.23 127.22 470.62 128.77 471.08 129.19 471.54 130.46 472 129.75 472.46 130.51 473.84 130.06 474.3 130.65 474.76 128.94 475.22 129.88 475.68 129.07 477.07 129.77 477.53 128.79 477.99 137 478.45 141.18 478.91 145.97 480.29 148.1 480.75 153.05 481.21 151.39 481.67 148.05 482.13 153.52 483.52 154.06 483.98 155.46 484.44 156.38 484.9 155.68 485.36 154.18 487.2 158.37 487.66 160.54 488.12 159.31 488.59 158.76 489.97 157.85 490.43 161.37 490.89 161.74 491.35 165.46 491.81 173.66 493.19 159.96 493.65 166.15 494.11 164.05 494.58 160.74 495.04 164.96 496.42 165.43 496.88 169.51 497.34 168.92 497.8 170.07 498.26 169.26 499.64 166.7 500.1 164 500.57 162.46 501.03 163.39 501.49 161.05 502.87 159.35 503.79 157.06 504.25 157.04 504.71 159.88 506.09 162.76 506.56 165.75 507.02 168.98 507.48 172.4 507.94 171.15 509.32 174.82 509.78 171.51 510.24 174.82 510.7 174.53 511.16 175.06 512.55 176.31 513.01 174.01 513.47 175.8 513.93 176.23 514.39 170.43 515.77 173.81 516.23 171.76 516.69 174.39 517.15 173.39 517.61 175.59 519 176.31 519.46 180.31 519.92 176.34 520.38 179.05 520.84 168.14 522.22 169.98 522.68 176.47 523.14 175.73 523.6 173.71 524.06 172.88 525.45 172.03 525.91 170.57 526.37 171.09 526.83 175.38 527.29 174.7 528.67 173.54 529.13 172.1 529.59 174.21 530.05 174.94 530.52 177.45 532.36 176.31 532.82 175.48 533.28 174.93 533.74 174.66 535.12 174.24 535.58 177.48 536.04 176.46 536.51 176.6 536.97 179.56 538.35 188.49 538.81 188.75 539.27 190.2 539.73 185.94 540.19 184.97 541.57 183.12 542.03 182.17 542.5 181.57 542.96 181.86 543.42 184.08 544.8 185.33 545.26 184.21 545.72 184.47 546.18 186.1 546.64 184.5 548.02 186.78 548.49 193.06 548.95 191.73 549.41 192.8 549.87 194.6 551.25 196.23 551.71 197.17 552.17 197.91 552.63 195.24 553.09 198.19 554.48 197.67 554.94 197.1 555.4 197.16 555.86 195.49 556.32 197.69 557.7 200.64 558.16 203.01 558.62 206.08 559.08 203.64 559.54 204.52H560.93L561.39 206.95 561.85 207.9 562.31 203.11 562.77 208.79 564.15 211.01 564.61 208.73 565.07 207.97 565.53 208.72 565.99 209.4 567.38 208 567.84 210.69 568.3 211.64 569.22 210.61 570.6 211.86 571.06 209.71 571.52 206.56 571.98 198.7 572.45 198.78 573.83 199.32 574.29 186.49 574.75 188.89 575.21 193.44 575.67 194.93 577.05 193.51 577.51 194.12 577.97 193.83 578.44 189.05 578.9 190.75 580.28 194.34 580.74 197.48 581.2 197.61 581.66 197.06 582.12 195.21 583.96 194.22 584.43 197.03 584.89 197.93 585.35 198.17 587.19 196.22 587.65 202.26 588.11 210.74 588.57 209.6 589.95 214.11 590.42 215.43 590.88 212.51 591.34 217.45 591.8 216.43 593.64 216.76 594.1 214.33 594.56 216.68 595.02 219.7 596.41 221.4 596.87 225.34 597.33 227.65 597.79 226.9 598.25 226.99 599.63 230.34 600.09 229.16 600.55 232.55 601.01 227.28 601.47 226.17 602.86 218.91 603.32 202.48 603.78 220.78 604.24 223.91 604.7 227.08 606.08 224.98 606.54 218.59 607 221.81 607.46 231.83 607.92 232.28 609.77 231.8 610.23 236.85 610.69 230.34 611.15 231.67 612.53 234.02 612.99 232.35 613.45 233.08 613.91 229.74 614.38 219.53 615.76 224.36 616.22 227.7 616.68 226.9 617.14 230.5 617.6 230.61 618.98 233.44 619.44 236.7 619.9 235.22 620.37 235.1 620.83 235.62 622.21 234.3 622.67 229.17 623.13 235.13 623.59 232.71 624.05 230.1 625.43 226.9 625.89 233.98 626.36 216.82 626.82 216.81 628.66 220.17 629.12 219.49 629.58 210.19 630.04 220.07 630.5 211.81 631.88 211.49 632.35 217.25 632.81 219.13 633.27 221.09 633.73 226.3 635.11 222.37 635.57 223.7 636.03 225.08 636.49 222.36 636.95 220.13 638.34 220.67 638.8 217.39 639.26 213.82 639.72 216.14 640.18 220.72 641.56 218.9 642.02 217.14 642.48 218.91 642.94 219.34 643.4 222.42 644.79 230.74 645.25 234.67 645.71 236.5 646.17 241.38 646.63 237.64 648.01 240.03 648.47 237.65 648.93 231.26 649.39 232.77 649.85 235.48 651.24 235.53 651.7 231.83 652.16 228.56 652.62 233.72 653.08 234.31 654.92 234.57 655.38 235.58 655.84 236.85 656.31 238.53 657.69 242.16 658.15 246.51 658.61 243.93 659.07 246.52 659.53 242.86 660.91 244.17 661.37 244.11 661.83 244.81 662.3 245.95 662.76 246.23 664.14 245.42 664.6 243.56 665.06 244.22 665.52 245.5 665.98 241.4 667.36 233.19 667.82 231.04 668.29 231.08 668.75 224.95 669.21 230.89 670.59 224.06 671.05 231 671.97 227.68 672.43 229.62 673.81 235.86 674.28 235.44 674.74 235.26 675.2 235.15 675.66 237.06 677.04 234.31 677.5 232.87 677.96 238.08 678.42 236.3 678.88 237.02 680.27 235.49 680.73 236.6 681.19 234.96 681.65 236.39 682.11 240.21 683.49 237.5 683.95 231.05 684.41 232.81 684.87 230.96 685.33 236.79 686.72 236.77 687.18 239.98 687.64 240.71 688.1 242.26 688.56 237.91 689.94 239.35 690.4 243.16 690.86 244.54 691.32 244.27 691.78 237.76 693.17 230.66 693.63 234.53 694.09 237.07 694.55 243.8 695.01 248.1 696.39 252.64 696.85 254.27"/>
</g>
<path transform="matrix(1,0,0,-1,0,261)" stroke-width=".75" stroke-linecap="round" stroke-linejoin="round" fill="none" stroke="#000000" d="M81.73 60.48H586.73"/>
<path transform="matrix(1,0,0,-1,0,261)" stroke-width=".75" stroke-linecap="round" stroke-linejoin="round" fill="none" stroke="#000000" d="M81.73 60.48V53.28"/>
<path transform="matrix(1,0,0,-1,0,261)" stroke-width=".75" stroke-linecap="round" stroke-linejoin="round" fill="none" stroke="#000000" d="M249.91 60.48V53.28"/>
<path transform="matrix(1,0,0,-1,0,261)" stroke-width=".75" stroke-linecap="round" stroke-linejoin="round" fill="none" stroke="#000000" d="M418.55 60.48V53.28"/>
<path transform="matrix(1,0,0,-1,0,261)" stroke-width=".75" stroke-linecap="round" stroke-linejoin="round" fill="none" stroke="#000000" d="M586.73 60.48V53.28"/>
<text xml:space="preserve" transform="matrix(1 0 -0 1 0 261)" font-size="18" font-family="Helvetica"><tspan y="-34.56" x="61.71 71.718 81.726009 91.73401">2015</tspan></text>
<text xml:space="preserve" transform="matrix(1 0 -0 1 0 261)" font-size="18" font-family="Helvetica"><tspan y="-34.56" x="229.89 239.898 249.90599 259.914">2016</tspan></text>
<text xml:space="preserve" transform="matrix(1 0 -0 1 0 261)" font-size="18" font-family="Helvetica"><tspan y="-34.56" x="398.53 408.538 418.546 428.554">2017</tspan></text>
<text xml:space="preserve" transform="matrix(1 0 -0 1 0 261)" font-size="18" font-family="Helvetica"><tspan y="-34.56" x="566.71 576.718 586.726 596.734">2018</tspan></text>
<path transform="matrix(1,0,0,-1,0,261)" stroke-width=".75" stroke-linecap="round" stroke-linejoin="round" fill="none" stroke="#000000" d="M57.6 90.28V235.62"/>
<path transform="matrix(1,0,0,-1,0,261)" stroke-width=".75" stroke-linecap="round" stroke-linejoin="round" fill="none" stroke="#000000" d="M57.6 90.28H50.4"/>
<path transform="matrix(1,0,0,-1,0,261)" stroke-width=".75" stroke-linecap="round" stroke-linejoin="round" fill="none" stroke="#000000" d="M57.6 126.61H50.4"/>
<path transform="matrix(1,0,0,-1,0,261)" stroke-width=".75" stroke-linecap="round" stroke-linejoin="round" fill="none" stroke="#000000" d="M57.6 162.95H50.4"/>
<path transform="matrix(1,0,0,-1,0,261)" stroke-width=".75" stroke-linecap="round" stroke-linejoin="round" fill="none" stroke="#000000" d="M57.6 199.28H50.4"/>
<path transform="matrix(1,0,0,-1,0,261)" stroke-width=".75" stroke-linecap="round" stroke-linejoin="round" fill="none" stroke="#000000" d="M57.6 235.62H50.4"/>
<text xml:space="preserve" transform="matrix(0 -1 1 0 0 261)" font-size="18" font-family="Helvetica"><tspan y="40.32" x="80.27 90.278">50</tspan></text>
<text xml:space="preserve" transform="matrix(0 -1 1 0 0 261)" font-size="18" font-family="Helvetica"><tspan y="40.32" x="147.94 157.948 167.956">150</tspan></text>
<text xml:space="preserve" transform="matrix(0 -1 1 0 0 261)" font-size="18" font-family="Helvetica"><tspan y="40.32" x="220.61 230.618 240.62599">250</tspan></text>
<text xml:space="preserve" transform="matrix(1 0 -0 1 0 261)" font-size="18" font-family="Helvetica"><tspan y="-5.76" x="370.51 383.506 393.514 398.518">Date</tspan></text>
<text xml:space="preserve" transform="matrix(0 -1 1 0 0 261)" font-size="18" font-family="Helvetica"><tspan y="11.52" x="80.94 93.936008 103.94401 107.94001 111.93601 120.93601 125.94001 139.94402 149.95201 159.96 169.968 174.972 186.978 193.242 197.238 206.238 216.246 221.25 226.254 236.262">Daily Open Price [$]</tspan></text>
</svg>
