<?xml version="1.0" encoding="UTF-8" standalone="no"?>
<svg
   xmlns:dc="http://purl.org/dc/elements/1.1/"
   xmlns:cc="http://creativecommons.org/ns#"
   xmlns:rdf="http://www.w3.org/1999/02/22-rdf-syntax-ns#"
   xmlns:svg="http://www.w3.org/2000/svg"
   xmlns="http://www.w3.org/2000/svg"
   version="1.1"
   id="svg2"
   xml:space="preserve"
   width="961.33331"
   height="697.33331"
   viewBox="0 0 961.33331 697.33331"><metadata
     id="metadata8"><rdf:RDF><cc:Work
         rdf:about=""><dc:format>image/svg+xml</dc:format><dc:type
           rdf:resource="http://purl.org/dc/dcmitype/StillImage" /></cc:Work></rdf:RDF></metadata><defs
     id="defs6"><clipPath
       clipPathUnits="userSpaceOnUse"
       id="clipPath22"><path
         d="M 64.8,64.8 H 714.24 V 516.24 H 64.8 Z"
         id="path20" /></clipPath><clipPath
       clipPathUnits="userSpaceOnUse"
       id="clipPath116"><path
         d="M 64.8,64.8 H 714.24 V 516.24 H 64.8 Z"
         id="path114" /></clipPath><clipPath
       clipPathUnits="userSpaceOnUse"
       id="clipPath156"><path
         d="M 64.8,64.8 H 714.24 V 516.24 H 64.8 Z"
         id="path154" /></clipPath></defs><g
     id="g10"
     transform="matrix(1.3333333,0,0,-1.3333333,0,697.33333)"><g
       id="g12"><path
         d="M 0,0 H 721.44 V 523.44 H 0 Z"
         style="fill:#ffffff;fill-opacity:1;fill-rule:nonzero;stroke:none"
         id="path14" /></g><g
       id="g16"><g
         id="g18"
         clip-path="url(#clipPath22)"><path
           d="m 690.19,160.51 -8.72,38.61 -8.71,35.19 -8.72,32.06 -8.71,29.21 -8.72,26.62 -8.71,24.25 -8.72,22.1 -8.71,15.85 -8.72,11.93 -8.71,7.53 -8.72,6.62 -8.71,6.03 -8.72,5.48 -8.71,5 -8.72,4.56 -8.71,4.15 -8.72,3.79 -8.71,3.44 -8.72,3.14 -8.71,1.87 -8.72,1.87 -8.71,1.81 -8.72,1.65 -8.71,1.51 -8.72,1.38 -8.71,1.25 -8.72,1.14 -8.71,1.19 -8.72,1.47 -8.71,1.39 -8.72,1.27 -8.71,1.15 -8.72,1.05 -8.71,0.91 -8.72,0.61 -8.71,0.56 -8.72,0.51 -8.71,0.47 -8.72,0.43 -8.71,2.37 -8.72,2.64 -8.71,2.4 -8.72,2.2 -8.71,1.98 -8.72,1.82 -8.71,1.65 -8.72,1.5 -8.71,1.37 -8.72,1.26 -8.71,1.13 -8.72,1.04 -8.71,0.94 -8.72,0.86 -8.71,0.79 -8.72,0.71 -8.71,0.65 -8.72,0.59 -8.71,0.54 -8.72,0.49 -8.71,0.45 -8.72,0.4 -8.71,0.37 -8.72,0.34 -8.71,0.31 -8.72,0.28 -8.71,0.26 -8.72,0.22 -8.71,0.21 -8.72,0.19"
           style="fill:none;stroke:#000000;stroke-width:0.75;stroke-linecap:round;stroke-linejoin:round;stroke-miterlimit:10;stroke-dasharray:none;stroke-opacity:1"
           id="path24" /></g></g><g
       id="g26"><path
         d="M 144.09,64.8 H 706.14"
         style="fill:none;stroke:#000000;stroke-width:0.75;stroke-linecap:round;stroke-linejoin:round;stroke-miterlimit:10;stroke-dasharray:none;stroke-opacity:1"
         id="path28" /><path
         d="M 144.09,64.8 V 57.6"
         style="fill:none;stroke:#000000;stroke-width:0.75;stroke-linecap:round;stroke-linejoin:round;stroke-miterlimit:10;stroke-dasharray:none;stroke-opacity:1"
         id="path30" /><path
         d="M 237.76,64.8 V 57.6"
         style="fill:none;stroke:#000000;stroke-width:0.75;stroke-linecap:round;stroke-linejoin:round;stroke-miterlimit:10;stroke-dasharray:none;stroke-opacity:1"
         id="path32" /><path
         d="M 331.44,64.8 V 57.6"
         style="fill:none;stroke:#000000;stroke-width:0.75;stroke-linecap:round;stroke-linejoin:round;stroke-miterlimit:10;stroke-dasharray:none;stroke-opacity:1"
         id="path34" /><path
         d="M 425.11,64.8 V 57.6"
         style="fill:none;stroke:#000000;stroke-width:0.75;stroke-linecap:round;stroke-linejoin:round;stroke-miterlimit:10;stroke-dasharray:none;stroke-opacity:1"
         id="path36" /><path
         d="M 518.79,64.8 V 57.6"
         style="fill:none;stroke:#000000;stroke-width:0.75;stroke-linecap:round;stroke-linejoin:round;stroke-miterlimit:10;stroke-dasharray:none;stroke-opacity:1"
         id="path38" /><path
         d="M 612.46,64.8 V 57.6"
         style="fill:none;stroke:#000000;stroke-width:0.75;stroke-linecap:round;stroke-linejoin:round;stroke-miterlimit:10;stroke-dasharray:none;stroke-opacity:1"
         id="path40" /><path
         d="M 706.14,64.8 V 57.6"
         style="fill:none;stroke:#000000;stroke-width:0.75;stroke-linecap:round;stroke-linejoin:round;stroke-miterlimit:10;stroke-dasharray:none;stroke-opacity:1"
         id="path42" /><text
         transform="matrix(1,0,0,-1,137.25,38.88)"
         style="font-variant:normal;font-weight:normal;font-size:12px;font-family:Helvetica;-inkscape-font-specification:Helvetica;writing-mode:lr-tb;fill:#000000;fill-opacity:1;fill-rule:nonzero;stroke:none"
         id="text46"><tspan
           x="0 7.0079999"
           y="0"
           id="tspan44">−6</tspan></text><text
         transform="matrix(1,0,0,-1,230.92,38.88)"
         style="font-variant:normal;font-weight:normal;font-size:12px;font-family:Helvetica;-inkscape-font-specification:Helvetica;writing-mode:lr-tb;fill:#000000;fill-opacity:1;fill-rule:nonzero;stroke:none"
         id="text50"><tspan
           x="0 7.0079999"
           y="0"
           id="tspan48">−5</tspan></text><text
         transform="matrix(1,0,0,-1,324.6,38.88)"
         style="font-variant:normal;font-weight:normal;font-size:12px;font-family:Helvetica;-inkscape-font-specification:Helvetica;writing-mode:lr-tb;fill:#000000;fill-opacity:1;fill-rule:nonzero;stroke:none"
         id="text54"><tspan
           x="0 7.0079999"
           y="0"
           id="tspan52">−4</tspan></text><text
         transform="matrix(1,0,0,-1,418.27,38.88)"
         style="font-variant:normal;font-weight:normal;font-size:12px;font-family:Helvetica;-inkscape-font-specification:Helvetica;writing-mode:lr-tb;fill:#000000;fill-opacity:1;fill-rule:nonzero;stroke:none"
         id="text58"><tspan
           x="0 7.0079999"
           y="0"
           id="tspan56">−3</tspan></text><text
         transform="matrix(1,0,0,-1,511.95,38.88)"
         style="font-variant:normal;font-weight:normal;font-size:12px;font-family:Helvetica;-inkscape-font-specification:Helvetica;writing-mode:lr-tb;fill:#000000;fill-opacity:1;fill-rule:nonzero;stroke:none"
         id="text62"><tspan
           x="0 7.0079999"
           y="0"
           id="tspan60">−2</tspan></text><text
         transform="matrix(1,0,0,-1,605.62,38.88)"
         style="font-variant:normal;font-weight:normal;font-size:12px;font-family:Helvetica;-inkscape-font-specification:Helvetica;writing-mode:lr-tb;fill:#000000;fill-opacity:1;fill-rule:nonzero;stroke:none"
         id="text66"><tspan
           x="0 7.0079999"
           y="0"
           id="tspan64">−1</tspan></text><text
         transform="matrix(1,0,0,-1,702.8,38.88)"
         style="font-variant:normal;font-weight:normal;font-size:12px;font-family:Helvetica;-inkscape-font-specification:Helvetica;writing-mode:lr-tb;fill:#000000;fill-opacity:1;fill-rule:nonzero;stroke:none"
         id="text70"><tspan
           x="0"
           y="0"
           id="tspan68">0</tspan></text><path
         d="M 64.8,160.51 V 468.14"
         style="fill:none;stroke:#000000;stroke-width:0.75;stroke-linecap:round;stroke-linejoin:round;stroke-miterlimit:10;stroke-dasharray:none;stroke-opacity:1"
         id="path72" /><path
         d="M 64.8,160.51 H 57.6"
         style="fill:none;stroke:#000000;stroke-width:0.75;stroke-linecap:round;stroke-linejoin:round;stroke-miterlimit:10;stroke-dasharray:none;stroke-opacity:1"
         id="path74" /><path
         d="M 64.8,263.05 H 57.6"
         style="fill:none;stroke:#000000;stroke-width:0.75;stroke-linecap:round;stroke-linejoin:round;stroke-miterlimit:10;stroke-dasharray:none;stroke-opacity:1"
         id="path76" /><path
         d="M 64.8,365.6 H 57.6"
         style="fill:none;stroke:#000000;stroke-width:0.75;stroke-linecap:round;stroke-linejoin:round;stroke-miterlimit:10;stroke-dasharray:none;stroke-opacity:1"
         id="path78" /><path
         d="M 64.8,468.14 H 57.6"
         style="fill:none;stroke:#000000;stroke-width:0.75;stroke-linecap:round;stroke-linejoin:round;stroke-miterlimit:10;stroke-dasharray:none;stroke-opacity:1"
         id="path80" /><text
         transform="matrix(0,1,1,0,47.52,152.17)"
         style="font-variant:normal;font-weight:normal;font-size:12px;font-family:Helvetica;-inkscape-font-specification:Helvetica;writing-mode:lr-tb;fill:#000000;fill-opacity:1;fill-rule:nonzero;stroke:none"
         id="text84"><tspan
           x="0 6.6719999 10.008"
           y="0"
           id="tspan82">0.0</tspan></text><text
         transform="matrix(0,1,1,0,47.52,254.71)"
         style="font-variant:normal;font-weight:normal;font-size:12px;font-family:Helvetica;-inkscape-font-specification:Helvetica;writing-mode:lr-tb;fill:#000000;fill-opacity:1;fill-rule:nonzero;stroke:none"
         id="text88"><tspan
           x="0 6.6719999 10.008"
           y="0"
           id="tspan86">0.2</tspan></text><text
         transform="matrix(0,1,1,0,47.52,357.26)"
         style="font-variant:normal;font-weight:normal;font-size:12px;font-family:Helvetica;-inkscape-font-specification:Helvetica;writing-mode:lr-tb;fill:#000000;fill-opacity:1;fill-rule:nonzero;stroke:none"
         id="text92"><tspan
           x="0 6.6719999 10.008"
           y="0"
           id="tspan90">0.4</tspan></text><text
         transform="matrix(0,1,1,0,47.52,459.8)"
         style="font-variant:normal;font-weight:normal;font-size:12px;font-family:Helvetica;-inkscape-font-specification:Helvetica;writing-mode:lr-tb;fill:#000000;fill-opacity:1;fill-rule:nonzero;stroke:none"
         id="text96"><tspan
           x="0 6.6719999 10.008"
           y="0"
           id="tspan94">0.6</tspan></text><path
         d="M 64.8,64.8 H 714.24 V 516.24 H 64.8 V 64.8"
         style="fill:none;stroke:#000000;stroke-width:0.75;stroke-linecap:round;stroke-linejoin:round;stroke-miterlimit:10;stroke-dasharray:none;stroke-opacity:1"
         id="path98" /></g><g
       id="g100"><text
         transform="matrix(1,0,0,-1,356.17,10.08)"
         style="font-variant:normal;font-weight:normal;font-size:12px;font-family:Helvetica;-inkscape-font-specification:Helvetica;writing-mode:lr-tb;fill:#000000;fill-opacity:1;fill-rule:nonzero;stroke:none"
         id="text104"><tspan
           x="0 6.6719999 13.344 20.016001 23.351999 30.024 36.695999 46.692001 53.363998 60.035999"
           y="0"
           id="tspan102">Log Lambda</tspan></text><text
         transform="matrix(0,1,1,0,18.72,259.18)"
         style="font-variant:normal;font-weight:normal;font-size:12px;font-family:Helvetica;-inkscape-font-specification:Helvetica;writing-mode:lr-tb;fill:#000000;fill-opacity:1;fill-rule:nonzero;stroke:none"
         id="text108"><tspan
           x="0 8.6639996 15.336 22.007999 25.344 28.68 31.344 37.344002 40.007999 46.68 53.352001 56.688"
           y="0"
           id="tspan106">Coefficients</tspan></text></g><g
       id="g110"><g
         id="g112"
         clip-path="url(#clipPath116)"><path
           d="m 690.19,160.51 h -8.72 -8.71 -8.72 -8.71 -8.72 -8.71 -8.72 -8.71 -8.72 l -8.71,11.97 -8.72,11.85 -8.71,10.8 -8.72,9.84 -8.71,8.96 -8.72,8.17 -8.71,7.44 -8.72,6.78 -8.71,6.18 -8.72,5.63 -8.71,5.19 -8.72,3.67 -8.71,2.14 -8.72,1.95 -8.71,1.78 -8.72,1.62 -8.71,1.48 -8.72,1.35 -8.71,1.56 -8.72,2.4 -8.71,2.16 -8.72,1.98 -8.71,1.8 -8.72,1.63 -8.71,1.51 -8.72,1.51 -8.71,1.36 -8.72,1.23 -8.71,1.12 -8.72,1.02 -8.71,0.92 -8.72,0.85 -8.71,0.78 -8.72,0.7 -8.71,0.65 -8.72,0.59 -8.71,0.54 -8.72,0.49 -8.71,0.45 -8.72,0.4 -8.71,0.37 -8.72,0.34 -8.71,0.31 -8.72,0.28 -8.71,0.25 -8.72,0.24 -8.71,0.21 -8.72,0.19 -8.71,0.18 -8.72,0.16 -8.71,0.14 -8.72,0.14 -8.71,0.12 -8.72,0.11 -8.71,0.1 -8.72,0.09 -8.71,0.09 -8.72,0.08 -8.71,0.07 -8.72,0.06"
           style="fill:none;stroke:#ff0000;stroke-width:0.75;stroke-linecap:round;stroke-linejoin:round;stroke-miterlimit:10;stroke-dasharray:none;stroke-opacity:1"
           id="path118" /><path
           d="m 690.19,160.51 h -8.72 -8.71 -8.72 -8.71 -8.72 -8.71 -8.72 -8.71 -8.72 -8.71 -8.72 -8.71 -8.72 -8.71 -8.72 -8.71 -8.72 -8.71 -8.72 -8.71 -8.72 -8.71 -8.72 -8.71 -8.72 -8.71 -8.72 l -8.71,-1.69 -8.72,-6.32 -8.71,-5.74 -8.72,-5.24 -8.71,-4.76 -8.72,-4.35 -8.71,-3.99 -8.72,-3.7 -8.71,-3.37 -8.72,-3.06 -8.71,-2.8 -8.72,-2.55 -8.71,-2.81 -8.72,-2.74 -8.71,-2.49 -8.72,-2.24 -8.71,-2.07 -8.72,-1.88 -8.71,-1.72 -8.72,-1.56 -8.71,-1.43 -8.72,-1.27 -8.71,-1.18 -8.72,-1.08 -8.71,-0.99 -8.72,-0.89 -8.71,-0.82 -8.72,-0.74 -8.71,-0.66 -8.72,-0.62 -8.71,-0.56 -8.72,-0.52 -8.71,-0.47 -8.72,-0.4 -8.71,-0.39 -8.72,-0.35 -8.71,-0.33 -8.72,-0.29 -8.71,-0.27 -8.72,-0.23 -8.71,-0.22 -8.72,-0.2"
           style="fill:none;stroke:#00cd00;stroke-width:0.75;stroke-linecap:round;stroke-linejoin:round;stroke-miterlimit:10;stroke-dasharray:none;stroke-opacity:1"
           id="path120" /><path
           d="m 690.19,160.51 h -8.72 -8.71 -8.72 -8.71 -8.72 -8.71 -8.72 -8.71 -8.72 -8.71 -8.72 -8.71 -8.72 -8.71 -8.72 -8.71 -8.72 -8.71 -8.72 -8.71 l -8.72,2.25 -8.71,4.58 -8.72,4.16 -8.71,3.79 -8.72,3.45 -8.71,3.15 -8.72,2.87 -8.71,3.02 -8.72,3.89 -8.71,3.54 -8.72,3.22 -8.71,2.95 -8.72,2.68 -8.71,2.43 -8.72,2.17 -8.71,2 -8.72,1.82 -8.71,1.65 -8.72,1.51 -8.71,1.48 -8.72,1.36 -8.71,1.24 -8.72,1.13 -8.71,1.03 -8.72,0.94 -8.71,0.86 -8.72,0.78 -8.71,0.71 -8.72,0.64 -8.71,0.59 -8.72,0.54 -8.71,0.49 -8.72,0.44 -8.71,0.41 -8.72,0.37 -8.71,0.33 -8.72,0.31 -8.71,0.28 -8.72,0.26 -8.71,0.23 -8.72,0.21 -8.71,0.19 -8.72,0.18 -8.71,0.16 -8.72,0.14 -8.71,0.14 -8.72,0.11 -8.71,0.11 -8.72,0.1"
           style="fill:none;stroke:#0000ff;stroke-width:0.75;stroke-linecap:round;stroke-linejoin:round;stroke-miterlimit:10;stroke-dasharray:none;stroke-opacity:1"
           id="path122" /><path
           d="m 690.19,160.51 h -8.72 -8.71 -8.72 -8.71 -8.72 -8.71 -8.72 l -8.71,7.96 -8.72,11.92 -8.71,10.79 -8.72,9.82 -8.71,8.96 -8.72,8.16 -8.71,7.43 -8.72,6.78 -8.71,6.17 -8.72,5.62 -8.71,5.13 -8.72,4.67 -8.71,3.16 -8.72,3.16 -8.71,3.41 -8.72,3.09 -8.71,2.81 -8.72,2.56 -8.71,2.34 -8.72,2.13 -8.71,1.89 -8.72,1.51 -8.71,1.37 -8.72,1.26 -8.71,1.14 -8.72,1.04 -8.71,0.95 -8.72,1 -8.71,0.91 -8.72,0.83 -8.71,0.75 -8.72,0.68 -8.71,2.41 -8.72,2.66 -8.71,2.42 -8.72,2.18 -8.71,2.01 -8.72,1.83 -8.71,1.66 -8.72,1.52 -8.71,1.39 -8.72,1.23 -8.71,1.15 -8.72,1.05 -8.71,0.95 -8.72,0.88 -8.71,0.79 -8.72,0.72 -8.71,0.63 -8.72,0.6 -8.71,0.55 -8.72,0.5 -8.71,0.46 -8.72,0.38 -8.71,0.38 -8.72,0.34 -8.71,0.32 -8.72,0.29 -8.71,0.27 -8.72,0.19 -8.71,0.22 -8.72,0.2"
           style="fill:none;stroke:#00ffff;stroke-width:0.75;stroke-linecap:round;stroke-linejoin:round;stroke-miterlimit:10;stroke-dasharray:none;stroke-opacity:1"
           id="path124" /><path
           d="m 690.19,160.51 h -8.72 -8.71 -8.72 -8.71 -8.72 -8.71 -8.72 -8.71 -8.72 -8.71 -8.72 -8.71 -8.72 -8.71 -8.72 -8.71 -8.72 -8.71 -8.72 -8.71 -8.72 -8.71 -8.72 -8.71 -8.72 -8.71 -8.72 -8.71 -8.72 -8.71 -8.72 -8.71 -8.72 -8.71 -8.72 -8.71 -8.72 -8.71 -8.72 l -8.71,-5.28 -8.72,-6.36 -8.71,-5.72 -8.72,-5.15 -8.71,-4.75 -8.72,-4.33 -8.71,-3.95 -8.72,-3.6 -8.71,-3.27 -8.72,-2.92 -8.71,-2.72 -8.72,-2.49 -8.71,-2.26 -8.72,-2.06 -8.71,-1.88 -8.72,-1.72 -8.71,-1.49 -8.72,-1.42 -8.71,-1.3 -8.72,-1.18 -8.71,-1.09 -8.72,-0.9 -8.71,-0.89 -8.72,-0.82 -8.71,-0.75 -8.72,-0.69 -8.71,-0.62 -8.72,-0.49 -8.71,-0.5 -8.72,-0.47"
           style="fill:none;stroke:#ff00ff;stroke-width:0.75;stroke-linecap:round;stroke-linejoin:round;stroke-miterlimit:10;stroke-dasharray:none;stroke-opacity:1"
           id="path126" /><path
           d="m 690.19,160.51 h -8.72 -8.71 -8.72 -8.71 -8.72 -8.71 -8.72 -8.71 -8.72 -8.71 -8.72 -8.71 -8.72 -8.71 -8.72 -8.71 -8.72 -8.71 -8.72 -8.71 -8.72 -8.71 -8.72 -8.71 -8.72 -8.71 -8.72 -8.71 -8.72 -8.71 -8.72 -8.71 -8.72 l -8.71,0.36 -8.72,1.41 -8.71,1.24 -8.72,1.12 -8.71,1.02 -8.72,0.93 -8.71,1.12 -8.72,0.92 -8.71,0.9 -8.72,0.83 -8.71,0.75 -8.72,0.68 -8.71,0.61 -8.72,0.57 -8.71,0.51 -8.72,0.49 -8.71,0.42 -8.72,0.39 -8.71,0.35 -8.72,0.32 -8.71,0.29 -8.72,0.27 -8.71,0.26 -8.72,0.23 -8.71,0.2 -8.72,0.18 -8.71,0.16 -8.72,0.18 -8.71,0.15 -8.72,0.12 -8.71,0.12 -8.72,0.1 -8.71,0.09 -8.72,0.11 -8.71,0.09 -8.72,0.08"
           style="fill:none;stroke:#000000;stroke-width:0.75;stroke-linecap:round;stroke-linejoin:round;stroke-miterlimit:10;stroke-dasharray:none;stroke-opacity:1"
           id="path128" /><path
           d="m 690.19,160.51 h -8.72 -8.71 -8.72 -8.71 -8.72 -8.71 -8.72 -8.71 -8.72 -8.71 -8.72 -8.71 -8.72 -8.71 -8.72 -8.71 -8.72 -8.71 -8.72 l -8.71,3.51 -8.72,3.18 -8.71,2.55 -8.72,2.32 -8.71,2.11 -8.72,1.93 -8.71,1.75 -8.72,1.6 -8.71,1.81 -8.72,2.71 -8.71,2.45 -8.72,2.22 -8.71,2.03 -8.72,1.85 -8.71,1.44 -8.72,0.54 -8.71,0.52 -8.72,0.49 -8.71,0.44 -8.72,0.4 -8.71,1.95 -8.72,2.45 -8.71,2.15 -8.72,1.91 -8.71,1.79 -8.72,1.63 -8.71,1.48 -8.72,1.36 -8.71,1.23 -8.72,1.07 -8.71,1.02 -8.72,0.94 -8.71,0.86 -8.72,0.78 -8.71,0.7 -8.72,0.65 -8.71,0.54 -8.72,0.53 -8.71,0.49 -8.72,0.45 -8.71,0.41 -8.72,0.32 -8.71,0.33 -8.72,0.31 -8.71,0.29 -8.72,0.26 -8.71,0.24 -8.72,0.17 -8.71,0.17 -8.72,0.18"
           style="fill:none;stroke:#ff0000;stroke-width:0.75;stroke-linecap:round;stroke-linejoin:round;stroke-miterlimit:10;stroke-dasharray:none;stroke-opacity:1"
           id="path130" /></g></g><g
       id="g132"><path
         d="M 64.8,516.24 H 706.14"
         style="fill:none;stroke:#000000;stroke-width:0.75;stroke-linecap:round;stroke-linejoin:round;stroke-miterlimit:10;stroke-dasharray:none;stroke-opacity:1"
         id="path134" /><path
         d="m 144.09,516.24 v 4.51"
         style="fill:none;stroke:#000000;stroke-width:0.75;stroke-linecap:round;stroke-linejoin:round;stroke-miterlimit:10;stroke-dasharray:none;stroke-opacity:1"
         id="path136" /><path
         d="m 237.76,516.24 v 4.51"
         style="fill:none;stroke:#000000;stroke-width:0.75;stroke-linecap:round;stroke-linejoin:round;stroke-miterlimit:10;stroke-dasharray:none;stroke-opacity:1"
         id="path138" /><path
         d="m 331.44,516.24 v 4.51"
         style="fill:none;stroke:#000000;stroke-width:0.75;stroke-linecap:round;stroke-linejoin:round;stroke-miterlimit:10;stroke-dasharray:none;stroke-opacity:1"
         id="path140" /><path
         d="m 425.11,516.24 v 4.51"
         style="fill:none;stroke:#000000;stroke-width:0.75;stroke-linecap:round;stroke-linejoin:round;stroke-miterlimit:10;stroke-dasharray:none;stroke-opacity:1"
         id="path142" /><path
         d="m 518.79,516.24 v 4.51"
         style="fill:none;stroke:#000000;stroke-width:0.75;stroke-linecap:round;stroke-linejoin:round;stroke-miterlimit:10;stroke-dasharray:none;stroke-opacity:1"
         id="path144" /><path
         d="m 612.46,516.24 v 4.51"
         style="fill:none;stroke:#000000;stroke-width:0.75;stroke-linecap:round;stroke-linejoin:round;stroke-miterlimit:10;stroke-dasharray:none;stroke-opacity:1"
         id="path146" /><path
         d="m 706.14,516.24 v 4.51"
         style="fill:none;stroke:#000000;stroke-width:0.75;stroke-linecap:round;stroke-linejoin:round;stroke-miterlimit:10;stroke-dasharray:none;stroke-opacity:1"
         id="path148" /></g><g
       id="g150"><g
         id="g152"
         clip-path="url(#clipPath156)"><path
           d="M 144.09,64.8 V 516.24"
           style="fill:none;stroke:#d3d3d3;stroke-width:0.75;stroke-linecap:round;stroke-linejoin:round;stroke-miterlimit:10;stroke-dasharray:0, 3;stroke-dashoffset:0;stroke-opacity:1"
           id="path158" /><path
           d="M 237.76,64.8 V 516.24"
           style="fill:none;stroke:#d3d3d3;stroke-width:0.75;stroke-linecap:round;stroke-linejoin:round;stroke-miterlimit:10;stroke-dasharray:0, 3;stroke-dashoffset:0;stroke-opacity:1"
           id="path160" /><path
           d="M 331.44,64.8 V 516.24"
           style="fill:none;stroke:#d3d3d3;stroke-width:0.75;stroke-linecap:round;stroke-linejoin:round;stroke-miterlimit:10;stroke-dasharray:0, 3;stroke-dashoffset:0;stroke-opacity:1"
           id="path162" /><path
           d="M 425.11,64.8 V 516.24"
           style="fill:none;stroke:#d3d3d3;stroke-width:0.75;stroke-linecap:round;stroke-linejoin:round;stroke-miterlimit:10;stroke-dasharray:0, 3;stroke-dashoffset:0;stroke-opacity:1"
           id="path164" /><path
           d="M 518.79,64.8 V 516.24"
           style="fill:none;stroke:#d3d3d3;stroke-width:0.75;stroke-linecap:round;stroke-linejoin:round;stroke-miterlimit:10;stroke-dasharray:0, 3;stroke-dashoffset:0;stroke-opacity:1"
           id="path166" /><path
           d="M 612.46,64.8 V 516.24"
           style="fill:none;stroke:#d3d3d3;stroke-width:0.75;stroke-linecap:round;stroke-linejoin:round;stroke-miterlimit:10;stroke-dasharray:0, 3;stroke-dashoffset:0;stroke-opacity:1"
           id="path168" /><path
           d="M 706.14,64.8 V 516.24"
           style="fill:none;stroke:#d3d3d3;stroke-width:0.75;stroke-linecap:round;stroke-linejoin:round;stroke-miterlimit:10;stroke-dasharray:0, 3;stroke-dashoffset:0;stroke-opacity:1"
           id="path170" /><path
           d="M 64.8,160.51 H 714.24"
           style="fill:none;stroke:#d3d3d3;stroke-width:0.75;stroke-linecap:round;stroke-linejoin:round;stroke-miterlimit:10;stroke-dasharray:0, 3;stroke-dashoffset:0;stroke-opacity:1"
           id="path172" /><path
           d="M 64.8,263.05 H 714.24"
           style="fill:none;stroke:#d3d3d3;stroke-width:0.75;stroke-linecap:round;stroke-linejoin:round;stroke-miterlimit:10;stroke-dasharray:0, 3;stroke-dashoffset:0;stroke-opacity:1"
           id="path174" /><path
           d="M 64.8,365.6 H 714.24"
           style="fill:none;stroke:#d3d3d3;stroke-width:0.75;stroke-linecap:round;stroke-linejoin:round;stroke-miterlimit:10;stroke-dasharray:0, 3;stroke-dashoffset:0;stroke-opacity:1"
           id="path176" /><path
           d="M 64.8,468.14 H 714.24"
           style="fill:none;stroke:#d3d3d3;stroke-width:0.75;stroke-linecap:round;stroke-linejoin:round;stroke-miterlimit:10;stroke-dasharray:0, 3;stroke-dashoffset:0;stroke-opacity:1"
           id="path178" /><text
           transform="matrix(1,0,0,-1,81.32,497.41)"
           style="font-variant:normal;font-weight:normal;font-size:6px;font-family:Helvetica;-inkscape-font-specification:Helvetica;writing-mode:lr-tb;fill:#000000;fill-opacity:1;fill-rule:nonzero;stroke:none"
           id="text182"><tspan
             x="0 1.332 4.3319998 7.5479999 10.398 13.734"
             y="0"
             id="tspan180">lcavol</tspan></text><text
           transform="matrix(1,0,0,-1,79.55,295)"
           style="font-variant:normal;font-weight:normal;font-size:6px;font-family:Helvetica;-inkscape-font-specification:Helvetica;writing-mode:lr-tb;fill:#000000;fill-opacity:1;fill-rule:nonzero;stroke:none"
           id="text186"><tspan
             x="0 1.332 5.6040001 8.9399996 10.272 13.608 16.944"
             y="0"
             id="tspan184">lweight</tspan></text><text
           transform="matrix(1,0,0,-1,83.85,80.57)"
           style="font-variant:normal;font-weight:normal;font-size:6px;font-family:Helvetica;-inkscape-font-specification:Helvetica;writing-mode:lr-tb;fill:#000000;fill-opacity:1;fill-rule:nonzero;stroke:none"
           id="text190"><tspan
             x="0 3.336 6.6719999"
             y="0"
             id="tspan188">age</tspan></text><text
           transform="matrix(1,0,0,-1,83.18,229.87)"
           style="font-variant:normal;font-weight:normal;font-size:6px;font-family:Helvetica;-inkscape-font-specification:Helvetica;writing-mode:lr-tb;fill:#000000;fill-opacity:1;fill-rule:nonzero;stroke:none"
           id="text194"><tspan
             x="0 1.332 4.6680002 8.0039997"
             y="0"
             id="tspan192">lbph</tspan></text><text
           transform="matrix(1,0,0,-1,85.19,317.98)"
           style="font-variant:normal;font-weight:normal;font-size:6px;font-family:Helvetica;-inkscape-font-specification:Helvetica;writing-mode:lr-tb;fill:#000000;fill-opacity:1;fill-rule:nonzero;stroke:none"
           id="text198"><tspan
             x="0 3 6"
             y="0"
             id="tspan196">svi</tspan></text><text
           transform="matrix(1,0,0,-1,85.02,87.91)"
           style="font-variant:normal;font-weight:normal;font-size:6px;font-family:Helvetica;-inkscape-font-specification:Helvetica;writing-mode:lr-tb;fill:#000000;fill-opacity:1;fill-rule:nonzero;stroke:none"
           id="text202"><tspan
             x="0 1.332 4.3319998"
             y="0"
             id="tspan200">lcp</tspan></text><text
           transform="matrix(1,0,0,-1,78.35,176.58)"
           style="font-variant:normal;font-weight:normal;font-size:6px;font-family:Helvetica;-inkscape-font-specification:Helvetica;writing-mode:lr-tb;fill:#000000;fill-opacity:1;fill-rule:nonzero;stroke:none"
           id="text206"><tspan
             x="0 3.336 4.6680002 8.0039997 11.34 14.34 17.676001"
             y="0"
             id="tspan204">gleason</tspan></text><text
           transform="matrix(1,0,0,-1,80.51,221.57)"
           style="font-variant:normal;font-weight:normal;font-size:6px;font-family:Helvetica;-inkscape-font-specification:Helvetica;writing-mode:lr-tb;fill:#000000;fill-opacity:1;fill-rule:nonzero;stroke:none"
           id="text210"><tspan
             x="0 3.336 6.6719999 10.008 13.344"
             y="0"
             id="tspan208">pgg45</tspan></text></g></g></g></svg>
