<svg xmlns="http://www.w3.org/2000/svg" xmlns:xlink="http://www.w3.org/1999/xlink" version="1.1" width="526pt" height="440.00004pt" viewBox="0 0 526 440.00004">
<defs>
<clipPath id="clip_0">
<path d="M0 .5H526V440H0Z"/>
</clipPath>
<clipPath id="clip_1">
<path d="M0 0H526V441H0Z"/>
</clipPath>
</defs>
<g>
<path d="M0 .5H526.5V440H0Z" fill="#ffffff"/>
<g clip-path="url(#clip_0)">
<g clip-path="url(#clip_1)">
<path transform="matrix(1,0,0,-1,0,0)" d="M482.77-366.559C482.77-365.07 481.562-363.859 480.07-363.859 478.578-363.859 477.371-365.07 477.371-366.559 477.371-368.051 478.578-369.262 480.07-369.262 481.562-369.262 482.77-368.051 482.77-366.559" fill="#bebebe"/>
<path transform="matrix(1,0,0,-1,0,0)" stroke-width=".75" stroke-linecap="round" stroke-linejoin="round" fill="none" stroke="#000000" d="M482.77-366.559C482.77-365.07 481.562-363.859 480.07-363.859 478.578-363.859 477.371-365.07 477.371-366.559 477.371-368.051 478.578-369.262 480.07-369.262 481.562-369.262 482.77-368.051 482.77-366.559"/>
<path transform="matrix(1,0,0,-1,0,0)" d="M446.801-362.82C446.801-361.328 445.59-360.121 444.102-360.121 442.609-360.121 441.398-361.328 441.398-362.82 441.398-364.312 442.609-365.52 444.102-365.52 445.59-365.52 446.801-364.312 446.801-362.82" fill="#bebebe"/>
<path transform="matrix(1,0,0,-1,0,0)" stroke-width=".75" stroke-linecap="round" stroke-linejoin="round" fill="none" stroke="#000000" d="M446.801-362.82C446.801-361.328 445.59-360.121 444.102-360.121 442.609-360.121 441.398-361.328 441.398-362.82 441.398-364.312 442.609-365.52 444.102-365.52 445.59-365.52 446.801-364.312 446.801-362.82"/>
<path transform="matrix(1,0,0,-1,0,0)" d="M414.031-362.82C414.031-361.328 412.82-360.121 411.328-360.121 409.84-360.121 408.629-361.328 408.629-362.82 408.629-364.312 409.84-365.52 411.328-365.52 412.82-365.52 414.031-364.312 414.031-362.82" fill="#bebebe"/>
<path transform="matrix(1,0,0,-1,0,0)" stroke-width=".75" stroke-linecap="round" stroke-linejoin="round" fill="none" stroke="#000000" d="M414.031-362.82C414.031-361.328 412.82-360.121 411.328-360.121 409.84-360.121 408.629-361.328 408.629-362.82 408.629-364.312 409.84-365.52 411.328-365.52 412.82-365.52 414.031-364.312 414.031-362.82"/>
<path transform="matrix(1,0,0,-1,0,0)" d="M384.172-362.82C384.172-361.328 382.961-360.121 381.469-360.121 379.98-360.121 378.77-361.328 378.77-362.82 378.77-364.312 379.98-365.52 381.469-365.52 382.961-365.52 384.172-364.312 384.172-362.82" fill="#bebebe"/>
<path transform="matrix(1,0,0,-1,0,0)" stroke-width=".75" stroke-linecap="round" stroke-linejoin="round" fill="none" stroke="#000000" d="M384.172-362.82C384.172-361.328 382.961-360.121 381.469-360.121 379.98-360.121 378.77-361.328 378.77-362.82 378.77-364.312 379.98-365.52 381.469-365.52 382.961-365.52 384.172-364.312 384.172-362.82"/>
<path transform="matrix(1,0,0,-1,0,0)" d="M356.961-362.82C356.961-361.328 355.75-360.121 354.262-360.121 352.77-360.121 351.559-361.328 351.559-362.82 351.559-364.312 352.77-365.52 354.262-365.52 355.75-365.52 356.961-364.312 356.961-362.82" fill="#bebebe"/>
<path transform="matrix(1,0,0,-1,0,0)" stroke-width=".75" stroke-linecap="round" stroke-linejoin="round" fill="none" stroke="#000000" d="M356.961-362.82C356.961-361.328 355.75-360.121 354.262-360.121 352.77-360.121 351.559-361.328 351.559-362.82 351.559-364.312 352.77-365.52 354.262-365.52 355.75-365.52 356.961-364.312 356.961-362.82"/>
<path transform="matrix(1,0,0,-1,0,0)" d="M332.172-362.82C332.172-361.328 330.961-360.121 329.469-360.121 327.98-360.121 326.77-361.328 326.77-362.82 326.77-364.312 327.98-365.52 329.469-365.52 330.961-365.52 332.172-364.312 332.172-362.82" fill="#bebebe"/>
<path transform="matrix(1,0,0,-1,0,0)" stroke-width=".75" stroke-linecap="round" stroke-linejoin="round" fill="none" stroke="#000000" d="M332.172-362.82C332.172-361.328 330.961-360.121 329.469-360.121 327.98-360.121 326.77-361.328 326.77-362.82 326.77-364.312 327.98-365.52 329.469-365.52 330.961-365.52 332.172-364.312 332.172-362.82"/>
<path transform="matrix(1,0,0,-1,0,0)" d="M309.578-362.82C309.578-361.328 308.371-360.121 306.879-360.121 305.391-360.121 304.18-361.328 304.18-362.82 304.18-364.312 305.391-365.52 306.879-365.52 308.371-365.52 309.578-364.312 309.578-362.82" fill="#bebebe"/>
<path transform="matrix(1,0,0,-1,0,0)" stroke-width=".75" stroke-linecap="round" stroke-linejoin="round" fill="none" stroke="#000000" d="M309.578-362.82C309.578-361.328 308.371-360.121 306.879-360.121 305.391-360.121 304.18-361.328 304.18-362.82 304.18-364.312 305.391-365.52 306.879-365.52 308.371-365.52 309.578-364.312 309.578-362.82"/>
<path transform="matrix(1,0,0,-1,0,0)" d="M288.988-362.82C288.988-361.328 287.781-360.121 286.289-360.121 284.801-360.121 283.59-361.328 283.59-362.82 283.59-364.312 284.801-365.52 286.289-365.52 287.781-365.52 288.988-364.312 288.988-362.82" fill="#bebebe"/>
<path transform="matrix(1,0,0,-1,0,0)" stroke-width=".75" stroke-linecap="round" stroke-linejoin="round" fill="none" stroke="#000000" d="M288.988-362.82C288.988-361.328 287.781-360.121 286.289-360.121 284.801-360.121 283.59-361.328 283.59-362.82 283.59-364.312 284.801-365.52 286.289-365.52 287.781-365.52 288.988-364.312 288.988-362.82"/>
<path transform="matrix(1,0,0,-1,0,0)" d="M270.238-362.82C270.238-361.328 269.031-360.121 267.539-360.121 266.051-360.121 264.84-361.328 264.84-362.82 264.84-364.312 266.051-365.52 267.539-365.52 269.031-365.52 270.238-364.312 270.238-362.82" fill="#bebebe"/>
<path transform="matrix(1,0,0,-1,0,0)" stroke-width=".75" stroke-linecap="round" stroke-linejoin="round" fill="none" stroke="#000000" d="M270.238-362.82C270.238-361.328 269.031-360.121 267.539-360.121 266.051-360.121 264.84-361.328 264.84-362.82 264.84-364.312 266.051-365.52 267.539-365.52 269.031-365.52 270.238-364.312 270.238-362.82"/>
<path transform="matrix(1,0,0,-1,0,0)" d="M253.148-362.82C253.148-361.328 251.941-360.121 250.449-360.121 248.961-360.121 247.75-361.328 247.75-362.82 247.75-364.312 248.961-365.52 250.449-365.52 251.941-365.52 253.148-364.312 253.148-362.82" fill="#bebebe"/>
<path transform="matrix(1,0,0,-1,0,0)" stroke-width=".75" stroke-linecap="round" stroke-linejoin="round" fill="none" stroke="#000000" d="M253.148-362.82C253.148-361.328 251.941-360.121 250.449-360.121 248.961-360.121 247.75-361.328 247.75-362.82 247.75-364.312 248.961-365.52 250.449-365.52 251.941-365.52 253.148-364.312 253.148-362.82"/>
<path transform="matrix(1,0,0,-1,0,0)" d="M237.578-362.82C237.578-361.328 236.371-360.121 234.879-360.121 233.391-360.121 232.18-361.328 232.18-362.82 232.18-364.312 233.391-365.52 234.879-365.52 236.371-365.52 237.578-364.312 237.578-362.82" fill="#bebebe"/>
<path transform="matrix(1,0,0,-1,0,0)" stroke-width=".75" stroke-linecap="round" stroke-linejoin="round" fill="none" stroke="#000000" d="M237.578-362.82C237.578-361.328 236.371-360.121 234.879-360.121 233.391-360.121 232.18-361.328 232.18-362.82 232.18-364.312 233.391-365.52 234.879-365.52 236.371-365.52 237.578-364.312 237.578-362.82"/>
<path transform="matrix(1,0,0,-1,0,0)" d="M223.398-362.82C223.398-361.328 222.191-360.121 220.699-360.121 219.211-360.121 218-361.328 218-362.82 218-364.312 219.211-365.52 220.699-365.52 222.191-365.52 223.398-364.312 223.398-362.82" fill="#bebebe"/>
<path transform="matrix(1,0,0,-1,0,0)" stroke-width=".75" stroke-linecap="round" stroke-linejoin="round" fill="none" stroke="#000000" d="M223.398-362.82C223.398-361.328 222.191-360.121 220.699-360.121 219.211-360.121 218-361.328 218-362.82 218-364.312 219.211-365.52 220.699-365.52 222.191-365.52 223.398-364.312 223.398-362.82"/>
<path transform="matrix(1,0,0,-1,0,0)" d="M210.469-362.82C210.469-361.328 209.262-360.121 207.77-360.121 206.277-360.121 205.07-361.328 205.07-362.82 205.07-364.312 206.277-365.52 207.77-365.52 209.262-365.52 210.469-364.312 210.469-362.82" fill="#bebebe"/>
<path transform="matrix(1,0,0,-1,0,0)" stroke-width=".75" stroke-linecap="round" stroke-linejoin="round" fill="none" stroke="#000000" d="M210.469-362.82C210.469-361.328 209.262-360.121 207.77-360.121 206.277-360.121 205.07-361.328 205.07-362.82 205.07-364.312 206.277-365.52 207.77-365.52 209.262-365.52 210.469-364.312 210.469-362.82"/>
<path transform="matrix(1,0,0,-1,0,0)" d="M198.691-362.82C198.691-361.328 197.48-360.121 195.988-360.121 194.5-360.121 193.289-361.328 193.289-362.82 193.289-364.312 194.5-365.52 195.988-365.52 197.48-365.52 198.691-364.312 198.691-362.82" fill="#bebebe"/>
<path transform="matrix(1,0,0,-1,0,0)" stroke-width=".75" stroke-linecap="round" stroke-linejoin="round" fill="none" stroke="#000000" d="M198.691-362.82C198.691-361.328 197.48-360.121 195.988-360.121 194.5-360.121 193.289-361.328 193.289-362.82 193.289-364.312 194.5-365.52 195.988-365.52 197.48-365.52 198.691-364.312 198.691-362.82"/>
<path transform="matrix(1,0,0,-1,0,0)" d="M187.961-359.07C187.961-357.578 186.75-356.371 185.262-356.371 183.77-356.371 182.559-357.578 182.559-359.07 182.559-360.562 183.77-361.77 185.262-361.77 186.75-361.77 187.961-360.562 187.961-359.07" fill="#bebebe"/>
<path transform="matrix(1,0,0,-1,0,0)" stroke-width=".75" stroke-linecap="round" stroke-linejoin="round" fill="none" stroke="#000000" d="M187.961-359.07C187.961-357.578 186.75-356.371 185.262-356.371 183.77-356.371 182.559-357.578 182.559-359.07 182.559-360.562 183.77-361.77 185.262-361.77 186.75-361.77 187.961-360.562 187.961-359.07"/>
<path transform="matrix(1,0,0,-1,0,0)" d="M178.18-359.07C178.18-357.578 176.973-356.371 175.48-356.371 173.988-356.371 172.781-357.578 172.781-359.07 172.781-360.562 173.988-361.77 175.48-361.77 176.973-361.77 178.18-360.562 178.18-359.07" fill="#bebebe"/>
<path transform="matrix(1,0,0,-1,0,0)" stroke-width=".75" stroke-linecap="round" stroke-linejoin="round" fill="none" stroke="#000000" d="M178.18-359.07C178.18-357.578 176.973-356.371 175.48-356.371 173.988-356.371 172.781-357.578 172.781-359.07 172.781-360.562 173.988-361.77 175.48-361.77 176.973-361.77 178.18-360.562 178.18-359.07"/>
<path transform="matrix(1,0,0,-1,0,0)" d="M169.27-359.07C169.27-357.578 168.062-356.371 166.57-356.371 165.078-356.371 163.871-357.578 163.871-359.07 163.871-360.562 165.078-361.77 166.57-361.77 168.062-361.77 169.27-360.562 169.27-359.07" fill="#bebebe"/>
<path transform="matrix(1,0,0,-1,0,0)" stroke-width=".75" stroke-linecap="round" stroke-linejoin="round" fill="none" stroke="#000000" d="M169.27-359.07C169.27-357.578 168.062-356.371 166.57-356.371 165.078-356.371 163.871-357.578 163.871-359.07 163.871-360.562 165.078-361.77 166.57-361.77 168.062-361.77 169.27-360.562 169.27-359.07"/>
<path transform="matrix(1,0,0,-1,0,0)" d="M161.16-359.07C161.16-357.578 159.949-356.371 158.461-356.371 156.969-356.371 155.762-357.578 155.762-359.07 155.762-360.562 156.969-361.77 158.461-361.77 159.949-361.77 161.16-360.562 161.16-359.07" fill="#bebebe"/>
<path transform="matrix(1,0,0,-1,0,0)" stroke-width=".75" stroke-linecap="round" stroke-linejoin="round" fill="none" stroke="#000000" d="M161.16-359.07C161.16-357.578 159.949-356.371 158.461-356.371 156.969-356.371 155.762-357.578 155.762-359.07 155.762-360.562 156.969-361.77 158.461-361.77 159.949-361.77 161.16-360.562 161.16-359.07"/>
<path transform="matrix(1,0,0,-1,0,0)" d="M153.762-355.332C153.762-353.84 152.551-352.629 151.059-352.629 149.57-352.629 148.359-353.84 148.359-355.332 148.359-356.82 149.57-358.031 151.059-358.031 152.551-358.031 153.762-356.82 153.762-355.332" fill="#bebebe"/>
<path transform="matrix(1,0,0,-1,0,0)" stroke-width=".75" stroke-linecap="round" stroke-linejoin="round" fill="none" stroke="#000000" d="M153.762-355.332C153.762-353.84 152.551-352.629 151.059-352.629 149.57-352.629 148.359-353.84 148.359-355.332 148.359-356.82 149.57-358.031 151.059-358.031 152.551-358.031 153.762-356.82 153.762-355.332"/>
<path transform="matrix(1,0,0,-1,0,0)" d="M147.02-347.84C147.02-346.348 145.812-345.141 144.32-345.141 142.828-345.141 141.621-346.348 141.621-347.84 141.621-349.332 142.828-350.539 144.32-350.539 145.812-350.539 147.02-349.332 147.02-347.84" fill="#bebebe"/>
<path transform="matrix(1,0,0,-1,0,0)" stroke-width=".75" stroke-linecap="round" stroke-linejoin="round" fill="none" stroke="#000000" d="M147.02-347.84C147.02-346.348 145.812-345.141 144.32-345.141 142.828-345.141 141.621-346.348 141.621-347.84 141.621-349.332 142.828-350.539 144.32-350.539 145.812-350.539 147.02-349.332 147.02-347.84"/>
<path transform="matrix(1,0,0,-1,0,0)" d="M140.879-321.629C140.879-320.141 139.672-318.93 138.18-318.93 136.688-318.93 135.48-320.141 135.48-321.629 135.48-323.121 136.688-324.328 138.18-324.328 139.672-324.328 140.879-323.121 140.879-321.629" fill="#bebebe"/>
<path transform="matrix(1,0,0,-1,0,0)" stroke-width=".75" stroke-linecap="round" stroke-linejoin="round" fill="none" stroke="#000000" d="M140.879-321.629C140.879-320.141 139.672-318.93 138.18-318.93 136.688-318.93 135.48-320.141 135.48-321.629 135.48-323.121 136.688-324.328 138.18-324.328 139.672-324.328 140.879-323.121 140.879-321.629"/>
<path transform="matrix(1,0,0,-1,0,0)" d="M135.281-321.629C135.281-320.141 134.07-318.93 132.578-318.93 131.09-318.93 129.879-320.141 129.879-321.629 129.879-323.121 131.09-324.328 132.578-324.328 134.07-324.328 135.281-323.121 135.281-321.629" fill="#bebebe"/>
<path transform="matrix(1,0,0,-1,0,0)" stroke-width=".75" stroke-linecap="round" stroke-linejoin="round" fill="none" stroke="#000000" d="M135.281-321.629C135.281-320.141 134.07-318.93 132.578-318.93 131.09-318.93 129.879-320.141 129.879-321.629 129.879-323.121 131.09-324.328 132.578-324.328 134.07-324.328 135.281-323.121 135.281-321.629"/>
<path transform="matrix(1,0,0,-1,0,0)" d="M130.18-321.629C130.18-320.141 128.973-318.93 127.48-318.93 125.988-318.93 124.781-320.141 124.781-321.629 124.781-323.121 125.988-324.328 127.48-324.328 128.973-324.328 130.18-323.121 130.18-321.629" fill="#bebebe"/>
<path transform="matrix(1,0,0,-1,0,0)" stroke-width=".75" stroke-linecap="round" stroke-linejoin="round" fill="none" stroke="#000000" d="M130.18-321.629C130.18-320.141 128.973-318.93 127.48-318.93 125.988-318.93 124.781-320.141 124.781-321.629 124.781-323.121 125.988-324.328 127.48-324.328 128.973-324.328 130.18-323.121 130.18-321.629"/>
<path transform="matrix(1,0,0,-1,0,0)" d="M125.539-314.141C125.539-312.648 124.332-311.441 122.84-311.441 121.348-311.441 120.141-312.648 120.141-314.141 120.141-315.633 121.348-316.84 122.84-316.84 124.332-316.84 125.539-315.633 125.539-314.141" fill="#bebebe"/>
<path transform="matrix(1,0,0,-1,0,0)" stroke-width=".75" stroke-linecap="round" stroke-linejoin="round" fill="none" stroke="#000000" d="M125.539-314.141C125.539-312.648 124.332-311.441 122.84-311.441 121.348-311.441 120.141-312.648 120.141-314.141 120.141-315.633 121.348-316.84 122.84-316.84 124.332-316.84 125.539-315.633 125.539-314.141"/>
<path transform="matrix(1,0,0,-1,0,0)" d="M121.309-310.398C121.309-308.91 120.102-307.699 118.609-307.699 117.117-307.699 115.91-308.91 115.91-310.398 115.91-311.891 117.117-313.102 118.609-313.102 120.102-313.102 121.309-311.891 121.309-310.398" fill="#bebebe"/>
<path transform="matrix(1,0,0,-1,0,0)" stroke-width=".75" stroke-linecap="round" stroke-linejoin="round" fill="none" stroke="#000000" d="M121.309-310.398C121.309-308.91 120.102-307.699 118.609-307.699 117.117-307.699 115.91-308.91 115.91-310.398 115.91-311.891 117.117-313.102 118.609-313.102 120.102-313.102 121.309-311.891 121.309-310.398"/>
<path transform="matrix(1,0,0,-1,0,0)" d="M117.449-306.648C117.449-305.16 116.242-303.949 114.75-303.949 113.258-303.949 112.051-305.16 112.051-306.648 112.051-308.141 113.258-309.352 114.75-309.352 116.242-309.352 117.449-308.141 117.449-306.648" fill="#bebebe"/>
<path transform="matrix(1,0,0,-1,0,0)" stroke-width=".75" stroke-linecap="round" stroke-linejoin="round" fill="none" stroke="#000000" d="M117.449-306.648C117.449-305.16 116.242-303.949 114.75-303.949 113.258-303.949 112.051-305.16 112.051-306.648 112.051-308.141 113.258-309.352 114.75-309.352 116.242-309.352 117.449-308.141 117.449-306.648"/>
<path transform="matrix(1,0,0,-1,0,0)" d="M113.941-299.172C113.941-297.68 112.73-296.469 111.238-296.469 109.75-296.469 108.539-297.68 108.539-299.172 108.539-300.66 109.75-301.871 111.238-301.871 112.73-301.871 113.941-300.66 113.941-299.172" fill="#bebebe"/>
<path transform="matrix(1,0,0,-1,0,0)" stroke-width=".75" stroke-linecap="round" stroke-linejoin="round" fill="none" stroke="#000000" d="M113.941-299.172C113.941-297.68 112.73-296.469 111.238-296.469 109.75-296.469 108.539-297.68 108.539-299.172 108.539-300.66 109.75-301.871 111.238-301.871 112.73-301.871 113.941-300.66 113.941-299.172"/>
<path transform="matrix(1,0,0,-1,0,0)" d="M110.73-299.172C110.73-297.68 109.52-296.469 108.031-296.469 106.539-296.469 105.328-297.68 105.328-299.172 105.328-300.66 106.539-301.871 108.031-301.871 109.52-301.871 110.73-300.66 110.73-299.172" fill="#bebebe"/>
<path transform="matrix(1,0,0,-1,0,0)" stroke-width=".75" stroke-linecap="round" stroke-linejoin="round" fill="none" stroke="#000000" d="M110.73-299.172C110.73-297.68 109.52-296.469 108.031-296.469 106.539-296.469 105.328-297.68 105.328-299.172 105.328-300.66 106.539-301.871 108.031-301.871 109.52-301.871 110.73-300.66 110.73-299.172"/>
<path transform="matrix(1,0,0,-1,0,0)" d="M107.82-295.422C107.82-293.93 106.609-292.719 105.121-292.719 103.629-292.719 102.422-293.93 102.422-295.422 102.422-296.91 103.629-298.121 105.121-298.121 106.609-298.121 107.82-296.91 107.82-295.422" fill="#bebebe"/>
<path transform="matrix(1,0,0,-1,0,0)" stroke-width=".75" stroke-linecap="round" stroke-linejoin="round" fill="none" stroke="#000000" d="M107.82-295.422C107.82-293.93 106.609-292.719 105.121-292.719 103.629-292.719 102.422-293.93 102.422-295.422 102.422-296.91 103.629-298.121 105.121-298.121 106.609-298.121 107.82-296.91 107.82-295.422"/>
<path transform="matrix(1,0,0,-1,0,0)" d="M105.16-287.93C105.16-286.438 103.949-285.23 102.461-285.23 100.969-285.23 99.762-286.438 99.762-287.93 99.762-289.422 100.969-290.629 102.461-290.629 103.949-290.629 105.16-289.422 105.16-287.93" fill="#bebebe"/>
<path transform="matrix(1,0,0,-1,0,0)" stroke-width=".75" stroke-linecap="round" stroke-linejoin="round" fill="none" stroke="#000000" d="M105.16-287.93C105.16-286.438 103.949-285.23 102.461-285.23 100.969-285.23 99.762-286.438 99.762-287.93 99.762-289.422 100.969-290.629 102.461-290.629 103.949-290.629 105.16-289.422 105.16-287.93"/>
<path transform="matrix(1,0,0,-1,0,0)" d="M102.738-265.469C102.738-263.98 101.531-262.77 100.039-262.77 98.547-262.77 97.34-263.98 97.34-265.469 97.34-266.961 98.547-268.172 100.039-268.172 101.531-268.172 102.738-266.961 102.738-265.469" fill="#bebebe"/>
<path transform="matrix(1,0,0,-1,0,0)" stroke-width=".75" stroke-linecap="round" stroke-linejoin="round" fill="none" stroke="#000000" d="M102.738-265.469C102.738-263.98 101.531-262.77 100.039-262.77 98.547-262.77 97.34-263.98 97.34-265.469 97.34-266.961 98.547-268.172 100.039-268.172 101.531-268.172 102.738-266.961 102.738-265.469"/>
<path transform="matrix(1,0,0,-1,0,0)" d="M100.531-246.75C100.531-245.258 99.32-244.051 97.832-244.051 96.34-244.051 95.129-245.258 95.129-246.75 95.129-248.242 96.34-249.449 97.832-249.449 99.32-249.449 100.531-248.242 100.531-246.75" fill="#bebebe"/>
<path transform="matrix(1,0,0,-1,0,0)" stroke-width=".75" stroke-linecap="round" stroke-linejoin="round" fill="none" stroke="#000000" d="M100.531-246.75C100.531-245.258 99.32-244.051 97.832-244.051 96.34-244.051 95.129-245.258 95.129-246.75 95.129-248.242 96.34-249.449 97.832-249.449 99.32-249.449 100.531-248.242 100.531-246.75"/>
<path transform="matrix(1,0,0,-1,0,0)" d="M98.52-231.77C98.52-230.277 97.312-229.07 95.82-229.07 94.328-229.07 93.121-230.277 93.121-231.77 93.121-233.262 94.328-234.469 95.82-234.469 97.312-234.469 98.52-233.262 98.52-231.77" fill="#bebebe"/>
<path transform="matrix(1,0,0,-1,0,0)" stroke-width=".75" stroke-linecap="round" stroke-linejoin="round" fill="none" stroke="#000000" d="M98.52-231.77C98.52-230.277 97.312-229.07 95.82-229.07 94.328-229.07 93.121-230.277 93.121-231.77 93.121-233.262 94.328-234.469 95.82-234.469 97.312-234.469 98.52-233.262 98.52-231.77"/>
<path transform="matrix(1,0,0,-1,0,0)" d="M96.691-220.539C96.691-219.051 95.48-217.84 93.988-217.84 92.5-217.84 91.289-219.051 91.289-220.539 91.289-222.031 92.5-223.238 93.988-223.238 95.48-223.238 96.691-222.031 96.691-220.539" fill="#bebebe"/>
<path transform="matrix(1,0,0,-1,0,0)" stroke-width=".75" stroke-linecap="round" stroke-linejoin="round" fill="none" stroke="#000000" d="M96.691-220.539C96.691-219.051 95.48-217.84 93.988-217.84 92.5-217.84 91.289-219.051 91.289-220.539 91.289-222.031 92.5-223.238 93.988-223.238 95.48-223.238 96.691-222.031 96.691-220.539"/>
<path transform="matrix(1,0,0,-1,0,0)" d="M95.02-201.82C95.02-200.328 93.812-199.121 92.32-199.121 90.828-199.121 89.621-200.328 89.621-201.82 89.621-203.312 90.828-204.52 92.32-204.52 93.812-204.52 95.02-203.312 95.02-201.82" fill="#bebebe"/>
<path transform="matrix(1,0,0,-1,0,0)" stroke-width=".75" stroke-linecap="round" stroke-linejoin="round" fill="none" stroke="#000000" d="M95.02-201.82C95.02-200.328 93.812-199.121 92.32-199.121 90.828-199.121 89.621-200.328 89.621-201.82 89.621-203.312 90.828-204.52 92.32-204.52 93.812-204.52 95.02-203.312 95.02-201.82"/>
<path transform="matrix(1,0,0,-1,0,0)" d="M93.488-186.84C93.488-185.348 92.281-184.141 90.789-184.141 89.297-184.141 88.09-185.348 88.09-186.84 88.09-188.332 89.297-189.539 90.789-189.539 92.281-189.539 93.488-188.332 93.488-186.84" fill="#bebebe"/>
<path transform="matrix(1,0,0,-1,0,0)" stroke-width=".75" stroke-linecap="round" stroke-linejoin="round" fill="none" stroke="#000000" d="M93.488-186.84C93.488-185.348 92.281-184.141 90.789-184.141 89.297-184.141 88.09-185.348 88.09-186.84 88.09-188.332 89.297-189.539 90.789-189.539 92.281-189.539 93.488-188.332 93.488-186.84"/>
<path transform="matrix(1,0,0,-1,0,0)" d="M92.109-171.859C92.109-170.367 90.902-169.16 89.41-169.16 87.918-169.16 86.711-170.367 86.711-171.859 86.711-173.352 87.918-174.559 89.41-174.559 90.902-174.559 92.109-173.352 92.109-171.859" fill="#bebebe"/>
<path transform="matrix(1,0,0,-1,0,0)" stroke-width=".75" stroke-linecap="round" stroke-linejoin="round" fill="none" stroke="#000000" d="M92.109-171.859C92.109-170.367 90.902-169.16 89.41-169.16 87.918-169.16 86.711-170.367 86.711-171.859 86.711-173.352 87.918-174.559 89.41-174.559 90.902-174.559 92.109-173.352 92.109-171.859"/>
<path transform="matrix(1,0,0,-1,0,0)" d="M90.852-149.398C90.852-147.91 89.641-146.699 88.148-146.699 86.66-146.699 85.449-147.91 85.449-149.398 85.449-150.891 86.66-152.102 88.148-152.102 89.641-152.102 90.852-150.891 90.852-149.398" fill="#bebebe"/>
<path transform="matrix(1,0,0,-1,0,0)" stroke-width=".75" stroke-linecap="round" stroke-linejoin="round" fill="none" stroke="#000000" d="M90.852-149.398C90.852-147.91 89.641-146.699 88.148-146.699 86.66-146.699 85.449-147.91 85.449-149.398 85.449-150.891 86.66-152.102 88.148-152.102 89.641-152.102 90.852-150.891 90.852-149.398"/>
<path transform="matrix(1,0,0,-1,0,0)" d="M89.699-134.422C89.699-132.93 88.492-131.719 87-131.719 85.508-131.719 84.301-132.93 84.301-134.422 84.301-135.91 85.508-137.121 87-137.121 88.492-137.121 89.699-135.91 89.699-134.422" fill="#bebebe"/>
<path transform="matrix(1,0,0,-1,0,0)" stroke-width=".75" stroke-linecap="round" stroke-linejoin="round" fill="none" stroke="#000000" d="M89.699-134.422C89.699-132.93 88.492-131.719 87-131.719 85.508-131.719 84.301-132.93 84.301-134.422 84.301-135.91 85.508-137.121 87-137.121 88.492-137.121 89.699-135.91 89.699-134.422"/>
<path transform="matrix(1,0,0,-1,0,0)" d="M88.648-119.449C88.648-117.961 87.441-116.75 85.949-116.75 84.461-116.75 83.25-117.961 83.25-119.449 83.25-120.941 84.461-122.148 85.949-122.148 87.441-122.148 88.648-120.941 88.648-119.449" fill="#bebebe"/>
<path transform="matrix(1,0,0,-1,0,0)" stroke-width=".75" stroke-linecap="round" stroke-linejoin="round" fill="none" stroke="#000000" d="M88.648-119.449C88.648-117.961 87.441-116.75 85.949-116.75 84.461-116.75 83.25-117.961 83.25-119.449 83.25-120.941 84.461-122.148 85.949-122.148 87.441-122.148 88.648-120.941 88.648-119.449"/>
<path transform="matrix(1,0,0,-1,0,0)" d="M87.691-108.211C87.691-106.719 86.48-105.512 84.988-105.512 83.5-105.512 82.289-106.719 82.289-108.211 82.289-109.699 83.5-110.91 84.988-110.91 86.48-110.91 87.691-109.699 87.691-108.211" fill="#bebebe"/>
<path transform="matrix(1,0,0,-1,0,0)" stroke-width=".75" stroke-linecap="round" stroke-linejoin="round" fill="none" stroke="#000000" d="M87.691-108.211C87.691-106.719 86.48-105.512 84.988-105.512 83.5-105.512 82.289-106.719 82.289-108.211 82.289-109.699 83.5-110.91 84.988-110.91 86.48-110.91 87.691-109.699 87.691-108.211"/>
<path transform="matrix(1,0,0,-1,0,0)" d="M86.82-104.469C86.82-102.98 85.609-101.77 84.121-101.77 82.629-101.77 81.418-102.98 81.418-104.469 81.418-105.961 82.629-107.172 84.121-107.172 85.609-107.172 86.82-105.961 86.82-104.469" fill="#bebebe"/>
<path transform="matrix(1,0,0,-1,0,0)" stroke-width=".75" stroke-linecap="round" stroke-linejoin="round" fill="none" stroke="#000000" d="M86.82-104.469C86.82-102.98 85.609-101.77 84.121-101.77 82.629-101.77 81.418-102.98 81.418-104.469 81.418-105.961 82.629-107.172 84.121-107.172 85.609-107.172 86.82-105.961 86.82-104.469"/>
<path transform="matrix(1,0,0,-1,0,0)" d="M86.031-96.98C86.031-95.488 84.82-94.281 83.332-94.281 81.84-94.281 80.629-95.488 80.629-96.98 80.629-98.473 81.84-99.68 83.332-99.68 84.82-99.68 86.031-98.473 86.031-96.98" fill="#bebebe"/>
<path transform="matrix(1,0,0,-1,0,0)" stroke-width=".75" stroke-linecap="round" stroke-linejoin="round" fill="none" stroke="#000000" d="M86.031-96.98C86.031-95.488 84.82-94.281 83.332-94.281 81.84-94.281 80.629-95.488 80.629-96.98 80.629-98.473 81.84-99.68 83.332-99.68 84.82-99.68 86.031-98.473 86.031-96.98"/>
<path transform="matrix(1,0,0,-1,0,0)" d="M85.309-89.488C85.309-88 84.102-86.789 82.609-86.789 81.117-86.789 79.91-88 79.91-89.488 79.91-90.98 81.117-92.191 82.609-92.191 84.102-92.191 85.309-90.98 85.309-89.488" fill="#bebebe"/>
<path transform="matrix(1,0,0,-1,0,0)" stroke-width=".75" stroke-linecap="round" stroke-linejoin="round" fill="none" stroke="#000000" d="M85.309-89.488C85.309-88 84.102-86.789 82.609-86.789 81.117-86.789 79.91-88 79.91-89.488 79.91-90.98 81.117-92.191 82.609-92.191 84.102-92.191 85.309-90.98 85.309-89.488"/>
<path transform="matrix(1,0,0,-1,0,0)" d="M84.648-89.488C84.648-88 83.441-86.789 81.949-86.789 80.461-86.789 79.25-88 79.25-89.488 79.25-90.98 80.461-92.191 81.949-92.191 83.441-92.191 84.648-90.98 84.648-89.488" fill="#bebebe"/>
<path transform="matrix(1,0,0,-1,0,0)" stroke-width=".75" stroke-linecap="round" stroke-linejoin="round" fill="none" stroke="#000000" d="M84.648-89.488C84.648-88 83.441-86.789 81.949-86.789 80.461-86.789 79.25-88 79.25-89.488 79.25-90.98 80.461-92.191 81.949-92.191 83.441-92.191 84.648-90.98 84.648-89.488"/>
<path transform="matrix(1,0,0,-1,0,0)" d="M84.051-82C84.051-80.508 82.84-79.301 81.352-79.301 79.859-79.301 78.648-80.508 78.648-82 78.648-83.492 79.859-84.699 81.352-84.699 82.84-84.699 84.051-83.492 84.051-82" fill="#bebebe"/>
<path transform="matrix(1,0,0,-1,0,0)" stroke-width=".75" stroke-linecap="round" stroke-linejoin="round" fill="none" stroke="#000000" d="M84.051-82C84.051-80.508 82.84-79.301 81.352-79.301 79.859-79.301 78.648-80.508 78.648-82 78.648-83.492 79.859-84.699 81.352-84.699 82.84-84.699 84.051-83.492 84.051-82"/>
<path transform="matrix(1,0,0,-1,0,0)" d="M83.5-70.77C83.5-69.277 82.289-68.07 80.801-68.07 79.309-68.07 78.102-69.277 78.102-70.77 78.102-72.262 79.309-73.469 80.801-73.469 82.289-73.469 83.5-72.262 83.5-70.77" fill="#bebebe"/>
<path transform="matrix(1,0,0,-1,0,0)" stroke-width=".75" stroke-linecap="round" stroke-linejoin="round" fill="none" stroke="#000000" d="M83.5-70.77C83.5-69.277 82.289-68.07 80.801-68.07 79.309-68.07 78.102-69.277 78.102-70.77 78.102-72.262 79.309-73.469 80.801-73.469 82.289-73.469 83.5-72.262 83.5-70.77"/>
<path transform="matrix(1,0,0,-1,0,0)" d="M83-59.539C83-58.051 81.789-56.84 80.301-56.84 78.809-56.84 77.602-58.051 77.602-59.539 77.602-61.031 78.809-62.238 80.301-62.238 81.789-62.238 83-61.031 83-59.539" fill="#bebebe"/>
<path transform="matrix(1,0,0,-1,0,0)" stroke-width=".75" stroke-linecap="round" stroke-linejoin="round" fill="none" stroke="#000000" d="M83-59.539C83-58.051 81.789-56.84 80.301-56.84 78.809-56.84 77.602-58.051 77.602-59.539 77.602-61.031 78.809-62.238 80.301-62.238 81.789-62.238 83-61.031 83-59.539"/>
<path transform="matrix(1,0,0,-1,0,0)" d="M82.551-59.539C82.551-58.051 81.34-56.84 79.852-56.84 78.359-56.84 77.148-58.051 77.148-59.539 77.148-61.031 78.359-62.238 79.852-62.238 81.34-62.238 82.551-61.031 82.551-59.539" fill="#bebebe"/>
<path transform="matrix(1,0,0,-1,0,0)" stroke-width=".75" stroke-linecap="round" stroke-linejoin="round" fill="none" stroke="#000000" d="M82.551-59.539C82.551-58.051 81.34-56.84 79.852-56.84 78.359-56.84 77.148-58.051 77.148-59.539 77.148-61.031 78.359-62.238 79.852-62.238 81.34-62.238 82.551-61.031 82.551-59.539"/>
<path transform="matrix(1,0,0,-1,0,0)" d="M82.129-63.281C82.129-61.789 80.922-60.578 79.43-60.578 77.938-60.578 76.73-61.789 76.73-63.281 76.73-64.77 77.938-65.98 79.43-65.98 80.922-65.98 82.129-64.77 82.129-63.281" fill="#bebebe"/>
<path transform="matrix(1,0,0,-1,0,0)" stroke-width=".75" stroke-linecap="round" stroke-linejoin="round" fill="none" stroke="#000000" d="M82.129-63.281C82.129-61.789 80.922-60.578 79.43-60.578 77.938-60.578 76.73-61.789 76.73-63.281 76.73-64.77 77.938-65.98 79.43-65.98 80.922-65.98 82.129-64.77 82.129-63.281"/>
<path transform="matrix(1,0,0,-1,0,0)" d="M81.762-63.281C81.762-61.789 80.551-60.578 79.059-60.578 77.57-60.578 76.359-61.789 76.359-63.281 76.359-64.77 77.57-65.98 79.059-65.98 80.551-65.98 81.762-64.77 81.762-63.281" fill="#bebebe"/>
<path transform="matrix(1,0,0,-1,0,0)" stroke-width=".75" stroke-linecap="round" stroke-linejoin="round" fill="none" stroke="#000000" d="M81.762-63.281C81.762-61.789 80.551-60.578 79.059-60.578 77.57-60.578 76.359-61.789 76.359-63.281 76.359-64.77 77.57-65.98 79.059-65.98 80.551-65.98 81.762-64.77 81.762-63.281"/>
<path transform="matrix(1,0,0,-1,0,0)" d="M81.41-59.539C81.41-58.051 80.203-56.84 78.711-56.84 77.219-56.84 76.012-58.051 76.012-59.539 76.012-61.031 77.219-62.238 78.711-62.238 80.203-62.238 81.41-61.031 81.41-59.539" fill="#bebebe"/>
<path transform="matrix(1,0,0,-1,0,0)" stroke-width=".75" stroke-linecap="round" stroke-linejoin="round" fill="none" stroke="#000000" d="M81.41-59.539C81.41-58.051 80.203-56.84 78.711-56.84 77.219-56.84 76.012-58.051 76.012-59.539 76.012-61.031 77.219-62.238 78.711-62.238 80.203-62.238 81.41-61.031 81.41-59.539"/>
<path transform="matrix(1,0,0,-1,0,0)" d="M81.102-59.539C81.102-58.051 79.891-56.84 78.398-56.84 76.91-56.84 75.699-58.051 75.699-59.539 75.699-61.031 76.91-62.238 78.398-62.238 79.891-62.238 81.102-61.031 81.102-59.539" fill="#bebebe"/>
<path transform="matrix(1,0,0,-1,0,0)" stroke-width=".75" stroke-linecap="round" stroke-linejoin="round" fill="none" stroke="#000000" d="M81.102-59.539C81.102-58.051 79.891-56.84 78.398-56.84 76.91-56.84 75.699-58.051 75.699-59.539 75.699-61.031 76.91-62.238 78.398-62.238 79.891-62.238 81.102-61.031 81.102-59.539"/>
<path transform="matrix(1,0,0,-1,0,0)" d="M80.82-59.539C80.82-58.051 79.609-56.84 78.121-56.84 76.629-56.84 75.418-58.051 75.418-59.539 75.418-61.031 76.629-62.238 78.121-62.238 79.609-62.238 80.82-61.031 80.82-59.539" fill="#bebebe"/>
<path transform="matrix(1,0,0,-1,0,0)" stroke-width=".75" stroke-linecap="round" stroke-linejoin="round" fill="none" stroke="#000000" d="M80.82-59.539C80.82-58.051 79.609-56.84 78.121-56.84 76.629-56.84 75.418-58.051 75.418-59.539 75.418-61.031 76.629-62.238 78.121-62.238 79.609-62.238 80.82-61.031 80.82-59.539"/>
<path transform="matrix(1,0,0,-1,0,0)" d="M80.559-63.281C80.559-61.789 79.352-60.578 77.859-60.578 76.367-60.578 75.16-61.789 75.16-63.281 75.16-64.77 76.367-65.98 77.859-65.98 79.352-65.98 80.559-64.77 80.559-63.281" fill="#bebebe"/>
<path transform="matrix(1,0,0,-1,0,0)" stroke-width=".75" stroke-linecap="round" stroke-linejoin="round" fill="none" stroke="#000000" d="M80.559-63.281C80.559-61.789 79.352-60.578 77.859-60.578 76.367-60.578 75.16-61.789 75.16-63.281 75.16-64.77 76.367-65.98 77.859-65.98 79.352-65.98 80.559-64.77 80.559-63.281"/>
<path transform="matrix(1,0,0,-1,0,0)" d="M80.32-70.77C80.32-69.277 79.109-68.07 77.621-68.07 76.129-68.07 74.918-69.277 74.918-70.77 74.918-72.262 76.129-73.469 77.621-73.469 79.109-73.469 80.32-72.262 80.32-70.77" fill="#bebebe"/>
<path transform="matrix(1,0,0,-1,0,0)" stroke-width=".75" stroke-linecap="round" stroke-linejoin="round" fill="none" stroke="#000000" d="M80.32-70.77C80.32-69.277 79.109-68.07 77.621-68.07 76.129-68.07 74.918-69.277 74.918-70.77 74.918-72.262 76.129-73.469 77.621-73.469 79.109-73.469 80.32-72.262 80.32-70.77"/>
<path transform="matrix(1,0,0,-1,0,0)" d="M80.102-70.77C80.102-69.277 78.891-68.07 77.398-68.07 75.91-68.07 74.699-69.277 74.699-70.77 74.699-72.262 75.91-73.469 77.398-73.469 78.891-73.469 80.102-72.262 80.102-70.77" fill="#bebebe"/>
<path transform="matrix(1,0,0,-1,0,0)" stroke-width=".75" stroke-linecap="round" stroke-linejoin="round" fill="none" stroke="#000000" d="M80.102-70.77C80.102-69.277 78.891-68.07 77.398-68.07 75.91-68.07 74.699-69.277 74.699-70.77 74.699-72.262 75.91-73.469 77.398-73.469 78.891-73.469 80.102-72.262 80.102-70.77"/>
<path transform="matrix(1,0,0,-1,0,0)" d="M79.91-74.52C79.91-73.027 78.703-71.82 77.211-71.82 75.719-71.82 74.512-73.027 74.512-74.52 74.512-76.012 75.719-77.219 77.211-77.219 78.703-77.219 79.91-76.012 79.91-74.52" fill="#bebebe"/>
<path transform="matrix(1,0,0,-1,0,0)" stroke-width=".75" stroke-linecap="round" stroke-linejoin="round" fill="none" stroke="#000000" d="M79.91-74.52C79.91-73.027 78.703-71.82 77.211-71.82 75.719-71.82 74.512-73.027 74.512-74.52 74.512-76.012 75.719-77.219 77.211-77.219 78.703-77.219 79.91-76.012 79.91-74.52"/>
<path transform="matrix(1,0,0,-1,0,0)" d="M79.73-78.262C79.73-76.77 78.52-75.559 77.031-75.559 75.539-75.559 74.332-76.77 74.332-78.262 74.332-79.75 75.539-80.961 77.031-80.961 78.52-80.961 79.73-79.75 79.73-78.262" fill="#bebebe"/>
<path transform="matrix(1,0,0,-1,0,0)" stroke-width=".75" stroke-linecap="round" stroke-linejoin="round" fill="none" stroke="#000000" d="M79.73-78.262C79.73-76.77 78.52-75.559 77.031-75.559 75.539-75.559 74.332-76.77 74.332-78.262 74.332-79.75 75.539-80.961 77.031-80.961 78.52-80.961 79.73-79.75 79.73-78.262"/>
<path transform="matrix(1,0,0,-1,0,0)" d="M79.57-78.262C79.57-76.77 78.359-75.559 76.871-75.559 75.379-75.559 74.168-76.77 74.168-78.262 74.168-79.75 75.379-80.961 76.871-80.961 78.359-80.961 79.57-79.75 79.57-78.262" fill="#bebebe"/>
<path transform="matrix(1,0,0,-1,0,0)" stroke-width=".75" stroke-linecap="round" stroke-linejoin="round" fill="none" stroke="#000000" d="M79.57-78.262C79.57-76.77 78.359-75.559 76.871-75.559 75.379-75.559 74.168-76.77 74.168-78.262 74.168-79.75 75.379-80.961 76.871-80.961 78.359-80.961 79.57-79.75 79.57-78.262"/>
<path transform="matrix(1,0,0,-1,0,0)" d="M79.418-78.262C79.418-76.77 78.211-75.559 76.719-75.559 75.23-75.559 74.02-76.77 74.02-78.262 74.02-79.75 75.23-80.961 76.719-80.961 78.211-80.961 79.418-79.75 79.418-78.262" fill="#bebebe"/>
<path transform="matrix(1,0,0,-1,0,0)" stroke-width=".75" stroke-linecap="round" stroke-linejoin="round" fill="none" stroke="#000000" d="M79.418-78.262C79.418-76.77 78.211-75.559 76.719-75.559 75.23-75.559 74.02-76.77 74.02-78.262 74.02-79.75 75.23-80.961 76.719-80.961 78.211-80.961 79.418-79.75 79.418-78.262"/>
<path transform="matrix(1,0,0,-1,0,0)" d="M79.281-82C79.281-80.508 78.07-79.301 76.582-79.301 75.09-79.301 73.879-80.508 73.879-82 73.879-83.492 75.09-84.699 76.582-84.699 78.07-84.699 79.281-83.492 79.281-82" fill="#bebebe"/>
<path transform="matrix(1,0,0,-1,0,0)" stroke-width=".75" stroke-linecap="round" stroke-linejoin="round" fill="none" stroke="#000000" d="M79.281-82C79.281-80.508 78.07-79.301 76.582-79.301 75.09-79.301 73.879-80.508 73.879-82 73.879-83.492 75.09-84.699 76.582-84.699 78.07-84.699 79.281-83.492 79.281-82"/>
<path transform="matrix(1,0,0,-1,0,0)" d="M79.16-78.262C79.16-76.77 77.953-75.559 76.461-75.559 74.969-75.559 73.762-76.77 73.762-78.262 73.762-79.75 74.969-80.961 76.461-80.961 77.953-80.961 79.16-79.75 79.16-78.262" fill="#bebebe"/>
<path transform="matrix(1,0,0,-1,0,0)" stroke-width=".75" stroke-linecap="round" stroke-linejoin="round" fill="none" stroke="#000000" d="M79.16-78.262C79.16-76.77 77.953-75.559 76.461-75.559 74.969-75.559 73.762-76.77 73.762-78.262 73.762-79.75 74.969-80.961 76.461-80.961 77.953-80.961 79.16-79.75 79.16-78.262"/>
<path transform="matrix(1,0,0,-1,0,0)" d="M79.051-85.75C79.051-84.258 77.84-83.051 76.352-83.051 74.859-83.051 73.648-84.258 73.648-85.75 73.648-87.242 74.859-88.449 76.352-88.449 77.84-88.449 79.051-87.242 79.051-85.75" fill="#bebebe"/>
<path transform="matrix(1,0,0,-1,0,0)" stroke-width=".75" stroke-linecap="round" stroke-linejoin="round" fill="none" stroke="#000000" d="M79.051-85.75C79.051-84.258 77.84-83.051 76.352-83.051 74.859-83.051 73.648-84.258 73.648-85.75 73.648-87.242 74.859-88.449 76.352-88.449 77.84-88.449 79.051-87.242 79.051-85.75"/>
<path transform="matrix(1,0,0,-1,0,0)" d="M78.941-89.488C78.941-88 77.73-86.789 76.238-86.789 74.75-86.789 73.539-88 73.539-89.488 73.539-90.98 74.75-92.191 76.238-92.191 77.73-92.191 78.941-90.98 78.941-89.488" fill="#bebebe"/>
<path transform="matrix(1,0,0,-1,0,0)" stroke-width=".75" stroke-linecap="round" stroke-linejoin="round" fill="none" stroke="#000000" d="M78.941-89.488C78.941-88 77.73-86.789 76.238-86.789 74.75-86.789 73.539-88 73.539-89.488 73.539-90.98 74.75-92.191 76.238-92.191 77.73-92.191 78.941-90.98 78.941-89.488"/>
<path transform="matrix(1,0,0,-1,0,0)" d="M78.852-89.488C78.852-88 77.641-86.789 76.148-86.789 74.66-86.789 73.449-88 73.449-89.488 73.449-90.98 74.66-92.191 76.148-92.191 77.641-92.191 78.852-90.98 78.852-89.488" fill="#bebebe"/>
<path transform="matrix(1,0,0,-1,0,0)" stroke-width=".75" stroke-linecap="round" stroke-linejoin="round" fill="none" stroke="#000000" d="M78.852-89.488C78.852-88 77.641-86.789 76.148-86.789 74.66-86.789 73.449-88 73.449-89.488 73.449-90.98 74.66-92.191 76.148-92.191 77.641-92.191 78.852-90.98 78.852-89.488"/>
<path transform="matrix(1,0,0,-1,0,0)" d="M78.77-85.75C78.77-84.258 77.562-83.051 76.07-83.051 74.578-83.051 73.371-84.258 73.371-85.75 73.371-87.242 74.578-88.449 76.07-88.449 77.562-88.449 78.77-87.242 78.77-85.75" fill="#bebebe"/>
<path transform="matrix(1,0,0,-1,0,0)" stroke-width=".75" stroke-linecap="round" stroke-linejoin="round" fill="none" stroke="#000000" d="M78.77-85.75C78.77-84.258 77.562-83.051 76.07-83.051 74.578-83.051 73.371-84.258 73.371-85.75 73.371-87.242 74.578-88.449 76.07-88.449 77.562-88.449 78.77-87.242 78.77-85.75"/>
<path transform="matrix(1,0,0,-1,0,0)" d="M78.691-85.75C78.691-84.258 77.48-83.051 75.988-83.051 74.5-83.051 73.289-84.258 73.289-85.75 73.289-87.242 74.5-88.449 75.988-88.449 77.48-88.449 78.691-87.242 78.691-85.75" fill="#bebebe"/>
<path transform="matrix(1,0,0,-1,0,0)" stroke-width=".75" stroke-linecap="round" stroke-linejoin="round" fill="none" stroke="#000000" d="M78.691-85.75C78.691-84.258 77.48-83.051 75.988-83.051 74.5-83.051 73.289-84.258 73.289-85.75 73.289-87.242 74.5-88.449 75.988-88.449 77.48-88.449 78.691-87.242 78.691-85.75"/>
<path transform="matrix(1,0,0,-1,0,0)" d="M78.621-93.238C78.621-91.75 77.41-90.539 75.918-90.539 74.43-90.539 73.219-91.75 73.219-93.238 73.219-94.73 74.43-95.941 75.918-95.941 77.41-95.941 78.621-94.73 78.621-93.238" fill="#bebebe"/>
<path transform="matrix(1,0,0,-1,0,0)" stroke-width=".75" stroke-linecap="round" stroke-linejoin="round" fill="none" stroke="#000000" d="M78.621-93.238C78.621-91.75 77.41-90.539 75.918-90.539 74.43-90.539 73.219-91.75 73.219-93.238 73.219-94.73 74.43-95.941 75.918-95.941 77.41-95.941 78.621-94.73 78.621-93.238"/>
<path transform="matrix(1,0,0,-1,0,0)" d="M78.551-93.238C78.551-91.75 77.34-90.539 75.852-90.539 74.359-90.539 73.148-91.75 73.148-93.238 73.148-94.73 74.359-95.941 75.852-95.941 77.34-95.941 78.551-94.73 78.551-93.238" fill="#bebebe"/>
<path transform="matrix(1,0,0,-1,0,0)" stroke-width=".75" stroke-linecap="round" stroke-linejoin="round" fill="none" stroke="#000000" d="M78.551-93.238C78.551-91.75 77.34-90.539 75.852-90.539 74.359-90.539 73.148-91.75 73.148-93.238 73.148-94.73 74.359-95.941 75.852-95.941 77.34-95.941 78.551-94.73 78.551-93.238"/>
<path transform="matrix(1,0,0,-1,0,0)" d="M78.488-100.73C78.488-99.238 77.281-98.031 75.789-98.031 74.297-98.031 73.09-99.238 73.09-100.73 73.09-102.223 74.297-103.43 75.789-103.43 77.281-103.43 78.488-102.223 78.488-100.73" fill="#bebebe"/>
<path transform="matrix(1,0,0,-1,0,0)" stroke-width=".75" stroke-linecap="round" stroke-linejoin="round" fill="none" stroke="#000000" d="M78.488-100.73C78.488-99.238 77.281-98.031 75.789-98.031 74.297-98.031 73.09-99.238 73.09-100.73 73.09-102.223 74.297-103.43 75.789-103.43 77.281-103.43 78.488-102.223 78.488-100.73"/>
<path transform="matrix(1,0,0,-1,0,0)" d="M78.441-100.73C78.441-99.238 77.23-98.031 75.738-98.031 74.25-98.031 73.039-99.238 73.039-100.73 73.039-102.223 74.25-103.43 75.738-103.43 77.23-103.43 78.441-102.223 78.441-100.73" fill="#bebebe"/>
<path transform="matrix(1,0,0,-1,0,0)" stroke-width=".75" stroke-linecap="round" stroke-linejoin="round" fill="none" stroke="#000000" d="M78.441-100.73C78.441-99.238 77.23-98.031 75.738-98.031 74.25-98.031 73.039-99.238 73.039-100.73 73.039-102.223 74.25-103.43 75.738-103.43 77.23-103.43 78.441-102.223 78.441-100.73"/>
<path transform="matrix(1,0,0,-1,0,0)" d="M78.391-104.469C78.391-102.98 77.18-101.77 75.691-101.77 74.199-101.77 72.988-102.98 72.988-104.469 72.988-105.961 74.199-107.172 75.691-107.172 77.18-107.172 78.391-105.961 78.391-104.469" fill="#bebebe"/>
<path transform="matrix(1,0,0,-1,0,0)" stroke-width=".75" stroke-linecap="round" stroke-linejoin="round" fill="none" stroke="#000000" d="M78.391-104.469C78.391-102.98 77.18-101.77 75.691-101.77 74.199-101.77 72.988-102.98 72.988-104.469 72.988-105.961 74.199-107.172 75.691-107.172 77.18-107.172 78.391-105.961 78.391-104.469"/>
<path transform="matrix(1,0,0,-1,0,0)" d="M78.352-100.73C78.352-99.238 77.141-98.031 75.648-98.031 74.16-98.031 72.949-99.238 72.949-100.73 72.949-102.223 74.16-103.43 75.648-103.43 77.141-103.43 78.352-102.223 78.352-100.73" fill="#bebebe"/>
<path transform="matrix(1,0,0,-1,0,0)" stroke-width=".75" stroke-linecap="round" stroke-linejoin="round" fill="none" stroke="#000000" d="M78.352-100.73C78.352-99.238 77.141-98.031 75.648-98.031 74.16-98.031 72.949-99.238 72.949-100.73 72.949-102.223 74.16-103.43 75.648-103.43 77.141-103.43 78.352-102.223 78.352-100.73"/>
<path transform="matrix(1,0,0,-1,0,0)" d="M78.309-100.73C78.309-99.238 77.102-98.031 75.609-98.031 74.117-98.031 72.91-99.238 72.91-100.73 72.91-102.223 74.117-103.43 75.609-103.43 77.102-103.43 78.309-102.223 78.309-100.73" fill="#bebebe"/>
<path transform="matrix(1,0,0,-1,0,0)" stroke-width=".75" stroke-linecap="round" stroke-linejoin="round" fill="none" stroke="#000000" d="M78.309-100.73C78.309-99.238 77.102-98.031 75.609-98.031 74.117-98.031 72.91-99.238 72.91-100.73 72.91-102.223 74.117-103.43 75.609-103.43 77.102-103.43 78.309-102.223 78.309-100.73"/>
<path transform="matrix(1,0,0,-1,0,0)" d="M78.27-104.469C78.27-102.98 77.062-101.77 75.57-101.77 74.078-101.77 72.871-102.98 72.871-104.469 72.871-105.961 74.078-107.172 75.57-107.172 77.062-107.172 78.27-105.961 78.27-104.469" fill="#bebebe"/>
<path transform="matrix(1,0,0,-1,0,0)" stroke-width=".75" stroke-linecap="round" stroke-linejoin="round" fill="none" stroke="#000000" d="M78.27-104.469C78.27-102.98 77.062-101.77 75.57-101.77 74.078-101.77 72.871-102.98 72.871-104.469 72.871-105.961 74.078-107.172 75.57-107.172 77.062-107.172 78.27-105.961 78.27-104.469"/>
<path transform="matrix(1,0,0,-1,0,0)" d="M78.238-104.469C78.238-102.98 77.031-101.77 75.539-101.77 74.047-101.77 72.84-102.98 72.84-104.469 72.84-105.961 74.047-107.172 75.539-107.172 77.031-107.172 78.238-105.961 78.238-104.469" fill="#bebebe"/>
<path transform="matrix(1,0,0,-1,0,0)" stroke-width=".75" stroke-linecap="round" stroke-linejoin="round" fill="none" stroke="#000000" d="M78.238-104.469C78.238-102.98 77.031-101.77 75.539-101.77 74.047-101.77 72.84-102.98 72.84-104.469 72.84-105.961 74.047-107.172 75.539-107.172 77.031-107.172 78.238-105.961 78.238-104.469"/>
<path transform="matrix(1,0,0,-1,0,0)" d="M78.211-108.211C78.211-106.719 77-105.512 75.512-105.512 74.02-105.512 72.809-106.719 72.809-108.211 72.809-109.699 74.02-110.91 75.512-110.91 77-110.91 78.211-109.699 78.211-108.211" fill="#bebebe"/>
<path transform="matrix(1,0,0,-1,0,0)" stroke-width=".75" stroke-linecap="round" stroke-linejoin="round" fill="none" stroke="#000000" d="M78.211-108.211C78.211-106.719 77-105.512 75.512-105.512 74.02-105.512 72.809-106.719 72.809-108.211 72.809-109.699 74.02-110.91 75.512-110.91 77-110.91 78.211-109.699 78.211-108.211"/>
<path transform="matrix(1,0,0,-1,0,0)" d="M78.18-104.469C78.18-102.98 76.973-101.77 75.48-101.77 73.988-101.77 72.781-102.98 72.781-104.469 72.781-105.961 73.988-107.172 75.48-107.172 76.973-107.172 78.18-105.961 78.18-104.469" fill="#bebebe"/>
<path transform="matrix(1,0,0,-1,0,0)" stroke-width=".75" stroke-linecap="round" stroke-linejoin="round" fill="none" stroke="#000000" d="M78.18-104.469C78.18-102.98 76.973-101.77 75.48-101.77 73.988-101.77 72.781-102.98 72.781-104.469 72.781-105.961 73.988-107.172 75.48-107.172 76.973-107.172 78.18-105.961 78.18-104.469"/>
<path transform="matrix(1,0,0,-1,0,0)" d="M78.148-104.469C78.148-102.98 76.941-101.77 75.449-101.77 73.961-101.77 72.75-102.98 72.75-104.469 72.75-105.961 73.961-107.172 75.449-107.172 76.941-107.172 78.148-105.961 78.148-104.469" fill="#bebebe"/>
<path transform="matrix(1,0,0,-1,0,0)" stroke-width=".75" stroke-linecap="round" stroke-linejoin="round" fill="none" stroke="#000000" d="M78.148-104.469C78.148-102.98 76.941-101.77 75.449-101.77 73.961-101.77 72.75-102.98 72.75-104.469 72.75-105.961 73.961-107.172 75.449-107.172 76.941-107.172 78.148-105.961 78.148-104.469"/>
<path transform="matrix(1,0,0,-1,0,0)" d="M78.129-100.73C78.129-99.238 76.922-98.031 75.43-98.031 73.938-98.031 72.73-99.238 72.73-100.73 72.73-102.223 73.938-103.43 75.43-103.43 76.922-103.43 78.129-102.223 78.129-100.73" fill="#bebebe"/>
<path transform="matrix(1,0,0,-1,0,0)" stroke-width=".75" stroke-linecap="round" stroke-linejoin="round" fill="none" stroke="#000000" d="M78.129-100.73C78.129-99.238 76.922-98.031 75.43-98.031 73.938-98.031 72.73-99.238 72.73-100.73 72.73-102.223 73.938-103.43 75.43-103.43 76.922-103.43 78.129-102.223 78.129-100.73"/>
<path transform="matrix(1,0,0,-1,0,0)" d="M78.109-100.73C78.109-99.238 76.902-98.031 75.41-98.031 73.918-98.031 72.711-99.238 72.711-100.73 72.711-102.223 73.918-103.43 75.41-103.43 76.902-103.43 78.109-102.223 78.109-100.73" fill="#bebebe"/>
<path transform="matrix(1,0,0,-1,0,0)" stroke-width=".75" stroke-linecap="round" stroke-linejoin="round" fill="none" stroke="#000000" d="M78.109-100.73C78.109-99.238 76.902-98.031 75.41-98.031 73.918-98.031 72.711-99.238 72.711-100.73 72.711-102.223 73.918-103.43 75.41-103.43 76.902-103.43 78.109-102.223 78.109-100.73"/>
<path transform="matrix(1,0,0,-1,0,0)" d="M78.09-100.73C78.09-99.238 76.883-98.031 75.391-98.031 73.898-98.031 72.691-99.238 72.691-100.73 72.691-102.223 73.898-103.43 75.391-103.43 76.883-103.43 78.09-102.223 78.09-100.73" fill="#bebebe"/>
<path transform="matrix(1,0,0,-1,0,0)" stroke-width=".75" stroke-linecap="round" stroke-linejoin="round" fill="none" stroke="#000000" d="M78.09-100.73C78.09-99.238 76.883-98.031 75.391-98.031 73.898-98.031 72.691-99.238 72.691-100.73 72.691-102.223 73.898-103.43 75.391-103.43 76.883-103.43 78.09-102.223 78.09-100.73"/>
<path transform="matrix(1,0,0,-1,0,0)" d="M78.07-104.469C78.07-102.98 76.859-101.77 75.371-101.77 73.879-101.77 72.668-102.98 72.668-104.469 72.668-105.961 73.879-107.172 75.371-107.172 76.859-107.172 78.07-105.961 78.07-104.469" fill="#bebebe"/>
<path transform="matrix(1,0,0,-1,0,0)" stroke-width=".75" stroke-linecap="round" stroke-linejoin="round" fill="none" stroke="#000000" d="M78.07-104.469C78.07-102.98 76.859-101.77 75.371-101.77 73.879-101.77 72.668-102.98 72.668-104.469 72.668-105.961 73.879-107.172 75.371-107.172 76.859-107.172 78.07-105.961 78.07-104.469"/>
<path transform="matrix(1,0,0,-1,0,0)" d="M78.059-104.469C78.059-102.98 76.852-101.77 75.359-101.77 73.867-101.77 72.66-102.98 72.66-104.469 72.66-105.961 73.867-107.172 75.359-107.172 76.852-107.172 78.059-105.961 78.059-104.469" fill="#bebebe"/>
<path transform="matrix(1,0,0,-1,0,0)" stroke-width=".75" stroke-linecap="round" stroke-linejoin="round" fill="none" stroke="#000000" d="M78.059-104.469C78.059-102.98 76.852-101.77 75.359-101.77 73.867-101.77 72.66-102.98 72.66-104.469 72.66-105.961 73.867-107.172 75.359-107.172 76.852-107.172 78.059-105.961 78.059-104.469"/>
<path transform="matrix(1,0,0,-1,0,0)" d="M78.039-104.469C78.039-102.98 76.832-101.77 75.34-101.77 73.848-101.77 72.641-102.98 72.641-104.469 72.641-105.961 73.848-107.172 75.34-107.172 76.832-107.172 78.039-105.961 78.039-104.469" fill="#bebebe"/>
<path transform="matrix(1,0,0,-1,0,0)" stroke-width=".75" stroke-linecap="round" stroke-linejoin="round" fill="none" stroke="#000000" d="M78.039-104.469C78.039-102.98 76.832-101.77 75.34-101.77 73.848-101.77 72.641-102.98 72.641-104.469 72.641-105.961 73.848-107.172 75.34-107.172 76.832-107.172 78.039-105.961 78.039-104.469"/>
<path transform="matrix(1,0,0,-1,0,0)" d="M78.031-104.469C78.031-102.98 76.82-101.77 75.332-101.77 73.84-101.77 72.629-102.98 72.629-104.469 72.629-105.961 73.84-107.172 75.332-107.172 76.82-107.172 78.031-105.961 78.031-104.469" fill="#bebebe"/>
<path transform="matrix(1,0,0,-1,0,0)" stroke-width=".75" stroke-linecap="round" stroke-linejoin="round" fill="none" stroke="#000000" d="M78.031-104.469C78.031-102.98 76.82-101.77 75.332-101.77 73.84-101.77 72.629-102.98 72.629-104.469 72.629-105.961 73.84-107.172 75.332-107.172 76.82-107.172 78.031-105.961 78.031-104.469"/>
<path transform="matrix(1,0,0,-1,0,0)" d="M78.02-104.469C78.02-102.98 76.812-101.77 75.32-101.77 73.828-101.77 72.621-102.98 72.621-104.469 72.621-105.961 73.828-107.172 75.32-107.172 76.812-107.172 78.02-105.961 78.02-104.469" fill="#bebebe"/>
<path transform="matrix(1,0,0,-1,0,0)" stroke-width=".75" stroke-linecap="round" stroke-linejoin="round" fill="none" stroke="#000000" d="M78.02-104.469C78.02-102.98 76.812-101.77 75.32-101.77 73.828-101.77 72.621-102.98 72.621-104.469 72.621-105.961 73.828-107.172 75.32-107.172 76.812-107.172 78.02-105.961 78.02-104.469"/>
<path transform="matrix(1,0,0,-1,0,0)" d="M78.012-104.469C78.012-102.98 76.801-101.77 75.309-101.77 73.82-101.77 72.609-102.98 72.609-104.469 72.609-105.961 73.82-107.172 75.309-107.172 76.801-107.172 78.012-105.961 78.012-104.469" fill="#bebebe"/>
<path transform="matrix(1,0,0,-1,0,0)" stroke-width=".75" stroke-linecap="round" stroke-linejoin="round" fill="none" stroke="#000000" d="M78.012-104.469C78.012-102.98 76.801-101.77 75.309-101.77 73.82-101.77 72.609-102.98 72.609-104.469 72.609-105.961 73.82-107.172 75.309-107.172 76.801-107.172 78.012-105.961 78.012-104.469"/>
<path transform="matrix(1,0,0,-1,0,0)" d="M78-104.469C78-102.98 76.789-101.77 75.301-101.77 73.809-101.77 72.602-102.98 72.602-104.469 72.602-105.961 73.809-107.172 75.301-107.172 76.789-107.172 78-105.961 78-104.469" fill="#bebebe"/>
<path transform="matrix(1,0,0,-1,0,0)" stroke-width=".75" stroke-linecap="round" stroke-linejoin="round" fill="none" stroke="#000000" d="M78-104.469C78-102.98 76.789-101.77 75.301-101.77 73.809-101.77 72.602-102.98 72.602-104.469 72.602-105.961 73.809-107.172 75.301-107.172 76.789-107.172 78-105.961 78-104.469"/>
<path transform="matrix(1,0,0,-1,0,0)" d="M77.988-104.469C77.988-102.98 76.781-101.77 75.289-101.77 73.797-101.77 72.59-102.98 72.59-104.469 72.59-105.961 73.797-107.172 75.289-107.172 76.781-107.172 77.988-105.961 77.988-104.469" fill="#bebebe"/>
<path transform="matrix(1,0,0,-1,0,0)" stroke-width=".75" stroke-linecap="round" stroke-linejoin="round" fill="none" stroke="#000000" d="M77.988-104.469C77.988-102.98 76.781-101.77 75.289-101.77 73.797-101.77 72.59-102.98 72.59-104.469 72.59-105.961 73.797-107.172 75.289-107.172 76.781-107.172 77.988-105.961 77.988-104.469"/>
<path transform="matrix(1,0,0,-1,0,0)" d="M77.98-104.469C77.98-102.98 76.77-101.77 75.281-101.77 73.789-101.77 72.582-102.98 72.582-104.469 72.582-105.961 73.789-107.172 75.281-107.172 76.77-107.172 77.98-105.961 77.98-104.469" fill="#bebebe"/>
<path transform="matrix(1,0,0,-1,0,0)" stroke-width=".75" stroke-linecap="round" stroke-linejoin="round" fill="none" stroke="#000000" d="M77.98-104.469C77.98-102.98 76.77-101.77 75.281-101.77 73.789-101.77 72.582-102.98 72.582-104.469 72.582-105.961 73.789-107.172 75.281-107.172 76.77-107.172 77.98-105.961 77.98-104.469"/>
<path transform="matrix(1,0,0,-1,0,0)" d="M77.969-104.469C77.969-102.98 76.762-101.77 75.27-101.77 73.777-101.77 72.57-102.98 72.57-104.469 72.57-105.961 73.777-107.172 75.27-107.172 76.762-107.172 77.969-105.961 77.969-104.469" fill="#bebebe"/>
<path transform="matrix(1,0,0,-1,0,0)" stroke-width=".75" stroke-linecap="round" stroke-linejoin="round" fill="none" stroke="#000000" d="M77.969-104.469C77.969-102.98 76.762-101.77 75.27-101.77 73.777-101.77 72.57-102.98 72.57-104.469 72.57-105.961 73.777-107.172 75.27-107.172 76.762-107.172 77.969-105.961 77.969-104.469"/>
<path transform="matrix(1,0,0,-1,0,0)" d="M77.961-111.961C77.961-110.469 76.75-109.262 75.262-109.262 73.77-109.262 72.559-110.469 72.559-111.961 72.559-113.449 73.77-114.66 75.262-114.66 76.75-114.66 77.961-113.449 77.961-111.961" fill="#bebebe"/>
<path transform="matrix(1,0,0,-1,0,0)" stroke-width=".75" stroke-linecap="round" stroke-linejoin="round" fill="none" stroke="#000000" d="M77.961-111.961C77.961-110.469 76.75-109.262 75.262-109.262 73.77-109.262 72.559-110.469 72.559-111.961 72.559-113.449 73.77-114.66 75.262-114.66 76.75-114.66 77.961-113.449 77.961-111.961"/>
<path transform="matrix(1,0,0,-1,0,0)" d="M77.961-115.699C77.961-114.211 76.75-113 75.262-113 73.77-113 72.559-114.211 72.559-115.699 72.559-117.191 73.77-118.398 75.262-118.398 76.75-118.398 77.961-117.191 77.961-115.699" fill="#bebebe"/>
<path transform="matrix(1,0,0,-1,0,0)" stroke-width=".75" stroke-linecap="round" stroke-linejoin="round" fill="none" stroke="#000000" d="M77.961-115.699C77.961-114.211 76.75-113 75.262-113 73.77-113 72.559-114.211 72.559-115.699 72.559-117.191 73.77-118.398 75.262-118.398 76.75-118.398 77.961-117.191 77.961-115.699"/>
<path transform="matrix(1,0,0,-1,0,0)" d="M77.949-119.449C77.949-117.961 76.742-116.75 75.25-116.75 73.758-116.75 72.551-117.961 72.551-119.449 72.551-120.941 73.758-122.148 75.25-122.148 76.742-122.148 77.949-120.941 77.949-119.449" fill="#bebebe"/>
<path transform="matrix(1,0,0,-1,0,0)" stroke-width=".75" stroke-linecap="round" stroke-linejoin="round" fill="none" stroke="#000000" d="M77.949-119.449C77.949-117.961 76.742-116.75 75.25-116.75 73.758-116.75 72.551-117.961 72.551-119.449 72.551-120.941 73.758-122.148 75.25-122.148 76.742-122.148 77.949-120.941 77.949-119.449"/>
<path transform="matrix(1,0,0,-1,0,0)" d="M77.949-123.191C77.949-121.699 76.742-120.488 75.25-120.488 73.758-120.488 72.551-121.699 72.551-123.191 72.551-124.68 73.758-125.891 75.25-125.891 76.742-125.891 77.949-124.68 77.949-123.191" fill="#bebebe"/>
<path transform="matrix(1,0,0,-1,0,0)" stroke-width=".75" stroke-linecap="round" stroke-linejoin="round" fill="none" stroke="#000000" d="M77.949-123.191C77.949-121.699 76.742-120.488 75.25-120.488 73.758-120.488 72.551-121.699 72.551-123.191 72.551-124.68 73.758-125.891 75.25-125.891 76.742-125.891 77.949-124.68 77.949-123.191"/>
<path transform="matrix(1,0,0,-1,0,0)" d="M77.941-119.449C77.941-117.961 76.73-116.75 75.238-116.75 73.75-116.75 72.539-117.961 72.539-119.449 72.539-120.941 73.75-122.148 75.238-122.148 76.73-122.148 77.941-120.941 77.941-119.449" fill="#bebebe"/>
<path transform="matrix(1,0,0,-1,0,0)" stroke-width=".75" stroke-linecap="round" stroke-linejoin="round" fill="none" stroke="#000000" d="M77.941-119.449C77.941-117.961 76.73-116.75 75.238-116.75 73.75-116.75 72.539-117.961 72.539-119.449 72.539-120.941 73.75-122.148 75.238-122.148 76.73-122.148 77.941-120.941 77.941-119.449"/>
<path transform="matrix(1,0,0,-1,0,0)" d="M77.941-123.191C77.941-121.699 76.73-120.488 75.238-120.488 73.75-120.488 72.539-121.699 72.539-123.191 72.539-124.68 73.75-125.891 75.238-125.891 76.73-125.891 77.941-124.68 77.941-123.191" fill="#bebebe"/>
<path transform="matrix(1,0,0,-1,0,0)" stroke-width=".75" stroke-linecap="round" stroke-linejoin="round" fill="none" stroke="#000000" d="M77.941-123.191C77.941-121.699 76.73-120.488 75.238-120.488 73.75-120.488 72.539-121.699 72.539-123.191 72.539-124.68 73.75-125.891 75.238-125.891 76.73-125.891 77.941-124.68 77.941-123.191"/>
<path transform="matrix(1,0,0,-1,0,0)" d="M77.93-123.191C77.93-121.699 76.723-120.488 75.23-120.488 73.738-120.488 72.531-121.699 72.531-123.191 72.531-124.68 73.738-125.891 75.23-125.891 76.723-125.891 77.93-124.68 77.93-123.191" fill="#bebebe"/>
<path transform="matrix(1,0,0,-1,0,0)" stroke-width=".75" stroke-linecap="round" stroke-linejoin="round" fill="none" stroke="#000000" d="M77.93-123.191C77.93-121.699 76.723-120.488 75.23-120.488 73.738-120.488 72.531-121.699 72.531-123.191 72.531-124.68 73.738-125.891 75.23-125.891 76.723-125.891 77.93-124.68 77.93-123.191"/>
<path transform="matrix(1,0,0,-1,0,0)" stroke-width=".75" stroke-linecap="round" stroke-linejoin="round" fill="none" stroke="#000000" d="M75.191-366.559H464.988"/>
<path transform="matrix(1,0,0,-1,0,0)" stroke-width=".75" stroke-linecap="round" stroke-linejoin="round" fill="none" stroke="#000000" d="M75.191-366.559V-373.762"/>
<path transform="matrix(1,0,0,-1,0,0)" stroke-width=".75" stroke-linecap="round" stroke-linejoin="round" fill="none" stroke="#000000" d="M153.148-366.559V-373.762"/>
<path transform="matrix(1,0,0,-1,0,0)" stroke-width=".75" stroke-linecap="round" stroke-linejoin="round" fill="none" stroke="#000000" d="M231.109-366.559V-373.762"/>
<path transform="matrix(1,0,0,-1,0,0)" stroke-width=".75" stroke-linecap="round" stroke-linejoin="round" fill="none" stroke="#000000" d="M309.07-366.559V-373.762"/>
<path transform="matrix(1,0,0,-1,0,0)" stroke-width=".75" stroke-linecap="round" stroke-linejoin="round" fill="none" stroke="#000000" d="M387.031-366.559V-373.762"/>
<path transform="matrix(1,0,0,-1,0,0)" stroke-width=".75" stroke-linecap="round" stroke-linejoin="round" fill="none" stroke="#000000" d="M464.988-366.559V-373.762"/>
<text xml:space="preserve" transform="matrix(1 0 0 1 0 0)" font-size="12" font-family="NimbusSanL"><tspan y="392.4801" x="63.5141 70.1861 73.522098 80.19409 141.47809 148.15009 151.48609 158.15808 219.43009 226.10208 229.43808 236.11008 297.39424 304.06623 307.40223 314.07423 375.35823 382.0302 385.3662 392.0382 453.3102 459.9822 463.3182 469.9902">0.000.010.020.030.040.05</tspan></text>
<path transform="matrix(1,0,0,-1,0,0)" stroke-width=".75" stroke-linecap="round" stroke-linejoin="round" fill="none" stroke="#000000" d="M59.039-366.559V-67.031"/>
<path transform="matrix(1,0,0,-1,0,0)" stroke-width=".75" stroke-linecap="round" stroke-linejoin="round" fill="none" stroke="#000000" d="M59.039-366.559H51.84"/>
<path transform="matrix(1,0,0,-1,0,0)" stroke-width=".75" stroke-linecap="round" stroke-linejoin="round" fill="none" stroke="#000000" d="M59.039-291.68H51.84"/>
<path transform="matrix(1,0,0,-1,0,0)" stroke-width=".75" stroke-linecap="round" stroke-linejoin="round" fill="none" stroke="#000000" d="M59.039-216.789H51.84"/>
<path transform="matrix(1,0,0,-1,0,0)" stroke-width=".75" stroke-linecap="round" stroke-linejoin="round" fill="none" stroke="#000000" d="M59.039-141.91H51.84"/>
<path transform="matrix(1,0,0,-1,0,0)" stroke-width=".75" stroke-linecap="round" stroke-linejoin="round" fill="none" stroke="#000000" d="M59.039-67.031H51.84"/>
<text xml:space="preserve" transform="matrix(0 -1 1 0 0 0)" font-size="12" font-family="NimbusSanL"><tspan y="41.7602" x="-369.89613 -298.3521 -291.6801 -223.46179 -216.7898 -148.58179 -141.90979 -73.701908 -67.02991">020406080</tspan></text>
<path transform="matrix(1,0,0,-1,0,0)" stroke-width=".75" stroke-linecap="round" stroke-linejoin="round" fill="none" stroke="#000000" d="M59.039-59.539H496.262V-366.559H59.039Z"/>
<text xml:space="preserve" transform="matrix(1 0 0 1 0 0)" font-size="12" font-family="NimbusSanL"><tspan y="421.2801" x="257.977 260.641 267.313 277.309 283.981 290.65299">lambda</tspan></text>
<text xml:space="preserve" transform="matrix(0 -1 1 0 0 0)" font-size="12" font-family="NimbusSanL"><tspan y="12.9602" x="-265.74003 -259.18803 -252.51602 -242.52002 -235.84803 -229.17603 -225.18003 -221.84403 -215.17203 -211.83603 -208.50003 -202.80004 -196.12804 -191.95204 -189.28804 -182.61605 -176.18405 -173.52005 -166.84806">number of variables</tspan></text>
</g>
</g>
</g>
</svg>
