<svg xmlns="http://www.w3.org/2000/svg" xmlns:xlink="http://www.w3.org/1999/xlink" xmlns:inkscape="http://www.inkscape.org/namespaces/inkscape" version="1.1" width="721" height="523" viewBox="0 0 721 523">
<defs>
<clipPath id="clip_0">
<path transform="matrix(1,0,0,-1,0,523)" d="M14.4 14.4H707.04006V509.04H14.4Z"/>
</clipPath>
<clipPath id="clip_1">
<path transform="matrix(1,0,0,-1,0,523)" d="M14.4 14.4H707.04006V509.04H14.4Z"/>
</clipPath>
<clipPath id="clip_2">
<path transform="matrix(1,0,0,-1,0,523)" d="M14.4 14.4H707.04006V509.04H14.4Z"/>
</clipPath>
</defs>
<path transform="matrix(1,0,0,-1,0,523)" d="M0 0H721.44V523.44H0Z" fill="#ffffff"/>
<g clip-path="url(#clip_0)">
</g>
<g clip-path="url(#clip_1)">
<path transform="matrix(1,0,0,-1,0,523)" d="M418.92 190.22C418.92 197.65 425 203.72 432.42 203.72 439.85 203.72 445.92 197.65 445.92 190.22 445.92 182.8 439.85 176.72 432.42 176.72 425 176.72 418.92 182.8 418.92 190.22" fill="#00cd00"/>
<path transform="matrix(1,0,0,-1,0,523)" d="M362.63 279.28C362.63 286.71 368.71 292.78 376.13 292.78 383.56 292.78 389.63 286.71 389.63 279.28 389.63 271.86 383.56 265.78 376.13 265.78 368.71 265.78 362.63 271.86 362.63 279.28" fill="#00cd00"/>
<path transform="matrix(1,0,0,-1,0,523)" d="M252.15 257.92C252.15 265.34 258.23 271.42 265.65 271.42 273.08 271.42 279.15 265.34 279.15 257.92 279.15 250.49 273.08 244.42 265.65 244.42 258.23 244.42 252.15 250.49 252.15 257.92" fill="#00cd00"/>
<path transform="matrix(1,0,0,-1,0,523)" d="M398.23 193.2C398.23 200.63 404.31 206.7 411.73 206.7 419.16 206.7 425.23 200.63 425.23 193.2 425.23 185.78 419.16 179.7 411.73 179.7 404.31 179.7 398.23 185.78 398.23 193.2" fill="#00cd00"/>
<path transform="matrix(1,0,0,-1,0,523)" d="M238.04 288.86C238.04 296.28 244.12 302.36 251.54 302.36 258.97 302.36 265.04 296.28 265.04 288.86 265.04 281.43 258.97 275.36 251.54 275.36 244.12 275.36 238.04 281.43 238.04 288.86" fill="#00cd00"/>
<path transform="matrix(1,0,0,-1,0,523)" d="M332.99 203.46C332.99 210.89 339.06 216.96 346.49 216.96 353.91 216.96 359.99 210.89 359.99 203.46 359.99 196.04 353.91 189.96 346.49 189.96 339.06 189.96 332.99 196.04 332.99 203.46" fill="#00cd00"/>
<path transform="matrix(1,0,0,-1,0,523)" d="M376.68 338.12C376.68 345.55 382.75 351.62 390.18 351.62 397.6 351.62 403.68 345.55 403.68 338.12 403.68 330.7 397.6 324.62 390.18 324.62 382.75 324.62 376.68 330.7 376.68 338.12" fill="#00cd00"/>
<path transform="matrix(1,0,0,-1,0,523)" d="M335.79 280.38C335.79 287.81 341.86 293.88 349.29 293.88 356.71 293.88 362.79 287.81 362.79 280.38 362.79 272.96 356.71 266.88 349.29 266.88 341.86 266.88 335.79 272.96 335.79 280.38" fill="#00cd00"/>
<path transform="matrix(1,0,0,-1,0,523)" d="M340.54 267.15C340.54 274.58 346.61 280.65 354.04 280.65 361.46 280.65 367.54 274.58 367.54 267.15 367.54 259.73 361.46 253.65 354.04 253.65 346.61 253.65 340.54 259.73 340.54 267.15" fill="#00cd00"/>
<path transform="matrix(1,0,0,-1,0,523)" d="M435.34 255.01C435.34 262.43 441.42 268.51 448.84 268.51 456.27 268.51 462.34 262.43 462.34 255.01 462.34 247.58 456.27 241.51 448.84 241.51 441.42 241.51 435.34 247.58 435.34 255.01" fill="#00cd00"/>
<path transform="matrix(1,0,0,-1,0,523)" d="M379.49 277.5C379.49 284.92 385.56 291 392.99 291 400.41 291 406.49 284.92 406.49 277.5 406.49 270.07 400.41 264 392.99 264 385.56 264 379.49 270.07 379.49 277.5" fill="#00cd00"/>
<path transform="matrix(1,0,0,-1,0,523)" d="M328.6 274.38C328.6 281.8 334.68 287.88 342.1 287.88 349.53 287.88 355.6 281.8 355.6 274.38 355.6 266.95 349.53 260.88 342.1 260.88 334.68 260.88 328.6 266.95 328.6 274.38" fill="#00cd00"/>
<path transform="matrix(1,0,0,-1,0,523)" d="M314.89 167.66C314.89 175.08 320.96 181.16 328.39 181.16 335.81 181.16 341.89 175.08 341.89 167.66 341.89 160.23 335.81 154.16 328.39 154.16 320.96 154.16 314.89 160.23 314.89 167.66" fill="#00cd00"/>
<path transform="matrix(1,0,0,-1,0,523)" d="M424.99 241.08C424.99 248.5 431.06 254.58 438.49 254.58 445.91 254.58 451.99 248.5 451.99 241.08 451.99 233.65 445.91 227.58 438.49 227.58 431.06 227.58 424.99 233.65 424.99 241.08" fill="#00cd00"/>
<path transform="matrix(1,0,0,-1,0,523)" d="M243.08 254.5C243.08 261.93 249.16 268 256.58 268 264.01 268 270.08 261.93 270.08 254.5 270.08 247.08 264.01 241 256.58 241 249.16 241 243.08 247.08 243.08 254.5" fill="#00cd00"/>
<path transform="matrix(1,0,0,-1,0,523)" d="M292.55 289.69C292.55 297.12 298.63 303.19 306.05 303.19 313.48 303.19 319.55 297.12 319.55 289.69 319.55 282.27 313.48 276.19 306.05 276.19 298.63 276.19 292.55 282.27 292.55 289.69" fill="#00cd00"/>
<path transform="matrix(1,0,0,-1,0,523)" d="M324.08 265.45C324.08 272.87 330.16 278.95 337.58 278.95 345.01 278.95 351.08 272.87 351.08 265.45 351.08 258.02 345.01 251.95 337.58 251.95 330.16 251.95 324.08 258.02 324.08 265.45" fill="#00cd00"/>
<path transform="matrix(1,0,0,-1,0,523)" d="M355.86 269.44C355.86 276.87 361.93 282.94 369.36 282.94 376.78 282.94 382.86 276.87 382.86 269.44 382.86 262.02 376.78 255.94 369.36 255.94 361.93 255.94 355.86 262.02 355.86 269.44" fill="#00cd00"/>
<path transform="matrix(1,0,0,-1,0,523)" d="M395.97 237.76C395.97 245.19 402.05 251.26 409.47 251.26 416.9 251.26 422.97 245.19 422.97 237.76 422.97 230.34 416.9 224.26 409.47 224.26 402.05 224.26 395.97 230.34 395.97 237.76" fill="#00cd00"/>
<path transform="matrix(1,0,0,-1,0,523)" d="M377.17 186.47C377.17 193.89 383.25 199.97 390.67 199.97 398.1 199.97 404.17 193.89 404.17 186.47 404.17 179.04 398.1 172.97 390.67 172.97 383.25 172.97 377.17 179.04 377.17 186.47" fill="#00cd00"/>
<path transform="matrix(1,0,0,-1,0,523)" d="M407.75 205.41C407.75 212.84 413.82 218.91 421.25 218.91 428.67 218.91 434.75 212.84 434.75 205.41 434.75 197.99 428.67 191.91 421.25 191.91 413.82 191.91 407.75 197.99 407.75 205.41" fill="#00cd00"/>
<path transform="matrix(1,0,0,-1,0,523)" d="M374.03 212.68C374.03 220.11 380.1 226.18 387.53 226.18 394.95 226.18 401.03 220.11 401.03 212.68 401.03 205.26 394.95 199.18 387.53 199.18 380.1 199.18 374.03 205.26 374.03 212.68" fill="#00cd00"/>
<path transform="matrix(1,0,0,-1,0,523)" d="M403.04 318.31C403.04 325.74 409.11 331.81 416.54 331.81 423.96 331.81 430.04 325.74 430.04 318.31 430.04 310.89 423.96 304.81 416.54 304.81 409.11 304.81 403.04 310.89 403.04 318.31" fill="#00cd00"/>
<path transform="matrix(1,0,0,-1,0,523)" d="M418.67 235.34C418.67 242.76 424.75 248.84 432.17 248.84 439.6 248.84 445.67 242.76 445.67 235.34 445.67 227.91 439.6 221.84 432.17 221.84 424.75 221.84 418.67 227.91 418.67 235.34" fill="#00cd00"/>
<path transform="matrix(1,0,0,-1,0,523)" d="M274.19 236.28C274.19 243.7 280.26 249.78 287.69 249.78 295.11 249.78 301.19 243.7 301.19 236.28 301.19 228.85 295.11 222.78 287.69 222.78 280.26 222.78 274.19 228.85 274.19 236.28" fill="#00cd00"/>
<path transform="matrix(1,0,0,-1,0,523)" d="M393.86 327.23C393.86 334.65 399.94 340.73 407.36 340.73 414.79 340.73 420.86 334.65 420.86 327.23 420.86 319.8 414.79 313.73 407.36 313.73 399.94 313.73 393.86 319.8 393.86 327.23" fill="#00cd00"/>
<path transform="matrix(1,0,0,-1,0,523)" d="M440.28 295.37C440.28 302.79 446.36 308.87 453.78 308.87 461.21 308.87 467.28 302.79 467.28 295.37 467.28 287.94 461.21 281.87 453.78 281.87 446.36 281.87 440.28 287.94 440.28 295.37" fill="#00cd00"/>
<path transform="matrix(1,0,0,-1,0,523)" d="M374.18 175.12C374.18 182.54 380.26 188.62 387.68 188.62 395.11 188.62 401.18 182.54 401.18 175.12 401.18 167.69 395.11 161.62 387.68 161.62 380.26 161.62 374.18 167.69 374.18 175.12" fill="#00cd00"/>
<path transform="matrix(1,0,0,-1,0,523)" d="M320.42 318.25C320.42 325.68 326.5 331.75 333.92 331.75 341.35 331.75 347.42 325.68 347.42 318.25 347.42 310.83 341.35 304.75 333.92 304.75 326.5 304.75 320.42 310.83 320.42 318.25" fill="#00cd00"/>
<path transform="matrix(1,0,0,-1,0,523)" d="M346.01 265.4C346.01 272.82 352.09 278.9 359.51 278.9 366.94 278.9 373.01 272.82 373.01 265.4 373.01 257.97 366.94 251.9 359.51 251.9 352.09 251.9 346.01 257.97 346.01 265.4" fill="#00cd00"/>
<path transform="matrix(1,0,0,-1,0,523)" d="M305.57 234.08C305.57 241.51 311.65 247.58 319.07 247.58 326.5 247.58 332.57 241.51 332.57 234.08 332.57 226.66 326.5 220.58 319.07 220.58 311.65 220.58 305.57 226.66 305.57 234.08" fill="#00cd00"/>
<path transform="matrix(1,0,0,-1,0,523)" d="M338.03 267.01C338.03 274.44 344.1 280.51 351.53 280.51 358.95 280.51 365.03 274.44 365.03 267.01 365.03 259.59 358.95 253.51 351.53 253.51 344.1 253.51 338.03 259.59 338.03 267.01" fill="#00cd00"/>
<path transform="matrix(1,0,0,-1,0,523)" d="M335.76 178.97C335.76 186.39 341.83 192.47 349.26 192.47 356.68 192.47 362.76 186.39 362.76 178.97 362.76 171.54 356.68 165.47 349.26 165.47 341.83 165.47 335.76 171.54 335.76 178.97" fill="#00cd00"/>
<path transform="matrix(1,0,0,-1,0,523)" d="M344.23 267.18C344.23 274.61 350.31 280.68 357.73 280.68 365.16 280.68 371.23 274.61 371.23 267.18 371.23 259.76 365.16 253.68 357.73 253.68 350.31 253.68 344.23 259.76 344.23 267.18" fill="#00cd00"/>
<path transform="matrix(1,0,0,-1,0,523)" d="M251.7 262.13C251.7 269.56 257.78 275.63 265.2 275.63 272.63 275.63 278.7 269.56 278.7 262.13 278.7 254.71 272.63 248.63 265.2 248.63 257.78 248.63 251.7 254.71 251.7 262.13" fill="#00cd00"/>
<path transform="matrix(1,0,0,-1,0,523)" d="M253.37 224.44C253.37 231.87 259.45 237.94 266.87 237.94 274.3 237.94 280.37 231.87 280.37 224.44 280.37 217.02 274.3 210.94 266.87 210.94 259.45 210.94 253.37 217.02 253.37 224.44" fill="#00cd00"/>
<path transform="matrix(1,0,0,-1,0,523)" d="M421.79 282.96C421.79 290.39 427.87 296.46 435.29 296.46 442.72 296.46 448.79 290.39 448.79 282.96 448.79 275.54 442.72 269.46 435.29 269.46 427.87 269.46 421.79 275.54 421.79 282.96" fill="#00cd00"/>
<path transform="matrix(1,0,0,-1,0,523)" d="M342.2 287.33C342.2 294.76 348.27 300.83 355.7 300.83 363.12 300.83 369.2 294.76 369.2 287.33 369.2 279.91 363.12 273.83 355.7 273.83 348.27 273.83 342.2 279.91 342.2 287.33" fill="#00cd00"/>
<path transform="matrix(1,0,0,-1,0,523)" d="M355.13 291.14C355.13 298.57 361.21 304.64 368.63 304.64 376.06 304.64 382.13 298.57 382.13 291.14 382.13 283.72 376.06 277.64 368.63 277.64 361.21 277.64 355.13 283.72 355.13 291.14" fill="#00cd00"/>
<path transform="matrix(1,0,0,-1,0,523)" d="M339.19 285.66C339.19 293.09 345.26 299.16 352.69 299.16 360.11 299.16 366.19 293.09 366.19 285.66 366.19 278.24 360.11 272.16 352.69 272.16 345.26 272.16 339.19 278.24 339.19 285.66" fill="#00cd00"/>
<path transform="matrix(1,0,0,-1,0,523)" d="M346.94 258.4C346.94 265.82 353.02 271.9 360.44 271.9 367.87 271.9 373.94 265.82 373.94 258.4 373.94 250.97 367.87 244.9 360.44 244.9 353.02 244.9 346.94 250.97 346.94 258.4" fill="#00cd00"/>
<path transform="matrix(1,0,0,-1,0,523)" d="M339.43 265.57C339.43 273 345.51 279.07 352.93 279.07 360.36 279.07 366.43 273 366.43 265.57 366.43 258.15 360.36 252.07 352.93 252.07 345.51 252.07 339.43 258.15 339.43 265.57" fill="#00cd00"/>
<path transform="matrix(1,0,0,-1,0,523)" d="M363.18 240.03C363.18 247.45 369.26 253.53 376.68 253.53 384.11 253.53 390.18 247.45 390.18 240.03 390.18 232.6 384.11 226.53 376.68 226.53 369.26 226.53 363.18 232.6 363.18 240.03" fill="#00cd00"/>
<path transform="matrix(1,0,0,-1,0,523)" d="M448.67 324.2C448.67 331.63 454.74 337.7 462.17 337.7 469.59 337.7 475.67 331.63 475.67 324.2 475.67 316.78 469.59 310.7 462.17 310.7 454.74 310.7 448.67 316.78 448.67 324.2" fill="#00cd00"/>
<path transform="matrix(1,0,0,-1,0,523)" d="M386.14 290.7C386.14 298.13 392.21 304.2 399.64 304.2 407.06 304.2 413.14 298.13 413.14 290.7 413.14 283.28 407.06 277.2 399.64 277.2 392.21 277.2 386.14 283.28 386.14 290.7" fill="#00cd00"/>
<path transform="matrix(1,0,0,-1,0,523)" d="M319.43 258.37C319.43 265.8 325.5 271.87 332.93 271.87 340.35 271.87 346.43 265.8 346.43 258.37 346.43 250.95 340.35 244.87 332.93 244.87 325.5 244.87 319.43 250.95 319.43 258.37" fill="#00cd00"/>
<path transform="matrix(1,0,0,-1,0,523)" d="M294.77 341.25C294.77 348.68 300.85 354.75 308.27 354.75 315.7 354.75 321.77 348.68 321.77 341.25 321.77 333.83 315.7 327.75 308.27 327.75 300.85 327.75 294.77 333.83 294.77 341.25" fill="#00cd00"/>
<path transform="matrix(1,0,0,-1,0,523)" d="M292.87 224.92C292.87 232.35 298.94 238.42 306.37 238.42 313.79 238.42 319.87 232.35 319.87 224.92 319.87 217.5 313.79 211.42 306.37 211.42 298.94 211.42 292.87 217.5 292.87 224.92" fill="#00cd00"/>
<path transform="matrix(1,0,0,-1,0,523)" d="M313.01 296.49C313.01 303.91 319.08 309.99 326.51 309.99 333.93 309.99 340.01 303.91 340.01 296.49 340.01 289.06 333.93 282.99 326.51 282.99 319.08 282.99 313.01 289.06 313.01 296.49" fill="#00cd00"/>
<path transform="matrix(1,0,0,-1,0,523)" d="M372.36 331.39C372.36 338.82 378.43 344.89 385.86 344.89 393.28 344.89 399.36 338.82 399.36 331.39 399.36 323.97 393.28 317.89 385.86 317.89 378.43 317.89 372.36 323.97 372.36 331.39" fill="#00cd00"/>
<path transform="matrix(1,0,0,-1,0,523)" d="M348.35 423.59C348.35 431.01 354.42 437.09 361.85 437.09 369.27 437.09 375.35 431.01 375.35 423.59 375.35 416.16 369.27 410.09 361.85 410.09 354.42 410.09 348.35 416.16 348.35 423.59" fill="#ff0000"/>
<path transform="matrix(1,0,0,-1,0,523)" d="M381.8 436C381.8 443.43 387.87 449.5 395.3 449.5 402.72 449.5 408.8 443.43 408.8 436 408.8 428.58 402.72 422.5 395.3 422.5 387.87 422.5 381.8 428.58 381.8 436" fill="#ff0000"/>
<path transform="matrix(1,0,0,-1,0,523)" d="M437.2 490.72C437.2 498.14 443.27 504.22 450.7 504.22 458.12 504.22 464.2 498.14 464.2 490.72 464.2 483.29 458.12 477.22 450.7 477.22 443.27 477.22 437.2 483.29 437.2 490.72" fill="#ff0000"/>
<path transform="matrix(1,0,0,-1,0,523)" d="M458.52 445.07C458.52 452.5 464.59 458.57 472.02 458.57 479.44 458.57 485.52 452.5 485.52 445.07 485.52 437.65 479.44 431.57 472.02 431.57 464.59 431.57 458.52 437.65 458.52 445.07" fill="#ff0000"/>
<path transform="matrix(1,0,0,-1,0,523)" d="M502.5 446.52C502.5 453.95 508.58 460.02 516 460.02 523.43 460.02 529.5 453.95 529.5 446.52 529.5 439.1 523.43 433.02 516 433.02 508.58 433.02 502.5 439.1 502.5 446.52" fill="#ff0000"/>
<path transform="matrix(1,0,0,-1,0,523)" d="M494.84 393.48C494.84 400.91 500.92 406.98 508.34 406.98 515.77 406.98 521.84 400.91 521.84 393.48 521.84 386.06 515.77 379.98 508.34 379.98 500.92 379.98 494.84 386.06 494.84 393.48" fill="#ff0000"/>
<path transform="matrix(1,0,0,-1,0,523)" d="M589.33 430.5C589.33 437.93 595.4 444 602.83 444 610.25 444 616.33 437.93 616.33 430.5 616.33 423.08 610.25 417 602.83 417 595.4 417 589.33 423.08 589.33 430.5" fill="#ff0000"/>
<path transform="matrix(1,0,0,-1,0,523)" d="M587.4 390.87C587.4 398.3 593.47 404.37 600.9 404.37 608.32 404.37 614.4 398.3 614.4 390.87 614.4 383.45 608.32 377.37 600.9 377.37 593.47 377.37 587.4 383.45 587.4 390.87" fill="#ff0000"/>
<path transform="matrix(1,0,0,-1,0,523)" d="M605.74 367.7C605.74 375.13 611.82 381.2 619.24 381.2 626.67 381.2 632.74 375.13 632.74 367.7 632.74 360.28 626.67 354.2 619.24 354.2 611.82 354.2 605.74 360.28 605.74 367.7" fill="#ff0000"/>
<path transform="matrix(1,0,0,-1,0,523)" d="M577.29 330.25C577.29 337.68 583.37 343.75 590.79 343.75 598.22 343.75 604.29 337.68 604.29 330.25 604.29 322.83 598.22 316.75 590.79 316.75 583.37 316.75 577.29 322.83 577.29 330.25" fill="#ff0000"/>
<path transform="matrix(1,0,0,-1,0,523)" d="M625.33 318.31C625.33 325.73 631.4 331.81 638.83 331.81 646.25 331.81 652.33 325.73 652.33 318.31 652.33 310.88 646.25 304.81 638.83 304.81 631.4 304.81 625.33 310.88 625.33 318.31" fill="#ff0000"/>
<path transform="matrix(1,0,0,-1,0,523)" d="M561.5 285.09C561.5 292.51 567.57 298.59 575 298.59 582.42 298.59 588.5 292.51 588.5 285.09 588.5 277.66 582.42 271.59 575 271.59 567.57 271.59 561.5 277.66 561.5 285.09" fill="#ff0000"/>
<path transform="matrix(1,0,0,-1,0,523)" d="M614.73 268.99C614.73 276.42 620.8 282.49 628.23 282.49 635.65 282.49 641.73 276.42 641.73 268.99 641.73 261.57 635.65 255.49 628.23 255.49 620.8 255.49 614.73 261.57 614.73 268.99" fill="#ff0000"/>
<path transform="matrix(1,0,0,-1,0,523)" d="M608.69 246.68C608.69 254.1 614.76 260.18 622.19 260.18 629.61 260.18 635.69 254.1 635.69 246.68 635.69 239.25 629.61 233.18 622.19 233.18 614.76 233.18 608.69 239.25 608.69 246.68" fill="#ff0000"/>
<path transform="matrix(1,0,0,-1,0,523)" d="M602.6 225.05C602.6 232.48 608.67 238.55 616.1 238.55 623.52 238.55 629.6 232.48 629.6 225.05 629.6 217.63 623.52 211.55 616.1 211.55 608.67 211.55 602.6 217.63 602.6 225.05" fill="#ff0000"/>
<path transform="matrix(1,0,0,-1,0,523)" d="M667.89 187.8C667.89 195.22 673.96 201.3 681.39 201.3 688.81 201.3 694.89 195.22 694.89 187.8 694.89 180.37 688.81 174.3 681.39 174.3 673.96 174.3 667.89 180.37 667.89 187.8" fill="#ff0000"/>
<path transform="matrix(1,0,0,-1,0,523)" d="M565.8 188.81C565.8 196.23 571.87 202.31 579.3 202.31 586.72 202.31 592.8 196.23 592.8 188.81 592.8 181.38 586.72 175.31 579.3 175.31 571.87 175.31 565.8 181.38 565.8 188.81" fill="#ff0000"/>
<path transform="matrix(1,0,0,-1,0,523)" d="M551.07 171.08C551.07 178.51 557.14 184.58 564.57 184.58 571.99 184.58 578.07 178.51 578.07 171.08 578.07 163.66 571.99 157.58 564.57 157.58 557.14 157.58 551.07 163.66 551.07 171.08" fill="#ff0000"/>
<path transform="matrix(1,0,0,-1,0,523)" d="M535.66 153.36C535.66 160.79 541.74 166.86 549.16 166.86 556.59 166.86 562.66 160.79 562.66 153.36 562.66 145.94 556.59 139.86 549.16 139.86 541.74 139.86 535.66 145.94 535.66 153.36" fill="#ff0000"/>
<path transform="matrix(1,0,0,-1,0,523)" d="M582.69 89.67C582.69 97.1 588.76 103.17 596.19 103.17 603.61 103.17 609.69 97.1 609.69 89.67 609.69 82.25 603.61 76.17 596.19 76.17 588.76 76.17 582.69 82.25 582.69 89.67" fill="#ff0000"/>
<path transform="matrix(1,0,0,-1,0,523)" d="M532.45 87.09C532.45 94.51 538.52 100.59 545.95 100.59 553.37 100.59 559.45 94.51 559.45 87.09 559.45 79.66 553.37 73.59 545.95 73.59 538.52 73.59 532.45 79.66 532.45 87.09" fill="#ff0000"/>
<path transform="matrix(1,0,0,-1,0,523)" d="M519.4 48.2C519.4 55.62 525.47 61.7 532.9 61.7 540.32 61.7 546.4 55.62 546.4 48.2 546.4 40.77 540.32 34.7 532.9 34.7 525.47 34.7 519.4 40.77 519.4 48.2" fill="#ff0000"/>
<path transform="matrix(1,0,0,-1,0,523)" d="M458.59 70.21C458.59 77.64 464.67 83.71 472.09 83.71 479.52 83.71 485.59 77.64 485.59 70.21 485.59 62.79 479.52 56.71 472.09 56.71 464.67 56.71 458.59 62.79 458.59 70.21" fill="#ff0000"/>
<path transform="matrix(1,0,0,-1,0,523)" d="M414.63 83.89C414.63 91.31 420.7 97.39 428.13 97.39 435.55 97.39 441.63 91.31 441.63 83.89 441.63 76.46 435.55 70.39 428.13 70.39 420.7 70.39 414.63 76.46 414.63 83.89" fill="#ff0000"/>
<path transform="matrix(1,0,0,-1,0,523)" d="M378.68 96.03C378.68 103.45 384.76 109.53 392.18 109.53 399.61 109.53 405.68 103.45 405.68 96.03 405.68 88.6 399.61 82.53 392.18 82.53 384.76 82.53 378.68 88.6 378.68 96.03" fill="#ff0000"/>
<path transform="matrix(1,0,0,-1,0,523)" d="M348.35 72.34C348.35 79.77 354.42 85.84 361.85 85.84 369.27 85.84 375.35 79.77 375.35 72.34 375.35 64.92 369.27 58.84 361.85 58.84 354.42 58.84 348.35 64.92 348.35 72.34" fill="#ff0000"/>
<path transform="matrix(1,0,0,-1,0,523)" d="M306.14 32.72C306.14 40.14 312.21 46.22 319.64 46.22 327.06 46.22 333.14 40.14 333.14 32.72 333.14 25.29 327.06 19.22 319.64 19.22 312.21 19.22 306.14 25.29 306.14 32.72" fill="#ff0000"/>
<path transform="matrix(1,0,0,-1,0,523)" d="M286.22 94.78C286.22 102.2 292.3 108.28 299.72 108.28 307.15 108.28 313.22 102.2 313.22 94.78 313.22 87.35 307.15 81.28 299.72 81.28 292.3 81.28 286.22 87.35 286.22 94.78" fill="#ff0000"/>
<path transform="matrix(1,0,0,-1,0,523)" d="M220.28 39.91C220.28 47.33 226.36 53.41 233.78 53.41 241.21 53.41 247.28 47.33 247.28 39.91 247.28 32.48 241.21 26.41 233.78 26.41 226.36 26.41 220.28 32.48 220.28 39.91" fill="#ff0000"/>
<path transform="matrix(1,0,0,-1,0,523)" d="M181.97 53.92C181.97 61.34 188.04 67.42 195.47 67.42 202.89 67.42 208.97 61.34 208.97 53.92 208.97 46.49 202.89 40.42 195.47 40.42 188.04 40.42 181.97 46.49 181.97 53.92" fill="#ff0000"/>
<path transform="matrix(1,0,0,-1,0,523)" d="M204.55 124.43C204.55 131.86 210.62 137.93 218.05 137.93 225.47 137.93 231.55 131.86 231.55 124.43 231.55 117.01 225.47 110.93 218.05 110.93 210.62 110.93 204.55 117.01 204.55 124.43" fill="#ff0000"/>
<path transform="matrix(1,0,0,-1,0,523)" d="M160.29 122.86C160.29 130.29 166.37 136.36 173.79 136.36 181.22 136.36 187.29 130.29 187.29 122.86 187.29 115.44 181.22 109.36 173.79 109.36 166.37 109.36 160.29 115.44 160.29 122.86" fill="#ff0000"/>
<path transform="matrix(1,0,0,-1,0,523)" d="M171.59 159.24C171.59 166.67 177.66 172.74 185.09 172.74 192.51 172.74 198.59 166.67 198.59 159.24 198.59 151.82 192.51 145.74 185.09 145.74 177.66 145.74 171.59 151.82 171.59 159.24" fill="#ff0000"/>
<path transform="matrix(1,0,0,-1,0,523)" d="M153.76 174.56C153.76 181.98 159.84 188.06 167.26 188.06 174.69 188.06 180.76 181.98 180.76 174.56 180.76 167.13 174.69 161.06 167.26 161.06 159.84 161.06 153.76 167.13 153.76 174.56" fill="#ff0000"/>
<path transform="matrix(1,0,0,-1,0,523)" d="M121.67 185.88C121.67 193.31 127.74 199.38 135.17 199.38 142.59 199.38 148.67 193.31 148.67 185.88 148.67 178.46 142.59 172.38 135.17 172.38 127.74 172.38 121.67 178.46 121.67 185.88" fill="#ff0000"/>
<path transform="matrix(1,0,0,-1,0,523)" d="M90.8 201.36C90.8 208.78 96.87 214.86 104.3 214.86 111.72 214.86 117.8 208.78 117.8 201.36 117.8 193.93 111.72 187.86 104.3 187.86 96.87 187.86 90.8 193.93 90.8 201.36" fill="#ff0000"/>
<path transform="matrix(1,0,0,-1,0,523)" d="M108.13 226.85C108.13 234.28 114.21 240.35 121.63 240.35 129.06 240.35 135.13 234.28 135.13 226.85 135.13 219.43 129.06 213.35 121.63 213.35 114.21 213.35 108.13 219.43 108.13 226.85" fill="#ff0000"/>
<path transform="matrix(1,0,0,-1,0,523)" d="M57.66 245.39C57.66 252.82 63.73 258.89 71.16 258.89 78.58 258.89 84.66 252.82 84.66 245.39 84.66 237.97 78.58 231.89 71.16 231.89 63.73 231.89 57.66 237.97 57.66 245.39" fill="#ff0000"/>
<path transform="matrix(1,0,0,-1,0,523)" d="M80.98 269.04C80.98 276.46 87.06 282.54 94.48 282.54 101.91 282.54 107.98 276.46 107.98 269.04 107.98 261.61 101.91 255.54 94.48 255.54 87.06 255.54 80.98 261.61 80.98 269.04" fill="#ff0000"/>
<path transform="matrix(1,0,0,-1,0,523)" d="M26.55 299.04C26.55 306.47 32.63 312.54 40.05 312.54 47.48 312.54 53.55 306.47 53.55 299.04 53.55 291.62 47.48 285.54 40.05 285.54 32.63 285.54 26.55 291.62 26.55 299.04" fill="#ff0000"/>
<path transform="matrix(1,0,0,-1,0,523)" d="M49.82 323.02C49.82 330.45 55.9 336.52 63.32 336.52 70.75 336.52 76.82 330.45 76.82 323.02 76.82 315.6 70.75 309.52 63.32 309.52 55.9 309.52 49.82 315.6 49.82 323.02" fill="#ff0000"/>
<path transform="matrix(1,0,0,-1,0,523)" d="M141.07 323.39C141.07 330.81 147.14 336.89 154.57 336.89 161.99 336.89 168.07 330.81 168.07 323.39 168.07 315.96 161.99 309.89 154.57 309.89 147.14 309.89 141.07 315.96 141.07 323.39" fill="#ff0000"/>
<path transform="matrix(1,0,0,-1,0,523)" d="M59.1 381.31C59.1 388.74 65.17 394.81 72.6 394.81 80.02 394.81 86.1 388.74 86.1 381.31 86.1 373.89 80.02 367.81 72.6 367.81 65.17 367.81 59.1 373.89 59.1 381.31" fill="#ff0000"/>
<path transform="matrix(1,0,0,-1,0,523)" d="M166.1 359.23C166.1 366.66 172.18 372.73 179.6 372.73 187.03 372.73 193.1 366.66 193.1 359.23 193.1 351.81 187.03 345.73 179.6 345.73 172.18 345.73 166.1 351.81 166.1 359.23" fill="#ff0000"/>
<path transform="matrix(1,0,0,-1,0,523)" d="M181.55 377.32C181.55 384.74 187.62 390.82 195.05 390.82 202.47 390.82 208.55 384.74 208.55 377.32 208.55 369.89 202.47 363.82 195.05 363.82 187.62 363.82 181.55 369.89 181.55 377.32" fill="#ff0000"/>
<path transform="matrix(1,0,0,-1,0,523)" d="M214.08 382.15C214.08 389.57 220.15 395.65 227.58 395.65 235 395.65 241.08 389.57 241.08 382.15 241.08 374.72 235 368.65 227.58 368.65 220.15 368.65 214.08 374.72 214.08 382.15" fill="#ff0000"/>
<path transform="matrix(1,0,0,-1,0,523)" d="M193.28 447.64C193.28 455.07 199.35 461.14 206.78 461.14 214.2 461.14 220.28 455.07 220.28 447.64 220.28 440.22 214.2 434.14 206.78 434.14 199.35 434.14 193.28 440.22 193.28 447.64" fill="#ff0000"/>
<path transform="matrix(1,0,0,-1,0,523)" d="M264.58 400.18C264.58 407.6 270.65 413.68 278.08 413.68 285.5 413.68 291.58 407.6 291.58 400.18 291.58 392.75 285.5 386.68 278.08 386.68 270.65 386.68 264.58 392.75 264.58 400.18" fill="#ff0000"/>
<path transform="matrix(1,0,0,-1,0,523)" d="M284.45 425.29C284.45 432.72 290.52 438.79 297.95 438.79 305.37 438.79 311.45 432.72 311.45 425.29 311.45 417.87 305.37 411.79 297.95 411.79 290.52 411.79 284.45 417.87 284.45 425.29" fill="#ff0000"/>
<path transform="matrix(1,0,0,-1,0,523)" d="M318.75 415.5C318.75 422.93 324.82 429 332.25 429 339.67 429 345.75 422.93 345.75 415.5 345.75 408.08 339.67 402 332.25 402 324.82 402 318.75 408.08 318.75 415.5" fill="#ff0000"/>
</g>
<path transform="matrix(1,0,0,-1,0,523)" stroke-width=".75" stroke-linecap="round" stroke-linejoin="round" fill="none" stroke="#000000" d="M14.4 14.4H707.04V509.04H14.4V14.4"/>
<g clip-path="url(#clip_2)">
<path transform="matrix(1,0,0,-1,0,523)" stroke-width=".75" stroke-linecap="round" stroke-linejoin="round" fill="none" stroke="#000000" d="M467.09 21.27V502.17"/>
<path transform="matrix(1,0,0,-1,0,523)" stroke-width=".75" stroke-linecap="round" stroke-linejoin="round" fill="none" stroke="#000000" d="M242.67 21.27V502.17"/>
<path transform="matrix(1,0,0,-1,0,523)" stroke-width=".75" stroke-linecap="round" stroke-linejoin="round" fill="none" stroke="#000000" d="M242.67 370.72H467.09"/>
<path transform="matrix(1,0,0,-1,0,523)" stroke-width=".75" stroke-linecap="round" stroke-linejoin="round" fill="none" stroke="#000000" d="M242.67 131.84H467.09"/>
<text xml:space="preserve" transform="matrix(1 0 -0 1 0 523)" font-size="24" font-family="Helvetica"><tspan y="-253.51" x="126.67">0</tspan></text>
<text xml:space="preserve" transform="matrix(1 0 -0 1 0 523)" font-size="24" font-family="Helvetica"><tspan y="-68.35" x="348.21">0</tspan></text>
<text xml:space="preserve" transform="matrix(1 0 -0 1 0 523)" font-size="24" font-family="Helvetica"><tspan y="-242.84" x="348.21">1</tspan></text>
<text xml:space="preserve" transform="matrix(1 0 -0 1 0 523)" font-size="24" font-family="Helvetica"><tspan y="-428.23" x="348.21">0</tspan></text>
<text xml:space="preserve" transform="matrix(1 0 -0 1 0 523)" font-size="24" font-family="Helvetica"><tspan y="-253.51" x="575.58">0</tspan></text>
</g>
</svg>
