<svg xmlns="http://www.w3.org/2000/svg" xmlns:xlink="http://www.w3.org/1999/xlink" xmlns:inkscape="http://www.inkscape.org/namespaces/inkscape" version="1.1" width="180" height="130" viewBox="0 0 180 130">
<g>
<path transform="matrix(1,0,0,-1,0,130)" stroke-width="2" stroke-linecap="square" stroke-miterlimit="3.25" stroke-linejoin="miter" fill="none" stroke="#ff0000" d="M.25 14.035H41.773L41.883 14.105 41.988 14.109 42.098 14.117 42.207 14.121 42.316 14.129 42.426 14.133 42.531 14.141 42.641 14.148 42.75 14.152 42.969 14.168 43.074 14.172 43.402 14.195 43.512 14.199 43.617 14.207 43.727 14.215 43.836 14.219 43.945 14.227 44.055 14.23 44.16 14.238 44.27 14.242 44.379 14.25 44.707 14.262 44.812 14.266 44.922 14.273 45.25 14.285H45.355L45.793 14.301 45.898 14.305 46.008 14.309H46.117L46.336 14.316 46.441 14.32 46.879 14.336 46.984 14.34 47.312 14.352 47.422 14.359 47.527 14.363 47.746 14.371 47.855 14.379 47.965 14.383 48.07 14.387 48.18 14.391 48.289 14.398 48.508 14.406 48.613 14.41 48.832 14.418 48.941 14.426 49.051 14.43 49.156 14.434 49.594 14.449 49.699 14.453 49.809 14.457 49.918 14.465 50.137 14.473 50.242 14.48 50.352 14.484 50.68 14.508 50.785 14.52 50.895 14.527 51.113 14.551 51.223 14.566 51.328 14.578 51.438 14.594 51.766 14.652 51.871 14.676 51.98 14.699 52.199 14.754 52.309 14.785 52.414 14.816 52.633 14.887 52.852 14.965 52.957 15.008 53.066 15.051 53.285 15.145 53.395 15.195 53.504 15.25 53.609 15.301 53.719 15.359 53.828 15.414 54.047 15.531 54.152 15.594 54.48 15.781 54.59 15.848 54.695 15.91 55.133 16.176 55.238 16.242 55.348 16.305 55.566 16.438 55.676 16.5 55.781 16.566 56.219 16.816 56.324 16.879 56.434 16.938 56.543 17 56.762 17.117 56.867 17.18 57.195 17.355 57.305 17.418 57.41 17.477 57.848 17.727 57.953 17.789 58.062 17.855 58.172 17.926 58.281 17.992 58.391 18.066 58.496 18.137 58.605 18.211 58.715 18.289 58.824 18.371 58.934 18.449 59.039 18.535 59.148 18.621 59.367 18.801 59.477 18.895 59.582 18.992 59.691 19.09 59.91 19.293 60.02 19.398 60.125 19.508 60.234 19.617 60.453 19.844 60.562 19.961 60.668 20.078 60.887 20.32 60.996 20.445 61.105 20.566 61.211 20.695 61.32 20.82 61.539 21.078 61.648 21.211 61.754 21.34 62.082 21.738 62.191 21.875 62.297 22.008 62.734 22.555 62.844 22.695 62.949 22.832 63.277 23.254 63.387 23.398 63.492 23.543 63.711 23.832 63.93 24.129 64.035 24.281 64.145 24.434 64.363 24.746 64.473 24.906 64.578 25.07 64.688 25.234 64.797 25.402 65.016 25.746 65.121 25.926 65.23 26.105 65.34 26.289 65.559 26.672 65.664 26.871 65.773 27.07 65.883 27.277 65.992 27.488 66.102 27.703 66.207 27.926 66.316 28.152 66.426 28.383 66.535 28.617 66.645 28.859 66.75 29.109 66.859 29.359 67.078 29.883 67.188 30.152 67.293 30.43 67.402 30.711 67.512 31 67.621 31.293 67.73 31.59 67.836 31.895 67.945 32.203 68.055 32.52 68.164 32.84 68.273 33.164 68.379 33.492 68.488 33.828 68.598 34.168 68.707 34.512 68.816 34.859 68.922 35.211 69.031 35.566 69.25 36.285 69.359 36.648 69.465 37.016 69.902 38.5 70.008 38.875 70.227 39.625 70.336 40.004 70.445 40.379 70.551 40.754 70.77 41.504 70.879 41.875 70.988 42.25 71.094 42.621 71.203 42.992 71.531 44.094 71.641 44.457 71.746 44.82 72.074 45.898 72.184 46.254 72.289 46.605 72.398 46.957 72.617 47.652 72.727 47.996 72.832 48.34 72.941 48.68 73.16 49.352 73.27 49.684 73.375 50.016 73.484 50.344 73.703 50.992 73.812 51.312 73.918 51.633 74.027 51.953 74.246 52.586 74.355 52.898 74.461 53.215 74.57 53.531 74.68 53.844 74.898 54.477 75.004 54.797 75.223 55.438 75.441 56.094 75.547 56.43 75.656 56.766 75.766 57.105 75.875 57.453 75.984 57.805 76.09 58.16 76.199 58.52 76.309 58.887 76.418 59.258 76.527 59.637 76.633 60.016 76.742 60.402 76.852 60.793 77.07 61.582 77.176 61.984 77.285 62.387 77.613 63.605 77.719 64.012 77.828 64.422 78.047 65.234 78.156 65.637 78.262 66.035 78.371 66.434 78.48 66.828 78.59 67.219 78.699 67.605 78.805 67.988 78.914 68.367 79.023 68.738 79.242 69.473 79.348 69.832 79.566 70.535 79.676 70.883 79.785 71.223 79.891 71.562 80 71.898 80.109 72.23 80.438 73.215 80.543 73.539 80.98 74.836 81.086 75.16 81.305 75.809 81.523 76.465 81.629 76.797 81.957 77.793 82.066 78.129 82.172 78.461 82.5 79.469 82.609 79.801 82.715 80.133 82.824 80.461 82.934 80.785 83.043 81.105 83.152 81.422 83.258 81.73 83.367 82.035 83.477 82.332 83.586 82.621 83.695 82.898 83.801 83.168 83.91 83.426 84.02 83.672 84.129 83.906 84.238 84.125 84.344 84.332 84.453 84.527 84.562 84.707 84.672 84.867 84.781 85.02 84.887 85.152 84.996 85.27 85.105 85.375 85.215 85.465 85.324 85.539 85.43 85.598 85.539 85.648 85.648 85.684 85.758 85.707 85.867 85.723 85.973 85.727H86.082L86.301 85.703 86.41 85.684 86.516 85.664 86.625 85.641 86.844 85.602 86.953 85.586 87.059 85.578 87.168 85.574 87.277 85.578 87.387 85.594 87.496 85.621 87.602 85.66 87.711 85.711 87.82 85.777 87.93 85.855 88.039 85.953 88.145 86.066 88.254 86.195 88.363 86.34 88.473 86.504 88.582 86.684 88.688 86.883 88.797 87.098 88.906 87.328 89.016 87.574 89.125 87.836 89.23 88.113 89.34 88.402 89.449 88.703 89.559 89.016 89.668 89.34 89.777 89.668 89.883 90.004 90.102 90.691 90.32 91.387 90.426 91.73 90.535 92.07 90.645 92.406 90.754 92.734 90.863 93.051 90.969 93.359 91.078 93.652 91.188 93.93 91.297 94.191 91.406 94.434 91.512 94.656 91.621 94.859 91.73 95.035 91.84 95.188 91.949 95.316 92.055 95.414 92.164 95.488 92.273 95.527 92.383 95.543 92.492 95.523 92.598 95.477 92.707 95.395 92.816 95.285 92.926 95.141 93.035 94.969 93.141 94.762 93.25 94.527 93.359 94.266 93.469 93.973 93.578 93.652 93.684 93.309 93.793 92.938 93.902 92.543 94.012 92.125 94.121 91.691 94.227 91.234 94.336 90.762 94.445 90.273 94.555 89.773 94.664 89.262 94.77 88.742 94.879 88.215 95.098 87.145 95.207 86.605 95.312 86.066 95.422 85.527 95.641 84.465 95.75 83.941 95.855 83.426 95.965 82.918 96.074 82.418 96.184 81.934 96.293 81.457 96.398 80.992 96.508 80.539 96.617 80.098 96.727 79.672 96.836 79.258 96.941 78.855 97.051 78.469 97.16 78.094 97.27 77.727 97.379 77.375 97.484 77.035 97.594 76.703 97.703 76.383 97.812 76.07 97.922 75.766 98.027 75.465 98.246 74.887 98.465 74.324 98.574 74.047 98.68 73.77 99.008 72.938 99.117 72.652 99.223 72.367 99.332 72.078 99.441 71.781 99.551 71.48 99.66 71.176 99.766 70.859 99.875 70.539 99.984 70.211 100.094 69.875 100.203 69.531 100.309 69.176 100.418 68.816 100.527 68.449 100.637 68.074 100.746 67.691 100.852 67.305 101.07 66.508 101.18 66.102 101.289 65.688 101.395 65.273 101.504 64.855 101.832 63.59 101.938 63.164 102.156 62.32 102.375 61.484 102.48 61.074 102.59 60.664 102.699 60.258 102.809 59.859 102.918 59.465 103.023 59.074 103.133 58.691 103.242 58.316 103.352 57.945 103.461 57.582 103.566 57.223 103.676 56.867 103.895 56.18 104.004 55.844 104.109 55.512 104.328 54.855 104.547 54.215 104.652 53.895 104.98 52.945 105.09 52.625 105.195 52.305 105.305 51.984 105.414 51.66 105.523 51.332 105.633 51 105.738 50.664 105.848 50.324 105.957 49.98 106.066 49.633 106.176 49.277 106.281 48.922 106.391 48.559 106.5 48.191 106.719 47.441 106.824 47.059 106.934 46.676 107.043 46.289 107.152 45.898 107.371 45.109 107.477 44.715 107.914 43.121 108.02 42.727 108.129 42.328 108.457 41.156 108.562 40.77 108.781 40.012 109 39.262 109.105 38.895 109.215 38.531 109.434 37.82 109.543 37.469 109.648 37.121 109.867 36.441 109.977 36.105 110.086 35.777 110.191 35.449 110.301 35.125 110.629 34.176 110.734 33.867 110.953 33.258 111.062 32.957 111.172 32.66 111.277 32.363 111.387 32.07 111.605 31.492 111.715 31.207 111.82 30.926 111.93 30.645 112.039 30.367 112.148 30.094 112.258 29.824 112.363 29.555 112.473 29.285 112.691 28.762 112.801 28.504 112.906 28.246 113.016 27.992 113.125 27.742 113.344 27.25 113.449 27.008 113.668 26.531 113.777 26.301 113.887 26.066 113.992 25.84 114.102 25.613 114.211 25.395 114.32 25.172 114.43 24.957 114.535 24.742 114.645 24.531 114.863 24.117 114.973 23.918 115.078 23.715 115.188 23.52 115.406 23.137 115.516 22.949 115.621 22.762 115.84 22.402 115.949 22.227 116.059 22.055 116.164 21.887 116.273 21.719 116.383 21.555 116.602 21.242 116.711 21.09 116.816 20.941 117.035 20.652 117.145 20.516 117.254 20.383 117.359 20.254 117.469 20.125 117.688 19.883 117.797 19.77 117.902 19.656 118.121 19.445 118.34 19.25 118.445 19.156 118.555 19.066 118.664 18.98 118.883 18.816 118.988 18.742 119.098 18.668 119.316 18.527 119.426 18.465 119.531 18.398 119.75 18.281 119.969 18.172 120.074 18.121 120.184 18.074 120.293 18.023 120.402 17.98 120.512 17.934 120.617 17.891 120.727 17.852 120.836 17.809 121.055 17.73 121.16 17.695 121.27 17.656 121.598 17.551 121.703 17.516 121.922 17.445 122.031 17.414 122.141 17.379 122.246 17.344 122.684 17.203 122.789 17.164 122.898 17.129 123.227 17.012 123.332 16.973 123.441 16.93 123.551 16.891 123.77 16.805 123.875 16.758 123.984 16.715 124.312 16.574 124.418 16.523 124.527 16.477 124.855 16.324 124.961 16.273 125.07 16.219 125.18 16.168 125.398 16.059 125.508 16.008 125.613 15.953 125.832 15.844 125.941 15.793 126.051 15.738 126.156 15.684 126.266 15.633 126.375 15.578 126.594 15.477 126.699 15.426 126.809 15.375 127.137 15.234 127.242 15.188 127.352 15.141 127.57 15.055 127.68 15.016 127.785 14.977 128.004 14.898 128.223 14.828 128.328 14.797 128.547 14.734 128.766 14.68 128.871 14.652 129.09 14.605 129.199 14.586 129.309 14.562 129.414 14.547 129.523 14.527 129.742 14.496 129.852 14.484 129.957 14.473 130.176 14.449 130.395 14.434 130.5 14.43 130.609 14.422 130.938 14.41H131.043L131.152 14.406H131.371L131.48 14.41H131.695L131.805 14.414H131.914L132.023 14.418 132.129 14.422 132.238 14.426H132.348L132.566 14.434 132.672 14.438H132.781L133 14.445H133.109L133.215 14.449H133.324L133.434 14.453H133.867L133.977 14.449H134.086L134.305 14.441 134.41 14.438 134.629 14.43 134.738 14.422 134.848 14.418 134.953 14.41 135.391 14.379 135.496 14.367 135.605 14.359 135.715 14.348 135.824 14.34 135.934 14.328 136.039 14.316 136.477 14.27 136.582 14.258 136.691 14.25 137.02 14.215 137.125 14.203 137.234 14.195 137.344 14.184 137.453 14.176 137.562 14.164 137.668 14.156 137.777 14.145 138.105 14.121 138.211 14.117 138.32 14.109 138.43 14.035H179.75"/>
<path transform="matrix(1,0,0,-1,0,130)" stroke-width=".5" stroke-linecap="butt" stroke-miterlimit="3.25" stroke-linejoin="miter" fill="none" stroke="#000000" d="M.25 14.035V15.312"/>
<path transform="matrix(1,0,0,-1,0,130)" stroke-width=".5" stroke-linecap="butt" stroke-miterlimit="3.25" stroke-linejoin="miter" fill="none" stroke="#000000" d="M9.227 14.035V15.312"/>
<path transform="matrix(1,0,0,-1,0,130)" stroke-width=".5" stroke-linecap="butt" stroke-miterlimit="3.25" stroke-linejoin="miter" fill="none" stroke="#000000" d="M18.199 14.035V16.16"/>
<text xml:space="preserve" transform="matrix(1 0 -0 1 0 130)" font-size="9" font-family="MathematicaSans"><tspan y="-2.888094" x="9.315723">-</tspan></text>
<text xml:space="preserve" transform="matrix(1 0 -0 1 0 130)" font-size="9" font-family="ArialMT"><tspan y="-2.888094" x="14.562723 19.566723 22.059723">0.4</tspan></text>
<path transform="matrix(1,0,0,-1,0,130)" stroke-width=".5" stroke-linecap="butt" stroke-miterlimit="3.25" stroke-linejoin="miter" fill="none" stroke="#000000" d="M27.176 14.035V15.312"/>
<path transform="matrix(1,0,0,-1,0,130)" stroke-width=".5" stroke-linecap="butt" stroke-miterlimit="3.25" stroke-linejoin="miter" fill="none" stroke="#000000" d="M36.148 14.035V15.312"/>
<path transform="matrix(1,0,0,-1,0,130)" stroke-width=".5" stroke-linecap="butt" stroke-miterlimit="3.25" stroke-linejoin="miter" fill="none" stroke="#000000" d="M45.125 14.035V15.312"/>
<path transform="matrix(1,0,0,-1,0,130)" stroke-width=".5" stroke-linecap="butt" stroke-miterlimit="3.25" stroke-linejoin="miter" fill="none" stroke="#000000" d="M54.102 14.035V16.16"/>
<text xml:space="preserve" transform="matrix(1 0 -0 1 0 130)" font-size="9" font-family="MathematicaSans"><tspan y="-2.888094" x="45.21572">-</tspan></text>
<text xml:space="preserve" transform="matrix(1 0 -0 1 0 130)" font-size="9" font-family="ArialMT"><tspan y="-2.888094" x="50.462724 55.466726 57.959726">0.2</tspan></text>
<path transform="matrix(1,0,0,-1,0,130)" stroke-width=".5" stroke-linecap="butt" stroke-miterlimit="3.25" stroke-linejoin="miter" fill="none" stroke="#000000" d="M63.074 14.035V15.312"/>
<path transform="matrix(1,0,0,-1,0,130)" stroke-width=".5" stroke-linecap="butt" stroke-miterlimit="3.25" stroke-linejoin="miter" fill="none" stroke="#000000" d="M72.051 14.035V15.312"/>
<path transform="matrix(1,0,0,-1,0,130)" stroke-width=".5" stroke-linecap="butt" stroke-miterlimit="3.25" stroke-linejoin="miter" fill="none" stroke="#000000" d="M81.023 14.035V15.312"/>
<path transform="matrix(1,0,0,-1,0,130)" stroke-width=".5" stroke-linecap="butt" stroke-miterlimit="3.25" stroke-linejoin="miter" fill="none" stroke="#000000" d="M90 14.035V16.16"/>
<text xml:space="preserve" transform="matrix(1 0 -0 1 0 130)" font-size="9" font-family="ArialMT"><tspan y="-2.888094" x="83.74365 88.74765 91.24065">0.0</tspan></text>
<path transform="matrix(1,0,0,-1,0,130)" stroke-width=".5" stroke-linecap="butt" stroke-miterlimit="3.25" stroke-linejoin="miter" fill="none" stroke="#000000" d="M98.977 14.035V15.312"/>
<path transform="matrix(1,0,0,-1,0,130)" stroke-width=".5" stroke-linecap="butt" stroke-miterlimit="3.25" stroke-linejoin="miter" fill="none" stroke="#000000" d="M107.949 14.035V15.312"/>
<path transform="matrix(1,0,0,-1,0,130)" stroke-width=".5" stroke-linecap="butt" stroke-miterlimit="3.25" stroke-linejoin="miter" fill="none" stroke="#000000" d="M116.926 14.035V15.312"/>
<path transform="matrix(1,0,0,-1,0,130)" stroke-width=".5" stroke-linecap="butt" stroke-miterlimit="3.25" stroke-linejoin="miter" fill="none" stroke="#000000" d="M125.898 14.035V16.16"/>
<text xml:space="preserve" transform="matrix(1 0 -0 1 0 130)" font-size="9" font-family="ArialMT"><tspan y="-2.888094" x="119.643657 124.64765 127.140659">0.2</tspan></text>
<path transform="matrix(1,0,0,-1,0,130)" stroke-width=".5" stroke-linecap="butt" stroke-miterlimit="3.25" stroke-linejoin="miter" fill="none" stroke="#000000" d="M134.875 14.035V15.312"/>
<path transform="matrix(1,0,0,-1,0,130)" stroke-width=".5" stroke-linecap="butt" stroke-miterlimit="3.25" stroke-linejoin="miter" fill="none" stroke="#000000" d="M143.852 14.035V15.312"/>
<path transform="matrix(1,0,0,-1,0,130)" stroke-width=".5" stroke-linecap="butt" stroke-miterlimit="3.25" stroke-linejoin="miter" fill="none" stroke="#000000" d="M152.824 14.035V15.312"/>
<path transform="matrix(1,0,0,-1,0,130)" stroke-width=".5" stroke-linecap="butt" stroke-miterlimit="3.25" stroke-linejoin="miter" fill="none" stroke="#000000" d="M161.801 14.035V16.16"/>
<text xml:space="preserve" transform="matrix(1 0 -0 1 0 130)" font-size="9" font-family="ArialMT"><tspan y="-2.888094" x="155.54366 160.54766 163.04065">0.4</tspan></text>
<path transform="matrix(1,0,0,-1,0,130)" stroke-width=".5" stroke-linecap="butt" stroke-miterlimit="3.25" stroke-linejoin="miter" fill="none" stroke="#000000" d="M170.773 14.035V15.312"/>
<path transform="matrix(1,0,0,-1,0,130)" stroke-width=".5" stroke-linecap="butt" stroke-miterlimit="3.25" stroke-linejoin="miter" fill="none" stroke="#000000" d="M179.75 14.035V15.312"/>
<path transform="matrix(1,0,0,-1,0,130)" stroke-width=".5" stroke-linecap="butt" stroke-miterlimit="3.25" stroke-linejoin="miter" fill="none" stroke="#000000" d="M.25 14.035H179.75"/>
<path transform="matrix(1,0,0,-1,0,130)" stroke-width=".5" stroke-linecap="butt" stroke-miterlimit="3.25" stroke-linejoin="miter" fill="none" stroke="#000000" d="M90 14.035H92.125"/>
<path transform="matrix(1,0,0,-1,0,130)" stroke-width=".5" stroke-linecap="butt" stroke-miterlimit="3.25" stroke-linejoin="miter" fill="none" stroke="#000000" d="M90 20.969H91.277"/>
<path transform="matrix(1,0,0,-1,0,130)" stroke-width=".5" stroke-linecap="butt" stroke-miterlimit="3.25" stroke-linejoin="miter" fill="none" stroke="#000000" d="M90 27.902H91.277"/>
<path transform="matrix(1,0,0,-1,0,130)" stroke-width=".5" stroke-linecap="butt" stroke-miterlimit="3.25" stroke-linejoin="miter" fill="none" stroke="#000000" d="M90 34.836H91.277"/>
<path transform="matrix(1,0,0,-1,0,130)" stroke-width=".5" stroke-linecap="butt" stroke-miterlimit="3.25" stroke-linejoin="miter" fill="none" stroke="#000000" d="M90 41.77H92.125"/>
<text xml:space="preserve" transform="matrix(1 0 -0 1 0 130)" font-size="9" font-family="ArialMT"><tspan y="-38.64971" x="81.99414">2</tspan></text>
<path transform="matrix(1,0,0,-1,0,130)" stroke-width=".5" stroke-linecap="butt" stroke-miterlimit="3.25" stroke-linejoin="miter" fill="none" stroke="#000000" d="M90 48.703H91.277"/>
<path transform="matrix(1,0,0,-1,0,130)" stroke-width=".5" stroke-linecap="butt" stroke-miterlimit="3.25" stroke-linejoin="miter" fill="none" stroke="#000000" d="M90 55.637H91.277"/>
<path transform="matrix(1,0,0,-1,0,130)" stroke-width=".5" stroke-linecap="butt" stroke-miterlimit="3.25" stroke-linejoin="miter" fill="none" stroke="#000000" d="M90 62.57H91.277"/>
<path transform="matrix(1,0,0,-1,0,130)" stroke-width=".5" stroke-linecap="butt" stroke-miterlimit="3.25" stroke-linejoin="miter" fill="none" stroke="#000000" d="M90 69.504H92.125"/>
<text xml:space="preserve" transform="matrix(1 0 -0 1 0 130)" font-size="9" font-family="ArialMT"><tspan y="-66.38399" x="81.99414">4</tspan></text>
<path transform="matrix(1,0,0,-1,0,130)" stroke-width=".5" stroke-linecap="butt" stroke-miterlimit="3.25" stroke-linejoin="miter" fill="none" stroke="#000000" d="M90 76.438H91.277"/>
<path transform="matrix(1,0,0,-1,0,130)" stroke-width=".5" stroke-linecap="butt" stroke-miterlimit="3.25" stroke-linejoin="miter" fill="none" stroke="#000000" d="M90 83.371H91.277"/>
<path transform="matrix(1,0,0,-1,0,130)" stroke-width=".5" stroke-linecap="butt" stroke-miterlimit="3.25" stroke-linejoin="miter" fill="none" stroke="#000000" d="M90 90.305H91.277"/>
<path transform="matrix(1,0,0,-1,0,130)" stroke-width=".5" stroke-linecap="butt" stroke-miterlimit="3.25" stroke-linejoin="miter" fill="none" stroke="#000000" d="M90 97.238H92.125"/>
<text xml:space="preserve" transform="matrix(1 0 -0 1 0 130)" font-size="9" font-family="ArialMT"><tspan y="-94.11826" x="81.99414">6</tspan></text>
<path transform="matrix(1,0,0,-1,0,130)" stroke-width=".5" stroke-linecap="butt" stroke-miterlimit="3.25" stroke-linejoin="miter" fill="none" stroke="#000000" d="M90 104.172H91.277"/>
<path transform="matrix(1,0,0,-1,0,130)" stroke-width=".5" stroke-linecap="butt" stroke-miterlimit="3.25" stroke-linejoin="miter" fill="none" stroke="#000000" d="M90 111.105H91.277"/>
<path transform="matrix(1,0,0,-1,0,130)" stroke-width=".5" stroke-linecap="butt" stroke-miterlimit="3.25" stroke-linejoin="miter" fill="none" stroke="#000000" d="M90 118.039H91.277"/>
<path transform="matrix(1,0,0,-1,0,130)" stroke-width=".5" stroke-linecap="butt" stroke-miterlimit="3.25" stroke-linejoin="miter" fill="none" stroke="#000000" d="M90 124.973H92.125"/>
<text xml:space="preserve" transform="matrix(1 0 -0 1 0 130)" font-size="9" font-family="ArialMT"><tspan y="-121.85254" x="81.99414">8</tspan></text>
<path transform="matrix(1,0,0,-1,0,130)" stroke-width=".5" stroke-linecap="butt" stroke-miterlimit="3.25" stroke-linejoin="miter" fill="none" stroke="#000000" d="M90 14.035V124.973"/>
</g>
</svg>
