<svg xmlns="http://www.w3.org/2000/svg" xmlns:xlink="http://www.w3.org/1999/xlink" xmlns:inkscape="http://www.inkscape.org/namespaces/inkscape" version="1.1" width="360" height="294" viewBox="0 0 360 294">
<g>
<path transform="matrix(1,0,0,-1,0,294)" stroke-width="1" stroke-linecap="square" stroke-miterlimit="3.25" stroke-linejoin="miter" fill="none" stroke="#000000" d="M7.289 138.113 333.211 203.297"/>
<path transform="matrix(1,0,0,-1,0,294)" stroke-width="1" stroke-linecap="square" stroke-miterlimit="3.25" stroke-linejoin="miter" fill="none" stroke="#000000" d="M72.473 268.48 333.211 7.746"/>
<path transform="matrix(1,0,0,-1,0,294)" stroke-width="1" stroke-linecap="square" stroke-miterlimit="3.25" stroke-linejoin="miter" fill="none" stroke="#000000" d="M72.473 7.746 333.211 268.48"/>
<path transform="matrix(1,0,0,-1,0,294)" d="M265.363 260.953H311.363V251.953H265.363Z" fill="#ffffff"/>
<path transform="matrix(1,0,0,-1,0,294)" stroke-width=".03" stroke-linecap="square" stroke-miterlimit="10" stroke-linejoin="miter" fill="none" stroke="#ffffff" d="M265.363 260.953H311.363V251.953H265.363Z"/>
<text xml:space="preserve" transform="matrix(1 0 -0 1 0 294)" font-size="10" font-family="Arial" font-style="italic"><tspan y="-253.95313" x="265.36329">w</tspan></text>
<text xml:space="preserve" transform="matrix(1 0 -0 1 0 294)" font-size="9" font-family="ArialMT"><tspan y="-251.95313" x="272.36329">3</tspan></text>
<text xml:space="preserve" transform="matrix(1 0 -0 1 0 294)" font-size="10" font-family="Arial" font-style="italic"><tspan y="-253.95313" x="280.36329">x</tspan></text>
<text xml:space="preserve" transform="matrix(1 0 -0 1 0 294)" font-size="10" font-family="MathematicaSans"><tspan y="-253.95313" x="289.36329">+</tspan></text>
<text xml:space="preserve" transform="matrix(1 0 -0 1 0 294)" font-size="10" font-family="Arial" font-style="italic"><tspan y="-253.95313" x="299.35328">b</tspan></text>
<text xml:space="preserve" transform="matrix(1 0 -0 1 0 294)" font-size="9" font-family="ArialMT"><tspan y="-251.95313" x="305.36329">3</tspan></text>
<path transform="matrix(1,0,0,-1,0,294)" d="M100.645 253.754H146.64499V244.754H100.645Z" fill="#ffffff"/>
<path transform="matrix(1,0,0,-1,0,294)" stroke-width=".03" stroke-linecap="square" stroke-miterlimit="10" stroke-linejoin="miter" fill="none" stroke="#ffffff" d="M100.645 253.754H146.64499V244.754H100.645Z"/>
<text xml:space="preserve" transform="matrix(1 0 -0 1 0 294)" font-size="10" font-family="Arial" font-style="italic"><tspan y="-246.7539" x="100.64453">w</tspan></text>
<text xml:space="preserve" transform="matrix(1 0 -0 1 0 294)" font-size="9" font-family="ArialMT"><tspan y="-244.7539" x="107.64453">1</tspan></text>
<text xml:space="preserve" transform="matrix(1 0 -0 1 0 294)" font-size="10" font-family="Arial" font-style="italic"><tspan y="-246.7539" x="115.64453">x</tspan></text>
<text xml:space="preserve" transform="matrix(1 0 -0 1 0 294)" font-size="10" font-family="MathematicaSans"><tspan y="-246.7539" x="124.64453">+</tspan></text>
<text xml:space="preserve" transform="matrix(1 0 -0 1 0 294)" font-size="10" font-family="Arial" font-style="italic"><tspan y="-246.7539" x="134.63454">b</tspan></text>
<text xml:space="preserve" transform="matrix(1 0 -0 1 0 294)" font-size="9" font-family="ArialMT"><tspan y="-244.7539" x="140.64453">1</tspan></text>
<path transform="matrix(1,0,0,-1,0,294)" d="M61.152 177.211H107.152V168.211H61.152Z" fill="#ffffff"/>
<path transform="matrix(1,0,0,-1,0,294)" stroke-width=".03" stroke-linecap="square" stroke-miterlimit="10" stroke-linejoin="miter" fill="none" stroke="#ffffff" d="M61.152 177.211H107.152V168.211H61.152Z"/>
<text xml:space="preserve" transform="matrix(1 0 -0 1 0 294)" font-size="10" font-family="Arial" font-style="italic"><tspan y="-170.21094" x="61.152345">w</tspan></text>
<text xml:space="preserve" transform="matrix(1 0 -0 1 0 294)" font-size="9" font-family="ArialMT"><tspan y="-168.21094" x="68.15234">2</tspan></text>
<text xml:space="preserve" transform="matrix(1 0 -0 1 0 294)" font-size="10" font-family="Arial" font-style="italic"><tspan y="-170.21094" x="76.15234">x</tspan></text>
<text xml:space="preserve" transform="matrix(1 0 -0 1 0 294)" font-size="10" font-family="MathematicaSans"><tspan y="-170.21094" x="85.15234">+</tspan></text>
<text xml:space="preserve" transform="matrix(1 0 -0 1 0 294)" font-size="10" font-family="Arial" font-style="italic"><tspan y="-170.21094" x="95.14235">b</tspan></text>
<text xml:space="preserve" transform="matrix(1 0 -0 1 0 294)" font-size="9" font-family="ArialMT"><tspan y="-168.21094" x="101.15234">2</tspan></text>
<path transform="matrix(1,0,0,-1,0,294)" d="M66.41 211.258H73.41V198.258H66.41Z" fill="#ffffff"/>
<path transform="matrix(1,0,0,-1,0,294)" stroke-width=".03" stroke-linecap="square" stroke-miterlimit="10" stroke-linejoin="miter" fill="none" stroke="#ffffff" d="M66.41 211.258H73.41V198.258H66.41Z"/>
<text xml:space="preserve" transform="matrix(1 0 -0 1 0 294)" font-size="10" font-family="ArialMT"><tspan y="-201.25782" x="66.41016">1</tspan></text>
<path transform="matrix(1,0,0,-1,0,294)" d="M168.414 229.328H175.414V216.328H168.414Z" fill="#ffffff"/>
<path transform="matrix(1,0,0,-1,0,294)" stroke-width=".03" stroke-linecap="square" stroke-miterlimit="10" stroke-linejoin="miter" fill="none" stroke="#ffffff" d="M168.414 229.328H175.414V216.328H168.414Z"/>
<text xml:space="preserve" transform="matrix(1 0 -0 1 0 294)" font-size="10" font-family="ArialMT"><tspan y="-219.32813" x="168.41407">2</tspan></text>
<path transform="matrix(1,0,0,-1,0,294)" d="M321 227.301H328V214.301H321Z" fill="#ffffff"/>
<path transform="matrix(1,0,0,-1,0,294)" stroke-width=".03" stroke-linecap="square" stroke-miterlimit="10" stroke-linejoin="miter" fill="none" stroke="#ffffff" d="M321 227.301H328V214.301H321Z"/>
<text xml:space="preserve" transform="matrix(1 0 -0 1 0 294)" font-size="10" font-family="ArialMT"><tspan y="-217.30078" x="321">3</tspan></text>
<path transform="matrix(1,0,0,-1,0,294)" d="M279.172 173.664H286.172V160.664H279.172Z" fill="#ffffff"/>
<path transform="matrix(1,0,0,-1,0,294)" stroke-width=".03" stroke-linecap="square" stroke-miterlimit="10" stroke-linejoin="miter" fill="none" stroke="#ffffff" d="M279.172 173.664H286.172V160.664H279.172Z"/>
<text xml:space="preserve" transform="matrix(1 0 -0 1 0 294)" font-size="10" font-family="ArialMT"><tspan y="-163.66407" x="279.17189">4</tspan></text>
<path transform="matrix(1,0,0,-1,0,294)" d="M241.734 49.961H248.734V36.961H241.734Z" fill="#ffffff"/>
<path transform="matrix(1,0,0,-1,0,294)" stroke-width=".03" stroke-linecap="square" stroke-miterlimit="10" stroke-linejoin="miter" fill="none" stroke="#ffffff" d="M241.734 49.961H248.734V36.961H241.734Z"/>
<text xml:space="preserve" transform="matrix(1 0 -0 1 0 294)" font-size="10" font-family="ArialMT"><tspan y="-39.960939" x="241.73438">5</tspan></text>
<path transform="matrix(1,0,0,-1,0,294)" d="M94.102 92.551H101.102V79.551H94.102Z" fill="#ffffff"/>
<path transform="matrix(1,0,0,-1,0,294)" stroke-width=".03" stroke-linecap="square" stroke-miterlimit="10" stroke-linejoin="miter" fill="none" stroke="#ffffff" d="M94.102 92.551H101.102V79.551H94.102Z"/>
<text xml:space="preserve" transform="matrix(1 0 -0 1 0 294)" font-size="10" font-family="ArialMT"><tspan y="-82.55078" x="94.10156">5</tspan></text>
<path transform="matrix(1,0,0,-1,0,294)" d="M211.703 172.773H218.703V159.773H211.703Z" fill="#ffffff"/>
<path transform="matrix(1,0,0,-1,0,294)" stroke-width=".03" stroke-linecap="square" stroke-miterlimit="10" stroke-linejoin="miter" fill="none" stroke="#ffffff" d="M211.703 172.773H218.703V159.773H211.703Z"/>
<text xml:space="preserve" transform="matrix(1 0 -0 1 0 294)" font-size="10" font-family="ArialMT"><tspan y="-162.77344" x="211.70313">7</tspan></text>
<path transform="matrix(1,0,0,-1,0,294)" stroke-width="1" stroke-linecap="butt" stroke-miterlimit="3.25" stroke-linejoin="miter" fill="none" stroke="#666666" d="M7.289 138.113V142.113"/>
<text xml:space="preserve" transform="matrix(1 0 -0 1 0 294)" font-size="10" font-family="MathematicaSans"><tspan y="-126.1136" x="1.29">-</tspan></text>
<text xml:space="preserve" transform="matrix(1 0 -0 1 0 294)" font-size="10" font-family="ArialMT"><tspan y="-126.1136" x="7.2799999">3</tspan></text>
<path transform="matrix(1,0,0,-1,0,294)" stroke-width="1" stroke-linecap="butt" stroke-miterlimit="3.25" stroke-linejoin="miter" fill="none" stroke="#666666" d="M20.328 138.113V140.512"/>
<path transform="matrix(1,0,0,-1,0,294)" stroke-width="1" stroke-linecap="butt" stroke-miterlimit="3.25" stroke-linejoin="miter" fill="none" stroke="#666666" d="M33.363 138.113V140.512"/>
<path transform="matrix(1,0,0,-1,0,294)" stroke-width="1" stroke-linecap="butt" stroke-miterlimit="3.25" stroke-linejoin="miter" fill="none" stroke="#666666" d="M46.402 138.113V140.512"/>
<path transform="matrix(1,0,0,-1,0,294)" stroke-width="1" stroke-linecap="butt" stroke-miterlimit="3.25" stroke-linejoin="miter" fill="none" stroke="#666666" d="M59.438 138.113V140.512"/>
<path transform="matrix(1,0,0,-1,0,294)" stroke-width="1" stroke-linecap="butt" stroke-miterlimit="3.25" stroke-linejoin="miter" fill="none" stroke="#666666" d="M72.473 138.113V142.113"/>
<text xml:space="preserve" transform="matrix(1 0 -0 1 0 294)" font-size="10" font-family="MathematicaSans"><tspan y="-126.1136" x="66.474">-</tspan></text>
<text xml:space="preserve" transform="matrix(1 0 -0 1 0 294)" font-size="10" font-family="ArialMT"><tspan y="-126.1136" x="72.464008">2</tspan></text>
<path transform="matrix(1,0,0,-1,0,294)" stroke-width="1" stroke-linecap="butt" stroke-miterlimit="3.25" stroke-linejoin="miter" fill="none" stroke="#666666" d="M85.512 138.113V140.512"/>
<path transform="matrix(1,0,0,-1,0,294)" stroke-width="1" stroke-linecap="butt" stroke-miterlimit="3.25" stroke-linejoin="miter" fill="none" stroke="#666666" d="M98.547 138.113V140.512"/>
<path transform="matrix(1,0,0,-1,0,294)" stroke-width="1" stroke-linecap="butt" stroke-miterlimit="3.25" stroke-linejoin="miter" fill="none" stroke="#666666" d="M111.586 138.113V140.512"/>
<path transform="matrix(1,0,0,-1,0,294)" stroke-width="1" stroke-linecap="butt" stroke-miterlimit="3.25" stroke-linejoin="miter" fill="none" stroke="#666666" d="M124.621 138.113V140.512"/>
<path transform="matrix(1,0,0,-1,0,294)" stroke-width="1" stroke-linecap="butt" stroke-miterlimit="3.25" stroke-linejoin="miter" fill="none" stroke="#666666" d="M137.656 138.113V142.113"/>
<text xml:space="preserve" transform="matrix(1 0 -0 1 0 294)" font-size="10" font-family="MathematicaSans"><tspan y="-126.1136" x="131.658">-</tspan></text>
<text xml:space="preserve" transform="matrix(1 0 -0 1 0 294)" font-size="10" font-family="ArialMT"><tspan y="-126.1136" x="137.64801">1</tspan></text>
<path transform="matrix(1,0,0,-1,0,294)" stroke-width="1" stroke-linecap="butt" stroke-miterlimit="3.25" stroke-linejoin="miter" fill="none" stroke="#666666" d="M150.695 138.113V140.512"/>
<path transform="matrix(1,0,0,-1,0,294)" stroke-width="1" stroke-linecap="butt" stroke-miterlimit="3.25" stroke-linejoin="miter" fill="none" stroke="#666666" d="M163.73 138.113V140.512"/>
<path transform="matrix(1,0,0,-1,0,294)" stroke-width="1" stroke-linecap="butt" stroke-miterlimit="3.25" stroke-linejoin="miter" fill="none" stroke="#666666" d="M176.77 138.113V140.512"/>
<path transform="matrix(1,0,0,-1,0,294)" stroke-width="1" stroke-linecap="butt" stroke-miterlimit="3.25" stroke-linejoin="miter" fill="none" stroke="#666666" d="M189.805 138.113V140.512"/>
<path transform="matrix(1,0,0,-1,0,294)" stroke-width="1" stroke-linecap="butt" stroke-miterlimit="3.25" stroke-linejoin="miter" fill="none" stroke="#666666" d="M202.844 138.113V142.113"/>
<path transform="matrix(1,0,0,-1,0,294)" stroke-width="1" stroke-linecap="butt" stroke-miterlimit="3.25" stroke-linejoin="miter" fill="none" stroke="#666666" d="M215.879 138.113V140.512"/>
<path transform="matrix(1,0,0,-1,0,294)" stroke-width="1" stroke-linecap="butt" stroke-miterlimit="3.25" stroke-linejoin="miter" fill="none" stroke="#666666" d="M228.914 138.113V140.512"/>
<path transform="matrix(1,0,0,-1,0,294)" stroke-width="1" stroke-linecap="butt" stroke-miterlimit="3.25" stroke-linejoin="miter" fill="none" stroke="#666666" d="M241.953 138.113V140.512"/>
<path transform="matrix(1,0,0,-1,0,294)" stroke-width="1" stroke-linecap="butt" stroke-miterlimit="3.25" stroke-linejoin="miter" fill="none" stroke="#666666" d="M254.988 138.113V140.512"/>
<path transform="matrix(1,0,0,-1,0,294)" stroke-width="1" stroke-linecap="butt" stroke-miterlimit="3.25" stroke-linejoin="miter" fill="none" stroke="#666666" d="M268.027 138.113V142.113"/>
<text xml:space="preserve" transform="matrix(1 0 -0 1 0 294)" font-size="10" font-family="ArialMT"><tspan y="-126.1136" x="265.026">1</tspan></text>
<path transform="matrix(1,0,0,-1,0,294)" stroke-width="1" stroke-linecap="butt" stroke-miterlimit="3.25" stroke-linejoin="miter" fill="none" stroke="#666666" d="M281.062 138.113V140.512"/>
<path transform="matrix(1,0,0,-1,0,294)" stroke-width="1" stroke-linecap="butt" stroke-miterlimit="3.25" stroke-linejoin="miter" fill="none" stroke="#666666" d="M294.098 138.113V140.512"/>
<path transform="matrix(1,0,0,-1,0,294)" stroke-width="1" stroke-linecap="butt" stroke-miterlimit="3.25" stroke-linejoin="miter" fill="none" stroke="#666666" d="M307.137 138.113V140.512"/>
<path transform="matrix(1,0,0,-1,0,294)" stroke-width="1" stroke-linecap="butt" stroke-miterlimit="3.25" stroke-linejoin="miter" fill="none" stroke="#666666" d="M320.172 138.113V140.512"/>
<path transform="matrix(1,0,0,-1,0,294)" stroke-width="1" stroke-linecap="butt" stroke-miterlimit="3.25" stroke-linejoin="miter" fill="none" stroke="#666666" d="M333.211 138.113V142.113"/>
<text xml:space="preserve" transform="matrix(1 0 -0 1 0 294)" font-size="10" font-family="ArialMT"><tspan y="-126.1136" x="330.21">2</tspan></text>
<path transform="matrix(1,0,0,-1,0,294)" stroke-width="1" stroke-linecap="butt" stroke-miterlimit="3.25" stroke-linejoin="miter" fill="none" stroke="#000000" d="M.5 138.113H340"/>
<text xml:space="preserve" transform="matrix(1 0 -0 1 0 294)" font-size="10" font-family="ArialMT"><tspan y="-135.6136" x="348 353">x1</tspan></text>
<path transform="matrix(1,0,0,-1,0,294)" stroke-width="1" stroke-linecap="butt" stroke-miterlimit="3.25" stroke-linejoin="miter" fill="none" stroke="#666666" d="M202.844 7.746H206.844"/>
<text xml:space="preserve" transform="matrix(1 0 -0 1 0 294)" font-size="10" font-family="MathematicaSans"><tspan y="-5.2456" x="187.842">-</tspan></text>
<text xml:space="preserve" transform="matrix(1 0 -0 1 0 294)" font-size="10" font-family="ArialMT"><tspan y="-5.2456" x="193.832">2</tspan></text>
<path transform="matrix(1,0,0,-1,0,294)" stroke-width="1" stroke-linecap="butt" stroke-miterlimit="3.25" stroke-linejoin="miter" fill="none" stroke="#666666" d="M202.844 20.781H205.242"/>
<path transform="matrix(1,0,0,-1,0,294)" stroke-width="1" stroke-linecap="butt" stroke-miterlimit="3.25" stroke-linejoin="miter" fill="none" stroke="#666666" d="M202.844 33.82H205.242"/>
<path transform="matrix(1,0,0,-1,0,294)" stroke-width="1" stroke-linecap="butt" stroke-miterlimit="3.25" stroke-linejoin="miter" fill="none" stroke="#666666" d="M202.844 46.855H205.242"/>
<path transform="matrix(1,0,0,-1,0,294)" stroke-width="1" stroke-linecap="butt" stroke-miterlimit="3.25" stroke-linejoin="miter" fill="none" stroke="#666666" d="M202.844 59.895H205.242"/>
<path transform="matrix(1,0,0,-1,0,294)" stroke-width="1" stroke-linecap="butt" stroke-miterlimit="3.25" stroke-linejoin="miter" fill="none" stroke="#666666" d="M202.844 72.93H206.844"/>
<text xml:space="preserve" transform="matrix(1 0 -0 1 0 294)" font-size="10" font-family="MathematicaSans"><tspan y="-70.4296" x="187.842">-</tspan></text>
<text xml:space="preserve" transform="matrix(1 0 -0 1 0 294)" font-size="10" font-family="ArialMT"><tspan y="-70.4296" x="193.832">1</tspan></text>
<path transform="matrix(1,0,0,-1,0,294)" stroke-width="1" stroke-linecap="butt" stroke-miterlimit="3.25" stroke-linejoin="miter" fill="none" stroke="#666666" d="M202.844 85.965H205.242"/>
<path transform="matrix(1,0,0,-1,0,294)" stroke-width="1" stroke-linecap="butt" stroke-miterlimit="3.25" stroke-linejoin="miter" fill="none" stroke="#666666" d="M202.844 99.004H205.242"/>
<path transform="matrix(1,0,0,-1,0,294)" stroke-width="1" stroke-linecap="butt" stroke-miterlimit="3.25" stroke-linejoin="miter" fill="none" stroke="#666666" d="M202.844 112.039H205.242"/>
<path transform="matrix(1,0,0,-1,0,294)" stroke-width="1" stroke-linecap="butt" stroke-miterlimit="3.25" stroke-linejoin="miter" fill="none" stroke="#666666" d="M202.844 125.078H205.242"/>
<path transform="matrix(1,0,0,-1,0,294)" stroke-width="1" stroke-linecap="butt" stroke-miterlimit="3.25" stroke-linejoin="miter" fill="none" stroke="#666666" d="M202.844 138.113H206.844"/>
<path transform="matrix(1,0,0,-1,0,294)" stroke-width="1" stroke-linecap="butt" stroke-miterlimit="3.25" stroke-linejoin="miter" fill="none" stroke="#666666" d="M202.844 151.152H205.242"/>
<path transform="matrix(1,0,0,-1,0,294)" stroke-width="1" stroke-linecap="butt" stroke-miterlimit="3.25" stroke-linejoin="miter" fill="none" stroke="#666666" d="M202.844 164.188H205.242"/>
<path transform="matrix(1,0,0,-1,0,294)" stroke-width="1" stroke-linecap="butt" stroke-miterlimit="3.25" stroke-linejoin="miter" fill="none" stroke="#666666" d="M202.844 177.223H205.242"/>
<path transform="matrix(1,0,0,-1,0,294)" stroke-width="1" stroke-linecap="butt" stroke-miterlimit="3.25" stroke-linejoin="miter" fill="none" stroke="#666666" d="M202.844 190.262H205.242"/>
<path transform="matrix(1,0,0,-1,0,294)" stroke-width="1" stroke-linecap="butt" stroke-miterlimit="3.25" stroke-linejoin="miter" fill="none" stroke="#666666" d="M202.844 203.297H206.844"/>
<text xml:space="preserve" transform="matrix(1 0 -0 1 0 294)" font-size="10" font-family="ArialMT"><tspan y="-200.7976" x="193.842">1</tspan></text>
<path transform="matrix(1,0,0,-1,0,294)" stroke-width="1" stroke-linecap="butt" stroke-miterlimit="3.25" stroke-linejoin="miter" fill="none" stroke="#666666" d="M202.844 216.336H205.242"/>
<path transform="matrix(1,0,0,-1,0,294)" stroke-width="1" stroke-linecap="butt" stroke-miterlimit="3.25" stroke-linejoin="miter" fill="none" stroke="#666666" d="M202.844 229.371H205.242"/>
<path transform="matrix(1,0,0,-1,0,294)" stroke-width="1" stroke-linecap="butt" stroke-miterlimit="3.25" stroke-linejoin="miter" fill="none" stroke="#666666" d="M202.844 242.406H205.242"/>
<path transform="matrix(1,0,0,-1,0,294)" stroke-width="1" stroke-linecap="butt" stroke-miterlimit="3.25" stroke-linejoin="miter" fill="none" stroke="#666666" d="M202.844 255.445H205.242"/>
<path transform="matrix(1,0,0,-1,0,294)" stroke-width="1" stroke-linecap="butt" stroke-miterlimit="3.25" stroke-linejoin="miter" fill="none" stroke="#666666" d="M202.844 268.48H206.844"/>
<text xml:space="preserve" transform="matrix(1 0 -0 1 0 294)" font-size="10" font-family="ArialMT"><tspan y="-265.9816" x="193.842">2</tspan></text>
<path transform="matrix(1,0,0,-1,0,294)" stroke-width="1" stroke-linecap="butt" stroke-miterlimit="3.25" stroke-linejoin="miter" fill="none" stroke="#000000" d="M202.844 1.227V275"/>
<text xml:space="preserve" transform="matrix(1 0 -0 1 0 294)" font-size="10" font-family="ArialMT"><tspan y="-285" x="197.342 202.342">x2</tspan></text>
</g>
</svg>
