<svg xmlns="http://www.w3.org/2000/svg" xmlns:xlink="http://www.w3.org/1999/xlink" version="1.1" width="721pt" height="523pt" viewBox="0 0 721 523">
<defs>
<clipPath id="clip_0">
<path transform="matrix(1,0,0,-1,0,523)" d="M14.4 14.4H707.04006V509.04H14.4Z"/>
</clipPath>
<clipPath id="clip_1">
<path transform="matrix(1,0,0,-1,0,523)" d="M14.4 14.4H707.04006V509.04H14.4Z"/>
</clipPath>
<clipPath id="clip_2">
<path transform="matrix(1,0,0,-1,0,523)" d="M14.4 14.4H707.04006V509.04H14.4Z"/>
</clipPath>
</defs>
<path transform="matrix(1,0,0,-1,0,523)" d="M0 0H721.44V523.44H0Z" fill="#ffffff"/>
<g clip-path="url(#clip_0)">
</g>
<g clip-path="url(#clip_1)">
<path transform="matrix(1,0,0,-1,0,523)" d="M345.79 257.72C345.79 265.15 351.86 271.22 359.29 271.22 366.71 271.22 372.79 265.15 372.79 257.72 372.79 250.3 366.71 244.22 359.29 244.22 351.86 244.22 345.79 250.3 345.79 257.72" fill="#00cd00"/>
<path transform="matrix(1,0,0,-1,0,523)" d="M347.6 257.48C347.6 264.91 353.67 270.98 361.1 270.98 368.52 270.98 374.6 264.91 374.6 257.48 374.6 250.06 368.52 243.98 361.1 243.98 353.67 243.98 347.6 250.06 347.6 257.48" fill="#00cd00"/>
<path transform="matrix(1,0,0,-1,0,523)" d="M353.55 257.9C353.55 265.32 359.63 271.4 367.05 271.4 374.48 271.4 380.55 265.32 380.55 257.9 380.55 250.47 374.48 244.4 367.05 244.4 359.63 244.4 353.55 250.47 353.55 257.9" fill="#00cd00"/>
<path transform="matrix(1,0,0,-1,0,523)" d="M362.42 259.66C362.42 267.09 368.49 273.16 375.92 273.16 383.34 273.16 389.42 267.09 389.42 259.66 389.42 252.24 383.34 246.16 375.92 246.16 368.49 246.16 362.42 252.24 362.42 259.66" fill="#00cd00"/>
<path transform="matrix(1,0,0,-1,0,523)" d="M362.34 259.96C362.34 267.38 368.42 273.46 375.84 273.46 383.27 273.46 389.34 267.38 389.34 259.96 389.34 252.53 383.27 246.46 375.84 246.46 368.42 246.46 362.34 252.53 362.34 259.96" fill="#00cd00"/>
<path transform="matrix(1,0,0,-1,0,523)" d="M372.36 263.15C372.36 270.57 378.44 276.65 385.86 276.65 393.29 276.65 399.36 270.57 399.36 263.15 399.36 255.72 393.29 249.65 385.86 249.65 378.44 249.65 372.36 255.72 372.36 263.15" fill="#00cd00"/>
<path transform="matrix(1,0,0,-1,0,523)" d="M365.25 262.23C365.25 269.66 371.32 275.73 378.75 275.73 386.17 275.73 392.25 269.66 392.25 262.23 392.25 254.81 386.17 248.73 378.75 248.73 371.32 248.73 365.25 254.81 365.25 262.23" fill="#00cd00"/>
<path transform="matrix(1,0,0,-1,0,523)" d="M373.89 267.88C373.89 275.31 379.96 281.38 387.39 281.38 394.81 281.38 400.89 275.31 400.89 267.88 400.89 260.46 394.81 254.38 387.39 254.38 379.96 254.38 373.89 260.46 373.89 267.88" fill="#00cd00"/>
<path transform="matrix(1,0,0,-1,0,523)" d="M380.23 269.49C380.23 276.91 386.3 282.99 393.73 282.99 401.15 282.99 407.23 276.91 407.23 269.49 407.23 262.06 401.15 255.99 393.73 255.99 386.3 255.99 380.23 262.06 380.23 269.49" fill="#00cd00"/>
<path transform="matrix(1,0,0,-1,0,523)" d="M379.88 275C379.88 282.43 385.96 288.5 393.38 288.5 400.81 288.5 406.88 282.43 406.88 275 406.88 267.58 400.81 261.5 393.38 261.5 385.96 261.5 379.88 267.58 379.88 275" fill="#00cd00"/>
<path transform="matrix(1,0,0,-1,0,523)" d="M375.44 276.07C375.44 283.5 381.52 289.57 388.94 289.57 396.37 289.57 402.44 283.5 402.44 276.07 402.44 268.65 396.37 262.57 388.94 262.57 381.52 262.57 375.44 268.65 375.44 276.07" fill="#00cd00"/>
<path transform="matrix(1,0,0,-1,0,523)" d="M376.35 273.65C376.35 281.08 382.43 287.15 389.85 287.15 397.28 287.15 403.35 281.08 403.35 273.65 403.35 266.23 397.28 260.15 389.85 260.15 382.43 260.15 376.35 266.23 376.35 273.65" fill="#00cd00"/>
<path transform="matrix(1,0,0,-1,0,523)" d="M374.01 275.71C374.01 283.13 380.08 289.21 387.51 289.21 394.93 289.21 401.01 283.13 401.01 275.71 401.01 268.28 394.93 262.21 387.51 262.21 380.08 262.21 374.01 268.28 374.01 275.71" fill="#00cd00"/>
<path transform="matrix(1,0,0,-1,0,523)" d="M372.83 282.21C372.83 289.64 378.91 295.71 386.33 295.71 393.76 295.71 399.83 289.64 399.83 282.21 399.83 274.79 393.76 268.71 386.33 268.71 378.91 268.71 372.83 274.79 372.83 282.21" fill="#00cd00"/>
<path transform="matrix(1,0,0,-1,0,523)" d="M372.52 286.94C372.52 294.37 378.59 300.44 386.02 300.44 393.44 300.44 399.52 294.37 399.52 286.94 399.52 279.52 393.44 273.44 386.02 273.44 378.59 273.44 372.52 279.52 372.52 286.94" fill="#00cd00"/>
<path transform="matrix(1,0,0,-1,0,523)" d="M376.05 287.16C376.05 294.59 382.13 300.66 389.55 300.66 396.98 300.66 403.05 294.59 403.05 287.16 403.05 279.74 396.98 273.66 389.55 273.66 382.13 273.66 376.05 279.74 376.05 287.16" fill="#00cd00"/>
<path transform="matrix(1,0,0,-1,0,523)" d="M375.89 295.36C375.89 302.79 381.96 308.86 389.39 308.86 396.81 308.86 402.89 302.79 402.89 295.36 402.89 287.94 396.81 281.86 389.39 281.86 381.96 281.86 375.89 287.94 375.89 295.36" fill="#00cd00"/>
<path transform="matrix(1,0,0,-1,0,523)" d="M369.2 297.05C369.2 304.48 375.28 310.55 382.7 310.55 390.13 310.55 396.2 304.48 396.2 297.05 396.2 289.63 390.13 283.55 382.7 283.55 375.28 283.55 369.2 289.63 369.2 297.05" fill="#00cd00"/>
<path transform="matrix(1,0,0,-1,0,523)" d="M362.84 297.63C362.84 305.05 368.92 311.13 376.34 311.13 383.77 311.13 389.84 305.05 389.84 297.63 389.84 290.2 383.77 284.13 376.34 284.13 368.92 284.13 362.84 290.2 362.84 297.63" fill="#00cd00"/>
<path transform="matrix(1,0,0,-1,0,523)" d="M351.74 304.61C351.74 312.03 357.81 318.11 365.24 318.11 372.66 318.11 378.74 312.03 378.74 304.61 378.74 297.18 372.66 291.11 365.24 291.11 357.81 291.11 351.74 297.18 351.74 304.61" fill="#00cd00"/>
<path transform="matrix(1,0,0,-1,0,523)" d="M347.91 304.89C347.91 312.31 353.99 318.39 361.41 318.39 368.84 318.39 374.91 312.31 374.91 304.89 374.91 297.46 368.84 291.39 361.41 291.39 353.99 291.39 347.91 297.46 347.91 304.89" fill="#00cd00"/>
<path transform="matrix(1,0,0,-1,0,523)" d="M347.01 303.59C347.01 311.01 353.09 317.09 360.51 317.09 367.94 317.09 374.01 311.01 374.01 303.59 374.01 296.16 367.94 290.09 360.51 290.09 353.09 290.09 347.01 296.16 347.01 303.59" fill="#00cd00"/>
<path transform="matrix(1,0,0,-1,0,523)" d="M335.02 311.52C335.02 318.94 341.09 325.02 348.52 325.02 355.94 325.02 362.02 318.94 362.02 311.52 362.02 304.09 355.94 298.02 348.52 298.02 341.09 298.02 335.02 304.09 335.02 311.52" fill="#00cd00"/>
<path transform="matrix(1,0,0,-1,0,523)" d="M329.02 306.41C329.02 313.83 335.1 319.91 342.52 319.91 349.95 319.91 356.02 313.83 356.02 306.41 356.02 298.98 349.95 292.91 342.52 292.91 335.1 292.91 329.02 298.98 329.02 306.41" fill="#00cd00"/>
<path transform="matrix(1,0,0,-1,0,523)" d="M323.18 313.75C323.18 321.17 329.25 327.25 336.68 327.25 344.1 327.25 350.18 321.17 350.18 313.75 350.18 306.32 344.1 300.25 336.68 300.25 329.25 300.25 323.18 306.32 323.18 313.75" fill="#00cd00"/>
<path transform="matrix(1,0,0,-1,0,523)" d="M307.1 305.06C307.1 312.48 313.18 318.56 320.6 318.56 328.03 318.56 334.1 312.48 334.1 305.06 334.1 297.63 328.03 291.56 320.6 291.56 313.18 291.56 307.1 297.63 307.1 305.06" fill="#00cd00"/>
<path transform="matrix(1,0,0,-1,0,523)" d="M302.62 309.41C302.62 316.84 308.69 322.91 316.12 322.91 323.54 322.91 329.62 316.84 329.62 309.41 329.62 301.99 323.54 295.91 316.12 295.91 308.69 295.91 302.62 301.99 302.62 309.41" fill="#00cd00"/>
<path transform="matrix(1,0,0,-1,0,523)" d="M302.84 312.79C302.84 320.21 308.91 326.29 316.34 326.29 323.76 326.29 329.84 320.21 329.84 312.79 329.84 305.36 323.76 299.29 316.34 299.29 308.91 299.29 302.84 305.36 302.84 312.79" fill="#00cd00"/>
<path transform="matrix(1,0,0,-1,0,523)" d="M288.77 306.7C288.77 314.13 294.85 320.2 302.27 320.2 309.7 320.2 315.77 314.13 315.77 306.7 315.77 299.28 309.7 293.2 302.27 293.2 294.85 293.2 288.77 299.28 288.77 306.7" fill="#00cd00"/>
<path transform="matrix(1,0,0,-1,0,523)" d="M274.78 305.23C274.78 312.65 280.86 318.73 288.28 318.73 295.71 318.73 301.78 312.65 301.78 305.23 301.78 297.8 295.71 291.73 288.28 291.73 280.86 291.73 274.78 297.8 274.78 305.23" fill="#00cd00"/>
<path transform="matrix(1,0,0,-1,0,523)" d="M273.5 310.15C273.5 317.57 279.58 323.65 287 323.65 294.43 323.65 300.5 317.57 300.5 310.15 300.5 302.72 294.43 296.65 287 296.65 279.58 296.65 273.5 302.72 273.5 310.15" fill="#00cd00"/>
<path transform="matrix(1,0,0,-1,0,523)" d="M262.31 302.67C262.31 310.09 268.39 316.17 275.81 316.17 283.24 316.17 289.31 310.09 289.31 302.67 289.31 295.24 283.24 289.17 275.81 289.17 268.39 289.17 262.31 295.24 262.31 302.67" fill="#00cd00"/>
<path transform="matrix(1,0,0,-1,0,523)" d="M242.93 296.2C242.93 303.62 249 309.7 256.43 309.7 263.85 309.7 269.93 303.62 269.93 296.2 269.93 288.77 263.85 282.7 256.43 282.7 249 282.7 242.93 288.77 242.93 296.2" fill="#00cd00"/>
<path transform="matrix(1,0,0,-1,0,523)" d="M247.03 302.96C247.03 310.38 253.11 316.46 260.53 316.46 267.96 316.46 274.03 310.38 274.03 302.96 274.03 295.53 267.96 289.46 260.53 289.46 253.11 289.46 247.03 295.53 247.03 302.96" fill="#00cd00"/>
<path transform="matrix(1,0,0,-1,0,523)" d="M226.23 290.82C226.23 298.25 232.3 304.32 239.73 304.32 247.15 304.32 253.23 298.25 253.23 290.82 253.23 283.4 247.15 277.32 239.73 277.32 232.3 277.32 226.23 283.4 226.23 290.82" fill="#00cd00"/>
<path transform="matrix(1,0,0,-1,0,523)" d="M223.03 294.95C223.03 302.37 229.1 308.45 236.53 308.45 243.95 308.45 250.03 302.37 250.03 294.95 250.03 287.52 243.95 281.45 236.53 281.45 229.1 281.45 223.03 287.52 223.03 294.95" fill="#00cd00"/>
<path transform="matrix(1,0,0,-1,0,523)" d="M210.38 285.68C210.38 293.1 216.45 299.18 223.88 299.18 231.3 299.18 237.38 293.1 237.38 285.68 237.38 278.25 231.3 272.18 223.88 272.18 216.45 272.18 210.38 278.25 210.38 285.68" fill="#00cd00"/>
<path transform="matrix(1,0,0,-1,0,523)" d="M213.4 281.9C213.4 289.32 219.47 295.4 226.9 295.4 234.32 295.4 240.4 289.32 240.4 281.9 240.4 274.47 234.32 268.4 226.9 268.4 219.47 268.4 213.4 274.47 213.4 281.9" fill="#00cd00"/>
<path transform="matrix(1,0,0,-1,0,523)" d="M205.21 274.76C205.21 282.19 211.28 288.26 218.71 288.26 226.13 288.26 232.21 282.19 232.21 274.76 232.21 267.34 226.13 261.26 218.71 261.26 211.28 261.26 205.21 267.34 205.21 274.76" fill="#00cd00"/>
<path transform="matrix(1,0,0,-1,0,523)" d="M191.02 269.41C191.02 276.83 197.1 282.91 204.52 282.91 211.95 282.91 218.02 276.83 218.02 269.41 218.02 261.98 211.95 255.91 204.52 255.91 197.1 255.91 191.02 261.98 191.02 269.41" fill="#00cd00"/>
<path transform="matrix(1,0,0,-1,0,523)" d="M188.23 251.31C188.23 258.74 194.31 264.81 201.73 264.81 209.16 264.81 215.23 258.74 215.23 251.31 215.23 243.89 209.16 237.81 201.73 237.81 194.31 237.81 188.23 243.89 188.23 251.31" fill="#00cd00"/>
<path transform="matrix(1,0,0,-1,0,523)" d="M193.17 251.59C193.17 259.01 199.24 265.09 206.67 265.09 214.09 265.09 220.17 259.01 220.17 251.59 220.17 244.16 214.09 238.09 206.67 238.09 199.24 238.09 193.17 244.16 193.17 251.59" fill="#00cd00"/>
<path transform="matrix(1,0,0,-1,0,523)" d="M188.39 237.88C188.39 245.3 194.47 251.38 201.89 251.38 209.32 251.38 215.39 245.3 215.39 237.88 215.39 230.45 209.32 224.38 201.89 224.38 194.47 224.38 188.39 230.45 188.39 237.88" fill="#00cd00"/>
<path transform="matrix(1,0,0,-1,0,523)" d="M188.23 230.69C188.23 238.11 194.3 244.19 201.73 244.19 209.15 244.19 215.23 238.11 215.23 230.69 215.23 223.26 209.15 217.19 201.73 217.19 194.3 217.19 188.23 223.26 188.23 230.69" fill="#00cd00"/>
<path transform="matrix(1,0,0,-1,0,523)" d="M188.23 236.11C188.23 243.53 194.3 249.61 201.73 249.61 209.15 249.61 215.23 243.53 215.23 236.11 215.23 228.68 209.15 222.61 201.73 222.61 194.3 222.61 188.23 228.68 188.23 236.11" fill="#00cd00"/>
<path transform="matrix(1,0,0,-1,0,523)" d="M197.93 214.04C197.93 221.46 204 227.54 211.43 227.54 218.85 227.54 224.93 221.46 224.93 214.04 224.93 206.61 218.85 200.54 211.43 200.54 204 200.54 197.93 206.61 197.93 214.04" fill="#00cd00"/>
<path transform="matrix(1,0,0,-1,0,523)" d="M184.94 218.79C184.94 226.21 191.02 232.29 198.44 232.29 205.87 232.29 211.94 226.21 211.94 218.79 211.94 211.36 205.87 205.29 198.44 205.29 191.02 205.29 184.94 211.36 184.94 218.79" fill="#00cd00"/>
<path transform="matrix(1,0,0,-1,0,523)" d="M197.53 203.54C197.53 210.96 203.6 217.04 211.03 217.04 218.45 217.04 224.53 210.96 224.53 203.54 224.53 196.11 218.45 190.04 211.03 190.04 203.6 190.04 197.53 196.11 197.53 203.54" fill="#00cd00"/>
<path transform="matrix(1,0,0,-1,0,523)" d="M198.1 196.82C198.1 204.25 204.18 210.32 211.6 210.32 219.03 210.32 225.1 204.25 225.1 196.82 225.1 189.4 219.03 183.32 211.6 183.32 204.18 183.32 198.1 189.4 198.1 196.82" fill="#00cd00"/>
<path transform="matrix(1,0,0,-1,0,523)" d="M204.99 186.51C204.99 193.94 211.07 200.01 218.49 200.01 225.92 200.01 231.99 193.94 231.99 186.51 231.99 179.09 225.92 173.01 218.49 173.01 211.07 173.01 204.99 179.09 204.99 186.51" fill="#00cd00"/>
<path transform="matrix(1,0,0,-1,0,523)" d="M199.84 184.19C199.84 191.61 205.91 197.69 213.34 197.69 220.76 197.69 226.84 191.61 226.84 184.19 226.84 176.76 220.76 170.69 213.34 170.69 205.91 170.69 199.84 176.76 199.84 184.19" fill="#00cd00"/>
<path transform="matrix(1,0,0,-1,0,523)" d="M210.66 177.32C210.66 184.74 216.74 190.82 224.16 190.82 231.59 190.82 237.66 184.74 237.66 177.32 237.66 169.89 231.59 163.82 224.16 163.82 216.74 163.82 210.66 169.89 210.66 177.32" fill="#00cd00"/>
<path transform="matrix(1,0,0,-1,0,523)" d="M247.85 157.16C247.85 164.59 253.92 170.66 261.35 170.66 268.77 170.66 274.85 164.59 274.85 157.16 274.85 149.74 268.77 143.66 261.35 143.66 253.92 143.66 247.85 149.74 247.85 157.16" fill="#00cd00"/>
<path transform="matrix(1,0,0,-1,0,523)" d="M252.91 149.34C252.91 156.77 258.98 162.84 266.41 162.84 273.83 162.84 279.91 156.77 279.91 149.34 279.91 141.92 273.83 135.84 266.41 135.84 258.98 135.84 252.91 141.92 252.91 149.34" fill="#00cd00"/>
<path transform="matrix(1,0,0,-1,0,523)" d="M259.31 144.58C259.31 152.01 265.39 158.08 272.81 158.08 280.24 158.08 286.31 152.01 286.31 144.58 286.31 137.16 280.24 131.08 272.81 131.08 265.39 131.08 259.31 137.16 259.31 144.58" fill="#00cd00"/>
<path transform="matrix(1,0,0,-1,0,523)" d="M260.43 138.88C260.43 146.3 266.5 152.38 273.93 152.38 281.35 152.38 287.43 146.3 287.43 138.88 287.43 131.45 281.35 125.38 273.93 125.38 266.5 125.38 260.43 131.45 260.43 138.88" fill="#00cd00"/>
<path transform="matrix(1,0,0,-1,0,523)" d="M291.46 129.15C291.46 136.58 297.53 142.65 304.96 142.65 312.38 142.65 318.46 136.58 318.46 129.15 318.46 121.73 312.38 115.65 304.96 115.65 297.53 115.65 291.46 121.73 291.46 129.15" fill="#00cd00"/>
<path transform="matrix(1,0,0,-1,0,523)" d="M317.12 125.57C317.12 133 323.19 139.07 330.62 139.07 338.04 139.07 344.12 133 344.12 125.57 344.12 118.15 338.04 112.07 330.62 112.07 323.19 112.07 317.12 118.15 317.12 125.57" fill="#00cd00"/>
<path transform="matrix(1,0,0,-1,0,523)" d="M297.78 122.09C297.78 129.51 303.86 135.59 311.28 135.59 318.71 135.59 324.78 129.51 324.78 122.09 324.78 114.66 318.71 108.59 311.28 108.59 303.86 108.59 297.78 114.66 297.78 122.09" fill="#00cd00"/>
<path transform="matrix(1,0,0,-1,0,523)" d="M321.89 120.81C321.89 128.23 327.97 134.31 335.39 134.31 342.82 134.31 348.89 128.23 348.89 120.81 348.89 113.38 342.82 107.31 335.39 107.31 327.97 107.31 321.89 113.38 321.89 120.81" fill="#00cd00"/>
<path transform="matrix(1,0,0,-1,0,523)" d="M351.81 115.17C351.81 122.59 357.88 128.67 365.31 128.67 372.73 128.67 378.81 122.59 378.81 115.17 378.81 107.74 372.73 101.67 365.31 101.67 357.88 101.67 351.81 107.74 351.81 115.17" fill="#00cd00"/>
<path transform="matrix(1,0,0,-1,0,523)" d="M391.16 114.15C391.16 121.57 397.24 127.65 404.66 127.65 412.09 127.65 418.16 121.57 418.16 114.15 418.16 106.72 412.09 100.65 404.66 100.65 397.24 100.65 391.16 106.72 391.16 114.15" fill="#00cd00"/>
<path transform="matrix(1,0,0,-1,0,523)" d="M378.26 111.56C378.26 118.99 384.33 125.06 391.76 125.06 399.18 125.06 405.26 118.99 405.26 111.56 405.26 104.14 399.18 98.06 391.76 98.06 384.33 98.06 378.26 104.14 378.26 111.56" fill="#00cd00"/>
<path transform="matrix(1,0,0,-1,0,523)" d="M403.27 112.26C403.27 119.68 409.34 125.76 416.77 125.76 424.19 125.76 430.27 119.68 430.27 112.26 430.27 104.83 424.19 98.76 416.77 98.76 409.34 98.76 403.27 104.83 403.27 112.26" fill="#00cd00"/>
<path transform="matrix(1,0,0,-1,0,523)" d="M430.72 115.9C430.72 123.32 436.79 129.4 444.22 129.4 451.64 129.4 457.72 123.32 457.72 115.9 457.72 108.47 451.64 102.4 444.22 102.4 436.79 102.4 430.72 108.47 430.72 115.9" fill="#00cd00"/>
<path transform="matrix(1,0,0,-1,0,523)" d="M429.79 112.81C429.79 120.23 435.87 126.31 443.29 126.31 450.72 126.31 456.79 120.23 456.79 112.81 456.79 105.38 450.72 99.31 443.29 99.31 435.87 99.31 429.79 105.38 429.79 112.81" fill="#00cd00"/>
<path transform="matrix(1,0,0,-1,0,523)" d="M477.59 125.35C477.59 132.78 483.67 138.85 491.09 138.85 498.52 138.85 504.59 132.78 504.59 125.35 504.59 117.93 498.52 111.85 491.09 111.85 483.67 111.85 477.59 117.93 477.59 125.35" fill="#00cd00"/>
<path transform="matrix(1,0,0,-1,0,523)" d="M465.32 120.24C465.32 127.66 471.39 133.74 478.82 133.74 486.24 133.74 492.32 127.66 492.32 120.24 492.32 112.81 486.24 106.74 478.82 106.74 471.39 106.74 465.32 112.81 465.32 120.24" fill="#00cd00"/>
<path transform="matrix(1,0,0,-1,0,523)" d="M494.74 124.8C494.74 132.22 500.82 138.3 508.24 138.3 515.67 138.3 521.74 132.22 521.74 124.8 521.74 117.37 515.67 111.3 508.24 111.3 500.82 111.3 494.74 117.37 494.74 124.8" fill="#00cd00"/>
<path transform="matrix(1,0,0,-1,0,523)" d="M528.43 141.88C528.43 149.3 534.51 155.38 541.93 155.38 549.36 155.38 555.43 149.3 555.43 141.88 555.43 134.45 549.36 128.38 541.93 128.38 534.51 128.38 528.43 134.45 528.43 141.88" fill="#00cd00"/>
<path transform="matrix(1,0,0,-1,0,523)" d="M537.82 137.94C537.82 145.36 543.89 151.44 551.32 151.44 558.74 151.44 564.82 145.36 564.82 137.94 564.82 130.51 558.74 124.44 551.32 124.44 543.89 124.44 537.82 130.51 537.82 137.94" fill="#00cd00"/>
<path transform="matrix(1,0,0,-1,0,523)" d="M582.41 160.67C582.41 168.1 588.49 174.17 595.91 174.17 603.34 174.17 609.41 168.1 609.41 160.67 609.41 153.25 603.34 147.17 595.91 147.17 588.49 147.17 582.41 153.25 582.41 160.67" fill="#00cd00"/>
<path transform="matrix(1,0,0,-1,0,523)" d="M581.73 167.28C581.73 174.7 587.8 180.78 595.23 180.78 602.65 180.78 608.73 174.7 608.73 167.28 608.73 159.85 602.65 153.78 595.23 153.78 587.8 153.78 581.73 159.85 581.73 167.28" fill="#00cd00"/>
<path transform="matrix(1,0,0,-1,0,523)" d="M590.59 167.21C590.59 174.64 596.66 180.71 604.09 180.71 611.51 180.71 617.59 174.64 617.59 167.21 617.59 159.79 611.51 153.71 604.09 153.71 596.66 153.71 590.59 159.79 590.59 167.21" fill="#00cd00"/>
<path transform="matrix(1,0,0,-1,0,523)" d="M612.4 195.6C612.4 203.03 618.47 209.1 625.9 209.1 633.32 209.1 639.4 203.03 639.4 195.6 639.4 188.18 633.32 182.1 625.9 182.1 618.47 182.1 612.4 188.18 612.4 195.6" fill="#00cd00"/>
<path transform="matrix(1,0,0,-1,0,523)" d="M633.28 198.72C633.28 206.14 639.36 212.22 646.78 212.22 654.21 212.22 660.28 206.14 660.28 198.72 660.28 191.29 654.21 185.22 646.78 185.22 639.36 185.22 633.28 191.29 633.28 198.72" fill="#00cd00"/>
<path transform="matrix(1,0,0,-1,0,523)" d="M624.75 195.82C624.75 203.25 630.82 209.32 638.25 209.32 645.67 209.32 651.75 203.25 651.75 195.82 651.75 188.4 645.67 182.32 638.25 182.32 630.82 182.32 624.75 188.4 624.75 195.82" fill="#00cd00"/>
<path transform="matrix(1,0,0,-1,0,523)" d="M642.2 224.97C642.2 232.39 648.27 238.47 655.7 238.47 663.12 238.47 669.2 232.39 669.2 224.97 669.2 217.54 663.12 211.47 655.7 211.47 648.27 211.47 642.2 217.54 642.2 224.97" fill="#00cd00"/>
<path transform="matrix(1,0,0,-1,0,523)" d="M650.87 228.96C650.87 236.39 656.95 242.46 664.37 242.46 671.8 242.46 677.87 236.39 677.87 228.96 677.87 221.54 671.8 215.46 664.37 215.46 656.95 215.46 650.87 221.54 650.87 228.96" fill="#00cd00"/>
<path transform="matrix(1,0,0,-1,0,523)" d="M651.02 240.4C651.02 247.83 657.1 253.9 664.52 253.9 671.95 253.9 678.02 247.83 678.02 240.4 678.02 232.98 671.95 226.9 664.52 226.9 657.1 226.9 651.02 232.98 651.02 240.4" fill="#00cd00"/>
<path transform="matrix(1,0,0,-1,0,523)" d="M663.57 245.35C663.57 252.77 669.65 258.85 677.07 258.85 684.5 258.85 690.57 252.77 690.57 245.35 690.57 237.92 684.5 231.85 677.07 231.85 669.65 231.85 663.57 237.92 663.57 245.35" fill="#00cd00"/>
<path transform="matrix(1,0,0,-1,0,523)" d="M665.06 276.78C665.06 284.2 671.13 290.28 678.56 290.28 685.98 290.28 692.06 284.2 692.06 276.78 692.06 269.35 685.98 263.28 678.56 263.28 671.13 263.28 665.06 269.35 665.06 276.78" fill="#00cd00"/>
<path transform="matrix(1,0,0,-1,0,523)" d="M667.89 288.2C667.89 295.62 673.96 301.7 681.39 301.7 688.81 301.7 694.89 295.62 694.89 288.2 694.89 280.77 688.81 274.7 681.39 274.7 673.96 274.7 667.89 280.77 667.89 288.2" fill="#00cd00"/>
<path transform="matrix(1,0,0,-1,0,523)" d="M653.72 311.86C653.72 319.29 659.79 325.36 667.22 325.36 674.64 325.36 680.72 319.29 680.72 311.86 680.72 304.44 674.64 298.36 667.22 298.36 659.79 298.36 653.72 304.44 653.72 311.86" fill="#00cd00"/>
<path transform="matrix(1,0,0,-1,0,523)" d="M653.35 334.3C653.35 341.72 659.42 347.8 666.85 347.8 674.27 347.8 680.35 341.72 680.35 334.3 680.35 326.87 674.27 320.8 666.85 320.8 659.42 320.8 653.35 326.87 653.35 334.3" fill="#00cd00"/>
<path transform="matrix(1,0,0,-1,0,523)" d="M657.42 334.75C657.42 342.17 663.5 348.25 670.92 348.25 678.35 348.25 684.42 342.17 684.42 334.75 684.42 327.32 678.35 321.25 670.92 321.25 663.5 321.25 657.42 327.32 657.42 334.75" fill="#00cd00"/>
<path transform="matrix(1,0,0,-1,0,523)" d="M650.34 338.22C650.34 345.65 656.42 351.72 663.84 351.72 671.27 351.72 677.34 345.65 677.34 338.22 677.34 330.8 671.27 324.72 663.84 324.72 656.42 324.72 650.34 330.8 650.34 338.22" fill="#00cd00"/>
<path transform="matrix(1,0,0,-1,0,523)" d="M633.9 371.98C633.9 379.41 639.97 385.48 647.4 385.48 654.82 385.48 660.9 379.41 660.9 371.98 660.9 364.56 654.82 358.48 647.4 358.48 639.97 358.48 633.9 364.56 633.9 371.98" fill="#00cd00"/>
<path transform="matrix(1,0,0,-1,0,523)" d="M632.26 380.81C632.26 388.23 638.34 394.31 645.76 394.31 653.19 394.31 659.26 388.23 659.26 380.81 659.26 373.38 653.19 367.31 645.76 367.31 638.34 367.31 632.26 373.38 632.26 380.81" fill="#00cd00"/>
<path transform="matrix(1,0,0,-1,0,523)" d="M617.88 381.8C617.88 389.23 623.95 395.3 631.38 395.3 638.8 395.3 644.88 389.23 644.88 381.8 644.88 374.38 638.8 368.3 631.38 368.3 623.95 368.3 617.88 374.38 617.88 381.8" fill="#00cd00"/>
<path transform="matrix(1,0,0,-1,0,523)" d="M579.62 412.18C579.62 419.61 585.7 425.68 593.12 425.68 600.55 425.68 606.62 419.61 606.62 412.18 606.62 404.76 600.55 398.68 593.12 398.68 585.7 398.68 579.62 404.76 579.62 412.18" fill="#00cd00"/>
<path transform="matrix(1,0,0,-1,0,523)" d="M567.1 430.29C567.1 437.72 573.17 443.79 580.6 443.79 588.02 443.79 594.1 437.72 594.1 430.29 594.1 422.87 588.02 416.79 580.6 416.79 573.17 416.79 567.1 422.87 567.1 430.29" fill="#00cd00"/>
<path transform="matrix(1,0,0,-1,0,523)" d="M558.51 436.71C558.51 444.14 564.58 450.21 572.01 450.21 579.43 450.21 585.51 444.14 585.51 436.71 585.51 429.29 579.43 423.21 572.01 423.21 564.58 423.21 558.51 429.29 558.51 436.71" fill="#00cd00"/>
<path transform="matrix(1,0,0,-1,0,523)" d="M549.36 442.66C549.36 450.09 555.43 456.16 562.86 456.16 570.28 456.16 576.36 450.09 576.36 442.66 576.36 435.24 570.28 429.16 562.86 429.16 555.43 429.16 549.36 435.24 549.36 442.66" fill="#00cd00"/>
<path transform="matrix(1,0,0,-1,0,523)" d="M550.47 443.71C550.47 451.13 556.54 457.21 563.97 457.21 571.39 457.21 577.47 451.13 577.47 443.71 577.47 436.28 571.39 430.21 563.97 430.21 556.54 430.21 550.47 436.28 550.47 443.71" fill="#00cd00"/>
<path transform="matrix(1,0,0,-1,0,523)" d="M513.08 456.14C513.08 463.57 519.16 469.64 526.58 469.64 534.01 469.64 540.08 463.57 540.08 456.14 540.08 448.72 534.01 442.64 526.58 442.64 519.16 442.64 513.08 448.72 513.08 456.14" fill="#00cd00"/>
<path transform="matrix(1,0,0,-1,0,523)" d="M433.27 475.63C433.27 483.06 439.35 489.13 446.77 489.13 454.2 489.13 460.27 483.06 460.27 475.63 460.27 468.21 454.2 462.13 446.77 462.13 439.35 462.13 433.27 468.21 433.27 475.63" fill="#00cd00"/>
<path transform="matrix(1,0,0,-1,0,523)" d="M425.72 477.98C425.72 485.41 431.8 491.48 439.22 491.48 446.65 491.48 452.72 485.41 452.72 477.98 452.72 470.56 446.65 464.48 439.22 464.48 431.8 464.48 425.72 470.56 425.72 477.98" fill="#00cd00"/>
<path transform="matrix(1,0,0,-1,0,523)" d="M428.1 475.66C428.1 483.09 434.17 489.16 441.6 489.16 449.02 489.16 455.1 483.09 455.1 475.66 455.1 468.24 449.02 462.16 441.6 462.16 434.17 462.16 428.1 468.24 428.1 475.66" fill="#00cd00"/>
<path transform="matrix(1,0,0,-1,0,523)" d="M347.44 490.72C347.44 498.15 353.51 504.22 360.94 504.22 368.36 504.22 374.44 498.15 374.44 490.72 374.44 483.3 368.36 477.22 360.94 477.22 353.51 477.22 347.44 483.3 347.44 490.72" fill="#00cd00"/>
<path transform="matrix(1,0,0,-1,0,523)" d="M344.94 257.46C344.94 264.88 351.02 270.96 358.44 270.96 365.87 270.96 371.94 264.88 371.94 257.46 371.94 250.03 365.87 243.96 358.44 243.96 351.02 243.96 344.94 250.03 344.94 257.46" fill="#ff0000"/>
<path transform="matrix(1,0,0,-1,0,523)" d="M344.93 257.17C344.93 264.6 351.01 270.67 358.43 270.67 365.86 270.67 371.93 264.6 371.93 257.17 371.93 249.75 365.86 243.67 358.43 243.67 351.01 243.67 344.93 249.75 344.93 257.17" fill="#ff0000"/>
<path transform="matrix(1,0,0,-1,0,523)" d="M349.27 257.49C349.27 264.92 355.34 270.99 362.77 270.99 370.19 270.99 376.27 264.92 376.27 257.49 376.27 250.07 370.19 243.99 362.77 243.99 355.34 243.99 349.27 250.07 349.27 257.49" fill="#ff0000"/>
<path transform="matrix(1,0,0,-1,0,523)" d="M340.31 256.38C340.31 263.81 346.38 269.88 353.81 269.88 361.23 269.88 367.31 263.81 367.31 256.38 367.31 248.96 361.23 242.88 353.81 242.88 346.38 242.88 340.31 248.96 340.31 256.38" fill="#ff0000"/>
<path transform="matrix(1,0,0,-1,0,523)" d="M331.06 254.54C331.06 261.96 337.13 268.04 344.56 268.04 351.98 268.04 358.06 261.96 358.06 254.54 358.06 247.11 351.98 241.04 344.56 241.04 337.13 241.04 331.06 247.11 331.06 254.54" fill="#ff0000"/>
<path transform="matrix(1,0,0,-1,0,523)" d="M334.14 253.73C334.14 261.16 340.21 267.23 347.64 267.23 355.06 267.23 361.14 261.16 361.14 253.73 361.14 246.31 355.06 240.23 347.64 240.23 340.21 240.23 334.14 246.31 334.14 253.73" fill="#ff0000"/>
<path transform="matrix(1,0,0,-1,0,523)" d="M332.44 253.13C332.44 260.55 338.52 266.63 345.94 266.63 353.37 266.63 359.44 260.55 359.44 253.13 359.44 245.7 353.37 239.63 345.94 239.63 338.52 239.63 332.44 245.7 332.44 253.13" fill="#ff0000"/>
<path transform="matrix(1,0,0,-1,0,523)" d="M321.27 247.26C321.27 254.68 327.35 260.76 334.77 260.76 342.2 260.76 348.27 254.68 348.27 247.26 348.27 239.83 342.2 233.76 334.77 233.76 327.35 233.76 321.27 239.83 321.27 247.26" fill="#ff0000"/>
<path transform="matrix(1,0,0,-1,0,523)" d="M321.59 246.12C321.59 253.55 327.66 259.62 335.09 259.62 342.51 259.62 348.59 253.55 348.59 246.12 348.59 238.7 342.51 232.62 335.09 232.62 327.66 232.62 321.59 238.7 321.59 246.12" fill="#ff0000"/>
<path transform="matrix(1,0,0,-1,0,523)" d="M321.81 243.71C321.81 251.14 327.88 257.21 335.31 257.21 342.73 257.21 348.81 251.14 348.81 243.71 348.81 236.29 342.73 230.21 335.31 230.21 327.88 230.21 321.81 236.29 321.81 243.71" fill="#ff0000"/>
<path transform="matrix(1,0,0,-1,0,523)" d="M321.83 242.84C321.83 250.27 327.91 256.34 335.33 256.34 342.76 256.34 348.83 250.27 348.83 242.84 348.83 235.42 342.76 229.34 335.33 229.34 327.91 229.34 321.83 235.42 321.83 242.84" fill="#ff0000"/>
<path transform="matrix(1,0,0,-1,0,523)" d="M318.29 236.98C318.29 244.41 324.37 250.48 331.79 250.48 339.22 250.48 345.29 244.41 345.29 236.98 345.29 229.56 339.22 223.48 331.79 223.48 324.37 223.48 318.29 229.56 318.29 236.98" fill="#ff0000"/>
<path transform="matrix(1,0,0,-1,0,523)" d="M321.27 235.65C321.27 243.07 327.34 249.15 334.77 249.15 342.19 249.15 348.27 243.07 348.27 235.65 348.27 228.22 342.19 222.15 334.77 222.15 327.34 222.15 321.27 228.22 321.27 235.65" fill="#ff0000"/>
<path transform="matrix(1,0,0,-1,0,523)" d="M320.76 227.55C320.76 234.98 326.83 241.05 334.26 241.05 341.68 241.05 347.76 234.98 347.76 227.55 347.76 220.13 341.68 214.05 334.26 214.05 326.83 214.05 320.76 220.13 320.76 227.55" fill="#ff0000"/>
<path transform="matrix(1,0,0,-1,0,523)" d="M329.38 228.05C329.38 235.47 335.45 241.55 342.88 241.55 350.3 241.55 356.38 235.47 356.38 228.05 356.38 220.62 350.3 214.55 342.88 214.55 335.45 214.55 329.38 220.62 329.38 228.05" fill="#ff0000"/>
<path transform="matrix(1,0,0,-1,0,523)" d="M330.9 224.69C330.9 232.11 336.98 238.19 344.4 238.19 351.83 238.19 357.9 232.11 357.9 224.69 357.9 217.26 351.83 211.19 344.4 211.19 336.98 211.19 330.9 217.26 330.9 224.69" fill="#ff0000"/>
<path transform="matrix(1,0,0,-1,0,523)" d="M335.43 224.82C335.43 232.25 341.5 238.32 348.93 238.32 356.35 238.32 362.43 232.25 362.43 224.82 362.43 217.4 356.35 211.32 348.93 211.32 341.5 211.32 335.43 217.4 335.43 224.82" fill="#ff0000"/>
<path transform="matrix(1,0,0,-1,0,523)" d="M330.28 222.59C330.28 230.01 336.35 236.09 343.78 236.09 351.2 236.09 357.28 230.01 357.28 222.59 357.28 215.16 351.2 209.09 343.78 209.09 336.35 209.09 330.28 215.16 330.28 222.59" fill="#ff0000"/>
<path transform="matrix(1,0,0,-1,0,523)" d="M341.47 215.87C341.47 223.29 347.54 229.37 354.97 229.37 362.39 229.37 368.47 223.29 368.47 215.87 368.47 208.44 362.39 202.37 354.97 202.37 347.54 202.37 341.47 208.44 341.47 215.87" fill="#ff0000"/>
<path transform="matrix(1,0,0,-1,0,523)" d="M349.28 215.76C349.28 223.18 355.36 229.26 362.78 229.26 370.21 229.26 376.28 223.18 376.28 215.76 376.28 208.33 370.21 202.26 362.78 202.26 355.36 202.26 349.28 208.33 349.28 215.76" fill="#ff0000"/>
<path transform="matrix(1,0,0,-1,0,523)" d="M353.13 210.02C353.13 217.45 359.2 223.52 366.63 223.52 374.05 223.52 380.13 217.45 380.13 210.02 380.13 202.6 374.05 196.52 366.63 196.52 359.2 196.52 353.13 202.6 353.13 210.02" fill="#ff0000"/>
<path transform="matrix(1,0,0,-1,0,523)" d="M354.69 210.68C354.69 218.1 360.76 224.18 368.19 224.18 375.61 224.18 381.69 218.1 381.69 210.68 381.69 203.25 375.61 197.18 368.19 197.18 360.76 197.18 354.69 203.25 354.69 210.68" fill="#ff0000"/>
<path transform="matrix(1,0,0,-1,0,523)" d="M366.46 205.12C366.46 212.54 372.54 218.62 379.96 218.62 387.39 218.62 393.46 212.54 393.46 205.12 393.46 197.69 387.39 191.62 379.96 191.62 372.54 191.62 366.46 197.69 366.46 205.12" fill="#ff0000"/>
<path transform="matrix(1,0,0,-1,0,523)" d="M373.62 203.52C373.62 210.94 379.7 217.02 387.12 217.02 394.55 217.02 400.62 210.94 400.62 203.52 400.62 196.09 394.55 190.02 387.12 190.02 379.7 190.02 373.62 196.09 373.62 203.52" fill="#ff0000"/>
<path transform="matrix(1,0,0,-1,0,523)" d="M382.51 206.49C382.51 213.91 388.59 219.99 396.01 219.99 403.44 219.99 409.51 213.91 409.51 206.49 409.51 199.06 403.44 192.99 396.01 192.99 388.59 192.99 382.51 199.06 382.51 206.49" fill="#ff0000"/>
<path transform="matrix(1,0,0,-1,0,523)" d="M393.17 202.32C393.17 209.74 399.24 215.82 406.67 215.82 414.09 215.82 420.17 209.74 420.17 202.32 420.17 194.89 414.09 188.82 406.67 188.82 399.24 188.82 393.17 194.89 393.17 202.32" fill="#ff0000"/>
<path transform="matrix(1,0,0,-1,0,523)" d="M392.4 204.51C392.4 211.94 398.47 218.01 405.9 218.01 413.32 218.01 419.4 211.94 419.4 204.51 419.4 197.09 413.32 191.01 405.9 191.01 398.47 191.01 392.4 197.09 392.4 204.51" fill="#ff0000"/>
<path transform="matrix(1,0,0,-1,0,523)" d="M402.27 202.64C402.27 210.06 408.35 216.14 415.77 216.14 423.2 216.14 429.27 210.06 429.27 202.64 429.27 195.21 423.2 189.14 415.77 189.14 408.35 189.14 402.27 195.21 402.27 202.64" fill="#ff0000"/>
<path transform="matrix(1,0,0,-1,0,523)" d="M405.6 200.74C405.6 208.17 411.67 214.24 419.1 214.24 426.52 214.24 432.6 208.17 432.6 200.74 432.6 193.32 426.52 187.24 419.1 187.24 411.67 187.24 405.6 193.32 405.6 200.74" fill="#ff0000"/>
<path transform="matrix(1,0,0,-1,0,523)" d="M429.87 204.92C429.87 212.34 435.94 218.42 443.37 218.42 450.79 218.42 456.87 212.34 456.87 204.92 456.87 197.49 450.79 191.42 443.37 191.42 435.94 191.42 429.87 197.49 429.87 204.92" fill="#ff0000"/>
<path transform="matrix(1,0,0,-1,0,523)" d="M423.37 209.55C423.37 216.97 429.44 223.05 436.87 223.05 444.29 223.05 450.37 216.97 450.37 209.55 450.37 202.12 444.29 196.05 436.87 196.05 429.44 196.05 423.37 202.12 423.37 209.55" fill="#ff0000"/>
<path transform="matrix(1,0,0,-1,0,523)" d="M449.25 213.84C449.25 221.27 455.32 227.34 462.75 227.34 470.17 227.34 476.25 221.27 476.25 213.84 476.25 206.42 470.17 200.34 462.75 200.34 455.32 200.34 449.25 206.42 449.25 213.84" fill="#ff0000"/>
<path transform="matrix(1,0,0,-1,0,523)" d="M457.53 217.53C457.53 224.95 463.61 231.03 471.03 231.03 478.46 231.03 484.53 224.95 484.53 217.53 484.53 210.1 478.46 204.03 471.03 204.03 463.61 204.03 457.53 210.1 457.53 217.53" fill="#ff0000"/>
<path transform="matrix(1,0,0,-1,0,523)" d="M453.26 216.11C453.26 223.53 459.34 229.61 466.76 229.61 474.19 229.61 480.26 223.53 480.26 216.11 480.26 208.68 474.19 202.61 466.76 202.61 459.34 202.61 453.26 208.68 453.26 216.11" fill="#ff0000"/>
<path transform="matrix(1,0,0,-1,0,523)" d="M472.7 222.88C472.7 230.31 478.77 236.38 486.2 236.38 493.62 236.38 499.7 230.31 499.7 222.88 499.7 215.46 493.62 209.38 486.2 209.38 478.77 209.38 472.7 215.46 472.7 222.88" fill="#ff0000"/>
<path transform="matrix(1,0,0,-1,0,523)" d="M476.59 218.92C476.59 226.35 482.66 232.42 490.09 232.42 497.51 232.42 503.59 226.35 503.59 218.92 503.59 211.5 497.51 205.42 490.09 205.42 482.66 205.42 476.59 211.5 476.59 218.92" fill="#ff0000"/>
<path transform="matrix(1,0,0,-1,0,523)" d="M489.65 229.05C489.65 236.48 495.72 242.55 503.15 242.55 510.57 242.55 516.65 236.48 516.65 229.05 516.65 221.63 510.57 215.55 503.15 215.55 495.72 215.55 489.65 221.63 489.65 229.05" fill="#ff0000"/>
<path transform="matrix(1,0,0,-1,0,523)" d="M486.8 237.5C486.8 244.93 492.88 251 500.3 251 507.73 251 513.8 244.93 513.8 237.5 513.8 230.08 507.73 224 500.3 224 492.88 224 486.8 230.08 486.8 237.5" fill="#ff0000"/>
<path transform="matrix(1,0,0,-1,0,523)" d="M499.28 239.46C499.28 246.88 505.35 252.96 512.78 252.96 520.2 252.96 526.28 246.88 526.28 239.46 526.28 232.03 520.2 225.96 512.78 225.96 505.35 225.96 499.28 232.03 499.28 239.46" fill="#ff0000"/>
<path transform="matrix(1,0,0,-1,0,523)" d="M496.58 241.9C496.58 249.32 502.66 255.4 510.08 255.4 517.51 255.4 523.58 249.32 523.58 241.9 523.58 234.47 517.51 228.4 510.08 228.4 502.66 228.4 496.58 234.47 496.58 241.9" fill="#ff0000"/>
<path transform="matrix(1,0,0,-1,0,523)" d="M506.75 261.24C506.75 268.66 512.82 274.74 520.25 274.74 527.67 274.74 533.75 268.66 533.75 261.24 533.75 253.81 527.67 247.74 520.25 247.74 512.82 247.74 506.75 253.81 506.75 261.24" fill="#ff0000"/>
<path transform="matrix(1,0,0,-1,0,523)" d="M517.39 256.69C517.39 264.12 523.46 270.19 530.89 270.19 538.31 270.19 544.39 264.12 544.39 256.69 544.39 249.27 538.31 243.19 530.89 243.19 523.46 243.19 517.39 249.27 517.39 256.69" fill="#ff0000"/>
<path transform="matrix(1,0,0,-1,0,523)" d="M511.48 276.48C511.48 283.9 517.55 289.98 524.98 289.98 532.4 289.98 538.48 283.9 538.48 276.48 538.48 269.05 532.4 262.98 524.98 262.98 517.55 262.98 511.48 269.05 511.48 276.48" fill="#ff0000"/>
<path transform="matrix(1,0,0,-1,0,523)" d="M521.31 271.45C521.31 278.88 527.39 284.95 534.81 284.95 542.24 284.95 548.31 278.88 548.31 271.45 548.31 264.03 542.24 257.95 534.81 257.95 527.39 257.95 521.31 264.03 521.31 271.45" fill="#ff0000"/>
<path transform="matrix(1,0,0,-1,0,523)" d="M514.15 297.4C514.15 304.82 520.22 310.9 527.65 310.9 535.07 310.9 541.15 304.82 541.15 297.4 541.15 289.97 535.07 283.9 527.65 283.9 520.22 283.9 514.15 289.97 514.15 297.4" fill="#ff0000"/>
<path transform="matrix(1,0,0,-1,0,523)" d="M515.64 303.09C515.64 310.51 521.71 316.59 529.14 316.59 536.56 316.59 542.64 310.51 542.64 303.09 542.64 295.66 536.56 289.59 529.14 289.59 521.71 289.59 515.64 295.66 515.64 303.09" fill="#ff0000"/>
<path transform="matrix(1,0,0,-1,0,523)" d="M516.76 305.57C516.76 313 522.84 319.07 530.26 319.07 537.69 319.07 543.76 313 543.76 305.57 543.76 298.15 537.69 292.07 530.26 292.07 522.84 292.07 516.76 298.15 516.76 305.57" fill="#ff0000"/>
<path transform="matrix(1,0,0,-1,0,523)" d="M492.95 319.1C492.95 326.52 499.03 332.6 506.45 332.6 513.88 332.6 519.95 326.52 519.95 319.1 519.95 311.67 513.88 305.6 506.45 305.6 499.03 305.6 492.95 311.67 492.95 319.1" fill="#ff0000"/>
<path transform="matrix(1,0,0,-1,0,523)" d="M502.88 320.37C502.88 327.79 508.95 333.87 516.38 333.87 523.8 333.87 529.88 327.79 529.88 320.37 529.88 312.94 523.8 306.87 516.38 306.87 508.95 306.87 502.88 312.94 502.88 320.37" fill="#ff0000"/>
<path transform="matrix(1,0,0,-1,0,523)" d="M492.04 339.34C492.04 346.77 498.11 352.84 505.54 352.84 512.96 352.84 519.04 346.77 519.04 339.34 519.04 331.92 512.96 325.84 505.54 325.84 498.11 325.84 492.04 331.92 492.04 339.34" fill="#ff0000"/>
<path transform="matrix(1,0,0,-1,0,523)" d="M498.43 332.88C498.43 340.3 504.5 346.38 511.93 346.38 519.35 346.38 525.43 340.3 525.43 332.88 525.43 325.45 519.35 319.38 511.93 319.38 504.5 319.38 498.43 325.45 498.43 332.88" fill="#ff0000"/>
<path transform="matrix(1,0,0,-1,0,523)" d="M476.76 353.27C476.76 360.7 482.83 366.77 490.26 366.77 497.68 366.77 503.76 360.7 503.76 353.27 503.76 345.85 497.68 339.77 490.26 339.77 482.83 339.77 476.76 345.85 476.76 353.27" fill="#ff0000"/>
<path transform="matrix(1,0,0,-1,0,523)" d="M475.88 356.59C475.88 364.02 481.96 370.09 489.38 370.09 496.81 370.09 502.88 364.02 502.88 356.59 502.88 349.17 496.81 343.09 489.38 343.09 481.96 343.09 475.88 349.17 475.88 356.59" fill="#ff0000"/>
<path transform="matrix(1,0,0,-1,0,523)" d="M467.53 362.19C467.53 369.61 473.6 375.69 481.03 375.69 488.45 375.69 494.53 369.61 494.53 362.19 494.53 354.76 488.45 348.69 481.03 348.69 473.6 348.69 467.53 354.76 467.53 362.19" fill="#ff0000"/>
<path transform="matrix(1,0,0,-1,0,523)" d="M441.38 366.04C441.38 373.46 447.46 379.54 454.88 379.54 462.31 379.54 468.38 373.46 468.38 366.04 468.38 358.61 462.31 352.54 454.88 352.54 447.46 352.54 441.38 358.61 441.38 366.04" fill="#ff0000"/>
<path transform="matrix(1,0,0,-1,0,523)" d="M447.67 375.76C447.67 383.18 453.75 389.26 461.17 389.26 468.6 389.26 474.67 383.18 474.67 375.76 474.67 368.33 468.6 362.26 461.17 362.26 453.75 362.26 447.67 368.33 447.67 375.76" fill="#ff0000"/>
<path transform="matrix(1,0,0,-1,0,523)" d="M407.96 380.65C407.96 388.08 414.04 394.15 421.46 394.15 428.89 394.15 434.96 388.08 434.96 380.65 434.96 373.23 428.89 367.15 421.46 367.15 414.04 367.15 407.96 373.23 407.96 380.65" fill="#ff0000"/>
<path transform="matrix(1,0,0,-1,0,523)" d="M382.99 390.84C382.99 398.27 389.06 404.34 396.49 404.34 403.91 404.34 409.99 398.27 409.99 390.84 409.99 383.42 403.91 377.34 396.49 377.34 389.06 377.34 382.99 383.42 382.99 390.84" fill="#ff0000"/>
<path transform="matrix(1,0,0,-1,0,523)" d="M364.73 390.73C364.73 398.16 370.81 404.23 378.23 404.23 385.66 404.23 391.73 398.16 391.73 390.73 391.73 383.31 385.66 377.23 378.23 377.23 370.81 377.23 364.73 383.31 364.73 390.73" fill="#ff0000"/>
<path transform="matrix(1,0,0,-1,0,523)" d="M352.05 397.86C352.05 405.28 358.13 411.36 365.55 411.36 372.98 411.36 379.05 405.28 379.05 397.86 379.05 390.43 372.98 384.36 365.55 384.36 358.13 384.36 352.05 390.43 352.05 397.86" fill="#ff0000"/>
<path transform="matrix(1,0,0,-1,0,523)" d="M344.97 401.11C344.97 408.53 351.04 414.61 358.47 414.61 365.89 414.61 371.97 408.53 371.97 401.11 371.97 393.68 365.89 387.61 358.47 387.61 351.04 387.61 344.97 393.68 344.97 401.11" fill="#ff0000"/>
<path transform="matrix(1,0,0,-1,0,523)" d="M343.98 397.16C343.98 404.58 350.05 410.66 357.48 410.66 364.9 410.66 370.98 404.58 370.98 397.16 370.98 389.73 364.9 383.66 357.48 383.66 350.05 383.66 343.98 389.73 343.98 397.16" fill="#ff0000"/>
<path transform="matrix(1,0,0,-1,0,523)" d="M330.18 405.32C330.18 412.75 336.26 418.82 343.68 418.82 351.11 418.82 357.18 412.75 357.18 405.32 357.18 397.9 351.11 391.82 343.68 391.82 336.26 391.82 330.18 397.9 330.18 405.32" fill="#ff0000"/>
<path transform="matrix(1,0,0,-1,0,523)" d="M301.89 403.91C301.89 411.33 307.97 417.41 315.39 417.41 322.82 417.41 328.89 411.33 328.89 403.91 328.89 396.48 322.82 390.41 315.39 390.41 307.97 390.41 301.89 396.48 301.89 403.91" fill="#ff0000"/>
<path transform="matrix(1,0,0,-1,0,523)" d="M257.72 399.76C257.72 407.18 263.8 413.26 271.22 413.26 278.65 413.26 284.72 407.18 284.72 399.76 284.72 392.33 278.65 386.26 271.22 386.26 263.8 386.26 257.72 392.33 257.72 399.76" fill="#ff0000"/>
<path transform="matrix(1,0,0,-1,0,523)" d="M247.24 391.08C247.24 398.51 253.31 404.58 260.74 404.58 268.16 404.58 274.24 398.51 274.24 391.08 274.24 383.66 268.16 377.58 260.74 377.58 253.31 377.58 247.24 383.66 247.24 391.08" fill="#ff0000"/>
<path transform="matrix(1,0,0,-1,0,523)" d="M239.35 393.49C239.35 400.92 245.42 406.99 252.85 406.99 260.27 406.99 266.35 400.92 266.35 393.49 266.35 386.07 260.27 379.99 252.85 379.99 245.42 379.99 239.35 386.07 239.35 393.49" fill="#ff0000"/>
<path transform="matrix(1,0,0,-1,0,523)" d="M221.88 397.1C221.88 404.53 227.95 410.6 235.38 410.6 242.8 410.6 248.88 404.53 248.88 397.1 248.88 389.68 242.8 383.6 235.38 383.6 227.95 383.6 221.88 389.68 221.88 397.1" fill="#ff0000"/>
<path transform="matrix(1,0,0,-1,0,523)" d="M200.11 390.83C200.11 398.26 206.18 404.33 213.61 404.33 221.03 404.33 227.11 398.26 227.11 390.83 227.11 383.41 221.03 377.33 213.61 377.33 206.18 377.33 200.11 383.41 200.11 390.83" fill="#ff0000"/>
<path transform="matrix(1,0,0,-1,0,523)" d="M162.56 367.19C162.56 374.62 168.64 380.69 176.06 380.69 183.49 380.69 189.56 374.62 189.56 367.19 189.56 359.77 183.49 353.69 176.06 353.69 168.64 353.69 162.56 359.77 162.56 367.19" fill="#ff0000"/>
<path transform="matrix(1,0,0,-1,0,523)" d="M171.35 379.05C171.35 386.47 177.43 392.55 184.85 392.55 192.28 392.55 198.35 386.47 198.35 379.05 198.35 371.62 192.28 365.55 184.85 365.55 177.43 365.55 171.35 371.62 171.35 379.05" fill="#ff0000"/>
<path transform="matrix(1,0,0,-1,0,523)" d="M144.31 374.91C144.31 382.34 150.38 388.41 157.81 388.41 165.23 388.41 171.31 382.34 171.31 374.91 171.31 367.49 165.23 361.41 157.81 361.41 150.38 361.41 144.31 367.49 144.31 374.91" fill="#ff0000"/>
<path transform="matrix(1,0,0,-1,0,523)" d="M114.09 340.96C114.09 348.38 120.16 354.46 127.59 354.46 135.01 354.46 141.09 348.38 141.09 340.96 141.09 333.53 135.01 327.46 127.59 327.46 120.16 327.46 114.09 333.53 114.09 340.96" fill="#ff0000"/>
<path transform="matrix(1,0,0,-1,0,523)" d="M121.36 359.35C121.36 366.77 127.44 372.85 134.86 372.85 142.29 372.85 148.36 366.77 148.36 359.35 148.36 351.92 142.29 345.85 134.86 345.85 127.44 345.85 121.36 351.92 121.36 359.35" fill="#ff0000"/>
<path transform="matrix(1,0,0,-1,0,523)" d="M106.62 342.02C106.62 349.44 112.7 355.52 120.12 355.52 127.55 355.52 133.62 349.44 133.62 342.02 133.62 334.59 127.55 328.52 120.12 328.52 112.7 328.52 106.62 334.59 106.62 342.02" fill="#ff0000"/>
<path transform="matrix(1,0,0,-1,0,523)" d="M76.35 332.5C76.35 339.92 82.43 346 89.85 346 97.28 346 103.35 339.92 103.35 332.5 103.35 325.07 97.28 319 89.85 319 82.43 319 76.35 325.07 76.35 332.5" fill="#ff0000"/>
<path transform="matrix(1,0,0,-1,0,523)" d="M72.23 307.72C72.23 315.14 78.31 321.22 85.73 321.22 93.16 321.22 99.23 315.14 99.23 307.72 99.23 300.29 93.16 294.22 85.73 294.22 78.31 294.22 72.23 300.29 72.23 307.72" fill="#ff0000"/>
<path transform="matrix(1,0,0,-1,0,523)" d="M62.64 311.1C62.64 318.53 68.71 324.6 76.14 324.6 83.56 324.6 89.64 318.53 89.64 311.1 89.64 303.68 83.56 297.6 76.14 297.6 68.71 297.6 62.64 303.68 62.64 311.1" fill="#ff0000"/>
<path transform="matrix(1,0,0,-1,0,523)" d="M59.92 301.16C59.92 308.59 66 314.66 73.42 314.66 80.85 314.66 86.92 308.59 86.92 301.16 86.92 293.74 80.85 287.66 73.42 287.66 66 287.66 59.92 293.74 59.92 301.16" fill="#ff0000"/>
<path transform="matrix(1,0,0,-1,0,523)" d="M43.21 261.47C43.21 268.9 49.29 274.97 56.71 274.97 64.14 274.97 70.21 268.9 70.21 261.47 70.21 254.05 64.14 247.97 56.71 247.97 49.29 247.97 43.21 254.05 43.21 261.47" fill="#ff0000"/>
<path transform="matrix(1,0,0,-1,0,523)" d="M38.76 242.66C38.76 250.08 44.83 256.16 52.26 256.16 59.68 256.16 65.76 250.08 65.76 242.66 65.76 235.23 59.68 229.16 52.26 229.16 44.83 229.16 38.76 235.23 38.76 242.66" fill="#ff0000"/>
<path transform="matrix(1,0,0,-1,0,523)" d="M26.55 249.71C26.55 257.13 32.63 263.21 40.05 263.21 47.48 263.21 53.55 257.13 53.55 249.71 53.55 242.28 47.48 236.21 40.05 236.21 32.63 236.21 26.55 242.28 26.55 249.71" fill="#ff0000"/>
<path transform="matrix(1,0,0,-1,0,523)" d="M31.53 209.33C31.53 216.75 37.61 222.83 45.03 222.83 52.46 222.83 58.53 216.75 58.53 209.33 58.53 201.9 52.46 195.83 45.03 195.83 37.61 195.83 31.53 201.9 31.53 209.33" fill="#ff0000"/>
<path transform="matrix(1,0,0,-1,0,523)" d="M36.53 199.58C36.53 207.01 42.61 213.08 50.03 213.08 57.46 213.08 63.53 207.01 63.53 199.58 63.53 192.16 57.46 186.08 50.03 186.08 42.61 186.08 36.53 192.16 36.53 199.58" fill="#ff0000"/>
<path transform="matrix(1,0,0,-1,0,523)" d="M31.29 195.65C31.29 203.08 37.37 209.15 44.79 209.15 52.22 209.15 58.29 203.08 58.29 195.65 58.29 188.23 52.22 182.15 44.79 182.15 37.37 182.15 31.29 188.23 31.29 195.65" fill="#ff0000"/>
<path transform="matrix(1,0,0,-1,0,523)" d="M39.54 195.34C39.54 202.77 45.61 208.84 53.04 208.84 60.46 208.84 66.54 202.77 66.54 195.34 66.54 187.92 60.46 181.84 53.04 181.84 45.61 181.84 39.54 187.92 39.54 195.34" fill="#ff0000"/>
<path transform="matrix(1,0,0,-1,0,523)" d="M41.38 168.46C41.38 175.88 47.45 181.96 54.88 181.96 62.3 181.96 68.38 175.88 68.38 168.46 68.38 161.03 62.3 154.96 54.88 154.96 47.45 154.96 41.38 161.03 41.38 168.46" fill="#ff0000"/>
<path transform="matrix(1,0,0,-1,0,523)" d="M71.68 137.66C71.68 145.08 77.75 151.16 85.18 151.16 92.6 151.16 98.68 145.08 98.68 137.66 98.68 130.23 92.6 124.16 85.18 124.16 77.75 124.16 71.68 130.23 71.68 137.66" fill="#ff0000"/>
<path transform="matrix(1,0,0,-1,0,523)" d="M88.82 120.92C88.82 128.35 94.9 134.42 102.32 134.42 109.75 134.42 115.82 128.35 115.82 120.92 115.82 113.5 109.75 107.42 102.32 107.42 94.9 107.42 88.82 113.5 88.82 120.92" fill="#ff0000"/>
<path transform="matrix(1,0,0,-1,0,523)" d="M91.41 116.46C91.41 123.88 97.49 129.96 104.91 129.96 112.34 129.96 118.41 123.88 118.41 116.46 118.41 109.03 112.34 102.96 104.91 102.96 97.49 102.96 91.41 109.03 91.41 116.46" fill="#ff0000"/>
<path transform="matrix(1,0,0,-1,0,523)" d="M105.82 103.05C105.82 110.47 111.9 116.55 119.32 116.55 126.75 116.55 132.82 110.47 132.82 103.05 132.82 95.62 126.75 89.55 119.32 89.55 111.9 89.55 105.82 95.62 105.82 103.05" fill="#ff0000"/>
<path transform="matrix(1,0,0,-1,0,523)" d="M95.16 107.48C95.16 114.9 101.24 120.98 108.66 120.98 116.09 120.98 122.16 114.9 122.16 107.48 122.16 100.05 116.09 93.98 108.66 93.98 101.24 93.98 95.16 100.05 95.16 107.48" fill="#ff0000"/>
<path transform="matrix(1,0,0,-1,0,523)" d="M109.41 96.59C109.41 104.02 115.49 110.09 122.91 110.09 130.34 110.09 136.41 104.02 136.41 96.59 136.41 89.17 130.34 83.09 122.91 83.09 115.49 83.09 109.41 89.17 109.41 96.59" fill="#ff0000"/>
<path transform="matrix(1,0,0,-1,0,523)" d="M144.53 77.81C144.53 85.23 150.6 91.31 158.03 91.31 165.45 91.31 171.53 85.23 171.53 77.81 171.53 70.38 165.45 64.31 158.03 64.31 150.6 64.31 144.53 70.38 144.53 77.81" fill="#ff0000"/>
<path transform="matrix(1,0,0,-1,0,523)" d="M162.71 67.94C162.71 75.36 168.78 81.44 176.21 81.44 183.63 81.44 189.71 75.36 189.71 67.94 189.71 60.51 183.63 54.44 176.21 54.44 168.78 54.44 162.71 60.51 162.71 67.94" fill="#ff0000"/>
<path transform="matrix(1,0,0,-1,0,523)" d="M223.23 55.2C223.23 62.62 229.31 68.7 236.73 68.7 244.16 68.7 250.23 62.62 250.23 55.2 250.23 47.77 244.16 41.7 236.73 41.7 229.31 41.7 223.23 47.77 223.23 55.2" fill="#ff0000"/>
<path transform="matrix(1,0,0,-1,0,523)" d="M206.76 49.2C206.76 56.62 212.84 62.7 220.26 62.7 227.69 62.7 233.76 56.62 233.76 49.2 233.76 41.77 227.69 35.7 220.26 35.7 212.84 35.7 206.76 41.77 206.76 49.2" fill="#ff0000"/>
<path transform="matrix(1,0,0,-1,0,523)" d="M259.07 37.97C259.07 45.4 265.15 51.47 272.57 51.47 280 51.47 286.07 45.4 286.07 37.97 286.07 30.55 280 24.47 272.57 24.47 265.15 24.47 259.07 30.55 259.07 37.97" fill="#ff0000"/>
<path transform="matrix(1,0,0,-1,0,523)" d="M278.88 38.3C278.88 45.73 284.95 51.8 292.38 51.8 299.8 51.8 305.88 45.73 305.88 38.3 305.88 30.88 299.8 24.8 292.38 24.8 284.95 24.8 278.88 30.88 278.88 38.3" fill="#ff0000"/>
<path transform="matrix(1,0,0,-1,0,523)" d="M293.91 32.72C293.91 40.15 299.99 46.22 307.41 46.22 314.84 46.22 320.91 40.15 320.91 32.72 320.91 25.3 314.84 19.22 307.41 19.22 299.99 19.22 293.91 25.3 293.91 32.72" fill="#ff0000"/>
<path transform="matrix(1,0,0,-1,0,523)" d="M477.8 348.42C477.8 355.84 483.87 361.92 491.3 361.92 498.72 361.92 504.8 355.84 504.8 348.42 504.8 340.99 498.72 334.92 491.3 334.92 483.87 334.92 477.8 340.99 477.8 348.42" fill="#ff0000"/>
</g>
<path transform="matrix(1,0,0,-1,0,523)" stroke-width=".75" stroke-linecap="round" stroke-linejoin="round" fill="none" stroke="#000000" d="M14.4 14.4H707.04V509.04H14.4V14.4"/>
<g clip-path="url(#clip_2)">
<path transform="matrix(1,0,0,-1,0,523)" stroke-width=".75" stroke-linecap="round" stroke-linejoin="round" fill="none" stroke="#000000" d="M538.37 21.27V502.17"/>
<path transform="matrix(1,0,0,-1,0,523)" stroke-width=".75" stroke-linecap="round" stroke-linejoin="round" fill="none" stroke="#000000" d="M191.65 21.27V502.17"/>
<path transform="matrix(1,0,0,-1,0,523)" stroke-width=".75" stroke-linecap="round" stroke-linejoin="round" fill="none" stroke="#000000" d="M450.83 21.27V502.17"/>
<path transform="matrix(1,0,0,-1,0,523)" stroke-width=".75" stroke-linecap="round" stroke-linejoin="round" fill="none" stroke="#000000" d="M191.65 257.61H450.83"/>
<path transform="matrix(1,0,0,-1,0,523)" stroke-width=".75" stroke-linecap="round" stroke-linejoin="round" fill="none" stroke="#000000" d="M331.21 21.27V257.61"/>
<path transform="matrix(1,0,0,-1,0,523)" stroke-width=".75" stroke-linecap="round" stroke-linejoin="round" fill="none" stroke="#000000" d="M191.65 88.64H331.21"/>
<path transform="matrix(1,0,0,-1,0,523)" stroke-width=".75" stroke-linecap="round" stroke-linejoin="round" fill="none" stroke="#000000" d="M331.21 160.77H450.83"/>
<path transform="matrix(1,0,0,-1,0,523)" stroke-width=".75" stroke-linecap="round" stroke-linejoin="round" fill="none" stroke="#000000" d="M191.65 347.2H450.83"/>
<path transform="matrix(1,0,0,-1,0,523)" stroke-width=".75" stroke-linecap="round" stroke-linejoin="round" fill="none" stroke="#000000" d="M191.65 404.61H450.83"/>
<path transform="matrix(1,0,0,-1,0,523)" stroke-width=".75" stroke-linecap="round" stroke-linejoin="round" fill="none" stroke="#000000" d="M450.83 216.82H538.37"/>
<text xml:space="preserve" transform="matrix(1 0 -0 1 0 523)" font-size="24" font-family="Helvetica"><tspan y="-253.51" x="71.14 84.484 91.156009 104.50001 117.84401 131.18802">0.0000</tspan></text>
<text xml:space="preserve" transform="matrix(1 0 -0 1 0 523)" font-size="24" font-family="Helvetica"><tspan y="-46.75" x="224.73 238.074 244.746 258.09 271.434 284.77799">0.0000</tspan></text>
<text xml:space="preserve" transform="matrix(1 0 -0 1 0 523)" font-size="24" font-family="Helvetica"><tspan y="-164.92" x="224.73 238.074 244.746 258.09 271.434 284.77799">1.0000</tspan></text>
<text xml:space="preserve" transform="matrix(1 0 -0 1 0 523)" font-size="24" font-family="Helvetica"><tspan y="-82.81" x="354.32 367.664 374.336 387.68 401.024 414.36799">1.0000</tspan></text>
<text xml:space="preserve" transform="matrix(1 0 -0 1 0 523)" font-size="24" font-family="Helvetica"><tspan y="-200.98" x="354.32 367.664 374.336 387.68 401.024 414.36799">0.0312</tspan></text>
<text xml:space="preserve" transform="matrix(1 0 -0 1 0 523)" font-size="24" font-family="Helvetica"><tspan y="-294.2" x="284.54 297.884 304.556 317.9 331.244 344.58799">1.0000</tspan></text>
<text xml:space="preserve" transform="matrix(1 0 -0 1 0 523)" font-size="24" font-family="Helvetica"><tspan y="-367.7" x="284.54 297.884 304.556 317.9 331.244 344.58799">0.0000</tspan></text>
<text xml:space="preserve" transform="matrix(1 0 -0 1 0 523)" font-size="24" font-family="Helvetica"><tspan y="-445.18" x="284.54 297.884 304.556 317.9 331.244 344.58799">0.8000</tspan></text>
<text xml:space="preserve" transform="matrix(1 0 -0 1 0 523)" font-size="24" font-family="Helvetica"><tspan y="-110.84" x="457.9 471.244 477.916 491.25999 504.60398 517.948">0.6000</tspan></text>
<text xml:space="preserve" transform="matrix(1 0 -0 1 0 523)" font-size="24" font-family="Helvetica"><tspan y="-351.29" x="457.9 471.244 477.916 491.25999 504.60398 517.948">0.0400</tspan></text>
<text xml:space="preserve" transform="matrix(1 0 -0 1 0 523)" font-size="24" font-family="Helvetica"><tspan y="-253.51" x="581.2 594.544 601.216 614.56 627.904 641.248">1.0000</tspan></text>
</g>
</svg>
