<svg xmlns="http://www.w3.org/2000/svg" xmlns:xlink="http://www.w3.org/1999/xlink" version="1.1" width="468pt" height="91pt" viewBox="0 0 468 91">
<defs>
<clipPath id="clip_0">
<path transform="matrix(1,0,0,-1,0,91)" d="M1 0H468V90H1Z"/>
</clipPath>
<clipPath id="clip_1">
<path transform="matrix(1,0,0,-1,0,91)" d="M1 0H468V90H1Z"/>
</clipPath>
<clipPath id="clip_2">
<path transform="matrix(1,0,0,-1,0,91)" d="M1 0H468V90H1Z"/>
</clipPath>
<clipPath id="clip_3">
<path transform="matrix(1,0,0,-1,0,91)" d="M1 0H468V90H1Z"/>
</clipPath>
<clipPath id="clip_4">
<path transform="matrix(1,0,0,-1,0,91)" d="M1 0H468V90H1Z"/>
</clipPath>
<clipPath id="clip_5">
<path transform="matrix(1,0,0,-1,0,91)" d="M1 0H468V90H1Z"/>
</clipPath>
<clipPath id="clip_6">
<path transform="matrix(1,0,0,-1,0,91)" d="M1 0H468V90H1Z"/>
</clipPath>
<clipPath id="clip_7">
<path transform="matrix(1,0,0,-1,0,91)" d="M1 0H468V90H1Z"/>
</clipPath>
<clipPath id="clip_8">
<path transform="matrix(1,0,0,-1,0,91)" d="M1 0H468V90H1Z"/>
</clipPath>
<clipPath id="clip_9">
<path transform="matrix(1,0,0,-1,0,91)" d="M1 0H468V90H1Z"/>
</clipPath>
<clipPath id="clip_10">
<path transform="matrix(1,0,0,-1,0,91)" d="M1 0H468V90H1Z"/>
</clipPath>
<clipPath id="clip_11">
<path transform="matrix(1,0,0,-1,0,91)" d="M1 0H468V90H1Z"/>
</clipPath>
<clipPath id="clip_12">
<path transform="matrix(1,0,0,-1,0,91)" d="M1 0H468V90H1Z"/>
</clipPath>
<clipPath id="clip_13">
<path transform="matrix(1,0,0,-1,0,91)" d="M1 0H468V90H1Z"/>
</clipPath>
<clipPath id="clip_14">
<path transform="matrix(1,0,0,-1,0,91)" d="M1 0H468V90H1Z"/>
</clipPath>
<clipPath id="clip_15">
<path transform="matrix(1,0,0,-1,0,91)" d="M1 0H468V90H1Z"/>
</clipPath>
<clipPath id="clip_16">
<path transform="matrix(1,0,0,-1,0,91)" d="M1 0H468V90H1Z"/>
</clipPath>
<clipPath id="clip_17">
<path transform="matrix(1,0,0,-1,0,91)" d="M1 0H468V90H1Z"/>
</clipPath>
<clipPath id="clip_18">
<path transform="matrix(1,0,0,-1,0,91)" d="M1 0H468V90H1Z"/>
</clipPath>
<clipPath id="clip_19">
<path transform="matrix(1,0,0,-1,0,91)" d="M1 0H468V90H1Z"/>
</clipPath>
<clipPath id="clip_20">
<path transform="matrix(1,0,0,-1,0,91)" d="M1 0H468V90H1Z"/>
</clipPath>
<clipPath id="clip_21">
<path transform="matrix(1,0,0,-1,0,91)" d="M1 0H468V90H1Z"/>
</clipPath>
<clipPath id="clip_22">
<path transform="matrix(1,0,0,-1,0,91)" d="M1 0H468V90H1Z"/>
</clipPath>
<clipPath id="clip_23">
<path transform="matrix(1,0,0,-1,0,91)" d="M1 0H468V90H1Z"/>
</clipPath>
<clipPath id="clip_24">
<path transform="matrix(1,0,0,-1,0,91)" d="M1 0H468V90H1Z"/>
</clipPath>
<clipPath id="clip_25">
<path transform="matrix(1,0,0,-1,0,91)" d="M1 0H468V90H1Z"/>
</clipPath>
<clipPath id="clip_26">
<path transform="matrix(1,0,0,-1,0,91)" d="M1 0H468V90H1Z"/>
</clipPath>
<clipPath id="clip_27">
<path transform="matrix(1,0,0,-1,0,91)" d="M1 0H468V90H1Z"/>
</clipPath>
<clipPath id="clip_28">
<path transform="matrix(1,0,0,-1,0,91)" d="M1 0H468V90H1Z"/>
</clipPath>
<clipPath id="clip_29">
<path transform="matrix(1,0,0,-1,0,91)" d="M1 0H468V90H1Z"/>
</clipPath>
<clipPath id="clip_30">
<path transform="matrix(1,0,0,-1,0,91)" d="M1 0H468V90H1Z"/>
</clipPath>
<clipPath id="clip_31">
<path transform="matrix(1,0,0,-1,0,91)" d="M1 0H468V90H1Z"/>
</clipPath>
<clipPath id="clip_32">
<path transform="matrix(1,0,0,-1,0,91)" d="M1 0H468V90H1Z"/>
</clipPath>
<clipPath id="clip_33">
<path transform="matrix(1,0,0,-1,0,91)" d="M1 0H468V90H1Z"/>
</clipPath>
<clipPath id="clip_34">
<path transform="matrix(1,0,0,-1,0,91)" d="M1 0H468V90H1Z"/>
</clipPath>
<clipPath id="clip_35">
<path transform="matrix(1,0,0,-1,0,91)" d="M1 0H468V90H1Z"/>
</clipPath>
<clipPath id="clip_36">
<path transform="matrix(1,0,0,-1,0,91)" d="M1 0H468V90H1Z"/>
</clipPath>
<clipPath id="clip_37">
<path transform="matrix(1,0,0,-1,0,91)" d="M1 0H468V90H1Z"/>
</clipPath>
<clipPath id="clip_38">
<path transform="matrix(1,0,0,-1,0,91)" d="M1 0H468V90H1Z"/>
</clipPath>
<clipPath id="clip_39">
<path transform="matrix(1,0,0,-1,0,91)" d="M1 0H468V90H1Z"/>
</clipPath>
<clipPath id="clip_40">
<path transform="matrix(1,0,0,-1,0,91)" d="M1 0H468V90H1Z"/>
</clipPath>
<clipPath id="clip_41">
<path transform="matrix(1,0,0,-1,0,91)" d="M1 0H468V90H1Z"/>
</clipPath>
<clipPath id="clip_42">
<path transform="matrix(1,0,0,-1,0,91)" d="M1 0H468V90H1Z"/>
</clipPath>
<clipPath id="clip_43">
<path transform="matrix(1,0,0,-1,0,91)" d="M1 0H468V90H1Z"/>
</clipPath>
<clipPath id="clip_44">
<path transform="matrix(1,0,0,-1,0,91)" d="M1 0H468V90H1Z"/>
</clipPath>
<clipPath id="clip_45">
<path transform="matrix(1,0,0,-1,0,91)" d="M1 0H468V90H1Z"/>
</clipPath>
<clipPath id="clip_46">
<path transform="matrix(1,0,0,-1,0,91)" d="M1 0H468V90H1Z"/>
</clipPath>
<clipPath id="clip_47">
<path transform="matrix(1,0,0,-1,0,91)" d="M1 0H468V90H1Z"/>
</clipPath>
<clipPath id="clip_48">
<path transform="matrix(1,0,0,-1,0,91)" d="M1 0H468V90H1Z"/>
</clipPath>
<clipPath id="clip_49">
<path transform="matrix(1,0,0,-1,0,91)" d="M1 0H468V90H1Z"/>
</clipPath>
<clipPath id="clip_50">
<path transform="matrix(1,0,0,-1,0,91)" d="M1 0H468V90H1Z"/>
</clipPath>
<clipPath id="clip_51">
<path transform="matrix(1,0,0,-1,0,91)" d="M1 0H468V90H1Z"/>
</clipPath>
<clipPath id="clip_52">
<path transform="matrix(1,0,0,-1,0,91)" d="M1 0H468V90H1Z"/>
</clipPath>
<clipPath id="clip_53">
<path transform="matrix(1,0,0,-1,0,91)" d="M1 0H468V90H1Z"/>
</clipPath>
<clipPath id="clip_54">
<path transform="matrix(1,0,0,-1,0,91)" d="M1 0H468V90H1Z"/>
</clipPath>
<clipPath id="clip_55">
<path transform="matrix(1,0,0,-1,0,91)" d="M1 0H468V90H1Z"/>
</clipPath>
<clipPath id="clip_56">
<path transform="matrix(1,0,0,-1,0,91)" d="M1 0H468V90H1Z"/>
</clipPath>
<clipPath id="clip_57">
<path transform="matrix(1,0,0,-1,0,91)" d="M1 0H468V90H1Z"/>
</clipPath>
<clipPath id="clip_58">
<path transform="matrix(1,0,0,-1,0,91)" d="M0 0H468V91H0Z"/>
</clipPath>
<clipPath id="clip_59">
<path transform="matrix(1,0,0,-1,0,91)" d="M0 0H468V91H0Z"/>
</clipPath>
<clipPath id="clip_60">
<path transform="matrix(1,0,0,-1,0,91)" d="M0 0H468V91H0Z"/>
</clipPath>
<clipPath id="clip_61">
<path transform="matrix(1,0,0,-1,0,91)" d="M0 0H468V91H0Z"/>
</clipPath>
<clipPath id="clip_62">
<path transform="matrix(1,0,0,-1,0,91)" d="M0 0H468V91H0Z"/>
</clipPath>
<clipPath id="clip_63">
<path transform="matrix(1,0,0,-1,0,91)" d="M0 0H468V91H0Z"/>
</clipPath>
<clipPath id="clip_64">
<path transform="matrix(1,0,0,-1,0,91)" d="M0 0H468V91H0Z"/>
</clipPath>
<clipPath id="clip_65">
<path transform="matrix(1,0,0,-1,0,91)" d="M0 0H468V91H0Z"/>
</clipPath>
<clipPath id="clip_66">
<path transform="matrix(1,0,0,-1,0,91)" d="M0 0H468V91H0Z"/>
</clipPath>
<clipPath id="clip_67">
<path transform="matrix(1,0,0,-1,0,91)" d="M0 0H468V91H0Z"/>
</clipPath>
<clipPath id="clip_68">
<path transform="matrix(1,0,0,-1,0,91)" d="M0 0H468V91H0Z"/>
</clipPath>
<clipPath id="clip_69">
<path transform="matrix(1,0,0,-1,0,91)" d="M0 0H468V91H0Z"/>
</clipPath>
<clipPath id="clip_70">
<path transform="matrix(1,0,0,-1,0,91)" d="M0 0H468V91H0Z"/>
</clipPath>
<clipPath id="clip_71">
<path transform="matrix(1,0,0,-1,0,91)" d="M0 0H468V91H0Z"/>
</clipPath>
<clipPath id="clip_72">
<path transform="matrix(1,0,0,-1,0,91)" d="M0 0H468V91H0Z"/>
</clipPath>
<clipPath id="clip_73">
<path transform="matrix(1,0,0,-1,0,91)" d="M0 0H468V91H0Z"/>
</clipPath>
<clipPath id="clip_74">
<path transform="matrix(1,0,0,-1,0,91)" d="M0 0H468V91H0Z"/>
</clipPath>
<clipPath id="clip_75">
<path transform="matrix(1,0,0,-1,0,91)" d="M0 0H468V91H0Z"/>
</clipPath>
<clipPath id="clip_76">
<path transform="matrix(1,0,0,-1,0,91)" d="M0 0H468V91H0Z"/>
</clipPath>
<clipPath id="clip_77">
<path transform="matrix(1,0,0,-1,0,91)" d="M0 0H468V91H0Z"/>
</clipPath>
<clipPath id="clip_78">
<path transform="matrix(1,0,0,-1,0,91)" d="M0 0H468V91H0Z"/>
</clipPath>
<clipPath id="clip_79">
<path transform="matrix(1,0,0,-1,0,91)" d="M0 0H468V91H0Z"/>
</clipPath>
<clipPath id="clip_80">
<path transform="matrix(1,0,0,-1,0,91)" d="M0 0H468V91H0Z"/>
</clipPath>
<clipPath id="clip_81">
<path transform="matrix(1,0,0,-1,0,91)" d="M0 0H468V91H0Z"/>
</clipPath>
<clipPath id="clip_82">
<path transform="matrix(1,0,0,-1,0,91)" d="M0 0H468V91H0Z"/>
</clipPath>
<clipPath id="clip_83">
<path transform="matrix(1,0,0,-1,0,91)" d="M0 0H468V91H0Z"/>
</clipPath>
<clipPath id="clip_84">
<path transform="matrix(1,0,0,-1,0,91)" d="M0 0H468V91H0Z"/>
</clipPath>
<clipPath id="clip_85">
<path transform="matrix(1,0,0,-1,0,91)" d="M0 0H468V91H0Z"/>
</clipPath>
<clipPath id="clip_86">
<path transform="matrix(1,0,0,-1,0,91)" d="M0 0H468V91H0Z"/>
</clipPath>
<clipPath id="clip_87">
<path transform="matrix(1,0,0,-1,0,91)" d="M0 0H468V91H0Z"/>
</clipPath>
<clipPath id="clip_88">
<path transform="matrix(1,0,0,-1,0,91)" d="M0 0H468V91H0Z"/>
</clipPath>
<clipPath id="clip_89">
<path transform="matrix(1,0,0,-1,0,91)" d="M0 0H468V91H0Z"/>
</clipPath>
</defs>
<g clip-path="url(#clip_0)">
<path transform="matrix(1,0,0,-1,0,91)" d="M42 72H94V91H42Z" fill="#ff0000"/>
</g>
<g clip-path="url(#clip_1)">
<path transform="matrix(1,0,0,-1,0,91)" d="M93 72H111V91H93Z" fill="#00b050"/>
</g>
<g clip-path="url(#clip_2)">
<path transform="matrix(1,0,0,-1,0,91)" d="M110 72H162V91H110Z" fill="#ff0000"/>
</g>
<g clip-path="url(#clip_3)">
<path transform="matrix(1,0,0,-1,0,91)" d="M161 72H179V91H161Z" fill="#00b050"/>
</g>
<g clip-path="url(#clip_4)">
<path transform="matrix(1,0,0,-1,0,91)" d="M178 72H196V91H178Z" fill="#ff0000"/>
</g>
<g clip-path="url(#clip_5)">
<path transform="matrix(1,0,0,-1,0,91)" d="M195 72H213V91H195Z" fill="#00b050"/>
</g>
<g clip-path="url(#clip_6)">
<path transform="matrix(1,0,0,-1,0,91)" d="M212 72H349V91H212Z" fill="#ff0000"/>
</g>
<g clip-path="url(#clip_7)">
<path transform="matrix(1,0,0,-1,0,91)" d="M348 72H366V91H348Z" fill="#00b050"/>
</g>
<g clip-path="url(#clip_8)">
<path transform="matrix(1,0,0,-1,0,91)" d="M365 72H417V91H365Z" fill="#ff0000"/>
</g>
<g clip-path="url(#clip_9)">
<path transform="matrix(1,0,0,-1,0,91)" d="M416 72H434V91H416Z" fill="#00b050"/>
</g>
<g clip-path="url(#clip_10)">
<path transform="matrix(1,0,0,-1,0,91)" d="M433 72H468V91H433Z" fill="#ff0000"/>
</g>
<g clip-path="url(#clip_11)">
<path transform="matrix(1,0,0,-1,0,91)" d="M42 54H60V73H42Z" fill="#00b050"/>
</g>
<g clip-path="url(#clip_12)">
<path transform="matrix(1,0,0,-1,0,91)" d="M59 54H128V73H59Z" fill="#ff0000"/>
</g>
<g clip-path="url(#clip_13)">
<path transform="matrix(1,0,0,-1,0,91)" d="M127 54H145V73H127Z" fill="#00b050"/>
</g>
<g clip-path="url(#clip_14)">
<path transform="matrix(1,0,0,-1,0,91)" d="M144 54H230V73H144Z" fill="#ff0000"/>
</g>
<g clip-path="url(#clip_15)">
<path transform="matrix(1,0,0,-1,0,91)" d="M229 54H247V73H229Z" fill="#00b050"/>
</g>
<g clip-path="url(#clip_16)">
<path transform="matrix(1,0,0,-1,0,91)" d="M246 54H315V73H246Z" fill="#ff0000"/>
</g>
<g clip-path="url(#clip_17)">
<path transform="matrix(1,0,0,-1,0,91)" d="M314 54H332V73H314Z" fill="#00b050"/>
</g>
<g clip-path="url(#clip_18)">
<path transform="matrix(1,0,0,-1,0,91)" d="M331 54H383V73H331Z" fill="#ff0000"/>
</g>
<g clip-path="url(#clip_19)">
<path transform="matrix(1,0,0,-1,0,91)" d="M382 54H400V73H382Z" fill="#00b050"/>
</g>
<g clip-path="url(#clip_20)">
<path transform="matrix(1,0,0,-1,0,91)" d="M399 54H468V73H399Z" fill="#ff0000"/>
</g>
<g clip-path="url(#clip_21)">
<path transform="matrix(1,0,0,-1,0,91)" d="M42 36H77V55H42Z" fill="#ff0000"/>
</g>
<g clip-path="url(#clip_22)">
<path transform="matrix(1,0,0,-1,0,91)" d="M76 36H94V55H76Z" fill="#00b050"/>
</g>
<g clip-path="url(#clip_23)">
<path transform="matrix(1,0,0,-1,0,91)" d="M93 36H145V55H93Z" fill="#ff0000"/>
</g>
<g clip-path="url(#clip_24)">
<path transform="matrix(1,0,0,-1,0,91)" d="M144 36H162V55H144Z" fill="#00b050"/>
</g>
<g clip-path="url(#clip_25)">
<path transform="matrix(1,0,0,-1,0,91)" d="M161 36H264V55H161Z" fill="#ff0000"/>
</g>
<g clip-path="url(#clip_26)">
<path transform="matrix(1,0,0,-1,0,91)" d="M263 36H281V55H263Z" fill="#00b050"/>
</g>
<g clip-path="url(#clip_27)">
<path transform="matrix(1,0,0,-1,0,91)" d="M280 36H366V55H280Z" fill="#ff0000"/>
</g>
<g clip-path="url(#clip_28)">
<path transform="matrix(1,0,0,-1,0,91)" d="M365 36H383V55H365Z" fill="#00b050"/>
</g>
<g clip-path="url(#clip_29)">
<path transform="matrix(1,0,0,-1,0,91)" d="M382 36H451V55H382Z" fill="#ff0000"/>
</g>
<g clip-path="url(#clip_30)">
<path transform="matrix(1,0,0,-1,0,91)" d="M450 36H468V55H450Z" fill="#00b050"/>
</g>
<g clip-path="url(#clip_31)">
<path transform="matrix(1,0,0,-1,0,91)" d="M42 18H111V37H42Z" fill="#ff0000"/>
</g>
<g clip-path="url(#clip_32)">
<path transform="matrix(1,0,0,-1,0,91)" d="M110 18H128V37H110Z" fill="#00b050"/>
</g>
<g clip-path="url(#clip_33)">
<path transform="matrix(1,0,0,-1,0,91)" d="M127 18H179V37H127Z" fill="#ff0000"/>
</g>
<g clip-path="url(#clip_34)">
<path transform="matrix(1,0,0,-1,0,91)" d="M178 18H196V37H178Z" fill="#00b050"/>
</g>
<g clip-path="url(#clip_35)">
<path transform="matrix(1,0,0,-1,0,91)" d="M195 18H315V37H195Z" fill="#ff0000"/>
</g>
<g clip-path="url(#clip_36)">
<path transform="matrix(1,0,0,-1,0,91)" d="M314 18H332V37H314Z" fill="#00b050"/>
</g>
<g clip-path="url(#clip_37)">
<path transform="matrix(1,0,0,-1,0,91)" d="M331 18H349V37H331Z" fill="#ff0000"/>
</g>
<g clip-path="url(#clip_38)">
<path transform="matrix(1,0,0,-1,0,91)" d="M348 18H366V37H348Z" fill="#00b050"/>
</g>
<g clip-path="url(#clip_39)">
<path transform="matrix(1,0,0,-1,0,91)" d="M365 18H400V37H365Z" fill="#ff0000"/>
</g>
<g clip-path="url(#clip_40)">
<path transform="matrix(1,0,0,-1,0,91)" d="M399 18H417V37H399Z" fill="#00b050"/>
</g>
<g clip-path="url(#clip_41)">
<path transform="matrix(1,0,0,-1,0,91)" d="M416 18H468V37H416Z" fill="#ff0000"/>
</g>
<g clip-path="url(#clip_42)">
<path transform="matrix(1,0,0,-1,0,91)" d="M42 0H77V19H42Z" fill="#ff0000"/>
</g>
<g clip-path="url(#clip_43)">
<path transform="matrix(1,0,0,-1,0,91)" d="M76 0H94V19H76Z" fill="#00b050"/>
</g>
<g clip-path="url(#clip_44)">
<path transform="matrix(1,0,0,-1,0,91)" d="M93 0H128V19H93Z" fill="#ff0000"/>
</g>
<g clip-path="url(#clip_45)">
<path transform="matrix(1,0,0,-1,0,91)" d="M127 0H145V19H127Z" fill="#00b050"/>
</g>
<g clip-path="url(#clip_46)">
<path transform="matrix(1,0,0,-1,0,91)" d="M144 0H213V19H144Z" fill="#ff0000"/>
</g>
<g clip-path="url(#clip_47)">
<path transform="matrix(1,0,0,-1,0,91)" d="M212 0H230V19H212Z" fill="#00b050"/>
</g>
<g clip-path="url(#clip_48)">
<path transform="matrix(1,0,0,-1,0,91)" d="M229 0H366V19H229Z" fill="#ff0000"/>
</g>
<g clip-path="url(#clip_49)">
<path transform="matrix(1,0,0,-1,0,91)" d="M365 0H383V19H365Z" fill="#00b050"/>
</g>
<g clip-path="url(#clip_50)">
<path transform="matrix(1,0,0,-1,0,91)" d="M382 0H417V19H382Z" fill="#ff0000"/>
</g>
<g clip-path="url(#clip_51)">
<path transform="matrix(1,0,0,-1,0,91)" d="M416 0H434V19H416Z" fill="#00b050"/>
</g>
<g clip-path="url(#clip_52)">
<path transform="matrix(1,0,0,-1,0,91)" d="M433 0H468V19H433Z" fill="#ff0000"/>
</g>
<g clip-path="url(#clip_53)">
<text xml:space="preserve" transform="matrix(1 0 -0 1 3 14)" font-size="12" font-family="Calibri"><tspan y="0" x="0 6.9996006 13.0032019 19.006802 22.0104 28.014002">Bag 1 </tspan></text>
</g>
<g clip-path="url(#clip_54)">
<text xml:space="preserve" transform="matrix(1 0 -0 1 3 32)" font-size="12" font-family="Calibri"><tspan y="0" x="0 6.9996006 13.0032019 19.006802 22.0104">Bag 2</tspan></text>
</g>
<g clip-path="url(#clip_55)">
<text xml:space="preserve" transform="matrix(1 0 -0 1 3 50)" font-size="12" font-family="Calibri"><tspan y="0" x="0 6.9996006 13.0032019 19.006802 22.0104">Bag 3</tspan></text>
</g>
<g clip-path="url(#clip_56)">
<text xml:space="preserve" transform="matrix(1 0 -0 1 3 68)" font-size="12" font-family="Calibri"><tspan y="0" x="0 6.9996006 13.0032019 19.006802 22.0104">Bag 4</tspan></text>
</g>
<g clip-path="url(#clip_57)">
<text xml:space="preserve" transform="matrix(1 0 -0 1 3 86)" font-size="12" font-family="Calibri"><tspan y="0" x="0 6.9996006 13.0032019 19.006802 22.0104">Bag 5</tspan></text>
</g>
<g clip-path="url(#clip_58)">
<path transform="matrix(1,0,0,-1,0,91)" d="M41-1H44V92H41Z" fill="#ffffff"/>
</g>
<g clip-path="url(#clip_59)">
<path transform="matrix(1,0,0,-1,0,91)" d="M58-1H61V89H58Z" fill="#ffffff"/>
</g>
<g clip-path="url(#clip_60)">
<path transform="matrix(1,0,0,-1,0,91)" d="M75-1H78V89H75Z" fill="#ffffff"/>
</g>
<g clip-path="url(#clip_61)">
<path transform="matrix(1,0,0,-1,0,91)" d="M92-1H95V89H92Z" fill="#ffffff"/>
</g>
<g clip-path="url(#clip_62)">
<path transform="matrix(1,0,0,-1,0,91)" d="M109-1H112V89H109Z" fill="#ffffff"/>
</g>
<g clip-path="url(#clip_63)">
<path transform="matrix(1,0,0,-1,0,91)" d="M126-1H129V89H126Z" fill="#ffffff"/>
</g>
<g clip-path="url(#clip_64)">
<path transform="matrix(1,0,0,-1,0,91)" d="M143-1H146V89H143Z" fill="#ffffff"/>
</g>
<g clip-path="url(#clip_65)">
<path transform="matrix(1,0,0,-1,0,91)" d="M160-1H163V89H160Z" fill="#ffffff"/>
</g>
<g clip-path="url(#clip_66)">
<path transform="matrix(1,0,0,-1,0,91)" d="M177-1H180V89H177Z" fill="#ffffff"/>
</g>
<g clip-path="url(#clip_67)">
<path transform="matrix(1,0,0,-1,0,91)" d="M194-1H197V89H194Z" fill="#ffffff"/>
</g>
<g clip-path="url(#clip_68)">
<path transform="matrix(1,0,0,-1,0,91)" d="M211-1H214V89H211Z" fill="#ffffff"/>
</g>
<g clip-path="url(#clip_69)">
<path transform="matrix(1,0,0,-1,0,91)" d="M228-1H231V89H228Z" fill="#ffffff"/>
</g>
<g clip-path="url(#clip_70)">
<path transform="matrix(1,0,0,-1,0,91)" d="M245-1H248V89H245Z" fill="#ffffff"/>
</g>
<g clip-path="url(#clip_71)">
<path transform="matrix(1,0,0,-1,0,91)" d="M262-1H265V89H262Z" fill="#ffffff"/>
</g>
<g clip-path="url(#clip_72)">
<path transform="matrix(1,0,0,-1,0,91)" d="M279-1H282V89H279Z" fill="#ffffff"/>
</g>
<g clip-path="url(#clip_73)">
<path transform="matrix(1,0,0,-1,0,91)" d="M296-1H299V89H296Z" fill="#ffffff"/>
</g>
<g clip-path="url(#clip_74)">
<path transform="matrix(1,0,0,-1,0,91)" d="M313-1H316V89H313Z" fill="#ffffff"/>
</g>
<g clip-path="url(#clip_75)">
<path transform="matrix(1,0,0,-1,0,91)" d="M330-1H333V89H330Z" fill="#ffffff"/>
</g>
<g clip-path="url(#clip_76)">
<path transform="matrix(1,0,0,-1,0,91)" d="M347-1H350V89H347Z" fill="#ffffff"/>
</g>
<g clip-path="url(#clip_77)">
<path transform="matrix(1,0,0,-1,0,91)" d="M364-1H367V89H364Z" fill="#ffffff"/>
</g>
<g clip-path="url(#clip_78)">
<path transform="matrix(1,0,0,-1,0,91)" d="M381-1H384V89H381Z" fill="#ffffff"/>
</g>
<g clip-path="url(#clip_79)">
<path transform="matrix(1,0,0,-1,0,91)" d="M398-1H401V89H398Z" fill="#ffffff"/>
</g>
<g clip-path="url(#clip_80)">
<path transform="matrix(1,0,0,-1,0,91)" d="M415-1H418V89H415Z" fill="#ffffff"/>
</g>
<g clip-path="url(#clip_81)">
<path transform="matrix(1,0,0,-1,0,91)" d="M432-1H435V89H432Z" fill="#ffffff"/>
</g>
<g clip-path="url(#clip_82)">
<path transform="matrix(1,0,0,-1,0,91)" d="M449-1H452V89H449Z" fill="#ffffff"/>
</g>
<g clip-path="url(#clip_83)">
<path transform="matrix(1,0,0,-1,0,91)" d="M466-1H469V89H466Z" fill="#ffffff"/>
</g>
<g clip-path="url(#clip_84)">
<path transform="matrix(1,0,0,-1,0,91)" d="M44 89H469V92H44Z" fill="#ffffff"/>
</g>
<g clip-path="url(#clip_85)">
<path transform="matrix(1,0,0,-1,0,91)" d="M44 71H469V74H44Z" fill="#ffffff"/>
</g>
<g clip-path="url(#clip_86)">
<path transform="matrix(1,0,0,-1,0,91)" d="M44 53H469V56H44Z" fill="#ffffff"/>
</g>
<g clip-path="url(#clip_87)">
<path transform="matrix(1,0,0,-1,0,91)" d="M44 35H469V38H44Z" fill="#ffffff"/>
</g>
<g clip-path="url(#clip_88)">
<path transform="matrix(1,0,0,-1,0,91)" d="M44 17H469V20H44Z" fill="#ffffff"/>
</g>
<g clip-path="url(#clip_89)">
<path transform="matrix(1,0,0,-1,0,91)" d="M44-1H469V2H44Z" fill="#ffffff"/>
</g>
</svg>
