<svg xmlns="http://www.w3.org/2000/svg" xmlns:xlink="http://www.w3.org/1999/xlink" version="1.1" width="526pt" height="440.00004pt" viewBox="0 0 526 440.00004">
<defs>
<clipPath id="clip_0">
<path d="M0 .5H526V440H0Z"/>
</clipPath>
<clipPath id="clip_1">
<path d="M0 0H526V441H0Z"/>
</clipPath>
</defs>
<g>
<path d="M0 .5H526.5V440H0Z" fill="#ffffff"/>
<g clip-path="url(#clip_0)">
<g clip-path="url(#clip_1)">
<path transform="matrix(1,0,0,-1,0,0)" d="M75.23-90.77H92.23801V-366.559H75.23Z" fill="#bebebe"/>
<path transform="matrix(1,0,0,-1,0,0)" stroke-width=".75" stroke-linecap="round" stroke-linejoin="round" fill="none" stroke="#000000" d="M75.23-90.77H92.23801V-366.559H75.23Z"/>
<path transform="matrix(1,0,0,-1,0,0)" d="M95.648-90.77H112.66V-137.329H95.648Z" fill="#bebebe"/>
<path transform="matrix(1,0,0,-1,0,0)" stroke-width=".75" stroke-linecap="round" stroke-linejoin="round" fill="none" stroke="#000000" d="M95.648-90.77H112.66V-137.329H95.648Z"/>
<path transform="matrix(1,0,0,-1,0,0)" d="M116.059-59.539H133.071V-90.769H116.059Z" fill="#bebebe"/>
<path transform="matrix(1,0,0,-1,0,0)" stroke-width=".75" stroke-linecap="round" stroke-linejoin="round" fill="none" stroke="#000000" d="M116.059-59.539H133.071V-90.769H116.059Z"/>
<path transform="matrix(1,0,0,-1,0,0)" d="M136.469-90.77H153.48099V-120.42999H136.469Z" fill="#bebebe"/>
<path transform="matrix(1,0,0,-1,0,0)" stroke-width=".75" stroke-linecap="round" stroke-linejoin="round" fill="none" stroke="#000000" d="M136.469-90.77H153.48099V-120.42999H136.469Z"/>
<path transform="matrix(1,0,0,-1,0,0)" d="M156.879-61.469H173.89099V-90.770008H156.879Z" fill="#bebebe"/>
<path transform="matrix(1,0,0,-1,0,0)" stroke-width=".75" stroke-linecap="round" stroke-linejoin="round" fill="none" stroke="#000000" d="M156.879-61.469H173.89099V-90.770008H156.879Z"/>
<path transform="matrix(1,0,0,-1,0,0)" d="M177.289-61.711H194.301V-90.77H177.289Z" fill="#bebebe"/>
<path transform="matrix(1,0,0,-1,0,0)" stroke-width=".75" stroke-linecap="round" stroke-linejoin="round" fill="none" stroke="#000000" d="M177.289-61.711H194.301V-90.77H177.289Z"/>
<path transform="matrix(1,0,0,-1,0,0)" d="M197.699-90.77H214.711V-118.172H197.699Z" fill="#bebebe"/>
<path transform="matrix(1,0,0,-1,0,0)" stroke-width=".75" stroke-linecap="round" stroke-linejoin="round" fill="none" stroke="#000000" d="M197.699-90.77H214.711V-118.172H197.699Z"/>
<path transform="matrix(1,0,0,-1,0,0)" d="M218.121-65.051H235.129V-90.770008H218.121Z" fill="#bebebe"/>
<path transform="matrix(1,0,0,-1,0,0)" stroke-width=".75" stroke-linecap="round" stroke-linejoin="round" fill="none" stroke="#000000" d="M218.121-65.051H235.129V-90.770008H218.121Z"/>
<path transform="matrix(1,0,0,-1,0,0)" d="M238.531-65.5H255.539V-90.770008H238.531Z" fill="#bebebe"/>
<path transform="matrix(1,0,0,-1,0,0)" stroke-width=".75" stroke-linecap="round" stroke-linejoin="round" fill="none" stroke="#000000" d="M238.531-65.5H255.539V-90.770008H238.531Z"/>
<path transform="matrix(1,0,0,-1,0,0)" d="M258.941-66.512H275.949V-90.770008H258.941Z" fill="#bebebe"/>
<path transform="matrix(1,0,0,-1,0,0)" stroke-width=".75" stroke-linecap="round" stroke-linejoin="round" fill="none" stroke="#000000" d="M258.941-66.512H275.949V-90.770008H258.941Z"/>
<path transform="matrix(1,0,0,-1,0,0)" d="M279.352-66.629H296.36V-90.77H279.352Z" fill="#bebebe"/>
<path transform="matrix(1,0,0,-1,0,0)" stroke-width=".75" stroke-linecap="round" stroke-linejoin="round" fill="none" stroke="#000000" d="M279.352-66.629H296.36V-90.77H279.352Z"/>
<path transform="matrix(1,0,0,-1,0,0)" d="M299.762-66.629H316.77V-90.77H299.762Z" fill="#bebebe"/>
<path transform="matrix(1,0,0,-1,0,0)" stroke-width=".75" stroke-linecap="round" stroke-linejoin="round" fill="none" stroke="#000000" d="M299.762-66.629H316.77V-90.77H299.762Z"/>
<path transform="matrix(1,0,0,-1,0,0)" d="M320.172-66.77H337.18V-90.77H320.172Z" fill="#bebebe"/>
<path transform="matrix(1,0,0,-1,0,0)" stroke-width=".75" stroke-linecap="round" stroke-linejoin="round" fill="none" stroke="#000000" d="M320.172-66.77H337.18V-90.77H320.172Z"/>
<path transform="matrix(1,0,0,-1,0,0)" d="M340.59-66.809H357.602V-90.77H340.59Z" fill="#bebebe"/>
<path transform="matrix(1,0,0,-1,0,0)" stroke-width=".75" stroke-linecap="round" stroke-linejoin="round" fill="none" stroke="#000000" d="M340.59-66.809H357.602V-90.77H340.59Z"/>
<path transform="matrix(1,0,0,-1,0,0)" d="M361-66.898H378.012V-90.769008H361Z" fill="#bebebe"/>
<path transform="matrix(1,0,0,-1,0,0)" stroke-width=".75" stroke-linecap="round" stroke-linejoin="round" fill="none" stroke="#000000" d="M361-66.898H378.012V-90.769008H361Z"/>
<path transform="matrix(1,0,0,-1,0,0)" d="M381.41-67.359H398.418V-90.769H381.41Z" fill="#bebebe"/>
<path transform="matrix(1,0,0,-1,0,0)" stroke-width=".75" stroke-linecap="round" stroke-linejoin="round" fill="none" stroke="#000000" d="M381.41-67.359H398.418V-90.769H381.41Z"/>
<path transform="matrix(1,0,0,-1,0,0)" d="M401.82-67.391H418.832V-90.77H401.82Z" fill="#bebebe"/>
<path transform="matrix(1,0,0,-1,0,0)" stroke-width=".75" stroke-linecap="round" stroke-linejoin="round" fill="none" stroke="#000000" d="M401.82-67.391H418.832V-90.77H401.82Z"/>
<path transform="matrix(1,0,0,-1,0,0)" d="M422.23-90.77H439.238V-114.03999H422.23Z" fill="#bebebe"/>
<path transform="matrix(1,0,0,-1,0,0)" stroke-width=".75" stroke-linecap="round" stroke-linejoin="round" fill="none" stroke="#000000" d="M422.23-90.77H439.238V-114.03999H422.23Z"/>
<path transform="matrix(1,0,0,-1,0,0)" d="M442.648-68.301H459.66V-90.770008H442.648Z" fill="#bebebe"/>
<path transform="matrix(1,0,0,-1,0,0)" stroke-width=".75" stroke-linecap="round" stroke-linejoin="round" fill="none" stroke="#000000" d="M442.648-68.301H459.66V-90.770008H442.648Z"/>
<path transform="matrix(1,0,0,-1,0,0)" d="M463.059-90.77H480.07099V-112.300998H463.059Z" fill="#bebebe"/>
<path transform="matrix(1,0,0,-1,0,0)" stroke-width=".75" stroke-linecap="round" stroke-linejoin="round" fill="none" stroke="#000000" d="M463.059-90.77H480.07099V-112.300998H463.059Z"/>
<path transform="matrix(1,0,0,-1,0,0)" stroke-width=".75" stroke-linecap="round" stroke-linejoin="round" fill="none" stroke="#000000" d="M59.039-350.668V-90.77"/>
<path transform="matrix(1,0,0,-1,0,0)" stroke-width=".75" stroke-linecap="round" stroke-linejoin="round" fill="none" stroke="#000000" d="M59.039-350.668H51.84"/>
<path transform="matrix(1,0,0,-1,0,0)" stroke-width=".75" stroke-linecap="round" stroke-linejoin="round" fill="none" stroke="#000000" d="M59.039-285.691H51.84"/>
<path transform="matrix(1,0,0,-1,0,0)" stroke-width=".75" stroke-linecap="round" stroke-linejoin="round" fill="none" stroke="#000000" d="M59.039-220.719H51.84"/>
<path transform="matrix(1,0,0,-1,0,0)" stroke-width=".75" stroke-linecap="round" stroke-linejoin="round" fill="none" stroke="#000000" d="M59.039-155.738H51.84"/>
<path transform="matrix(1,0,0,-1,0,0)" stroke-width=".75" stroke-linecap="round" stroke-linejoin="round" fill="none" stroke="#000000" d="M59.039-90.77H51.84"/>
<text xml:space="preserve" transform="matrix(0 -1 1 0 0 0)" font-size="12" font-family="NimbusSanL"><tspan y="41.7602" x="-360.8457">&#x2212;</tspan></text>
<text xml:space="preserve" transform="matrix(0 -1 1 0 0 0)" font-size="12" font-family="NimbusSanL"><tspan y="41.7602" x="-353.8377 -347.1657">40</tspan></text>
<text xml:space="preserve" transform="matrix(0 -1 1 0 0 0)" font-size="12" font-family="NimbusSanL"><tspan y="41.7602" x="-295.86573">&#x2212;</tspan></text>
<text xml:space="preserve" transform="matrix(0 -1 1 0 0 0)" font-size="12" font-family="NimbusSanL"><tspan y="41.7602" x="-288.85774 -282.18574">30</tspan></text>
<text xml:space="preserve" transform="matrix(0 -1 1 0 0 0)" font-size="12" font-family="NimbusSanL"><tspan y="41.7602" x="-230.89774">&#x2212;</tspan></text>
<text xml:space="preserve" transform="matrix(0 -1 1 0 0 0)" font-size="12" font-family="NimbusSanL"><tspan y="41.7602" x="-223.88974 -217.21775">20</tspan></text>
<text xml:space="preserve" transform="matrix(0 -1 1 0 0 0)" font-size="12" font-family="NimbusSanL"><tspan y="41.7602" x="-165.91774">&#x2212;</tspan></text>
<text xml:space="preserve" transform="matrix(0 -1 1 0 0 0)" font-size="12" font-family="NimbusSanL"><tspan y="41.7602" x="-158.90975 -152.23775 -94.10975">100</tspan></text>
<text xml:space="preserve" transform="matrix(.70710679 -.70710679 .70710679 .70710679 0 0)" font-size="7.000005" font-family="NimbusSanL"><tspan y="321.30213" x="-248.60828 -247.05428">le</tspan><tspan y="321.3021" x="-243.16226">n</tspan><tspan y="321.30213" x="-239.27028">g</tspan><tspan y="321.3021" x="-235.37827">t</tspan><tspan y="321.30207" x="-233.43224 -229.54022 -226.04022 -222.14821">hs_b</tspan><tspan y="321.30204" x="-218.2562 -214.36418 -210.4722 -208.91819">ehin</tspan><tspan y="321.302" x="-205.02617">d</tspan><tspan y="335.79817" x="-256.9237">h</tspan><tspan y="335.79814" x="-253.03171 -249.1397 -246.80869 -243.30869">orse</tspan><tspan y="335.7981" x="-239.41669 -235.52466">_g</tspan><tspan y="335.79808" x="-231.63265 -227.74063 -223.84865">ear</tspan><tspan y="335.7981" x="-221.51766">P</tspan></text>
<text xml:space="preserve" transform="matrix(.70710679 -.70710679 .70710679 .70710679 0 0)" font-size="7.000005" font-family="NimbusSanL"><tspan y="335.7981" x="-216.84865">&#x2212;</tspan></text>
<text xml:space="preserve" transform="matrix(.70710679 -.70710679 .70710679 .70710679 0 0)" font-size="7.000005" font-family="NimbusSanL"><tspan y="335.79808" x="-212.76064 -210.8146">/E</tspan><tspan y="335.7981" x="-206.14563">1</tspan><tspan y="335.79808" x="-202.25363">/</tspan><tspan y="335.79804" x="-200.3076 -195.6386 -190.5846">PC1</tspan><tspan y="350.16627" x="-216.23688 -212.34487">ho</tspan><tspan y="350.16624" x="-208.45285 -206.12186 -202.62186 -198.72983">rse_</tspan><tspan y="350.1662" x="-194.83783">g</tspan><tspan y="350.16624" x="-190.94583">e</tspan><tspan y="350.1662" x="-187.05384 -183.1618 -180.83081 -176.1618">arB1</tspan><tspan y="364.66227" x="-217.74253">h</tspan><tspan y="364.66224" x="-213.85051 -209.9585">or</tspan><tspan y="364.66227" x="-207.62754">s</tspan><tspan y="364.66224" x="-204.12749">e</tspan><tspan y="364.66227" x="-200.2355">_</tspan><tspan y="364.66224" x="-196.34349 -192.45148 -188.55947">gea</tspan><tspan y="364.6622" x="-184.66745 -182.33646 -177.28244 -172.61344">rCP1</tspan><tspan y="364.66218" x="-168.72144">/</tspan><tspan y="364.6622" x="-166.77542">H</tspan><tspan y="364.66218" x="-161.72142">1</tspan><tspan y="379.09449" x="-217.70882">h</tspan><tspan y="379.09446" x="-213.8168 -209.92478">or</tspan><tspan y="379.09449" x="-207.59381">s</tspan><tspan y="379.09446" x="-204.09378">e</tspan><tspan y="379.09443" x="-200.20177">_</tspan><tspan y="379.09446" x="-196.30979 -192.41776">ge</tspan><tspan y="379.09443" x="-188.52576 -184.63373 -182.30274 -178.02576 -173.74877 -169.85675 -167.91072">arTT1/E</tspan></text>
<text xml:space="preserve" transform="matrix(.70710679 -.70710679 .70710679 .70710679 0 0)" font-size="7.000005" font-family="NimbusSanL"><tspan y="379.09443" x="-163.24172">&#x2212;</tspan></text>
<text xml:space="preserve" transform="matrix(.70710679 -.70710679 .70710679 .70710679 0 0)" font-size="7.000005" font-family="NimbusSanL"><tspan y="379.0944" x="-159.15372">/</tspan><tspan y="379.09443" x="-157.2077 -152.5387">PC</tspan></text>
<text xml:space="preserve" transform="matrix(.70710679 -.70710679 .70710679 .70710679 0 0)" font-size="7.000005" font-family="NimbusSanL"><tspan y="379.09443" x="-147.4847">&#x2212;</tspan></text>
<text xml:space="preserve" transform="matrix(.70710679 -.70710679 .70710679 .70710679 0 0)" font-size="7.000005" font-family="NimbusSanL"><tspan y="393.5336" x="-194.90494 -191.01291">ho</tspan><tspan y="393.53358" x="-187.12091 -184.7899 -181.2899 -177.39789 -173.50588">rse_g</tspan><tspan y="393.53355" x="-169.61386">e</tspan><tspan y="393.5335" x="-165.72185 -161.82984 -159.49884 -155.22185">arTT</tspan><tspan y="393.53355" x="-150.94486">/</tspan><tspan y="393.5335" x="-148.99884">B</tspan></text>
<text xml:space="preserve" transform="matrix(.70710679 -.70710679 .70710679 .70710679 0 0)" font-size="7.000005" font-family="NimbusSanL"><tspan y="393.53355" x="-144.32987">&#x2212;</tspan></text>
<text xml:space="preserve" transform="matrix(.70710679 -.70710679 .70710679 .70710679 0 0)" font-size="7.000005" font-family="NimbusSanL"><tspan y="393.53355" x="-140.24185">/</tspan><tspan y="393.5335" x="-138.29582 -133.62682">XB</tspan><tspan y="407.9655" x="-174.25049">h</tspan><tspan y="407.96549" x="-170.35849">o</tspan><tspan y="407.9655" x="-166.46649 -164.1355 -160.6355 -156.74349">rse_</tspan><tspan y="407.96549" x="-152.85147">g</tspan><tspan y="407.96546" x="-148.95946 -145.06745 -141.17543 -138.84442">earB</tspan></text>
<text xml:space="preserve" transform="matrix(.70710679 -.70710679 .70710679 .70710679 0 0)" font-size="7.000005" font-family="NimbusSanL"><tspan y="407.96546" x="-134.17542">&#x2212;</tspan></text>
<text xml:space="preserve" transform="matrix(.70710679 -.70710679 .70710679 .70710679 0 0)" font-size="7.000005" font-family="NimbusSanL"><tspan y="407.96546" x="-130.08742 -128.14142 -123.47241 -118.41841">/PC2</tspan><tspan y="422.39775" x="-145.22428">h</tspan><tspan y="422.3977" x="-141.33226 -137.44025">or</tspan><tspan y="422.39775" x="-135.10929">s</tspan><tspan y="422.3977" x="-131.60926 -127.71724 -123.82526 -119.93324">e_ge</tspan><tspan y="422.39768" x="-116.04123">a</tspan><tspan y="422.39765" x="-112.149219">r</tspan><tspan y="422.39768" x="-109.81821 -105.1492">SR</tspan><tspan y="436.82997" x="-141.49431 -137.6023 -133.71028 -131.37929 -127.87929">horse</tspan><tspan y="436.82994" x="-123.987277">_</tspan><tspan y="436.8299" x="-120.09526 -116.20325 -112.31123 -108.419208 -106.08824 -101.419239">gearPC</tspan></text>
<text xml:space="preserve" transform="matrix(.70710679 -.70710679 .70710679 .70710679 0 0)" font-size="7.000005" font-family="NimbusSanL"><tspan y="436.8299" x="-96.365238">&#x2212;</tspan></text>
<text xml:space="preserve" transform="matrix(.70710679 -.70710679 .70710679 .70710679 0 0)" font-size="7.000005" font-family="NimbusSanL"><tspan y="436.8299" x="-92.27722 -90.33119">/E</tspan><tspan y="451.26188" x="-156.0477">h</tspan><tspan y="451.26185" x="-152.15569 -148.26367 -145.93268 -142.43268 -138.54067">orse_</tspan><tspan y="451.2618" x="-134.64865">g</tspan><tspan y="451.26179" x="-130.75664 -126.864627 -122.972599">ear</tspan><tspan y="451.2618" x="-120.64163">T</tspan><tspan y="451.26179" x="-116.364627 -112.08763 -108.19562 -106.24962">T2/H</tspan></text>
<text xml:space="preserve" transform="matrix(.70710679 -.70710679 .70710679 .70710679 0 0)" font-size="7.000005" font-family="NimbusSanL"><tspan y="451.26179" x="-101.19562">&#x2212;</tspan></text>
<text xml:space="preserve" transform="matrix(.70710679 -.70710679 .70710679 .70710679 0 0)" font-size="7.000005" font-family="NimbusSanL"><tspan y="451.26179" x="-97.107608 -95.161579 -90.49257">/XB</tspan></text>
<text xml:space="preserve" transform="matrix(.70710679 -.70710679 .70710679 .70710679 0 0)" font-size="7.000005" font-family="NimbusSanL"><tspan y="451.26179" x="-85.82356">&#x2212;</tspan></text>
<text xml:space="preserve" transform="matrix(.70710679 -.70710679 .70710679 .70710679 0 0)" font-size="7.000005" font-family="NimbusSanL"><tspan y="451.26179" x="-81.73558 -79.789569 -75.12056">/B1</tspan><tspan y="465.701" x="-122.92665">h</tspan><tspan y="465.70097" x="-119.03464">o</tspan><tspan y="465.70094" x="-115.142627">r</tspan><tspan y="465.701" x="-112.81166">s</tspan><tspan y="465.70094" x="-109.31163 -105.41962 -101.52763 -97.635608 -93.743579 -89.85156 -87.52057 -83.243579 -78.96657 -77.02057 -72.35156 -70.40556 -65.73656 -60.68254">e_gearTT/V/SR1</tspan><tspan y="480.13319" x="-102.08307 -98.19104 -94.29901 -91.96803 -88.46802 -84.576007 -80.683979 -76.79195 -72.89992 -69.00792 -66.67694 -62.007936">horse_gearSR</tspan></text>
<text xml:space="preserve" transform="matrix(.70710679 -.70710679 .70710679 .70710679 0 0)" font-size="7.000005" font-family="NimbusSanL"><tspan y="480.13319" x="-56.95392">&#x2212;</tspan></text>
<text xml:space="preserve" transform="matrix(.70710679 -.70710679 .70710679 .70710679 0 0)" font-size="7.000005" font-family="NimbusSanL"><tspan y="480.13319" x="-52.865907 -50.919878 -46.2509">/B1</tspan><tspan y="494.56538" x="-87.45476 -83.56273 -79.6707 -77.33972 -73.83971 -69.94768 -66.055667 -62.163637 -58.271608 -54.379579 -52.04863 -46.994615 -43.102586 -41.156557 -36.48755 -31.818543">horse_gearH1/XB1</tspan><tspan y="508.99729" x="-69.32712 -65.43509 -61.54306">hor</tspan><tspan y="508.99726" x="-59.212083">s</tspan><tspan y="508.99729" x="-55.712068 -51.820039">e_</tspan><tspan y="508.99726" x="-47.928026 -44.035997 -40.143968">gea</tspan><tspan y="508.9973" x="-36.25197">r</tspan><tspan y="508.99729" x="-33.92099 -29.251984">XB</tspan></text>
<text xml:space="preserve" transform="matrix(.70710679 -.70710679 .70710679 .70710679 0 0)" font-size="7.000005" font-family="NimbusSanL"><tspan y="508.99729" x="-24.582978">&#x2212;</tspan></text>
<text xml:space="preserve" transform="matrix(.70710679 -.70710679 .70710679 .70710679 0 0)" font-size="7.000005" font-family="NimbusSanL"><tspan y="508.99729" x="-20.494965">/</tspan><tspan y="508.99726" x="-18.548935">H</tspan><tspan y="523.4295" x="-73.37421 -69.48219 -65.590167 -63.25917 -59.75917 -55.86714 -51.975114 -48.083086">horse_ge</tspan><tspan y="523.42947" x="-44.19107 -40.29904 -37.96805 -33.69107">arTT</tspan><tspan y="523.4295" x="-29.414078 -25.522049 -23.57605">1/H</tspan></text>
<text xml:space="preserve" transform="matrix(.70710679 -.70710679 .70710679 .70710679 0 0)" font-size="7.000005" font-family="NimbusSanL"><tspan y="523.42947" x="-18.522004">&#x2212;</tspan></text>
<text xml:space="preserve" transform="matrix(.70710679 -.70710679 .70710679 .70710679 0 0)" font-size="7.000005" font-family="NimbusSanL"><tspan y="523.4295" x="-14.434021">/</tspan><tspan y="523.42947" x="-12.488007 -7.8190004">XB</tspan></text>
<text xml:space="preserve" transform="matrix(.70710679 -.70710679 .70710679 .70710679 0 0)" font-size="7.000005" font-family="NimbusSanL"><tspan y="523.42947" x="-3.149994">&#x2212;</tspan></text>
<text xml:space="preserve" transform="matrix(.70710679 -.70710679 .70710679 .70710679 0 0)" font-size="7.000005" font-family="NimbusSanL"><tspan y="537.8614" x="-39.294679">h</tspan><tspan y="537.86148" x="-35.40268 -31.51065 -29.179657 -25.679657 -21.787629 -17.8956 -14.003571 -10.111542 -6.219513">orse_gear</tspan><tspan y="537.8614" x="-3.8885499">T</tspan><tspan y="537.86148" x=".38845826">T</tspan></text>
<text xml:space="preserve" transform="matrix(.70710679 -.70710679 .70710679 .70710679 0 0)" font-size="7.000005" font-family="NimbusSanL"><tspan y="537.86148" x="4.665436">&#x2212;</tspan></text>
<text xml:space="preserve" transform="matrix(.70710679 -.70710679 .70710679 .70710679 0 0)" font-size="7.000005" font-family="NimbusSanL"><tspan y="537.86148" x="8.7534489">/</tspan><tspan y="537.8614" x="10.699463">B</tspan><tspan y="552.30056" x="-34.584444 -30.692414 -26.800385 -24.46939 -20.96939 -17.077363 -13.185333 -9.293304 -5.4012758 -1.5092774 .8217163 5.4907228">horse_gearSR</tspan></text>
<text xml:space="preserve" transform="matrix(.70710679 -.70710679 .70710679 .70710679 0 0)" font-size="7.000005" font-family="NimbusSanL"><tspan y="552.30056" x="10.544739">&#x2212;</tspan></text>
<text xml:space="preserve" transform="matrix(.70710679 -.70710679 .70710679 .70710679 0 0)" font-size="7.000005" font-family="NimbusSanL"><tspan y="552.30056" x="14.632721 16.578766 21.247742 25.916749">/XB1</tspan><tspan y="566.7327" x="-11.389099">h</tspan><tspan y="566.7328" x="-7.497101 -3.605072 -1.2740784 2.2259217 6.1179506 10.009979 13.902008 17.794037">orse_gea</tspan><tspan y="566.7327" x="21.686036 24.017029">rT</tspan><tspan y="566.7328" x="28.294037 32.571016">T/</tspan><tspan y="566.7327" x="34.51703 39.186037">SR</tspan><tspan y="581.1649" x="-15.44278 -11.550751 -7.658783 -5.3277895 -1.8277283 2.0642396 5.9562685 9.848297 13.740326 17.632355 19.963349 24.240326 28.517304 32.409334 34.355379">horse_gearTT1/B</tspan></text>
<text xml:space="preserve" transform="matrix(.70710679 -.70710679 .70710679 .70710679 0 0)" font-size="7.000005" font-family="NimbusSanL"><tspan y="581.1649" x="39.024385">&#x2212;</tspan></text>
<text xml:space="preserve" transform="matrix(.70710679 -.70710679 .70710679 .70710679 0 0)" font-size="7.000005" font-family="NimbusSanL"><tspan y="581.1649" x="43.112398 45.05838 49.727388 54.781404">/SR1</tspan><tspan y="595.5968" x="14.746002 18.638031 22.53006">hor</tspan><tspan y="595.59689" x="24.861023">s</tspan><tspan y="595.5968" x="28.361054 32.253084">e_</tspan><tspan y="595.59689" x="36.14508 40.03711 43.92914 47.821168 50.15216 54.821168 56.76715 61.821168">gearB/H/</tspan><tspan y="595.5968" x="63.76718 68.43619">XB</tspan></text>
</g>
</g>
</g>
</svg>
