<svg xmlns="http://www.w3.org/2000/svg" xmlns:xlink="http://www.w3.org/1999/xlink" version="1.1" width="646.0206pt" height="216.15964pt" viewBox="0 0 646.0206 216.15964">
<g>
<text xml:space="preserve" transform="matrix(1 0 0 1 0 0)" font-size="12" font-family="DejaVuSans"><tspan y="10.99997" x="39.27935 46.887353 54.267354 57.591356 64.97135 71.55935 76.26335 79.58735 86.91935">Selection</tspan></text>
<path transform="matrix(1,0,0,-1,0,0)" stroke-width="1.066667" stroke-linecap="butt" stroke-miterlimit="4" stroke-linejoin="miter" fill="none" stroke="#000000" d="M109.016-35.852C109.016-28.289 102.953-22.227 95.387-22.227 87.824-22.227 81.762-28.289 81.762-35.852 81.762-43.414 87.824-49.48 95.387-49.48 102.953-49.48 109.016-43.414 109.016-35.852ZM109.016-35.852"/>
<text xml:space="preserve" transform="matrix(1 0 0 1 0 0)" font-size="9" font-family="DejaVuSans"><tspan y="38.102724" x="82.4069 88.1309 93.8549 96.8789 102.6029">11/21</tspan></text>
<path transform="matrix(1,0,0,-1,0,0)" d="M35.816-69.996C35.816-63.582 30.672-58.438 24.258-58.438 17.84-58.438 12.695-63.582 12.695-69.996 12.695-76.41 17.84-81.555 24.258-81.555 30.672-81.555 35.816-76.41 35.816-69.996ZM35.816-69.996" fill="#bfbfbf"/>
<path transform="matrix(1,0,0,-1,0,0)" stroke-width="1.066667" stroke-linecap="butt" stroke-miterlimit="4" stroke-linejoin="miter" fill="none" stroke="#000000" d="M35.816-69.996C35.816-63.582 30.672-58.438 24.258-58.438 17.84-58.438 12.695-63.582 12.695-69.996 12.695-76.41 17.84-81.555 24.258-81.555 30.672-81.555 35.816-76.41 35.816-69.996ZM35.816-69.996"/>
<text xml:space="preserve" transform="matrix(1 0 0 1 0 0)" font-size="9" font-family="DejaVuSans"><tspan y="72.245929" x="14.14028 19.86428 22.88828 28.612282">7/10</tspan></text>
<path transform="matrix(1,0,0,-1,0,0)" d="M105.02-69.996C105.02-64.652 100.734-60.367 95.387-60.367 90.043-60.367 85.758-64.652 85.758-69.996 85.758-75.34 90.043-79.625 95.387-79.625 100.734-79.625 105.02-75.34 105.02-69.996ZM105.02-69.996" fill="#bfbfbf"/>
<path transform="matrix(1,0,0,-1,0,0)" stroke-width="1.066667" stroke-linecap="butt" stroke-miterlimit="4" stroke-linejoin="miter" fill="none" stroke="#000000" d="M105.02-69.996C105.02-64.652 100.734-60.367 95.387-60.367 90.043-60.367 85.758-64.652 85.758-69.996 85.758-75.34 90.043-79.625 95.387-79.625 100.734-79.625 105.02-75.34 105.02-69.996ZM105.02-69.996"/>
<text xml:space="preserve" transform="matrix(1 0 0 1 0 0)" font-size="9" font-family="DejaVuSans"><tspan y="72.245929" x="88.137378 93.861377 96.885379">3/8</tspan></text>
<path transform="matrix(1,0,0,-1,0,0)" d="M133.473-69.996C133.473-64.652 129.188-60.367 123.84-60.367 118.496-60.367 114.211-64.652 114.211-69.996 114.211-75.34 118.496-79.625 123.84-79.625 129.188-79.625 133.473-75.34 133.473-69.996ZM133.473-69.996" fill="#bfbfbf"/>
<path transform="matrix(1,0,0,-1,0,0)" stroke-width="1.066667" stroke-linecap="butt" stroke-miterlimit="4" stroke-linejoin="miter" fill="none" stroke="#000000" d="M133.473-69.996C133.473-64.652 129.188-60.367 123.84-60.367 118.496-60.367 114.211-64.652 114.211-69.996 114.211-75.34 118.496-79.625 123.84-79.625 129.188-79.625 133.473-75.34 133.473-69.996ZM133.473-69.996"/>
<text xml:space="preserve" transform="matrix(1 0 0 1 0 0)" font-size="9" font-family="DejaVuSans"><tspan y="72.245929" x="116.59012 122.31412 125.33812">0/3</tspan></text>
<path transform="matrix(1,0,0,-1,0,0)" stroke-width="1.066667" stroke-linecap="butt" stroke-miterlimit="4" stroke-linejoin="miter" fill="none" stroke="#000000" d="M19.66-104.141C19.66-98.793 15.375-94.508 10.031-94.508 4.684-94.508 .398-98.793 .398-104.141 .398-109.484 4.684-113.77 10.031-113.77 15.375-113.77 19.66-109.484 19.66-104.141ZM19.66-104.141"/>
<text xml:space="preserve" transform="matrix(1 0 0 1 0 0)" font-size="9" font-family="DejaVuSans"><tspan y="106.38912" x="2.779144 8.503144 11.527144">2/4</tspan></text>
<path transform="matrix(1,0,0,-1,0,0)" stroke-width="1.066667" stroke-linecap="butt" stroke-miterlimit="4" stroke-linejoin="miter" fill="none" stroke="#000000" d="M48.113-104.141C48.113-98.793 43.828-94.508 38.484-94.508 33.137-94.508 28.852-98.793 28.852-104.141 28.852-109.484 33.137-113.77 38.484-113.77 43.828-113.77 48.113-109.484 48.113-104.141ZM48.113-104.141"/>
<text xml:space="preserve" transform="matrix(1 0 0 1 0 0)" font-size="9" font-family="DejaVuSans"><tspan y="106.38912" x="31.231886 36.955888 39.97989">1/6</tspan></text>
<path transform="matrix(1,0,0,-1,0,0)" stroke-width="1.066667" stroke-linecap="butt" stroke-miterlimit="4" stroke-linejoin="miter" fill="none" stroke="#000000" d="M76.566-104.141C76.566-98.793 72.281-94.508 66.938-94.508 61.59-94.508 57.305-98.793 57.305-104.141 57.305-109.484 61.59-113.77 66.938-113.77 72.281-113.77 76.566-109.484 76.566-104.141ZM76.566-104.141"/>
<text xml:space="preserve" transform="matrix(1 0 0 1 0 0)" font-size="9" font-family="DejaVuSans"><tspan y="106.38912" x="59.684629 65.40863 68.43263">1/2</tspan></text>
<path transform="matrix(1,0,0,-1,0,0)" stroke-width="1.066667" stroke-linecap="butt" stroke-miterlimit="4" stroke-linejoin="miter" fill="none" stroke="#000000" d="M105.02-104.141C105.02-98.793 100.734-94.508 95.387-94.508 90.043-94.508 85.758-98.793 85.758-104.141 85.758-109.484 90.043-113.77 95.387-113.77 100.734-113.77 105.02-109.484 105.02-104.141ZM105.02-104.141"/>
<text xml:space="preserve" transform="matrix(1 0 0 1 0 0)" font-size="9" font-family="DejaVuSans"><tspan y="106.38912" x="88.137378 93.861377 96.885379">2/3</tspan></text>
<path transform="matrix(1,0,0,-1,0,0)" stroke-width="1.066667" stroke-linecap="butt" stroke-miterlimit="4" stroke-linejoin="miter" fill="none" stroke="#000000" d="M133.473-104.141C133.473-98.793 129.188-94.508 123.84-94.508 118.496-94.508 114.211-98.793 114.211-104.141 114.211-109.484 118.496-113.77 123.84-113.77 129.188-113.77 133.473-109.484 133.473-104.141ZM133.473-104.141"/>
<text xml:space="preserve" transform="matrix(1 0 0 1 0 0)" font-size="9" font-family="DejaVuSans"><tspan y="106.38912" x="116.59012 122.31412 125.33812">2/3</tspan></text>
<path transform="matrix(1,0,0,-1,0,0)" d="M33.887-138.281C33.887-132.938 29.602-128.652 24.258-128.652 18.91-128.652 14.625-132.938 14.625-138.281 14.625-143.629 18.91-147.914 24.258-147.914 29.602-147.914 33.887-143.629 33.887-138.281ZM33.887-138.281" fill="#bfbfbf"/>
<path transform="matrix(1,0,0,-1,0,0)" stroke-width="1.066667" stroke-linecap="butt" stroke-miterlimit="4" stroke-linejoin="miter" fill="none" stroke="#000000" d="M33.887-138.281C33.887-132.938 29.602-128.652 24.258-128.652 18.91-128.652 14.625-132.938 14.625-138.281 14.625-143.629 18.91-147.914 24.258-147.914 29.602-147.914 33.887-143.629 33.887-138.281ZM33.887-138.281"/>
<text xml:space="preserve" transform="matrix(1 0 0 1 0 0)" font-size="9" font-family="DejaVuSans"><tspan y="140.53276" x="17.005505 22.729506 25.753506">2/3</tspan></text>
<path transform="matrix(1,0,0,-1,0,0)" d="M62.34-138.281C62.34-132.938 58.055-128.652 52.711-128.652 47.363-128.652 43.078-132.938 43.078-138.281 43.078-143.629 47.363-147.914 52.711-147.914 58.055-147.914 62.34-143.629 62.34-138.281ZM62.34-138.281" fill="#bfbfbf"/>
<path transform="matrix(1,0,0,-1,0,0)" stroke-width="1.066667" stroke-linecap="butt" stroke-miterlimit="4" stroke-linejoin="miter" fill="none" stroke="#000000" d="M62.34-138.281C62.34-132.938 58.055-128.652 52.711-128.652 47.363-128.652 43.078-132.938 43.078-138.281 43.078-143.629 47.363-147.914 52.711-147.914 58.055-147.914 62.34-143.629 62.34-138.281ZM62.34-138.281"/>
<text xml:space="preserve" transform="matrix(1 0 0 1 0 0)" font-size="9" font-family="DejaVuSans"><tspan y="140.53276" x="45.458246 51.182245 54.206247">3/3</tspan></text>
<path transform="matrix(1,0,0,-1,0,0)" stroke-width="1.066667" stroke-linecap="butt" stroke-miterlimit="4" stroke-linejoin="miter" fill="none" stroke="#000000" d="M82.695-41.945 35.723-64.492"/>
<path transform="matrix(-1,.480039,.480039,1,0,0)" stroke-width=".772292" stroke-linecap="round" stroke-linejoin="round" fill="none" stroke="#000000" d="M-5.285 68.232C-5.166 67.527-3.87 66.467-3.52 66.35-3.873 66.234-5.166 65.175-5.283 64.469"/>
<path transform="matrix(1,0,0,-1,0,0)" stroke-width="1.066667" stroke-linecap="butt" stroke-miterlimit="4" stroke-linejoin="miter" fill="none" stroke="#7f7f7f" d="M95.387-49.879V-59.965"/>
<path transform="matrix(1,0,0,-1,0,0)" stroke-width="1.066667" stroke-linecap="butt" stroke-miterlimit="4" stroke-linejoin="miter" fill="none" stroke="#7f7f7f" d="M104.383-46.645 117.41-62.277"/>
<path transform="matrix(1,0,0,-1,0,0)" stroke-width="1.066667" stroke-linecap="butt" stroke-miterlimit="4" stroke-linejoin="miter" fill="none" stroke="#7f7f7f" d="M19.645-81.062 13.898-94.859"/>
<path transform="matrix(1,0,0,-1,0,0)" stroke-width="1.066667" stroke-linecap="butt" stroke-miterlimit="4" stroke-linejoin="miter" fill="none" stroke="#000000" d="M28.867-81.062 34.344-94.203"/>
<path transform="matrix(.416677,1,1,-.416677,0,0)" stroke-width=".789547" stroke-linecap="round" stroke-linejoin="round" fill="none" stroke="#000000" d="M91.015-2.26C91.136-2.982 92.459-4.064 92.819-4.183 92.461-4.304 91.135-5.384 91.014-6.107"/>
<path transform="matrix(1,0,0,-1,0,0)" stroke-width="1.066667" stroke-linecap="butt" stroke-miterlimit="4" stroke-linejoin="miter" fill="none" stroke="#7f7f7f" d="M88.957-77.715 73.367-96.422"/>
<path transform="matrix(1,0,0,-1,0,0)" stroke-width="1.066667" stroke-linecap="butt" stroke-miterlimit="4" stroke-linejoin="miter" fill="none" stroke="#7f7f7f" d="M95.387-80.027V-94.109"/>
<path transform="matrix(1,0,0,-1,0,0)" stroke-width="1.066667" stroke-linecap="butt" stroke-miterlimit="4" stroke-linejoin="miter" fill="none" stroke="#7f7f7f" d="M101.82-77.715 117.41-96.422"/>
<path transform="matrix(1,0,0,-1,0,0)" stroke-width="1.066667" stroke-linecap="butt" stroke-miterlimit="4" stroke-linejoin="miter" fill="none" stroke="#7f7f7f" d="M34.617-113.418 28.125-129.004"/>
<path transform="matrix(1,0,0,-1,0,0)" stroke-width="1.066667" stroke-linecap="butt" stroke-miterlimit="4" stroke-linejoin="miter" fill="none" stroke="#000000" d="M42.352-113.418 48.57-128.344"/>
<path transform="matrix(.416644,1,1,-.416644,0,0)" stroke-width=".789547" stroke-linecap="round" stroke-linejoin="round" fill="none" stroke="#000000" d="M125.161-2.257C125.279-2.978 126.605-4.062 126.965-4.181 126.603-4.299 125.281-5.381 125.16-6.104"/>
<text xml:space="preserve" transform="matrix(1 0 0 1 0 0)" font-size="12" font-family="DejaVuSans"><tspan y="12.31997" x="206.738 214.31002 221.40201 229.01001 236.354 243.95 250.226 253.55 260.882">Expansion</tspan></text>
<path transform="matrix(1,0,0,-1,0,0)" stroke-width="1.066667" stroke-linecap="butt" stroke-miterlimit="4" stroke-linejoin="miter" fill="none" stroke="#000000" d="M279.73-35.852C279.73-28.289 273.668-22.227 266.105-22.227 258.543-22.227 252.477-28.289 252.477-35.852 252.477-43.414 258.543-49.48 266.105-49.48 273.668-49.48 279.73-43.414 279.73-35.852ZM279.73-35.852"/>
<text xml:space="preserve" transform="matrix(1 0 0 1 0 0)" font-size="9" font-family="DejaVuSans"><tspan y="38.102724" x="253.12337 258.84739 264.57139 267.59538 273.31938">11/21</tspan></text>
<path transform="matrix(1,0,0,-1,0,0)" d="M206.531-69.996C206.531-63.582 201.387-58.438 194.973-58.438 188.559-58.438 183.414-63.582 183.414-69.996 183.414-76.41 188.559-81.555 194.973-81.555 201.387-81.555 206.531-76.41 206.531-69.996ZM206.531-69.996" fill="#bfbfbf"/>
<path transform="matrix(1,0,0,-1,0,0)" stroke-width="1.066667" stroke-linecap="butt" stroke-miterlimit="4" stroke-linejoin="miter" fill="none" stroke="#000000" d="M206.531-69.996C206.531-63.582 201.387-58.438 194.973-58.438 188.559-58.438 183.414-63.582 183.414-69.996 183.414-76.41 188.559-81.555 194.973-81.555 201.387-81.555 206.531-76.41 206.531-69.996ZM206.531-69.996"/>
<text xml:space="preserve" transform="matrix(1 0 0 1 0 0)" font-size="9" font-family="DejaVuSans"><tspan y="72.245929" x="184.85675 190.58075 193.60475 199.32875">7/10</tspan></text>
<path transform="matrix(1,0,0,-1,0,0)" d="M275.734-69.996C275.734-64.652 271.449-60.367 266.105-60.367 260.762-60.367 256.477-64.652 256.477-69.996 256.477-75.34 260.762-79.625 266.105-79.625 271.449-79.625 275.734-75.34 275.734-69.996ZM275.734-69.996" fill="#bfbfbf"/>
<path transform="matrix(1,0,0,-1,0,0)" stroke-width="1.066667" stroke-linecap="butt" stroke-miterlimit="4" stroke-linejoin="miter" fill="none" stroke="#000000" d="M275.734-69.996C275.734-64.652 271.449-60.367 266.105-60.367 260.762-60.367 256.477-64.652 256.477-69.996 256.477-75.34 260.762-79.625 266.105-79.625 271.449-79.625 275.734-75.34 275.734-69.996ZM275.734-69.996"/>
<text xml:space="preserve" transform="matrix(1 0 0 1 0 0)" font-size="9" font-family="DejaVuSans"><tspan y="72.245929" x="258.85386 264.57786 267.60185">3/8</tspan></text>
<path transform="matrix(1,0,0,-1,0,0)" d="M304.188-69.996C304.188-64.652 299.902-60.367 294.559-60.367 289.215-60.367 284.926-64.652 284.926-69.996 284.926-75.34 289.215-79.625 294.559-79.625 299.902-79.625 304.188-75.34 304.188-69.996ZM304.188-69.996" fill="#bfbfbf"/>
<path transform="matrix(1,0,0,-1,0,0)" stroke-width="1.066667" stroke-linecap="butt" stroke-miterlimit="4" stroke-linejoin="miter" fill="none" stroke="#000000" d="M304.188-69.996C304.188-64.652 299.902-60.367 294.559-60.367 289.215-60.367 284.926-64.652 284.926-69.996 284.926-75.34 289.215-79.625 294.559-79.625 299.902-79.625 304.188-75.34 304.188-69.996ZM304.188-69.996"/>
<text xml:space="preserve" transform="matrix(1 0 0 1 0 0)" font-size="9" font-family="DejaVuSans"><tspan y="72.245929" x="287.30659 293.03059 296.05458">0/3</tspan></text>
<path transform="matrix(1,0,0,-1,0,0)" stroke-width="1.066667" stroke-linecap="butt" stroke-miterlimit="4" stroke-linejoin="miter" fill="none" stroke="#000000" d="M190.375-104.141C190.375-98.793 186.09-94.508 180.746-94.508 175.402-94.508 171.117-98.793 171.117-104.141 171.117-109.484 175.402-113.77 180.746-113.77 186.09-113.77 190.375-109.484 190.375-104.141ZM190.375-104.141"/>
<text xml:space="preserve" transform="matrix(1 0 0 1 0 0)" font-size="9" font-family="DejaVuSans"><tspan y="106.38912" x="173.4956 179.2196 182.2436">2/4</tspan></text>
<path transform="matrix(1,0,0,-1,0,0)" stroke-width="1.066667" stroke-linecap="butt" stroke-miterlimit="4" stroke-linejoin="miter" fill="none" stroke="#000000" d="M218.828-104.141C218.828-98.793 214.543-94.508 209.199-94.508 203.855-94.508 199.57-98.793 199.57-104.141 199.57-109.484 203.855-113.77 209.199-113.77 214.543-113.77 218.828-109.484 218.828-104.141ZM218.828-104.141"/>
<text xml:space="preserve" transform="matrix(1 0 0 1 0 0)" font-size="9" font-family="DejaVuSans"><tspan y="106.38912" x="201.94835 207.67235 210.69635">1/6</tspan></text>
<path transform="matrix(1,0,0,-1,0,0)" stroke-width="1.066667" stroke-linecap="butt" stroke-miterlimit="4" stroke-linejoin="miter" fill="none" stroke="#000000" d="M247.281-104.141C247.281-98.793 242.996-94.508 237.652-94.508 232.309-94.508 228.023-98.793 228.023-104.141 228.023-109.484 232.309-113.77 237.652-113.77 242.996-113.77 247.281-109.484 247.281-104.141ZM247.281-104.141"/>
<text xml:space="preserve" transform="matrix(1 0 0 1 0 0)" font-size="9" font-family="DejaVuSans"><tspan y="106.38912" x="230.40111 236.1251 239.14911">1/2</tspan></text>
<path transform="matrix(1,0,0,-1,0,0)" stroke-width="1.066667" stroke-linecap="butt" stroke-miterlimit="4" stroke-linejoin="miter" fill="none" stroke="#000000" d="M275.734-104.141C275.734-98.793 271.449-94.508 266.105-94.508 260.762-94.508 256.477-98.793 256.477-104.141 256.477-109.484 260.762-113.77 266.105-113.77 271.449-113.77 275.734-109.484 275.734-104.141ZM275.734-104.141"/>
<text xml:space="preserve" transform="matrix(1 0 0 1 0 0)" font-size="9" font-family="DejaVuSans"><tspan y="106.38912" x="258.85386 264.57786 267.60185">2/3</tspan></text>
<path transform="matrix(1,0,0,-1,0,0)" stroke-width="1.066667" stroke-linecap="butt" stroke-miterlimit="4" stroke-linejoin="miter" fill="none" stroke="#000000" d="M304.188-104.141C304.188-98.793 299.902-94.508 294.559-94.508 289.215-94.508 284.926-98.793 284.926-104.141 284.926-109.484 289.215-113.77 294.559-113.77 299.902-113.77 304.188-109.484 304.188-104.141ZM304.188-104.141"/>
<text xml:space="preserve" transform="matrix(1 0 0 1 0 0)" font-size="9" font-family="DejaVuSans"><tspan y="106.38912" x="287.30659 293.03059 296.05458">2/3</tspan></text>
<path transform="matrix(1,0,0,-1,0,0)" d="M204.602-138.281C204.602-132.938 200.316-128.652 194.973-128.652 189.629-128.652 185.344-132.938 185.344-138.281 185.344-143.629 189.629-147.914 194.973-147.914 200.316-147.914 204.602-143.629 204.602-138.281ZM204.602-138.281" fill="#bfbfbf"/>
<path transform="matrix(1,0,0,-1,0,0)" stroke-width="1.066667" stroke-linecap="butt" stroke-miterlimit="4" stroke-linejoin="miter" fill="none" stroke="#000000" d="M204.602-138.281C204.602-132.938 200.316-128.652 194.973-128.652 189.629-128.652 185.344-132.938 185.344-138.281 185.344-143.629 189.629-147.914 194.973-147.914 200.316-147.914 204.602-143.629 204.602-138.281ZM204.602-138.281"/>
<text xml:space="preserve" transform="matrix(1 0 0 1 0 0)" font-size="9" font-family="DejaVuSans"><tspan y="140.53276" x="187.72197 193.44597 196.46997">2/3</tspan></text>
<path transform="matrix(1,0,0,-1,0,0)" d="M233.055-138.281C233.055-132.938 228.77-128.652 223.426-128.652 218.082-128.652 213.797-132.938 213.797-138.281 213.797-143.629 218.082-147.914 223.426-147.914 228.77-147.914 233.055-143.629 233.055-138.281ZM233.055-138.281" fill="#bfbfbf"/>
<path transform="matrix(1,0,0,-1,0,0)" stroke-width="1.066667" stroke-linecap="butt" stroke-miterlimit="4" stroke-linejoin="miter" fill="none" stroke="#000000" d="M233.055-138.281C233.055-132.938 228.77-128.652 223.426-128.652 218.082-128.652 213.797-132.938 213.797-138.281 213.797-143.629 218.082-147.914 223.426-147.914 228.77-147.914 233.055-143.629 233.055-138.281ZM233.055-138.281"/>
<text xml:space="preserve" transform="matrix(1 0 0 1 0 0)" font-size="9" font-family="DejaVuSans"><tspan y="140.53276" x="216.17472 221.89871 224.92272">3/3</tspan></text>
<path transform="matrix(1,0,0,-1,0,0)" stroke-width="1.066667" stroke-linecap="butt" stroke-miterlimit="4" stroke-linejoin="miter" fill="none" stroke="#000000" d="M233.055-172.426C233.055-167.082 228.77-162.797 223.426-162.797 218.082-162.797 213.797-167.082 213.797-172.426 213.797-177.77 218.082-182.055 223.426-182.055 228.77-182.055 233.055-177.77 233.055-172.426ZM233.055-172.426"/>
<text xml:space="preserve" transform="matrix(1 0 0 1 0 0)" font-size="9" font-family="DejaVuSans"><tspan y="174.67597" x="216.17472 221.89871 224.92272">0/0</tspan></text>
<path transform="matrix(1,0,0,-1,0,0)" stroke-width="1.066667" stroke-linecap="butt" stroke-miterlimit="4" stroke-linejoin="miter" fill="none" stroke="#7f7f7f" d="M253.41-41.945 205.797-64.801"/>
<path transform="matrix(1,0,0,-1,0,0)" stroke-width="1.066667" stroke-linecap="butt" stroke-miterlimit="4" stroke-linejoin="miter" fill="none" stroke="#7f7f7f" d="M266.105-49.879V-59.965"/>
<path transform="matrix(1,0,0,-1,0,0)" stroke-width="1.066667" stroke-linecap="butt" stroke-miterlimit="4" stroke-linejoin="miter" fill="none" stroke="#7f7f7f" d="M275.102-46.645 288.125-62.277"/>
<path transform="matrix(1,0,0,-1,0,0)" stroke-width="1.066667" stroke-linecap="butt" stroke-miterlimit="4" stroke-linejoin="miter" fill="none" stroke="#7f7f7f" d="M190.363-81.062 184.613-94.859"/>
<path transform="matrix(1,0,0,-1,0,0)" stroke-width="1.066667" stroke-linecap="butt" stroke-miterlimit="4" stroke-linejoin="miter" fill="none" stroke="#7f7f7f" d="M199.582-81.062 205.332-94.859"/>
<path transform="matrix(1,0,0,-1,0,0)" stroke-width="1.066667" stroke-linecap="butt" stroke-miterlimit="4" stroke-linejoin="miter" fill="none" stroke="#7f7f7f" d="M259.672-77.715 244.086-96.422"/>
<path transform="matrix(1,0,0,-1,0,0)" stroke-width="1.066667" stroke-linecap="butt" stroke-miterlimit="4" stroke-linejoin="miter" fill="none" stroke="#7f7f7f" d="M266.105-80.027V-94.109"/>
<path transform="matrix(1,0,0,-1,0,0)" stroke-width="1.066667" stroke-linecap="butt" stroke-miterlimit="4" stroke-linejoin="miter" fill="none" stroke="#7f7f7f" d="M272.535-77.715 288.125-96.422"/>
<path transform="matrix(1,0,0,-1,0,0)" stroke-width="1.066667" stroke-linecap="butt" stroke-miterlimit="4" stroke-linejoin="miter" fill="none" stroke="#7f7f7f" d="M205.332-113.418 198.84-129.004"/>
<path transform="matrix(1,0,0,-1,0,0)" stroke-width="1.066667" stroke-linecap="butt" stroke-miterlimit="4" stroke-linejoin="miter" fill="none" stroke="#7f7f7f" d="M213.066-113.418 219.559-129.004"/>
<path transform="matrix(1,0,0,-1,0,0)" stroke-width="1.066667" stroke-linecap="butt" stroke-miterlimit="4" stroke-linejoin="miter" fill="none" stroke="#000000" d="M223.426-148.312V-161.688"/>
<path transform="matrix(0,1,1,0,0,0)" stroke-width=".853333" stroke-linecap="round" stroke-linejoin="round" fill="none" stroke="#000000" d="M160.125 225.504C160.258 224.727 161.688 223.555 162.074 223.426 161.688 223.297 160.258 222.125 160.125 221.348"/>
<text xml:space="preserve" transform="matrix(1 0 0 1 0 0)" font-size="12" font-family="DejaVuSans"><tspan y="10.99997" x="376.39979 384.00779 387.3318 399.01979 406.61579 409.9398 417.28379 421.9878 425.3118 432.6438">Simulation</tspan></text>
<path transform="matrix(1,0,0,-1,0,0)" stroke-width="1.066667" stroke-linecap="butt" stroke-miterlimit="4" stroke-linejoin="miter" fill="none" stroke="#000000" d="M450.449-35.852C450.449-28.289 444.383-22.227 436.82-22.227 429.258-22.227 423.195-28.289 423.195-35.852 423.195-43.414 429.258-49.48 436.82-49.48 444.383-49.48 450.449-43.414 450.449-35.852ZM450.449-35.852"/>
<text xml:space="preserve" transform="matrix(1 0 0 1 0 0)" font-size="9" font-family="DejaVuSans"><tspan y="38.102724" x="423.83985 429.56385 435.28785 438.31184 444.03584">11/21</tspan></text>
<path transform="matrix(1,0,0,-1,0,0)" d="M377.25-69.996C377.25-63.582 372.105-58.438 365.688-58.438 359.273-58.438 354.129-63.582 354.129-69.996 354.129-76.41 359.273-81.555 365.688-81.555 372.105-81.555 377.25-76.41 377.25-69.996ZM377.25-69.996" fill="#bfbfbf"/>
<path transform="matrix(1,0,0,-1,0,0)" stroke-width="1.066667" stroke-linecap="butt" stroke-miterlimit="4" stroke-linejoin="miter" fill="none" stroke="#000000" d="M377.25-69.996C377.25-63.582 372.105-58.438 365.688-58.438 359.273-58.438 354.129-63.582 354.129-69.996 354.129-76.41 359.273-81.555 365.688-81.555 372.105-81.555 377.25-76.41 377.25-69.996ZM377.25-69.996"/>
<text xml:space="preserve" transform="matrix(1 0 0 1 0 0)" font-size="9" font-family="DejaVuSans"><tspan y="72.245929" x="355.5732 361.2972 364.3212 370.0452">7/10</tspan></text>
<path transform="matrix(1,0,0,-1,0,0)" d="M446.453-69.996C446.453-64.652 442.164-60.367 436.82-60.367 431.477-60.367 427.191-64.652 427.191-69.996 427.191-75.34 431.477-79.625 436.82-79.625 442.164-79.625 446.453-75.34 446.453-69.996ZM446.453-69.996" fill="#bfbfbf"/>
<path transform="matrix(1,0,0,-1,0,0)" stroke-width="1.066667" stroke-linecap="butt" stroke-miterlimit="4" stroke-linejoin="miter" fill="none" stroke="#000000" d="M446.453-69.996C446.453-64.652 442.164-60.367 436.82-60.367 431.477-60.367 427.191-64.652 427.191-69.996 427.191-75.34 431.477-79.625 436.82-79.625 442.164-79.625 446.453-75.34 446.453-69.996ZM446.453-69.996"/>
<text xml:space="preserve" transform="matrix(1 0 0 1 0 0)" font-size="9" font-family="DejaVuSans"><tspan y="72.245929" x="429.5703 435.2943 438.3183">3/8</tspan></text>
<path transform="matrix(1,0,0,-1,0,0)" d="M474.902-69.996C474.902-64.652 470.617-60.367 465.273-60.367 459.93-60.367 455.645-64.652 455.645-69.996 455.645-75.34 459.93-79.625 465.273-79.625 470.617-79.625 474.902-75.34 474.902-69.996ZM474.902-69.996" fill="#bfbfbf"/>
<path transform="matrix(1,0,0,-1,0,0)" stroke-width="1.066667" stroke-linecap="butt" stroke-miterlimit="4" stroke-linejoin="miter" fill="none" stroke="#000000" d="M474.902-69.996C474.902-64.652 470.617-60.367 465.273-60.367 459.93-60.367 455.645-64.652 455.645-69.996 455.645-75.34 459.93-79.625 465.273-79.625 470.617-79.625 474.902-75.34 474.902-69.996ZM474.902-69.996"/>
<text xml:space="preserve" transform="matrix(1 0 0 1 0 0)" font-size="9" font-family="DejaVuSans"><tspan y="72.245929" x="458.02305 463.74705 466.77104">0/3</tspan></text>
<path transform="matrix(1,0,0,-1,0,0)" stroke-width="1.066667" stroke-linecap="butt" stroke-miterlimit="4" stroke-linejoin="miter" fill="none" stroke="#000000" d="M361.094-104.141C361.094-98.793 356.809-94.508 351.465-94.508 346.117-94.508 341.832-98.793 341.832-104.141 341.832-109.484 346.117-113.77 351.465-113.77 356.809-113.77 361.094-109.484 361.094-104.141ZM361.094-104.141"/>
<text xml:space="preserve" transform="matrix(1 0 0 1 0 0)" font-size="9" font-family="DejaVuSans"><tspan y="106.38912" x="344.21208 349.93608 352.96006">2/4</tspan></text>
<path transform="matrix(1,0,0,-1,0,0)" stroke-width="1.066667" stroke-linecap="butt" stroke-miterlimit="4" stroke-linejoin="miter" fill="none" stroke="#000000" d="M389.547-104.141C389.547-98.793 385.262-94.508 379.914-94.508 374.57-94.508 370.285-98.793 370.285-104.141 370.285-109.484 374.57-113.77 379.914-113.77 385.262-113.77 389.547-109.484 389.547-104.141ZM389.547-104.141"/>
<text xml:space="preserve" transform="matrix(1 0 0 1 0 0)" font-size="9" font-family="DejaVuSans"><tspan y="106.38912" x="372.66484 378.38883 381.4128">1/6</tspan></text>
<path transform="matrix(1,0,0,-1,0,0)" stroke-width="1.066667" stroke-linecap="butt" stroke-miterlimit="4" stroke-linejoin="miter" fill="none" stroke="#000000" d="M418-104.141C418-98.793 413.715-94.508 408.367-94.508 403.023-94.508 398.738-98.793 398.738-104.141 398.738-109.484 403.023-113.77 408.367-113.77 413.715-113.77 418-109.484 418-104.141ZM418-104.141"/>
<text xml:space="preserve" transform="matrix(1 0 0 1 0 0)" font-size="9" font-family="DejaVuSans"><tspan y="106.38912" x="401.11756 406.84156 409.86555">1/2</tspan></text>
<path transform="matrix(1,0,0,-1,0,0)" stroke-width="1.066667" stroke-linecap="butt" stroke-miterlimit="4" stroke-linejoin="miter" fill="none" stroke="#000000" d="M446.453-104.141C446.453-98.793 442.164-94.508 436.82-94.508 431.477-94.508 427.191-98.793 427.191-104.141 427.191-109.484 431.477-113.77 436.82-113.77 442.164-113.77 446.453-109.484 446.453-104.141ZM446.453-104.141"/>
<text xml:space="preserve" transform="matrix(1 0 0 1 0 0)" font-size="9" font-family="DejaVuSans"><tspan y="106.38912" x="429.5703 435.2943 438.3183">2/3</tspan></text>
<path transform="matrix(1,0,0,-1,0,0)" stroke-width="1.066667" stroke-linecap="butt" stroke-miterlimit="4" stroke-linejoin="miter" fill="none" stroke="#000000" d="M474.902-104.141C474.902-98.793 470.617-94.508 465.273-94.508 459.93-94.508 455.645-98.793 455.645-104.141 455.645-109.484 459.93-113.77 465.273-113.77 470.617-113.77 474.902-109.484 474.902-104.141ZM474.902-104.141"/>
<text xml:space="preserve" transform="matrix(1 0 0 1 0 0)" font-size="9" font-family="DejaVuSans"><tspan y="106.38912" x="458.02305 463.74705 466.77104">2/3</tspan></text>
<path transform="matrix(1,0,0,-1,0,0)" d="M375.32-138.281C375.32-132.938 371.035-128.652 365.688-128.652 360.344-128.652 356.059-132.938 356.059-138.281 356.059-143.629 360.344-147.914 365.688-147.914 371.035-147.914 375.32-143.629 375.32-138.281ZM375.32-138.281" fill="#bfbfbf"/>
<path transform="matrix(1,0,0,-1,0,0)" stroke-width="1.066667" stroke-linecap="butt" stroke-miterlimit="4" stroke-linejoin="miter" fill="none" stroke="#000000" d="M375.32-138.281C375.32-132.938 371.035-128.652 365.688-128.652 360.344-128.652 356.059-132.938 356.059-138.281 356.059-143.629 360.344-147.914 365.688-147.914 371.035-147.914 375.32-143.629 375.32-138.281ZM375.32-138.281"/>
<text xml:space="preserve" transform="matrix(1 0 0 1 0 0)" font-size="9" font-family="DejaVuSans"><tspan y="140.53276" x="358.43846 364.16246 367.18644">2/3</tspan></text>
<path transform="matrix(1,0,0,-1,0,0)" d="M403.773-138.281C403.773-132.938 399.488-128.652 394.141-128.652 388.797-128.652 384.512-132.938 384.512-138.281 384.512-143.629 388.797-147.914 394.141-147.914 399.488-147.914 403.773-143.629 403.773-138.281ZM403.773-138.281" fill="#bfbfbf"/>
<path transform="matrix(1,0,0,-1,0,0)" stroke-width="1.066667" stroke-linecap="butt" stroke-miterlimit="4" stroke-linejoin="miter" fill="none" stroke="#000000" d="M403.773-138.281C403.773-132.938 399.488-128.652 394.141-128.652 388.797-128.652 384.512-132.938 384.512-138.281 384.512-143.629 388.797-147.914 394.141-147.914 399.488-147.914 403.773-143.629 403.773-138.281ZM403.773-138.281"/>
<text xml:space="preserve" transform="matrix(1 0 0 1 0 0)" font-size="9" font-family="DejaVuSans"><tspan y="140.53276" x="386.89118 392.61518 395.63917">3/3</tspan></text>
<path transform="matrix(1,0,0,-1,0,0)" stroke-width="1.066667" stroke-linecap="butt" stroke-miterlimit="4" stroke-linejoin="miter" fill="none" stroke="#000000" d="M403.773-172.426C403.773-167.082 399.488-162.797 394.141-162.797 388.797-162.797 384.512-167.082 384.512-172.426 384.512-177.77 388.797-182.055 394.141-182.055 399.488-182.055 403.773-177.77 403.773-172.426ZM403.773-172.426"/>
<text xml:space="preserve" transform="matrix(1 0 0 1 0 0)" font-size="9" font-family="DejaVuSans"><tspan y="174.67597" x="386.89118 392.61518 395.63917">0/0</tspan><tspan y="215.15966" x="386.89118 392.61518 395.63917">0/1</tspan></text>
<path transform="matrix(1,0,0,-1,0,0)" stroke-width="1.066667" stroke-linecap="butt" stroke-miterlimit="4" stroke-linejoin="miter" fill="none" stroke="#7f7f7f" d="M424.125-41.945 376.512-64.801"/>
<path transform="matrix(1,0,0,-1,0,0)" stroke-width="1.066667" stroke-linecap="butt" stroke-miterlimit="4" stroke-linejoin="miter" fill="none" stroke="#7f7f7f" d="M436.82-49.879V-59.965"/>
<path transform="matrix(1,0,0,-1,0,0)" stroke-width="1.066667" stroke-linecap="butt" stroke-miterlimit="4" stroke-linejoin="miter" fill="none" stroke="#7f7f7f" d="M445.816-46.645 458.844-62.277"/>
<path transform="matrix(1,0,0,-1,0,0)" stroke-width="1.066667" stroke-linecap="butt" stroke-miterlimit="4" stroke-linejoin="miter" fill="none" stroke="#7f7f7f" d="M361.078-81.062 355.328-94.859"/>
<path transform="matrix(1,0,0,-1,0,0)" stroke-width="1.066667" stroke-linecap="butt" stroke-miterlimit="4" stroke-linejoin="miter" fill="none" stroke="#7f7f7f" d="M370.301-81.062 376.051-94.859"/>
<path transform="matrix(1,0,0,-1,0,0)" stroke-width="1.066667" stroke-linecap="butt" stroke-miterlimit="4" stroke-linejoin="miter" fill="none" stroke="#7f7f7f" d="M430.391-77.715 414.801-96.422"/>
<path transform="matrix(1,0,0,-1,0,0)" stroke-width="1.066667" stroke-linecap="butt" stroke-miterlimit="4" stroke-linejoin="miter" fill="none" stroke="#7f7f7f" d="M436.82-80.027V-94.109"/>
<path transform="matrix(1,0,0,-1,0,0)" stroke-width="1.066667" stroke-linecap="butt" stroke-miterlimit="4" stroke-linejoin="miter" fill="none" stroke="#7f7f7f" d="M443.254-77.715 458.844-96.422"/>
<path transform="matrix(1,0,0,-1,0,0)" stroke-width="1.066667" stroke-linecap="butt" stroke-miterlimit="4" stroke-linejoin="miter" fill="none" stroke="#7f7f7f" d="M376.051-113.418 369.555-129.004"/>
<path transform="matrix(1,0,0,-1,0,0)" stroke-width="1.066667" stroke-linecap="butt" stroke-miterlimit="4" stroke-linejoin="miter" fill="none" stroke="#7f7f7f" d="M383.781-113.418 390.277-129.004"/>
<path transform="matrix(1,0,0,-1,0,0)" stroke-width="1.066667" stroke-linecap="butt" stroke-miterlimit="4" stroke-linejoin="miter" fill="none" stroke="#7f7f7f" d="M394.141-148.312V-162.395"/>
<path transform="matrix(1,0,0,-1,0,0)" stroke-width="1.066667" stroke-linecap="butt" stroke-miterlimit="4" stroke-linejoin="miter" fill="none" stroke="#000000" d="M394.141-182.457C394.141-183.707 396.641-184.332 396.641-185.582 396.641-186.492 395.391-187.285 394.141-188.082 392.891-188.875 391.641-189.668 391.641-190.582 391.641-191.492 392.891-192.285 394.141-193.082 395.391-193.875 396.641-194.668 396.641-195.582 396.641-196.492 395.391-197.285 394.141-198.082 392.891-198.875 391.641-199.668 391.641-200.582 391.641-201.832 394.141-202.457 394.141-203.707V-207.25"/>
<path transform="matrix(0,1,1,0,0,0)" stroke-width=".853333" stroke-linecap="round" stroke-linejoin="round" fill="none" stroke="#000000" d="M205.691 396.223C205.82 395.441 207.25 394.273 207.641 394.141 207.25 394.012 205.82 392.844 205.691 392.062"/>
<text xml:space="preserve" transform="matrix(1 0 0 1 0 0)" font-size="12" font-family="DejaVuSans"><tspan y="10.91998" x="528.2139 536.4459 543.7899 550.3779 557.3259 564.9339 569.6379 576.96987 584.5778 591.9218 599.5298 606.8738 611.57778 614.90176 622.2337">Backpropagation</tspan></text>
<path transform="matrix(1,0,0,-1,0,0)" stroke-width="1.066667" stroke-linecap="butt" stroke-miterlimit="4" stroke-linejoin="miter" fill="none" stroke="#000000" d="M621.164-35.852C621.164-28.289 615.102-22.227 607.539-22.227 599.977-22.227 593.91-28.289 593.91-35.852 593.91-43.414 599.977-49.48 607.539-49.48 615.102-49.48 621.164-43.414 621.164-35.852ZM621.164-35.852"/>
<text xml:space="preserve" transform="matrix(1 0 0 1 0 0)" font-size="9" font-family="DejaVuSans"><tspan y="38.102724" x="594.55636 600.28036 606.00436 609.0283 614.7523">11/22</tspan></text>
<path transform="matrix(1,0,0,-1,0,0)" d="M547.965-69.996C547.965-63.582 542.82-58.438 536.406-58.438 529.992-58.438 524.848-63.582 524.848-69.996 524.848-76.41 529.992-81.555 536.406-81.555 542.82-81.555 547.965-76.41 547.965-69.996ZM547.965-69.996" fill="#bfbfbf"/>
<path transform="matrix(1,0,0,-1,0,0)" stroke-width="1.066667" stroke-linecap="butt" stroke-miterlimit="4" stroke-linejoin="miter" fill="none" stroke="#000000" d="M547.965-69.996C547.965-63.582 542.82-58.438 536.406-58.438 529.992-58.438 524.848-63.582 524.848-69.996 524.848-76.41 529.992-81.555 536.406-81.555 542.82-81.555 547.965-76.41 547.965-69.996ZM547.965-69.996"/>
<text xml:space="preserve" transform="matrix(1 0 0 1 0 0)" font-size="9" font-family="DejaVuSans"><tspan y="72.245929" x="526.2897 532.0137 535.03768 540.76168">8/11</tspan></text>
<path transform="matrix(1,0,0,-1,0,0)" d="M617.168-69.996C617.168-64.652 612.883-60.367 607.539-60.367 602.191-60.367 597.906-64.652 597.906-69.996 597.906-75.34 602.191-79.625 607.539-79.625 612.883-79.625 617.168-75.34 617.168-69.996ZM617.168-69.996" fill="#bfbfbf"/>
<path transform="matrix(1,0,0,-1,0,0)" stroke-width="1.066667" stroke-linecap="butt" stroke-miterlimit="4" stroke-linejoin="miter" fill="none" stroke="#000000" d="M617.168-69.996C617.168-64.652 612.883-60.367 607.539-60.367 602.191-60.367 597.906-64.652 597.906-69.996 597.906-75.34 602.191-79.625 607.539-79.625 612.883-79.625 617.168-75.34 617.168-69.996ZM617.168-69.996"/>
<text xml:space="preserve" transform="matrix(1 0 0 1 0 0)" font-size="9" font-family="DejaVuSans"><tspan y="72.245929" x="600.2868 606.0108 609.0348">3/8</tspan></text>
<path transform="matrix(1,0,0,-1,0,0)" d="M645.621-69.996C645.621-64.652 641.336-60.367 635.992-60.367 630.645-60.367 626.359-64.652 626.359-69.996 626.359-75.34 630.645-79.625 635.992-79.625 641.336-79.625 645.621-75.34 645.621-69.996ZM645.621-69.996" fill="#bfbfbf"/>
<path transform="matrix(1,0,0,-1,0,0)" stroke-width="1.066667" stroke-linecap="butt" stroke-miterlimit="4" stroke-linejoin="miter" fill="none" stroke="#000000" d="M645.621-69.996C645.621-64.652 641.336-60.367 635.992-60.367 630.645-60.367 626.359-64.652 626.359-69.996 626.359-75.34 630.645-79.625 635.992-79.625 641.336-79.625 645.621-75.34 645.621-69.996ZM645.621-69.996"/>
<text xml:space="preserve" transform="matrix(1 0 0 1 0 0)" font-size="9" font-family="DejaVuSans"><tspan y="72.245929" x="628.7395 634.4635 637.4875">0/3</tspan></text>
<path transform="matrix(1,0,0,-1,0,0)" stroke-width="1.066667" stroke-linecap="butt" stroke-miterlimit="4" stroke-linejoin="miter" fill="none" stroke="#000000" d="M531.809-104.141C531.809-98.793 527.523-94.508 522.18-94.508 516.836-94.508 512.551-98.793 512.551-104.141 512.551-109.484 516.836-113.77 522.18-113.77 527.523-113.77 531.809-109.484 531.809-104.141ZM531.809-104.141"/>
<text xml:space="preserve" transform="matrix(1 0 0 1 0 0)" font-size="9" font-family="DejaVuSans"><tspan y="106.38912" x="514.9285 520.6525 523.6765">2/4</tspan></text>
<path transform="matrix(1,0,0,-1,0,0)" stroke-width="1.066667" stroke-linecap="butt" stroke-miterlimit="4" stroke-linejoin="miter" fill="none" stroke="#000000" d="M560.262-104.141C560.262-98.793 555.977-94.508 550.633-94.508 545.289-94.508 541.004-98.793 541.004-104.141 541.004-109.484 545.289-113.77 550.633-113.77 555.977-113.77 560.262-109.484 560.262-104.141ZM560.262-104.141"/>
<text xml:space="preserve" transform="matrix(1 0 0 1 0 0)" font-size="9" font-family="DejaVuSans"><tspan y="106.38912" x="543.3813 549.1053 552.1293">1/7</tspan></text>
<path transform="matrix(1,0,0,-1,0,0)" stroke-width="1.066667" stroke-linecap="butt" stroke-miterlimit="4" stroke-linejoin="miter" fill="none" stroke="#000000" d="M588.715-104.141C588.715-98.793 584.43-94.508 579.086-94.508 573.742-94.508 569.453-98.793 569.453-104.141 569.453-109.484 573.742-113.77 579.086-113.77 584.43-113.77 588.715-109.484 588.715-104.141ZM588.715-104.141"/>
<text xml:space="preserve" transform="matrix(1 0 0 1 0 0)" font-size="9" font-family="DejaVuSans"><tspan y="106.38912" x="571.83407 577.55807 580.58206">1/2</tspan></text>
<path transform="matrix(1,0,0,-1,0,0)" stroke-width="1.066667" stroke-linecap="butt" stroke-miterlimit="4" stroke-linejoin="miter" fill="none" stroke="#000000" d="M617.168-104.141C617.168-98.793 612.883-94.508 607.539-94.508 602.191-94.508 597.906-98.793 597.906-104.141 597.906-109.484 602.191-113.77 607.539-113.77 612.883-113.77 617.168-109.484 617.168-104.141ZM617.168-104.141"/>
<text xml:space="preserve" transform="matrix(1 0 0 1 0 0)" font-size="9" font-family="DejaVuSans"><tspan y="106.38912" x="600.2868 606.0108 609.0348">2/3</tspan></text>
<path transform="matrix(1,0,0,-1,0,0)" stroke-width="1.066667" stroke-linecap="butt" stroke-miterlimit="4" stroke-linejoin="miter" fill="none" stroke="#000000" d="M645.621-104.141C645.621-98.793 641.336-94.508 635.992-94.508 630.645-94.508 626.359-98.793 626.359-104.141 626.359-109.484 630.645-113.77 635.992-113.77 641.336-113.77 645.621-109.484 645.621-104.141ZM645.621-104.141"/>
<text xml:space="preserve" transform="matrix(1 0 0 1 0 0)" font-size="9" font-family="DejaVuSans"><tspan y="106.38912" x="628.7395 634.4635 637.4875">2/3</tspan></text>
<path transform="matrix(1,0,0,-1,0,0)" d="M546.035-138.281C546.035-132.938 541.75-128.652 536.406-128.652 531.062-128.652 526.777-132.938 526.777-138.281 526.777-143.629 531.062-147.914 536.406-147.914 541.75-147.914 546.035-143.629 546.035-138.281ZM546.035-138.281" fill="#bfbfbf"/>
<path transform="matrix(1,0,0,-1,0,0)" stroke-width="1.066667" stroke-linecap="butt" stroke-miterlimit="4" stroke-linejoin="miter" fill="none" stroke="#000000" d="M546.035-138.281C546.035-132.938 541.75-128.652 536.406-128.652 531.062-128.652 526.777-132.938 526.777-138.281 526.777-143.629 531.062-147.914 536.406-147.914 541.75-147.914 546.035-143.629 546.035-138.281ZM546.035-138.281"/>
<text xml:space="preserve" transform="matrix(1 0 0 1 0 0)" font-size="9" font-family="DejaVuSans"><tspan y="140.53276" x="529.1549 534.8789 537.9029">2/3</tspan></text>
<path transform="matrix(1,0,0,-1,0,0)" d="M574.488-138.281C574.488-132.938 570.203-128.652 564.859-128.652 559.516-128.652 555.227-132.938 555.227-138.281 555.227-143.629 559.516-147.914 564.859-147.914 570.203-147.914 574.488-143.629 574.488-138.281ZM574.488-138.281" fill="#bfbfbf"/>
<path transform="matrix(1,0,0,-1,0,0)" stroke-width="1.066667" stroke-linecap="butt" stroke-miterlimit="4" stroke-linejoin="miter" fill="none" stroke="#000000" d="M574.488-138.281C574.488-132.938 570.203-128.652 564.859-128.652 559.516-128.652 555.227-132.938 555.227-138.281 555.227-143.629 559.516-147.914 564.859-147.914 570.203-147.914 574.488-143.629 574.488-138.281ZM574.488-138.281"/>
<text xml:space="preserve" transform="matrix(1 0 0 1 0 0)" font-size="9" font-family="DejaVuSans"><tspan y="140.53276" x="557.60769 563.33169 566.35568">4/4</tspan></text>
<path transform="matrix(1,0,0,-1,0,0)" stroke-width="1.066667" stroke-linecap="butt" stroke-miterlimit="4" stroke-linejoin="miter" fill="none" stroke="#000000" d="M574.488-172.426C574.488-167.082 570.203-162.797 564.859-162.797 559.516-162.797 555.227-167.082 555.227-172.426 555.227-177.77 559.516-182.055 564.859-182.055 570.203-182.055 574.488-177.77 574.488-172.426ZM574.488-172.426"/>
<text xml:space="preserve" transform="matrix(1 0 0 1 0 0)" font-size="9" font-family="DejaVuSans"><tspan y="174.67597" x="557.60769 563.33169 566.35568">0/1</tspan></text>
<path transform="matrix(1,0,0,-1,0,0)" stroke-width="1.066667" stroke-linecap="butt" stroke-miterlimit="4" stroke-linejoin="miter" fill="none" stroke="#000000" d="M594.199-42.254 547.23-64.801"/>
<path transform="matrix(1,-.480039,-.480039,-1,0,0)" stroke-width=".772292" stroke-linecap="round" stroke-linejoin="round" fill="none" stroke="#000000" d="M465.022-264.28C465.137-264.983 466.433-266.043 466.787-266.162 466.434-266.278 465.141-267.337 465.02-268.044"/>
<path transform="matrix(1,0,0,-1,0,0)" stroke-width="1.066667" stroke-linecap="butt" stroke-miterlimit="4" stroke-linejoin="miter" fill="none" stroke="#7f7f7f" d="M607.539-49.879V-59.965"/>
<path transform="matrix(1,0,0,-1,0,0)" stroke-width="1.066667" stroke-linecap="butt" stroke-miterlimit="4" stroke-linejoin="miter" fill="none" stroke="#7f7f7f" d="M616.531-46.645 629.559-62.277"/>
<path transform="matrix(1,0,0,-1,0,0)" stroke-width="1.066667" stroke-linecap="butt" stroke-miterlimit="4" stroke-linejoin="miter" fill="none" stroke="#7f7f7f" d="M531.797-81.062 526.047-94.859"/>
<path transform="matrix(1,0,0,-1,0,0)" stroke-width="1.066667" stroke-linecap="butt" stroke-miterlimit="4" stroke-linejoin="miter" fill="none" stroke="#000000" d="M541.289-81.719 546.766-94.859"/>
<path transform="matrix(-.416677,-1,-1,.416677,0,0)" stroke-width=".789547" stroke-linecap="round" stroke-linejoin="round" fill="none" stroke="#000000" d="M-263.252-430.278C-263.129-430.997-261.807-432.079-261.444-432.203-261.806-432.322-263.128-433.404-263.25-434.126"/>
<path transform="matrix(1,0,0,-1,0,0)" stroke-width="1.066667" stroke-linecap="butt" stroke-miterlimit="4" stroke-linejoin="miter" fill="none" stroke="#7f7f7f" d="M601.105-77.715 585.516-96.422"/>
<path transform="matrix(1,0,0,-1,0,0)" stroke-width="1.066667" stroke-linecap="butt" stroke-miterlimit="4" stroke-linejoin="miter" fill="none" stroke="#7f7f7f" d="M607.539-80.027V-94.109"/>
<path transform="matrix(1,0,0,-1,0,0)" stroke-width="1.066667" stroke-linecap="butt" stroke-miterlimit="4" stroke-linejoin="miter" fill="none" stroke="#7f7f7f" d="M613.969-77.715 629.559-96.422"/>
<path transform="matrix(1,0,0,-1,0,0)" stroke-width="1.066667" stroke-linecap="butt" stroke-miterlimit="4" stroke-linejoin="miter" fill="none" stroke="#7f7f7f" d="M546.766-113.418 540.273-129.004"/>
<path transform="matrix(1,0,0,-1,0,0)" stroke-width="1.066667" stroke-linecap="butt" stroke-miterlimit="4" stroke-linejoin="miter" fill="none" stroke="#000000" d="M554.773-114.078 560.992-129.004"/>
<path transform="matrix(-.416644,-1,-1,.416644,0,0)" stroke-width=".789547" stroke-linecap="round" stroke-linejoin="round" fill="none" stroke="#000000" d="M-295.598-430.29C-295.481-431.011-294.155-432.095-293.794-432.214-294.157-432.336-295.479-433.418-295.599-434.137"/>
<path transform="matrix(1,0,0,-1,0,0)" stroke-width="1.066667" stroke-linecap="butt" stroke-miterlimit="4" stroke-linejoin="miter" fill="none" stroke="#000000" d="M564.859-149.023V-162.395"/>
<path transform="matrix(0,-1,-1,0,0,0)" stroke-width=".853333" stroke-linecap="round" stroke-linejoin="round" fill="none" stroke="#000000" d="M-150.582-562.777C-150.453-563.559-149.023-564.73-148.633-564.859-149.023-564.988-150.453-566.16-150.582-566.938"/>
</g>
</svg>
