<?xml version="1.0" encoding="UTF-8" standalone="no"?>
<svg
   xmlns:dc="http://purl.org/dc/elements/1.1/"
   xmlns:cc="http://creativecommons.org/ns#"
   xmlns:rdf="http://www.w3.org/1999/02/22-rdf-syntax-ns#"
   xmlns:svg="http://www.w3.org/2000/svg"
   xmlns="http://www.w3.org/2000/svg"
   version="1.1"
   id="svg2"
   xml:space="preserve"
   width="961.33331"
   height="697.33331"
   viewBox="0 0 961.33331 697.33331"><metadata
     id="metadata8"><rdf:RDF><cc:Work
         rdf:about=""><dc:format>image/svg+xml</dc:format><dc:type
           rdf:resource="http://purl.org/dc/dcmitype/StillImage" /></cc:Work></rdf:RDF></metadata><defs
     id="defs6"><clipPath
       clipPathUnits="userSpaceOnUse"
       id="clipPath22"><path
         d="M 64.8,64.8 H 714.24 V 516.24 H 64.8 Z"
         id="path20" /></clipPath><clipPath
       clipPathUnits="userSpaceOnUse"
       id="clipPath128"><path
         d="M 64.8,64.8 H 714.24 V 516.24 H 64.8 Z"
         id="path126" /></clipPath><clipPath
       clipPathUnits="userSpaceOnUse"
       id="clipPath164"><path
         d="M 64.8,64.8 H 714.24 V 516.24 H 64.8 Z"
         id="path162" /></clipPath></defs><g
     id="g10"
     transform="matrix(1.3333333,0,0,-1.3333333,0,697.33333)"><g
       id="g12"><path
         d="M 0,0 H 721.44 V 523.44 H 0 Z"
         style="fill:#ffffff;fill-opacity:1;fill-rule:nonzero;stroke:none"
         id="path14" /></g><g
       id="g16"><g
         id="g18"
         clip-path="url(#clipPath22)"><path
           d="m 690.19,155.39 -6.08,0.75 -6.07,0.07 -6.08,0.08 -6.07,0.09 -6.07,0.1 -6.08,0.1 -6.07,0.12 -6.08,0.12 -6.07,0.14 -6.07,0.15 -6.08,0.17 -6.07,0.18 -6.08,0.2 -6.07,0.22 -6.07,0.24 -6.08,0.26 -6.07,0.29 -6.08,0.31 -6.07,0.34 -6.07,0.38 -6.08,0.41 -6.07,0.44 -6.08,0.49 -6.07,0.54 -6.08,0.58 -6.07,0.63 -6.07,0.69 -6.08,0.76 -6.07,0.82 -6.08,0.89 -6.07,0.97 -6.07,1.05 -6.08,1.14 -6.07,1.24 -6.08,1.34 -6.07,1.45 -6.07,1.56 -6.08,1.69 -6.07,1.81 -6.08,1.96 -6.07,2.1 -6.07,2.24 -6.08,2.41 -6.07,2.57 -6.08,2.74 -6.07,2.92 -6.07,3.1 -6.08,3.28 -6.07,3.47 -6.08,3.66 -6.07,3.86 -6.08,4.04 -6.07,4.25 -6.07,4.43 -6.08,4.63 -6.07,4.82 -6.08,5.01 -6.07,5.18 -6.07,5.37 -6.08,5.54 -6.07,5.71 -6.08,5.86 -6.07,6.03 -6.07,6.17 -6.08,6.31 -6.07,6.45 -6.08,6.57 -6.07,6.68 -6.07,6.8 -6.08,6.89 -6.07,6.97 -6.08,7.06 -6.07,7.12 -6.07,7.17 -6.08,7.2 -6.07,7.23 -6.08,7.22 -6.07,7.22 -6.08,7.2 -6.07,7.16 -6.07,7.1 -6.08,7.03 -6.07,6.94 -6.08,6.82 -6.07,6.68 -6.07,6.56 -6.08,6.4 -6.07,6.24 -6.08,6.06 -6.07,5.86 -6.07,5.66 -6.08,5.45 -6.07,5.24 -6.08,5.01 -6.07,4.79 -6.07,4.56 -6.08,4.33 -6.07,4.11 -6.08,3.88"
           style="fill:none;stroke:#000000;stroke-width:0.75;stroke-linecap:round;stroke-linejoin:round;stroke-miterlimit:10;stroke-dasharray:none;stroke-opacity:1"
           id="path24" /></g></g><g
       id="g26"><path
         d="M 119.73,64.8 H 642.04"
         style="fill:none;stroke:#000000;stroke-width:0.75;stroke-linecap:round;stroke-linejoin:round;stroke-miterlimit:10;stroke-dasharray:none;stroke-opacity:1"
         id="path28" /><path
         d="M 119.73,64.8 V 57.6"
         style="fill:none;stroke:#000000;stroke-width:0.75;stroke-linecap:round;stroke-linejoin:round;stroke-miterlimit:10;stroke-dasharray:none;stroke-opacity:1"
         id="path30" /><path
         d="M 250.3,64.8 V 57.6"
         style="fill:none;stroke:#000000;stroke-width:0.75;stroke-linecap:round;stroke-linejoin:round;stroke-miterlimit:10;stroke-dasharray:none;stroke-opacity:1"
         id="path32" /><path
         d="M 380.88,64.8 V 57.6"
         style="fill:none;stroke:#000000;stroke-width:0.75;stroke-linecap:round;stroke-linejoin:round;stroke-miterlimit:10;stroke-dasharray:none;stroke-opacity:1"
         id="path34" /><path
         d="M 511.46,64.8 V 57.6"
         style="fill:none;stroke:#000000;stroke-width:0.75;stroke-linecap:round;stroke-linejoin:round;stroke-miterlimit:10;stroke-dasharray:none;stroke-opacity:1"
         id="path36" /><path
         d="M 642.04,64.8 V 57.6"
         style="fill:none;stroke:#000000;stroke-width:0.75;stroke-linecap:round;stroke-linejoin:round;stroke-miterlimit:10;stroke-dasharray:none;stroke-opacity:1"
         id="path38" /><text
         transform="matrix(1,0,0,-1,112.89,38.88)"
         style="font-variant:normal;font-weight:normal;font-size:12px;font-family:Helvetica;-inkscape-font-specification:Helvetica;writing-mode:lr-tb;fill:#000000;fill-opacity:1;fill-rule:nonzero;stroke:none"
         id="text42"><tspan
           x="0 7.0079999"
           y="0"
           id="tspan40">−2</tspan></text><text
         transform="matrix(1,0,0,-1,246.97,38.88)"
         style="font-variant:normal;font-weight:normal;font-size:12px;font-family:Helvetica;-inkscape-font-specification:Helvetica;writing-mode:lr-tb;fill:#000000;fill-opacity:1;fill-rule:nonzero;stroke:none"
         id="text46"><tspan
           x="0"
           y="0"
           id="tspan44">0</tspan></text><text
         transform="matrix(1,0,0,-1,377.55,38.88)"
         style="font-variant:normal;font-weight:normal;font-size:12px;font-family:Helvetica;-inkscape-font-specification:Helvetica;writing-mode:lr-tb;fill:#000000;fill-opacity:1;fill-rule:nonzero;stroke:none"
         id="text50"><tspan
           x="0"
           y="0"
           id="tspan48">2</tspan></text><text
         transform="matrix(1,0,0,-1,508.12,38.88)"
         style="font-variant:normal;font-weight:normal;font-size:12px;font-family:Helvetica;-inkscape-font-specification:Helvetica;writing-mode:lr-tb;fill:#000000;fill-opacity:1;fill-rule:nonzero;stroke:none"
         id="text54"><tspan
           x="0"
           y="0"
           id="tspan52">4</tspan></text><text
         transform="matrix(1,0,0,-1,638.7,38.88)"
         style="font-variant:normal;font-weight:normal;font-size:12px;font-family:Helvetica;-inkscape-font-specification:Helvetica;writing-mode:lr-tb;fill:#000000;fill-opacity:1;fill-rule:nonzero;stroke:none"
         id="text58"><tspan
           x="0"
           y="0"
           id="tspan56">6</tspan></text><path
         d="M 64.8,96.07 V 511.3"
         style="fill:none;stroke:#000000;stroke-width:0.75;stroke-linecap:round;stroke-linejoin:round;stroke-miterlimit:10;stroke-dasharray:none;stroke-opacity:1"
         id="path60" /><path
         d="M 64.8,96.07 H 57.6"
         style="fill:none;stroke:#000000;stroke-width:0.75;stroke-linecap:round;stroke-linejoin:round;stroke-miterlimit:10;stroke-dasharray:none;stroke-opacity:1"
         id="path62" /><path
         d="M 64.8,155.39 H 57.6"
         style="fill:none;stroke:#000000;stroke-width:0.75;stroke-linecap:round;stroke-linejoin:round;stroke-miterlimit:10;stroke-dasharray:none;stroke-opacity:1"
         id="path64" /><path
         d="M 64.8,214.71 H 57.6"
         style="fill:none;stroke:#000000;stroke-width:0.75;stroke-linecap:round;stroke-linejoin:round;stroke-miterlimit:10;stroke-dasharray:none;stroke-opacity:1"
         id="path66" /><path
         d="M 64.8,274.03 H 57.6"
         style="fill:none;stroke:#000000;stroke-width:0.75;stroke-linecap:round;stroke-linejoin:round;stroke-miterlimit:10;stroke-dasharray:none;stroke-opacity:1"
         id="path68" /><path
         d="M 64.8,333.35 H 57.6"
         style="fill:none;stroke:#000000;stroke-width:0.75;stroke-linecap:round;stroke-linejoin:round;stroke-miterlimit:10;stroke-dasharray:none;stroke-opacity:1"
         id="path70" /><path
         d="M 64.8,392.67 H 57.6"
         style="fill:none;stroke:#000000;stroke-width:0.75;stroke-linecap:round;stroke-linejoin:round;stroke-miterlimit:10;stroke-dasharray:none;stroke-opacity:1"
         id="path72" /><path
         d="M 64.8,451.99 H 57.6"
         style="fill:none;stroke:#000000;stroke-width:0.75;stroke-linecap:round;stroke-linejoin:round;stroke-miterlimit:10;stroke-dasharray:none;stroke-opacity:1"
         id="path74" /><path
         d="M 64.8,511.3 H 57.6"
         style="fill:none;stroke:#000000;stroke-width:0.75;stroke-linecap:round;stroke-linejoin:round;stroke-miterlimit:10;stroke-dasharray:none;stroke-opacity:1"
         id="path76" /><text
         transform="matrix(0,1,1,0,47.52,84.23)"
         style="font-variant:normal;font-weight:normal;font-size:12px;font-family:Helvetica;-inkscape-font-specification:Helvetica;writing-mode:lr-tb;fill:#000000;fill-opacity:1;fill-rule:nonzero;stroke:none"
         id="text80"><tspan
           x="0 7.0079999 13.68 17.016001"
           y="0"
           id="tspan78">−0.1</tspan></text><text
         transform="matrix(0,1,1,0,47.52,147.05)"
         style="font-variant:normal;font-weight:normal;font-size:12px;font-family:Helvetica;-inkscape-font-specification:Helvetica;writing-mode:lr-tb;fill:#000000;fill-opacity:1;fill-rule:nonzero;stroke:none"
         id="text84"><tspan
           x="0 6.6719999 10.008"
           y="0"
           id="tspan82">0.0</tspan></text><text
         transform="matrix(0,1,1,0,47.52,206.37)"
         style="font-variant:normal;font-weight:normal;font-size:12px;font-family:Helvetica;-inkscape-font-specification:Helvetica;writing-mode:lr-tb;fill:#000000;fill-opacity:1;fill-rule:nonzero;stroke:none"
         id="text88"><tspan
           x="0 6.6719999 10.008"
           y="0"
           id="tspan86">0.1</tspan></text><text
         transform="matrix(0,1,1,0,47.52,265.69)"
         style="font-variant:normal;font-weight:normal;font-size:12px;font-family:Helvetica;-inkscape-font-specification:Helvetica;writing-mode:lr-tb;fill:#000000;fill-opacity:1;fill-rule:nonzero;stroke:none"
         id="text92"><tspan
           x="0 6.6719999 10.008"
           y="0"
           id="tspan90">0.2</tspan></text><text
         transform="matrix(0,1,1,0,47.52,325.01)"
         style="font-variant:normal;font-weight:normal;font-size:12px;font-family:Helvetica;-inkscape-font-specification:Helvetica;writing-mode:lr-tb;fill:#000000;fill-opacity:1;fill-rule:nonzero;stroke:none"
         id="text96"><tspan
           x="0 6.6719999 10.008"
           y="0"
           id="tspan94">0.3</tspan></text><text
         transform="matrix(0,1,1,0,47.52,384.33)"
         style="font-variant:normal;font-weight:normal;font-size:12px;font-family:Helvetica;-inkscape-font-specification:Helvetica;writing-mode:lr-tb;fill:#000000;fill-opacity:1;fill-rule:nonzero;stroke:none"
         id="text100"><tspan
           x="0 6.6719999 10.008"
           y="0"
           id="tspan98">0.4</tspan></text><text
         transform="matrix(0,1,1,0,47.52,443.65)"
         style="font-variant:normal;font-weight:normal;font-size:12px;font-family:Helvetica;-inkscape-font-specification:Helvetica;writing-mode:lr-tb;fill:#000000;fill-opacity:1;fill-rule:nonzero;stroke:none"
         id="text104"><tspan
           x="0 6.6719999 10.008"
           y="0"
           id="tspan102">0.5</tspan></text><text
         transform="matrix(0,1,1,0,47.52,502.96)"
         style="font-variant:normal;font-weight:normal;font-size:12px;font-family:Helvetica;-inkscape-font-specification:Helvetica;writing-mode:lr-tb;fill:#000000;fill-opacity:1;fill-rule:nonzero;stroke:none"
         id="text108"><tspan
           x="0 6.6719999 10.008"
           y="0"
           id="tspan106">0.6</tspan></text><path
         d="M 64.8,64.8 H 714.24 V 516.24 H 64.8 V 64.8"
         style="fill:none;stroke:#000000;stroke-width:0.75;stroke-linecap:round;stroke-linejoin:round;stroke-miterlimit:10;stroke-dasharray:none;stroke-opacity:1"
         id="path110" /></g><g
       id="g112"><text
         transform="matrix(1,0,0,-1,356.17,10.08)"
         style="font-variant:normal;font-weight:normal;font-size:12px;font-family:Helvetica;-inkscape-font-specification:Helvetica;writing-mode:lr-tb;fill:#000000;fill-opacity:1;fill-rule:nonzero;stroke:none"
         id="text116"><tspan
           x="0 6.6719999 13.344 20.016001 23.351999 30.024 36.695999 46.692001 53.363998 60.035999"
           y="0"
           id="tspan114">Log Lambda</tspan></text><text
         transform="matrix(0,1,1,0,18.72,259.18)"
         style="font-variant:normal;font-weight:normal;font-size:12px;font-family:Helvetica;-inkscape-font-specification:Helvetica;writing-mode:lr-tb;fill:#000000;fill-opacity:1;fill-rule:nonzero;stroke:none"
         id="text120"><tspan
           x="0 8.6639996 15.336 22.007999 25.344 28.68 31.344 37.344002 40.007999 46.68 53.352001 56.688"
           y="0"
           id="tspan118">Coefficients</tspan></text></g><g
       id="g122"><g
         id="g124"
         clip-path="url(#clipPath128)"><path
           d="m 690.19,155.39 -6.08,0.44 -6.07,0.05 -6.08,0.04 -6.07,0.06 -6.07,0.05 -6.08,0.07 -6.07,0.06 -6.08,0.08 -6.07,0.08 -6.07,0.09 -6.08,0.1 -6.07,0.1 -6.08,0.12 -6.07,0.13 -6.07,0.14 -6.08,0.16 -6.07,0.17 -6.08,0.18 -6.07,0.21 -6.07,0.22 -6.08,0.24 -6.07,0.27 -6.08,0.29 -6.07,0.31 -6.08,0.35 -6.07,0.37 -6.07,0.42 -6.08,0.44 -6.07,0.49 -6.08,0.53 -6.07,0.58 -6.07,0.63 -6.08,0.68 -6.07,0.74 -6.08,0.8 -6.07,0.87 -6.07,0.94 -6.08,1.01 -6.07,1.1 -6.08,1.17 -6.07,1.27 -6.07,1.36 -6.08,1.46 -6.07,1.56 -6.08,1.67 -6.07,1.77 -6.07,1.89 -6.08,2 -6.07,2.13 -6.08,2.24 -6.07,2.36 -6.08,2.48 -6.07,2.61 -6.07,2.72 -6.08,2.83 -6.07,2.95 -6.08,3.06 -6.07,3.16 -6.07,3.25 -6.08,3.34 -6.07,3.42 -6.08,3.48 -6.07,3.54 -6.07,3.59 -6.08,3.62 -6.07,3.65 -6.08,3.64 -6.07,3.65 -6.07,3.62 -6.08,3.58 -6.07,3.54 -6.08,3.47 -6.07,3.4 -6.07,3.32 -6.08,3.21 -6.07,3.11 -6.08,2.98 -6.07,2.86 -6.08,2.73 -6.07,2.6 -6.07,2.45 -6.08,2.32 -6.07,2.17 -6.08,2.04 -6.07,1.88 -6.07,1.76 -6.08,1.62 -6.07,1.5 -6.08,1.38 -6.07,1.26 -6.07,1.16 -6.08,1.05 -6.07,0.95 -6.08,0.87 -6.07,0.79 -6.07,0.7 -6.08,0.64 -6.07,0.58 -6.08,0.52"
           style="fill:none;stroke:#ff0000;stroke-width:0.75;stroke-linecap:round;stroke-linejoin:round;stroke-miterlimit:10;stroke-dasharray:none;stroke-opacity:1"
           id="path130" /><path
           d="m 690.19,155.39 -6.08,0.18 -6.07,0.01 -6.08,0.02 -6.07,0.02 -6.07,0.02 -6.08,0.03 -6.07,0.02 -6.08,0.03 -6.07,0.03 -6.07,0.04 -6.08,0.03 -6.07,0.05 -6.08,0.04 -6.07,0.05 -6.07,0.05 -6.08,0.06 -6.07,0.07 -6.08,0.07 -6.07,0.07 -6.07,0.08 -6.08,0.09 -6.07,0.1 -6.08,0.11 -6.07,0.11 -6.08,0.13 -6.07,0.13 -6.07,0.15 -6.08,0.16 -6.07,0.17 -6.08,0.18 -6.07,0.19 -6.07,0.21 -6.08,0.23 -6.07,0.24 -6.08,0.25 -6.07,0.27 -6.07,0.29 -6.08,0.29 -6.07,0.32 -6.08,0.32 -6.07,0.34 -6.07,0.34 -6.08,0.36 -6.07,0.35 -6.08,0.36 -6.07,0.36 -6.07,0.35 -6.08,0.33 -6.07,0.31 -6.08,0.29 -6.07,0.26 -6.08,0.21 -6.07,0.16 -6.07,0.09 -6.08,0.03 -6.07,-0.05 -6.08,-0.14 -6.07,-0.24 -6.07,-0.36 -6.08,-0.47 -6.07,-0.6 -6.08,-0.73 -6.07,-0.88 -6.07,-1.02 -6.08,-1.18 -6.07,-1.32 -6.08,-1.48 -6.07,-1.63 -6.07,-1.78 -6.08,-1.91 -6.07,-2.06 -6.08,-2.18 -6.07,-2.3 -6.07,-2.41 -6.08,-2.51 -6.07,-2.59 -6.08,-2.66 -6.07,-2.71 -6.08,-2.76 -6.07,-2.78 -6.07,-2.8 -6.08,-2.8 -6.07,-2.78 -6.08,-2.76 -6.07,-2.73 -6.07,-2.68 -6.08,-2.62 -6.07,-2.56 -6.08,-2.48 -6.07,-2.41 -6.07,-2.32 -6.08,-2.24 -6.07,-2.14 -6.08,-2.05 -6.07,-1.95 -6.07,-1.86 -6.08,-1.76 -6.07,-1.66 -6.08,-1.57"
           style="fill:none;stroke:#00cd00;stroke-width:0.75;stroke-linecap:round;stroke-linejoin:round;stroke-miterlimit:10;stroke-dasharray:none;stroke-opacity:1"
           id="path132" /><path
           d="m 690.19,155.39 -6.08,0.19 -6.07,0.01 -6.08,0.02 -6.07,0.03 -6.07,0.02 -6.08,0.02 -6.07,0.03 -6.08,0.03 -6.07,0.04 -6.07,0.03 -6.08,0.05 -6.07,0.04 -6.08,0.05 -6.07,0.05 -6.07,0.06 -6.08,0.06 -6.07,0.07 -6.08,0.08 -6.07,0.09 -6.07,0.09 -6.08,0.1 -6.07,0.11 -6.08,0.12 -6.07,0.13 -6.08,0.14 -6.07,0.16 -6.07,0.17 -6.08,0.18 -6.07,0.2 -6.08,0.22 -6.07,0.24 -6.07,0.26 -6.08,0.28 -6.07,0.3 -6.08,0.33 -6.07,0.35 -6.07,0.39 -6.08,0.41 -6.07,0.45 -6.08,0.47 -6.07,0.52 -6.07,0.55 -6.08,0.59 -6.07,0.63 -6.08,0.67 -6.07,0.72 -6.07,0.75 -6.08,0.8 -6.07,0.85 -6.08,0.89 -6.07,0.94 -6.08,0.98 -6.07,1.03 -6.07,1.07 -6.08,1.11 -6.07,1.15 -6.08,1.19 -6.07,1.23 -6.07,1.27 -6.08,1.3 -6.07,1.33 -6.08,1.35 -6.07,1.38 -6.07,1.41 -6.08,1.42 -6.07,1.44 -6.08,1.45 -6.07,1.47 -6.07,1.47 -6.08,1.48 -6.07,1.48 -6.08,1.49 -6.07,1.48 -6.07,1.48 -6.08,1.48 -6.07,1.46 -6.08,1.46 -6.07,1.44 -6.08,1.43 -6.07,1.41 -6.07,1.4 -6.08,1.36 -6.07,1.35 -6.08,1.31 -6.07,1.3 -6.07,1.26 -6.08,1.22 -6.07,1.19 -6.08,1.15 -6.07,1.11 -6.07,1.07 -6.08,1.03 -6.07,0.99 -6.08,0.94 -6.07,0.9 -6.07,0.85 -6.08,0.82 -6.07,0.76 -6.08,0.73"
           style="fill:none;stroke:#0000ff;stroke-width:0.75;stroke-linecap:round;stroke-linejoin:round;stroke-miterlimit:10;stroke-dasharray:none;stroke-opacity:1"
           id="path134" /><path
           d="m 690.19,155.39 -6.08,0.58 -6.07,0.06 -6.08,0.06 -6.07,0.06 -6.07,0.08 -6.08,0.08 -6.07,0.09 -6.08,0.09 -6.07,0.11 -6.07,0.12 -6.08,0.13 -6.07,0.14 -6.08,0.15 -6.07,0.17 -6.07,0.18 -6.08,0.2 -6.07,0.22 -6.08,0.24 -6.07,0.26 -6.07,0.29 -6.08,0.31 -6.07,0.34 -6.08,0.38 -6.07,0.4 -6.08,0.45 -6.07,0.48 -6.07,0.53 -6.08,0.57 -6.07,0.62 -6.08,0.68 -6.07,0.73 -6.07,0.79 -6.08,0.86 -6.07,0.93 -6.08,1.01 -6.07,1.08 -6.07,1.17 -6.08,1.25 -6.07,1.34 -6.08,1.44 -6.07,1.54 -6.07,1.65 -6.08,1.75 -6.07,1.85 -6.08,1.97 -6.07,2.08 -6.07,2.2 -6.08,2.3 -6.07,2.42 -6.08,2.52 -6.07,2.64 -6.08,2.73 -6.07,2.83 -6.07,2.92 -6.08,3 -6.07,3.08 -6.08,3.14 -6.07,3.21 -6.07,3.25 -6.08,3.29 -6.07,3.31 -6.08,3.34 -6.07,3.34 -6.07,3.34 -6.08,3.34 -6.07,3.31 -6.08,3.29 -6.07,3.25 -6.07,3.21 -6.08,3.17 -6.07,3.12 -6.08,3.06 -6.07,3.01 -6.07,2.94 -6.08,2.89 -6.07,2.83 -6.08,2.76 -6.07,2.71 -6.08,2.64 -6.07,2.59 -6.07,2.54 -6.08,2.47 -6.07,2.42 -6.08,2.36 -6.07,2.32 -6.07,2.26 -6.08,2.19 -6.07,2.14 -6.08,2.08 -6.07,2.01 -6.07,1.95 -6.08,1.88 -6.07,1.82 -6.08,1.75 -6.07,1.67 -6.07,1.61 -6.08,1.53 -6.07,1.46 -6.08,1.39"
           style="fill:none;stroke:#00ffff;stroke-width:0.75;stroke-linecap:round;stroke-linejoin:round;stroke-miterlimit:10;stroke-dasharray:none;stroke-opacity:1"
           id="path136" /><path
           d="m 690.19,155.39 -6.08,0.56 -6.07,0.06 -6.08,0.06 -6.07,0.06 -6.07,0.07 -6.08,0.08 -6.07,0.09 -6.08,0.09 -6.07,0.1 -6.07,0.11 -6.08,0.13 -6.07,0.13 -6.08,0.15 -6.07,0.16 -6.07,0.18 -6.08,0.19 -6.07,0.21 -6.08,0.23 -6.07,0.26 -6.07,0.27 -6.08,0.3 -6.07,0.33 -6.08,0.36 -6.07,0.39 -6.08,0.42 -6.07,0.46 -6.07,0.5 -6.08,0.54 -6.07,0.59 -6.08,0.64 -6.07,0.69 -6.07,0.75 -6.08,0.81 -6.07,0.87 -6.08,0.93 -6.07,1.01 -6.07,1.07 -6.08,1.15 -6.07,1.23 -6.08,1.31 -6.07,1.39 -6.07,1.48 -6.08,1.55 -6.07,1.64 -6.08,1.72 -6.07,1.79 -6.07,1.87 -6.08,1.94 -6.07,2 -6.08,2.05 -6.07,2.1 -6.08,2.13 -6.07,2.15 -6.07,2.17 -6.08,2.15 -6.07,2.13 -6.08,2.09 -6.07,2.03 -6.07,1.96 -6.08,1.86 -6.07,1.73 -6.08,1.61 -6.07,1.44 -6.07,1.27 -6.08,1.07 -6.07,0.86 -6.08,0.63 -6.07,0.38 -6.07,0.13 -6.08,-0.16 -6.07,-0.44 -6.08,-0.73 -6.07,-1.03 -6.07,-1.34 -6.08,-1.65 -6.07,-1.95 -6.08,-2.25 -6.07,-2.54 -6.08,-2.83 -6.07,-3.1 -6.07,-3.35 -6.08,-3.59 -6.07,-3.81 -6.08,-4 -6.07,-4.14 -6.07,-4.31 -6.08,-4.41 -6.07,-4.5 -6.08,-4.55 -6.07,-4.58 -6.07,-4.58 -6.08,-4.56 -6.07,-4.5 -6.08,-4.44 -6.07,-4.34 -6.07,-4.23 -6.08,-4.1 -6.07,-3.97 -6.08,-3.82"
           style="fill:none;stroke:#ff00ff;stroke-width:0.75;stroke-linecap:round;stroke-linejoin:round;stroke-miterlimit:10;stroke-dasharray:none;stroke-opacity:1"
           id="path138" /><path
           d="m 690.19,155.39 -6.08,0.38 -6.07,0.03 -6.08,0.04 -6.07,0.05 -6.07,0.05 -6.08,0.05 -6.07,0.06 -6.08,0.06 -6.07,0.07 -6.07,0.07 -6.08,0.09 -6.07,0.09 -6.08,0.09 -6.07,0.11 -6.07,0.12 -6.08,0.13 -6.07,0.14 -6.08,0.15 -6.07,0.17 -6.07,0.19 -6.08,0.2 -6.07,0.21 -6.08,0.24 -6.07,0.26 -6.08,0.28 -6.07,0.3 -6.07,0.33 -6.08,0.36 -6.07,0.39 -6.08,0.41 -6.07,0.46 -6.07,0.48 -6.08,0.53 -6.07,0.56 -6.08,0.6 -6.07,0.65 -6.07,0.69 -6.08,0.73 -6.07,0.78 -6.08,0.82 -6.07,0.87 -6.07,0.92 -6.08,0.96 -6.07,1 -6.08,1.04 -6.07,1.07 -6.07,1.11 -6.08,1.14 -6.07,1.15 -6.08,1.17 -6.07,1.18 -6.08,1.17 -6.07,1.17 -6.07,1.15 -6.08,1.11 -6.07,1.08 -6.08,1.04 -6.07,0.97 -6.07,0.91 -6.08,0.84 -6.07,0.77 -6.08,0.68 -6.07,0.59 -6.07,0.51 -6.08,0.41 -6.07,0.33 -6.08,0.24 -6.07,0.16 -6.07,0.09 -6.08,0.01 -6.07,-0.05 -6.08,-0.11 -6.07,-0.16 -6.07,-0.2 -6.08,-0.24 -6.07,-0.27 -6.08,-0.27 -6.07,-0.31 -6.08,-0.31 -6.07,-0.33 -6.07,-0.33 -6.08,-0.34 -6.07,-0.34 -6.08,-0.34 -6.07,-0.33 -6.07,-0.34 -6.08,-0.35 -6.07,-0.35 -6.08,-0.36 -6.07,-0.35 -6.07,-0.36 -6.08,-0.36 -6.07,-0.37 -6.08,-0.36 -6.07,-0.36 -6.07,-0.37 -6.08,-0.36 -6.07,-0.35 -6.08,-0.35"
           style="fill:none;stroke:#000000;stroke-width:0.75;stroke-linecap:round;stroke-linejoin:round;stroke-miterlimit:10;stroke-dasharray:none;stroke-opacity:1"
           id="path140" /><path
           d="m 690.19,155.39 -6.08,0.43 -6.07,0.04 -6.08,0.05 -6.07,0.05 -6.07,0.05 -6.08,0.06 -6.07,0.07 -6.08,0.07 -6.07,0.08 -6.07,0.09 -6.08,0.09 -6.07,0.11 -6.08,0.11 -6.07,0.12 -6.07,0.14 -6.08,0.15 -6.07,0.16 -6.08,0.17 -6.07,0.2 -6.07,0.21 -6.08,0.23 -6.07,0.24 -6.08,0.28 -6.07,0.29 -6.08,0.32 -6.07,0.35 -6.07,0.38 -6.08,0.41 -6.07,0.45 -6.08,0.48 -6.07,0.52 -6.07,0.56 -6.08,0.6 -6.07,0.65 -6.08,0.7 -6.07,0.74 -6.07,0.8 -6.08,0.84 -6.07,0.9 -6.08,0.96 -6.07,1.01 -6.07,1.06 -6.08,1.11 -6.07,1.17 -6.08,1.21 -6.07,1.26 -6.07,1.3 -6.08,1.33 -6.07,1.36 -6.08,1.38 -6.07,1.4 -6.08,1.39 -6.07,1.39 -6.07,1.38 -6.08,1.35 -6.07,1.31 -6.08,1.26 -6.07,1.2 -6.07,1.13 -6.08,1.06 -6.07,0.97 -6.08,0.88 -6.07,0.78 -6.07,0.68 -6.08,0.59 -6.07,0.48 -6.08,0.4 -6.07,0.3 -6.07,0.22 -6.08,0.14 -6.07,0.08 -6.08,0.04 -6.07,-0.01 -6.07,-0.04 -6.08,-0.04 -6.07,-0.05 -6.08,-0.03 h -6.07 l -6.08,0.03 -6.07,0.09 -6.07,0.14 -6.08,0.21 -6.07,0.29 -6.08,0.35 -6.07,0.42 -6.07,0.51 -6.08,0.59 -6.07,0.66 -6.08,0.73 -6.07,0.79 -6.07,0.85 -6.08,0.89 -6.07,0.94 -6.08,0.97 -6.07,0.99 -6.07,1.01 -6.08,1.01 -6.07,1.01 -6.08,1.01"
           style="fill:none;stroke:#ff0000;stroke-width:0.75;stroke-linecap:round;stroke-linejoin:round;stroke-miterlimit:10;stroke-dasharray:none;stroke-opacity:1"
           id="path142" /></g></g><g
       id="g144"><path
         d="M 64.8,516.24 H 714.24"
         style="fill:none;stroke:#000000;stroke-width:0.75;stroke-linecap:round;stroke-linejoin:round;stroke-miterlimit:10;stroke-dasharray:none;stroke-opacity:1"
         id="path146" /><path
         d="m 119.73,516.24 v 4.51"
         style="fill:none;stroke:#000000;stroke-width:0.75;stroke-linecap:round;stroke-linejoin:round;stroke-miterlimit:10;stroke-dasharray:none;stroke-opacity:1"
         id="path148" /><path
         d="m 250.3,516.24 v 4.51"
         style="fill:none;stroke:#000000;stroke-width:0.75;stroke-linecap:round;stroke-linejoin:round;stroke-miterlimit:10;stroke-dasharray:none;stroke-opacity:1"
         id="path150" /><path
         d="m 380.88,516.24 v 4.51"
         style="fill:none;stroke:#000000;stroke-width:0.75;stroke-linecap:round;stroke-linejoin:round;stroke-miterlimit:10;stroke-dasharray:none;stroke-opacity:1"
         id="path152" /><path
         d="m 511.46,516.24 v 4.51"
         style="fill:none;stroke:#000000;stroke-width:0.75;stroke-linecap:round;stroke-linejoin:round;stroke-miterlimit:10;stroke-dasharray:none;stroke-opacity:1"
         id="path154" /><path
         d="m 642.04,516.24 v 4.51"
         style="fill:none;stroke:#000000;stroke-width:0.75;stroke-linecap:round;stroke-linejoin:round;stroke-miterlimit:10;stroke-dasharray:none;stroke-opacity:1"
         id="path156" /></g><g
       id="g158"><g
         id="g160"
         clip-path="url(#clipPath164)"><path
           d="M 119.73,64.8 V 516.24"
           style="fill:none;stroke:#d3d3d3;stroke-width:0.75;stroke-linecap:round;stroke-linejoin:round;stroke-miterlimit:10;stroke-dasharray:0, 3;stroke-dashoffset:0;stroke-opacity:1"
           id="path166" /><path
           d="M 250.3,64.8 V 516.24"
           style="fill:none;stroke:#d3d3d3;stroke-width:0.75;stroke-linecap:round;stroke-linejoin:round;stroke-miterlimit:10;stroke-dasharray:0, 3;stroke-dashoffset:0;stroke-opacity:1"
           id="path168" /><path
           d="M 380.88,64.8 V 516.24"
           style="fill:none;stroke:#d3d3d3;stroke-width:0.75;stroke-linecap:round;stroke-linejoin:round;stroke-miterlimit:10;stroke-dasharray:0, 3;stroke-dashoffset:0;stroke-opacity:1"
           id="path170" /><path
           d="M 511.46,64.8 V 516.24"
           style="fill:none;stroke:#d3d3d3;stroke-width:0.75;stroke-linecap:round;stroke-linejoin:round;stroke-miterlimit:10;stroke-dasharray:0, 3;stroke-dashoffset:0;stroke-opacity:1"
           id="path172" /><path
           d="M 642.04,64.8 V 516.24"
           style="fill:none;stroke:#d3d3d3;stroke-width:0.75;stroke-linecap:round;stroke-linejoin:round;stroke-miterlimit:10;stroke-dasharray:0, 3;stroke-dashoffset:0;stroke-opacity:1"
           id="path174" /><path
           d="M 64.8,96.07 H 714.24"
           style="fill:none;stroke:#d3d3d3;stroke-width:0.75;stroke-linecap:round;stroke-linejoin:round;stroke-miterlimit:10;stroke-dasharray:0, 3;stroke-dashoffset:0;stroke-opacity:1"
           id="path176" /><path
           d="M 64.8,155.39 H 714.24"
           style="fill:none;stroke:#d3d3d3;stroke-width:0.75;stroke-linecap:round;stroke-linejoin:round;stroke-miterlimit:10;stroke-dasharray:0, 3;stroke-dashoffset:0;stroke-opacity:1"
           id="path178" /><path
           d="M 64.8,214.71 H 714.24"
           style="fill:none;stroke:#d3d3d3;stroke-width:0.75;stroke-linecap:round;stroke-linejoin:round;stroke-miterlimit:10;stroke-dasharray:0, 3;stroke-dashoffset:0;stroke-opacity:1"
           id="path180" /><path
           d="M 64.8,274.03 H 714.24"
           style="fill:none;stroke:#d3d3d3;stroke-width:0.75;stroke-linecap:round;stroke-linejoin:round;stroke-miterlimit:10;stroke-dasharray:0, 3;stroke-dashoffset:0;stroke-opacity:1"
           id="path182" /><path
           d="M 64.8,333.35 H 714.24"
           style="fill:none;stroke:#d3d3d3;stroke-width:0.75;stroke-linecap:round;stroke-linejoin:round;stroke-miterlimit:10;stroke-dasharray:0, 3;stroke-dashoffset:0;stroke-opacity:1"
           id="path184" /><path
           d="M 64.8,392.67 H 714.24"
           style="fill:none;stroke:#d3d3d3;stroke-width:0.75;stroke-linecap:round;stroke-linejoin:round;stroke-miterlimit:10;stroke-dasharray:0, 3;stroke-dashoffset:0;stroke-opacity:1"
           id="path186" /><path
           d="M 64.8,451.99 H 714.24"
           style="fill:none;stroke:#d3d3d3;stroke-width:0.75;stroke-linecap:round;stroke-linejoin:round;stroke-miterlimit:10;stroke-dasharray:0, 3;stroke-dashoffset:0;stroke-opacity:1"
           id="path188" /><path
           d="M 64.8,511.3 H 714.24"
           style="fill:none;stroke:#d3d3d3;stroke-width:0.75;stroke-linecap:round;stroke-linejoin:round;stroke-miterlimit:10;stroke-dasharray:0, 3;stroke-dashoffset:0;stroke-opacity:1"
           id="path190" /><text
           transform="matrix(1,0,0,-1,81.32,497.41)"
           style="font-variant:normal;font-weight:normal;font-size:6px;font-family:Helvetica;-inkscape-font-specification:Helvetica;writing-mode:lr-tb;fill:#000000;fill-opacity:1;fill-rule:nonzero;stroke:none"
           id="text194"><tspan
             x="0 1.332 4.3319998 7.5479999 10.398 13.734"
             y="0"
             id="tspan192">lcavol</tspan></text><text
           transform="matrix(1,0,0,-1,79.55,307.43)"
           style="font-variant:normal;font-weight:normal;font-size:6px;font-family:Helvetica;-inkscape-font-specification:Helvetica;writing-mode:lr-tb;fill:#000000;fill-opacity:1;fill-rule:nonzero;stroke:none"
           id="text198"><tspan
             x="0 1.332 5.6040001 8.9399996 10.272 13.608 16.944"
             y="0"
             id="tspan196">lweight</tspan></text><text
           transform="matrix(1,0,0,-1,83.85,80.57)"
           style="font-variant:normal;font-weight:normal;font-size:6px;font-family:Helvetica;-inkscape-font-specification:Helvetica;writing-mode:lr-tb;fill:#000000;fill-opacity:1;fill-rule:nonzero;stroke:none"
           id="text202"><tspan
             x="0 3.336 6.6719999"
             y="0"
             id="tspan200">age</tspan></text><text
           transform="matrix(1,0,0,-1,83.18,227.72)"
           style="font-variant:normal;font-weight:normal;font-size:6px;font-family:Helvetica;-inkscape-font-specification:Helvetica;writing-mode:lr-tb;fill:#000000;fill-opacity:1;fill-rule:nonzero;stroke:none"
           id="text206"><tspan
             x="0 1.332 4.6680002 8.0039997"
             y="0"
             id="tspan204">lbph</tspan></text><text
           transform="matrix(1,0,0,-1,85.19,321.62)"
           style="font-variant:normal;font-weight:normal;font-size:6px;font-family:Helvetica;-inkscape-font-specification:Helvetica;writing-mode:lr-tb;fill:#000000;fill-opacity:1;fill-rule:nonzero;stroke:none"
           id="text210"><tspan
             x="0 3 6"
             y="0"
             id="tspan208">svi</tspan></text><text
           transform="matrix(1,0,0,-1,85.02,120.92)"
           style="font-variant:normal;font-weight:normal;font-size:6px;font-family:Helvetica;-inkscape-font-specification:Helvetica;writing-mode:lr-tb;fill:#000000;fill-opacity:1;fill-rule:nonzero;stroke:none"
           id="text214"><tspan
             x="0 1.332 4.3319998"
             y="0"
             id="tspan212">lcp</tspan></text><text
           transform="matrix(1,0,0,-1,78.35,181.23)"
           style="font-variant:normal;font-weight:normal;font-size:6px;font-family:Helvetica;-inkscape-font-specification:Helvetica;writing-mode:lr-tb;fill:#000000;fill-opacity:1;fill-rule:nonzero;stroke:none"
           id="text218"><tspan
             x="0 3.336 4.6680002 8.0039997 11.34 14.34 17.676001"
             y="0"
             id="tspan216">gleason</tspan></text><text
           transform="matrix(1,0,0,-1,80.51,211.03)"
           style="font-variant:normal;font-weight:normal;font-size:6px;font-family:Helvetica;-inkscape-font-specification:Helvetica;writing-mode:lr-tb;fill:#000000;fill-opacity:1;fill-rule:nonzero;stroke:none"
           id="text222"><tspan
             x="0 3.336 6.6719999 10.008 13.344"
             y="0"
             id="tspan220">pgg45</tspan></text></g></g></g></svg>
