<svg xmlns="http://www.w3.org/2000/svg" xmlns:xlink="http://www.w3.org/1999/xlink" version="1.1" width="721pt" height="523pt" viewBox="0 0 721 523">
<defs>
<clipPath id="clip_0">
<path transform="matrix(1,0,0,-1,0,523)" d="M64.8 64.8H685.44V509.03999H64.8Z"/>
</clipPath>
<clipPath id="clip_1">
<path transform="matrix(1,0,0,-1,0,523)" d="M64.8 64.8H685.44V509.03999H64.8Z"/>
</clipPath>
</defs>
<path transform="matrix(1,0,0,-1,0,523)" d="M0 0H721.44V523.44H0Z" fill="#ffffff"/>
<g clip-path="url(#clip_0)">
<path transform="matrix(1,0,0,-1,0,523)" stroke-width="2.25" stroke-linecap="round" stroke-linejoin="round" fill="none" stroke="#000000" d="M662.45 492.59H646.86 625.51L604.99 489.84 592.67 488.47 577.9 485.73 560.66 482.99 540.95 477.5H528.64L512.22 476.13 499.08 473.39 489.23 472.02 478.56 465.16H467.89 454.75L444.08 463.79H430.12L416.17 462.42 407.14 458.31 393.18 448.71 382.51 443.23 363.63 440.48 348.03 429.52 329.15 424.03 318.47 418.55 311.09 414.43 301.23 406.21 294.67 396.61 284.82 391.12 272.5 385.64 259.37 373.3 248.69 366.44 242.95 362.33 236.38 351.36 229.81 348.62 218.32 339.02 206.82 326.68 197.79 323.94 191.23 315.71 187.94 310.23 179.73 303.37 177.27 302 173.17 299.26 165.78 292.4 159.21 282.81 155.93 277.32 148.54 264.98 143.61 256.76 137.04 248.53 131.3 241.67 129.66 236.19 126.37 227.96 123.09 222.48 119.8 216.99 116.52 208.77 115.7 199.17 112.42 197.8V195.06L107.49 192.31 104.21 190.94 103.38 188.2 100.1 184.09 99.28 182.72V175.86 173.12L98.46 169V166.26H96L95.18 160.78V156.66L94.35 155.29H93.53V152.55L92.71 151.18 91.89 149.81V144.32 141.58 137.47L91.07 133.36 89.43 129.24V126.5 119.64 116.9L88.61 114.16H87.79V110.05 108.68 105.93 100.45 96.34 94.96 93.59 92.22 88.11 86.74 85.37 82.62 81.25"/>
</g>
<path transform="matrix(1,0,0,-1,0,523)" stroke-width=".75" stroke-linecap="round" stroke-linejoin="round" fill="none" stroke="#000000" d="M87.79 64.8H662.45"/>
<path transform="matrix(1,0,0,-1,0,523)" stroke-width=".75" stroke-linecap="round" stroke-linejoin="round" fill="none" stroke="#000000" d="M87.79 64.8V57.6"/>
<path transform="matrix(1,0,0,-1,0,523)" stroke-width=".75" stroke-linecap="round" stroke-linejoin="round" fill="none" stroke="#000000" d="M202.72 64.8V57.6"/>
<path transform="matrix(1,0,0,-1,0,523)" stroke-width=".75" stroke-linecap="round" stroke-linejoin="round" fill="none" stroke="#000000" d="M317.65 64.8V57.6"/>
<path transform="matrix(1,0,0,-1,0,523)" stroke-width=".75" stroke-linecap="round" stroke-linejoin="round" fill="none" stroke="#000000" d="M432.59 64.8V57.6"/>
<path transform="matrix(1,0,0,-1,0,523)" stroke-width=".75" stroke-linecap="round" stroke-linejoin="round" fill="none" stroke="#000000" d="M547.52 64.8V57.6"/>
<path transform="matrix(1,0,0,-1,0,523)" stroke-width=".75" stroke-linecap="round" stroke-linejoin="round" fill="none" stroke="#000000" d="M662.45 64.8V57.6"/>
<text xml:space="preserve" transform="matrix(1 0 -0 1 0 523)" font-size="24" font-family="Helvetica"><tspan y="-38.88" x="71.11 84.454 91.12601">0.0</tspan></text>
<text xml:space="preserve" transform="matrix(1 0 -0 1 0 523)" font-size="24" font-family="Helvetica"><tspan y="-38.88" x="186.04 199.384 206.056">0.2</tspan></text>
<text xml:space="preserve" transform="matrix(1 0 -0 1 0 523)" font-size="24" font-family="Helvetica"><tspan y="-38.88" x="300.97 314.314 320.986">0.4</tspan></text>
<text xml:space="preserve" transform="matrix(1 0 -0 1 0 523)" font-size="24" font-family="Helvetica"><tspan y="-38.88" x="415.91 429.254 435.926">0.6</tspan></text>
<text xml:space="preserve" transform="matrix(1 0 -0 1 0 523)" font-size="24" font-family="Helvetica"><tspan y="-38.88" x="530.84 544.184 550.856">0.8</tspan></text>
<text xml:space="preserve" transform="matrix(1 0 -0 1 0 523)" font-size="24" font-family="Helvetica"><tspan y="-38.88" x="645.77 659.114 665.786">1.0</tspan></text>
<path transform="matrix(1,0,0,-1,0,523)" stroke-width=".75" stroke-linecap="round" stroke-linejoin="round" fill="none" stroke="#000000" d="M64.8 81.25V492.59"/>
<path transform="matrix(1,0,0,-1,0,523)" stroke-width=".75" stroke-linecap="round" stroke-linejoin="round" fill="none" stroke="#000000" d="M64.8 81.25H57.6"/>
<path transform="matrix(1,0,0,-1,0,523)" stroke-width=".75" stroke-linecap="round" stroke-linejoin="round" fill="none" stroke="#000000" d="M64.8 163.52H57.6"/>
<path transform="matrix(1,0,0,-1,0,523)" stroke-width=".75" stroke-linecap="round" stroke-linejoin="round" fill="none" stroke="#000000" d="M64.8 245.79H57.6"/>
<path transform="matrix(1,0,0,-1,0,523)" stroke-width=".75" stroke-linecap="round" stroke-linejoin="round" fill="none" stroke="#000000" d="M64.8 328.05H57.6"/>
<path transform="matrix(1,0,0,-1,0,523)" stroke-width=".75" stroke-linecap="round" stroke-linejoin="round" fill="none" stroke="#000000" d="M64.8 410.32H57.6"/>
<path transform="matrix(1,0,0,-1,0,523)" stroke-width=".75" stroke-linecap="round" stroke-linejoin="round" fill="none" stroke="#000000" d="M64.8 492.59H57.6"/>
<text xml:space="preserve" transform="matrix(0 -1 1 0 0 523)" font-size="24" font-family="Helvetica"><tspan y="47.52" x="64.57 77.914 84.586">0.0</tspan></text>
<text xml:space="preserve" transform="matrix(0 -1 1 0 0 523)" font-size="24" font-family="Helvetica"><tspan y="47.52" x="146.84 160.18399 166.85599">0.2</tspan></text>
<text xml:space="preserve" transform="matrix(0 -1 1 0 0 523)" font-size="24" font-family="Helvetica"><tspan y="47.52" x="229.11 242.45401 249.126">0.4</tspan></text>
<text xml:space="preserve" transform="matrix(0 -1 1 0 0 523)" font-size="24" font-family="Helvetica"><tspan y="47.52" x="311.37 324.714 331.386">0.6</tspan></text>
<text xml:space="preserve" transform="matrix(0 -1 1 0 0 523)" font-size="24" font-family="Helvetica"><tspan y="47.52" x="393.64 406.984 413.656">0.8</tspan></text>
<text xml:space="preserve" transform="matrix(0 -1 1 0 0 523)" font-size="24" font-family="Helvetica"><tspan y="47.52" x="475.91 489.254 495.926">1.0</tspan></text>
<text xml:space="preserve" transform="matrix(1 0 -0 1 0 523)" font-size="24" font-family="Helvetica"><tspan y="-10.08" x="273.25 286.714 300.05799 305.386 317.386 330.72999 337.40199 352.20997 365.55397 377.55397 382.88197 389.55397 394.88197 406.28196 419.62596 426.29795 443.62596 456.96995 463.64195">False Positive Rate</tspan></text>
<text xml:space="preserve" transform="matrix(0 -1 1 0 0 523)" font-size="24" font-family="Helvetica"><tspan y="18.72" x="190.38 202.164 210.516 223.86002 237.20401 243.876 258.684 272.02799 284.02799 289.356 296.02799 301.356 312.75599 326.09999 332.77198 350.09999 363.44398 370.11598">True Positive Rate</tspan></text>
<g clip-path="url(#clip_1)">
<path transform="matrix(1,0,0,-1,0,523)" stroke-width="2.25" stroke-linecap="round" stroke-dasharray="6.75,11.25" stroke-linejoin="round" fill="none" stroke="#bebebe" d="M87.79 81.25 662.45 492.59"/>
<path transform="matrix(1,0,0,-1,0,523)" d="M374.99 443.23C374.99 449.17 379.85 454.03 385.79 454.03 391.73 454.03 396.59 449.17 396.59 443.23 396.59 437.29 391.73 432.43 385.79 432.43 379.85 432.43 374.99 437.29 374.99 443.23" fill="#ff0000"/>
<path transform="matrix(1,0,0,-1,0,523)" stroke-width=".75" stroke-linecap="round" stroke-linejoin="round" fill="none" stroke="#ff0000" d="M374.99 443.23C374.99 449.17 379.85 454.03 385.79 454.03 391.73 454.03 396.59 449.17 396.59 443.23 396.59 437.29 391.73 432.43 385.79 432.43 379.85 432.43 374.99 437.29 374.99 443.23"/>
<path transform="matrix(1,0,0,-1,0,523)" d="M119.68 236.19C119.68 242.13 124.54 246.99 130.48 246.99 136.42 246.99 141.28 242.13 141.28 236.19 141.28 230.25 136.42 225.39 130.48 225.39 124.54 225.39 119.68 230.25 119.68 236.19" fill="#0000ff"/>
<path transform="matrix(1,0,0,-1,0,523)" stroke-width=".75" stroke-linecap="round" stroke-linejoin="round" fill="none" stroke="#0000ff" d="M119.68 236.19C119.68 242.13 124.54 246.99 130.48 246.99 136.42 246.99 141.28 242.13 141.28 236.19 141.28 230.25 136.42 225.39 130.48 225.39 124.54 225.39 119.68 230.25 119.68 236.19"/>
<path transform="matrix(1,0,0,-1,0,523)" d="M552.47 169.01H573.27999V145.84999H552.47Z" fill="#ff0000"/>
<path transform="matrix(1,0,0,-1,0,523)" stroke-width=".75" stroke-linecap="round" stroke-linejoin="round" fill="none" stroke="#000000" d="M552.47 169.01H573.27999V145.84999H552.47Z"/>
<path transform="matrix(1,0,0,-1,0,523)" d="M552.47 122.7H573.27999V99.53999H552.47Z" fill="#0000ff"/>
<path transform="matrix(1,0,0,-1,0,523)" stroke-width=".75" stroke-linecap="round" stroke-linejoin="round" fill="none" stroke="#000000" d="M552.47 122.7H573.27999V99.53999H552.47Z"/>
<text xml:space="preserve" transform="matrix(1 0 -0 1 0 523)" font-size="16" font-family="Helvetica"><tspan y="-203.75" x="586.38 594.38 603.276 607.724 616.62 621.068">cutoff</tspan></text>
<text xml:space="preserve" transform="matrix(1 0 -0 1 0 523)" font-size="16" font-family="Helvetica"><tspan y="-151.69" x="599.29 608.186 617.52999 626.42599 630.87399">p=1/5</tspan></text>
<text xml:space="preserve" transform="matrix(1 0 -0 1 0 523)" font-size="16" font-family="Helvetica"><tspan y="-105.37" x="599.29 608.186 617.52999 626.42599 630.87399">p=1/2</tspan></text>
<path transform="matrix(1,0,0,-1,0,523)" stroke-width="2.25" stroke-linecap="round" stroke-linejoin="round" fill="none" stroke="#ff0000" d="M87.79 81.25V492.59"/>
<path transform="matrix(1,0,0,-1,0,523)" stroke-width="2.25" stroke-linecap="round" stroke-linejoin="round" fill="none" stroke="#ff0000" d="M87.79 492.59H662.45"/>
<path transform="matrix(1,0,0,-1,0,523)" stroke-width="2.25" stroke-linecap="round" stroke-linejoin="round" fill="none" stroke="#ff0000" d="M286.2 199.47H338.23"/>
<path transform="matrix(1,0,0,-1,0,523)" stroke-width="2.25" stroke-linecap="round" stroke-linejoin="round" fill="none" stroke="#000000" d="M286.2 153.15H338.23"/>
<path transform="matrix(1,0,0,-1,0,523)" stroke-width="2.25" stroke-linecap="round" stroke-dasharray="6.75,11.25" stroke-linejoin="round" fill="none" stroke="#bebebe" d="M286.2 106.84H338.23"/>
<text xml:space="preserve" transform="matrix(1 0 -0 1 0 523)" font-size="16" font-family="Helvetica"><tspan y="-193.73" x="364.25 367.802 376.698 385.594 394.49 398.042 402.49 415.818 424.714 433.61 442.50599">ideal model</tspan></text>
<text xml:space="preserve" transform="matrix(1 0 -0 1 0 523)" font-size="16" font-family="Helvetica"><tspan y="-147.41" x="364.25 373.146 381.146 385.594 394.49 403.386 406.938 411.386 424.714 433.61 442.50599 451.40199">actual model</tspan></text>
<text xml:space="preserve" transform="matrix(1 0 -0 1 0 523)" font-size="16" font-family="Helvetica"><tspan y="-101.09" x="364.25 373.146 382.042 385.594 393.194 402.09 406.538 419.866 428.762 437.658 446.554">naive model</tspan></text>
</g>
</svg>
